solid TEMT6000-SEN
facet normal 1.0 -0.0 -0.0
  outer loop
    vertex 1.9999999999999996 0.37499999999999944 1.5791812302268223e-16
    vertex 1.9999999999999996 -0.3750000000000005 0.4499999999999999
    vertex 1.9999999999999996 -0.3750000000000005 0.0
  endloop
endfacet
facet normal 1.0 -0.0 -0.0
  outer loop
    vertex 1.9999999999999996 -0.3750000000000005 0.4499999999999999
    vertex 1.9999999999999996 0.37499999999999944 1.5791812302268223e-16
    vertex 1.9999999999999996 0.3749999999999994 0.45000000000000007
  endloop
endfacet
facet normal -1.0 0.0 0.0
  outer loop
    vertex -2.0 0.19999999999999954 0.45000000000000007
    vertex -2.0 -0.20000000000000034 -8.008704810436032e-17
    vertex -2.0 -0.20000000000000054 0.45
  endloop
endfacet
facet normal -1.0 0.0 0.0
  outer loop
    vertex -2.0 -0.20000000000000034 -8.008704810436032e-17
    vertex -2.0 0.19999999999999954 0.45000000000000007
    vertex -2.0 0.19999999999999954 0.3375000000000001
  endloop
endfacet
facet normal -1.0 0.0 0.0
  outer loop
    vertex -2.0 -0.20000000000000034 -8.008704810436032e-17
    vertex -2.0 0.19999999999999954 0.3375000000000001
    vertex -2.0 0.19999999999999965 5.752731624397711e-17
  endloop
endfacet
facet normal 0.992546098923532 -4.665671983454204e-17 0.12186977275632609
  outer loop
    vertex 1.2 -0.37500000000000044 0.4499999999999999
    vertex 1.126329 -0.9263290000000003 1.0499999999999987
    vertex 1.2 -1.0000000000000007 0.4499999999999998
  endloop
endfacet
facet normal 0.992546098923532 -4.665671983454204e-17 0.12186977275632609
  outer loop
    vertex 1.126329 -0.9263290000000003 1.0499999999999987
    vertex 1.2 -0.37500000000000044 0.4499999999999999
    vertex 1.126329 0.9263292399999986 1.0499999999999998
  endloop
endfacet
facet normal 0.992546098923532 -4.665671983454204e-17 0.12186977275632609
  outer loop
    vertex 1.126329 0.9263292399999986 1.0499999999999998
    vertex 1.2 -0.37500000000000044 0.4499999999999999
    vertex 1.2 0.3749999999999994 0.45000000000000007
  endloop
endfacet
facet normal 0.992546098923532 -4.665671983454204e-17 0.12186977275632609
  outer loop
    vertex 1.126329 0.9263292399999986 1.0499999999999998
    vertex 1.2 0.3749999999999994 0.45000000000000007
    vertex 1.2 0.9999999999999992 0.4500000000000002
  endloop
endfacet
facet normal -1.962273538656251e-18 0.9925461469473504 0.12186938163447282
  outer loop
    vertex -1.1263292 0.9263292399999986 1.0499999999999998
    vertex 1.2 0.9999999999999992 0.4500000000000002
    vertex -1.2 0.9999999999999992 0.4500000000000002
  endloop
endfacet
facet normal -1.962273538656251e-18 0.9925461469473504 0.12186938163447282
  outer loop
    vertex 1.2 0.9999999999999992 0.4500000000000002
    vertex -1.1263292 0.9263292399999986 1.0499999999999998
    vertex 1.126329 0.9263292399999986 1.0499999999999998
  endloop
endfacet
facet normal -0.9925461389433913 -4.488734519341119e-17 0.12186944682145141
  outer loop
    vertex -1.1263292 -0.9263290000000003 1.0499999999999987
    vertex -1.2 -0.8000000000000005 0.4499999999999998
    vertex -1.2 -1.0000000000000007 0.4499999999999998
  endloop
endfacet
facet normal -0.9925461389433913 -4.488734519341119e-17 0.12186944682145141
  outer loop
    vertex -1.2 -0.8000000000000005 0.4499999999999998
    vertex -1.1263292 -0.9263290000000003 1.0499999999999987
    vertex -1.1263292 0.9263292399999986 1.0499999999999998
  endloop
endfacet
facet normal -0.9925461389433913 -4.488734519341119e-17 0.12186944682145141
  outer loop
    vertex -1.2 -0.8000000000000005 0.4499999999999998
    vertex -1.1263292 0.9263292399999986 1.0499999999999998
    vertex -1.2 -0.16780779104688345 0.4499999999999999
  endloop
endfacet
facet normal -0.9925461389433913 -4.488734519341119e-17 0.12186944682145141
  outer loop
    vertex -1.2 -0.16780779104688345 0.4499999999999999
    vertex -1.1263292 0.9263292399999986 1.0499999999999998
    vertex -1.2 0.19999999999999954 0.45
  endloop
endfacet
facet normal -0.9925461389433913 -4.488734519341119e-17 0.12186944682145141
  outer loop
    vertex -1.2 0.19999999999999954 0.45
    vertex -1.1263292 0.9263292399999986 1.0499999999999998
    vertex -1.2 0.7999999999999993 0.4500000000000002
  endloop
endfacet
facet normal -0.9925461389433913 -4.488734519341119e-17 0.12186944682145141
  outer loop
    vertex -1.2 0.7999999999999993 0.4500000000000002
    vertex -1.1263292 0.9263292399999986 1.0499999999999998
    vertex -1.2 0.9999999999999992 0.4500000000000002
  endloop
endfacet
facet normal 9.01463941028099e-19 -0.9925460989235317 0.12186977275632674
  outer loop
    vertex 1.126329 -0.9263290000000003 1.0499999999999987
    vertex -1.2 -1.0000000000000007 0.4499999999999998
    vertex 1.2 -1.0000000000000007 0.4499999999999998
  endloop
endfacet
facet normal 9.01463941028099e-19 -0.9925460989235317 0.12186977275632674
  outer loop
    vertex -1.2 -1.0000000000000007 0.4499999999999998
    vertex 1.126329 -0.9263290000000003 1.0499999999999987
    vertex -1.1263292 -0.9263290000000003 1.0499999999999987
  endloop
endfacet
facet normal -0.0 -5.844937322592175e-16 1.0
  outer loop
    vertex 1.126329 -0.9263290000000003 1.0499999999999987
    vertex -1.1263292 0.9263292399999986 1.0499999999999998
    vertex -1.1263292 -0.9263290000000003 1.0499999999999987
  endloop
endfacet
facet normal -0.0 -5.844937322592175e-16 1.0
  outer loop
    vertex -1.1263292 0.9263292399999986 1.0499999999999998
    vertex 1.126329 -0.9263290000000003 1.0499999999999987
    vertex 1.126329 0.9263292399999986 1.0499999999999998
  endloop
endfacet
facet normal 0.0 1.8047785488306544e-16 -1.0
  outer loop
    vertex 1.2 0.9999999999999992 0.4500000000000002
    vertex -1.2 0.7999999999999993 0.4500000000000002
    vertex -1.2 0.9999999999999992 0.4500000000000002
  endloop
endfacet
facet normal 0.0 1.8047785488306544e-16 -1.0
  outer loop
    vertex -1.2 0.7999999999999993 0.4500000000000002
    vertex 1.2 0.9999999999999992 0.4500000000000002
    vertex -1.2 0.19999999999999954 0.45
  endloop
endfacet
facet normal 0.0 1.8047785488306544e-16 -1.0
  outer loop
    vertex -1.2 0.19999999999999954 0.45
    vertex 1.2 0.9999999999999992 0.4500000000000002
    vertex -1.2 -0.16780779104688345 0.4499999999999999
  endloop
endfacet
facet normal 0.0 1.8047785488306544e-16 -1.0
  outer loop
    vertex -1.2 -0.16780779104688345 0.4499999999999999
    vertex 1.2 0.9999999999999992 0.4500000000000002
    vertex -1.2 -0.8000000000000005 0.4499999999999998
  endloop
endfacet
facet normal 0.0 1.8047785488306544e-16 -1.0
  outer loop
    vertex -1.2 -0.8000000000000005 0.4499999999999998
    vertex 1.2 0.9999999999999992 0.4500000000000002
    vertex -1.2 -1.0000000000000007 0.4499999999999998
  endloop
endfacet
facet normal 0.0 1.8047785488306544e-16 -1.0
  outer loop
    vertex -1.2 -1.0000000000000007 0.4499999999999998
    vertex 1.2 0.9999999999999992 0.4500000000000002
    vertex 1.2 -1.0000000000000007 0.4499999999999998
  endloop
endfacet
facet normal 0.0 1.8047785488306544e-16 -1.0
  outer loop
    vertex 1.2 -1.0000000000000007 0.4499999999999998
    vertex 1.2 0.9999999999999992 0.4500000000000002
    vertex 1.2 0.3749999999999994 0.45000000000000007
  endloop
endfacet
facet normal 0.0 1.8047785488306544e-16 -1.0
  outer loop
    vertex 1.2 -1.0000000000000007 0.4499999999999998
    vertex 1.2 0.3749999999999994 0.45000000000000007
    vertex 1.2 -0.37500000000000044 0.4499999999999999
  endloop
endfacet
facet normal -0.0 -0.0 1.0
  outer loop
    vertex -1.2 0.7999999999999993 0.4500000000000002
    vertex -2.0 0.9999999999999992 0.4500000000000002
    vertex -2.0 0.7999999999999993 0.4500000000000002
  endloop
endfacet
facet normal -0.0 -0.0 1.0
  outer loop
    vertex -2.0 0.9999999999999992 0.4500000000000002
    vertex -1.2 0.7999999999999993 0.4500000000000002
    vertex -1.2 0.9999999999999992 0.4500000000000002
  endloop
endfacet
facet normal -4.136676525105491e-33 -1.443822839064523e-16 1.0
  outer loop
    vertex 1.9999999999999996 -1.0000000000000007 0.4499999999999998
    vertex 1.2 -0.37500000000000044 0.4499999999999999
    vertex 1.2 -1.0000000000000007 0.4499999999999998
  endloop
endfacet
facet normal -4.136676525105491e-33 -1.443822839064523e-16 1.0
  outer loop
    vertex 1.2 -0.37500000000000044 0.4499999999999999
    vertex 1.9999999999999996 -1.0000000000000007 0.4499999999999998
    vertex 1.9999999999999996 -0.3750000000000005 0.4499999999999999
  endloop
endfacet
facet normal -0.0 1.0 -0.0
  outer loop
    vertex -2.0 0.9999999999999992 0.4500000000000002
    vertex 1.9999999999999996 0.9999999999999992 3.609557097661309e-16
    vertex -2.0 0.9999999999999992 3.609557097661309e-16
  endloop
endfacet
facet normal -0.0 1.0 -0.0
  outer loop
    vertex 1.9999999999999996 0.9999999999999992 3.609557097661309e-16
    vertex -2.0 0.9999999999999992 0.4500000000000002
    vertex 1.9999999999999996 0.9999999999999992 0.4500000000000002
  endloop
endfacet
facet normal -0.0 1.0 -0.0
  outer loop
    vertex 1.9999999999999996 0.9999999999999992 0.4500000000000002
    vertex -2.0 0.9999999999999992 0.4500000000000002
    vertex -1.2 0.9999999999999992 0.4500000000000002
  endloop
endfacet
facet normal -0.0 1.0 -0.0
  outer loop
    vertex 1.9999999999999996 0.9999999999999992 0.4500000000000002
    vertex -1.2 0.9999999999999992 0.4500000000000002
    vertex 1.2 0.9999999999999992 0.4500000000000002
  endloop
endfacet
facet normal -5.456312957399257e-33 -1.0 -2.406371398440872e-15
  outer loop
    vertex 1.9999999999999996 -1.0000000000000007 0.4499999999999998
    vertex -2.0 -0.9999999999999997 -3.609557097661309e-16
    vertex 1.9999999999999996 -0.9999999999999997 -3.609557097661309e-16
  endloop
endfacet
facet normal -5.456312957399257e-33 -1.0 -2.406371398440872e-15
  outer loop
    vertex -2.0 -0.9999999999999997 -3.609557097661309e-16
    vertex 1.9999999999999996 -1.0000000000000007 0.4499999999999998
    vertex -2.0 -1.0000000000000007 0.4499999999999998
  endloop
endfacet
facet normal -5.456312957399257e-33 -1.0 -2.406371398440872e-15
  outer loop
    vertex -2.0 -1.0000000000000007 0.4499999999999998
    vertex 1.9999999999999996 -1.0000000000000007 0.4499999999999998
    vertex 1.2 -1.0000000000000007 0.4499999999999998
  endloop
endfacet
facet normal -5.456312957399257e-33 -1.0 -2.406371398440872e-15
  outer loop
    vertex -2.0 -1.0000000000000007 0.4499999999999998
    vertex 1.2 -1.0000000000000007 0.4499999999999998
    vertex -1.2 -1.0000000000000007 0.4499999999999998
  endloop
endfacet
facet normal 1.0961852492187742e-17 3.3515529799655576e-16 -1.0
  outer loop
    vertex 1.9999999999999996 0.9999999999999992 3.609557097661309e-16
    vertex -2.0 0.7999999999999995 2.7974067506875146e-16
    vertex -2.0 0.9999999999999992 3.609557097661309e-16
  endloop
endfacet
facet normal 1.0961852492187742e-17 3.3515529799655576e-16 -1.0
  outer loop
    vertex -2.0 0.7999999999999995 2.7974067506875146e-16
    vertex 1.9999999999999996 0.9999999999999992 3.609557097661309e-16
    vertex -1.5 0.7999999999999995 2.7394710800919056e-16
  endloop
endfacet
facet normal 1.0961852492187742e-17 3.3515529799655576e-16 -1.0
  outer loop
    vertex -1.5 0.7999999999999995 2.7394710800919056e-16
    vertex 1.9999999999999996 0.9999999999999992 3.609557097661309e-16
    vertex -1.5 0.19999999999999965 5.752731624397711e-17
  endloop
endfacet
facet normal 1.0961852492187742e-17 3.3515529799655576e-16 -1.0
  outer loop
    vertex -1.5 0.19999999999999965 5.752731624397711e-17
    vertex 1.9999999999999996 0.9999999999999992 3.609557097661309e-16
    vertex -1.5 -0.20000000000000034 -8.008704810436032e-17
  endloop
endfacet
facet normal 1.0961852492187742e-17 3.3515529799655576e-16 -1.0
  outer loop
    vertex -1.5 -0.20000000000000034 -8.008704810436032e-17
    vertex 1.9999999999999996 0.9999999999999992 3.609557097661309e-16
    vertex -1.5 -0.8000000000000005 -2.32576735648138e-16
  endloop
endfacet
facet normal 1.0961852492187742e-17 3.3515529799655576e-16 -1.0
  outer loop
    vertex -1.5 -0.8000000000000005 -2.32576735648138e-16
    vertex 1.9999999999999996 0.9999999999999992 3.609557097661309e-16
    vertex 1.4999999999999996 0.37499999999999944 7.895906151134111e-17
  endloop
endfacet
facet normal 1.0961852492187742e-17 3.3515529799655576e-16 -1.0
  outer loop
    vertex 1.4999999999999996 0.37499999999999944 7.895906151134111e-17
    vertex 1.9999999999999996 0.9999999999999992 3.609557097661309e-16
    vertex 1.9999999999999996 0.37499999999999944 1.5791812302268223e-16
  endloop
endfacet
facet normal 1.0961852492187742e-17 3.3515529799655576e-16 -1.0
  outer loop
    vertex -1.5 -0.8000000000000005 -2.32576735648138e-16
    vertex -2.0 -0.9999999999999997 -3.609557097661309e-16
    vertex -2.0 -0.8000000000000005 -2.7974067506875156e-16
  endloop
endfacet
facet normal 1.0961852492187742e-17 3.3515529799655576e-16 -1.0
  outer loop
    vertex -2.0 -0.9999999999999997 -3.609557097661309e-16
    vertex -1.5 -0.8000000000000005 -2.32576735648138e-16
    vertex 1.9999999999999996 -0.9999999999999997 -3.609557097661309e-16
  endloop
endfacet
facet normal 1.0961852492187742e-17 3.3515529799655576e-16 -1.0
  outer loop
    vertex 1.9999999999999996 -0.9999999999999997 -3.609557097661309e-16
    vertex -1.5 -0.8000000000000005 -2.32576735648138e-16
    vertex 1.4999999999999996 -0.3750000000000005 0.0
  endloop
endfacet
facet normal 1.0961852492187742e-17 3.3515529799655576e-16 -1.0
  outer loop
    vertex 1.4999999999999996 -0.3750000000000005 0.0
    vertex -1.5 -0.8000000000000005 -2.32576735648138e-16
    vertex 1.4999999999999996 0.37499999999999944 7.895906151134111e-17
  endloop
endfacet
facet normal 1.0961852492187742e-17 3.3515529799655576e-16 -1.0
  outer loop
    vertex 1.9999999999999996 -0.9999999999999997 -3.609557097661309e-16
    vertex 1.4999999999999996 -0.3750000000000005 0.0
    vertex 1.9999999999999996 -0.3750000000000005 0.0
  endloop
endfacet
facet normal 1.0961852492187742e-17 3.3515529799655576e-16 -1.0
  outer loop
    vertex -1.5 0.19999999999999965 5.752731624397711e-17
    vertex -2.0 -0.20000000000000034 -8.008704810436032e-17
    vertex -2.0 0.19999999999999965 5.752731624397711e-17
  endloop
endfacet
facet normal 1.0961852492187742e-17 3.3515529799655576e-16 -1.0
  outer loop
    vertex -2.0 -0.20000000000000034 -8.008704810436032e-17
    vertex -1.5 0.19999999999999965 5.752731624397711e-17
    vertex -1.5 -0.20000000000000034 -8.008704810436032e-17
  endloop
endfacet
facet normal 1.0 -0.0 -0.0
  outer loop
    vertex 1.9999999999999996 0.37499999999999944 1.5791812302268223e-16
    vertex 1.9999999999999996 0.9999999999999992 0.4500000000000002
    vertex 1.9999999999999996 0.3749999999999994 0.45000000000000007
  endloop
endfacet
facet normal 1.0 -0.0 -0.0
  outer loop
    vertex 1.9999999999999996 0.9999999999999992 0.4500000000000002
    vertex 1.9999999999999996 0.37499999999999944 1.5791812302268223e-16
    vertex 1.9999999999999996 0.9999999999999992 3.609557097661309e-16
  endloop
endfacet
facet normal 1.0 -0.0 -0.0
  outer loop
    vertex 1.9999999999999996 -0.9999999999999997 -3.609557097661309e-16
    vertex 1.9999999999999996 -0.3750000000000005 0.4499999999999999
    vertex 1.9999999999999996 -1.0000000000000007 0.4499999999999998
  endloop
endfacet
facet normal 1.0 -0.0 -0.0
  outer loop
    vertex 1.9999999999999996 -0.3750000000000005 0.4499999999999999
    vertex 1.9999999999999996 -0.9999999999999997 -3.609557097661309e-16
    vertex 1.9999999999999996 -0.3750000000000005 0.0
  endloop
endfacet
facet normal -6.894460875175822e-33 -2.406371398440873e-16 1.0
  outer loop
    vertex 1.9999999999999996 -0.3750000000000005 0.4499999999999999
    vertex 1.2 0.3749999999999994 0.45000000000000007
    vertex 1.2 -0.37500000000000044 0.4499999999999999
  endloop
endfacet
facet normal -6.894460875175822e-33 -2.406371398440873e-16 1.0
  outer loop
    vertex 1.2 0.3749999999999994 0.45000000000000007
    vertex 1.9999999999999996 -0.3750000000000005 0.4499999999999999
    vertex 1.9999999999999996 0.3749999999999994 0.45000000000000007
  endloop
endfacet
facet normal -0.0 -1.4438228390645237e-16 1.0
  outer loop
    vertex 1.9999999999999996 0.3749999999999994 0.45000000000000007
    vertex 1.2 0.9999999999999992 0.4500000000000002
    vertex 1.2 0.3749999999999994 0.45000000000000007
  endloop
endfacet
facet normal -0.0 -1.4438228390645237e-16 1.0
  outer loop
    vertex 1.2 0.9999999999999992 0.4500000000000002
    vertex 1.9999999999999996 0.3749999999999994 0.45000000000000007
    vertex 1.9999999999999996 0.9999999999999992 0.4500000000000002
  endloop
endfacet
facet normal 7.895906151134111e-17 1.579181230226822e-16 -1.0
  outer loop
    vertex 1.9999999999999996 0.37499999999999944 1.5791812302268223e-16
    vertex 1.4999999999999996 -0.3750000000000005 0.0
    vertex 1.4999999999999996 0.37499999999999944 7.895906151134111e-17
  endloop
endfacet
facet normal 7.895906151134111e-17 1.579181230226822e-16 -1.0
  outer loop
    vertex 1.4999999999999996 -0.3750000000000005 0.0
    vertex 1.9999999999999996 0.37499999999999944 1.5791812302268223e-16
    vertex 1.9999999999999996 -0.3750000000000005 0.0
  endloop
endfacet
facet normal -1.0 0.0 0.0
  outer loop
    vertex -2.0 0.9999999999999992 0.4500000000000002
    vertex -2.0 0.7999999999999995 0.225
    vertex -2.0 0.7999999999999993 0.4500000000000002
  endloop
endfacet
facet normal -1.0 0.0 0.0
  outer loop
    vertex -2.0 0.7999999999999995 0.225
    vertex -2.0 0.9999999999999992 0.4500000000000002
    vertex -2.0 0.7999999999999995 2.7974067506875146e-16
  endloop
endfacet
facet normal -1.0 0.0 0.0
  outer loop
    vertex -2.0 0.7999999999999995 2.7974067506875146e-16
    vertex -2.0 0.9999999999999992 0.4500000000000002
    vertex -2.0 0.9999999999999992 3.609557097661309e-16
  endloop
endfacet
facet normal -1.0 0.0 0.0
  outer loop
    vertex -2.0 0.7999999999999993 0.4500000000000002
    vertex -2.0 0.19999999999999954 0.3375000000000001
    vertex -2.0 0.19999999999999954 0.45000000000000007
  endloop
endfacet
facet normal -1.0 0.0 0.0
  outer loop
    vertex -2.0 0.19999999999999954 0.3375000000000001
    vertex -2.0 0.7999999999999993 0.4500000000000002
    vertex -2.0 0.19999999999999965 5.752731624397711e-17
  endloop
endfacet
facet normal -1.0 0.0 0.0
  outer loop
    vertex -2.0 0.19999999999999965 5.752731624397711e-17
    vertex -2.0 0.7999999999999993 0.4500000000000002
    vertex -2.0 0.7999999999999995 2.7974067506875146e-16
  endloop
endfacet
facet normal -1.0 0.0 0.0
  outer loop
    vertex -2.0 0.7999999999999995 2.7974067506875146e-16
    vertex -2.0 0.7999999999999993 0.4500000000000002
    vertex -2.0 0.7999999999999995 0.225
  endloop
endfacet
facet normal 1.1751971822562215e-16 -2.346435526972003e-16 1.0
  outer loop
    vertex -1.2 -0.16780779104688345 0.4499999999999999
    vertex -2.0 0.19999999999999954 0.45000000000000007
    vertex -2.0 -0.20000000000000054 0.45
  endloop
endfacet
facet normal 1.1751971822562215e-16 -2.346435526972003e-16 1.0
  outer loop
    vertex -2.0 0.19999999999999954 0.45000000000000007
    vertex -1.2 -0.16780779104688345 0.4499999999999999
    vertex -1.2 0.19999999999999954 0.45
  endloop
endfacet
facet normal 7.519910620127723e-17 -2.255973186038319e-16 1.0
  outer loop
    vertex -1.2 0.19999999999999954 0.45
    vertex -2.0 0.7999999999999993 0.4500000000000002
    vertex -2.0 0.19999999999999954 0.45000000000000007
  endloop
endfacet
facet normal 7.519910620127723e-17 -2.255973186038319e-16 1.0
  outer loop
    vertex -2.0 0.7999999999999993 0.4500000000000002
    vertex -1.2 0.19999999999999954 0.45
    vertex -1.2 0.7999999999999993 0.4500000000000002
  endloop
endfacet
facet normal -1.0 0.0 0.0
  outer loop
    vertex -2.0 -0.8000000000000005 0.4499999999999998
    vertex -2.0 -0.9999999999999997 -3.609557097661309e-16
    vertex -2.0 -1.0000000000000007 0.4499999999999998
  endloop
endfacet
facet normal -1.0 0.0 0.0
  outer loop
    vertex -2.0 -0.9999999999999997 -3.609557097661309e-16
    vertex -2.0 -0.8000000000000005 0.4499999999999998
    vertex -2.0 -0.8000000000000005 -2.7974067506875156e-16
  endloop
endfacet
facet normal -0.0 -0.0 1.0
  outer loop
    vertex -1.2 -1.0000000000000007 0.4499999999999998
    vertex -2.0 -0.8000000000000005 0.4499999999999998
    vertex -2.0 -1.0000000000000007 0.4499999999999998
  endloop
endfacet
facet normal -0.0 -0.0 1.0
  outer loop
    vertex -2.0 -0.8000000000000005 0.4499999999999998
    vertex -1.2 -1.0000000000000007 0.4499999999999998
    vertex -1.2 -0.8000000000000005 0.4499999999999998
  endloop
endfacet
facet normal -1.0 0.0 0.0
  outer loop
    vertex -2.0 -0.20000000000000054 0.45
    vertex -2.0 -0.8000000000000005 -2.7974067506875156e-16
    vertex -2.0 -0.8000000000000005 0.4499999999999998
  endloop
endfacet
facet normal -1.0 0.0 0.0
  outer loop
    vertex -2.0 -0.8000000000000005 -2.7974067506875156e-16
    vertex -2.0 -0.20000000000000054 0.45
    vertex -2.0 -0.20000000000000034 -8.008704810436032e-17
  endloop
endfacet
facet normal 6.077830496932592e-17 -2.176414957914949e-16 1.0
  outer loop
    vertex -1.2 -0.8000000000000005 0.4499999999999998
    vertex -2.0 -0.20000000000000054 0.45
    vertex -2.0 -0.8000000000000005 0.4499999999999998
  endloop
endfacet
facet normal 6.077830496932592e-17 -2.176414957914949e-16 1.0
  outer loop
    vertex -2.0 -0.20000000000000054 0.45
    vertex -1.2 -0.8000000000000005 0.4499999999999998
    vertex -1.2 -0.16780779104688345 0.4499999999999999
  endloop
endfacet
facet normal 4.716393942061356e-17 2.934527620901407e-16 -1.0
  outer loop
    vertex -1.5 -0.20000000000000034 -8.008704810436032e-17
    vertex -2.0 -0.8000000000000005 -2.7974067506875156e-16
    vertex -2.0 -0.20000000000000034 -8.008704810436032e-17
  endloop
endfacet
facet normal 4.716393942061356e-17 2.934527620901407e-16 -1.0
  outer loop
    vertex -2.0 -0.8000000000000005 -2.7974067506875156e-16
    vertex -1.5 -0.20000000000000034 -8.008704810436032e-17
    vertex -1.5 -0.8000000000000005 -2.32576735648138e-16
  endloop
endfacet
facet normal -5.793567059560923e-18 3.655276254916566e-16 -1.0
  outer loop
    vertex -1.5 0.7999999999999995 2.7394710800919056e-16
    vertex -2.0 0.19999999999999965 5.752731624397711e-17
    vertex -2.0 0.7999999999999995 2.7974067506875146e-16
  endloop
endfacet
facet normal -5.793567059560923e-18 3.655276254916566e-16 -1.0
  outer loop
    vertex -2.0 0.19999999999999965 5.752731624397711e-17
    vertex -1.5 0.7999999999999995 2.7394710800919056e-16
    vertex -1.5 0.19999999999999965 5.752731624397711e-17
  endloop
endfacet
endsolid TEMT6000-SEN
