solid 0402-CAP
facet normal 0.0 -1.0 0.0
  outer loop
    vertex -0.3000000000000023 -0.2899999999999997 0.45000000000000007
    vertex -0.4500000000000016 -0.2899999999999997 0.39999999999999997
    vertex -0.3000000000000023 -0.2899999999999997 0.39999999999999997
  endloop
endfacet
facet normal 0.0 -1.0 0.0
  outer loop
    vertex -0.3000000000000023 -0.2899999999999997 0.05
    vertex -0.5000000000000021 -0.2899999999999997 0.0
    vertex -0.3000000000000023 -0.2899999999999997 0.0
  endloop
endfacet
facet normal 0.0 -1.0 0.0
  outer loop
    vertex -0.5000000000000021 -0.2899999999999997 0.0
    vertex -0.3000000000000023 -0.2899999999999997 0.05
    vertex -0.4500000000000016 -0.2899999999999997 0.05
  endloop
endfacet
facet normal 0.0 -1.0 0.0
  outer loop
    vertex -0.5000000000000021 -0.2899999999999997 0.0
    vertex -0.4500000000000016 -0.2899999999999997 0.05
    vertex -0.5000000000000021 -0.2899999999999997 0.45000000000000007
  endloop
endfacet
facet normal 0.0 -1.0 0.0
  outer loop
    vertex -0.5000000000000021 -0.2899999999999997 0.45000000000000007
    vertex -0.4500000000000016 -0.2899999999999997 0.05
    vertex -0.4500000000000016 -0.2899999999999997 0.39999999999999997
  endloop
endfacet
facet normal 0.0 -1.0 0.0
  outer loop
    vertex -0.5000000000000021 -0.2899999999999997 0.45000000000000007
    vertex -0.4500000000000016 -0.2899999999999997 0.39999999999999997
    vertex -0.3000000000000023 -0.2899999999999997 0.45000000000000007
  endloop
endfacet
facet normal -0.0 -0.0 1.0
  outer loop
    vertex 0.29999999999999927 -0.2899999999999997 0.45000000000000007
    vertex -0.3000000000000023 0.2899999999999994 0.45000000000000007
    vertex -0.3000000000000023 -0.2899999999999997 0.45000000000000007
  endloop
endfacet
facet normal -0.0 -0.0 1.0
  outer loop
    vertex -0.3000000000000023 0.2899999999999994 0.45000000000000007
    vertex 0.29999999999999927 -0.2899999999999997 0.45000000000000007
    vertex 0.2999999999999991 0.2899999999999998 0.45000000000000007
  endloop
endfacet
facet normal -0.0 -0.0 1.0
  outer loop
    vertex -0.3000000000000023 -0.2899999999999997 0.45000000000000007
    vertex -0.5000000000000021 0.2899999999999994 0.45000000000000007
    vertex -0.5000000000000021 -0.2899999999999997 0.45000000000000007
  endloop
endfacet
facet normal -0.0 -0.0 1.0
  outer loop
    vertex -0.5000000000000021 0.2899999999999994 0.45000000000000007
    vertex -0.3000000000000023 -0.2899999999999997 0.45000000000000007
    vertex -0.3000000000000023 0.2899999999999994 0.45000000000000007
  endloop
endfacet
facet normal 0.0 -1.0 0.0
  outer loop
    vertex 0.29999999999999927 -0.2899999999999997 0.45000000000000007
    vertex -0.3000000000000023 -0.2899999999999997 0.39999999999999997
    vertex 0.29999999999999927 -0.2899999999999997 0.39999999999999997
  endloop
endfacet
facet normal 0.0 -1.0 0.0
  outer loop
    vertex -0.3000000000000023 -0.2899999999999997 0.39999999999999997
    vertex 0.29999999999999927 -0.2899999999999997 0.45000000000000007
    vertex -0.3000000000000023 -0.2899999999999997 0.45000000000000007
  endloop
endfacet
facet normal 0.0 -1.0 0.0
  outer loop
    vertex 0.29999999999999927 -0.2899999999999997 0.05000000000000001
    vertex -0.3000000000000023 -0.2899999999999997 0.0
    vertex 0.29999999999999927 -0.2899999999999997 0.0
  endloop
endfacet
facet normal 0.0 -1.0 0.0
  outer loop
    vertex -0.3000000000000023 -0.2899999999999997 0.0
    vertex 0.29999999999999927 -0.2899999999999997 0.05000000000000001
    vertex -0.3000000000000023 -0.2899999999999997 0.05
  endloop
endfacet
facet normal 0.0 -1.0 0.0
  outer loop
    vertex -0.3000000000000023 -0.2899999999999997 0.05
    vertex 0.29999999999999927 -0.2899999999999997 0.05000000000000001
    vertex -0.4500000000000016 -0.2899999999999997 0.05
  endloop
endfacet
facet normal 0.0 -1.0 0.0
  outer loop
    vertex -0.4500000000000016 -0.2899999999999997 0.05
    vertex 0.29999999999999927 -0.2899999999999997 0.05000000000000001
    vertex -0.4500000000000016 -0.2899999999999997 0.39999999999999997
  endloop
endfacet
facet normal 0.0 -1.0 0.0
  outer loop
    vertex -0.4500000000000016 -0.2899999999999997 0.39999999999999997
    vertex 0.29999999999999927 -0.2899999999999997 0.05000000000000001
    vertex 0.44999999999999946 -0.2899999999999997 0.050000000000000024
  endloop
endfacet
facet normal 0.0 -1.0 0.0
  outer loop
    vertex -0.4500000000000016 -0.2899999999999997 0.39999999999999997
    vertex 0.44999999999999946 -0.2899999999999997 0.050000000000000024
    vertex 0.4499999999999996 -0.2899999999999997 0.39999999999999997
  endloop
endfacet
facet normal 0.0 -1.0 0.0
  outer loop
    vertex -0.4500000000000016 -0.2899999999999997 0.39999999999999997
    vertex 0.4499999999999996 -0.2899999999999997 0.39999999999999997
    vertex 0.29999999999999927 -0.2899999999999997 0.39999999999999997
  endloop
endfacet
facet normal 0.0 -1.0 0.0
  outer loop
    vertex -0.4500000000000016 -0.2899999999999997 0.39999999999999997
    vertex 0.29999999999999927 -0.2899999999999997 0.39999999999999997
    vertex -0.3000000000000023 -0.2899999999999997 0.39999999999999997
  endloop
endfacet
facet normal 0.0 -1.0 0.0
  outer loop
    vertex 0.5 -0.2899999999999997 0.0
    vertex 0.44999999999999946 -0.2899999999999997 0.050000000000000024
    vertex 0.29999999999999927 -0.2899999999999997 0.0
  endloop
endfacet
facet normal 0.0 -1.0 0.0
  outer loop
    vertex 0.44999999999999946 -0.2899999999999997 0.050000000000000024
    vertex 0.5 -0.2899999999999997 0.0
    vertex 0.5 -0.2899999999999997 0.45000000000000007
  endloop
endfacet
facet normal 0.0 -1.0 0.0
  outer loop
    vertex 0.29999999999999927 -0.2899999999999997 0.0
    vertex 0.44999999999999946 -0.2899999999999997 0.050000000000000024
    vertex 0.29999999999999927 -0.2899999999999997 0.05000000000000001
  endloop
endfacet
facet normal 0.0 -1.0 0.0
  outer loop
    vertex 0.44999999999999946 -0.2899999999999997 0.050000000000000024
    vertex 0.5 -0.2899999999999997 0.45000000000000007
    vertex 0.4499999999999996 -0.2899999999999997 0.39999999999999997
  endloop
endfacet
facet normal 0.0 -1.0 0.0
  outer loop
    vertex 0.4499999999999996 -0.2899999999999997 0.39999999999999997
    vertex 0.5 -0.2899999999999997 0.45000000000000007
    vertex 0.29999999999999927 -0.2899999999999997 0.39999999999999997
  endloop
endfacet
facet normal 0.0 -1.0 0.0
  outer loop
    vertex 0.29999999999999927 -0.2899999999999997 0.39999999999999997
    vertex 0.5 -0.2899999999999997 0.45000000000000007
    vertex 0.29999999999999927 -0.2899999999999997 0.45000000000000007
  endloop
endfacet
facet normal -0.0 -0.0 1.0
  outer loop
    vertex 0.29999999999999927 -0.2899999999999997 0.45000000000000007
    vertex 0.5 0.2899999999999998 0.45000000000000007
    vertex 0.2999999999999991 0.2899999999999998 0.45000000000000007
  endloop
endfacet
facet normal -0.0 -0.0 1.0
  outer loop
    vertex 0.5 0.2899999999999998 0.45000000000000007
    vertex 0.29999999999999927 -0.2899999999999997 0.45000000000000007
    vertex 0.5 -0.2899999999999997 0.45000000000000007
  endloop
endfacet
facet normal 1.0 -0.0 -0.0
  outer loop
    vertex 0.5 0.2899999999999998 0.0
    vertex 0.5 -0.2899999999999997 0.45000000000000007
    vertex 0.5 -0.2899999999999997 0.0
  endloop
endfacet
facet normal 1.0 -0.0 -0.0
  outer loop
    vertex 0.5 -0.2899999999999997 0.45000000000000007
    vertex 0.5 0.2899999999999998 0.0
    vertex 0.5 0.2899999999999998 0.45000000000000007
  endloop
endfacet
facet normal -1.0 0.0 0.0
  outer loop
    vertex -0.5000000000000021 0.2899999999999994 0.45000000000000007
    vertex -0.5000000000000021 -0.2899999999999997 0.0
    vertex -0.5000000000000021 -0.2899999999999997 0.45000000000000007
  endloop
endfacet
facet normal -1.0 0.0 0.0
  outer loop
    vertex -0.5000000000000021 -0.2899999999999997 0.0
    vertex -0.5000000000000021 0.2899999999999994 0.45000000000000007
    vertex -0.5000000000000021 0.2899999999999994 0.0
  endloop
endfacet
facet normal 0.0 0.0 -1.0
  outer loop
    vertex 0.29999999999999893 0.2899999999999998 0.0
    vertex -0.3000000000000023 -0.2899999999999997 0.0
    vertex -0.3000000000000023 0.2899999999999994 0.0
  endloop
endfacet
facet normal 0.0 0.0 -1.0
  outer loop
    vertex -0.3000000000000023 -0.2899999999999997 0.0
    vertex 0.29999999999999893 0.2899999999999998 0.0
    vertex 0.29999999999999927 -0.2899999999999997 0.0
  endloop
endfacet
facet normal -0.0 1.0 -0.0
  outer loop
    vertex -0.5000000000000021 0.2899999999999994 0.0
    vertex -0.4500000000000016 0.2899999999999994 0.05
    vertex -0.3000000000000023 0.2899999999999994 0.0
  endloop
endfacet
facet normal -0.0 1.0 -0.0
  outer loop
    vertex -0.4500000000000016 0.2899999999999994 0.05
    vertex -0.5000000000000021 0.2899999999999994 0.0
    vertex -0.5000000000000021 0.2899999999999994 0.45000000000000007
  endloop
endfacet
facet normal -0.0 1.0 -0.0
  outer loop
    vertex -0.4500000000000016 0.2899999999999994 0.05
    vertex -0.5000000000000021 0.2899999999999994 0.45000000000000007
    vertex -0.4500000000000016 0.2899999999999994 0.39999999999999997
  endloop
endfacet
facet normal -0.0 1.0 -0.0
  outer loop
    vertex -0.4500000000000016 0.2899999999999994 0.39999999999999997
    vertex -0.5000000000000021 0.2899999999999994 0.45000000000000007
    vertex -0.3000000000000023 0.2899999999999994 0.39999999999999997
  endloop
endfacet
facet normal -0.0 1.0 -0.0
  outer loop
    vertex -0.3000000000000023 0.2899999999999994 0.39999999999999997
    vertex -0.5000000000000021 0.2899999999999994 0.45000000000000007
    vertex -0.3000000000000023 0.2899999999999994 0.45000000000000007
  endloop
endfacet
facet normal -0.0 1.0 -0.0
  outer loop
    vertex -0.3000000000000023 0.2899999999999994 0.05
    vertex -0.3000000000000023 0.2899999999999994 0.0
    vertex -0.4500000000000016 0.2899999999999994 0.05
  endloop
endfacet
facet normal -4.954294055613554e-16 1.0 1.0150241446200333e-31
  outer loop
    vertex -0.3000000000000023 0.2899999999999994 0.45000000000000007
    vertex 0.2999999999999991 0.2899999999999998 0.39999999999999997
    vertex -0.3000000000000023 0.2899999999999994 0.39999999999999997
  endloop
endfacet
facet normal -4.954294055613554e-16 1.0 1.0150241446200333e-31
  outer loop
    vertex 0.2999999999999991 0.2899999999999998 0.39999999999999997
    vertex -0.3000000000000023 0.2899999999999994 0.45000000000000007
    vertex 0.2999999999999991 0.2899999999999998 0.45000000000000007
  endloop
endfacet
facet normal -4.954294055613554e-16 1.0 1.0150241446200333e-31
  outer loop
    vertex -0.4500000000000016 0.2899999999999994 0.39999999999999997
    vertex -0.3000000000000023 0.2899999999999994 0.05
    vertex -0.4500000000000016 0.2899999999999994 0.05
  endloop
endfacet
facet normal -4.954294055613554e-16 1.0 1.0150241446200333e-31
  outer loop
    vertex -0.3000000000000023 0.2899999999999994 0.05
    vertex -0.4500000000000016 0.2899999999999994 0.39999999999999997
    vertex 0.29999999999999893 0.2899999999999998 0.05
  endloop
endfacet
facet normal -4.954294055613554e-16 1.0 1.0150241446200333e-31
  outer loop
    vertex 0.29999999999999893 0.2899999999999998 0.05
    vertex -0.4500000000000016 0.2899999999999994 0.39999999999999997
    vertex 0.44999999999999946 0.2899999999999998 0.05
  endloop
endfacet
facet normal -4.954294055613554e-16 1.0 1.0150241446200333e-31
  outer loop
    vertex 0.44999999999999946 0.2899999999999998 0.05
    vertex -0.4500000000000016 0.2899999999999994 0.39999999999999997
    vertex 0.4499999999999996 0.2899999999999998 0.39999999999999997
  endloop
endfacet
facet normal -4.954294055613554e-16 1.0 1.0150241446200333e-31
  outer loop
    vertex 0.4499999999999996 0.2899999999999998 0.39999999999999997
    vertex -0.4500000000000016 0.2899999999999994 0.39999999999999997
    vertex -0.3000000000000023 0.2899999999999994 0.39999999999999997
  endloop
endfacet
facet normal -4.954294055613554e-16 1.0 1.0150241446200333e-31
  outer loop
    vertex 0.4499999999999996 0.2899999999999998 0.39999999999999997
    vertex -0.3000000000000023 0.2899999999999994 0.39999999999999997
    vertex 0.2999999999999991 0.2899999999999998 0.39999999999999997
  endloop
endfacet
facet normal -4.954294055613554e-16 1.0 1.0150241446200333e-31
  outer loop
    vertex -0.3000000000000023 0.2899999999999994 0.05
    vertex 0.29999999999999893 0.2899999999999998 0.0
    vertex -0.3000000000000023 0.2899999999999994 0.0
  endloop
endfacet
facet normal -4.954294055613554e-16 1.0 1.0150241446200333e-31
  outer loop
    vertex 0.29999999999999893 0.2899999999999998 0.0
    vertex -0.3000000000000023 0.2899999999999994 0.05
    vertex 0.29999999999999893 0.2899999999999998 0.05
  endloop
endfacet
facet normal 0.0 0.0 -1.0
  outer loop
    vertex -0.3000000000000023 0.2899999999999994 0.0
    vertex -0.5000000000000021 -0.2899999999999997 0.0
    vertex -0.5000000000000021 0.2899999999999994 0.0
  endloop
endfacet
facet normal 0.0 0.0 -1.0
  outer loop
    vertex -0.5000000000000021 -0.2899999999999997 0.0
    vertex -0.3000000000000023 0.2899999999999994 0.0
    vertex -0.3000000000000023 -0.2899999999999997 0.0
  endloop
endfacet
facet normal 0.0 0.0 -1.0
  outer loop
    vertex 0.5 0.2899999999999998 0.0
    vertex 0.29999999999999927 -0.2899999999999997 0.0
    vertex 0.29999999999999893 0.2899999999999998 0.0
  endloop
endfacet
facet normal 0.0 0.0 -1.0
  outer loop
    vertex 0.29999999999999927 -0.2899999999999997 0.0
    vertex 0.5 0.2899999999999998 0.0
    vertex 0.5 -0.2899999999999997 0.0
  endloop
endfacet
facet normal -0.0 1.0 -0.0
  outer loop
    vertex 0.2999999999999991 0.2899999999999998 0.45000000000000007
    vertex 0.4499999999999996 0.2899999999999998 0.39999999999999997
    vertex 0.2999999999999991 0.2899999999999998 0.39999999999999997
  endloop
endfacet
facet normal -0.0 1.0 -0.0
  outer loop
    vertex 0.29999999999999893 0.2899999999999998 0.05
    vertex 0.5 0.2899999999999998 0.0
    vertex 0.29999999999999893 0.2899999999999998 0.0
  endloop
endfacet
facet normal -0.0 1.0 -0.0
  outer loop
    vertex 0.5 0.2899999999999998 0.0
    vertex 0.29999999999999893 0.2899999999999998 0.05
    vertex 0.44999999999999946 0.2899999999999998 0.05
  endloop
endfacet
facet normal -0.0 1.0 -0.0
  outer loop
    vertex 0.5 0.2899999999999998 0.0
    vertex 0.44999999999999946 0.2899999999999998 0.05
    vertex 0.5 0.2899999999999998 0.45000000000000007
  endloop
endfacet
facet normal -0.0 1.0 -0.0
  outer loop
    vertex 0.5 0.2899999999999998 0.45000000000000007
    vertex 0.44999999999999946 0.2899999999999998 0.05
    vertex 0.4499999999999996 0.2899999999999998 0.39999999999999997
  endloop
endfacet
facet normal -0.0 1.0 -0.0
  outer loop
    vertex 0.5 0.2899999999999998 0.45000000000000007
    vertex 0.4499999999999996 0.2899999999999998 0.39999999999999997
    vertex 0.2999999999999991 0.2899999999999998 0.45000000000000007
  endloop
endfacet
endsolid 0402-CAP
