  0
SECTION
  2
HEADER
  9
$ACADVER
  1
AC1009
  9
$INSBASE
 10
0.0
 20
0.0
 30
0.0
  9
$EXTMIN
 10
0.0
 20
0.0
 30
0.0
  9
$EXTMAX
 10
0.0
 20
0.0
 30
0.0
  0
ENDSEC
  0
SECTION
  2
TABLES
  0
TABLE
  2
VPORT
 70
0
  0
ENDTAB
  0
TABLE
  2
LTYPE
 70
1
  0
LTYPE
  2
CONTINUOUS
 70
0
  3
Solid line
 72
65
 73
0
 40
0.0
  0
ENDTAB
  0
TABLE
  2
LAYER
 70
1
  0
LAYER
  2
0
 70
64
 62
7
  6
continuous
  0
ENDTAB
  0
TABLE
  2
STYLE
 70
1
  0
STYLE
  2
STANDARD
 70
0
 40
0
 41
1.0
 50
0.0
 71
0
 42
1
 3
ARIAL.TTF
 4

  0
ENDTAB
  0
TABLE
  2
VIEW
 70
0
  0
ENDTAB
  0
ENDSEC
  0
SECTION
  2
BLOCKS
  0
BLOCK
  8
0
  2
CHAMFER001
 70
0
 10
0.0
 20
0.0
 30
0.0
  3
CHAMFER001
  0
POLYLINE
  8
0
 62
0
 70
0
 66
1
 10
0.0
 20
0.0
 30
0.0
  0
VERTEX
  8
0
 10
2.32959258525
 20
-0.907192585252
  0
VERTEX
  8
0
 10
2.34726935953
 20
-0.860422420441
  0
VERTEX
  8
0
 10
2.36400718458
 20
-0.813308071565
  0
VERTEX
  8
0
 10
2.37618082389
 20
-0.777022876219
  0
SEQEND
  8
0
  0
POLYLINE
  8
0
 62
0
 70
0
 66
1
 10
0.0
 20
0.0
 30
0.0
  0
VERTEX
  8
0
 10
2.4595386899
 20
-0.447961366835
  0
VERTEX
  8
0
 10
2.45008817841
 20
-0.49705927405
  0
VERTEX
  8
0
 10
2.43965768373
 20
-0.545958368375
  0
VERTEX
  8
0
 10
2.42825126528
 20
-0.594639065843
  0
VERTEX
  8
0
 10
2.4158736953
 20
-0.643081943917
  0
VERTEX
  8
0
 10
2.40252975591
 20
-0.691267584217
  0
VERTEX
  8
0
 10
2.38822478484
 20
-0.739176711475
  0
VERTEX
  8
0
 10
2.37296463571
 20
-0.786790202569
  0
VERTEX
  8
0
 10
2.35675535182
 20
-0.834088995033
  0
VERTEX
  8
0
 10
2.33960330396
 20
-0.881054130227
  0
VERTEX
  8
0
 10
2.32151549427
 20
-0.92766687321
  0
VERTEX
  8
0
 10
2.30249910442
 20
-0.973908559855
  0
VERTEX
  8
0
 10
2.28256174382
 20
-1.01976069525
  0
VERTEX
  8
0
 10
2.26171139205
 20
-1.06520494131
  0
VERTEX
  8
0
 10
2.23995638857
 20
-1.11022312087
  0
VERTEX
  8
0
 10
2.21730543198
 20
-1.15479722583
  0
VERTEX
  8
0
 10
2.19376758043
 20
-1.19890942609
  0
VERTEX
  8
0
 10
2.16935224947
 20
-1.24254207765
  0
VERTEX
  8
0
 10
2.1440692072
 20
-1.28567772928
  0
VERTEX
  8
0
 10
2.11792856807
 20
-1.3282991283
  0
VERTEX
  8
0
 10
2.09094078713
 20
-1.37038922627
  0
VERTEX
  8
0
 10
2.06311665634
 20
-1.41193118594
  0
VERTEX
  8
0
 10
2.03446730394
 20
-1.45290839027
  0
VERTEX
  8
0
 10
2.00500419382
 20
-1.49330445208
  0
VERTEX
  8
0
 10
1.97473910489
 20
-1.53310320909
  0
VERTEX
  8
0
 10
1.94368415045
 20
-1.57228874818
  0
VERTEX
  8
0
 10
1.91185175222
 20
-1.610845396
  0
VERTEX
  8
0
 10
1.87925463655
 20
-1.64875772535
  0
VERTEX
  8
0
 10
1.84590583952
 20
-1.68601056959
  0
VERTEX
  8
0
 10
1.81181870318
 20
-1.72258903052
  0
VERTEX
  8
0
 10
1.77700686621
 20
-1.75847848128
  0
VERTEX
  8
0
 10
1.74148425436
 20
-1.79366456824
  0
VERTEX
  8
0
 10
1.70526507349
 20
-1.82813321493
  0
VERTEX
  8
0
 10
1.6683638062
 20
-1.86187062945
  0
VERTEX
  8
0
 10
1.63079521052
 20
-1.89486331479
  0
VERTEX
  8
0
 10
1.59257431752
 20
-1.92709807873
  0
VERTEX
  8
0
 10
1.55371642232
 20
-1.9585620367
  0
VERTEX
  8
0
 10
1.51423706343
 20
-1.98924259875
  0
VERTEX
  8
0
 10
1.4741520275
 20
-2.01912748727
  0
VERTEX
  8
0
 10
1.43347734898
 20
-2.04820474976
  0
VERTEX
  8
0
 10
1.39222929768
 20
-2.07646275627
  0
VERTEX
  8
0
 10
1.35042437388
 20
-2.10389020629
  0
VERTEX
  8
0
 10
1.30807929958
 20
-2.13047613021
  0
VERTEX
  8
0
 10
1.26521101152
 20
-2.15620989299
  0
VERTEX
  8
0
 10
1.22183665529
 20
-2.18108119953
  0
VERTEX
  8
0
 10
1.17797357953
 20
-2.20508010058
  0
VERTEX
  8
0
 10
1.13363932955
 20
-2.22819699801
  0
VERTEX
  8
0
 10
1.08885163982
 20
-2.25042264799
  0
VERTEX
  8
0
 10
1.0436284254
 20
-2.27174816195
  0
VERTEX
  8
0
 10
0.9979877736
 20
-2.29216500722
  0
VERTEX
  8
0
 10
0.951947938011
 20
-2.3116650125
  0
VERTEX
  8
0
 10
0.905527342722
 20
-2.33024039976
  0
VERTEX
  8
0
 10
0.858744544142
 20
-2.3478837104
  0
VERTEX
  8
0
 10
0.811618243895
 20
-2.36458785644
  0
VERTEX
  8
0
 10
0.764167323263
 20
-2.38034624498
  0
VERTEX
  8
0
 10
0.716410753054
 20
-2.39515254992
  0
VERTEX
  8
0
 10
0.668367613706
 20
-2.40900077795
  0
VERTEX
  8
0
 10
0.62005713432
 20
-2.42188543
  0
VERTEX
  8
0
 10
0.571498658518
 20
-2.43380143195
  0
VERTEX
  8
0
 10
0.522711576584
 20
-2.44474388616
  0
VERTEX
  8
0
 10
0.473715415047
 20
-2.45470846399
  0
VERTEX
  8
0
 10
0.447961347111
 20
-2.45953868664
  0
SEQEND
  8
0
  0
POLYLINE
  8
0
 62
0
 70
0
 66
1
 10
0.0
 20
0.0
 30
0.0
  0
VERTEX
  8
0
 10
0.447961347111
 20
-2.45953868664
  0
VERTEX
  8
0
 10
0.497059256097
 20
-2.45008818431
  0
VERTEX
  8
0
 10
0.545958344599
 20
-2.43965766406
  0
VERTEX
  8
0
 10
0.594639049243
 20
-2.42825127562
  0
VERTEX
  8
0
 10
0.643081930005
 20
-2.41587371673
  0
VERTEX
  8
0
 10
0.691267560156
 20
-2.40252974066
  0
VERTEX
  8
0
 10
0.739176691861
 20
-2.38822478402
  0
VERTEX
  8
0
 10
0.786790196011
 20
-2.37296467588
  0
VERTEX
  8
0
 10
0.834088971337
 20
-2.35675534246
  0
VERTEX
  8
0
 10
0.881054113239
 20
-2.33960331242
  0
VERTEX
  8
0
 10
0.922527235398
 20
-2.32356267816
  0
SEQEND
  8
0
  0
POLYLINE
  8
0
 62
0
 70
0
 66
1
 10
0.0
 20
0.0
 30
0.0
  0
VERTEX
  8
0
 10
2.2164253341
 20
-1.15648551287
  0
VERTEX
  8
0
 10
2.23911022952
 20
-1.11192867066
  0
VERTEX
  8
0
 10
2.26089951292
 20
-1.06692707294
  0
VERTEX
  8
0
 10
2.28178447014
 20
-1.02149872023
  0
VERTEX
  8
0
 10
2.30175674378
 20
-0.975661781491
  0
VERTEX
  8
0
 10
2.32080833996
 20
-0.929434588738
  0
VERTEX
  8
0
 10
2.32699059185
 20
-0.913846149703
  0
SEQEND
  8
0
  0
CIRCLE
  8
0
 62
0
 10
0.0
 20
0.0
 30
0.0
 40
9.525
  0
CIRCLE
  8
0
 62
0
 10
0.0
 20
0.0
 30
0.0
 40
9.255
  0
CIRCLE
  8
0
 62
0
 10
6.35
 20
0.0
 30
0.0
 40
1.8224
  0
CIRCLE
  8
0
 62
0
 10
0.0
 20
0.0
 30
0.0
 40
2.77
  0
CIRCLE
  8
0
 62
0
 10
0.0
 20
6.35
 30
0.0
 40
1.8224
  0
CIRCLE
  8
0
 62
0
 10
0.0
 20
-6.35
 30
0.0
 40
1.8224
  0
CIRCLE
  8
0
 62
0
 10
-6.35
 20
0.0
 30
0.0
 40
1.8224
  0
CIRCLE
  8
0
 62
0
 10
0.0
 20
0.0
 30
0.0
 40
2.5
  0
CIRCLE
  8
0
 62
0
 10
6.35
 20
0.0
 30
0.0
 40
1.4224
  0
CIRCLE
  8
0
 62
0
 10
0.0
 20
6.35
 30
0.0
 40
1.4224
  0
CIRCLE
  8
0
 62
0
 10
0.0
 20
-6.35
 30
0.0
 40
1.4224
  0
CIRCLE
  8
0
 62
0
 10
-6.35
 20
0.0
 30
0.0
 40
1.4224
  0
LINE
  8
0
 62
0
 10
9.525
 20
0.0
 30
0.0
 11
9.255
 21
0.0
 31
0.0
  0
LINE
  8
0
 62
0
 10
8.1724
 20
0.0
 30
0.0
 11
7.7724
 21
0.0
 31
0.0
  0
LINE
  8
0
 62
0
 10
2.77
 20
0.0
 30
0.0
 11
2.5
 21
0.0
 31
0.0
  0
LINE
  8
0
 62
0
 10
1.8224
 20
6.35
 30
0.0
 11
1.4224
 21
6.35
 31
0.0
  0
LINE
  8
0
 62
0
 10
1.8224
 20
-6.35
 30
0.0
 11
1.4224
 21
-6.35
 31
0.0
  0
LINE
  8
0
 62
0
 10
-4.5276
 20
0.0
 30
0.0
 11
-4.9276
 21
0.0
 31
0.0
  0
ENDBLK
  0
ENDSEC
  0
SECTION
  2
ENTITIES
  0
INSERT
  2
CHAMFER001
  8
0
 10
0.0
 20
0.0
 30
0.0
  0
ENDSEC
  0
EOF
