solid Polymer Lithium Ion Battery - 2000mAh PRT-08483
facet normal 0.0 1.0 0.0
outer loop
vertex 27593.7822173509 66240.0 1150.0
vertex 28122.6131055143 66240.0 1211.18817793957
vertex 28200.0 66240.0 1201.0
endloop
endfacet
facet normal 0.0 1.0 0.0
outer loop
vertex 28122.6131055143 66240.0 1211.18817793957
vertex 27593.7822173509 66240.0 1150.0
vertex 27523.8519215976 66240.0 1318.82666842824
endloop
endfacet
facet normal 0.0 1.0 0.0
outer loop
vertex 28122.6131055143 66240.0 1211.18817793957
vertex 27523.8519215976 66240.0 1318.82666842824
vertex 28050.5 66240.0 1241.05840426845
endloop
endfacet
facet normal 0.0 1.0 0.0
outer loop
vertex 28050.5 66240.0 1241.05840426845
vertex 27523.8519215976 66240.0 1318.82666842824
vertex 27988.5750724252 66240.0 1288.57507242522
endloop
endfacet
facet normal 0.0 1.0 0.0
outer loop
vertex 27988.5750724252 66240.0 1288.57507242522
vertex 27523.8519215976 66240.0 1318.82666842824
vertex 27941.0584042685 66240.0 1350.5
endloop
endfacet
facet normal 0.0 1.0 0.0
outer loop
vertex 27941.0584042685 66240.0 1350.5
vertex 27523.8519215976 66240.0 1318.82666842824
vertex 27500.0 66240.0 1500.0
endloop
endfacet
facet normal 0.0 1.0 0.0
outer loop
vertex 27941.0584042685 66240.0 1350.5
vertex 27500.0 66240.0 1500.0
vertex 27911.1881779396 66240.0 1422.61310551435
endloop
endfacet
facet normal 0.0 1.0 0.0
outer loop
vertex 27911.1881779396 66240.0 1422.61310551435
vertex 27500.0 66240.0 1500.0
vertex 27901.0 66240.0 1500.0
endloop
endfacet
facet normal 0.0 1.0 0.0
outer loop
vertex 27901.0 66240.0 1500.0
vertex 27500.0 66240.0 1500.0
vertex 27523.8519215976 66240.0 1681.17333157176
endloop
endfacet
facet normal 0.0 1.0 0.0
outer loop
vertex 27901.0 66240.0 1500.0
vertex 27523.8519215976 66240.0 1681.17333157176
vertex 27911.1881779396 66240.0 1577.38689448565
endloop
endfacet
facet normal 0.0 1.0 0.0
outer loop
vertex 27911.1881779396 66240.0 1577.38689448565
vertex 27523.8519215976 66240.0 1681.17333157176
vertex 27941.0584042685 66240.0 1649.5
endloop
endfacet
facet normal 0.0 1.0 0.0
outer loop
vertex 27941.0584042685 66240.0 1649.5
vertex 27523.8519215976 66240.0 1681.17333157176
vertex 27988.5750724252 66240.0 1711.42492757478
endloop
endfacet
facet normal 0.0 1.0 0.0
outer loop
vertex 27988.5750724252 66240.0 1711.42492757478
vertex 27523.8519215976 66240.0 1681.17333157176
vertex 27593.7822173509 66240.0 1850.0
endloop
endfacet
facet normal 0.0 1.0 0.0
outer loop
vertex 27988.5750724252 66240.0 1711.42492757478
vertex 27593.7822173509 66240.0 1850.0
vertex 28050.5 66240.0 1758.94159573155
endloop
endfacet
facet normal 0.0 1.0 0.0
outer loop
vertex 28050.5 66240.0 1758.94159573155
vertex 27593.7822173509 66240.0 1850.0
vertex 28122.6131055143 66240.0 1788.81182206043
endloop
endfacet
facet normal 0.0 1.0 0.0
outer loop
vertex 28122.6131055143 66240.0 1788.81182206043
vertex 27593.7822173509 66240.0 1850.0
vertex 28200.0 66240.0 1799.0
endloop
endfacet
facet normal 0.0 1.0 0.0
outer loop
vertex 28200.0 66240.0 1799.0
vertex 27593.7822173509 66240.0 1850.0
vertex 28806.2177826491 66240.0 1850.0
endloop
endfacet
facet normal 0.0 1.0 0.0
outer loop
vertex 28806.2177826491 66240.0 1850.0
vertex 27593.7822173509 66240.0 1850.0
vertex 28694.9747468306 66240.0 1994.97474683058
endloop
endfacet
facet normal 0.0 1.0 0.0
outer loop
vertex 28694.9747468306 66240.0 1994.97474683058
vertex 27593.7822173509 66240.0 1850.0
vertex 27705.0252531694 66240.0 1994.97474683058
endloop
endfacet
facet normal 0.0 1.0 0.0
outer loop
vertex 28694.9747468306 66240.0 1994.97474683058
vertex 27705.0252531694 66240.0 1994.97474683058
vertex 28550.0 66240.0 2106.21778264911
endloop
endfacet
facet normal 0.0 1.0 0.0
outer loop
vertex 28550.0 66240.0 2106.21778264911
vertex 27705.0252531694 66240.0 1994.97474683058
vertex 27850.0 66240.0 2106.21778264911
endloop
endfacet
facet normal 0.0 1.0 0.0
outer loop
vertex 28550.0 66240.0 2106.21778264911
vertex 27850.0 66240.0 2106.21778264911
vertex 28381.1733315718 66240.0 2176.14807840235
endloop
endfacet
facet normal 0.0 1.0 0.0
outer loop
vertex 28381.1733315718 66240.0 2176.14807840235
vertex 27850.0 66240.0 2106.21778264911
vertex 28018.8266684282 66240.0 2176.14807840235
endloop
endfacet
facet normal 0.0 1.0 0.0
outer loop
vertex 28381.1733315718 66240.0 2176.14807840235
vertex 28018.8266684282 66240.0 2176.14807840235
vertex 28200.0 66240.0 2200.0
endloop
endfacet
facet normal 0.0 1.0 0.0
outer loop
vertex 28018.8266684282 66240.0 823.851921597652
vertex 28381.1733315718 66240.0 823.851921597652
vertex 28200.0 66240.0 800.0
endloop
endfacet
facet normal 0.0 1.0 0.0
outer loop
vertex 28381.1733315718 66240.0 823.851921597652
vertex 28018.8266684282 66240.0 823.851921597652
vertex 28550.0 66240.0 893.782217350893
endloop
endfacet
facet normal 0.0 1.0 0.0
outer loop
vertex 28550.0 66240.0 893.782217350893
vertex 28018.8266684282 66240.0 823.851921597652
vertex 27850.0 66240.0 893.782217350893
endloop
endfacet
facet normal 0.0 1.0 0.0
outer loop
vertex 28550.0 66240.0 893.782217350893
vertex 27850.0 66240.0 893.782217350893
vertex 27705.0252531694 66240.0 1005.02525316942
endloop
endfacet
facet normal 0.0 1.0 0.0
outer loop
vertex 28550.0 66240.0 893.782217350893
vertex 27705.0252531694 66240.0 1005.02525316942
vertex 28694.9747468306 66240.0 1005.02525316942
endloop
endfacet
facet normal 0.0 1.0 0.0
outer loop
vertex 28694.9747468306 66240.0 1005.02525316942
vertex 27705.0252531694 66240.0 1005.02525316942
vertex 28806.2177826491 66240.0 1150.0
endloop
endfacet
facet normal 0.0 1.0 0.0
outer loop
vertex 28806.2177826491 66240.0 1150.0
vertex 27705.0252531694 66240.0 1005.02525316942
vertex 27593.7822173509 66240.0 1150.0
endloop
endfacet
facet normal 0.0 1.0 0.0
outer loop
vertex 28806.2177826491 66240.0 1150.0
vertex 27593.7822173509 66240.0 1150.0
vertex 28200.0 66240.0 1201.0
endloop
endfacet
facet normal 0.0 1.0 0.0
outer loop
vertex 28806.2177826491 66240.0 1150.0
vertex 28200.0 66240.0 1201.0
vertex 28277.3868944856 66240.0 1211.18817793957
endloop
endfacet
facet normal 0.0 1.0 0.0
outer loop
vertex 28806.2177826491 66240.0 1150.0
vertex 28277.3868944856 66240.0 1211.18817793957
vertex 28876.1480784023 66240.0 1318.82666842824
endloop
endfacet
facet normal 0.0 1.0 0.0
outer loop
vertex 28876.1480784023 66240.0 1318.82666842824
vertex 28277.3868944856 66240.0 1211.18817793957
vertex 28349.5 66240.0 1241.05840426845
endloop
endfacet
facet normal 0.0 1.0 0.0
outer loop
vertex 28876.1480784023 66240.0 1318.82666842824
vertex 28349.5 66240.0 1241.05840426845
vertex 28411.4249275748 66240.0 1288.57507242522
endloop
endfacet
facet normal 0.0 1.0 0.0
outer loop
vertex 28876.1480784023 66240.0 1318.82666842824
vertex 28411.4249275748 66240.0 1288.57507242522
vertex 28458.9415957315 66240.0 1350.5
endloop
endfacet
facet normal 0.0 1.0 0.0
outer loop
vertex 28876.1480784023 66240.0 1318.82666842824
vertex 28458.9415957315 66240.0 1350.5
vertex 28900.0 66240.0 1500.0
endloop
endfacet
facet normal 0.0 1.0 0.0
outer loop
vertex 28900.0 66240.0 1500.0
vertex 28458.9415957315 66240.0 1350.5
vertex 28488.8118220604 66240.0 1422.61310551435
endloop
endfacet
facet normal 0.0 1.0 0.0
outer loop
vertex 28900.0 66240.0 1500.0
vertex 28488.8118220604 66240.0 1422.61310551435
vertex 28499.0 66240.0 1500.0
endloop
endfacet
facet normal 0.0 1.0 0.0
outer loop
vertex 28900.0 66240.0 1500.0
vertex 28499.0 66240.0 1500.0
vertex 28488.8118220604 66240.0 1577.38689448565
endloop
endfacet
facet normal 0.0 1.0 0.0
outer loop
vertex 28900.0 66240.0 1500.0
vertex 28488.8118220604 66240.0 1577.38689448565
vertex 28876.1480784023 66240.0 1681.17333157176
endloop
endfacet
facet normal 0.0 1.0 0.0
outer loop
vertex 28876.1480784023 66240.0 1681.17333157176
vertex 28488.8118220604 66240.0 1577.38689448565
vertex 28458.9415957315 66240.0 1649.5
endloop
endfacet
facet normal 0.0 1.0 0.0
outer loop
vertex 28876.1480784023 66240.0 1681.17333157176
vertex 28458.9415957315 66240.0 1649.5
vertex 28411.4249275748 66240.0 1711.42492757478
endloop
endfacet
facet normal 0.0 1.0 0.0
outer loop
vertex 28876.1480784023 66240.0 1681.17333157176
vertex 28411.4249275748 66240.0 1711.42492757478
vertex 28806.2177826491 66240.0 1850.0
endloop
endfacet
facet normal 0.0 1.0 0.0
outer loop
vertex 28806.2177826491 66240.0 1850.0
vertex 28411.4249275748 66240.0 1711.42492757478
vertex 28349.5 66240.0 1758.94159573155
endloop
endfacet
facet normal 0.0 1.0 0.0
outer loop
vertex 28806.2177826491 66240.0 1850.0
vertex 28349.5 66240.0 1758.94159573155
vertex 28277.3868944856 66240.0 1788.81182206043
endloop
endfacet
facet normal 0.0 1.0 0.0
outer loop
vertex 28806.2177826491 66240.0 1850.0
vertex 28277.3868944856 66240.0 1788.81182206043
vertex 28200.0 66240.0 1799.0
endloop
endfacet
facet normal 0.258819045102518 0.0 0.965925826289069
outer loop
vertex 25277.3868944857 66240.0 1788.81182206043
vertex 25200.0 66699.0 1799.0
vertex 25200.0 66240.0 1799.0
endloop
endfacet
facet normal 0.0 0.0 1.0
outer loop
vertex 25200.0 66699.0 1799.0
vertex 25277.3868944857 66240.0 1788.81182206043
vertex 25277.3868944857 66699.0 1788.81182206043
endloop
endfacet
facet normal 0.500000000000003 0.0 0.866025403784437
outer loop
vertex 25349.5 66240.0 1758.94159573155
vertex 25277.3868944857 66699.0 1788.81182206043
vertex 25277.3868944857 66240.0 1788.81182206043
endloop
endfacet
facet normal 0.258819045102518 0.0 0.965925826289069
outer loop
vertex 25277.3868944857 66699.0 1788.81182206043
vertex 25349.5 66240.0 1758.94159573155
vertex 25349.5 66699.0 1758.94159573155
endloop
endfacet
facet normal 0.707106781186548 0.0 0.707106781186547
outer loop
vertex 25411.4249275748 66240.0 1711.42492757478
vertex 25349.5 66699.0 1758.94159573155
vertex 25349.5 66240.0 1758.94159573155
endloop
endfacet
facet normal 0.500000000000003 0.0 0.866025403784437
outer loop
vertex 25349.5 66699.0 1758.94159573155
vertex 25411.4249275748 66240.0 1711.42492757478
vertex 25411.4249275748 66699.0 1711.42492757478
endloop
endfacet
facet normal 0.866025403784436 0.0 0.500000000000005
outer loop
vertex 25458.9415957316 66699.0 1649.5
vertex 25411.4249275748 66240.0 1711.42492757478
vertex 25458.9415957316 66240.0 1649.5
endloop
endfacet
facet normal 0.707106781186548 0.0 0.707106781186547
outer loop
vertex 25411.4249275748 66240.0 1711.42492757478
vertex 25458.9415957316 66699.0 1649.5
vertex 25411.4249275748 66699.0 1711.42492757478
endloop
endfacet
facet normal 0.965925826289071 0.0 0.258819045102512
outer loop
vertex 25488.8118220604 66699.0 1577.38689448565
vertex 25458.9415957316 66240.0 1649.5
vertex 25488.8118220604 66240.0 1577.38689448565
endloop
endfacet
facet normal 0.866025403784436 0.0 0.500000000000005
outer loop
vertex 25458.9415957316 66240.0 1649.5
vertex 25488.8118220604 66699.0 1577.38689448565
vertex 25458.9415957316 66699.0 1649.5
endloop
endfacet
facet normal 1.0 0.0 3.47533285930228e-016
outer loop
vertex 25499.0 66699.0 1500.0
vertex 25488.8118220604 66240.0 1577.38689448565
vertex 25499.0 66240.0 1500.0
endloop
endfacet
facet normal 0.965925826289071 0.0 0.258819045102512
outer loop
vertex 25488.8118220604 66240.0 1577.38689448565
vertex 25499.0 66699.0 1500.0
vertex 25488.8118220604 66699.0 1577.38689448565
endloop
endfacet
facet normal 0.965925826289071 0.0 -0.258819045102512
outer loop
vertex 25488.8118220604 66699.0 1422.61310551435
vertex 25499.0 66240.0 1500.0
vertex 25488.8118220604 66240.0 1422.61310551435
endloop
endfacet
facet normal 1.0 0.0 3.47533285930228e-016
outer loop
vertex 25499.0 66240.0 1500.0
vertex 25488.8118220604 66699.0 1422.61310551435
vertex 25499.0 66699.0 1500.0
endloop
endfacet
facet normal 0.866025403784435 0.0 -0.500000000000005
outer loop
vertex 25458.9415957316 66699.0 1350.5
vertex 25488.8118220604 66240.0 1422.61310551435
vertex 25458.9415957316 66240.0 1350.5
endloop
endfacet
facet normal 0.965925826289071 0.0 -0.258819045102512
outer loop
vertex 25488.8118220604 66240.0 1422.61310551435
vertex 25458.9415957316 66699.0 1350.5
vertex 25488.8118220604 66699.0 1422.61310551435
endloop
endfacet
facet normal 0.707106781186537 0.0 -0.707106781186558
outer loop
vertex 25411.4249275748 66699.0 1288.57507242522
vertex 25458.9415957316 66240.0 1350.5
vertex 25411.4249275748 66240.0 1288.57507242522
endloop
endfacet
facet normal 0.866025403784435 0.0 -0.500000000000005
outer loop
vertex 25458.9415957316 66240.0 1350.5
vertex 25411.4249275748 66699.0 1288.57507242522
vertex 25458.9415957316 66699.0 1350.5
endloop
endfacet
facet normal 0.707106781186537 0.0 -0.707106781186558
outer loop
vertex 25411.4249275748 66699.0 1288.57507242522
vertex 25349.5 66240.0 1241.05840426845
vertex 25349.5 66699.0 1241.05840426845
endloop
endfacet
facet normal 0.499999999999997 0.0 -0.86602540378444
outer loop
vertex 25349.5 66240.0 1241.05840426845
vertex 25411.4249275748 66699.0 1288.57507242522
vertex 25411.4249275748 66240.0 1288.57507242522
endloop
endfacet
facet normal 0.499999999999997 0.0 -0.86602540378444
outer loop
vertex 25349.5 66699.0 1241.05840426845
vertex 25277.3868944857 66240.0 1211.18817793957
vertex 25277.3868944857 66699.0 1211.18817793957
endloop
endfacet
facet normal 0.258819045102526 0.0 -0.965925826289067
outer loop
vertex 25277.3868944857 66240.0 1211.18817793957
vertex 25349.5 66699.0 1241.05840426845
vertex 25349.5 66240.0 1241.05840426845
endloop
endfacet
facet normal 0.258819045102526 0.0 -0.965925826289067
outer loop
vertex 25277.3868944857 66699.0 1211.18817793957
vertex 25200.0 66240.0 1201.0
vertex 25200.0 66699.0 1201.0
endloop
endfacet
facet normal 0.0 0.0 -1.0
outer loop
vertex 25200.0 66240.0 1201.0
vertex 25277.3868944857 66699.0 1211.18817793957
vertex 25277.3868944857 66240.0 1211.18817793957
endloop
endfacet
facet normal 0.0 0.0 -1.0
outer loop
vertex 25200.0 66699.0 1201.0
vertex 25122.6131055143 66240.0 1211.18817793957
vertex 25122.6131055143 66699.0 1211.18817793957
endloop
endfacet
facet normal -0.258819045102518 0.0 -0.965925826289069
outer loop
vertex 25122.6131055143 66240.0 1211.18817793957
vertex 25200.0 66699.0 1201.0
vertex 25200.0 66240.0 1201.0
endloop
endfacet
facet normal -0.258819045102518 0.0 -0.965925826289069
outer loop
vertex 25122.6131055143 66699.0 1211.18817793957
vertex 25050.5 66240.0 1241.05840426845
vertex 25050.5 66699.0 1241.05840426845
endloop
endfacet
facet normal -0.500000000000003 0.0 -0.866025403784437
outer loop
vertex 25050.5 66240.0 1241.05840426845
vertex 25122.6131055143 66699.0 1211.18817793957
vertex 25122.6131055143 66240.0 1211.18817793957
endloop
endfacet
facet normal -0.500000000000003 0.0 -0.866025403784437
outer loop
vertex 25050.5 66699.0 1241.05840426845
vertex 24988.5750724252 66240.0 1288.57507242522
vertex 24988.5750724252 66699.0 1288.57507242522
endloop
endfacet
facet normal -0.707106781186548 0.0 -0.707106781186547
outer loop
vertex 24988.5750724252 66240.0 1288.57507242522
vertex 25050.5 66699.0 1241.05840426845
vertex 25050.5 66240.0 1241.05840426845
endloop
endfacet
facet normal -0.866025403784435 0.0 -0.500000000000005
outer loop
vertex 24941.0584042685 66699.0 1350.5
vertex 24988.5750724252 66240.0 1288.57507242522
vertex 24941.0584042685 66240.0 1350.5
endloop
endfacet
facet normal -0.707106781186548 0.0 -0.707106781186547
outer loop
vertex 24988.5750724252 66240.0 1288.57507242522
vertex 24941.0584042685 66699.0 1350.5
vertex 24988.5750724252 66699.0 1288.57507242522
endloop
endfacet
facet normal -0.965925826289071 0.0 -0.258819045102512
outer loop
vertex 24911.1881779396 66699.0 1422.61310551435
vertex 24941.0584042685 66240.0 1350.5
vertex 24911.1881779396 66240.0 1422.61310551435
endloop
endfacet
facet normal -0.866025403784435 0.0 -0.500000000000005
outer loop
vertex 24941.0584042685 66240.0 1350.5
vertex 24911.1881779396 66699.0 1422.61310551435
vertex 24941.0584042685 66699.0 1350.5
endloop
endfacet
facet normal -1.0 0.0 0.0
outer loop
vertex 24901.0 66699.0 1500.0
vertex 24911.1881779396 66240.0 1422.61310551435
vertex 24901.0 66240.0 1500.0
endloop
endfacet
facet normal -0.965925826289071 0.0 -0.258819045102512
outer loop
vertex 24911.1881779396 66240.0 1422.61310551435
vertex 24901.0 66699.0 1500.0
vertex 24911.1881779396 66699.0 1422.61310551435
endloop
endfacet
facet normal -0.965925826289071 0.0 0.258819045102512
outer loop
vertex 24911.1881779396 66699.0 1577.38689448565
vertex 24901.0 66240.0 1500.0
vertex 24911.1881779396 66240.0 1577.38689448565
endloop
endfacet
facet normal -1.0 0.0 0.0
outer loop
vertex 24901.0 66240.0 1500.0
vertex 24911.1881779396 66699.0 1577.38689448565
vertex 24901.0 66699.0 1500.0
endloop
endfacet
facet normal -0.866025403784435 0.0 0.500000000000006
outer loop
vertex 24941.0584042685 66699.0 1649.5
vertex 24911.1881779396 66240.0 1577.38689448565
vertex 24941.0584042685 66240.0 1649.5
endloop
endfacet
facet normal -0.965925826289071 0.0 0.258819045102512
outer loop
vertex 24911.1881779396 66240.0 1577.38689448565
vertex 24941.0584042685 66699.0 1649.5
vertex 24911.1881779396 66699.0 1577.38689448565
endloop
endfacet
facet normal -0.707106781186537 0.0 0.707106781186558
outer loop
vertex 24988.5750724252 66699.0 1711.42492757478
vertex 24941.0584042685 66240.0 1649.5
vertex 24988.5750724252 66240.0 1711.42492757478
endloop
endfacet
facet normal -0.866025403784435 0.0 0.500000000000006
outer loop
vertex 24941.0584042685 66240.0 1649.5
vertex 24988.5750724252 66699.0 1711.42492757478
vertex 24941.0584042685 66699.0 1649.5
endloop
endfacet
facet normal -0.499999999999998 0.0 0.866025403784439
outer loop
vertex 25050.5 66240.0 1758.94159573155
vertex 24988.5750724252 66699.0 1711.42492757478
vertex 24988.5750724252 66240.0 1711.42492757478
endloop
endfacet
facet normal -0.707106781186537 0.0 0.707106781186558
outer loop
vertex 24988.5750724252 66699.0 1711.42492757478
vertex 25050.5 66240.0 1758.94159573155
vertex 25050.5 66699.0 1758.94159573155
endloop
endfacet
facet normal -0.258819045102526 0.0 0.965925826289067
outer loop
vertex 25122.6131055143 66240.0 1788.81182206043
vertex 25050.5 66699.0 1758.94159573155
vertex 25050.5 66240.0 1758.94159573155
endloop
endfacet
facet normal -0.499999999999998 0.0 0.866025403784439
outer loop
vertex 25050.5 66699.0 1758.94159573155
vertex 25122.6131055143 66240.0 1788.81182206043
vertex 25122.6131055143 66699.0 1788.81182206043
endloop
endfacet
facet normal 0.0 0.0 1.0
outer loop
vertex 25200.0 66240.0 1799.0
vertex 25122.6131055143 66699.0 1788.81182206043
vertex 25122.6131055143 66240.0 1788.81182206043
endloop
endfacet
facet normal -0.258819045102526 0.0 0.965925826289067
outer loop
vertex 25122.6131055143 66699.0 1788.81182206043
vertex 25200.0 66240.0 1799.0
vertex 25200.0 66699.0 1799.0
endloop
endfacet
facet normal 0.0 1.0 0.0
outer loop
vertex 24593.7822173509 66240.0 1150.0
vertex 25122.6131055143 66240.0 1211.18817793957
vertex 25200.0 66240.0 1201.0
endloop
endfacet
facet normal 0.0 1.0 0.0
outer loop
vertex 25122.6131055143 66240.0 1211.18817793957
vertex 24593.7822173509 66240.0 1150.0
vertex 24523.8519215977 66240.0 1318.82666842824
endloop
endfacet
facet normal 0.0 1.0 0.0
outer loop
vertex 25122.6131055143 66240.0 1211.18817793957
vertex 24523.8519215977 66240.0 1318.82666842824
vertex 25050.5 66240.0 1241.05840426845
endloop
endfacet
facet normal 0.0 1.0 0.0
outer loop
vertex 25050.5 66240.0 1241.05840426845
vertex 24523.8519215977 66240.0 1318.82666842824
vertex 24988.5750724252 66240.0 1288.57507242522
endloop
endfacet
facet normal 0.0 1.0 0.0
outer loop
vertex 24988.5750724252 66240.0 1288.57507242522
vertex 24523.8519215977 66240.0 1318.82666842824
vertex 24941.0584042685 66240.0 1350.5
endloop
endfacet
facet normal 0.0 1.0 0.0
outer loop
vertex 24941.0584042685 66240.0 1350.5
vertex 24523.8519215977 66240.0 1318.82666842824
vertex 24500.0 66240.0 1500.0
endloop
endfacet
facet normal 0.0 1.0 0.0
outer loop
vertex 24941.0584042685 66240.0 1350.5
vertex 24500.0 66240.0 1500.0
vertex 24911.1881779396 66240.0 1422.61310551435
endloop
endfacet
facet normal 0.0 1.0 0.0
outer loop
vertex 24911.1881779396 66240.0 1422.61310551435
vertex 24500.0 66240.0 1500.0
vertex 24901.0 66240.0 1500.0
endloop
endfacet
facet normal 0.0 1.0 0.0
outer loop
vertex 24901.0 66240.0 1500.0
vertex 24500.0 66240.0 1500.0
vertex 24523.8519215977 66240.0 1681.17333157176
endloop
endfacet
facet normal 0.0 1.0 0.0
outer loop
vertex 24901.0 66240.0 1500.0
vertex 24523.8519215977 66240.0 1681.17333157176
vertex 24911.1881779396 66240.0 1577.38689448565
endloop
endfacet
facet normal 0.0 1.0 0.0
outer loop
vertex 24911.1881779396 66240.0 1577.38689448565
vertex 24523.8519215977 66240.0 1681.17333157176
vertex 24941.0584042685 66240.0 1649.5
endloop
endfacet
facet normal 0.0 1.0 0.0
outer loop
vertex 24941.0584042685 66240.0 1649.5
vertex 24523.8519215977 66240.0 1681.17333157176
vertex 24988.5750724252 66240.0 1711.42492757478
endloop
endfacet
facet normal 0.0 1.0 0.0
outer loop
vertex 24988.5750724252 66240.0 1711.42492757478
vertex 24523.8519215977 66240.0 1681.17333157176
vertex 24593.7822173509 66240.0 1850.0
endloop
endfacet
facet normal 0.0 1.0 0.0
outer loop
vertex 24988.5750724252 66240.0 1711.42492757478
vertex 24593.7822173509 66240.0 1850.0
vertex 25050.5 66240.0 1758.94159573155
endloop
endfacet
facet normal 0.0 1.0 0.0
outer loop
vertex 25050.5 66240.0 1758.94159573155
vertex 24593.7822173509 66240.0 1850.0
vertex 25122.6131055143 66240.0 1788.81182206043
endloop
endfacet
facet normal 0.0 1.0 0.0
outer loop
vertex 25122.6131055143 66240.0 1788.81182206043
vertex 24593.7822173509 66240.0 1850.0
vertex 25200.0 66240.0 1799.0
endloop
endfacet
facet normal 0.0 1.0 0.0
outer loop
vertex 25200.0 66240.0 1799.0
vertex 24593.7822173509 66240.0 1850.0
vertex 25806.2177826491 66240.0 1850.0
endloop
endfacet
facet normal 0.0 1.0 0.0
outer loop
vertex 25806.2177826491 66240.0 1850.0
vertex 24593.7822173509 66240.0 1850.0
vertex 25694.9747468306 66240.0 1994.97474683058
endloop
endfacet
facet normal 0.0 1.0 0.0
outer loop
vertex 25694.9747468306 66240.0 1994.97474683058
vertex 24593.7822173509 66240.0 1850.0
vertex 24705.0252531694 66240.0 1994.97474683058
endloop
endfacet
facet normal 0.0 1.0 0.0
outer loop
vertex 25694.9747468306 66240.0 1994.97474683058
vertex 24705.0252531694 66240.0 1994.97474683058
vertex 25550.0 66240.0 2106.21778264911
endloop
endfacet
facet normal 0.0 1.0 0.0
outer loop
vertex 25550.0 66240.0 2106.21778264911
vertex 24705.0252531694 66240.0 1994.97474683058
vertex 24850.0 66240.0 2106.21778264911
endloop
endfacet
facet normal 0.0 1.0 0.0
outer loop
vertex 25550.0 66240.0 2106.21778264911
vertex 24850.0 66240.0 2106.21778264911
vertex 25381.1733315718 66240.0 2176.14807840235
endloop
endfacet
facet normal 0.0 1.0 0.0
outer loop
vertex 25381.1733315718 66240.0 2176.14807840235
vertex 24850.0 66240.0 2106.21778264911
vertex 25018.8266684282 66240.0 2176.14807840235
endloop
endfacet
facet normal 0.0 1.0 0.0
outer loop
vertex 25381.1733315718 66240.0 2176.14807840235
vertex 25018.8266684282 66240.0 2176.14807840235
vertex 25200.0 66240.0 2200.0
endloop
endfacet
facet normal 0.0 1.0 0.0
outer loop
vertex 25018.8266684282 66240.0 823.851921597652
vertex 25381.1733315718 66240.0 823.851921597652
vertex 25200.0 66240.0 800.0
endloop
endfacet
facet normal 0.0 1.0 0.0
outer loop
vertex 25381.1733315718 66240.0 823.851921597652
vertex 25018.8266684282 66240.0 823.851921597652
vertex 24850.0 66240.0 893.782217350893
endloop
endfacet
facet normal 0.0 1.0 0.0
outer loop
vertex 25381.1733315718 66240.0 823.851921597652
vertex 24850.0 66240.0 893.782217350893
vertex 25550.0 66240.0 893.782217350893
endloop
endfacet
facet normal 0.0 1.0 0.0
outer loop
vertex 25550.0 66240.0 893.782217350893
vertex 24850.0 66240.0 893.782217350893
vertex 24705.0252531694 66240.0 1005.02525316942
endloop
endfacet
facet normal 0.0 1.0 0.0
outer loop
vertex 25550.0 66240.0 893.782217350893
vertex 24705.0252531694 66240.0 1005.02525316942
vertex 25694.9747468306 66240.0 1005.02525316942
endloop
endfacet
facet normal 0.0 1.0 0.0
outer loop
vertex 25694.9747468306 66240.0 1005.02525316942
vertex 24705.0252531694 66240.0 1005.02525316942
vertex 25806.2177826491 66240.0 1150.0
endloop
endfacet
facet normal 0.0 1.0 0.0
outer loop
vertex 25806.2177826491 66240.0 1150.0
vertex 24705.0252531694 66240.0 1005.02525316942
vertex 24593.7822173509 66240.0 1150.0
endloop
endfacet
facet normal 0.0 1.0 0.0
outer loop
vertex 25806.2177826491 66240.0 1150.0
vertex 24593.7822173509 66240.0 1150.0
vertex 25200.0 66240.0 1201.0
endloop
endfacet
facet normal 0.0 1.0 0.0
outer loop
vertex 25806.2177826491 66240.0 1150.0
vertex 25200.0 66240.0 1201.0
vertex 25277.3868944857 66240.0 1211.18817793957
endloop
endfacet
facet normal 0.0 1.0 0.0
outer loop
vertex 25806.2177826491 66240.0 1150.0
vertex 25277.3868944857 66240.0 1211.18817793957
vertex 25876.1480784024 66240.0 1318.82666842824
endloop
endfacet
facet normal 0.0 1.0 0.0
outer loop
vertex 25876.1480784024 66240.0 1318.82666842824
vertex 25277.3868944857 66240.0 1211.18817793957
vertex 25349.5 66240.0 1241.05840426845
endloop
endfacet
facet normal 0.0 1.0 0.0
outer loop
vertex 25876.1480784024 66240.0 1318.82666842824
vertex 25349.5 66240.0 1241.05840426845
vertex 25411.4249275748 66240.0 1288.57507242522
endloop
endfacet
facet normal 0.0 1.0 0.0
outer loop
vertex 25876.1480784024 66240.0 1318.82666842824
vertex 25411.4249275748 66240.0 1288.57507242522
vertex 25458.9415957316 66240.0 1350.5
endloop
endfacet
facet normal 0.0 1.0 0.0
outer loop
vertex 25876.1480784024 66240.0 1318.82666842824
vertex 25458.9415957316 66240.0 1350.5
vertex 25900.0 66240.0 1500.0
endloop
endfacet
facet normal 0.0 1.0 0.0
outer loop
vertex 25900.0 66240.0 1500.0
vertex 25458.9415957316 66240.0 1350.5
vertex 25488.8118220604 66240.0 1422.61310551435
endloop
endfacet
facet normal 0.0 1.0 0.0
outer loop
vertex 25900.0 66240.0 1500.0
vertex 25488.8118220604 66240.0 1422.61310551435
vertex 25499.0 66240.0 1500.0
endloop
endfacet
facet normal 0.0 1.0 0.0
outer loop
vertex 25900.0 66240.0 1500.0
vertex 25499.0 66240.0 1500.0
vertex 25488.8118220604 66240.0 1577.38689448565
endloop
endfacet
facet normal 0.0 1.0 0.0
outer loop
vertex 25900.0 66240.0 1500.0
vertex 25488.8118220604 66240.0 1577.38689448565
vertex 25876.1480784024 66240.0 1681.17333157176
endloop
endfacet
facet normal 0.0 1.0 0.0
outer loop
vertex 25876.1480784024 66240.0 1681.17333157176
vertex 25488.8118220604 66240.0 1577.38689448565
vertex 25458.9415957316 66240.0 1649.5
endloop
endfacet
facet normal 0.0 1.0 0.0
outer loop
vertex 25876.1480784024 66240.0 1681.17333157176
vertex 25458.9415957316 66240.0 1649.5
vertex 25411.4249275748 66240.0 1711.42492757478
endloop
endfacet
facet normal 0.0 1.0 0.0
outer loop
vertex 25876.1480784024 66240.0 1681.17333157176
vertex 25411.4249275748 66240.0 1711.42492757478
vertex 25806.2177826491 66240.0 1850.0
endloop
endfacet
facet normal 0.0 1.0 0.0
outer loop
vertex 25806.2177826491 66240.0 1850.0
vertex 25411.4249275748 66240.0 1711.42492757478
vertex 25349.5 66240.0 1758.94159573155
endloop
endfacet
facet normal 0.0 1.0 0.0
outer loop
vertex 25806.2177826491 66240.0 1850.0
vertex 25349.5 66240.0 1758.94159573155
vertex 25277.3868944857 66240.0 1788.81182206043
endloop
endfacet
facet normal 0.0 1.0 0.0
outer loop
vertex 25806.2177826491 66240.0 1850.0
vertex 25277.3868944857 66240.0 1788.81182206043
vertex 25200.0 66240.0 1799.0
endloop
endfacet
facet normal -0.0 1.0 -0.0
outer loop
vertex 25122.6131055143 66699.0 1211.18817793957
vertex 25277.3868944857 66699.0 1211.18817793957
vertex 25200.0 66699.0 1201.0
endloop
endfacet
facet normal -0.0 1.0 -0.0
outer loop
vertex 25277.3868944857 66699.0 1211.18817793957
vertex 25122.6131055143 66699.0 1211.18817793957
vertex 25050.5 66699.0 1241.05840426845
endloop
endfacet
facet normal -0.0 1.0 -0.0
outer loop
vertex 25277.3868944857 66699.0 1211.18817793957
vertex 25050.5 66699.0 1241.05840426845
vertex 25349.5 66699.0 1241.05840426845
endloop
endfacet
facet normal -0.0 1.0 -0.0
outer loop
vertex 25349.5 66699.0 1241.05840426845
vertex 25050.5 66699.0 1241.05840426845
vertex 24988.5750724252 66699.0 1288.57507242522
endloop
endfacet
facet normal -0.0 1.0 -0.0
outer loop
vertex 25349.5 66699.0 1241.05840426845
vertex 24988.5750724252 66699.0 1288.57507242522
vertex 25411.4249275748 66699.0 1288.57507242522
endloop
endfacet
facet normal -0.0 1.0 -0.0
outer loop
vertex 25411.4249275748 66699.0 1288.57507242522
vertex 24988.5750724252 66699.0 1288.57507242522
vertex 25458.9415957316 66699.0 1350.5
endloop
endfacet
facet normal -0.0 1.0 -0.0
outer loop
vertex 25458.9415957316 66699.0 1350.5
vertex 24988.5750724252 66699.0 1288.57507242522
vertex 24941.0584042685 66699.0 1350.5
endloop
endfacet
facet normal -0.0 1.0 -0.0
outer loop
vertex 25458.9415957316 66699.0 1350.5
vertex 24941.0584042685 66699.0 1350.5
vertex 25488.8118220604 66699.0 1422.61310551435
endloop
endfacet
facet normal -0.0 1.0 -0.0
outer loop
vertex 25488.8118220604 66699.0 1422.61310551435
vertex 24941.0584042685 66699.0 1350.5
vertex 24911.1881779396 66699.0 1422.61310551435
endloop
endfacet
facet normal -0.0 1.0 -0.0
outer loop
vertex 25488.8118220604 66699.0 1422.61310551435
vertex 24911.1881779396 66699.0 1422.61310551435
vertex 25499.0 66699.0 1500.0
endloop
endfacet
facet normal -0.0 1.0 -0.0
outer loop
vertex 25499.0 66699.0 1500.0
vertex 24911.1881779396 66699.0 1422.61310551435
vertex 24901.0 66699.0 1500.0
endloop
endfacet
facet normal -0.0 1.0 -0.0
outer loop
vertex 25499.0 66699.0 1500.0
vertex 24901.0 66699.0 1500.0
vertex 24911.1881779396 66699.0 1577.38689448565
endloop
endfacet
facet normal -0.0 1.0 -0.0
outer loop
vertex 25499.0 66699.0 1500.0
vertex 24911.1881779396 66699.0 1577.38689448565
vertex 25488.8118220604 66699.0 1577.38689448565
endloop
endfacet
facet normal -0.0 1.0 -0.0
outer loop
vertex 25488.8118220604 66699.0 1577.38689448565
vertex 24911.1881779396 66699.0 1577.38689448565
vertex 25458.9415957316 66699.0 1649.5
endloop
endfacet
facet normal -0.0 1.0 -0.0
outer loop
vertex 25458.9415957316 66699.0 1649.5
vertex 24911.1881779396 66699.0 1577.38689448565
vertex 24941.0584042685 66699.0 1649.5
endloop
endfacet
facet normal -0.0 1.0 -0.0
outer loop
vertex 25458.9415957316 66699.0 1649.5
vertex 24941.0584042685 66699.0 1649.5
vertex 24988.5750724252 66699.0 1711.42492757478
endloop
endfacet
facet normal -0.0 1.0 -0.0
outer loop
vertex 25458.9415957316 66699.0 1649.5
vertex 24988.5750724252 66699.0 1711.42492757478
vertex 25411.4249275748 66699.0 1711.42492757478
endloop
endfacet
facet normal -0.0 1.0 -0.0
outer loop
vertex 25411.4249275748 66699.0 1711.42492757478
vertex 24988.5750724252 66699.0 1711.42492757478
vertex 25050.5 66699.0 1758.94159573155
endloop
endfacet
facet normal -0.0 1.0 -0.0
outer loop
vertex 25411.4249275748 66699.0 1711.42492757478
vertex 25050.5 66699.0 1758.94159573155
vertex 25349.5 66699.0 1758.94159573155
endloop
endfacet
facet normal -0.0 1.0 -0.0
outer loop
vertex 25349.5 66699.0 1758.94159573155
vertex 25050.5 66699.0 1758.94159573155
vertex 25122.6131055143 66699.0 1788.81182206043
endloop
endfacet
facet normal -0.0 1.0 -0.0
outer loop
vertex 25349.5 66699.0 1758.94159573155
vertex 25122.6131055143 66699.0 1788.81182206043
vertex 25277.3868944857 66699.0 1788.81182206043
endloop
endfacet
facet normal -0.0 1.0 -0.0
outer loop
vertex 25277.3868944857 66699.0 1788.81182206043
vertex 25122.6131055143 66699.0 1788.81182206043
vertex 25200.0 66699.0 1799.0
endloop
endfacet
facet normal -0.0 1.0 -0.0
outer loop
vertex 28122.6131055143 66699.0 1211.18817793957
vertex 28277.3868944856 66699.0 1211.18817793957
vertex 28200.0 66699.0 1201.0
endloop
endfacet
facet normal -0.0 1.0 -0.0
outer loop
vertex 28277.3868944856 66699.0 1211.18817793957
vertex 28122.6131055143 66699.0 1211.18817793957
vertex 28050.5 66699.0 1241.05840426845
endloop
endfacet
facet normal -0.0 1.0 -0.0
outer loop
vertex 28277.3868944856 66699.0 1211.18817793957
vertex 28050.5 66699.0 1241.05840426845
vertex 28349.5 66699.0 1241.05840426845
endloop
endfacet
facet normal -0.0 1.0 -0.0
outer loop
vertex 28349.5 66699.0 1241.05840426845
vertex 28050.5 66699.0 1241.05840426845
vertex 27988.5750724252 66699.0 1288.57507242522
endloop
endfacet
facet normal -0.0 1.0 -0.0
outer loop
vertex 28349.5 66699.0 1241.05840426845
vertex 27988.5750724252 66699.0 1288.57507242522
vertex 28411.4249275748 66699.0 1288.57507242522
endloop
endfacet
facet normal -0.0 1.0 -0.0
outer loop
vertex 28411.4249275748 66699.0 1288.57507242522
vertex 27988.5750724252 66699.0 1288.57507242522
vertex 27941.0584042685 66699.0 1350.5
endloop
endfacet
facet normal -0.0 1.0 -0.0
outer loop
vertex 28411.4249275748 66699.0 1288.57507242522
vertex 27941.0584042685 66699.0 1350.5
vertex 28458.9415957315 66699.0 1350.5
endloop
endfacet
facet normal -0.0 1.0 -0.0
outer loop
vertex 28458.9415957315 66699.0 1350.5
vertex 27941.0584042685 66699.0 1350.5
vertex 27911.1881779396 66699.0 1422.61310551435
endloop
endfacet
facet normal -0.0 1.0 -0.0
outer loop
vertex 28458.9415957315 66699.0 1350.5
vertex 27911.1881779396 66699.0 1422.61310551435
vertex 28488.8118220604 66699.0 1422.61310551435
endloop
endfacet
facet normal -0.0 1.0 -0.0
outer loop
vertex 28488.8118220604 66699.0 1422.61310551435
vertex 27911.1881779396 66699.0 1422.61310551435
vertex 27901.0 66699.0 1500.0
endloop
endfacet
facet normal -0.0 1.0 -0.0
outer loop
vertex 28488.8118220604 66699.0 1422.61310551435
vertex 27901.0 66699.0 1500.0
vertex 28499.0 66699.0 1500.0
endloop
endfacet
facet normal -0.0 1.0 -0.0
outer loop
vertex 28499.0 66699.0 1500.0
vertex 27901.0 66699.0 1500.0
vertex 27911.1881779396 66699.0 1577.38689448565
endloop
endfacet
facet normal -0.0 1.0 -0.0
outer loop
vertex 28499.0 66699.0 1500.0
vertex 27911.1881779396 66699.0 1577.38689448565
vertex 28488.8118220604 66699.0 1577.38689448565
endloop
endfacet
facet normal -0.0 1.0 -0.0
outer loop
vertex 28488.8118220604 66699.0 1577.38689448565
vertex 27911.1881779396 66699.0 1577.38689448565
vertex 28458.9415957315 66699.0 1649.5
endloop
endfacet
facet normal -0.0 1.0 -0.0
outer loop
vertex 28458.9415957315 66699.0 1649.5
vertex 27911.1881779396 66699.0 1577.38689448565
vertex 27941.0584042685 66699.0 1649.5
endloop
endfacet
facet normal -0.0 1.0 -0.0
outer loop
vertex 28458.9415957315 66699.0 1649.5
vertex 27941.0584042685 66699.0 1649.5
vertex 27988.5750724252 66699.0 1711.42492757478
endloop
endfacet
facet normal -0.0 1.0 -0.0
outer loop
vertex 28458.9415957315 66699.0 1649.5
vertex 27988.5750724252 66699.0 1711.42492757478
vertex 28411.4249275748 66699.0 1711.42492757478
endloop
endfacet
facet normal -0.0 1.0 -0.0
outer loop
vertex 28411.4249275748 66699.0 1711.42492757478
vertex 27988.5750724252 66699.0 1711.42492757478
vertex 28050.5 66699.0 1758.94159573155
endloop
endfacet
facet normal -0.0 1.0 -0.0
outer loop
vertex 28411.4249275748 66699.0 1711.42492757478
vertex 28050.5 66699.0 1758.94159573155
vertex 28349.5 66699.0 1758.94159573155
endloop
endfacet
facet normal -0.0 1.0 -0.0
outer loop
vertex 28349.5 66699.0 1758.94159573155
vertex 28050.5 66699.0 1758.94159573155
vertex 28122.6131055143 66699.0 1788.81182206043
endloop
endfacet
facet normal -0.0 1.0 -0.0
outer loop
vertex 28349.5 66699.0 1758.94159573155
vertex 28122.6131055143 66699.0 1788.81182206043
vertex 28277.3868944856 66699.0 1788.81182206043
endloop
endfacet
facet normal -0.0 1.0 -0.0
outer loop
vertex 28277.3868944856 66699.0 1788.81182206043
vertex 28122.6131055143 66699.0 1788.81182206043
vertex 28200.0 66699.0 1799.0
endloop
endfacet
facet normal -0.965925826289069 0.0 -0.258819045102518
outer loop
vertex 24523.8519215977 66240.0 1318.82666842824
vertex 24593.7822173509 61000.0 1150.0
vertex 24523.8519215977 61000.0 1318.82666842824
endloop
endfacet
facet normal -0.866025403784441 0.0 -0.499999999999997
outer loop
vertex 24593.7822173509 61000.0 1150.0
vertex 24523.8519215977 66240.0 1318.82666842824
vertex 24593.7822173509 66240.0 1150.0
endloop
endfacet
facet normal -1.0 0.0 -2.49511077078113e-016
outer loop
vertex 24500.0 66240.0 1500.0
vertex 24523.8519215977 61000.0 1318.82666842824
vertex 24500.0 61000.0 1500.0
endloop
endfacet
facet normal -0.965925826289069 0.0 -0.258819045102518
outer loop
vertex 24523.8519215977 61000.0 1318.82666842824
vertex 24500.0 66240.0 1500.0
vertex 24523.8519215977 66240.0 1318.82666842824
endloop
endfacet
facet normal -0.965925826289069 0.0 0.258819045102518
outer loop
vertex 24523.8519215977 66240.0 1681.17333157176
vertex 24500.0 61000.0 1500.0
vertex 24523.8519215977 61000.0 1681.17333157176
endloop
endfacet
facet normal -1.0 0.0 -2.49511077078113e-016
outer loop
vertex 24500.0 61000.0 1500.0
vertex 24523.8519215977 66240.0 1681.17333157176
vertex 24500.0 66240.0 1500.0
endloop
endfacet
facet normal -0.86602540378444 0.0 0.499999999999997
outer loop
vertex 24593.7822173509 66240.0 1850.0
vertex 24523.8519215977 61000.0 1681.17333157176
vertex 24593.7822173509 61000.0 1850.0
endloop
endfacet
facet normal -0.965925826289069 0.0 0.258819045102518
outer loop
vertex 24523.8519215977 61000.0 1681.17333157176
vertex 24593.7822173509 66240.0 1850.0
vertex 24523.8519215977 66240.0 1681.17333157176
endloop
endfacet
facet normal -0.707106781186546 0.0 0.707106781186549
outer loop
vertex 24705.0252531694 66240.0 1994.97474683058
vertex 24593.7822173509 61000.0 1850.0
vertex 24705.0252531694 61000.0 1994.97474683058
endloop
endfacet
facet normal -0.86602540378444 0.0 0.499999999999997
outer loop
vertex 24593.7822173509 61000.0 1850.0
vertex 24705.0252531694 66240.0 1994.97474683058
vertex 24593.7822173509 66240.0 1850.0
endloop
endfacet
facet normal -0.499999999999998 0.0 0.86602540378444
outer loop
vertex 24850.0 61000.0 2106.21778264911
vertex 24705.0252531694 66240.0 1994.97474683058
vertex 24705.0252531694 61000.0 1994.97474683058
endloop
endfacet
facet normal -0.707106781186546 0.0 0.707106781186549
outer loop
vertex 24705.0252531694 66240.0 1994.97474683058
vertex 24850.0 61000.0 2106.21778264911
vertex 24850.0 66240.0 2106.21778264911
endloop
endfacet
facet normal -0.25881904510252 0.0 0.965925826289068
outer loop
vertex 25018.8266684282 61000.0 2176.14807840235
vertex 24850.0 66240.0 2106.21778264911
vertex 24850.0 61000.0 2106.21778264911
endloop
endfacet
facet normal -0.499999999999998 0.0 0.86602540378444
outer loop
vertex 24850.0 66240.0 2106.21778264911
vertex 25018.8266684282 61000.0 2176.14807840235
vertex 25018.8266684282 66240.0 2176.14807840235
endloop
endfacet
facet normal -7.12888791651753e-017 0.0 1.0
outer loop
vertex 25200.0 61000.0 2200.0
vertex 25018.8266684282 66240.0 2176.14807840235
vertex 25018.8266684282 61000.0 2176.14807840235
endloop
endfacet
facet normal -0.25881904510252 0.0 0.965925826289068
outer loop
vertex 25018.8266684282 66240.0 2176.14807840235
vertex 25200.0 61000.0 2200.0
vertex 25200.0 66240.0 2200.0
endloop
endfacet
facet normal 0.258819045102524 0.0 0.965925826289068
outer loop
vertex 25381.1733315718 61000.0 2176.14807840235
vertex 25200.0 66240.0 2200.0
vertex 25200.0 61000.0 2200.0
endloop
endfacet
facet normal -7.12888791651753e-017 0.0 1.0
outer loop
vertex 25200.0 66240.0 2200.0
vertex 25381.1733315718 61000.0 2176.14807840235
vertex 25381.1733315718 66240.0 2176.14807840235
endloop
endfacet
facet normal 0.500000000000001 0.0 0.866025403784438
outer loop
vertex 25550.0 61000.0 2106.21778264911
vertex 25381.1733315718 66240.0 2176.14807840235
vertex 25381.1733315718 61000.0 2176.14807840235
endloop
endfacet
facet normal 0.258819045102524 0.0 0.965925826289068
outer loop
vertex 25381.1733315718 66240.0 2176.14807840235
vertex 25550.0 61000.0 2106.21778264911
vertex 25550.0 66240.0 2106.21778264911
endloop
endfacet
facet normal 0.707106781186546 0.0 0.707106781186549
outer loop
vertex 25694.9747468306 61000.0 1994.97474683058
vertex 25550.0 66240.0 2106.21778264911
vertex 25550.0 61000.0 2106.21778264911
endloop
endfacet
facet normal 0.500000000000001 0.0 0.866025403784438
outer loop
vertex 25550.0 66240.0 2106.21778264911
vertex 25694.9747468306 61000.0 1994.97474683058
vertex 25694.9747468306 66240.0 1994.97474683058
endloop
endfacet
facet normal 0.866025403784441 0.0 0.499999999999997
outer loop
vertex 25806.2177826491 66240.0 1850.0
vertex 25694.9747468306 61000.0 1994.97474683058
vertex 25806.2177826491 61000.0 1850.0
endloop
endfacet
facet normal 0.707106781186546 0.0 0.707106781186549
outer loop
vertex 25694.9747468306 61000.0 1994.97474683058
vertex 25806.2177826491 66240.0 1850.0
vertex 25694.9747468306 66240.0 1994.97474683058
endloop
endfacet
facet normal 0.965925826289069 0.0 0.258819045102518
outer loop
vertex 25876.1480784024 66240.0 1681.17333157176
vertex 25806.2177826491 61000.0 1850.0
vertex 25876.1480784024 61000.0 1681.17333157176
endloop
endfacet
facet normal 0.866025403784441 0.0 0.499999999999997
outer loop
vertex 25806.2177826491 61000.0 1850.0
vertex 25876.1480784024 66240.0 1681.17333157176
vertex 25806.2177826491 66240.0 1850.0
endloop
endfacet
facet normal 1.0 0.0 1.33666648434704e-016
outer loop
vertex 25900.0 66240.0 1500.0
vertex 25876.1480784024 61000.0 1681.17333157176
vertex 25900.0 61000.0 1500.0
endloop
endfacet
facet normal 0.965925826289069 0.0 0.258819045102518
outer loop
vertex 25876.1480784024 61000.0 1681.17333157176
vertex 25900.0 66240.0 1500.0
vertex 25876.1480784024 66240.0 1681.17333157176
endloop
endfacet
facet normal 0.965925826289069 0.0 -0.258819045102518
outer loop
vertex 25876.1480784024 66240.0 1318.82666842824
vertex 25900.0 61000.0 1500.0
vertex 25876.1480784024 61000.0 1318.82666842824
endloop
endfacet
facet normal 1.0 0.0 1.33666648434704e-016
outer loop
vertex 25900.0 61000.0 1500.0
vertex 25876.1480784024 66240.0 1318.82666842824
vertex 25900.0 66240.0 1500.0
endloop
endfacet
facet normal 0.86602540378444 0.0 -0.499999999999997
outer loop
vertex 25806.2177826491 66240.0 1150.0
vertex 25876.1480784024 61000.0 1318.82666842824
vertex 25806.2177826491 61000.0 1150.0
endloop
endfacet
facet normal 0.965925826289069 0.0 -0.258819045102518
outer loop
vertex 25876.1480784024 61000.0 1318.82666842824
vertex 25806.2177826491 66240.0 1150.0
vertex 25876.1480784024 66240.0 1318.82666842824
endloop
endfacet
facet normal 0.707106781186546 0.0 -0.707106781186549
outer loop
vertex 25694.9747468306 66240.0 1005.02525316942
vertex 25806.2177826491 61000.0 1150.0
vertex 25694.9747468306 61000.0 1005.02525316942
endloop
endfacet
facet normal 0.86602540378444 0.0 -0.499999999999997
outer loop
vertex 25806.2177826491 61000.0 1150.0
vertex 25694.9747468306 66240.0 1005.02525316942
vertex 25806.2177826491 66240.0 1150.0
endloop
endfacet
facet normal 0.707106781186546 0.0 -0.707106781186549
outer loop
vertex 25694.9747468306 66240.0 1005.02525316942
vertex 25550.0 61000.0 893.782217350893
vertex 25550.0 66240.0 893.782217350893
endloop
endfacet
facet normal 0.499999999999998 0.0 -0.86602540378444
outer loop
vertex 25550.0 61000.0 893.782217350893
vertex 25694.9747468306 66240.0 1005.02525316942
vertex 25694.9747468306 61000.0 1005.02525316942
endloop
endfacet
facet normal 0.499999999999998 0.0 -0.86602540378444
outer loop
vertex 25550.0 66240.0 893.782217350893
vertex 25381.1733315718 61000.0 823.851921597652
vertex 25381.1733315718 66240.0 823.851921597652
endloop
endfacet
facet normal 0.25881904510252 0.0 -0.965925826289069
outer loop
vertex 25381.1733315718 61000.0 823.851921597652
vertex 25550.0 66240.0 893.782217350893
vertex 25550.0 61000.0 893.782217350893
endloop
endfacet
facet normal 0.25881904510252 0.0 -0.965925826289069
outer loop
vertex 25381.1733315718 66240.0 823.851921597652
vertex 25200.0 61000.0 800.0
vertex 25200.0 66240.0 800.0
endloop
endfacet
facet normal -2.85155516660701e-016 0.0 -1.0
outer loop
vertex 25200.0 61000.0 800.0
vertex 25381.1733315718 66240.0 823.851921597652
vertex 25381.1733315718 61000.0 823.851921597652
endloop
endfacet
facet normal -2.85155516660701e-016 0.0 -1.0
outer loop
vertex 25200.0 66240.0 800.0
vertex 25018.8266684282 61000.0 823.851921597652
vertex 25018.8266684282 66240.0 823.851921597652
endloop
endfacet
facet normal -0.25881904510252 0.0 -0.965925826289069
outer loop
vertex 25018.8266684282 61000.0 823.851921597652
vertex 25200.0 66240.0 800.0
vertex 25200.0 61000.0 800.0
endloop
endfacet
facet normal -0.25881904510252 0.0 -0.965925826289069
outer loop
vertex 25018.8266684282 66240.0 823.851921597652
vertex 24850.0 61000.0 893.782217350893
vertex 24850.0 66240.0 893.782217350893
endloop
endfacet
facet normal -0.499999999999998 0.0 -0.86602540378444
outer loop
vertex 24850.0 61000.0 893.782217350893
vertex 25018.8266684282 66240.0 823.851921597652
vertex 25018.8266684282 61000.0 823.851921597652
endloop
endfacet
facet normal -0.499999999999998 0.0 -0.86602540378444
outer loop
vertex 24850.0 66240.0 893.782217350893
vertex 24705.0252531694 61000.0 1005.02525316942
vertex 24705.0252531694 66240.0 1005.02525316942
endloop
endfacet
facet normal -0.707106781186546 0.0 -0.707106781186549
outer loop
vertex 24705.0252531694 61000.0 1005.02525316942
vertex 24850.0 66240.0 893.782217350893
vertex 24850.0 61000.0 893.782217350893
endloop
endfacet
facet normal -0.866025403784441 0.0 -0.499999999999997
outer loop
vertex 24593.7822173509 66240.0 1150.0
vertex 24705.0252531694 61000.0 1005.02525316942
vertex 24593.7822173509 61000.0 1150.0
endloop
endfacet
facet normal -0.707106781186546 0.0 -0.707106781186549
outer loop
vertex 24705.0252531694 61000.0 1005.02525316942
vertex 24593.7822173509 66240.0 1150.0
vertex 24705.0252531694 66240.0 1005.02525316942
endloop
endfacet
facet normal -0.866025403784441 0.0 -0.499999999999997
outer loop
vertex 27593.7822173509 66240.0 1150.0
vertex 27705.0252531694 61000.0 1005.02525316942
vertex 27593.7822173509 61000.0 1150.0
endloop
endfacet
facet normal -0.707106781186546 0.0 -0.707106781186549
outer loop
vertex 27705.0252531694 61000.0 1005.02525316942
vertex 27593.7822173509 66240.0 1150.0
vertex 27705.0252531694 66240.0 1005.02525316942
endloop
endfacet
facet normal -0.965925826289069 0.0 -0.258819045102518
outer loop
vertex 27523.8519215976 66240.0 1318.82666842824
vertex 27593.7822173509 61000.0 1150.0
vertex 27523.8519215976 61000.0 1318.82666842824
endloop
endfacet
facet normal -0.866025403784441 0.0 -0.499999999999997
outer loop
vertex 27593.7822173509 61000.0 1150.0
vertex 27523.8519215976 66240.0 1318.82666842824
vertex 27593.7822173509 66240.0 1150.0
endloop
endfacet
facet normal -1.0 0.0 -2.49511077078113e-016
outer loop
vertex 27500.0 66240.0 1500.0
vertex 27523.8519215976 61000.0 1318.82666842824
vertex 27500.0 61000.0 1500.0
endloop
endfacet
facet normal -0.965925826289069 0.0 -0.258819045102518
outer loop
vertex 27523.8519215976 61000.0 1318.82666842824
vertex 27500.0 66240.0 1500.0
vertex 27523.8519215976 66240.0 1318.82666842824
endloop
endfacet
facet normal -0.965925826289069 0.0 0.258819045102518
outer loop
vertex 27523.8519215976 66240.0 1681.17333157176
vertex 27500.0 61000.0 1500.0
vertex 27523.8519215976 61000.0 1681.17333157176
endloop
endfacet
facet normal -1.0 0.0 -2.49511077078113e-016
outer loop
vertex 27500.0 61000.0 1500.0
vertex 27523.8519215976 66240.0 1681.17333157176
vertex 27500.0 66240.0 1500.0
endloop
endfacet
facet normal -0.86602540378444 0.0 0.499999999999997
outer loop
vertex 27593.7822173509 66240.0 1850.0
vertex 27523.8519215976 61000.0 1681.17333157176
vertex 27593.7822173509 61000.0 1850.0
endloop
endfacet
facet normal -0.965925826289069 0.0 0.258819045102518
outer loop
vertex 27523.8519215976 61000.0 1681.17333157176
vertex 27593.7822173509 66240.0 1850.0
vertex 27523.8519215976 66240.0 1681.17333157176
endloop
endfacet
facet normal -0.707106781186546 0.0 0.707106781186549
outer loop
vertex 27705.0252531694 66240.0 1994.97474683058
vertex 27593.7822173509 61000.0 1850.0
vertex 27705.0252531694 61000.0 1994.97474683058
endloop
endfacet
facet normal -0.86602540378444 0.0 0.499999999999997
outer loop
vertex 27593.7822173509 61000.0 1850.0
vertex 27705.0252531694 66240.0 1994.97474683058
vertex 27593.7822173509 66240.0 1850.0
endloop
endfacet
facet normal 0.965925826289069 0.0 -0.258819045102518
outer loop
vertex 28876.1480784023 66240.0 1318.82666842824
vertex 28900.0 61000.0 1500.0
vertex 28876.1480784023 61000.0 1318.82666842824
endloop
endfacet
facet normal 1.0 0.0 1.33666648434704e-016
outer loop
vertex 28900.0 61000.0 1500.0
vertex 28876.1480784023 66240.0 1318.82666842824
vertex 28900.0 66240.0 1500.0
endloop
endfacet
facet normal 0.86602540378444 0.0 -0.499999999999997
outer loop
vertex 28806.2177826491 66240.0 1150.0
vertex 28876.1480784023 61000.0 1318.82666842824
vertex 28806.2177826491 61000.0 1150.0
endloop
endfacet
facet normal 0.965925826289069 0.0 -0.258819045102518
outer loop
vertex 28876.1480784023 61000.0 1318.82666842824
vertex 28806.2177826491 66240.0 1150.0
vertex 28876.1480784023 66240.0 1318.82666842824
endloop
endfacet
facet normal 0.707106781186546 0.0 -0.707106781186549
outer loop
vertex 28694.9747468306 66240.0 1005.02525316942
vertex 28806.2177826491 61000.0 1150.0
vertex 28694.9747468306 61000.0 1005.02525316942
endloop
endfacet
facet normal 0.86602540378444 0.0 -0.499999999999997
outer loop
vertex 28806.2177826491 61000.0 1150.0
vertex 28694.9747468306 66240.0 1005.02525316942
vertex 28806.2177826491 66240.0 1150.0
endloop
endfacet
facet normal 0.707106781186546 0.0 -0.707106781186549
outer loop
vertex 28694.9747468306 66240.0 1005.02525316942
vertex 28550.0 61000.0 893.782217350893
vertex 28550.0 66240.0 893.782217350893
endloop
endfacet
facet normal 0.499999999999998 0.0 -0.86602540378444
outer loop
vertex 28550.0 61000.0 893.782217350893
vertex 28694.9747468306 66240.0 1005.02525316942
vertex 28694.9747468306 61000.0 1005.02525316942
endloop
endfacet
facet normal 0.499999999999998 0.0 -0.86602540378444
outer loop
vertex 28550.0 66240.0 893.782217350893
vertex 28381.1733315718 61000.0 823.851921597652
vertex 28381.1733315718 66240.0 823.851921597652
endloop
endfacet
facet normal 0.25881904510252 0.0 -0.965925826289069
outer loop
vertex 28381.1733315718 61000.0 823.851921597652
vertex 28550.0 66240.0 893.782217350893
vertex 28550.0 61000.0 893.782217350893
endloop
endfacet
facet normal 0.25881904510252 0.0 -0.965925826289069
outer loop
vertex 28381.1733315718 66240.0 823.851921597652
vertex 28200.0 61000.0 800.0
vertex 28200.0 66240.0 800.0
endloop
endfacet
facet normal -2.85155516660701e-016 0.0 -1.0
outer loop
vertex 28200.0 61000.0 800.0
vertex 28381.1733315718 66240.0 823.851921597652
vertex 28381.1733315718 61000.0 823.851921597652
endloop
endfacet
facet normal -2.85155516660701e-016 0.0 -1.0
outer loop
vertex 28200.0 66240.0 800.0
vertex 28018.8266684282 61000.0 823.851921597652
vertex 28018.8266684282 66240.0 823.851921597652
endloop
endfacet
facet normal -0.25881904510252 0.0 -0.965925826289069
outer loop
vertex 28018.8266684282 61000.0 823.851921597652
vertex 28200.0 66240.0 800.0
vertex 28200.0 61000.0 800.0
endloop
endfacet
facet normal -0.25881904510252 0.0 -0.965925826289069
outer loop
vertex 28018.8266684282 66240.0 823.851921597652
vertex 27850.0 61000.0 893.782217350893
vertex 27850.0 66240.0 893.782217350893
endloop
endfacet
facet normal -0.499999999999998 0.0 -0.86602540378444
outer loop
vertex 27850.0 61000.0 893.782217350893
vertex 28018.8266684282 66240.0 823.851921597652
vertex 28018.8266684282 61000.0 823.851921597652
endloop
endfacet
facet normal -0.499999999999998 0.0 -0.86602540378444
outer loop
vertex 27850.0 66240.0 893.782217350893
vertex 27705.0252531694 61000.0 1005.02525316942
vertex 27705.0252531694 66240.0 1005.02525316942
endloop
endfacet
facet normal -0.707106781186546 0.0 -0.707106781186549
outer loop
vertex 27705.0252531694 61000.0 1005.02525316942
vertex 27850.0 66240.0 893.782217350893
vertex 27850.0 61000.0 893.782217350893
endloop
endfacet
facet normal 0.0 -1.0 0.0
outer loop
vertex 28381.1733315718 61000.0 823.851921597652
vertex 28018.8266684282 61000.0 823.851921597652
vertex 28200.0 61000.0 800.0
endloop
endfacet
facet normal 0.0 -1.0 0.0
outer loop
vertex 28018.8266684282 61000.0 823.851921597652
vertex 28381.1733315718 61000.0 823.851921597652
vertex 28550.0 61000.0 893.782217350893
endloop
endfacet
facet normal 0.0 -1.0 0.0
outer loop
vertex 28018.8266684282 61000.0 823.851921597652
vertex 28550.0 61000.0 893.782217350893
vertex 27850.0 61000.0 893.782217350893
endloop
endfacet
facet normal 0.0 -1.0 0.0
outer loop
vertex 27850.0 61000.0 893.782217350893
vertex 28550.0 61000.0 893.782217350893
vertex 28694.9747468306 61000.0 1005.02525316942
endloop
endfacet
facet normal 0.0 -1.0 0.0
outer loop
vertex 27850.0 61000.0 893.782217350893
vertex 28694.9747468306 61000.0 1005.02525316942
vertex 27705.0252531694 61000.0 1005.02525316942
endloop
endfacet
facet normal 0.0 -1.0 0.0
outer loop
vertex 27705.0252531694 61000.0 1005.02525316942
vertex 28694.9747468306 61000.0 1005.02525316942
vertex 28806.2177826491 61000.0 1150.0
endloop
endfacet
facet normal 0.0 -1.0 0.0
outer loop
vertex 27705.0252531694 61000.0 1005.02525316942
vertex 28806.2177826491 61000.0 1150.0
vertex 27593.7822173509 61000.0 1150.0
endloop
endfacet
facet normal 0.0 -1.0 0.0
outer loop
vertex 27593.7822173509 61000.0 1150.0
vertex 28806.2177826491 61000.0 1150.0
vertex 28876.1480784023 61000.0 1318.82666842824
endloop
endfacet
facet normal 0.0 -1.0 0.0
outer loop
vertex 27593.7822173509 61000.0 1150.0
vertex 28876.1480784023 61000.0 1318.82666842824
vertex 27523.8519215976 61000.0 1318.82666842824
endloop
endfacet
facet normal 0.0 -1.0 0.0
outer loop
vertex 27523.8519215976 61000.0 1318.82666842824
vertex 28876.1480784023 61000.0 1318.82666842824
vertex 28900.0 61000.0 1500.0
endloop
endfacet
facet normal 0.0 -1.0 0.0
outer loop
vertex 27523.8519215976 61000.0 1318.82666842824
vertex 28900.0 61000.0 1500.0
vertex 27500.0 61000.0 1500.0
endloop
endfacet
facet normal 0.0 -1.0 0.0
outer loop
vertex 27500.0 61000.0 1500.0
vertex 28900.0 61000.0 1500.0
vertex 28876.1480784023 61000.0 1681.17333157176
endloop
endfacet
facet normal 0.0 -1.0 0.0
outer loop
vertex 27500.0 61000.0 1500.0
vertex 28876.1480784023 61000.0 1681.17333157176
vertex 27523.8519215976 61000.0 1681.17333157176
endloop
endfacet
facet normal 0.0 -1.0 0.0
outer loop
vertex 27523.8519215976 61000.0 1681.17333157176
vertex 28876.1480784023 61000.0 1681.17333157176
vertex 28806.2177826491 61000.0 1850.0
endloop
endfacet
facet normal 0.0 -1.0 0.0
outer loop
vertex 27523.8519215976 61000.0 1681.17333157176
vertex 28806.2177826491 61000.0 1850.0
vertex 27593.7822173509 61000.0 1850.0
endloop
endfacet
facet normal 0.0 -1.0 0.0
outer loop
vertex 27593.7822173509 61000.0 1850.0
vertex 28806.2177826491 61000.0 1850.0
vertex 28694.9747468306 61000.0 1994.97474683058
endloop
endfacet
facet normal 0.0 -1.0 0.0
outer loop
vertex 27593.7822173509 61000.0 1850.0
vertex 28694.9747468306 61000.0 1994.97474683058
vertex 27705.0252531694 61000.0 1994.97474683058
endloop
endfacet
facet normal 0.0 -1.0 0.0
outer loop
vertex 27705.0252531694 61000.0 1994.97474683058
vertex 28694.9747468306 61000.0 1994.97474683058
vertex 28550.0 61000.0 2106.21778264911
endloop
endfacet
facet normal 0.0 -1.0 0.0
outer loop
vertex 27705.0252531694 61000.0 1994.97474683058
vertex 28550.0 61000.0 2106.21778264911
vertex 27850.0 61000.0 2106.21778264911
endloop
endfacet
facet normal 0.0 -1.0 0.0
outer loop
vertex 27850.0 61000.0 2106.21778264911
vertex 28550.0 61000.0 2106.21778264911
vertex 28381.1733315718 61000.0 2176.14807840235
endloop
endfacet
facet normal 0.0 -1.0 0.0
outer loop
vertex 27850.0 61000.0 2106.21778264911
vertex 28381.1733315718 61000.0 2176.14807840235
vertex 28018.8266684282 61000.0 2176.14807840235
endloop
endfacet
facet normal 0.0 -1.0 0.0
outer loop
vertex 28018.8266684282 61000.0 2176.14807840235
vertex 28381.1733315718 61000.0 2176.14807840235
vertex 28200.0 61000.0 2200.0
endloop
endfacet
facet normal 0.0 -1.0 0.0
outer loop
vertex 25381.1733315718 61000.0 823.851921597652
vertex 25018.8266684282 61000.0 823.851921597652
vertex 25200.0 61000.0 800.0
endloop
endfacet
facet normal 0.0 -1.0 0.0
outer loop
vertex 25018.8266684282 61000.0 823.851921597652
vertex 25381.1733315718 61000.0 823.851921597652
vertex 25550.0 61000.0 893.782217350893
endloop
endfacet
facet normal 0.0 -1.0 0.0
outer loop
vertex 25018.8266684282 61000.0 823.851921597652
vertex 25550.0 61000.0 893.782217350893
vertex 24850.0 61000.0 893.782217350893
endloop
endfacet
facet normal 0.0 -1.0 0.0
outer loop
vertex 24850.0 61000.0 893.782217350893
vertex 25550.0 61000.0 893.782217350893
vertex 25694.9747468306 61000.0 1005.02525316942
endloop
endfacet
facet normal 0.0 -1.0 0.0
outer loop
vertex 24850.0 61000.0 893.782217350893
vertex 25694.9747468306 61000.0 1005.02525316942
vertex 24705.0252531694 61000.0 1005.02525316942
endloop
endfacet
facet normal 0.0 -1.0 0.0
outer loop
vertex 24705.0252531694 61000.0 1005.02525316942
vertex 25694.9747468306 61000.0 1005.02525316942
vertex 25806.2177826491 61000.0 1150.0
endloop
endfacet
facet normal 0.0 -1.0 0.0
outer loop
vertex 24705.0252531694 61000.0 1005.02525316942
vertex 25806.2177826491 61000.0 1150.0
vertex 24593.7822173509 61000.0 1150.0
endloop
endfacet
facet normal 0.0 -1.0 0.0
outer loop
vertex 24593.7822173509 61000.0 1150.0
vertex 25806.2177826491 61000.0 1150.0
vertex 25876.1480784024 61000.0 1318.82666842824
endloop
endfacet
facet normal 0.0 -1.0 0.0
outer loop
vertex 24593.7822173509 61000.0 1150.0
vertex 25876.1480784024 61000.0 1318.82666842824
vertex 24523.8519215977 61000.0 1318.82666842824
endloop
endfacet
facet normal 0.0 -1.0 0.0
outer loop
vertex 24523.8519215977 61000.0 1318.82666842824
vertex 25876.1480784024 61000.0 1318.82666842824
vertex 25900.0 61000.0 1500.0
endloop
endfacet
facet normal 0.0 -1.0 0.0
outer loop
vertex 24523.8519215977 61000.0 1318.82666842824
vertex 25900.0 61000.0 1500.0
vertex 24500.0 61000.0 1500.0
endloop
endfacet
facet normal 0.0 -1.0 0.0
outer loop
vertex 24500.0 61000.0 1500.0
vertex 25900.0 61000.0 1500.0
vertex 25876.1480784024 61000.0 1681.17333157176
endloop
endfacet
facet normal 0.0 -1.0 0.0
outer loop
vertex 24500.0 61000.0 1500.0
vertex 25876.1480784024 61000.0 1681.17333157176
vertex 24523.8519215977 61000.0 1681.17333157176
endloop
endfacet
facet normal 0.0 -1.0 0.0
outer loop
vertex 24523.8519215977 61000.0 1681.17333157176
vertex 25876.1480784024 61000.0 1681.17333157176
vertex 25806.2177826491 61000.0 1850.0
endloop
endfacet
facet normal 0.0 -1.0 0.0
outer loop
vertex 24523.8519215977 61000.0 1681.17333157176
vertex 25806.2177826491 61000.0 1850.0
vertex 24593.7822173509 61000.0 1850.0
endloop
endfacet
facet normal 0.0 -1.0 0.0
outer loop
vertex 24593.7822173509 61000.0 1850.0
vertex 25806.2177826491 61000.0 1850.0
vertex 25694.9747468306 61000.0 1994.97474683058
endloop
endfacet
facet normal 0.0 -1.0 0.0
outer loop
vertex 24593.7822173509 61000.0 1850.0
vertex 25694.9747468306 61000.0 1994.97474683058
vertex 24705.0252531694 61000.0 1994.97474683058
endloop
endfacet
facet normal 0.0 -1.0 0.0
outer loop
vertex 24705.0252531694 61000.0 1994.97474683058
vertex 25694.9747468306 61000.0 1994.97474683058
vertex 25550.0 61000.0 2106.21778264911
endloop
endfacet
facet normal 0.0 -1.0 0.0
outer loop
vertex 24705.0252531694 61000.0 1994.97474683058
vertex 25550.0 61000.0 2106.21778264911
vertex 24850.0 61000.0 2106.21778264911
endloop
endfacet
facet normal 0.0 -1.0 0.0
outer loop
vertex 24850.0 61000.0 2106.21778264911
vertex 25550.0 61000.0 2106.21778264911
vertex 25381.1733315718 61000.0 2176.14807840235
endloop
endfacet
facet normal 0.0 -1.0 0.0
outer loop
vertex 24850.0 61000.0 2106.21778264911
vertex 25381.1733315718 61000.0 2176.14807840235
vertex 25018.8266684282 61000.0 2176.14807840235
endloop
endfacet
facet normal 0.0 -1.0 0.0
outer loop
vertex 25018.8266684282 61000.0 2176.14807840235
vertex 25381.1733315718 61000.0 2176.14807840235
vertex 25200.0 61000.0 2200.0
endloop
endfacet
facet normal 1.0 0.0 1.33666648434704e-016
outer loop
vertex 28900.0 66240.0 1500.0
vertex 28876.1480784023 61000.0 1681.17333157176
vertex 28900.0 61000.0 1500.0
endloop
endfacet
facet normal 0.965925826289069 0.0 0.258819045102518
outer loop
vertex 28876.1480784023 61000.0 1681.17333157176
vertex 28900.0 66240.0 1500.0
vertex 28876.1480784023 66240.0 1681.17333157176
endloop
endfacet
facet normal 0.866025403784441 0.0 0.499999999999997
outer loop
vertex 28806.2177826491 66240.0 1850.0
vertex 28694.9747468306 61000.0 1994.97474683058
vertex 28806.2177826491 61000.0 1850.0
endloop
endfacet
facet normal 0.707106781186546 0.0 0.707106781186549
outer loop
vertex 28694.9747468306 61000.0 1994.97474683058
vertex 28806.2177826491 66240.0 1850.0
vertex 28694.9747468306 66240.0 1994.97474683058
endloop
endfacet
facet normal 0.707106781186546 0.0 0.707106781186549
outer loop
vertex 28694.9747468306 61000.0 1994.97474683058
vertex 28550.0 66240.0 2106.21778264911
vertex 28550.0 61000.0 2106.21778264911
endloop
endfacet
facet normal 0.500000000000001 0.0 0.866025403784438
outer loop
vertex 28550.0 66240.0 2106.21778264911
vertex 28694.9747468306 61000.0 1994.97474683058
vertex 28694.9747468306 66240.0 1994.97474683058
endloop
endfacet
facet normal 0.965925826289069 0.0 0.258819045102518
outer loop
vertex 28876.1480784023 66240.0 1681.17333157176
vertex 28806.2177826491 61000.0 1850.0
vertex 28876.1480784023 61000.0 1681.17333157176
endloop
endfacet
facet normal 0.866025403784441 0.0 0.499999999999997
outer loop
vertex 28806.2177826491 61000.0 1850.0
vertex 28876.1480784023 66240.0 1681.17333157176
vertex 28806.2177826491 66240.0 1850.0
endloop
endfacet
facet normal -0.258819045102519 0.0 0.965925826289069
outer loop
vertex 28018.8266684282 61000.0 2176.14807840235
vertex 27850.0 66240.0 2106.21778264911
vertex 27850.0 61000.0 2106.21778264911
endloop
endfacet
facet normal -0.499999999999998 0.0 0.86602540378444
outer loop
vertex 27850.0 66240.0 2106.21778264911
vertex 28018.8266684282 61000.0 2176.14807840235
vertex 28018.8266684282 66240.0 2176.14807840235
endloop
endfacet
facet normal -0.499999999999998 0.0 0.86602540378444
outer loop
vertex 27850.0 61000.0 2106.21778264911
vertex 27705.0252531694 66240.0 1994.97474683058
vertex 27705.0252531694 61000.0 1994.97474683058
endloop
endfacet
facet normal -0.707106781186546 0.0 0.707106781186549
outer loop
vertex 27705.0252531694 66240.0 1994.97474683058
vertex 27850.0 61000.0 2106.21778264911
vertex 27850.0 66240.0 2106.21778264911
endloop
endfacet
facet normal -7.12888791651753e-017 0.0 1.0
outer loop
vertex 28200.0 61000.0 2200.0
vertex 28018.8266684282 66240.0 2176.14807840235
vertex 28018.8266684282 61000.0 2176.14807840235
endloop
endfacet
facet normal -0.258819045102519 0.0 0.965925826289069
outer loop
vertex 28018.8266684282 66240.0 2176.14807840235
vertex 28200.0 61000.0 2200.0
vertex 28200.0 66240.0 2200.0
endloop
endfacet
facet normal 0.258819045102522 0.0 0.965925826289068
outer loop
vertex 28381.1733315718 61000.0 2176.14807840235
vertex 28200.0 66240.0 2200.0
vertex 28200.0 61000.0 2200.0
endloop
endfacet
facet normal -7.12888791651753e-017 0.0 1.0
outer loop
vertex 28200.0 66240.0 2200.0
vertex 28381.1733315718 61000.0 2176.14807840235
vertex 28381.1733315718 66240.0 2176.14807840235
endloop
endfacet
facet normal 0.500000000000001 0.0 0.866025403784438
outer loop
vertex 28550.0 61000.0 2106.21778264911
vertex 28381.1733315718 66240.0 2176.14807840235
vertex 28381.1733315718 61000.0 2176.14807840235
endloop
endfacet
facet normal 0.258819045102522 0.0 0.965925826289068
outer loop
vertex 28381.1733315718 66240.0 2176.14807840235
vertex 28550.0 61000.0 2106.21778264911
vertex 28550.0 66240.0 2106.21778264911
endloop
endfacet
facet normal -1.0 0.0 0.0
outer loop
vertex 0.0 54998.025551548 3000.0
vertex 0.0 0.0 0.0
vertex 0.0 0.0 3000.0
endloop
endfacet
facet normal -1.0 0.0 0.0
outer loop
vertex 0.0 0.0 0.0
vertex 0.0 54998.025551548 3000.0
vertex 0.0 54998.025551548 0.0
endloop
endfacet
facet normal 0.0 0.0 -1.0
outer loop
vertex 53400.0 61000.0 0.0
vertex 0.0 54998.025551548 0.0
vertex 0.0 61000.0 0.0
endloop
endfacet
facet normal 0.0 0.0 -1.0
outer loop
vertex 0.0 54998.025551548 0.0
vertex 53400.0 61000.0 0.0
vertex 53400.0 54998.025551548 0.0
endloop
endfacet
facet normal 0.0 1.0 0.0
outer loop
vertex 0.0 61000.0 3000.0
vertex 53400.0 61000.0 0.0
vertex 0.0 61000.0 0.0
endloop
endfacet
facet normal 0.0 1.0 0.0
outer loop
vertex 53400.0 61000.0 0.0
vertex 0.0 61000.0 3000.0
vertex 53400.0 61000.0 3000.0
endloop
endfacet
facet normal -0.960195296603575 2.62002483022088e-019 0.279329540830131
outer loop
vertex 800.0 54198.025551548 5750.0
vertex 0.0 0.0 3000.0
vertex 800.0 0.0 5750.0
endloop
endfacet
facet normal -0.960195296603575 2.62002483022088e-019 0.279329540830131
outer loop
vertex 0.0 0.0 3000.0
vertex 800.0 54198.025551548 5750.0
vertex 0.0 54998.025551548 3000.0
endloop
endfacet
facet normal 1.0 0.0 0.0
outer loop
vertex 53400.0 61000.0 0.0
vertex 53400.0 54998.025551548 3000.0
vertex 53400.0 54998.025551548 0.0
endloop
endfacet
facet normal 1.0 0.0 0.0
outer loop
vertex 53400.0 54998.025551548 3000.0
vertex 53400.0 61000.0 0.0
vertex 53400.0 61000.0 3000.0
endloop
endfacet
facet normal 0.0 -1.0 0.0
outer loop
vertex 53400.0 0.0 3000.0
vertex 0.0 0.0 0.0
vertex 53400.0 0.0 0.0
endloop
endfacet
facet normal 0.0 -1.0 0.0
outer loop
vertex 0.0 0.0 0.0
vertex 53400.0 0.0 3000.0
vertex 0.0 0.0 3000.0
endloop
endfacet
facet normal 0.0 -1.0 0.0
outer loop
vertex 0.0 0.0 3000.0
vertex 53400.0 0.0 3000.0
vertex 52600.0 0.0 5750.0
endloop
endfacet
facet normal 0.0 -1.0 0.0
outer loop
vertex 0.0 0.0 3000.0
vertex 52600.0 0.0 5750.0
vertex 800.0 0.0 5750.0
endloop
endfacet
facet normal 0.0 0.0 1.0
outer loop
vertex 52600.0 0.0 5750.0
vertex 800.0 54198.025551548 5750.0
vertex 800.0 0.0 5750.0
endloop
endfacet
facet normal 0.0 0.0 1.0
outer loop
vertex 800.0 54198.025551548 5750.0
vertex 52600.0 0.0 5750.0
vertex 52600.0 54198.025551548 5750.0
endloop
endfacet
facet normal -8.44933777542441e-018 -7.51743682154517e-017 1.0
outer loop
vertex 53400.0 54998.025551548 3000.0
vertex 0.0 61000.0 3000.0
vertex 0.0 54998.025551548 3000.0
endloop
endfacet
facet normal -8.44933777542441e-018 -7.51743682154517e-017 1.0
outer loop
vertex 0.0 61000.0 3000.0
vertex 53400.0 54998.025551548 3000.0
vertex 53400.0 61000.0 3000.0
endloop
endfacet
facet normal 0.0 0.0 -1.0
outer loop
vertex 53400.0 54998.025551548 0.0
vertex 0.0 0.0 0.0
vertex 0.0 54998.025551548 0.0
endloop
endfacet
facet normal 0.0 0.0 -1.0
outer loop
vertex 0.0 0.0 0.0
vertex 53400.0 54998.025551548 0.0
vertex 53400.0 0.0 0.0
endloop
endfacet
facet normal 0.960195296603576 -5.24004966044176e-019 0.27932954083013
outer loop
vertex 53400.0 54998.025551548 3000.0
vertex 52600.0 0.0 5750.0
vertex 53400.0 0.0 3000.0
endloop
endfacet
facet normal 0.960195296603576 -5.24004966044176e-019 0.27932954083013
outer loop
vertex 52600.0 0.0 5750.0
vertex 53400.0 54998.025551548 3000.0
vertex 52600.0 54198.025551548 5750.0
endloop
endfacet
facet normal 0.0 0.960195296603576 0.27932954083013
outer loop
vertex 800.0 54198.025551548 5750.0
vertex 53400.0 54998.025551548 3000.0
vertex 0.0 54998.025551548 3000.0
endloop
endfacet
facet normal 0.0 0.960195296603576 0.27932954083013
outer loop
vertex 53400.0 54998.025551548 3000.0
vertex 800.0 54198.025551548 5750.0
vertex 52600.0 54198.025551548 5750.0
endloop
endfacet
facet normal 0.0 1.0 0.0
outer loop
vertex 0.0 54998.025551548 3000.0
vertex 53400.0 54998.025551548 0.0
vertex 0.0 54998.025551548 0.0
endloop
endfacet
facet normal 0.0 1.0 0.0
outer loop
vertex 53400.0 54998.025551548 0.0
vertex 0.0 54998.025551548 3000.0
vertex 53400.0 54998.025551548 3000.0
endloop
endfacet
facet normal -1.0 0.0 0.0
outer loop
vertex 0.0 61000.0 3000.0
vertex 0.0 54998.025551548 0.0
vertex 0.0 54998.025551548 3000.0
endloop
endfacet
facet normal -1.0 0.0 0.0
outer loop
vertex 0.0 54998.025551548 0.0
vertex 0.0 61000.0 3000.0
vertex 0.0 61000.0 0.0
endloop
endfacet
facet normal 1.0 0.0 0.0
outer loop
vertex 53400.0 54998.025551548 0.0
vertex 53400.0 0.0 3000.0
vertex 53400.0 0.0 0.0
endloop
endfacet
facet normal 1.0 0.0 0.0
outer loop
vertex 53400.0 0.0 3000.0
vertex 53400.0 54998.025551548 0.0
vertex 53400.0 54998.025551548 3000.0
endloop
endfacet
facet normal -0.258819045102526 0.0 0.965925826289067
outer loop
vertex 28122.6131055143 66240.0 1788.81182206043
vertex 28050.5 66699.0 1758.94159573155
vertex 28050.5 66240.0 1758.94159573155
endloop
endfacet
facet normal -0.499999999999998 0.0 0.866025403784439
outer loop
vertex 28050.5 66699.0 1758.94159573155
vertex 28122.6131055143 66240.0 1788.81182206043
vertex 28122.6131055143 66699.0 1788.81182206043
endloop
endfacet
facet normal 0.0 0.0 1.0
outer loop
vertex 28200.0 66240.0 1799.0
vertex 28122.6131055143 66699.0 1788.81182206043
vertex 28122.6131055143 66240.0 1788.81182206043
endloop
endfacet
facet normal -0.258819045102526 0.0 0.965925826289067
outer loop
vertex 28122.6131055143 66699.0 1788.81182206043
vertex 28200.0 66240.0 1799.0
vertex 28200.0 66699.0 1799.0
endloop
endfacet
facet normal 0.258819045102519 0.0 0.965925826289069
outer loop
vertex 28277.3868944856 66240.0 1788.81182206043
vertex 28200.0 66699.0 1799.0
vertex 28200.0 66240.0 1799.0
endloop
endfacet
facet normal 0.0 0.0 1.0
outer loop
vertex 28200.0 66699.0 1799.0
vertex 28277.3868944856 66240.0 1788.81182206043
vertex 28277.3868944856 66699.0 1788.81182206043
endloop
endfacet
facet normal 0.500000000000003 0.0 0.866025403784437
outer loop
vertex 28349.5 66240.0 1758.94159573155
vertex 28277.3868944856 66699.0 1788.81182206043
vertex 28277.3868944856 66240.0 1788.81182206043
endloop
endfacet
facet normal 0.258819045102519 0.0 0.965925826289069
outer loop
vertex 28277.3868944856 66699.0 1788.81182206043
vertex 28349.5 66240.0 1758.94159573155
vertex 28349.5 66699.0 1758.94159573155
endloop
endfacet
facet normal 0.707106781186547 0.0 0.707106781186548
outer loop
vertex 28411.4249275748 66240.0 1711.42492757478
vertex 28349.5 66699.0 1758.94159573155
vertex 28349.5 66240.0 1758.94159573155
endloop
endfacet
facet normal 0.500000000000003 0.0 0.866025403784437
outer loop
vertex 28349.5 66699.0 1758.94159573155
vertex 28411.4249275748 66240.0 1711.42492757478
vertex 28411.4249275748 66699.0 1711.42492757478
endloop
endfacet
facet normal 0.866025403784436 0.0 0.500000000000004
outer loop
vertex 28458.9415957315 66699.0 1649.5
vertex 28411.4249275748 66240.0 1711.42492757478
vertex 28458.9415957315 66240.0 1649.5
endloop
endfacet
facet normal 0.707106781186547 0.0 0.707106781186548
outer loop
vertex 28411.4249275748 66240.0 1711.42492757478
vertex 28458.9415957315 66699.0 1649.5
vertex 28411.4249275748 66699.0 1711.42492757478
endloop
endfacet
facet normal 0.965925826289071 0.0 0.258819045102511
outer loop
vertex 28488.8118220604 66699.0 1577.38689448565
vertex 28458.9415957315 66240.0 1649.5
vertex 28488.8118220604 66240.0 1577.38689448565
endloop
endfacet
facet normal 0.866025403784436 0.0 0.500000000000004
outer loop
vertex 28458.9415957315 66240.0 1649.5
vertex 28488.8118220604 66699.0 1577.38689448565
vertex 28458.9415957315 66699.0 1649.5
endloop
endfacet
facet normal 1.0 0.0 1.96044417704231e-016
outer loop
vertex 28499.0 66699.0 1500.0
vertex 28488.8118220604 66240.0 1577.38689448565
vertex 28499.0 66240.0 1500.0
endloop
endfacet
facet normal 0.965925826289071 0.0 0.258819045102511
outer loop
vertex 28488.8118220604 66240.0 1577.38689448565
vertex 28499.0 66699.0 1500.0
vertex 28488.8118220604 66699.0 1577.38689448565
endloop
endfacet
facet normal 0.965925826289071 0.0 -0.258819045102512
outer loop
vertex 28488.8118220604 66699.0 1422.61310551435
vertex 28499.0 66240.0 1500.0
vertex 28488.8118220604 66240.0 1422.61310551435
endloop
endfacet
facet normal 1.0 0.0 1.96044417704231e-016
outer loop
vertex 28499.0 66240.0 1500.0
vertex 28488.8118220604 66699.0 1422.61310551435
vertex 28499.0 66699.0 1500.0
endloop
endfacet
facet normal 0.866025403784436 0.0 -0.500000000000005
outer loop
vertex 28458.9415957315 66699.0 1350.5
vertex 28488.8118220604 66240.0 1422.61310551435
vertex 28458.9415957315 66240.0 1350.5
endloop
endfacet
facet normal 0.965925826289071 0.0 -0.258819045102512
outer loop
vertex 28488.8118220604 66240.0 1422.61310551435
vertex 28458.9415957315 66699.0 1350.5
vertex 28488.8118220604 66699.0 1422.61310551435
endloop
endfacet
facet normal 0.707106781186538 0.0 -0.707106781186557
outer loop
vertex 28411.4249275748 66699.0 1288.57507242522
vertex 28458.9415957315 66240.0 1350.5
vertex 28411.4249275748 66240.0 1288.57507242522
endloop
endfacet
facet normal 0.866025403784436 0.0 -0.500000000000005
outer loop
vertex 28458.9415957315 66240.0 1350.5
vertex 28411.4249275748 66699.0 1288.57507242522
vertex 28458.9415957315 66699.0 1350.5
endloop
endfacet
facet normal 0.707106781186538 0.0 -0.707106781186557
outer loop
vertex 28411.4249275748 66699.0 1288.57507242522
vertex 28349.5 66240.0 1241.05840426845
vertex 28349.5 66699.0 1241.05840426845
endloop
endfacet
facet normal 0.499999999999998 0.0 -0.866025403784439
outer loop
vertex 28349.5 66240.0 1241.05840426845
vertex 28411.4249275748 66699.0 1288.57507242522
vertex 28411.4249275748 66240.0 1288.57507242522
endloop
endfacet
facet normal 0.499999999999998 0.0 -0.866025403784439
outer loop
vertex 28349.5 66699.0 1241.05840426845
vertex 28277.3868944856 66240.0 1211.18817793957
vertex 28277.3868944856 66699.0 1211.18817793957
endloop
endfacet
facet normal 0.258819045102526 0.0 -0.965925826289067
outer loop
vertex 28277.3868944856 66240.0 1211.18817793957
vertex 28349.5 66699.0 1241.05840426845
vertex 28349.5 66240.0 1241.05840426845
endloop
endfacet
facet normal 0.258819045102526 0.0 -0.965925826289067
outer loop
vertex 28277.3868944856 66699.0 1211.18817793957
vertex 28200.0 66240.0 1201.0
vertex 28200.0 66699.0 1201.0
endloop
endfacet
facet normal 0.0 0.0 -1.0
outer loop
vertex 28200.0 66240.0 1201.0
vertex 28277.3868944856 66699.0 1211.18817793957
vertex 28277.3868944856 66240.0 1211.18817793957
endloop
endfacet
facet normal 0.0 0.0 -1.0
outer loop
vertex 28200.0 66699.0 1201.0
vertex 28122.6131055143 66240.0 1211.18817793957
vertex 28122.6131055143 66699.0 1211.18817793957
endloop
endfacet
facet normal -0.258819045102518 0.0 -0.965925826289069
outer loop
vertex 28122.6131055143 66240.0 1211.18817793957
vertex 28200.0 66699.0 1201.0
vertex 28200.0 66240.0 1201.0
endloop
endfacet
facet normal -0.258819045102518 0.0 -0.965925826289069
outer loop
vertex 28122.6131055143 66699.0 1211.18817793957
vertex 28050.5 66240.0 1241.05840426845
vertex 28050.5 66699.0 1241.05840426845
endloop
endfacet
facet normal -0.500000000000003 0.0 -0.866025403784437
outer loop
vertex 28050.5 66240.0 1241.05840426845
vertex 28122.6131055143 66699.0 1211.18817793957
vertex 28122.6131055143 66240.0 1211.18817793957
endloop
endfacet
facet normal -0.500000000000003 0.0 -0.866025403784437
outer loop
vertex 28050.5 66699.0 1241.05840426845
vertex 27988.5750724252 66240.0 1288.57507242522
vertex 27988.5750724252 66699.0 1288.57507242522
endloop
endfacet
facet normal -0.707106781186548 0.0 -0.707106781186547
outer loop
vertex 27988.5750724252 66240.0 1288.57507242522
vertex 28050.5 66699.0 1241.05840426845
vertex 28050.5 66240.0 1241.05840426845
endloop
endfacet
facet normal -0.866025403784436 0.0 -0.500000000000005
outer loop
vertex 27941.0584042685 66699.0 1350.5
vertex 27988.5750724252 66240.0 1288.57507242522
vertex 27941.0584042685 66240.0 1350.5
endloop
endfacet
facet normal -0.707106781186548 0.0 -0.707106781186547
outer loop
vertex 27988.5750724252 66240.0 1288.57507242522
vertex 27941.0584042685 66699.0 1350.5
vertex 27988.5750724252 66699.0 1288.57507242522
endloop
endfacet
facet normal -0.965925826289071 0.0 -0.258819045102512
outer loop
vertex 27911.1881779396 66699.0 1422.61310551435
vertex 27941.0584042685 66240.0 1350.5
vertex 27911.1881779396 66240.0 1422.61310551435
endloop
endfacet
facet normal -0.866025403784436 0.0 -0.500000000000005
outer loop
vertex 27941.0584042685 66240.0 1350.5
vertex 27911.1881779396 66699.0 1422.61310551435
vertex 27941.0584042685 66699.0 1350.5
endloop
endfacet
facet normal -1.0 0.0 -1.51488868225997e-016
outer loop
vertex 27901.0 66699.0 1500.0
vertex 27911.1881779396 66240.0 1422.61310551435
vertex 27901.0 66240.0 1500.0
endloop
endfacet
facet normal -0.965925826289071 0.0 -0.258819045102512
outer loop
vertex 27911.1881779396 66240.0 1422.61310551435
vertex 27901.0 66699.0 1500.0
vertex 27911.1881779396 66699.0 1422.61310551435
endloop
endfacet
facet normal -0.499999999999998 0.0 0.866025403784439
outer loop
vertex 28050.5 66240.0 1758.94159573155
vertex 27988.5750724252 66699.0 1711.42492757478
vertex 27988.5750724252 66240.0 1711.42492757478
endloop
endfacet
facet normal -0.707106781186537 0.0 0.707106781186558
outer loop
vertex 27988.5750724252 66699.0 1711.42492757478
vertex 28050.5 66240.0 1758.94159573155
vertex 28050.5 66699.0 1758.94159573155
endloop
endfacet
facet normal -0.707106781186537 0.0 0.707106781186558
outer loop
vertex 27988.5750724252 66699.0 1711.42492757478
vertex 27941.0584042685 66240.0 1649.5
vertex 27988.5750724252 66240.0 1711.42492757478
endloop
endfacet
facet normal -0.866025403784435 0.0 0.500000000000006
outer loop
vertex 27941.0584042685 66240.0 1649.5
vertex 27988.5750724252 66699.0 1711.42492757478
vertex 27941.0584042685 66699.0 1649.5
endloop
endfacet
facet normal -0.866025403784435 0.0 0.500000000000006
outer loop
vertex 27941.0584042685 66699.0 1649.5
vertex 27911.1881779396 66240.0 1577.38689448565
vertex 27941.0584042685 66240.0 1649.5
endloop
endfacet
facet normal -0.965925826289071 0.0 0.258819045102512
outer loop
vertex 27911.1881779396 66240.0 1577.38689448565
vertex 27941.0584042685 66699.0 1649.5
vertex 27911.1881779396 66699.0 1577.38689448565
endloop
endfacet
facet normal -0.965925826289071 0.0 0.258819045102512
outer loop
vertex 27911.1881779396 66699.0 1577.38689448565
vertex 27901.0 66240.0 1500.0
vertex 27911.1881779396 66240.0 1577.38689448565
endloop
endfacet
facet normal -1.0 0.0 -1.51488868225997e-016
outer loop
vertex 27901.0 66240.0 1500.0
vertex 27911.1881779396 66699.0 1577.38689448565
vertex 27901.0 66699.0 1500.0
endloop
endfacet
endsolid Polymer Lithium Ion Battery - 2000mAh PRT-08483
