solid R2010
facet normal 0.0 0.0 -1.0
  outer loop
    vertex -1.8 1.2999999999999998 0.0
    vertex -2.55 -1.3 0.0
    vertex -2.55 1.2999999999999998 0.0
  endloop
endfacet
facet normal 0.0 0.0 -1.0
  outer loop
    vertex -2.55 -1.3 0.0
    vertex -1.8 1.2999999999999998 0.0
    vertex -1.8 -1.3 0.0
  endloop
endfacet
facet normal -0.0 -0.0 1.0
  outer loop
    vertex -1.8 -1.3 0.5
    vertex -2.55 1.2999999999999998 0.5
    vertex -2.55 -1.3 0.5
  endloop
endfacet
facet normal -0.0 -0.0 1.0
  outer loop
    vertex -2.55 1.2999999999999998 0.5
    vertex -1.8 -1.3 0.5
    vertex -1.8 1.2999999999999998 0.5
  endloop
endfacet
facet normal -0.0 1.0 -0.0
  outer loop
    vertex -2.55 1.2999999999999998 0.5
    vertex -1.8 1.2999999999999998 0.0
    vertex -2.55 1.2999999999999998 0.0
  endloop
endfacet
facet normal -0.0 1.0 -0.0
  outer loop
    vertex -1.8 1.2999999999999998 0.0
    vertex -2.55 1.2999999999999998 0.5
    vertex -1.8 1.2999999999999998 0.5
  endloop
endfacet
facet normal 1.0 -0.0 -0.0
  outer loop
    vertex 2.5500000000000007 1.2999999999999998 0.0
    vertex 2.5500000000000007 -1.3 0.5
    vertex 2.5500000000000007 -1.3 0.0
  endloop
endfacet
facet normal 1.0 -0.0 -0.0
  outer loop
    vertex 2.5500000000000007 -1.3 0.5
    vertex 2.5500000000000007 1.2999999999999998 0.0
    vertex 2.5500000000000007 1.2999999999999998 0.5
  endloop
endfacet
facet normal 0.0 -1.0 0.0
  outer loop
    vertex 2.5500000000000007 -1.3 0.5
    vertex 1.8000000000000003 -1.3 0.0
    vertex 2.5500000000000007 -1.3 0.0
  endloop
endfacet
facet normal 0.0 -1.0 0.0
  outer loop
    vertex 1.8000000000000003 -1.3 0.0
    vertex 2.5500000000000007 -1.3 0.5
    vertex 1.8000000000000003 -1.3 0.5
  endloop
endfacet
facet normal -1.0 0.0 0.0
  outer loop
    vertex -2.55 1.2999999999999998 0.5
    vertex -2.55 -1.3 0.0
    vertex -2.55 -1.3 0.5
  endloop
endfacet
facet normal -1.0 0.0 0.0
  outer loop
    vertex -2.55 -1.3 0.0
    vertex -2.55 1.2999999999999998 0.5
    vertex -2.55 1.2999999999999998 0.0
  endloop
endfacet
facet normal -0.0 -0.0 1.0
  outer loop
    vertex 2.5500000000000007 -1.3 0.5
    vertex 1.8000000000000003 1.2999999999999998 0.5
    vertex 1.8000000000000003 -1.3 0.5
  endloop
endfacet
facet normal -0.0 -0.0 1.0
  outer loop
    vertex 1.8000000000000003 1.2999999999999998 0.5
    vertex 2.5500000000000007 -1.3 0.5
    vertex 2.5500000000000007 1.2999999999999998 0.5
  endloop
endfacet
facet normal 0.0 -1.0 0.0
  outer loop
    vertex 1.8000000000000003 -1.3 0.5
    vertex -1.8 -1.3 0.0
    vertex 1.8000000000000003 -1.3 0.0
  endloop
endfacet
facet normal 0.0 -1.0 0.0
  outer loop
    vertex -1.8 -1.3 0.0
    vertex 1.8000000000000003 -1.3 0.5
    vertex -1.8 -1.3 0.5
  endloop
endfacet
facet normal -0.0 -0.0 1.0
  outer loop
    vertex 1.8000000000000003 -1.3 0.5
    vertex -1.8 1.2999999999999998 0.5
    vertex -1.8 -1.3 0.5
  endloop
endfacet
facet normal -0.0 -0.0 1.0
  outer loop
    vertex -1.8 1.2999999999999998 0.5
    vertex 1.8000000000000003 -1.3 0.5
    vertex 1.8000000000000003 1.2999999999999998 0.5
  endloop
endfacet
facet normal 0.0 -1.0 0.0
  outer loop
    vertex -1.8 -1.3 0.5
    vertex -2.55 -1.3 0.0
    vertex -1.8 -1.3 0.0
  endloop
endfacet
facet normal 0.0 -1.0 0.0
  outer loop
    vertex -2.55 -1.3 0.0
    vertex -1.8 -1.3 0.5
    vertex -2.55 -1.3 0.5
  endloop
endfacet
facet normal -0.0 1.0 -0.0
  outer loop
    vertex 1.8000000000000003 1.2999999999999998 0.5
    vertex 2.5500000000000007 1.2999999999999998 0.0
    vertex 1.8000000000000003 1.2999999999999998 0.0
  endloop
endfacet
facet normal -0.0 1.0 -0.0
  outer loop
    vertex 2.5500000000000007 1.2999999999999998 0.0
    vertex 1.8000000000000003 1.2999999999999998 0.5
    vertex 2.5500000000000007 1.2999999999999998 0.5
  endloop
endfacet
facet normal -0.0 1.0 -0.0
  outer loop
    vertex -1.8 1.2999999999999998 0.5
    vertex 1.8000000000000003 1.2999999999999998 0.0
    vertex -1.8 1.2999999999999998 0.0
  endloop
endfacet
facet normal -0.0 1.0 -0.0
  outer loop
    vertex 1.8000000000000003 1.2999999999999998 0.0
    vertex -1.8 1.2999999999999998 0.5
    vertex 1.8000000000000003 1.2999999999999998 0.5
  endloop
endfacet
facet normal 0.0 0.0 -1.0
  outer loop
    vertex 2.5500000000000007 1.2999999999999998 0.0
    vertex 1.8000000000000003 -1.3 0.0
    vertex 1.8000000000000003 1.2999999999999998 0.0
  endloop
endfacet
facet normal 0.0 0.0 -1.0
  outer loop
    vertex 1.8000000000000003 -1.3 0.0
    vertex 2.5500000000000007 1.2999999999999998 0.0
    vertex 2.5500000000000007 -1.3 0.0
  endloop
endfacet
facet normal -1.0 0.0 0.0
  outer loop
    vertex 1.8000000000000003 1.2999999999999998 0.5
    vertex 1.8000000000000003 -1.3 0.0
    vertex 1.8000000000000003 -1.3 0.5
  endloop
endfacet
facet normal -1.0 0.0 0.0
  outer loop
    vertex 1.8000000000000003 -1.3 0.0
    vertex 1.8000000000000003 1.2999999999999998 0.5
    vertex 1.8000000000000003 1.2999999999999998 0.0
  endloop
endfacet
facet normal 0.0 0.0 -1.0
  outer loop
    vertex 1.8000000000000003 1.2999999999999998 0.0
    vertex -1.8 -1.3 0.0
    vertex -1.8 1.2999999999999998 0.0
  endloop
endfacet
facet normal 0.0 0.0 -1.0
  outer loop
    vertex -1.8 -1.3 0.0
    vertex 1.8000000000000003 1.2999999999999998 0.0
    vertex 1.8000000000000003 -1.3 0.0
  endloop
endfacet
facet normal -1.0 0.0 0.0
  outer loop
    vertex -1.8 1.2999999999999998 0.5
    vertex -1.8 -1.3 0.0
    vertex -1.8 -1.3 0.5
  endloop
endfacet
facet normal -1.0 0.0 0.0
  outer loop
    vertex -1.8 -1.3 0.0
    vertex -1.8 1.2999999999999998 0.5
    vertex -1.8 1.2999999999999998 0.0
  endloop
endfacet
endsolid R2010
