solid 0805
facet normal 0.0 0.0 -1.0
  outer loop
    vertex -0.49999999999999983 0.625 2.00370669926137e-32
    vertex 0.5000000000000002 -0.625 2.00370669926137e-32
    vertex -0.5 -0.625 2.00370669926137e-32
  endloop
endfacet
facet normal 0.0 0.0 -1.0
  outer loop
    vertex 0.5000000000000002 -0.625 2.00370669926137e-32
    vertex -0.49999999999999983 0.625 2.00370669926137e-32
    vertex 0.5000000000000002 0.625 2.00370669926137e-32
  endloop
endfacet
facet normal -0.0 -0.0 1.0
  outer loop
    vertex -0.5 -0.625 1.2499999999999998
    vertex -1.0 0.625 1.2499999999999998
    vertex -1.0 -0.625 1.2499999999999998
  endloop
endfacet
facet normal -0.0 -0.0 1.0
  outer loop
    vertex -1.0 0.625 1.2499999999999998
    vertex -0.5 -0.625 1.2499999999999998
    vertex -0.5 0.625 1.2499999999999998
  endloop
endfacet
facet normal 0.0 -1.0 0.0
  outer loop
    vertex -0.5 -0.625 1.2499999999999998
    vertex -1.0 -0.625 2.00370669926137e-32
    vertex -0.5 -0.625 2.00370669926137e-32
  endloop
endfacet
facet normal 0.0 -1.0 0.0
  outer loop
    vertex -1.0 -0.625 2.00370669926137e-32
    vertex -0.5 -0.625 1.2499999999999998
    vertex -1.0 -0.625 1.2499999999999998
  endloop
endfacet
facet normal -1.0 0.0 0.0
  outer loop
    vertex -1.0 0.625 1.2499999999999998
    vertex -1.0 -0.625 2.00370669926137e-32
    vertex -1.0 -0.625 1.2499999999999998
  endloop
endfacet
facet normal -1.0 0.0 0.0
  outer loop
    vertex -1.0 -0.625 2.00370669926137e-32
    vertex -1.0 0.625 1.2499999999999998
    vertex -1.0 0.625 2.00370669926137e-32
  endloop
endfacet
facet normal -0.0 1.0 -0.0
  outer loop
    vertex -0.5 0.625 1.2499999999999998
    vertex 0.5000000000000002 0.625 2.00370669926137e-32
    vertex -0.49999999999999983 0.625 2.00370669926137e-32
  endloop
endfacet
facet normal -0.0 1.0 -0.0
  outer loop
    vertex 0.5000000000000002 0.625 2.00370669926137e-32
    vertex -0.5 0.625 1.2499999999999998
    vertex 0.5000000000000002 0.625 1.2499999999999998
  endloop
endfacet
facet normal 1.0 -0.0 -0.0
  outer loop
    vertex 1.0000000000000004 0.625 2.00370669926137e-32
    vertex 1.0000000000000004 -0.625 1.2499999999999998
    vertex 1.0000000000000004 -0.625 2.00370669926137e-32
  endloop
endfacet
facet normal 1.0 -0.0 -0.0
  outer loop
    vertex 1.0000000000000004 -0.625 1.2499999999999998
    vertex 1.0000000000000004 0.625 2.00370669926137e-32
    vertex 1.0000000000000004 0.625 1.2499999999999998
  endloop
endfacet
facet normal -0.0 -0.0 1.0
  outer loop
    vertex 1.0000000000000004 -0.625 1.2499999999999998
    vertex 0.5000000000000002 0.625 1.2499999999999998
    vertex 0.5000000000000002 -0.625 1.2499999999999998
  endloop
endfacet
facet normal -0.0 -0.0 1.0
  outer loop
    vertex 0.5000000000000002 0.625 1.2499999999999998
    vertex 1.0000000000000004 -0.625 1.2499999999999998
    vertex 1.0000000000000004 0.625 1.2499999999999998
  endloop
endfacet
facet normal -0.0 1.0 -0.0
  outer loop
    vertex 0.5000000000000002 0.625 1.2499999999999998
    vertex 1.0000000000000004 0.625 2.00370669926137e-32
    vertex 0.5000000000000002 0.625 2.00370669926137e-32
  endloop
endfacet
facet normal -0.0 1.0 -0.0
  outer loop
    vertex 1.0000000000000004 0.625 2.00370669926137e-32
    vertex 0.5000000000000002 0.625 1.2499999999999998
    vertex 1.0000000000000004 0.625 1.2499999999999998
  endloop
endfacet
facet normal 0.0 0.0 -1.0
  outer loop
    vertex 1.0000000000000004 0.625 2.00370669926137e-32
    vertex 0.5000000000000002 -0.625 2.00370669926137e-32
    vertex 0.5000000000000002 0.625 2.00370669926137e-32
  endloop
endfacet
facet normal 0.0 0.0 -1.0
  outer loop
    vertex 0.5000000000000002 -0.625 2.00370669926137e-32
    vertex 1.0000000000000004 0.625 2.00370669926137e-32
    vertex 1.0000000000000004 -0.625 2.00370669926137e-32
  endloop
endfacet
facet normal 0.0 -1.0 0.0
  outer loop
    vertex 1.0000000000000004 -0.625 1.2499999999999998
    vertex 0.5000000000000002 -0.625 2.00370669926137e-32
    vertex 1.0000000000000004 -0.625 2.00370669926137e-32
  endloop
endfacet
facet normal 0.0 -1.0 0.0
  outer loop
    vertex 0.5000000000000002 -0.625 2.00370669926137e-32
    vertex 1.0000000000000004 -0.625 1.2499999999999998
    vertex 0.5000000000000002 -0.625 1.2499999999999998
  endloop
endfacet
facet normal 0.0 -1.0 0.0
  outer loop
    vertex 0.5000000000000002 -0.625 1.2499999999999998
    vertex -0.5 -0.625 2.00370669926137e-32
    vertex 0.5000000000000002 -0.625 2.00370669926137e-32
  endloop
endfacet
facet normal 0.0 -1.0 0.0
  outer loop
    vertex -0.5 -0.625 2.00370669926137e-32
    vertex 0.5000000000000002 -0.625 1.2499999999999998
    vertex -0.5 -0.625 1.2499999999999998
  endloop
endfacet
facet normal 1.0 -0.0 -0.0
  outer loop
    vertex 0.5000000000000002 0.625 2.00370669926137e-32
    vertex 0.5000000000000002 -0.625 1.2499999999999998
    vertex 0.5000000000000002 -0.625 2.00370669926137e-32
  endloop
endfacet
facet normal 1.0 -0.0 -0.0
  outer loop
    vertex 0.5000000000000002 -0.625 1.2499999999999998
    vertex 0.5000000000000002 0.625 2.00370669926137e-32
    vertex 0.5000000000000002 0.625 1.2499999999999998
  endloop
endfacet
facet normal -0.0 -0.0 1.0
  outer loop
    vertex 0.5000000000000002 -0.625 1.2499999999999998
    vertex -0.5 0.625 1.2499999999999998
    vertex -0.5 -0.625 1.2499999999999998
  endloop
endfacet
facet normal -0.0 -0.0 1.0
  outer loop
    vertex -0.5 0.625 1.2499999999999998
    vertex 0.5000000000000002 -0.625 1.2499999999999998
    vertex 0.5000000000000002 0.625 1.2499999999999998
  endloop
endfacet
facet normal 0.0 0.0 -1.0
  outer loop
    vertex -0.49999999999999983 0.625 2.00370669926137e-32
    vertex -1.0 -0.625 2.00370669926137e-32
    vertex -1.0 0.625 2.00370669926137e-32
  endloop
endfacet
facet normal 0.0 0.0 -1.0
  outer loop
    vertex -1.0 -0.625 2.00370669926137e-32
    vertex -0.49999999999999983 0.625 2.00370669926137e-32
    vertex -0.5 -0.625 2.00370669926137e-32
  endloop
endfacet
facet normal -0.0 1.0 -0.0
  outer loop
    vertex -1.0 0.625 1.2499999999999998
    vertex -0.49999999999999983 0.625 2.00370669926137e-32
    vertex -1.0 0.625 2.00370669926137e-32
  endloop
endfacet
facet normal -0.0 1.0 -0.0
  outer loop
    vertex -0.49999999999999983 0.625 2.00370669926137e-32
    vertex -1.0 0.625 1.2499999999999998
    vertex -0.5 0.625 1.2499999999999998
  endloop
endfacet
facet normal 1.0 -7.219114195322617e-17 7.219114195322618e-17
  outer loop
    vertex -0.49999999999999983 0.625 2.00370669926137e-32
    vertex -0.5 -0.625 1.2499999999999998
    vertex -0.5 -0.625 2.00370669926137e-32
  endloop
endfacet
facet normal 1.0 -7.219114195322617e-17 7.219114195322618e-17
  outer loop
    vertex -0.5 -0.625 1.2499999999999998
    vertex -0.49999999999999983 0.625 2.00370669926137e-32
    vertex -0.5 0.625 1.2499999999999998
  endloop
endfacet
endsolid 0805
