solid LGA14
   facet normal 1.000000e+000 0.000000e+000 0.000000e+000
      outer loop
         vertex 5.000000e+000 9.400000e-001 0.000000e+000
         vertex 5.000000e+000 9.400000e-001 3.000000e+000
         vertex 5.000000e+000 2.000000e-001 0.000000e+000
      endloop
   endfacet
   facet normal 1.000000e+000 0.000000e+000 0.000000e+000
      outer loop
         vertex 5.000000e+000 2.000000e-001 0.000000e+000
         vertex 5.000000e+000 9.400000e-001 3.000000e+000
         vertex 5.000000e+000 2.000000e-001 3.000000e+000
      endloop
   endfacet
   facet normal 0.000000e+000 0.000000e+000 -1.000000e+000
      outer loop
         vertex 0.000000e+000 9.400000e-001 0.000000e+000
         vertex 5.000000e+000 9.400000e-001 0.000000e+000
         vertex 0.000000e+000 2.000000e-001 0.000000e+000
      endloop
   endfacet
   facet normal 0.000000e+000 0.000000e+000 -1.000000e+000
      outer loop
         vertex 0.000000e+000 2.000000e-001 0.000000e+000
         vertex 5.000000e+000 9.400000e-001 0.000000e+000
         vertex 5.000000e+000 2.000000e-001 0.000000e+000
      endloop
   endfacet
   facet normal -1.000000e+000 0.000000e+000 0.000000e+000
      outer loop
         vertex 0.000000e+000 9.400000e-001 3.000000e+000
         vertex 0.000000e+000 9.400000e-001 0.000000e+000
         vertex 0.000000e+000 2.000000e-001 3.000000e+000
      endloop
   endfacet
   facet normal -1.000000e+000 0.000000e+000 0.000000e+000
      outer loop
         vertex 0.000000e+000 2.000000e-001 3.000000e+000
         vertex 0.000000e+000 9.400000e-001 0.000000e+000
         vertex 0.000000e+000 2.000000e-001 0.000000e+000
      endloop
   endfacet
   facet normal 0.000000e+000 0.000000e+000 1.000000e+000
      outer loop
         vertex 5.000000e+000 9.400000e-001 3.000000e+000
         vertex 0.000000e+000 9.400000e-001 3.000000e+000
         vertex 5.000000e+000 2.000000e-001 3.000000e+000
      endloop
   endfacet
   facet normal 0.000000e+000 0.000000e+000 1.000000e+000
      outer loop
         vertex 5.000000e+000 2.000000e-001 3.000000e+000
         vertex 0.000000e+000 9.400000e-001 3.000000e+000
         vertex 0.000000e+000 2.000000e-001 3.000000e+000
      endloop
   endfacet
   facet normal 0.000000e+000 1.000000e+000 0.000000e+000
      outer loop
         vertex 0.000000e+000 9.400000e-001 0.000000e+000
         vertex 0.000000e+000 9.400000e-001 3.000000e+000
         vertex 5.000000e+000 9.400000e-001 0.000000e+000
      endloop
   endfacet
   facet normal 0.000000e+000 1.000000e+000 0.000000e+000
      outer loop
         vertex 5.000000e+000 9.400000e-001 0.000000e+000
         vertex 0.000000e+000 9.400000e-001 3.000000e+000
         vertex 5.000000e+000 9.400000e-001 3.000000e+000
      endloop
   endfacet
   facet normal 0.000000e+000 -1.000000e+000 0.000000e+000
      outer loop
         vertex 0.000000e+000 2.000000e-001 3.000000e+000
         vertex 0.000000e+000 2.000000e-001 0.000000e+000
         vertex 5.000000e+000 2.000000e-001 3.000000e+000
      endloop
   endfacet
   facet normal 0.000000e+000 -1.000000e+000 0.000000e+000
      outer loop
         vertex 5.000000e+000 2.000000e-001 3.000000e+000
         vertex 0.000000e+000 2.000000e-001 0.000000e+000
         vertex 5.000000e+000 2.000000e-001 0.000000e+000
      endloop
   endfacet
   facet normal -1.000000e+000 0.000000e+000 0.000000e+000
      outer loop
         vertex 1.840000e+000 0.000000e+000 0.000000e+000
         vertex 1.840000e+000 0.000000e+000 8.130000e-001
         vertex 1.840000e+000 2.000000e-001 0.000000e+000
      endloop
   endfacet
   facet normal -1.000000e+000 0.000000e+000 0.000000e+000
      outer loop
         vertex 1.840000e+000 2.000000e-001 0.000000e+000
         vertex 1.840000e+000 0.000000e+000 8.130000e-001
         vertex 1.840000e+000 2.000000e-001 8.130000e-001
      endloop
   endfacet
   facet normal 0.000000e+000 0.000000e+000 -1.000000e+000
      outer loop
         vertex 2.340000e+000 0.000000e+000 0.000000e+000
         vertex 1.840000e+000 0.000000e+000 0.000000e+000
         vertex 2.340000e+000 2.000000e-001 0.000000e+000
      endloop
   endfacet
   facet normal 0.000000e+000 0.000000e+000 -1.000000e+000
      outer loop
         vertex 2.340000e+000 2.000000e-001 0.000000e+000
         vertex 1.840000e+000 0.000000e+000 0.000000e+000
         vertex 1.840000e+000 2.000000e-001 0.000000e+000
      endloop
   endfacet
   facet normal 1.000000e+000 0.000000e+000 -2.667164e-016
      outer loop
         vertex 2.340000e+000 0.000000e+000 8.130000e-001
         vertex 2.340000e+000 0.000000e+000 0.000000e+000
         vertex 2.340000e+000 2.000000e-001 8.130000e-001
      endloop
   endfacet
   facet normal 1.000000e+000 0.000000e+000 -2.667164e-016
      outer loop
         vertex 2.340000e+000 2.000000e-001 8.130000e-001
         vertex 2.340000e+000 0.000000e+000 0.000000e+000
         vertex 2.340000e+000 2.000000e-001 0.000000e+000
      endloop
   endfacet
   facet normal 2.168404e-016 0.000000e+000 1.000000e+000
      outer loop
         vertex 1.840000e+000 0.000000e+000 8.130000e-001
         vertex 2.340000e+000 0.000000e+000 8.130000e-001
         vertex 1.840000e+000 2.000000e-001 8.130000e-001
      endloop
   endfacet
   facet normal 2.168404e-016 0.000000e+000 1.000000e+000
      outer loop
         vertex 1.840000e+000 2.000000e-001 8.130000e-001
         vertex 2.340000e+000 0.000000e+000 8.130000e-001
         vertex 2.340000e+000 2.000000e-001 8.130000e-001
      endloop
   endfacet
   facet normal 0.000000e+000 -1.000000e+000 0.000000e+000
      outer loop
         vertex 2.340000e+000 0.000000e+000 0.000000e+000
         vertex 2.340000e+000 0.000000e+000 8.130000e-001
         vertex 1.840000e+000 0.000000e+000 0.000000e+000
      endloop
   endfacet
   facet normal 0.000000e+000 -1.000000e+000 0.000000e+000
      outer loop
         vertex 1.840000e+000 0.000000e+000 0.000000e+000
         vertex 2.340000e+000 0.000000e+000 8.130000e-001
         vertex 1.840000e+000 0.000000e+000 8.130000e-001
      endloop
   endfacet
   facet normal 0.000000e+000 1.000000e+000 0.000000e+000
      outer loop
         vertex 2.340000e+000 2.000000e-001 8.130000e-001
         vertex 2.340000e+000 2.000000e-001 0.000000e+000
         vertex 1.840000e+000 2.000000e-001 8.130000e-001
      endloop
   endfacet
   facet normal 0.000000e+000 1.000000e+000 0.000000e+000
      outer loop
         vertex 1.840000e+000 2.000000e-001 8.130000e-001
         vertex 2.340000e+000 2.000000e-001 0.000000e+000
         vertex 1.840000e+000 2.000000e-001 0.000000e+000
      endloop
   endfacet
   facet normal -1.000000e+000 0.000000e+000 0.000000e+000
      outer loop
         vertex 0.000000e+000 0.000000e+000 1.250000e+000
         vertex 0.000000e+000 0.000000e+000 1.750000e+000
         vertex 0.000000e+000 2.000000e-001 1.250000e+000
      endloop
   endfacet
   facet normal -1.000000e+000 0.000000e+000 0.000000e+000
      outer loop
         vertex 0.000000e+000 2.000000e-001 1.250000e+000
         vertex 0.000000e+000 0.000000e+000 1.750000e+000
         vertex 0.000000e+000 2.000000e-001 1.750000e+000
      endloop
   endfacet
   facet normal 0.000000e+000 0.000000e+000 -1.000000e+000
      outer loop
         vertex 8.129999e-001 0.000000e+000 1.250000e+000
         vertex 0.000000e+000 0.000000e+000 1.250000e+000
         vertex 8.129999e-001 2.000000e-001 1.250000e+000
      endloop
   endfacet
   facet normal 0.000000e+000 0.000000e+000 -1.000000e+000
      outer loop
         vertex 8.129999e-001 2.000000e-001 1.250000e+000
         vertex 0.000000e+000 0.000000e+000 1.250000e+000
         vertex 0.000000e+000 2.000000e-001 1.250000e+000
      endloop
   endfacet
   facet normal 1.000000e+000 0.000000e+000 0.000000e+000
      outer loop
         vertex 8.129999e-001 0.000000e+000 1.750000e+000
         vertex 8.129999e-001 0.000000e+000 1.250000e+000
         vertex 8.129999e-001 2.000000e-001 1.750000e+000
      endloop
   endfacet
   facet normal 1.000000e+000 0.000000e+000 0.000000e+000
      outer loop
         vertex 8.129999e-001 2.000000e-001 1.750000e+000
         vertex 8.129999e-001 0.000000e+000 1.250000e+000
         vertex 8.129999e-001 2.000000e-001 1.250000e+000
      endloop
   endfacet
   facet normal 0.000000e+000 0.000000e+000 1.000000e+000
      outer loop
         vertex 0.000000e+000 0.000000e+000 1.750000e+000
         vertex 8.129999e-001 0.000000e+000 1.750000e+000
         vertex 0.000000e+000 2.000000e-001 1.750000e+000
      endloop
   endfacet
   facet normal 0.000000e+000 0.000000e+000 1.000000e+000
      outer loop
         vertex 0.000000e+000 2.000000e-001 1.750000e+000
         vertex 8.129999e-001 0.000000e+000 1.750000e+000
         vertex 8.129999e-001 2.000000e-001 1.750000e+000
      endloop
   endfacet
   facet normal 0.000000e+000 -1.000000e+000 0.000000e+000
      outer loop
         vertex 8.129999e-001 0.000000e+000 1.250000e+000
         vertex 8.129999e-001 0.000000e+000 1.750000e+000
         vertex 0.000000e+000 0.000000e+000 1.250000e+000
      endloop
   endfacet
   facet normal 0.000000e+000 -1.000000e+000 0.000000e+000
      outer loop
         vertex 0.000000e+000 0.000000e+000 1.250000e+000
         vertex 8.129999e-001 0.000000e+000 1.750000e+000
         vertex 0.000000e+000 0.000000e+000 1.750000e+000
      endloop
   endfacet
   facet normal 0.000000e+000 1.000000e+000 0.000000e+000
      outer loop
         vertex 8.129999e-001 2.000000e-001 1.750000e+000
         vertex 8.129999e-001 2.000000e-001 1.250000e+000
         vertex 0.000000e+000 2.000000e-001 1.750000e+000
      endloop
   endfacet
   facet normal 0.000000e+000 1.000000e+000 0.000000e+000
      outer loop
         vertex 0.000000e+000 2.000000e-001 1.750000e+000
         vertex 8.129999e-001 2.000000e-001 1.250000e+000
         vertex 0.000000e+000 2.000000e-001 1.250000e+000
      endloop
   endfacet
   facet normal 0.000000e+000 0.000000e+000 1.000000e+000
      outer loop
         vertex 4.187000e+000 0.000000e+000 1.750000e+000
         vertex 5.000000e+000 0.000000e+000 1.750000e+000
         vertex 4.187000e+000 2.000000e-001 1.750000e+000
      endloop
   endfacet
   facet normal 0.000000e+000 0.000000e+000 1.000000e+000
      outer loop
         vertex 4.187000e+000 2.000000e-001 1.750000e+000
         vertex 5.000000e+000 0.000000e+000 1.750000e+000
         vertex 5.000000e+000 2.000000e-001 1.750000e+000
      endloop
   endfacet
   facet normal -1.000000e+000 0.000000e+000 0.000000e+000
      outer loop
         vertex 4.187000e+000 0.000000e+000 1.250000e+000
         vertex 4.187000e+000 0.000000e+000 1.750000e+000
         vertex 4.187000e+000 2.000000e-001 1.250000e+000
      endloop
   endfacet
   facet normal -1.000000e+000 0.000000e+000 0.000000e+000
      outer loop
         vertex 4.187000e+000 2.000000e-001 1.250000e+000
         vertex 4.187000e+000 0.000000e+000 1.750000e+000
         vertex 4.187000e+000 2.000000e-001 1.750000e+000
      endloop
   endfacet
   facet normal 0.000000e+000 0.000000e+000 -1.000000e+000
      outer loop
         vertex 5.000000e+000 0.000000e+000 1.250000e+000
         vertex 4.187000e+000 0.000000e+000 1.250000e+000
         vertex 5.000000e+000 2.000000e-001 1.250000e+000
      endloop
   endfacet
   facet normal 0.000000e+000 0.000000e+000 -1.000000e+000
      outer loop
         vertex 5.000000e+000 2.000000e-001 1.250000e+000
         vertex 4.187000e+000 0.000000e+000 1.250000e+000
         vertex 4.187000e+000 2.000000e-001 1.250000e+000
      endloop
   endfacet
   facet normal 1.000000e+000 0.000000e+000 0.000000e+000
      outer loop
         vertex 5.000000e+000 0.000000e+000 1.750000e+000
         vertex 5.000000e+000 0.000000e+000 1.250000e+000
         vertex 5.000000e+000 2.000000e-001 1.750000e+000
      endloop
   endfacet
   facet normal 1.000000e+000 0.000000e+000 0.000000e+000
      outer loop
         vertex 5.000000e+000 2.000000e-001 1.750000e+000
         vertex 5.000000e+000 0.000000e+000 1.250000e+000
         vertex 5.000000e+000 2.000000e-001 1.250000e+000
      endloop
   endfacet
   facet normal 0.000000e+000 -1.000000e+000 0.000000e+000
      outer loop
         vertex 4.187000e+000 0.000000e+000 1.250000e+000
         vertex 5.000000e+000 0.000000e+000 1.250000e+000
         vertex 4.187000e+000 0.000000e+000 1.750000e+000
      endloop
   endfacet
   facet normal 0.000000e+000 -1.000000e+000 0.000000e+000
      outer loop
         vertex 4.187000e+000 0.000000e+000 1.750000e+000
         vertex 5.000000e+000 0.000000e+000 1.250000e+000
         vertex 5.000000e+000 0.000000e+000 1.750000e+000
      endloop
   endfacet
   facet normal 0.000000e+000 1.000000e+000 0.000000e+000
      outer loop
         vertex 5.000000e+000 2.000000e-001 1.250000e+000
         vertex 4.187000e+000 2.000000e-001 1.250000e+000
         vertex 5.000000e+000 2.000000e-001 1.750000e+000
      endloop
   endfacet
   facet normal 0.000000e+000 1.000000e+000 0.000000e+000
      outer loop
         vertex 5.000000e+000 2.000000e-001 1.750000e+000
         vertex 4.187000e+000 2.000000e-001 1.250000e+000
         vertex 4.187000e+000 2.000000e-001 1.750000e+000
      endloop
   endfacet
   facet normal -1.000000e+000 0.000000e+000 0.000000e+000
      outer loop
         vertex 2.400000e-001 0.000000e+000 2.187000e+000
         vertex 2.400000e-001 0.000000e+000 3.000000e+000
         vertex 2.400000e-001 2.000000e-001 2.187000e+000
      endloop
   endfacet
   facet normal -1.000000e+000 0.000000e+000 0.000000e+000
      outer loop
         vertex 2.400000e-001 2.000000e-001 2.187000e+000
         vertex 2.400000e-001 0.000000e+000 3.000000e+000
         vertex 2.400000e-001 2.000000e-001 3.000000e+000
      endloop
   endfacet
   facet normal 2.168404e-016 0.000000e+000 -1.000000e+000
      outer loop
         vertex 7.399999e-001 0.000000e+000 2.187000e+000
         vertex 2.400000e-001 0.000000e+000 2.187000e+000
         vertex 7.399999e-001 2.000000e-001 2.187000e+000
      endloop
   endfacet
   facet normal 2.168404e-016 0.000000e+000 -1.000000e+000
      outer loop
         vertex 7.399999e-001 2.000000e-001 2.187000e+000
         vertex 2.400000e-001 0.000000e+000 2.187000e+000
         vertex 2.400000e-001 2.000000e-001 2.187000e+000
      endloop
   endfacet
   facet normal 1.000000e+000 0.000000e+000 2.667164e-016
      outer loop
         vertex 7.399999e-001 0.000000e+000 3.000000e+000
         vertex 7.399999e-001 0.000000e+000 2.187000e+000
         vertex 7.399999e-001 2.000000e-001 3.000000e+000
      endloop
   endfacet
   facet normal 1.000000e+000 0.000000e+000 2.667164e-016
      outer loop
         vertex 7.399999e-001 2.000000e-001 3.000000e+000
         vertex 7.399999e-001 0.000000e+000 2.187000e+000
         vertex 7.399999e-001 2.000000e-001 2.187000e+000
      endloop
   endfacet
   facet normal 0.000000e+000 0.000000e+000 1.000000e+000
      outer loop
         vertex 2.400000e-001 0.000000e+000 3.000000e+000
         vertex 7.399999e-001 0.000000e+000 3.000000e+000
         vertex 2.400000e-001 2.000000e-001 3.000000e+000
      endloop
   endfacet
   facet normal 0.000000e+000 0.000000e+000 1.000000e+000
      outer loop
         vertex 2.400000e-001 2.000000e-001 3.000000e+000
         vertex 7.399999e-001 0.000000e+000 3.000000e+000
         vertex 7.399999e-001 2.000000e-001 3.000000e+000
      endloop
   endfacet
   facet normal 0.000000e+000 -1.000000e+000 0.000000e+000
      outer loop
         vertex 7.399999e-001 0.000000e+000 2.187000e+000
         vertex 7.399999e-001 0.000000e+000 3.000000e+000
         vertex 2.400000e-001 0.000000e+000 2.187000e+000
      endloop
   endfacet
   facet normal 0.000000e+000 -1.000000e+000 0.000000e+000
      outer loop
         vertex 2.400000e-001 0.000000e+000 2.187000e+000
         vertex 7.399999e-001 0.000000e+000 3.000000e+000
         vertex 2.400000e-001 0.000000e+000 3.000000e+000
      endloop
   endfacet
   facet normal 0.000000e+000 1.000000e+000 0.000000e+000
      outer loop
         vertex 7.399999e-001 2.000000e-001 3.000000e+000
         vertex 7.399999e-001 2.000000e-001 2.187000e+000
         vertex 2.400000e-001 2.000000e-001 3.000000e+000
      endloop
   endfacet
   facet normal 0.000000e+000 1.000000e+000 0.000000e+000
      outer loop
         vertex 2.400000e-001 2.000000e-001 3.000000e+000
         vertex 7.399999e-001 2.000000e-001 2.187000e+000
         vertex 2.400000e-001 2.000000e-001 2.187000e+000
      endloop
   endfacet
   facet normal 0.000000e+000 0.000000e+000 -1.000000e+000
      outer loop
         vertex 7.399999e-001 0.000000e+000 0.000000e+000
         vertex 2.400000e-001 0.000000e+000 0.000000e+000
         vertex 7.399999e-001 2.000000e-001 0.000000e+000
      endloop
   endfacet
   facet normal 0.000000e+000 0.000000e+000 -1.000000e+000
      outer loop
         vertex 7.399999e-001 2.000000e-001 0.000000e+000
         vertex 2.400000e-001 0.000000e+000 0.000000e+000
         vertex 2.400000e-001 2.000000e-001 0.000000e+000
      endloop
   endfacet
   facet normal 1.000000e+000 0.000000e+000 -2.667164e-016
      outer loop
         vertex 7.399999e-001 0.000000e+000 8.130000e-001
         vertex 7.399999e-001 0.000000e+000 0.000000e+000
         vertex 7.399999e-001 2.000000e-001 8.130000e-001
      endloop
   endfacet
   facet normal 1.000000e+000 0.000000e+000 -2.667164e-016
      outer loop
         vertex 7.399999e-001 2.000000e-001 8.130000e-001
         vertex 7.399999e-001 0.000000e+000 0.000000e+000
         vertex 7.399999e-001 2.000000e-001 0.000000e+000
      endloop
   endfacet
   facet normal 2.168404e-016 0.000000e+000 1.000000e+000
      outer loop
         vertex 2.400000e-001 0.000000e+000 8.130000e-001
         vertex 7.399999e-001 0.000000e+000 8.130000e-001
         vertex 2.400000e-001 2.000000e-001 8.130000e-001
      endloop
   endfacet
   facet normal 2.168404e-016 0.000000e+000 1.000000e+000
      outer loop
         vertex 2.400000e-001 2.000000e-001 8.130000e-001
         vertex 7.399999e-001 0.000000e+000 8.130000e-001
         vertex 7.399999e-001 2.000000e-001 8.130000e-001
      endloop
   endfacet
   facet normal -1.000000e+000 0.000000e+000 0.000000e+000
      outer loop
         vertex 2.400000e-001 0.000000e+000 0.000000e+000
         vertex 2.400000e-001 0.000000e+000 8.130000e-001
         vertex 2.400000e-001 2.000000e-001 0.000000e+000
      endloop
   endfacet
   facet normal -1.000000e+000 0.000000e+000 0.000000e+000
      outer loop
         vertex 2.400000e-001 2.000000e-001 0.000000e+000
         vertex 2.400000e-001 0.000000e+000 8.130000e-001
         vertex 2.400000e-001 2.000000e-001 8.130000e-001
      endloop
   endfacet
   facet normal 0.000000e+000 -1.000000e+000 0.000000e+000
      outer loop
         vertex 7.399999e-001 0.000000e+000 8.130000e-001
         vertex 2.400000e-001 0.000000e+000 8.130000e-001
         vertex 7.399999e-001 0.000000e+000 0.000000e+000
      endloop
   endfacet
   facet normal 0.000000e+000 -1.000000e+000 0.000000e+000
      outer loop
         vertex 7.399999e-001 0.000000e+000 0.000000e+000
         vertex 2.400000e-001 0.000000e+000 8.130000e-001
         vertex 2.400000e-001 0.000000e+000 0.000000e+000
      endloop
   endfacet
   facet normal 0.000000e+000 1.000000e+000 0.000000e+000
      outer loop
         vertex 2.400000e-001 2.000000e-001 8.130000e-001
         vertex 7.399999e-001 2.000000e-001 8.130000e-001
         vertex 2.400000e-001 2.000000e-001 0.000000e+000
      endloop
   endfacet
   facet normal 0.000000e+000 1.000000e+000 0.000000e+000
      outer loop
         vertex 2.400000e-001 2.000000e-001 0.000000e+000
         vertex 7.399999e-001 2.000000e-001 8.130000e-001
         vertex 7.399999e-001 2.000000e-001 0.000000e+000
      endloop
   endfacet
   facet normal -1.000000e+000 0.000000e+000 0.000000e+000
      outer loop
         vertex 1.040000e+000 0.000000e+000 0.000000e+000
         vertex 1.040000e+000 0.000000e+000 8.130000e-001
         vertex 1.040000e+000 2.000000e-001 0.000000e+000
      endloop
   endfacet
   facet normal -1.000000e+000 0.000000e+000 0.000000e+000
      outer loop
         vertex 1.040000e+000 2.000000e-001 0.000000e+000
         vertex 1.040000e+000 0.000000e+000 8.130000e-001
         vertex 1.040000e+000 2.000000e-001 8.130000e-001
      endloop
   endfacet
   facet normal 0.000000e+000 0.000000e+000 -1.000000e+000
      outer loop
         vertex 1.540000e+000 0.000000e+000 0.000000e+000
         vertex 1.040000e+000 0.000000e+000 0.000000e+000
         vertex 1.540000e+000 2.000000e-001 0.000000e+000
      endloop
   endfacet
   facet normal 0.000000e+000 0.000000e+000 -1.000000e+000
      outer loop
         vertex 1.540000e+000 2.000000e-001 0.000000e+000
         vertex 1.040000e+000 0.000000e+000 0.000000e+000
         vertex 1.040000e+000 2.000000e-001 0.000000e+000
      endloop
   endfacet
   facet normal 1.000000e+000 0.000000e+000 -2.667164e-016
      outer loop
         vertex 1.540000e+000 0.000000e+000 8.130000e-001
         vertex 1.540000e+000 0.000000e+000 0.000000e+000
         vertex 1.540000e+000 2.000000e-001 8.130000e-001
      endloop
   endfacet
   facet normal 1.000000e+000 0.000000e+000 -2.667164e-016
      outer loop
         vertex 1.540000e+000 2.000000e-001 8.130000e-001
         vertex 1.540000e+000 0.000000e+000 0.000000e+000
         vertex 1.540000e+000 2.000000e-001 0.000000e+000
      endloop
   endfacet
   facet normal 2.168404e-016 0.000000e+000 1.000000e+000
      outer loop
         vertex 1.040000e+000 0.000000e+000 8.130000e-001
         vertex 1.540000e+000 0.000000e+000 8.130000e-001
         vertex 1.040000e+000 2.000000e-001 8.130000e-001
      endloop
   endfacet
   facet normal 2.168404e-016 0.000000e+000 1.000000e+000
      outer loop
         vertex 1.040000e+000 2.000000e-001 8.130000e-001
         vertex 1.540000e+000 0.000000e+000 8.130000e-001
         vertex 1.540000e+000 2.000000e-001 8.130000e-001
      endloop
   endfacet
   facet normal 0.000000e+000 -1.000000e+000 0.000000e+000
      outer loop
         vertex 1.540000e+000 0.000000e+000 0.000000e+000
         vertex 1.540000e+000 0.000000e+000 8.130000e-001
         vertex 1.040000e+000 0.000000e+000 0.000000e+000
      endloop
   endfacet
   facet normal 0.000000e+000 -1.000000e+000 0.000000e+000
      outer loop
         vertex 1.040000e+000 0.000000e+000 0.000000e+000
         vertex 1.540000e+000 0.000000e+000 8.130000e-001
         vertex 1.040000e+000 0.000000e+000 8.130000e-001
      endloop
   endfacet
   facet normal 0.000000e+000 1.000000e+000 0.000000e+000
      outer loop
         vertex 1.540000e+000 2.000000e-001 8.130000e-001
         vertex 1.540000e+000 2.000000e-001 0.000000e+000
         vertex 1.040000e+000 2.000000e-001 8.130000e-001
      endloop
   endfacet
   facet normal 0.000000e+000 1.000000e+000 0.000000e+000
      outer loop
         vertex 1.040000e+000 2.000000e-001 8.130000e-001
         vertex 1.540000e+000 2.000000e-001 0.000000e+000
         vertex 1.040000e+000 2.000000e-001 0.000000e+000
      endloop
   endfacet
   facet normal 0.000000e+000 0.000000e+000 1.000000e+000
      outer loop
         vertex 1.040000e+000 0.000000e+000 3.000000e+000
         vertex 1.540000e+000 0.000000e+000 3.000000e+000
         vertex 1.040000e+000 2.000000e-001 3.000000e+000
      endloop
   endfacet
   facet normal 0.000000e+000 0.000000e+000 1.000000e+000
      outer loop
         vertex 1.040000e+000 2.000000e-001 3.000000e+000
         vertex 1.540000e+000 0.000000e+000 3.000000e+000
         vertex 1.540000e+000 2.000000e-001 3.000000e+000
      endloop
   endfacet
   facet normal -1.000000e+000 0.000000e+000 0.000000e+000
      outer loop
         vertex 1.040000e+000 0.000000e+000 2.187000e+000
         vertex 1.040000e+000 0.000000e+000 3.000000e+000
         vertex 1.040000e+000 2.000000e-001 2.187000e+000
      endloop
   endfacet
   facet normal -1.000000e+000 0.000000e+000 0.000000e+000
      outer loop
         vertex 1.040000e+000 2.000000e-001 2.187000e+000
         vertex 1.040000e+000 0.000000e+000 3.000000e+000
         vertex 1.040000e+000 2.000000e-001 3.000000e+000
      endloop
   endfacet
   facet normal 2.168404e-016 0.000000e+000 -1.000000e+000
      outer loop
         vertex 1.540000e+000 0.000000e+000 2.187000e+000
         vertex 1.040000e+000 0.000000e+000 2.187000e+000
         vertex 1.540000e+000 2.000000e-001 2.187000e+000
      endloop
   endfacet
   facet normal 2.168404e-016 0.000000e+000 -1.000000e+000
      outer loop
         vertex 1.540000e+000 2.000000e-001 2.187000e+000
         vertex 1.040000e+000 0.000000e+000 2.187000e+000
         vertex 1.040000e+000 2.000000e-001 2.187000e+000
      endloop
   endfacet
   facet normal 1.000000e+000 0.000000e+000 2.667164e-016
      outer loop
         vertex 1.540000e+000 0.000000e+000 3.000000e+000
         vertex 1.540000e+000 0.000000e+000 2.187000e+000
         vertex 1.540000e+000 2.000000e-001 3.000000e+000
      endloop
   endfacet
   facet normal 1.000000e+000 0.000000e+000 2.667164e-016
      outer loop
         vertex 1.540000e+000 2.000000e-001 3.000000e+000
         vertex 1.540000e+000 0.000000e+000 2.187000e+000
         vertex 1.540000e+000 2.000000e-001 2.187000e+000
      endloop
   endfacet
   facet normal 0.000000e+000 -1.000000e+000 0.000000e+000
      outer loop
         vertex 1.040000e+000 0.000000e+000 2.187000e+000
         vertex 1.540000e+000 0.000000e+000 2.187000e+000
         vertex 1.040000e+000 0.000000e+000 3.000000e+000
      endloop
   endfacet
   facet normal 0.000000e+000 -1.000000e+000 0.000000e+000
      outer loop
         vertex 1.040000e+000 0.000000e+000 3.000000e+000
         vertex 1.540000e+000 0.000000e+000 2.187000e+000
         vertex 1.540000e+000 0.000000e+000 3.000000e+000
      endloop
   endfacet
   facet normal 0.000000e+000 1.000000e+000 0.000000e+000
      outer loop
         vertex 1.540000e+000 2.000000e-001 2.187000e+000
         vertex 1.040000e+000 2.000000e-001 2.187000e+000
         vertex 1.540000e+000 2.000000e-001 3.000000e+000
      endloop
   endfacet
   facet normal 0.000000e+000 1.000000e+000 0.000000e+000
      outer loop
         vertex 1.540000e+000 2.000000e-001 3.000000e+000
         vertex 1.040000e+000 2.000000e-001 2.187000e+000
         vertex 1.040000e+000 2.000000e-001 3.000000e+000
      endloop
   endfacet
   facet normal 0.000000e+000 0.000000e+000 1.000000e+000
      outer loop
         vertex 1.840000e+000 0.000000e+000 3.000000e+000
         vertex 2.340000e+000 0.000000e+000 3.000000e+000
         vertex 1.840000e+000 2.000000e-001 3.000000e+000
      endloop
   endfacet
   facet normal 0.000000e+000 0.000000e+000 1.000000e+000
      outer loop
         vertex 1.840000e+000 2.000000e-001 3.000000e+000
         vertex 2.340000e+000 0.000000e+000 3.000000e+000
         vertex 2.340000e+000 2.000000e-001 3.000000e+000
      endloop
   endfacet
   facet normal -1.000000e+000 0.000000e+000 0.000000e+000
      outer loop
         vertex 1.840000e+000 0.000000e+000 2.187000e+000
         vertex 1.840000e+000 0.000000e+000 3.000000e+000
         vertex 1.840000e+000 2.000000e-001 2.187000e+000
      endloop
   endfacet
   facet normal -1.000000e+000 0.000000e+000 0.000000e+000
      outer loop
         vertex 1.840000e+000 2.000000e-001 2.187000e+000
         vertex 1.840000e+000 0.000000e+000 3.000000e+000
         vertex 1.840000e+000 2.000000e-001 3.000000e+000
      endloop
   endfacet
   facet normal 2.168404e-016 0.000000e+000 -1.000000e+000
      outer loop
         vertex 2.340000e+000 0.000000e+000 2.187000e+000
         vertex 1.840000e+000 0.000000e+000 2.187000e+000
         vertex 2.340000e+000 2.000000e-001 2.187000e+000
      endloop
   endfacet
   facet normal 2.168404e-016 0.000000e+000 -1.000000e+000
      outer loop
         vertex 2.340000e+000 2.000000e-001 2.187000e+000
         vertex 1.840000e+000 0.000000e+000 2.187000e+000
         vertex 1.840000e+000 2.000000e-001 2.187000e+000
      endloop
   endfacet
   facet normal 1.000000e+000 0.000000e+000 2.667164e-016
      outer loop
         vertex 2.340000e+000 0.000000e+000 3.000000e+000
         vertex 2.340000e+000 0.000000e+000 2.187000e+000
         vertex 2.340000e+000 2.000000e-001 3.000000e+000
      endloop
   endfacet
   facet normal 1.000000e+000 0.000000e+000 2.667164e-016
      outer loop
         vertex 2.340000e+000 2.000000e-001 3.000000e+000
         vertex 2.340000e+000 0.000000e+000 2.187000e+000
         vertex 2.340000e+000 2.000000e-001 2.187000e+000
      endloop
   endfacet
   facet normal 0.000000e+000 -1.000000e+000 0.000000e+000
      outer loop
         vertex 1.840000e+000 0.000000e+000 2.187000e+000
         vertex 2.340000e+000 0.000000e+000 2.187000e+000
         vertex 1.840000e+000 0.000000e+000 3.000000e+000
      endloop
   endfacet
   facet normal 0.000000e+000 -1.000000e+000 0.000000e+000
      outer loop
         vertex 1.840000e+000 0.000000e+000 3.000000e+000
         vertex 2.340000e+000 0.000000e+000 2.187000e+000
         vertex 2.340000e+000 0.000000e+000 3.000000e+000
      endloop
   endfacet
   facet normal 0.000000e+000 1.000000e+000 0.000000e+000
      outer loop
         vertex 2.340000e+000 2.000000e-001 2.187000e+000
         vertex 1.840000e+000 2.000000e-001 2.187000e+000
         vertex 2.340000e+000 2.000000e-001 3.000000e+000
      endloop
   endfacet
   facet normal 0.000000e+000 1.000000e+000 0.000000e+000
      outer loop
         vertex 2.340000e+000 2.000000e-001 3.000000e+000
         vertex 1.840000e+000 2.000000e-001 2.187000e+000
         vertex 1.840000e+000 2.000000e-001 3.000000e+000
      endloop
   endfacet
   facet normal 0.000000e+000 0.000000e+000 1.000000e+000
      outer loop
         vertex 2.640000e+000 0.000000e+000 3.000000e+000
         vertex 3.140000e+000 0.000000e+000 3.000000e+000
         vertex 2.640000e+000 2.000000e-001 3.000000e+000
      endloop
   endfacet
   facet normal 0.000000e+000 0.000000e+000 1.000000e+000
      outer loop
         vertex 2.640000e+000 2.000000e-001 3.000000e+000
         vertex 3.140000e+000 0.000000e+000 3.000000e+000
         vertex 3.140000e+000 2.000000e-001 3.000000e+000
      endloop
   endfacet
   facet normal -1.000000e+000 0.000000e+000 0.000000e+000
      outer loop
         vertex 2.640000e+000 0.000000e+000 2.187000e+000
         vertex 2.640000e+000 0.000000e+000 3.000000e+000
         vertex 2.640000e+000 2.000000e-001 2.187000e+000
      endloop
   endfacet
   facet normal -1.000000e+000 0.000000e+000 0.000000e+000
      outer loop
         vertex 2.640000e+000 2.000000e-001 2.187000e+000
         vertex 2.640000e+000 0.000000e+000 3.000000e+000
         vertex 2.640000e+000 2.000000e-001 3.000000e+000
      endloop
   endfacet
   facet normal 2.168404e-016 0.000000e+000 -1.000000e+000
      outer loop
         vertex 3.140000e+000 0.000000e+000 2.187000e+000
         vertex 2.640000e+000 0.000000e+000 2.187000e+000
         vertex 3.140000e+000 2.000000e-001 2.187000e+000
      endloop
   endfacet
   facet normal 2.168404e-016 0.000000e+000 -1.000000e+000
      outer loop
         vertex 3.140000e+000 2.000000e-001 2.187000e+000
         vertex 2.640000e+000 0.000000e+000 2.187000e+000
         vertex 2.640000e+000 2.000000e-001 2.187000e+000
      endloop
   endfacet
   facet normal 1.000000e+000 0.000000e+000 2.667164e-016
      outer loop
         vertex 3.140000e+000 0.000000e+000 3.000000e+000
         vertex 3.140000e+000 0.000000e+000 2.187000e+000
         vertex 3.140000e+000 2.000000e-001 3.000000e+000
      endloop
   endfacet
   facet normal 1.000000e+000 0.000000e+000 2.667164e-016
      outer loop
         vertex 3.140000e+000 2.000000e-001 3.000000e+000
         vertex 3.140000e+000 0.000000e+000 2.187000e+000
         vertex 3.140000e+000 2.000000e-001 2.187000e+000
      endloop
   endfacet
   facet normal 0.000000e+000 -1.000000e+000 0.000000e+000
      outer loop
         vertex 2.640000e+000 0.000000e+000 2.187000e+000
         vertex 3.140000e+000 0.000000e+000 2.187000e+000
         vertex 2.640000e+000 0.000000e+000 3.000000e+000
      endloop
   endfacet
   facet normal 0.000000e+000 -1.000000e+000 0.000000e+000
      outer loop
         vertex 2.640000e+000 0.000000e+000 3.000000e+000
         vertex 3.140000e+000 0.000000e+000 2.187000e+000
         vertex 3.140000e+000 0.000000e+000 3.000000e+000
      endloop
   endfacet
   facet normal 0.000000e+000 1.000000e+000 0.000000e+000
      outer loop
         vertex 3.140000e+000 2.000000e-001 2.187000e+000
         vertex 2.640000e+000 2.000000e-001 2.187000e+000
         vertex 3.140000e+000 2.000000e-001 3.000000e+000
      endloop
   endfacet
   facet normal 0.000000e+000 1.000000e+000 0.000000e+000
      outer loop
         vertex 3.140000e+000 2.000000e-001 3.000000e+000
         vertex 2.640000e+000 2.000000e-001 2.187000e+000
         vertex 2.640000e+000 2.000000e-001 3.000000e+000
      endloop
   endfacet
   facet normal 0.000000e+000 0.000000e+000 1.000000e+000
      outer loop
         vertex 3.440000e+000 0.000000e+000 3.000000e+000
         vertex 3.940000e+000 0.000000e+000 3.000000e+000
         vertex 3.440000e+000 2.000000e-001 3.000000e+000
      endloop
   endfacet
   facet normal 0.000000e+000 0.000000e+000 1.000000e+000
      outer loop
         vertex 3.440000e+000 2.000000e-001 3.000000e+000
         vertex 3.940000e+000 0.000000e+000 3.000000e+000
         vertex 3.940000e+000 2.000000e-001 3.000000e+000
      endloop
   endfacet
   facet normal -1.000000e+000 0.000000e+000 0.000000e+000
      outer loop
         vertex 3.440000e+000 0.000000e+000 2.187000e+000
         vertex 3.440000e+000 0.000000e+000 3.000000e+000
         vertex 3.440000e+000 2.000000e-001 2.187000e+000
      endloop
   endfacet
   facet normal -1.000000e+000 0.000000e+000 0.000000e+000
      outer loop
         vertex 3.440000e+000 2.000000e-001 2.187000e+000
         vertex 3.440000e+000 0.000000e+000 3.000000e+000
         vertex 3.440000e+000 2.000000e-001 3.000000e+000
      endloop
   endfacet
   facet normal 2.168404e-016 0.000000e+000 -1.000000e+000
      outer loop
         vertex 3.940000e+000 0.000000e+000 2.187000e+000
         vertex 3.440000e+000 0.000000e+000 2.187000e+000
         vertex 3.940000e+000 2.000000e-001 2.187000e+000
      endloop
   endfacet
   facet normal 2.168404e-016 0.000000e+000 -1.000000e+000
      outer loop
         vertex 3.940000e+000 2.000000e-001 2.187000e+000
         vertex 3.440000e+000 0.000000e+000 2.187000e+000
         vertex 3.440000e+000 2.000000e-001 2.187000e+000
      endloop
   endfacet
   facet normal 1.000000e+000 0.000000e+000 2.667164e-016
      outer loop
         vertex 3.940000e+000 0.000000e+000 3.000000e+000
         vertex 3.940000e+000 0.000000e+000 2.187000e+000
         vertex 3.940000e+000 2.000000e-001 3.000000e+000
      endloop
   endfacet
   facet normal 1.000000e+000 0.000000e+000 2.667164e-016
      outer loop
         vertex 3.940000e+000 2.000000e-001 3.000000e+000
         vertex 3.940000e+000 0.000000e+000 2.187000e+000
         vertex 3.940000e+000 2.000000e-001 2.187000e+000
      endloop
   endfacet
   facet normal 0.000000e+000 -1.000000e+000 0.000000e+000
      outer loop
         vertex 3.440000e+000 0.000000e+000 2.187000e+000
         vertex 3.940000e+000 0.000000e+000 2.187000e+000
         vertex 3.440000e+000 0.000000e+000 3.000000e+000
      endloop
   endfacet
   facet normal 0.000000e+000 -1.000000e+000 0.000000e+000
      outer loop
         vertex 3.440000e+000 0.000000e+000 3.000000e+000
         vertex 3.940000e+000 0.000000e+000 2.187000e+000
         vertex 3.940000e+000 0.000000e+000 3.000000e+000
      endloop
   endfacet
   facet normal 0.000000e+000 1.000000e+000 0.000000e+000
      outer loop
         vertex 3.940000e+000 2.000000e-001 2.187000e+000
         vertex 3.440000e+000 2.000000e-001 2.187000e+000
         vertex 3.940000e+000 2.000000e-001 3.000000e+000
      endloop
   endfacet
   facet normal 0.000000e+000 1.000000e+000 0.000000e+000
      outer loop
         vertex 3.940000e+000 2.000000e-001 3.000000e+000
         vertex 3.440000e+000 2.000000e-001 2.187000e+000
         vertex 3.440000e+000 2.000000e-001 3.000000e+000
      endloop
   endfacet
   facet normal 0.000000e+000 0.000000e+000 1.000000e+000
      outer loop
         vertex 4.240000e+000 0.000000e+000 3.000000e+000
         vertex 4.740000e+000 0.000000e+000 3.000000e+000
         vertex 4.240000e+000 2.000000e-001 3.000000e+000
      endloop
   endfacet
   facet normal 0.000000e+000 0.000000e+000 1.000000e+000
      outer loop
         vertex 4.240000e+000 2.000000e-001 3.000000e+000
         vertex 4.740000e+000 0.000000e+000 3.000000e+000
         vertex 4.740000e+000 2.000000e-001 3.000000e+000
      endloop
   endfacet
   facet normal -1.000000e+000 0.000000e+000 0.000000e+000
      outer loop
         vertex 4.240000e+000 0.000000e+000 2.187000e+000
         vertex 4.240000e+000 0.000000e+000 3.000000e+000
         vertex 4.240000e+000 2.000000e-001 2.187000e+000
      endloop
   endfacet
   facet normal -1.000000e+000 0.000000e+000 0.000000e+000
      outer loop
         vertex 4.240000e+000 2.000000e-001 2.187000e+000
         vertex 4.240000e+000 0.000000e+000 3.000000e+000
         vertex 4.240000e+000 2.000000e-001 3.000000e+000
      endloop
   endfacet
   facet normal 2.168404e-016 0.000000e+000 -1.000000e+000
      outer loop
         vertex 4.740000e+000 0.000000e+000 2.187000e+000
         vertex 4.240000e+000 0.000000e+000 2.187000e+000
         vertex 4.740000e+000 2.000000e-001 2.187000e+000
      endloop
   endfacet
   facet normal 2.168404e-016 0.000000e+000 -1.000000e+000
      outer loop
         vertex 4.740000e+000 2.000000e-001 2.187000e+000
         vertex 4.240000e+000 0.000000e+000 2.187000e+000
         vertex 4.240000e+000 2.000000e-001 2.187000e+000
      endloop
   endfacet
   facet normal 1.000000e+000 0.000000e+000 0.000000e+000
      outer loop
         vertex 4.740000e+000 0.000000e+000 3.000000e+000
         vertex 4.740000e+000 0.000000e+000 2.187000e+000
         vertex 4.740000e+000 2.000000e-001 3.000000e+000
      endloop
   endfacet
   facet normal 1.000000e+000 0.000000e+000 0.000000e+000
      outer loop
         vertex 4.740000e+000 2.000000e-001 3.000000e+000
         vertex 4.740000e+000 0.000000e+000 2.187000e+000
         vertex 4.740000e+000 2.000000e-001 2.187000e+000
      endloop
   endfacet
   facet normal 0.000000e+000 -1.000000e+000 0.000000e+000
      outer loop
         vertex 4.240000e+000 0.000000e+000 2.187000e+000
         vertex 4.740000e+000 0.000000e+000 2.187000e+000
         vertex 4.240000e+000 0.000000e+000 3.000000e+000
      endloop
   endfacet
   facet normal 0.000000e+000 -1.000000e+000 0.000000e+000
      outer loop
         vertex 4.240000e+000 0.000000e+000 3.000000e+000
         vertex 4.740000e+000 0.000000e+000 2.187000e+000
         vertex 4.740000e+000 0.000000e+000 3.000000e+000
      endloop
   endfacet
   facet normal 0.000000e+000 1.000000e+000 0.000000e+000
      outer loop
         vertex 4.740000e+000 2.000000e-001 2.187000e+000
         vertex 4.240000e+000 2.000000e-001 2.187000e+000
         vertex 4.740000e+000 2.000000e-001 3.000000e+000
      endloop
   endfacet
   facet normal 0.000000e+000 1.000000e+000 0.000000e+000
      outer loop
         vertex 4.740000e+000 2.000000e-001 3.000000e+000
         vertex 4.240000e+000 2.000000e-001 2.187000e+000
         vertex 4.240000e+000 2.000000e-001 3.000000e+000
      endloop
   endfacet
   facet normal -1.000000e+000 0.000000e+000 0.000000e+000
      outer loop
         vertex 4.240000e+000 0.000000e+000 0.000000e+000
         vertex 4.240000e+000 0.000000e+000 8.130000e-001
         vertex 4.240000e+000 2.000000e-001 0.000000e+000
      endloop
   endfacet
   facet normal -1.000000e+000 0.000000e+000 0.000000e+000
      outer loop
         vertex 4.240000e+000 2.000000e-001 0.000000e+000
         vertex 4.240000e+000 0.000000e+000 8.130000e-001
         vertex 4.240000e+000 2.000000e-001 8.130000e-001
      endloop
   endfacet
   facet normal 0.000000e+000 0.000000e+000 -1.000000e+000
      outer loop
         vertex 4.740000e+000 0.000000e+000 0.000000e+000
         vertex 4.240000e+000 0.000000e+000 0.000000e+000
         vertex 4.740000e+000 2.000000e-001 0.000000e+000
      endloop
   endfacet
   facet normal 0.000000e+000 0.000000e+000 -1.000000e+000
      outer loop
         vertex 4.740000e+000 2.000000e-001 0.000000e+000
         vertex 4.240000e+000 0.000000e+000 0.000000e+000
         vertex 4.240000e+000 2.000000e-001 0.000000e+000
      endloop
   endfacet
   facet normal 1.000000e+000 0.000000e+000 0.000000e+000
      outer loop
         vertex 4.740000e+000 0.000000e+000 8.130000e-001
         vertex 4.740000e+000 0.000000e+000 0.000000e+000
         vertex 4.740000e+000 2.000000e-001 8.130000e-001
      endloop
   endfacet
   facet normal 1.000000e+000 0.000000e+000 0.000000e+000
      outer loop
         vertex 4.740000e+000 2.000000e-001 8.130000e-001
         vertex 4.740000e+000 0.000000e+000 0.000000e+000
         vertex 4.740000e+000 2.000000e-001 0.000000e+000
      endloop
   endfacet
   facet normal 2.168404e-016 0.000000e+000 1.000000e+000
      outer loop
         vertex 4.240000e+000 0.000000e+000 8.130000e-001
         vertex 4.740000e+000 0.000000e+000 8.130000e-001
         vertex 4.240000e+000 2.000000e-001 8.130000e-001
      endloop
   endfacet
   facet normal 2.168404e-016 0.000000e+000 1.000000e+000
      outer loop
         vertex 4.240000e+000 2.000000e-001 8.130000e-001
         vertex 4.740000e+000 0.000000e+000 8.130000e-001
         vertex 4.740000e+000 2.000000e-001 8.130000e-001
      endloop
   endfacet
   facet normal 0.000000e+000 -1.000000e+000 0.000000e+000
      outer loop
         vertex 4.740000e+000 0.000000e+000 0.000000e+000
         vertex 4.740000e+000 0.000000e+000 8.130000e-001
         vertex 4.240000e+000 0.000000e+000 0.000000e+000
      endloop
   endfacet
   facet normal 0.000000e+000 -1.000000e+000 0.000000e+000
      outer loop
         vertex 4.240000e+000 0.000000e+000 0.000000e+000
         vertex 4.740000e+000 0.000000e+000 8.130000e-001
         vertex 4.240000e+000 0.000000e+000 8.130000e-001
      endloop
   endfacet
   facet normal 0.000000e+000 1.000000e+000 0.000000e+000
      outer loop
         vertex 4.740000e+000 2.000000e-001 8.130000e-001
         vertex 4.740000e+000 2.000000e-001 0.000000e+000
         vertex 4.240000e+000 2.000000e-001 8.130000e-001
      endloop
   endfacet
   facet normal 0.000000e+000 1.000000e+000 0.000000e+000
      outer loop
         vertex 4.240000e+000 2.000000e-001 8.130000e-001
         vertex 4.740000e+000 2.000000e-001 0.000000e+000
         vertex 4.240000e+000 2.000000e-001 0.000000e+000
      endloop
   endfacet
   facet normal -1.000000e+000 0.000000e+000 0.000000e+000
      outer loop
         vertex 3.440000e+000 0.000000e+000 0.000000e+000
         vertex 3.440000e+000 0.000000e+000 8.130000e-001
         vertex 3.440000e+000 2.000000e-001 0.000000e+000
      endloop
   endfacet
   facet normal -1.000000e+000 0.000000e+000 0.000000e+000
      outer loop
         vertex 3.440000e+000 2.000000e-001 0.000000e+000
         vertex 3.440000e+000 0.000000e+000 8.130000e-001
         vertex 3.440000e+000 2.000000e-001 8.130000e-001
      endloop
   endfacet
   facet normal 0.000000e+000 0.000000e+000 -1.000000e+000
      outer loop
         vertex 3.940000e+000 0.000000e+000 0.000000e+000
         vertex 3.440000e+000 0.000000e+000 0.000000e+000
         vertex 3.940000e+000 2.000000e-001 0.000000e+000
      endloop
   endfacet
   facet normal 0.000000e+000 0.000000e+000 -1.000000e+000
      outer loop
         vertex 3.940000e+000 2.000000e-001 0.000000e+000
         vertex 3.440000e+000 0.000000e+000 0.000000e+000
         vertex 3.440000e+000 2.000000e-001 0.000000e+000
      endloop
   endfacet
   facet normal 1.000000e+000 0.000000e+000 -2.667164e-016
      outer loop
         vertex 3.940000e+000 0.000000e+000 8.130000e-001
         vertex 3.940000e+000 0.000000e+000 0.000000e+000
         vertex 3.940000e+000 2.000000e-001 8.130000e-001
      endloop
   endfacet
   facet normal 1.000000e+000 0.000000e+000 -2.667164e-016
      outer loop
         vertex 3.940000e+000 2.000000e-001 8.130000e-001
         vertex 3.940000e+000 0.000000e+000 0.000000e+000
         vertex 3.940000e+000 2.000000e-001 0.000000e+000
      endloop
   endfacet
   facet normal 2.168404e-016 0.000000e+000 1.000000e+000
      outer loop
         vertex 3.440000e+000 0.000000e+000 8.130000e-001
         vertex 3.940000e+000 0.000000e+000 8.130000e-001
         vertex 3.440000e+000 2.000000e-001 8.130000e-001
      endloop
   endfacet
   facet normal 2.168404e-016 0.000000e+000 1.000000e+000
      outer loop
         vertex 3.440000e+000 2.000000e-001 8.130000e-001
         vertex 3.940000e+000 0.000000e+000 8.130000e-001
         vertex 3.940000e+000 2.000000e-001 8.130000e-001
      endloop
   endfacet
   facet normal 0.000000e+000 -1.000000e+000 0.000000e+000
      outer loop
         vertex 3.940000e+000 0.000000e+000 0.000000e+000
         vertex 3.940000e+000 0.000000e+000 8.130000e-001
         vertex 3.440000e+000 0.000000e+000 0.000000e+000
      endloop
   endfacet
   facet normal 0.000000e+000 -1.000000e+000 0.000000e+000
      outer loop
         vertex 3.440000e+000 0.000000e+000 0.000000e+000
         vertex 3.940000e+000 0.000000e+000 8.130000e-001
         vertex 3.440000e+000 0.000000e+000 8.130000e-001
      endloop
   endfacet
   facet normal 0.000000e+000 1.000000e+000 0.000000e+000
      outer loop
         vertex 3.940000e+000 2.000000e-001 8.130000e-001
         vertex 3.940000e+000 2.000000e-001 0.000000e+000
         vertex 3.440000e+000 2.000000e-001 8.130000e-001
      endloop
   endfacet
   facet normal 0.000000e+000 1.000000e+000 0.000000e+000
      outer loop
         vertex 3.440000e+000 2.000000e-001 8.130000e-001
         vertex 3.940000e+000 2.000000e-001 0.000000e+000
         vertex 3.440000e+000 2.000000e-001 0.000000e+000
      endloop
   endfacet
   facet normal -1.000000e+000 0.000000e+000 0.000000e+000
      outer loop
         vertex 2.640000e+000 0.000000e+000 0.000000e+000
         vertex 2.640000e+000 0.000000e+000 8.130000e-001
         vertex 2.640000e+000 2.000000e-001 0.000000e+000
      endloop
   endfacet
   facet normal -1.000000e+000 0.000000e+000 0.000000e+000
      outer loop
         vertex 2.640000e+000 2.000000e-001 0.000000e+000
         vertex 2.640000e+000 0.000000e+000 8.130000e-001
         vertex 2.640000e+000 2.000000e-001 8.130000e-001
      endloop
   endfacet
   facet normal 0.000000e+000 0.000000e+000 -1.000000e+000
      outer loop
         vertex 3.140000e+000 0.000000e+000 0.000000e+000
         vertex 2.640000e+000 0.000000e+000 0.000000e+000
         vertex 3.140000e+000 2.000000e-001 0.000000e+000
      endloop
   endfacet
   facet normal 0.000000e+000 0.000000e+000 -1.000000e+000
      outer loop
         vertex 3.140000e+000 2.000000e-001 0.000000e+000
         vertex 2.640000e+000 0.000000e+000 0.000000e+000
         vertex 2.640000e+000 2.000000e-001 0.000000e+000
      endloop
   endfacet
   facet normal 1.000000e+000 0.000000e+000 -2.667164e-016
      outer loop
         vertex 3.140000e+000 0.000000e+000 8.130000e-001
         vertex 3.140000e+000 0.000000e+000 0.000000e+000
         vertex 3.140000e+000 2.000000e-001 8.130000e-001
      endloop
   endfacet
   facet normal 1.000000e+000 0.000000e+000 -2.667164e-016
      outer loop
         vertex 3.140000e+000 2.000000e-001 8.130000e-001
         vertex 3.140000e+000 0.000000e+000 0.000000e+000
         vertex 3.140000e+000 2.000000e-001 0.000000e+000
      endloop
   endfacet
   facet normal 2.168404e-016 0.000000e+000 1.000000e+000
      outer loop
         vertex 2.640000e+000 0.000000e+000 8.130000e-001
         vertex 3.140000e+000 0.000000e+000 8.130000e-001
         vertex 2.640000e+000 2.000000e-001 8.130000e-001
      endloop
   endfacet
   facet normal 2.168404e-016 0.000000e+000 1.000000e+000
      outer loop
         vertex 2.640000e+000 2.000000e-001 8.130000e-001
         vertex 3.140000e+000 0.000000e+000 8.130000e-001
         vertex 3.140000e+000 2.000000e-001 8.130000e-001
      endloop
   endfacet
   facet normal 0.000000e+000 -1.000000e+000 0.000000e+000
      outer loop
         vertex 3.140000e+000 0.000000e+000 0.000000e+000
         vertex 3.140000e+000 0.000000e+000 8.130000e-001
         vertex 2.640000e+000 0.000000e+000 0.000000e+000
      endloop
   endfacet
   facet normal 0.000000e+000 -1.000000e+000 0.000000e+000
      outer loop
         vertex 2.640000e+000 0.000000e+000 0.000000e+000
         vertex 3.140000e+000 0.000000e+000 8.130000e-001
         vertex 2.640000e+000 0.000000e+000 8.130000e-001
      endloop
   endfacet
   facet normal 0.000000e+000 1.000000e+000 0.000000e+000
      outer loop
         vertex 3.140000e+000 2.000000e-001 8.130000e-001
         vertex 3.140000e+000 2.000000e-001 0.000000e+000
         vertex 2.640000e+000 2.000000e-001 8.130000e-001
      endloop
   endfacet
   facet normal 0.000000e+000 1.000000e+000 0.000000e+000
      outer loop
         vertex 2.640000e+000 2.000000e-001 8.130000e-001
         vertex 3.140000e+000 2.000000e-001 0.000000e+000
         vertex 2.640000e+000 2.000000e-001 0.000000e+000
      endloop
   endfacet
endsolid