solid SCHMALZHAUS_SOT89
facet normal 0.0 0.0 -1.0
  outer loop
    vertex 0.8000000000000007 1.7499999999999991 -3.205930718818192e-31
    vertex -0.8 1.2499999999999998 -3.205930718818192e-31
    vertex -0.8 1.7499999999999991 -3.205930718818192e-31
  endloop
endfacet
facet normal 0.0 0.0 -1.0
  outer loop
    vertex -0.8 1.2499999999999998 -3.205930718818192e-31
    vertex 0.8000000000000007 1.7499999999999991 -3.205930718818192e-31
    vertex 0.8000000000000007 1.2499999999999998 -3.205930718818192e-31
  endloop
endfacet
facet normal -0.0 -0.0 1.0
  outer loop
    vertex 2.2500000000000018 -1.25 1.5
    vertex -2.25 1.2499999999999998 1.5
    vertex -2.25 -1.25 1.5
  endloop
endfacet
facet normal -0.0 -0.0 1.0
  outer loop
    vertex -2.25 1.2499999999999998 1.5
    vertex 2.2500000000000018 -1.25 1.5
    vertex 2.2500000000000018 1.2499999999999998 1.5
  endloop
endfacet
facet normal 1.0 -0.0 -0.0
  outer loop
    vertex 2.2500000000000018 1.2499999999999998 -3.205930718818192e-31
    vertex 2.2500000000000018 -1.25 1.5
    vertex 2.2500000000000018 -1.25 -3.205930718818192e-31
  endloop
endfacet
facet normal 1.0 -0.0 -0.0
  outer loop
    vertex 2.2500000000000018 -1.25 1.5
    vertex 2.2500000000000018 1.2499999999999998 -3.205930718818192e-31
    vertex 2.2500000000000018 1.2499999999999998 1.5
  endloop
endfacet
facet normal -1.0 0.0 0.0
  outer loop
    vertex -2.25 1.2499999999999998 1.5
    vertex -2.25 -1.25 -3.205930718818192e-31
    vertex -2.25 -1.25 1.5
  endloop
endfacet
facet normal -1.0 0.0 0.0
  outer loop
    vertex -2.25 -1.25 -3.205930718818192e-31
    vertex -2.25 1.2499999999999998 1.5
    vertex -2.25 1.2499999999999998 -3.205930718818192e-31
  endloop
endfacet
facet normal -0.0 1.0 -0.0
  outer loop
    vertex -2.25 1.2499999999999998 1.5
    vertex -0.8 1.2499999999999998 -3.205930718818192e-31
    vertex -2.25 1.2499999999999998 -3.205930718818192e-31
  endloop
endfacet
facet normal -0.0 1.0 -0.0
  outer loop
    vertex -0.8 1.2499999999999998 -3.205930718818192e-31
    vertex -2.25 1.2499999999999998 1.5
    vertex -0.8 1.2499999999999998 0.4
  endloop
endfacet
facet normal -0.0 1.0 -0.0
  outer loop
    vertex -0.8 1.2499999999999998 0.4
    vertex -2.25 1.2499999999999998 1.5
    vertex 0.8000000000000007 1.2499999999999998 0.4
  endloop
endfacet
facet normal -0.0 1.0 -0.0
  outer loop
    vertex 0.8000000000000007 1.2499999999999998 0.4
    vertex 2.2500000000000018 1.2499999999999998 -3.205930718818192e-31
    vertex 0.8000000000000007 1.2499999999999998 -3.205930718818192e-31
  endloop
endfacet
facet normal -0.0 1.0 -0.0
  outer loop
    vertex 2.2500000000000018 1.2499999999999998 -3.205930718818192e-31
    vertex 0.8000000000000007 1.2499999999999998 0.4
    vertex 2.2500000000000018 1.2499999999999998 1.5
  endloop
endfacet
facet normal -0.0 1.0 -0.0
  outer loop
    vertex 2.2500000000000018 1.2499999999999998 1.5
    vertex 0.8000000000000007 1.2499999999999998 0.4
    vertex -2.25 1.2499999999999998 1.5
  endloop
endfacet
facet normal -0.0 1.0 -0.0
  outer loop
    vertex -0.8 1.7499999999999991 0.4
    vertex 0.8000000000000007 1.7499999999999991 -3.205930718818192e-31
    vertex -0.8 1.7499999999999991 -3.205930718818192e-31
  endloop
endfacet
facet normal -0.0 1.0 -0.0
  outer loop
    vertex 0.8000000000000007 1.7499999999999991 -3.205930718818192e-31
    vertex -0.8 1.7499999999999991 0.4
    vertex 0.8000000000000007 1.7499999999999991 0.4
  endloop
endfacet
facet normal -0.0 -0.0 1.0
  outer loop
    vertex 0.8000000000000007 1.2499999999999998 0.4
    vertex -0.8 1.7499999999999991 0.4
    vertex -0.8 1.2499999999999998 0.4
  endloop
endfacet
facet normal -0.0 -0.0 1.0
  outer loop
    vertex -0.8 1.7499999999999991 0.4
    vertex 0.8000000000000007 1.2499999999999998 0.4
    vertex 0.8000000000000007 1.7499999999999991 0.4
  endloop
endfacet
facet normal 1.0 -0.0 -0.0
  outer loop
    vertex 0.8000000000000007 1.7499999999999991 -3.205930718818192e-31
    vertex 0.8000000000000007 1.2499999999999998 0.4
    vertex 0.8000000000000007 1.2499999999999998 -3.205930718818192e-31
  endloop
endfacet
facet normal 1.0 -0.0 -0.0
  outer loop
    vertex 0.8000000000000007 1.2499999999999998 0.4
    vertex 0.8000000000000007 1.7499999999999991 -3.205930718818192e-31
    vertex 0.8000000000000007 1.7499999999999991 0.4
  endloop
endfacet
facet normal -1.0 0.0 0.0
  outer loop
    vertex -0.8 1.7499999999999991 0.4
    vertex -0.8 1.2499999999999998 -3.205930718818192e-31
    vertex -0.8 1.2499999999999998 0.4
  endloop
endfacet
facet normal -1.0 0.0 0.0
  outer loop
    vertex -0.8 1.2499999999999998 -3.205930718818192e-31
    vertex -0.8 1.7499999999999991 0.4
    vertex -0.8 1.7499999999999991 -3.205930718818192e-31
  endloop
endfacet
facet normal 0.0 0.0 -1.0
  outer loop
    vertex -0.8 1.2499999999999998 -3.205930718818192e-31
    vertex -2.25 -1.25 -3.205930718818192e-31
    vertex -2.25 1.2499999999999998 -3.205930718818192e-31
  endloop
endfacet
facet normal 0.0 0.0 -1.0
  outer loop
    vertex -2.25 -1.25 -3.205930718818192e-31
    vertex -0.8 1.2499999999999998 -3.205930718818192e-31
    vertex -1.7 -1.25 -3.205930718818192e-31
  endloop
endfacet
facet normal 0.0 0.0 -1.0
  outer loop
    vertex -1.7 -1.25 -3.205930718818192e-31
    vertex -0.8 1.2499999999999998 -3.205930718818192e-31
    vertex -1.3 -1.25 -3.205930718818192e-31
  endloop
endfacet
facet normal 0.0 0.0 -1.0
  outer loop
    vertex -1.3 -1.25 -3.205930718818192e-31
    vertex -0.8 1.2499999999999998 -3.205930718818192e-31
    vertex -0.2 -1.25 -3.205930718818192e-31
  endloop
endfacet
facet normal 0.0 0.0 -1.0
  outer loop
    vertex -0.2 -1.25 -3.205930718818192e-31
    vertex -0.8 1.2499999999999998 -3.205930718818192e-31
    vertex 0.8000000000000007 1.2499999999999998 -3.205930718818192e-31
  endloop
endfacet
facet normal 0.0 0.0 -1.0
  outer loop
    vertex -0.2 -1.25 -3.205930718818192e-31
    vertex 0.8000000000000007 1.2499999999999998 -3.205930718818192e-31
    vertex 0.20000000000000037 -1.25 -3.205930718818192e-31
  endloop
endfacet
facet normal 0.0 0.0 -1.0
  outer loop
    vertex 0.20000000000000037 -1.25 -3.205930718818192e-31
    vertex 0.8000000000000007 1.2499999999999998 -3.205930718818192e-31
    vertex 1.3000000000000003 -1.25 -3.205930718818192e-31
  endloop
endfacet
facet normal 0.0 0.0 -1.0
  outer loop
    vertex 1.3000000000000003 -1.25 -3.205930718818192e-31
    vertex 0.8000000000000007 1.2499999999999998 -3.205930718818192e-31
    vertex 2.2500000000000018 1.2499999999999998 -3.205930718818192e-31
  endloop
endfacet
facet normal 0.0 0.0 -1.0
  outer loop
    vertex 1.3000000000000003 -1.25 -3.205930718818192e-31
    vertex 2.2500000000000018 1.2499999999999998 -3.205930718818192e-31
    vertex 1.700000000000001 -1.25 -3.205930718818192e-31
  endloop
endfacet
facet normal 0.0 0.0 -1.0
  outer loop
    vertex 1.700000000000001 -1.25 -3.205930718818192e-31
    vertex 2.2500000000000018 1.2499999999999998 -3.205930718818192e-31
    vertex 2.2500000000000018 -1.25 -3.205930718818192e-31
  endloop
endfacet
facet normal -0.0 1.0 -0.0
  outer loop
    vertex -0.8 1.2499999999999998 0.4
    vertex 0.8000000000000007 1.2499999999999998 -3.205930718818192e-31
    vertex -0.8 1.2499999999999998 -3.205930718818192e-31
  endloop
endfacet
facet normal -0.0 1.0 -0.0
  outer loop
    vertex 0.8000000000000007 1.2499999999999998 -3.205930718818192e-31
    vertex -0.8 1.2499999999999998 0.4
    vertex 0.8000000000000007 1.2499999999999998 0.4
  endloop
endfacet
facet normal 0.0 -1.0 0.0
  outer loop
    vertex 2.2500000000000018 -1.25 1.5
    vertex 1.700000000000001 -1.25 -3.205930718818192e-31
    vertex 2.2500000000000018 -1.25 -3.205930718818192e-31
  endloop
endfacet
facet normal 0.0 -1.0 0.0
  outer loop
    vertex 1.700000000000001 -1.25 -3.205930718818192e-31
    vertex 2.2500000000000018 -1.25 1.5
    vertex 1.700000000000001 -1.25 0.4
  endloop
endfacet
facet normal 0.0 -1.0 0.0
  outer loop
    vertex 1.700000000000001 -1.25 0.4
    vertex 2.2500000000000018 -1.25 1.5
    vertex 1.3000000000000003 -1.25 0.4
  endloop
endfacet
facet normal 0.0 -1.0 0.0
  outer loop
    vertex 1.3000000000000003 -1.25 0.4
    vertex 2.2500000000000018 -1.25 1.5
    vertex 0.20000000000000037 -1.25 0.4
  endloop
endfacet
facet normal 0.0 -1.0 0.0
  outer loop
    vertex 0.20000000000000037 -1.25 0.4
    vertex 2.2500000000000018 -1.25 1.5
    vertex -0.2 -1.25 0.4
  endloop
endfacet
facet normal 0.0 -1.0 0.0
  outer loop
    vertex -0.2 -1.25 0.4
    vertex 2.2500000000000018 -1.25 1.5
    vertex -1.3 -1.25 0.4
  endloop
endfacet
facet normal 0.0 -1.0 0.0
  outer loop
    vertex -1.3 -1.25 0.4
    vertex 2.2500000000000018 -1.25 1.5
    vertex -1.7 -1.25 0.4
  endloop
endfacet
facet normal 0.0 -1.0 0.0
  outer loop
    vertex -1.7 -1.25 0.4
    vertex -2.25 -1.25 -3.205930718818192e-31
    vertex -1.7 -1.25 -3.205930718818192e-31
  endloop
endfacet
facet normal 0.0 -1.0 0.0
  outer loop
    vertex -2.25 -1.25 -3.205930718818192e-31
    vertex -1.7 -1.25 0.4
    vertex -2.25 -1.25 1.5
  endloop
endfacet
facet normal 0.0 -1.0 0.0
  outer loop
    vertex -2.25 -1.25 1.5
    vertex -1.7 -1.25 0.4
    vertex 2.2500000000000018 -1.25 1.5
  endloop
endfacet
facet normal 0.0 -1.0 0.0
  outer loop
    vertex -0.2 -1.25 0.4
    vertex -1.3 -1.25 -3.205930718818192e-31
    vertex -0.2 -1.25 -3.205930718818192e-31
  endloop
endfacet
facet normal 0.0 -1.0 0.0
  outer loop
    vertex -1.3 -1.25 -3.205930718818192e-31
    vertex -0.2 -1.25 0.4
    vertex -1.3 -1.25 0.4
  endloop
endfacet
facet normal 0.0 -1.0 0.0
  outer loop
    vertex 1.3000000000000003 -1.25 0.4
    vertex 0.20000000000000037 -1.25 -3.205930718818192e-31
    vertex 1.3000000000000003 -1.25 -3.205930718818192e-31
  endloop
endfacet
facet normal 0.0 -1.0 0.0
  outer loop
    vertex 0.20000000000000037 -1.25 -3.205930718818192e-31
    vertex 1.3000000000000003 -1.25 0.4
    vertex 0.20000000000000037 -1.25 0.4
  endloop
endfacet
facet normal 0.0 -1.0 0.0
  outer loop
    vertex 0.20000000000000037 -1.25 0.4
    vertex -0.2 -1.25 -3.205930718818192e-31
    vertex 0.20000000000000037 -1.25 -3.205930718818192e-31
  endloop
endfacet
facet normal 0.0 -1.0 0.0
  outer loop
    vertex -0.2 -1.25 -3.205930718818192e-31
    vertex 0.20000000000000037 -1.25 0.4
    vertex -0.2 -1.25 0.4
  endloop
endfacet
facet normal 0.0 -1.0 0.0
  outer loop
    vertex 0.20000000000000037 -2.3500000000000014 0.4
    vertex -0.2 -2.3500000000000014 -3.205930718818192e-31
    vertex 0.20000000000000037 -2.3500000000000014 -3.205930718818192e-31
  endloop
endfacet
facet normal 0.0 -1.0 0.0
  outer loop
    vertex -0.2 -2.3500000000000014 -3.205930718818192e-31
    vertex 0.20000000000000037 -2.3500000000000014 0.4
    vertex -0.2 -2.3500000000000014 0.4
  endloop
endfacet
facet normal -0.0 -0.0 1.0
  outer loop
    vertex 0.20000000000000037 -2.3500000000000014 0.4
    vertex -0.2 -1.25 0.4
    vertex -0.2 -2.3500000000000014 0.4
  endloop
endfacet
facet normal -0.0 -0.0 1.0
  outer loop
    vertex -0.2 -1.25 0.4
    vertex 0.20000000000000037 -2.3500000000000014 0.4
    vertex 0.20000000000000037 -1.25 0.4
  endloop
endfacet
facet normal -1.0 0.0 0.0
  outer loop
    vertex -0.2 -1.25 0.4
    vertex -0.2 -2.3500000000000014 -3.205930718818192e-31
    vertex -0.2 -2.3500000000000014 0.4
  endloop
endfacet
facet normal -1.0 0.0 0.0
  outer loop
    vertex -0.2 -2.3500000000000014 -3.205930718818192e-31
    vertex -0.2 -1.25 0.4
    vertex -0.2 -1.25 -3.205930718818192e-31
  endloop
endfacet
facet normal 0.0 0.0 -1.0
  outer loop
    vertex 0.20000000000000037 -1.25 -3.205930718818192e-31
    vertex -0.2 -2.3500000000000014 -3.205930718818192e-31
    vertex -0.2 -1.25 -3.205930718818192e-31
  endloop
endfacet
facet normal 0.0 0.0 -1.0
  outer loop
    vertex -0.2 -2.3500000000000014 -3.205930718818192e-31
    vertex 0.20000000000000037 -1.25 -3.205930718818192e-31
    vertex 0.20000000000000037 -2.3500000000000014 -3.205930718818192e-31
  endloop
endfacet
facet normal 1.0 -0.0 -0.0
  outer loop
    vertex 0.20000000000000037 -1.25 -3.205930718818192e-31
    vertex 0.20000000000000037 -2.3500000000000014 0.4
    vertex 0.20000000000000037 -2.3500000000000014 -3.205930718818192e-31
  endloop
endfacet
facet normal 1.0 -0.0 -0.0
  outer loop
    vertex 0.20000000000000037 -2.3500000000000014 0.4
    vertex 0.20000000000000037 -1.25 -3.205930718818192e-31
    vertex 0.20000000000000037 -1.25 0.4
  endloop
endfacet
facet normal -1.0 0.0 0.0
  outer loop
    vertex 1.3000000000000003 -1.25 0.4
    vertex 1.3000000000000003 -2.3500000000000014 -3.205930718818192e-31
    vertex 1.3000000000000003 -2.3500000000000014 0.4
  endloop
endfacet
facet normal -1.0 0.0 0.0
  outer loop
    vertex 1.3000000000000003 -2.3500000000000014 -3.205930718818192e-31
    vertex 1.3000000000000003 -1.25 0.4
    vertex 1.3000000000000003 -1.25 -3.205930718818192e-31
  endloop
endfacet
facet normal 0.0 -1.0 0.0
  outer loop
    vertex 1.700000000000001 -2.3500000000000014 0.4
    vertex 1.3000000000000003 -2.3500000000000014 -3.205930718818192e-31
    vertex 1.700000000000001 -2.3500000000000014 -3.205930718818192e-31
  endloop
endfacet
facet normal 0.0 -1.0 0.0
  outer loop
    vertex 1.3000000000000003 -2.3500000000000014 -3.205930718818192e-31
    vertex 1.700000000000001 -2.3500000000000014 0.4
    vertex 1.3000000000000003 -2.3500000000000014 0.4
  endloop
endfacet
facet normal 1.0 -0.0 -0.0
  outer loop
    vertex 1.700000000000001 -1.25 -3.205930718818192e-31
    vertex 1.700000000000001 -2.3500000000000014 0.4
    vertex 1.700000000000001 -2.3500000000000014 -3.205930718818192e-31
  endloop
endfacet
facet normal 1.0 -0.0 -0.0
  outer loop
    vertex 1.700000000000001 -2.3500000000000014 0.4
    vertex 1.700000000000001 -1.25 -3.205930718818192e-31
    vertex 1.700000000000001 -1.25 0.4
  endloop
endfacet
facet normal -0.0 -0.0 1.0
  outer loop
    vertex 1.700000000000001 -2.3500000000000014 0.4
    vertex 1.3000000000000003 -1.25 0.4
    vertex 1.3000000000000003 -2.3500000000000014 0.4
  endloop
endfacet
facet normal -0.0 -0.0 1.0
  outer loop
    vertex 1.3000000000000003 -1.25 0.4
    vertex 1.700000000000001 -2.3500000000000014 0.4
    vertex 1.700000000000001 -1.25 0.4
  endloop
endfacet
facet normal 0.0 -1.0 0.0
  outer loop
    vertex 1.700000000000001 -1.25 0.4
    vertex 1.3000000000000003 -1.25 -3.205930718818192e-31
    vertex 1.700000000000001 -1.25 -3.205930718818192e-31
  endloop
endfacet
facet normal 0.0 -1.0 0.0
  outer loop
    vertex 1.3000000000000003 -1.25 -3.205930718818192e-31
    vertex 1.700000000000001 -1.25 0.4
    vertex 1.3000000000000003 -1.25 0.4
  endloop
endfacet
facet normal 0.0 0.0 -1.0
  outer loop
    vertex 1.700000000000001 -1.25 -3.205930718818192e-31
    vertex 1.3000000000000003 -2.3500000000000014 -3.205930718818192e-31
    vertex 1.3000000000000003 -1.25 -3.205930718818192e-31
  endloop
endfacet
facet normal 0.0 0.0 -1.0
  outer loop
    vertex 1.3000000000000003 -2.3500000000000014 -3.205930718818192e-31
    vertex 1.700000000000001 -1.25 -3.205930718818192e-31
    vertex 1.700000000000001 -2.3500000000000014 -3.205930718818192e-31
  endloop
endfacet
facet normal 0.0 0.0 -1.0
  outer loop
    vertex -1.3 -1.25 -3.205930718818192e-31
    vertex -1.7 -2.3500000000000014 -3.205930718818192e-31
    vertex -1.7 -1.25 -3.205930718818192e-31
  endloop
endfacet
facet normal 0.0 0.0 -1.0
  outer loop
    vertex -1.7 -2.3500000000000014 -3.205930718818192e-31
    vertex -1.3 -1.25 -3.205930718818192e-31
    vertex -1.3 -2.3500000000000014 -3.205930718818192e-31
  endloop
endfacet
facet normal -0.0 -0.0 1.0
  outer loop
    vertex -1.3 -2.3500000000000014 0.4
    vertex -1.7 -1.25 0.4
    vertex -1.7 -2.3500000000000014 0.4
  endloop
endfacet
facet normal -0.0 -0.0 1.0
  outer loop
    vertex -1.7 -1.25 0.4
    vertex -1.3 -2.3500000000000014 0.4
    vertex -1.3 -1.25 0.4
  endloop
endfacet
facet normal 0.0 -1.0 0.0
  outer loop
    vertex -1.3 -1.25 0.4
    vertex -1.7 -1.25 -3.205930718818192e-31
    vertex -1.3 -1.25 -3.205930718818192e-31
  endloop
endfacet
facet normal 0.0 -1.0 0.0
  outer loop
    vertex -1.7 -1.25 -3.205930718818192e-31
    vertex -1.3 -1.25 0.4
    vertex -1.7 -1.25 0.4
  endloop
endfacet
facet normal -1.0 0.0 0.0
  outer loop
    vertex -1.7 -1.25 0.4
    vertex -1.7 -2.3500000000000014 -3.205930718818192e-31
    vertex -1.7 -2.3500000000000014 0.4
  endloop
endfacet
facet normal -1.0 0.0 0.0
  outer loop
    vertex -1.7 -2.3500000000000014 -3.205930718818192e-31
    vertex -1.7 -1.25 0.4
    vertex -1.7 -1.25 -3.205930718818192e-31
  endloop
endfacet
facet normal 0.0 -1.0 0.0
  outer loop
    vertex -1.3 -2.3500000000000014 0.4
    vertex -1.7 -2.3500000000000014 -3.205930718818192e-31
    vertex -1.3 -2.3500000000000014 -3.205930718818192e-31
  endloop
endfacet
facet normal 0.0 -1.0 0.0
  outer loop
    vertex -1.7 -2.3500000000000014 -3.205930718818192e-31
    vertex -1.3 -2.3500000000000014 0.4
    vertex -1.7 -2.3500000000000014 0.4
  endloop
endfacet
facet normal 1.0 -0.0 -0.0
  outer loop
    vertex -1.3 -1.25 -3.205930718818192e-31
    vertex -1.3 -2.3500000000000014 0.4
    vertex -1.3 -2.3500000000000014 -3.205930718818192e-31
  endloop
endfacet
facet normal 1.0 -0.0 -0.0
  outer loop
    vertex -1.3 -2.3500000000000014 0.4
    vertex -1.3 -1.25 -3.205930718818192e-31
    vertex -1.3 -1.25 0.4
  endloop
endfacet
endsolid SCHMALZHAUS_SOT89
