solid LED-0603
facet normal 0.0 0.0 -1.0
  outer loop
    vertex 0.5999999999999999 0.3999999999999995 0.0
    vertex 0.7999999999999995 -0.39999999999999963 0.0
    vertex 0.5999999999999998 -0.3999999999999994 0.0
  endloop
endfacet
facet normal 0.0 0.0 -1.0
  outer loop
    vertex 0.7999999999999995 -0.39999999999999963 0.0
    vertex 0.5999999999999999 0.3999999999999995 0.0
    vertex 0.7999999999999975 0.3999999999999995 0.0
  endloop
endfacet
facet normal 0.0 0.0 -1.0
  outer loop
    vertex -0.6000000000000003 0.39999999999999925 0.0
    vertex -0.7999999999999973 -0.3999999999999995 0.0
    vertex -0.7999999999999995 0.39999999999999947 0.0
  endloop
endfacet
facet normal 0.0 0.0 -1.0
  outer loop
    vertex -0.7999999999999973 -0.3999999999999995 0.0
    vertex -0.6000000000000003 0.39999999999999925 0.0
    vertex -0.5999999999999999 -0.3999999999999994 0.0
  endloop
endfacet
facet normal 0.0 0.0 1.0
  outer loop
    vertex 0.7999999999999995 -0.39999999999999963 0.15
    vertex 0.5999999999999999 0.3999999999999995 0.15
    vertex 0.5999999999999998 -0.3999999999999994 0.15
  endloop
endfacet
facet normal 0.0 0.0 1.0
  outer loop
    vertex 0.5999999999999999 0.3999999999999995 0.15
    vertex 0.7999999999999995 -0.39999999999999963 0.15
    vertex 0.7999999999999975 0.3999999999999995 0.15
  endloop
endfacet
facet normal 4.857225732735059e-16 1.0 0.0
  outer loop
    vertex 0.5999999999999999 0.3999999999999995 0.15
    vertex 0.7999999999999975 0.3999999999999995 0.0
    vertex 0.5999999999999999 0.3999999999999995 0.0
  endloop
endfacet
facet normal 4.857225732735059e-16 1.0 0.0
  outer loop
    vertex 0.7999999999999975 0.3999999999999995 0.0
    vertex 0.5999999999999999 0.3999999999999995 0.15
    vertex 0.7999999999999975 0.3999999999999995 0.15
  endloop
endfacet
facet normal 1.0 -4.857225732735059e-16 0.0
  outer loop
    vertex 0.7999999999999975 0.3999999999999995 0.0
    vertex 0.7999999999999995 -0.39999999999999963 0.15
    vertex 0.7999999999999995 -0.39999999999999963 0.0
  endloop
endfacet
facet normal 1.0 -4.857225732735059e-16 0.0
  outer loop
    vertex 0.7999999999999995 -0.39999999999999963 0.15
    vertex 0.7999999999999975 0.3999999999999995 0.0
    vertex 0.7999999999999975 0.3999999999999995 0.15
  endloop
endfacet
facet normal -4.857225732735059e-16 -1.0 0.0
  outer loop
    vertex 0.7999999999999995 -0.39999999999999963 0.15
    vertex 0.5999999999999998 -0.3999999999999994 0.0
    vertex 0.7999999999999995 -0.39999999999999963 0.0
  endloop
endfacet
facet normal -4.857225732735059e-16 -1.0 0.0
  outer loop
    vertex 0.5999999999999998 -0.3999999999999994 0.0
    vertex 0.7999999999999995 -0.39999999999999963 0.15
    vertex 0.5999999999999998 -0.3999999999999994 0.15
  endloop
endfacet
facet normal 4.857225732735059e-16 1.0 0.0
  outer loop
    vertex -0.6000000000000003 0.39999999999999925 0.15
    vertex 0.5999999999999999 0.3999999999999995 0.0
    vertex -0.6000000000000003 0.39999999999999925 0.0
  endloop
endfacet
facet normal 4.857225732735059e-16 1.0 0.0
  outer loop
    vertex 0.5999999999999999 0.3999999999999995 0.0
    vertex -0.6000000000000003 0.39999999999999925 0.15
    vertex 0.5999999999999999 0.3999999999999995 0.15
  endloop
endfacet
facet normal -1.0 1.3877787807814457e-15 0.0
  outer loop
    vertex 0.5999999999999999 0.3999999999999995 0.15
    vertex 0.5999999999999998 -0.3999999999999994 0.0
    vertex 0.5999999999999998 -0.3999999999999994 0.15
  endloop
endfacet
facet normal -1.0 1.3877787807814457e-15 0.0
  outer loop
    vertex 0.5999999999999998 -0.3999999999999994 0.0
    vertex 0.5999999999999999 0.3999999999999995 0.15
    vertex 0.5999999999999999 0.3999999999999995 0.0
  endloop
endfacet
facet normal -4.857225732735059e-16 -1.0 0.0
  outer loop
    vertex 0.5999999999999998 -0.3999999999999994 0.15
    vertex -0.5999999999999999 -0.3999999999999994 0.0
    vertex 0.5999999999999998 -0.3999999999999994 0.0
  endloop
endfacet
facet normal -4.857225732735059e-16 -1.0 0.0
  outer loop
    vertex -0.5999999999999999 -0.3999999999999994 0.0
    vertex 0.5999999999999998 -0.3999999999999994 0.15
    vertex -0.5999999999999999 -0.3999999999999994 0.15
  endloop
endfacet
facet normal 0.0 0.0 1.0
  outer loop
    vertex -0.7999999999999973 -0.3999999999999995 0.15
    vertex -0.6000000000000003 0.39999999999999925 0.15
    vertex -0.7999999999999995 0.39999999999999947 0.15
  endloop
endfacet
facet normal 0.0 0.0 1.0
  outer loop
    vertex -0.6000000000000003 0.39999999999999925 0.15
    vertex -0.7999999999999973 -0.3999999999999995 0.15
    vertex -0.5999999999999999 -0.3999999999999994 0.15
  endloop
endfacet
facet normal -4.857225732735059e-16 -1.0 0.0
  outer loop
    vertex -0.5999999999999999 -0.3999999999999994 0.15
    vertex -0.7999999999999973 -0.3999999999999995 0.0
    vertex -0.5999999999999999 -0.3999999999999994 0.0
  endloop
endfacet
facet normal -4.857225732735059e-16 -1.0 0.0
  outer loop
    vertex -0.7999999999999973 -0.3999999999999995 0.0
    vertex -0.5999999999999999 -0.3999999999999994 0.15
    vertex -0.7999999999999973 -0.3999999999999995 0.15
  endloop
endfacet
facet normal -1.0 4.857225732735059e-16 0.0
  outer loop
    vertex -0.7999999999999995 0.39999999999999947 0.15
    vertex -0.7999999999999973 -0.3999999999999995 0.0
    vertex -0.7999999999999973 -0.3999999999999995 0.15
  endloop
endfacet
facet normal -1.0 4.857225732735059e-16 0.0
  outer loop
    vertex -0.7999999999999973 -0.3999999999999995 0.0
    vertex -0.7999999999999995 0.39999999999999947 0.15
    vertex -0.7999999999999995 0.39999999999999947 0.0
  endloop
endfacet
facet normal 4.857225732735059e-16 1.0 0.0
  outer loop
    vertex -0.7999999999999995 0.39999999999999947 0.15
    vertex -0.6000000000000003 0.39999999999999925 0.0
    vertex -0.7999999999999995 0.39999999999999947 0.0
  endloop
endfacet
facet normal 4.857225732735059e-16 1.0 0.0
  outer loop
    vertex -0.6000000000000003 0.39999999999999925 0.0
    vertex -0.7999999999999995 0.39999999999999947 0.15
    vertex -0.6000000000000003 0.39999999999999925 0.15
  endloop
endfacet
facet normal 0.0 0.0 1.0
  outer loop
    vertex -0.5999999999999999 -0.3999999999999994 0.15
    vertex -0.4999999999999981 -0.34999999999999865 0.15
    vertex -0.49999999999999917 0.3499999999999995 0.15
  endloop
endfacet
facet normal 0.0 0.0 1.0
  outer loop
    vertex -0.4999999999999981 -0.34999999999999865 0.15
    vertex -0.5999999999999999 -0.3999999999999994 0.15
    vertex 0.5999999999999998 -0.3999999999999994 0.15
  endloop
endfacet
facet normal 0.0 0.0 1.0
  outer loop
    vertex -0.4999999999999981 -0.34999999999999865 0.15
    vertex 0.5999999999999998 -0.3999999999999994 0.15
    vertex 0.4999999999999991 -0.3499999999999993 0.15
  endloop
endfacet
facet normal 0.0 0.0 1.0
  outer loop
    vertex -0.6000000000000003 0.39999999999999925 0.15
    vertex -0.49999999999999917 0.3499999999999995 0.15
    vertex 0.5999999999999999 0.3999999999999995 0.15
  endloop
endfacet
facet normal 0.0 0.0 1.0
  outer loop
    vertex -0.49999999999999917 0.3499999999999995 0.15
    vertex -0.6000000000000003 0.39999999999999925 0.15
    vertex -0.5999999999999999 -0.3999999999999994 0.15
  endloop
endfacet
facet normal 0.0 0.0 1.0
  outer loop
    vertex 0.5999999999999999 0.3999999999999995 0.15
    vertex -0.49999999999999917 0.3499999999999995 0.15
    vertex 0.4999999999999977 0.34999999999999876 0.15
  endloop
endfacet
facet normal 0.0 0.0 1.0
  outer loop
    vertex 0.5999999999999999 0.3999999999999995 0.15
    vertex 0.4999999999999977 0.34999999999999876 0.15
    vertex 0.4999999999999991 -0.3499999999999993 0.15
  endloop
endfacet
facet normal 0.0 0.0 1.0
  outer loop
    vertex 0.5999999999999999 0.3999999999999995 0.15
    vertex 0.4999999999999991 -0.3499999999999993 0.15
    vertex 0.5999999999999998 -0.3999999999999994 0.15
  endloop
endfacet
facet normal 0.0 0.0 1.0
  outer loop
    vertex -0.4999999999999981 -0.34999999999999865 0.45
    vertex 0.4999999999999977 0.34999999999999876 0.45
    vertex -0.49999999999999917 0.3499999999999995 0.45
  endloop
endfacet
facet normal 0.0 0.0 1.0
  outer loop
    vertex 0.4999999999999977 0.34999999999999876 0.45
    vertex -0.4999999999999981 -0.34999999999999865 0.45
    vertex 0.4999999999999991 -0.3499999999999993 0.45
  endloop
endfacet
facet normal 1.0 -4.857225732735059e-16 0.0
  outer loop
    vertex 0.4999999999999977 0.34999999999999876 0.15
    vertex 0.4999999999999991 -0.3499999999999993 0.45
    vertex 0.4999999999999991 -0.3499999999999993 0.15
  endloop
endfacet
facet normal 1.0 -4.857225732735059e-16 0.0
  outer loop
    vertex 0.4999999999999991 -0.3499999999999993 0.45
    vertex 0.4999999999999977 0.34999999999999876 0.15
    vertex 0.4999999999999977 0.34999999999999876 0.45
  endloop
endfacet
facet normal -5.689893001203926e-16 -1.0 0.0
  outer loop
    vertex 0.4999999999999991 -0.3499999999999993 0.45
    vertex -0.4999999999999981 -0.34999999999999865 0.15
    vertex 0.4999999999999991 -0.3499999999999993 0.15
  endloop
endfacet
facet normal -5.689893001203926e-16 -1.0 0.0
  outer loop
    vertex -0.4999999999999981 -0.34999999999999865 0.15
    vertex 0.4999999999999991 -0.3499999999999993 0.45
    vertex -0.4999999999999981 -0.34999999999999865 0.45
  endloop
endfacet
facet normal -1.0 4.857225732735059e-16 0.0
  outer loop
    vertex -0.49999999999999917 0.3499999999999995 0.45
    vertex -0.4999999999999981 -0.34999999999999865 0.15
    vertex -0.4999999999999981 -0.34999999999999865 0.45
  endloop
endfacet
facet normal -1.0 4.857225732735059e-16 0.0
  outer loop
    vertex -0.4999999999999981 -0.34999999999999865 0.15
    vertex -0.49999999999999917 0.3499999999999995 0.45
    vertex -0.49999999999999917 0.3499999999999995 0.15
  endloop
endfacet
facet normal 4.857225732735059e-16 1.0 0.0
  outer loop
    vertex -0.49999999999999917 0.3499999999999995 0.45
    vertex 0.4999999999999977 0.34999999999999876 0.15
    vertex -0.49999999999999917 0.3499999999999995 0.15
  endloop
endfacet
facet normal 4.857225732735059e-16 1.0 0.0
  outer loop
    vertex 0.4999999999999977 0.34999999999999876 0.15
    vertex -0.49999999999999917 0.3499999999999995 0.45
    vertex 0.4999999999999977 0.34999999999999876 0.45
  endloop
endfacet
facet normal 0.0 0.0 -1.0
  outer loop
    vertex 0.5999999999999999 0.3999999999999995 0.0
    vertex -0.5999999999999999 -0.3999999999999994 0.0
    vertex -0.6000000000000003 0.39999999999999925 0.0
  endloop
endfacet
facet normal 0.0 0.0 -1.0
  outer loop
    vertex -0.5999999999999999 -0.3999999999999994 0.0
    vertex 0.5999999999999999 0.3999999999999995 0.0
    vertex 0.5999999999999998 -0.3999999999999994 0.0
  endloop
endfacet
endsolid LED-0603
