solid LGA14_1_1_PATRICK
facet normal 1.0 -0.0 -0.0
  outer loop
    vertex 2.5099999999999985 -1.4999999999999964 0.1999999999999991
    vertex 2.5099999999999985 1.4999999999999978 0.9399999999999995
    vertex 2.5099999999999985 -1.4999999999999993 0.9399999999999995
  endloop
endfacet
facet normal 1.0 -0.0 -0.0
  outer loop
    vertex 2.5099999999999985 1.4999999999999978 0.9399999999999995
    vertex 2.5099999999999985 -1.4999999999999964 0.1999999999999991
    vertex 2.5099999999999985 -0.24999999999999908 0.19999999999999946
  endloop
endfacet
facet normal 1.0 -0.0 -0.0
  outer loop
    vertex 2.5099999999999985 1.4999999999999978 0.9399999999999995
    vertex 2.5099999999999985 -0.24999999999999908 0.19999999999999946
    vertex 2.5099999999999985 0.24999999999999944 0.20000000000000018
  endloop
endfacet
facet normal 1.0 -0.0 -0.0
  outer loop
    vertex 2.5099999999999985 1.4999999999999978 0.9399999999999995
    vertex 2.5099999999999985 0.24999999999999944 0.20000000000000018
    vertex 2.5099999999999985 1.4999999999999978 0.20000000000000037
  endloop
endfacet
facet normal -0.0 1.0 -0.0
  outer loop
    vertex -2.4899999999999998 1.4999999999999978 0.9399999999999995
    vertex -2.25 1.4999999999999978 0.20000000000000037
    vertex -2.4899999999999998 1.4999999999999978 0.20000000000000037
  endloop
endfacet
facet normal -0.0 1.0 -0.0
  outer loop
    vertex -2.25 1.4999999999999978 0.20000000000000037
    vertex -2.4899999999999998 1.4999999999999978 0.9399999999999995
    vertex -1.7500000999999998 1.4999999999999978 0.20000000000000037
  endloop
endfacet
facet normal -0.0 1.0 -0.0
  outer loop
    vertex -1.7500000999999998 1.4999999999999978 0.20000000000000037
    vertex -2.4899999999999998 1.4999999999999978 0.9399999999999995
    vertex -1.4499999999999995 1.4999999999999978 0.20000000000000037
  endloop
endfacet
facet normal -0.0 1.0 -0.0
  outer loop
    vertex -1.4499999999999995 1.4999999999999978 0.20000000000000037
    vertex -2.4899999999999998 1.4999999999999978 0.9399999999999995
    vertex -0.9499999999999996 1.4999999999999978 0.20000000000000037
  endloop
endfacet
facet normal -0.0 1.0 -0.0
  outer loop
    vertex -0.9499999999999996 1.4999999999999978 0.20000000000000037
    vertex -2.4899999999999998 1.4999999999999978 0.9399999999999995
    vertex -0.6499999999999998 1.4999999999999978 0.20000000000000037
  endloop
endfacet
facet normal -0.0 1.0 -0.0
  outer loop
    vertex -0.6499999999999998 1.4999999999999978 0.20000000000000037
    vertex -2.4899999999999998 1.4999999999999978 0.9399999999999995
    vertex -0.14999999999999983 1.4999999999999978 0.20000000000000037
  endloop
endfacet
facet normal -0.0 1.0 -0.0
  outer loop
    vertex -0.14999999999999983 1.4999999999999978 0.20000000000000037
    vertex -2.4899999999999998 1.4999999999999978 0.9399999999999995
    vertex 0.15000000000000055 1.4999999999999978 0.20000000000000037
  endloop
endfacet
facet normal -0.0 1.0 -0.0
  outer loop
    vertex 0.15000000000000055 1.4999999999999978 0.20000000000000037
    vertex -2.4899999999999998 1.4999999999999978 0.9399999999999995
    vertex 0.6500000000000001 1.4999999999999978 0.20000000000000037
  endloop
endfacet
facet normal -0.0 1.0 -0.0
  outer loop
    vertex 0.6500000000000001 1.4999999999999978 0.20000000000000037
    vertex -2.4899999999999998 1.4999999999999978 0.9399999999999995
    vertex 0.9499999999999998 1.4999999999999978 0.20000000000000037
  endloop
endfacet
facet normal -0.0 1.0 -0.0
  outer loop
    vertex 0.9499999999999998 1.4999999999999978 0.20000000000000037
    vertex -2.4899999999999998 1.4999999999999978 0.9399999999999995
    vertex 1.4500000000000002 1.4999999999999978 0.20000000000000037
  endloop
endfacet
facet normal -0.0 1.0 -0.0
  outer loop
    vertex 1.4500000000000002 1.4999999999999978 0.20000000000000037
    vertex -2.4899999999999998 1.4999999999999978 0.9399999999999995
    vertex 1.7499999999999984 1.4999999999999978 0.20000000000000037
  endloop
endfacet
facet normal -0.0 1.0 -0.0
  outer loop
    vertex 1.7499999999999984 1.4999999999999978 0.20000000000000037
    vertex -2.4899999999999998 1.4999999999999978 0.9399999999999995
    vertex 2.249999999999998 1.4999999999999978 0.20000000000000037
  endloop
endfacet
facet normal -0.0 1.0 -0.0
  outer loop
    vertex 2.249999999999998 1.4999999999999978 0.20000000000000037
    vertex -2.4899999999999998 1.4999999999999978 0.9399999999999995
    vertex 2.5099999999999985 1.4999999999999978 0.20000000000000037
  endloop
endfacet
facet normal -0.0 1.0 -0.0
  outer loop
    vertex 2.5099999999999985 1.4999999999999978 0.20000000000000037
    vertex -2.4899999999999998 1.4999999999999978 0.9399999999999995
    vertex 2.5099999999999985 1.4999999999999978 0.9399999999999995
  endloop
endfacet
facet normal -1.0 0.0 0.0
  outer loop
    vertex -2.4899999999999998 1.4999999999999978 0.9399999999999995
    vertex -2.4899999999999998 -1.4999999999999964 0.1999999999999991
    vertex -2.4899999999999998 -1.4999999999999993 0.9399999999999995
  endloop
endfacet
facet normal -1.0 0.0 0.0
  outer loop
    vertex -2.4899999999999998 -1.4999999999999964 0.1999999999999991
    vertex -2.4899999999999998 1.4999999999999978 0.9399999999999995
    vertex -2.4899999999999998 -0.24999999999999908 0.19999999999999946
  endloop
endfacet
facet normal -1.0 0.0 0.0
  outer loop
    vertex -2.4899999999999998 -0.24999999999999908 0.19999999999999946
    vertex -2.4899999999999998 1.4999999999999978 0.9399999999999995
    vertex -2.4899999999999998 0.24999999999999944 0.20000000000000018
  endloop
endfacet
facet normal -1.0 0.0 0.0
  outer loop
    vertex -2.4899999999999998 0.24999999999999944 0.20000000000000018
    vertex -2.4899999999999998 1.4999999999999978 0.9399999999999995
    vertex -2.4899999999999998 1.4999999999999978 0.20000000000000037
  endloop
endfacet
facet normal 3.089596641405268e-32 -1.0 -3.902223889363574e-15
  outer loop
    vertex 2.5099999999999985 -1.4999999999999993 0.9399999999999995
    vertex 2.249999999999998 -1.4999999999999964 0.1999999999999991
    vertex 2.5099999999999985 -1.4999999999999964 0.1999999999999991
  endloop
endfacet
facet normal 3.089596641405268e-32 -1.0 -3.902223889363574e-15
  outer loop
    vertex 2.249999999999998 -1.4999999999999964 0.1999999999999991
    vertex 2.5099999999999985 -1.4999999999999993 0.9399999999999995
    vertex 1.7499999999999984 -1.4999999999999964 0.1999999999999991
  endloop
endfacet
facet normal 3.089596641405268e-32 -1.0 -3.902223889363574e-15
  outer loop
    vertex 1.7499999999999984 -1.4999999999999964 0.1999999999999991
    vertex 2.5099999999999985 -1.4999999999999993 0.9399999999999995
    vertex 1.4500000000000002 -1.4999999999999964 0.1999999999999991
  endloop
endfacet
facet normal 3.089596641405268e-32 -1.0 -3.902223889363574e-15
  outer loop
    vertex 1.4500000000000002 -1.4999999999999964 0.1999999999999991
    vertex 2.5099999999999985 -1.4999999999999993 0.9399999999999995
    vertex 0.9499999999999998 -1.4999999999999964 0.1999999999999991
  endloop
endfacet
facet normal 3.089596641405268e-32 -1.0 -3.902223889363574e-15
  outer loop
    vertex 0.9499999999999998 -1.4999999999999964 0.1999999999999991
    vertex 2.5099999999999985 -1.4999999999999993 0.9399999999999995
    vertex 0.6500000000000001 -1.4999999999999964 0.1999999999999991
  endloop
endfacet
facet normal 3.089596641405268e-32 -1.0 -3.902223889363574e-15
  outer loop
    vertex 0.6500000000000001 -1.4999999999999964 0.1999999999999991
    vertex 2.5099999999999985 -1.4999999999999993 0.9399999999999995
    vertex 0.15000000000000055 -1.4999999999999964 0.1999999999999991
  endloop
endfacet
facet normal 3.089596641405268e-32 -1.0 -3.902223889363574e-15
  outer loop
    vertex 0.15000000000000055 -1.4999999999999964 0.1999999999999991
    vertex 2.5099999999999985 -1.4999999999999993 0.9399999999999995
    vertex -0.14999999999999983 -1.4999999999999964 0.1999999999999991
  endloop
endfacet
facet normal 3.089596641405268e-32 -1.0 -3.902223889363574e-15
  outer loop
    vertex -0.14999999999999983 -1.4999999999999964 0.1999999999999991
    vertex 2.5099999999999985 -1.4999999999999993 0.9399999999999995
    vertex -0.6499999999999998 -1.4999999999999964 0.1999999999999991
  endloop
endfacet
facet normal 3.089596641405268e-32 -1.0 -3.902223889363574e-15
  outer loop
    vertex -0.6499999999999998 -1.4999999999999964 0.1999999999999991
    vertex 2.5099999999999985 -1.4999999999999993 0.9399999999999995
    vertex -0.9499999999999996 -1.4999999999999964 0.1999999999999991
  endloop
endfacet
facet normal 3.089596641405268e-32 -1.0 -3.902223889363574e-15
  outer loop
    vertex -0.9499999999999996 -1.4999999999999964 0.1999999999999991
    vertex 2.5099999999999985 -1.4999999999999993 0.9399999999999995
    vertex -1.4499999999999995 -1.4999999999999964 0.1999999999999991
  endloop
endfacet
facet normal 3.089596641405268e-32 -1.0 -3.902223889363574e-15
  outer loop
    vertex -1.4499999999999995 -1.4999999999999964 0.1999999999999991
    vertex 2.5099999999999985 -1.4999999999999993 0.9399999999999995
    vertex -1.7500000999999998 -1.4999999999999964 0.1999999999999991
  endloop
endfacet
facet normal 3.089596641405268e-32 -1.0 -3.902223889363574e-15
  outer loop
    vertex -1.7500000999999998 -1.4999999999999964 0.1999999999999991
    vertex 2.5099999999999985 -1.4999999999999993 0.9399999999999995
    vertex -2.25 -1.4999999999999964 0.1999999999999991
  endloop
endfacet
facet normal 3.089596641405268e-32 -1.0 -3.902223889363574e-15
  outer loop
    vertex -2.25 -1.4999999999999964 0.1999999999999991
    vertex 2.5099999999999985 -1.4999999999999993 0.9399999999999995
    vertex -2.4899999999999998 -1.4999999999999964 0.1999999999999991
  endloop
endfacet
facet normal 3.089596641405268e-32 -1.0 -3.902223889363574e-15
  outer loop
    vertex -2.4899999999999998 -1.4999999999999964 0.1999999999999991
    vertex 2.5099999999999985 -1.4999999999999993 0.9399999999999995
    vertex -2.4899999999999998 -1.4999999999999993 0.9399999999999995
  endloop
endfacet
facet normal -0.0 -0.0 1.0
  outer loop
    vertex 2.5099999999999985 -1.4999999999999993 0.9399999999999995
    vertex -2.4899999999999998 1.4999999999999978 0.9399999999999995
    vertex -2.4899999999999998 -1.4999999999999993 0.9399999999999995
  endloop
endfacet
facet normal -0.0 -0.0 1.0
  outer loop
    vertex -2.4899999999999998 1.4999999999999978 0.9399999999999995
    vertex 2.5099999999999985 -1.4999999999999993 0.9399999999999995
    vertex 2.5099999999999985 1.4999999999999978 0.9399999999999995
  endloop
endfacet
facet normal -1.0 0.0 0.0
  outer loop
    vertex -0.6499999999999998 1.4999999999999978 0.20000000000000037
    vertex -0.6499999999999998 0.6869999999999995 5.414335646491963e-16
    vertex -0.6499999999999998 0.6869999999999995 0.20000000000000054
  endloop
endfacet
facet normal -1.0 0.0 0.0
  outer loop
    vertex -0.6499999999999998 0.6869999999999995 5.414335646491963e-16
    vertex -0.6499999999999998 1.4999999999999978 0.20000000000000037
    vertex -0.6499999999999998 1.4999999999999984 7.219114195322618e-16
  endloop
endfacet
facet normal -0.0 1.0 3.609557097661315e-15
  outer loop
    vertex -0.6499999999999998 1.4999999999999978 0.20000000000000037
    vertex -0.14999999999999983 1.4999999999999984 7.219114195322618e-16
    vertex -0.6499999999999998 1.4999999999999984 7.219114195322618e-16
  endloop
endfacet
facet normal -0.0 1.0 3.609557097661315e-15
  outer loop
    vertex -0.14999999999999983 1.4999999999999984 7.219114195322618e-16
    vertex -0.6499999999999998 1.4999999999999978 0.20000000000000037
    vertex -0.14999999999999983 1.4999999999999978 0.20000000000000037
  endloop
endfacet
facet normal 1.0 -0.0 -0.0
  outer loop
    vertex -0.14999999999999983 1.4999999999999984 7.219114195322618e-16
    vertex -0.14999999999999983 0.6869999999999995 0.20000000000000054
    vertex -0.14999999999999983 0.6869999999999995 5.414335646491963e-16
  endloop
endfacet
facet normal 1.0 -0.0 -0.0
  outer loop
    vertex -0.14999999999999983 0.6869999999999995 0.20000000000000054
    vertex -0.14999999999999983 1.4999999999999984 7.219114195322618e-16
    vertex -0.14999999999999983 1.4999999999999978 0.20000000000000037
  endloop
endfacet
facet normal 0.0 2.2198998140598486e-16 -1.0
  outer loop
    vertex -0.14999999999999983 1.4999999999999984 7.219114195322618e-16
    vertex -0.6499999999999998 0.6869999999999995 5.414335646491963e-16
    vertex -0.6499999999999998 1.4999999999999984 7.219114195322618e-16
  endloop
endfacet
facet normal 0.0 2.2198998140598486e-16 -1.0
  outer loop
    vertex -0.6499999999999998 0.6869999999999995 5.414335646491963e-16
    vertex -0.14999999999999983 1.4999999999999984 7.219114195322618e-16
    vertex -0.14999999999999983 0.6869999999999995 5.414335646491963e-16
  endloop
endfacet
facet normal 0.0 -2.2198998140598503e-16 -1.0
  outer loop
    vertex -0.14999999999999983 1.4999999999999978 0.20000000000000037
    vertex -0.6499999999999998 0.6869999999999995 0.20000000000000054
    vertex -0.6499999999999998 1.4999999999999978 0.20000000000000037
  endloop
endfacet
facet normal 0.0 -2.2198998140598503e-16 -1.0
  outer loop
    vertex -0.6499999999999998 0.6869999999999995 0.20000000000000054
    vertex -0.14999999999999983 1.4999999999999978 0.20000000000000037
    vertex -0.14999999999999983 0.6869999999999995 0.20000000000000054
  endloop
endfacet
facet normal -1.0 0.0 0.0
  outer loop
    vertex -2.4899999999999998 0.24999999999999944 0.20000000000000018
    vertex -2.4899999999999998 -0.24999999999999892 0.0
    vertex -2.4899999999999998 -0.24999999999999908 0.19999999999999946
  endloop
endfacet
facet normal -1.0 0.0 0.0
  outer loop
    vertex -2.4899999999999998 -0.24999999999999892 0.0
    vertex -2.4899999999999998 0.24999999999999944 0.20000000000000018
    vertex -2.4899999999999998 0.2499999999999998 1.8047785488306544e-16
  endloop
endfacet
facet normal -0.0 1.0 1.8047785488306545e-15
  outer loop
    vertex -2.4899999999999998 0.24999999999999944 0.20000000000000018
    vertex -1.6770000999999999 0.2499999999999998 1.8047785488306544e-16
    vertex -2.4899999999999998 0.2499999999999998 1.8047785488306544e-16
  endloop
endfacet
facet normal -0.0 1.0 1.8047785488306545e-15
  outer loop
    vertex -1.6770000999999999 0.2499999999999998 1.8047785488306544e-16
    vertex -2.4899999999999998 0.24999999999999944 0.20000000000000018
    vertex -1.6770000999999999 0.24999999999999944 0.20000000000000018
  endloop
endfacet
facet normal 1.0 -0.0 -0.0
  outer loop
    vertex -1.6770000999999999 -0.24999999999999892 0.0
    vertex -1.6770000999999999 0.24999999999999944 0.20000000000000018
    vertex -1.6770000999999999 -0.24999999999999908 0.19999999999999946
  endloop
endfacet
facet normal 1.0 -0.0 -0.0
  outer loop
    vertex -1.6770000999999999 0.24999999999999944 0.20000000000000018
    vertex -1.6770000999999999 -0.24999999999999892 0.0
    vertex -1.6770000999999999 0.2499999999999998 1.8047785488306544e-16
  endloop
endfacet
facet normal 0.0 -1.0 -9.023892744153296e-16
  outer loop
    vertex -1.6770000999999999 -0.24999999999999908 0.19999999999999946
    vertex -2.4899999999999998 -0.24999999999999892 0.0
    vertex -1.6770000999999999 -0.24999999999999892 0.0
  endloop
endfacet
facet normal 0.0 -1.0 -9.023892744153296e-16
  outer loop
    vertex -2.4899999999999998 -0.24999999999999892 0.0
    vertex -1.6770000999999999 -0.24999999999999908 0.19999999999999946
    vertex -2.4899999999999998 -0.24999999999999908 0.19999999999999946
  endloop
endfacet
facet normal 0.0 3.6095570976613177e-16 -1.0
  outer loop
    vertex -1.6770000999999999 0.2499999999999998 1.8047785488306544e-16
    vertex -2.4899999999999998 -0.24999999999999892 0.0
    vertex -2.4899999999999998 0.2499999999999998 1.8047785488306544e-16
  endloop
endfacet
facet normal 0.0 3.6095570976613177e-16 -1.0
  outer loop
    vertex -2.4899999999999998 -0.24999999999999892 0.0
    vertex -1.6770000999999999 0.2499999999999998 1.8047785488306544e-16
    vertex -1.6770000999999999 -0.24999999999999892 0.0
  endloop
endfacet
facet normal 0.0 1.4438228390645277e-15 -1.0
  outer loop
    vertex -1.6770000999999999 0.24999999999999944 0.20000000000000018
    vertex -2.4899999999999998 -0.24999999999999908 0.19999999999999946
    vertex -2.4899999999999998 0.24999999999999944 0.20000000000000018
  endloop
endfacet
facet normal 0.0 1.4438228390645277e-15 -1.0
  outer loop
    vertex -2.4899999999999998 -0.24999999999999908 0.19999999999999946
    vertex -1.6770000999999999 0.24999999999999944 0.20000000000000018
    vertex -1.6770000999999999 -0.24999999999999908 0.19999999999999946
  endloop
endfacet
facet normal 0.0 -1.0 -9.023892744153296e-16
  outer loop
    vertex 2.5099999999999985 -0.24999999999999908 0.19999999999999946
    vertex 1.6969999999999996 -0.24999999999999892 0.0
    vertex 2.5099999999999985 -0.24999999999999892 0.0
  endloop
endfacet
facet normal 0.0 -1.0 -9.023892744153296e-16
  outer loop
    vertex 1.6969999999999996 -0.24999999999999892 0.0
    vertex 2.5099999999999985 -0.24999999999999908 0.19999999999999946
    vertex 1.6969999999999996 -0.24999999999999908 0.19999999999999946
  endloop
endfacet
facet normal -1.0 0.0 0.0
  outer loop
    vertex 1.6969999999999996 0.24999999999999944 0.20000000000000018
    vertex 1.6969999999999996 -0.24999999999999892 0.0
    vertex 1.6969999999999996 -0.24999999999999908 0.19999999999999946
  endloop
endfacet
facet normal -1.0 0.0 0.0
  outer loop
    vertex 1.6969999999999996 -0.24999999999999892 0.0
    vertex 1.6969999999999996 0.24999999999999944 0.20000000000000018
    vertex 1.6969999999999996 0.2499999999999998 1.8047785488306544e-16
  endloop
endfacet
facet normal -0.0 1.0 1.804778548830654e-15
  outer loop
    vertex 1.6969999999999996 0.24999999999999944 0.20000000000000018
    vertex 2.5099999999999985 0.2499999999999998 1.8047785488306544e-16
    vertex 1.6969999999999996 0.2499999999999998 1.8047785488306544e-16
  endloop
endfacet
facet normal -0.0 1.0 1.804778548830654e-15
  outer loop
    vertex 2.5099999999999985 0.2499999999999998 1.8047785488306544e-16
    vertex 1.6969999999999996 0.24999999999999944 0.20000000000000018
    vertex 2.5099999999999985 0.24999999999999944 0.20000000000000018
  endloop
endfacet
facet normal 1.0 -0.0 -0.0
  outer loop
    vertex 2.5099999999999985 -0.24999999999999892 0.0
    vertex 2.5099999999999985 0.24999999999999944 0.20000000000000018
    vertex 2.5099999999999985 -0.24999999999999908 0.19999999999999946
  endloop
endfacet
facet normal 1.0 -0.0 -0.0
  outer loop
    vertex 2.5099999999999985 0.24999999999999944 0.20000000000000018
    vertex 2.5099999999999985 -0.24999999999999892 0.0
    vertex 2.5099999999999985 0.2499999999999998 1.8047785488306544e-16
  endloop
endfacet
facet normal 0.0 3.6095570976613187e-16 -1.0
  outer loop
    vertex 2.5099999999999985 0.2499999999999998 1.8047785488306544e-16
    vertex 1.6969999999999996 -0.24999999999999892 0.0
    vertex 1.6969999999999996 0.2499999999999998 1.8047785488306544e-16
  endloop
endfacet
facet normal 0.0 3.6095570976613187e-16 -1.0
  outer loop
    vertex 1.6969999999999996 -0.24999999999999892 0.0
    vertex 2.5099999999999985 0.2499999999999998 1.8047785488306544e-16
    vertex 2.5099999999999985 -0.24999999999999892 0.0
  endloop
endfacet
facet normal 0.0 1.443822839064528e-15 -1.0
  outer loop
    vertex 2.5099999999999985 0.24999999999999944 0.20000000000000018
    vertex 1.6969999999999996 -0.24999999999999908 0.19999999999999946
    vertex 1.6969999999999996 0.24999999999999944 0.20000000000000018
  endloop
endfacet
facet normal 0.0 1.443822839064528e-15 -1.0
  outer loop
    vertex 1.6969999999999996 -0.24999999999999908 0.19999999999999946
    vertex 2.5099999999999985 0.24999999999999944 0.20000000000000018
    vertex 2.5099999999999985 -0.24999999999999908 0.19999999999999946
  endloop
endfacet
facet normal -1.0 0.0 0.0
  outer loop
    vertex -2.25 -1.4999999999999964 0.1999999999999991
    vertex -2.25 -0.6869999999999995 0.0
    vertex -2.25 -1.4999999999999973 -7.219114195322618e-16
  endloop
endfacet
facet normal -1.0 0.0 0.0
  outer loop
    vertex -2.25 -0.6869999999999995 0.0
    vertex -2.25 -1.4999999999999964 0.1999999999999991
    vertex -2.25 -0.6869999999999998 0.2
  endloop
endfacet
facet normal -0.0 1.0 1.8047785488306545e-15
  outer loop
    vertex -2.25 -0.6869999999999998 0.2
    vertex -1.7500000999999998 -0.6869999999999995 0.0
    vertex -2.25 -0.6869999999999995 0.0
  endloop
endfacet
facet normal -0.0 1.0 1.8047785488306545e-15
  outer loop
    vertex -1.7500000999999998 -0.6869999999999995 0.0
    vertex -2.25 -0.6869999999999998 0.2
    vertex -1.7500000999999998 -0.6869999999999998 0.2
  endloop
endfacet
facet normal 1.0 -0.0 -0.0
  outer loop
    vertex -1.7500000999999998 -0.6869999999999995 0.0
    vertex -1.7500000999999998 -1.4999999999999964 0.1999999999999991
    vertex -1.7500000999999998 -1.4999999999999973 -7.219114195322618e-16
  endloop
endfacet
facet normal 1.0 -0.0 -0.0
  outer loop
    vertex -1.7500000999999998 -1.4999999999999964 0.1999999999999991
    vertex -1.7500000999999998 -0.6869999999999995 0.0
    vertex -1.7500000999999998 -0.6869999999999998 0.2
  endloop
endfacet
facet normal 0.0 -1.0 3.609557097661312e-15
  outer loop
    vertex -1.7500000999999998 -1.4999999999999964 0.1999999999999991
    vertex -2.25 -1.4999999999999973 -7.219114195322618e-16
    vertex -1.7500000999999998 -1.4999999999999973 -7.219114195322618e-16
  endloop
endfacet
facet normal 0.0 -1.0 3.609557097661312e-15
  outer loop
    vertex -2.25 -1.4999999999999973 -7.219114195322618e-16
    vertex -1.7500000999999998 -1.4999999999999964 0.1999999999999991
    vertex -2.25 -1.4999999999999964 0.1999999999999991
  endloop
endfacet
facet normal 4.308014802701707e-17 8.831911194132914e-16 -1.0
  outer loop
    vertex -1.7500000999999998 -0.6869999999999995 0.0
    vertex -2.25 -1.4999999999999973 -7.219114195322618e-16
    vertex -2.25 -0.6869999999999995 0.0
  endloop
endfacet
facet normal 4.308014802701707e-17 8.831911194132914e-16 -1.0
  outer loop
    vertex -2.25 -1.4999999999999973 -7.219114195322618e-16
    vertex -1.7500000999999998 -0.6869999999999995 0.0
    vertex -1.7500000999999998 -1.4999999999999973 -7.219114195322618e-16
  endloop
endfacet
facet normal 0.0 1.1099499070299275e-15 -1.0
  outer loop
    vertex -1.7500000999999998 -0.6869999999999998 0.2
    vertex -2.25 -1.4999999999999964 0.1999999999999991
    vertex -2.25 -0.6869999999999998 0.2
  endloop
endfacet
facet normal 0.0 1.1099499070299275e-15 -1.0
  outer loop
    vertex -2.25 -1.4999999999999964 0.1999999999999991
    vertex -1.7500000999999998 -0.6869999999999998 0.2
    vertex -1.7500000999999998 -1.4999999999999964 0.1999999999999991
  endloop
endfacet
facet normal -0.0 1.0 3.609557097661315e-15
  outer loop
    vertex -2.25 1.4999999999999978 0.20000000000000037
    vertex -1.7500000999999998 1.4999999999999984 7.219114195322618e-16
    vertex -2.25 1.4999999999999984 7.219114195322618e-16
  endloop
endfacet
facet normal -0.0 1.0 3.609557097661315e-15
  outer loop
    vertex -1.7500000999999998 1.4999999999999984 7.219114195322618e-16
    vertex -2.25 1.4999999999999978 0.20000000000000037
    vertex -1.7500000999999998 1.4999999999999978 0.20000000000000037
  endloop
endfacet
facet normal -1.0 0.0 0.0
  outer loop
    vertex -2.25 1.4999999999999978 0.20000000000000037
    vertex -2.25 0.6869999999999995 5.414335646491963e-16
    vertex -2.25 0.6869999999999995 0.20000000000000054
  endloop
endfacet
facet normal -1.0 0.0 0.0
  outer loop
    vertex -2.25 0.6869999999999995 5.414335646491963e-16
    vertex -2.25 1.4999999999999978 0.20000000000000037
    vertex -2.25 1.4999999999999984 7.219114195322618e-16
  endloop
endfacet
facet normal 4.9066173300738347e-17 2.2742141752413855e-16 -1.0
  outer loop
    vertex -1.7500000999999998 1.4999999999999984 7.219114195322618e-16
    vertex -2.25 0.6869999999999995 5.414335646491963e-16
    vertex -2.25 1.4999999999999984 7.219114195322618e-16
  endloop
endfacet
facet normal 4.9066173300738347e-17 2.2742141752413855e-16 -1.0
  outer loop
    vertex -2.25 0.6869999999999995 5.414335646491963e-16
    vertex -1.7500000999999998 1.4999999999999984 7.219114195322618e-16
    vertex -1.7500000999999998 0.6869999999999995 5.414335646491963e-16
  endloop
endfacet
facet normal -5.78457393518835e-47 -2.2198998140598503e-16 -1.0
  outer loop
    vertex -1.7500000999999998 1.4999999999999978 0.20000000000000037
    vertex -2.25 0.6869999999999995 0.20000000000000054
    vertex -2.25 1.4999999999999978 0.20000000000000037
  endloop
endfacet
facet normal -5.78457393518835e-47 -2.2198998140598503e-16 -1.0
  outer loop
    vertex -2.25 0.6869999999999995 0.20000000000000054
    vertex -1.7500000999999998 1.4999999999999978 0.20000000000000037
    vertex -1.7500000999999998 0.6869999999999995 0.20000000000000054
  endloop
endfacet
facet normal -1.0 0.0 0.0
  outer loop
    vertex -1.4499999999999995 1.4999999999999978 0.20000000000000037
    vertex -1.4499999999999995 0.6869999999999995 5.414335646491963e-16
    vertex -1.4499999999999995 0.6869999999999995 0.20000000000000054
  endloop
endfacet
facet normal -1.0 0.0 0.0
  outer loop
    vertex -1.4499999999999995 0.6869999999999995 5.414335646491963e-16
    vertex -1.4499999999999995 1.4999999999999978 0.20000000000000037
    vertex -1.4499999999999995 1.4999999999999984 7.219114195322618e-16
  endloop
endfacet
facet normal -0.0 1.0 3.609557097661315e-15
  outer loop
    vertex -1.4499999999999995 1.4999999999999978 0.20000000000000037
    vertex -0.9499999999999996 1.4999999999999984 7.219114195322618e-16
    vertex -1.4499999999999995 1.4999999999999984 7.219114195322618e-16
  endloop
endfacet
facet normal -0.0 1.0 3.609557097661315e-15
  outer loop
    vertex -0.9499999999999996 1.4999999999999984 7.219114195322618e-16
    vertex -1.4499999999999995 1.4999999999999978 0.20000000000000037
    vertex -0.9499999999999996 1.4999999999999978 0.20000000000000037
  endloop
endfacet
facet normal 1.0 -0.0 -0.0
  outer loop
    vertex -0.9499999999999996 1.4999999999999984 7.219114195322618e-16
    vertex -0.9499999999999996 0.6869999999999995 0.20000000000000054
    vertex -0.9499999999999996 0.6869999999999995 5.414335646491963e-16
  endloop
endfacet
facet normal 1.0 -0.0 -0.0
  outer loop
    vertex -0.9499999999999996 0.6869999999999995 0.20000000000000054
    vertex -0.9499999999999996 1.4999999999999984 7.219114195322618e-16
    vertex -0.9499999999999996 1.4999999999999978 0.20000000000000037
  endloop
endfacet
facet normal 0.0 -1.0 0.0
  outer loop
    vertex -0.9499999999999996 0.6869999999999995 0.20000000000000054
    vertex -1.4499999999999995 0.6869999999999995 5.414335646491963e-16
    vertex -0.9499999999999996 0.6869999999999995 5.414335646491963e-16
  endloop
endfacet
facet normal 0.0 -1.0 0.0
  outer loop
    vertex -1.4499999999999995 0.6869999999999995 5.414335646491963e-16
    vertex -0.9499999999999996 0.6869999999999995 0.20000000000000054
    vertex -1.4499999999999995 0.6869999999999995 0.20000000000000054
  endloop
endfacet
facet normal -4.4406485550968154e-17 2.945887856435852e-16 -1.0
  outer loop
    vertex -0.9499999999999996 1.4999999999999984 7.219114195322618e-16
    vertex -1.4499999999999995 0.6869999999999995 5.414335646491963e-16
    vertex -1.4499999999999995 1.4999999999999984 7.219114195322618e-16
  endloop
endfacet
facet normal -4.4406485550968154e-17 2.945887856435852e-16 -1.0
  outer loop
    vertex -1.4499999999999995 0.6869999999999995 5.414335646491963e-16
    vertex -0.9499999999999996 1.4999999999999984 7.219114195322618e-16
    vertex -0.9499999999999996 0.6869999999999995 5.414335646491963e-16
  endloop
endfacet
facet normal 1.1711337627526242e-31 1.0 1.804778548830654e-15
  outer loop
    vertex -1.4499999999999995 -0.6869999999999998 0.2
    vertex -0.9499999999999996 -0.6869999999999995 0.0
    vertex -1.4499999999999995 -0.6869999999999995 0.0
  endloop
endfacet
facet normal 1.1711337627526242e-31 1.0 1.804778548830654e-15
  outer loop
    vertex -0.9499999999999996 -0.6869999999999995 0.0
    vertex -1.4499999999999995 -0.6869999999999998 0.2
    vertex -0.9499999999999996 -0.6869999999999998 0.2
  endloop
endfacet
facet normal 1.0 -0.0 -0.0
  outer loop
    vertex -0.9499999999999996 -0.6869999999999995 0.0
    vertex -0.9499999999999996 -1.4999999999999964 0.1999999999999991
    vertex -0.9499999999999996 -1.4999999999999973 -7.219114195322618e-16
  endloop
endfacet
facet normal 1.0 -0.0 -0.0
  outer loop
    vertex -0.9499999999999996 -1.4999999999999964 0.1999999999999991
    vertex -0.9499999999999996 -0.6869999999999995 0.0
    vertex -0.9499999999999996 -0.6869999999999998 0.2
  endloop
endfacet
facet normal 0.0 1.1099499070299275e-15 -1.0
  outer loop
    vertex -0.9499999999999996 -0.6869999999999998 0.2
    vertex -1.4499999999999995 -1.4999999999999964 0.1999999999999991
    vertex -1.4499999999999995 -0.6869999999999998 0.2
  endloop
endfacet
facet normal 0.0 1.1099499070299275e-15 -1.0
  outer loop
    vertex -1.4499999999999995 -1.4999999999999964 0.1999999999999991
    vertex -0.9499999999999996 -0.6869999999999998 0.2
    vertex -0.9499999999999996 -1.4999999999999964 0.1999999999999991
  endloop
endfacet
facet normal 0.0 -1.0 3.609557097661312e-15
  outer loop
    vertex -0.14999999999999983 -1.4999999999999964 0.1999999999999991
    vertex -0.6499999999999998 -1.4999999999999973 -7.219114195322618e-16
    vertex -0.14999999999999983 -1.4999999999999973 -7.219114195322618e-16
  endloop
endfacet
facet normal 0.0 -1.0 3.609557097661312e-15
  outer loop
    vertex -0.6499999999999998 -1.4999999999999973 -7.219114195322618e-16
    vertex -0.14999999999999983 -1.4999999999999964 0.1999999999999991
    vertex -0.6499999999999998 -1.4999999999999964 0.1999999999999991
  endloop
endfacet
facet normal -1.0 0.0 0.0
  outer loop
    vertex -0.6499999999999998 -1.4999999999999964 0.1999999999999991
    vertex -0.6499999999999998 -0.6869999999999995 0.0
    vertex -0.6499999999999998 -1.4999999999999973 -7.219114195322618e-16
  endloop
endfacet
facet normal -1.0 0.0 0.0
  outer loop
    vertex -0.6499999999999998 -0.6869999999999995 0.0
    vertex -0.6499999999999998 -1.4999999999999964 0.1999999999999991
    vertex -0.6499999999999998 -0.6869999999999998 0.2
  endloop
endfacet
facet normal -0.0 1.0 1.8047785488306545e-15
  outer loop
    vertex -0.6499999999999998 -0.6869999999999998 0.2
    vertex -0.14999999999999983 -0.6869999999999995 0.0
    vertex -0.6499999999999998 -0.6869999999999995 0.0
  endloop
endfacet
facet normal -0.0 1.0 1.8047785488306545e-15
  outer loop
    vertex -0.14999999999999983 -0.6869999999999995 0.0
    vertex -0.6499999999999998 -0.6869999999999998 0.2
    vertex -0.14999999999999983 -0.6869999999999998 0.2
  endloop
endfacet
facet normal 1.0 -0.0 -0.0
  outer loop
    vertex -0.14999999999999983 -0.6869999999999995 0.0
    vertex -0.14999999999999983 -1.4999999999999964 0.1999999999999991
    vertex -0.14999999999999983 -1.4999999999999973 -7.219114195322618e-16
  endloop
endfacet
facet normal 1.0 -0.0 -0.0
  outer loop
    vertex -0.14999999999999983 -1.4999999999999964 0.1999999999999991
    vertex -0.14999999999999983 -0.6869999999999995 0.0
    vertex -0.14999999999999983 -0.6869999999999998 0.2
  endloop
endfacet
facet normal 0.0 8.879599256239407e-16 -1.0
  outer loop
    vertex -0.14999999999999983 -0.6869999999999995 0.0
    vertex -0.6499999999999998 -1.4999999999999973 -7.219114195322618e-16
    vertex -0.6499999999999998 -0.6869999999999995 0.0
  endloop
endfacet
facet normal 0.0 8.879599256239407e-16 -1.0
  outer loop
    vertex -0.6499999999999998 -1.4999999999999973 -7.219114195322618e-16
    vertex -0.14999999999999983 -0.6869999999999995 0.0
    vertex -0.14999999999999983 -1.4999999999999973 -7.219114195322618e-16
  endloop
endfacet
facet normal 0.0 1.1099499070299273e-15 -1.0
  outer loop
    vertex -0.14999999999999983 -0.6869999999999998 0.2
    vertex -0.6499999999999998 -1.4999999999999964 0.1999999999999991
    vertex -0.6499999999999998 -0.6869999999999998 0.2
  endloop
endfacet
facet normal 0.0 1.1099499070299273e-15 -1.0
  outer loop
    vertex -0.6499999999999998 -1.4999999999999964 0.1999999999999991
    vertex -0.14999999999999983 -0.6869999999999998 0.2
    vertex -0.14999999999999983 -1.4999999999999964 0.1999999999999991
  endloop
endfacet
facet normal 0.0 -1.0 3.609557097661312e-15
  outer loop
    vertex 0.6500000000000001 -1.4999999999999964 0.1999999999999991
    vertex 0.15000000000000055 -1.4999999999999973 -7.219114195322618e-16
    vertex 0.6500000000000001 -1.4999999999999973 -7.219114195322618e-16
  endloop
endfacet
facet normal 0.0 -1.0 3.609557097661312e-15
  outer loop
    vertex 0.15000000000000055 -1.4999999999999973 -7.219114195322618e-16
    vertex 0.6500000000000001 -1.4999999999999964 0.1999999999999991
    vertex 0.15000000000000055 -1.4999999999999964 0.1999999999999991
  endloop
endfacet
facet normal -1.0 0.0 0.0
  outer loop
    vertex 0.15000000000000055 -1.4999999999999964 0.1999999999999991
    vertex 0.15000000000000055 -0.6869999999999995 0.0
    vertex 0.15000000000000055 -1.4999999999999973 -7.219114195322618e-16
  endloop
endfacet
facet normal -1.0 0.0 0.0
  outer loop
    vertex 0.15000000000000055 -0.6869999999999995 0.0
    vertex 0.15000000000000055 -1.4999999999999964 0.1999999999999991
    vertex 0.15000000000000055 -0.6869999999999998 0.2
  endloop
endfacet
facet normal -0.0 1.0 1.8047785488306545e-15
  outer loop
    vertex 0.15000000000000055 -0.6869999999999998 0.2
    vertex 0.6500000000000001 -0.6869999999999995 0.0
    vertex 0.15000000000000055 -0.6869999999999995 0.0
  endloop
endfacet
facet normal -0.0 1.0 1.8047785488306545e-15
  outer loop
    vertex 0.6500000000000001 -0.6869999999999995 0.0
    vertex 0.15000000000000055 -0.6869999999999998 0.2
    vertex 0.6500000000000001 -0.6869999999999998 0.2
  endloop
endfacet
facet normal 1.0 -0.0 -0.0
  outer loop
    vertex 0.6500000000000001 -0.6869999999999995 0.0
    vertex 0.6500000000000001 -1.4999999999999964 0.1999999999999991
    vertex 0.6500000000000001 -1.4999999999999973 -7.219114195322618e-16
  endloop
endfacet
facet normal 1.0 -0.0 -0.0
  outer loop
    vertex 0.6500000000000001 -1.4999999999999964 0.1999999999999991
    vertex 0.6500000000000001 -0.6869999999999995 0.0
    vertex 0.6500000000000001 -0.6869999999999998 0.2
  endloop
endfacet
facet normal 0.0 8.879599256239407e-16 -1.0
  outer loop
    vertex 0.6500000000000001 -0.6869999999999995 0.0
    vertex 0.15000000000000055 -1.4999999999999973 -7.219114195322618e-16
    vertex 0.15000000000000055 -0.6869999999999995 0.0
  endloop
endfacet
facet normal 0.0 8.879599256239407e-16 -1.0
  outer loop
    vertex 0.15000000000000055 -1.4999999999999973 -7.219114195322618e-16
    vertex 0.6500000000000001 -0.6869999999999995 0.0
    vertex 0.6500000000000001 -1.4999999999999973 -7.219114195322618e-16
  endloop
endfacet
facet normal 0.0 1.1099499070299275e-15 -1.0
  outer loop
    vertex 0.6500000000000001 -0.6869999999999998 0.2
    vertex 0.15000000000000055 -1.4999999999999964 0.1999999999999991
    vertex 0.15000000000000055 -0.6869999999999998 0.2
  endloop
endfacet
facet normal 0.0 1.1099499070299275e-15 -1.0
  outer loop
    vertex 0.15000000000000055 -1.4999999999999964 0.1999999999999991
    vertex 0.6500000000000001 -0.6869999999999998 0.2
    vertex 0.6500000000000001 -1.4999999999999964 0.1999999999999991
  endloop
endfacet
facet normal 0.0 -1.0 3.609557097661312e-15
  outer loop
    vertex 1.4500000000000002 -1.4999999999999964 0.1999999999999991
    vertex 0.9499999999999998 -1.4999999999999973 -7.219114195322618e-16
    vertex 1.4500000000000002 -1.4999999999999973 -7.219114195322618e-16
  endloop
endfacet
facet normal 0.0 -1.0 3.609557097661312e-15
  outer loop
    vertex 0.9499999999999998 -1.4999999999999973 -7.219114195322618e-16
    vertex 1.4500000000000002 -1.4999999999999964 0.1999999999999991
    vertex 0.9499999999999998 -1.4999999999999964 0.1999999999999991
  endloop
endfacet
facet normal -1.0 0.0 0.0
  outer loop
    vertex 0.9499999999999998 -1.4999999999999964 0.1999999999999991
    vertex 0.9499999999999998 -0.6869999999999995 0.0
    vertex 0.9499999999999998 -1.4999999999999973 -7.219114195322618e-16
  endloop
endfacet
facet normal -1.0 0.0 0.0
  outer loop
    vertex 0.9499999999999998 -0.6869999999999995 0.0
    vertex 0.9499999999999998 -1.4999999999999964 0.1999999999999991
    vertex 0.9499999999999998 -0.6869999999999998 0.2
  endloop
endfacet
facet normal 7.577088019210763e-17 1.0 2.0841696999814923e-15
  outer loop
    vertex 0.9499999999999998 -0.6869999999999998 0.2
    vertex 1.4500000000000002 -0.6869999999999995 0.0
    vertex 0.9499999999999998 -0.6869999999999995 0.0
  endloop
endfacet
facet normal 7.577088019210763e-17 1.0 2.0841696999814923e-15
  outer loop
    vertex 1.4500000000000002 -0.6869999999999995 0.0
    vertex 0.9499999999999998 -0.6869999999999998 0.2
    vertex 1.4500000000000002 -0.6869999999999998 0.2
  endloop
endfacet
facet normal 1.0 -0.0 -0.0
  outer loop
    vertex 1.4500000000000002 -0.6869999999999995 0.0
    vertex 1.4500000000000002 -1.4999999999999964 0.1999999999999991
    vertex 1.4500000000000002 -1.4999999999999973 -7.219114195322618e-16
  endloop
endfacet
facet normal 1.0 -0.0 -0.0
  outer loop
    vertex 1.4500000000000002 -1.4999999999999964 0.1999999999999991
    vertex 1.4500000000000002 -0.6869999999999995 0.0
    vertex 1.4500000000000002 -0.6869999999999998 0.2
  endloop
endfacet
facet normal 8.68036505445017e-18 8.109553345188885e-16 -1.0
  outer loop
    vertex 1.4500000000000002 -0.6869999999999995 0.0
    vertex 0.9499999999999998 -1.4999999999999973 -7.219114195322618e-16
    vertex 0.9499999999999998 -0.6869999999999995 0.0
  endloop
endfacet
facet normal 8.68036505445017e-18 8.109553345188885e-16 -1.0
  outer loop
    vertex 0.9499999999999998 -1.4999999999999973 -7.219114195322618e-16
    vertex 1.4500000000000002 -0.6869999999999995 0.0
    vertex 1.4500000000000002 -1.4999999999999973 -7.219114195322618e-16
  endloop
endfacet
facet normal 0.0 1.1099499070299275e-15 -1.0
  outer loop
    vertex 1.4500000000000002 -0.6869999999999998 0.2
    vertex 0.9499999999999998 -1.4999999999999964 0.1999999999999991
    vertex 0.9499999999999998 -0.6869999999999998 0.2
  endloop
endfacet
facet normal 0.0 1.1099499070299275e-15 -1.0
  outer loop
    vertex 0.9499999999999998 -1.4999999999999964 0.1999999999999991
    vertex 1.4500000000000002 -0.6869999999999998 0.2
    vertex 1.4500000000000002 -1.4999999999999964 0.1999999999999991
  endloop
endfacet
facet normal -1.0 0.0 0.0
  outer loop
    vertex 1.7499999999999984 -1.4999999999999964 0.1999999999999991
    vertex 1.7499999999999984 -0.6869999999999995 0.0
    vertex 1.7499999999999984 -1.4999999999999973 -7.219114195322618e-16
  endloop
endfacet
facet normal -1.0 0.0 0.0
  outer loop
    vertex 1.7499999999999984 -0.6869999999999995 0.0
    vertex 1.7499999999999984 -1.4999999999999964 0.1999999999999991
    vertex 1.7499999999999984 -0.6869999999999998 0.2
  endloop
endfacet
facet normal -0.0 1.0 1.8047785488306545e-15
  outer loop
    vertex 1.7499999999999984 -0.6869999999999998 0.2
    vertex 2.249999999999998 -0.6869999999999995 0.0
    vertex 1.7499999999999984 -0.6869999999999995 0.0
  endloop
endfacet
facet normal -0.0 1.0 1.8047785488306545e-15
  outer loop
    vertex 2.249999999999998 -0.6869999999999995 0.0
    vertex 1.7499999999999984 -0.6869999999999998 0.2
    vertex 2.249999999999998 -0.6869999999999998 0.2
  endloop
endfacet
facet normal 1.0 -0.0 -0.0
  outer loop
    vertex 2.249999999999998 -0.6869999999999995 0.0
    vertex 2.249999999999998 -1.4999999999999964 0.1999999999999991
    vertex 2.249999999999998 -1.4999999999999973 -7.219114195322618e-16
  endloop
endfacet
facet normal 1.0 -0.0 -0.0
  outer loop
    vertex 2.249999999999998 -1.4999999999999964 0.1999999999999991
    vertex 2.249999999999998 -0.6869999999999995 0.0
    vertex 2.249999999999998 -0.6869999999999998 0.2
  endloop
endfacet
facet normal 0.0 1.1099499070299275e-15 -1.0
  outer loop
    vertex 2.249999999999998 -0.6869999999999998 0.2
    vertex 1.7499999999999984 -1.4999999999999964 0.1999999999999991
    vertex 1.7499999999999984 -0.6869999999999998 0.2
  endloop
endfacet
facet normal 0.0 1.1099499070299275e-15 -1.0
  outer loop
    vertex 1.7499999999999984 -1.4999999999999964 0.1999999999999991
    vertex 2.249999999999998 -0.6869999999999998 0.2
    vertex 2.249999999999998 -1.4999999999999964 0.1999999999999991
  endloop
endfacet
facet normal -1.0 0.0 0.0
  outer loop
    vertex 1.7499999999999984 1.4999999999999978 0.20000000000000037
    vertex 1.7499999999999984 0.6869999999999995 5.414335646491963e-16
    vertex 1.7499999999999984 0.6869999999999995 0.20000000000000054
  endloop
endfacet
facet normal -1.0 0.0 0.0
  outer loop
    vertex 1.7499999999999984 0.6869999999999995 5.414335646491963e-16
    vertex 1.7499999999999984 1.4999999999999978 0.20000000000000037
    vertex 1.7499999999999984 1.4999999999999984 7.219114195322618e-16
  endloop
endfacet
facet normal -0.0 1.0 3.609557097661315e-15
  outer loop
    vertex 1.7499999999999984 1.4999999999999978 0.20000000000000037
    vertex 2.249999999999998 1.4999999999999984 7.219114195322618e-16
    vertex 1.7499999999999984 1.4999999999999984 7.219114195322618e-16
  endloop
endfacet
facet normal -0.0 1.0 3.609557097661315e-15
  outer loop
    vertex 2.249999999999998 1.4999999999999984 7.219114195322618e-16
    vertex 1.7499999999999984 1.4999999999999978 0.20000000000000037
    vertex 2.249999999999998 1.4999999999999978 0.20000000000000037
  endloop
endfacet
facet normal 1.0 -0.0 -0.0
  outer loop
    vertex 2.249999999999998 1.4999999999999984 7.219114195322618e-16
    vertex 2.249999999999998 0.6869999999999995 0.20000000000000054
    vertex 2.249999999999998 0.6869999999999995 5.414335646491963e-16
  endloop
endfacet
facet normal 1.0 -0.0 -0.0
  outer loop
    vertex 2.249999999999998 0.6869999999999995 0.20000000000000054
    vertex 2.249999999999998 1.4999999999999984 7.219114195322618e-16
    vertex 2.249999999999998 1.4999999999999978 0.20000000000000037
  endloop
endfacet
facet normal 0.0 -1.0 0.0
  outer loop
    vertex 2.249999999999998 0.6869999999999995 0.20000000000000054
    vertex 1.7499999999999984 0.6869999999999995 5.414335646491963e-16
    vertex 2.249999999999998 0.6869999999999995 5.414335646491963e-16
  endloop
endfacet
facet normal 0.0 -1.0 0.0
  outer loop
    vertex 1.7499999999999984 0.6869999999999995 5.414335646491963e-16
    vertex 2.249999999999998 0.6869999999999995 0.20000000000000054
    vertex 1.7499999999999984 0.6869999999999995 0.20000000000000054
  endloop
endfacet
facet normal -4.9066173780939686e-17 2.274214137146692e-16 -1.0
  outer loop
    vertex 2.249999999999998 1.4999999999999984 7.219114195322618e-16
    vertex 1.7499999999999984 0.6869999999999995 5.414335646491963e-16
    vertex 1.7499999999999984 1.4999999999999984 7.219114195322618e-16
  endloop
endfacet
facet normal -4.9066173780939686e-17 2.274214137146692e-16 -1.0
  outer loop
    vertex 1.7499999999999984 0.6869999999999995 5.414335646491963e-16
    vertex 2.249999999999998 1.4999999999999984 7.219114195322618e-16
    vertex 2.249999999999998 0.6869999999999995 5.414335646491963e-16
  endloop
endfacet
facet normal 0.0 -2.2198998140598503e-16 -1.0
  outer loop
    vertex 2.249999999999998 1.4999999999999978 0.20000000000000037
    vertex 1.7499999999999984 0.6869999999999995 0.20000000000000054
    vertex 1.7499999999999984 1.4999999999999978 0.20000000000000037
  endloop
endfacet
facet normal 0.0 -2.2198998140598503e-16 -1.0
  outer loop
    vertex 1.7499999999999984 0.6869999999999995 0.20000000000000054
    vertex 2.249999999999998 1.4999999999999978 0.20000000000000037
    vertex 2.249999999999998 0.6869999999999995 0.20000000000000054
  endloop
endfacet
facet normal -1.0 0.0 0.0
  outer loop
    vertex 0.9499999999999998 1.4999999999999978 0.20000000000000037
    vertex 0.9499999999999998 0.6869999999999995 5.414335646491963e-16
    vertex 0.9499999999999998 0.6869999999999995 0.20000000000000054
  endloop
endfacet
facet normal -1.0 0.0 0.0
  outer loop
    vertex 0.9499999999999998 0.6869999999999995 5.414335646491963e-16
    vertex 0.9499999999999998 1.4999999999999978 0.20000000000000037
    vertex 0.9499999999999998 1.4999999999999984 7.219114195322618e-16
  endloop
endfacet
facet normal -0.0 1.0 3.609557097661315e-15
  outer loop
    vertex 0.9499999999999998 1.4999999999999978 0.20000000000000037
    vertex 1.4500000000000002 1.4999999999999984 7.219114195322618e-16
    vertex 0.9499999999999998 1.4999999999999984 7.219114195322618e-16
  endloop
endfacet
facet normal -0.0 1.0 3.609557097661315e-15
  outer loop
    vertex 1.4500000000000002 1.4999999999999984 7.219114195322618e-16
    vertex 0.9499999999999998 1.4999999999999978 0.20000000000000037
    vertex 1.4500000000000002 1.4999999999999978 0.20000000000000037
  endloop
endfacet
facet normal 1.0 -0.0 -0.0
  outer loop
    vertex 1.4500000000000002 1.4999999999999984 7.219114195322618e-16
    vertex 1.4500000000000002 0.6869999999999995 0.20000000000000054
    vertex 1.4500000000000002 0.6869999999999995 5.414335646491963e-16
  endloop
endfacet
facet normal 1.0 -0.0 -0.0
  outer loop
    vertex 1.4500000000000002 0.6869999999999995 0.20000000000000054
    vertex 1.4500000000000002 1.4999999999999984 7.219114195322618e-16
    vertex 1.4500000000000002 1.4999999999999978 0.20000000000000037
  endloop
endfacet
facet normal 0.0 -1.0 0.0
  outer loop
    vertex 1.4500000000000002 0.6869999999999995 0.20000000000000054
    vertex 0.9499999999999998 0.6869999999999995 5.414335646491963e-16
    vertex 1.4500000000000002 0.6869999999999995 5.414335646491963e-16
  endloop
endfacet
facet normal 0.0 -1.0 0.0
  outer loop
    vertex 0.9499999999999998 0.6869999999999995 5.414335646491963e-16
    vertex 1.4500000000000002 0.6869999999999995 0.20000000000000054
    vertex 0.9499999999999998 0.6869999999999995 0.20000000000000054
  endloop
endfacet
facet normal 4.4406485550968407e-17 2.9458878564358516e-16 -1.0
  outer loop
    vertex 1.4500000000000002 1.4999999999999984 7.219114195322618e-16
    vertex 0.9499999999999998 0.6869999999999995 5.414335646491963e-16
    vertex 0.9499999999999998 1.4999999999999984 7.219114195322618e-16
  endloop
endfacet
facet normal 4.4406485550968407e-17 2.9458878564358516e-16 -1.0
  outer loop
    vertex 0.9499999999999998 0.6869999999999995 5.414335646491963e-16
    vertex 1.4500000000000002 1.4999999999999984 7.219114195322618e-16
    vertex 1.4500000000000002 0.6869999999999995 5.414335646491963e-16
  endloop
endfacet
facet normal 0.0 -2.2198998140598503e-16 -1.0
  outer loop
    vertex 1.4500000000000002 1.4999999999999978 0.20000000000000037
    vertex 0.9499999999999998 0.6869999999999995 0.20000000000000054
    vertex 0.9499999999999998 1.4999999999999978 0.20000000000000037
  endloop
endfacet
facet normal 0.0 -2.2198998140598503e-16 -1.0
  outer loop
    vertex 0.9499999999999998 0.6869999999999995 0.20000000000000054
    vertex 1.4500000000000002 1.4999999999999978 0.20000000000000037
    vertex 1.4500000000000002 0.6869999999999995 0.20000000000000054
  endloop
endfacet
facet normal -1.0 0.0 0.0
  outer loop
    vertex 0.15000000000000055 1.4999999999999978 0.20000000000000037
    vertex 0.15000000000000055 0.6869999999999995 5.414335646491963e-16
    vertex 0.15000000000000055 0.6869999999999995 0.20000000000000054
  endloop
endfacet
facet normal -1.0 0.0 0.0
  outer loop
    vertex 0.15000000000000055 0.6869999999999995 5.414335646491963e-16
    vertex 0.15000000000000055 1.4999999999999978 0.20000000000000037
    vertex 0.15000000000000055 1.4999999999999984 7.219114195322618e-16
  endloop
endfacet
facet normal -0.0 1.0 3.609557097661315e-15
  outer loop
    vertex 0.15000000000000055 1.4999999999999978 0.20000000000000037
    vertex 0.6500000000000001 1.4999999999999984 7.219114195322618e-16
    vertex 0.15000000000000055 1.4999999999999984 7.219114195322618e-16
  endloop
endfacet
facet normal -0.0 1.0 3.609557097661315e-15
  outer loop
    vertex 0.6500000000000001 1.4999999999999984 7.219114195322618e-16
    vertex 0.15000000000000055 1.4999999999999978 0.20000000000000037
    vertex 0.6500000000000001 1.4999999999999978 0.20000000000000037
  endloop
endfacet
facet normal 1.0 -0.0 -0.0
  outer loop
    vertex 0.6500000000000001 1.4999999999999984 7.219114195322618e-16
    vertex 0.6500000000000001 0.6869999999999995 0.20000000000000054
    vertex 0.6500000000000001 0.6869999999999995 5.414335646491963e-16
  endloop
endfacet
facet normal 1.0 -0.0 -0.0
  outer loop
    vertex 0.6500000000000001 0.6869999999999995 0.20000000000000054
    vertex 0.6500000000000001 1.4999999999999984 7.219114195322618e-16
    vertex 0.6500000000000001 1.4999999999999978 0.20000000000000037
  endloop
endfacet
facet normal 0.0 -1.0 0.0
  outer loop
    vertex 0.6500000000000001 0.6869999999999995 0.20000000000000054
    vertex 0.15000000000000055 0.6869999999999995 5.414335646491963e-16
    vertex 0.6500000000000001 0.6869999999999995 5.414335646491963e-16
  endloop
endfacet
facet normal 0.0 -1.0 0.0
  outer loop
    vertex 0.15000000000000055 0.6869999999999995 5.414335646491963e-16
    vertex 0.6500000000000001 0.6869999999999995 0.20000000000000054
    vertex 0.15000000000000055 0.6869999999999995 0.20000000000000054
  endloop
endfacet
facet normal 0.0 2.2198998140598486e-16 -1.0
  outer loop
    vertex 0.6500000000000001 1.4999999999999984 7.219114195322618e-16
    vertex 0.15000000000000055 0.6869999999999995 5.414335646491963e-16
    vertex 0.15000000000000055 1.4999999999999984 7.219114195322618e-16
  endloop
endfacet
facet normal 0.0 2.2198998140598486e-16 -1.0
  outer loop
    vertex 0.15000000000000055 0.6869999999999995 5.414335646491963e-16
    vertex 0.6500000000000001 1.4999999999999984 7.219114195322618e-16
    vertex 0.6500000000000001 0.6869999999999995 5.414335646491963e-16
  endloop
endfacet
facet normal 0.0 -2.2198998140598503e-16 -1.0
  outer loop
    vertex 0.6500000000000001 1.4999999999999978 0.20000000000000037
    vertex 0.15000000000000055 0.6869999999999995 0.20000000000000054
    vertex 0.15000000000000055 1.4999999999999978 0.20000000000000037
  endloop
endfacet
facet normal 0.0 -2.2198998140598503e-16 -1.0
  outer loop
    vertex 0.15000000000000055 0.6869999999999995 0.20000000000000054
    vertex 0.6500000000000001 1.4999999999999978 0.20000000000000037
    vertex 0.6500000000000001 0.6869999999999995 0.20000000000000054
  endloop
endfacet
facet normal 0.0 -1.0 3.609557097661312e-15
  outer loop
    vertex 2.249999999999998 -1.4999999999999964 0.1999999999999991
    vertex 1.7499999999999984 -1.4999999999999973 -7.219114195322618e-16
    vertex 2.249999999999998 -1.4999999999999973 -7.219114195322618e-16
  endloop
endfacet
facet normal 0.0 -1.0 3.609557097661312e-15
  outer loop
    vertex 1.7499999999999984 -1.4999999999999973 -7.219114195322618e-16
    vertex 2.249999999999998 -1.4999999999999964 0.1999999999999991
    vertex 1.7499999999999984 -1.4999999999999964 0.1999999999999991
  endloop
endfacet
facet normal -4.308010057966533e-17 8.831911280569158e-16 -1.0
  outer loop
    vertex 2.249999999999998 -0.6869999999999995 0.0
    vertex 1.7499999999999984 -1.4999999999999973 -7.219114195322618e-16
    vertex 1.7499999999999984 -0.6869999999999995 0.0
  endloop
endfacet
facet normal -4.308010057966533e-17 8.831911280569158e-16 -1.0
  outer loop
    vertex 1.7499999999999984 -1.4999999999999973 -7.219114195322618e-16
    vertex 2.249999999999998 -0.6869999999999995 0.0
    vertex 2.249999999999998 -1.4999999999999973 -7.219114195322618e-16
  endloop
endfacet
facet normal 1.0 -0.0 -0.0
  outer loop
    vertex -1.7500000999999998 1.4999999999999984 7.219114195322618e-16
    vertex -1.7500000999999998 0.6869999999999995 0.20000000000000054
    vertex -1.7500000999999998 0.6869999999999995 5.414335646491963e-16
  endloop
endfacet
facet normal 1.0 -0.0 -0.0
  outer loop
    vertex -1.7500000999999998 0.6869999999999995 0.20000000000000054
    vertex -1.7500000999999998 1.4999999999999984 7.219114195322618e-16
    vertex -1.7500000999999998 1.4999999999999978 0.20000000000000037
  endloop
endfacet
facet normal -1.0 0.0 0.0
  outer loop
    vertex -1.4499999999999995 -1.4999999999999964 0.1999999999999991
    vertex -1.4499999999999995 -0.6869999999999995 0.0
    vertex -1.4499999999999995 -1.4999999999999973 -7.219114195322618e-16
  endloop
endfacet
facet normal -1.0 0.0 0.0
  outer loop
    vertex -1.4499999999999995 -0.6869999999999995 0.0
    vertex -1.4499999999999995 -1.4999999999999964 0.1999999999999991
    vertex -1.4499999999999995 -0.6869999999999998 0.2
  endloop
endfacet
facet normal -8.680365054449721e-18 8.109553345188889e-16 -1.0
  outer loop
    vertex -0.9499999999999996 -0.6869999999999995 0.0
    vertex -1.4499999999999995 -1.4999999999999973 -7.219114195322618e-16
    vertex -1.4499999999999995 -0.6869999999999995 0.0
  endloop
endfacet
facet normal -8.680365054449721e-18 8.109553345188889e-16 -1.0
  outer loop
    vertex -1.4499999999999995 -1.4999999999999973 -7.219114195322618e-16
    vertex -0.9499999999999996 -0.6869999999999995 0.0
    vertex -0.9499999999999996 -1.4999999999999973 -7.219114195322618e-16
  endloop
endfacet
facet normal -1.3126947543119242e-19 4.2385269873200927e-16 -1.0
  outer loop
    vertex -1.4499999999999995 1.4999999999999978 0.20000000000000037
    vertex -1.7500000999999998 0.6869999999999995 0.20000000000000054
    vertex -1.7500000999999998 1.4999999999999978 0.20000000000000037
  endloop
endfacet
facet normal -1.3126947543119242e-19 4.2385269873200927e-16 -1.0
  outer loop
    vertex -1.7500000999999998 0.6869999999999995 0.20000000000000054
    vertex -1.4499999999999995 1.4999999999999978 0.20000000000000037
    vertex -1.6770000999999999 0.24999999999999944 0.20000000000000018
  endloop
endfacet
facet normal -1.3126947543119242e-19 4.2385269873200927e-16 -1.0
  outer loop
    vertex -1.6770000999999999 0.24999999999999944 0.20000000000000018
    vertex -1.4499999999999995 1.4999999999999978 0.20000000000000037
    vertex -1.6770000999999999 -0.24999999999999908 0.19999999999999946
  endloop
endfacet
facet normal -1.3126947543119242e-19 4.2385269873200927e-16 -1.0
  outer loop
    vertex 1.4500000000000002 0.6869999999999995 0.20000000000000054
    vertex 0.9499999999999998 -0.6869999999999998 0.2
    vertex 0.9499999999999998 0.6869999999999995 0.20000000000000054
  endloop
endfacet
facet normal -1.3126947543119242e-19 4.2385269873200927e-16 -1.0
  outer loop
    vertex 0.9499999999999998 -0.6869999999999998 0.2
    vertex 1.4500000000000002 0.6869999999999995 0.20000000000000054
    vertex 1.4500000000000002 -0.6869999999999998 0.2
  endloop
endfacet
facet normal -1.3126947543119242e-19 4.2385269873200927e-16 -1.0
  outer loop
    vertex 0.9499999999999998 1.4999999999999978 0.20000000000000037
    vertex 0.6500000000000001 0.6869999999999995 0.20000000000000054
    vertex 0.6500000000000001 1.4999999999999978 0.20000000000000037
  endloop
endfacet
facet normal -1.3126947543119242e-19 4.2385269873200927e-16 -1.0
  outer loop
    vertex 0.6500000000000001 0.6869999999999995 0.20000000000000054
    vertex 0.9499999999999998 1.4999999999999978 0.20000000000000037
    vertex 0.6500000000000001 -0.6869999999999998 0.2
  endloop
endfacet
facet normal -1.3126947543119242e-19 4.2385269873200927e-16 -1.0
  outer loop
    vertex 0.6500000000000001 -0.6869999999999998 0.2
    vertex 0.9499999999999998 1.4999999999999978 0.20000000000000037
    vertex 0.6500000000000001 -1.4999999999999964 0.1999999999999991
  endloop
endfacet
facet normal -1.3126947543119242e-19 4.2385269873200927e-16 -1.0
  outer loop
    vertex 0.6500000000000001 -1.4999999999999964 0.1999999999999991
    vertex 0.9499999999999998 1.4999999999999978 0.20000000000000037
    vertex 0.9499999999999998 -1.4999999999999964 0.1999999999999991
  endloop
endfacet
facet normal -1.3126947543119242e-19 4.2385269873200927e-16 -1.0
  outer loop
    vertex 0.9499999999999998 -1.4999999999999964 0.1999999999999991
    vertex 0.9499999999999998 1.4999999999999978 0.20000000000000037
    vertex 0.9499999999999998 0.6869999999999995 0.20000000000000054
  endloop
endfacet
facet normal -1.3126947543119242e-19 4.2385269873200927e-16 -1.0
  outer loop
    vertex 0.9499999999999998 -1.4999999999999964 0.1999999999999991
    vertex 0.9499999999999998 0.6869999999999995 0.20000000000000054
    vertex 0.9499999999999998 -0.6869999999999998 0.2
  endloop
endfacet
facet normal -1.3126947543119242e-19 4.2385269873200927e-16 -1.0
  outer loop
    vertex 0.6500000000000001 0.6869999999999995 0.20000000000000054
    vertex 0.15000000000000055 -0.6869999999999998 0.2
    vertex 0.15000000000000055 0.6869999999999995 0.20000000000000054
  endloop
endfacet
facet normal -1.3126947543119242e-19 4.2385269873200927e-16 -1.0
  outer loop
    vertex 0.15000000000000055 -0.6869999999999998 0.2
    vertex 0.6500000000000001 0.6869999999999995 0.20000000000000054
    vertex 0.6500000000000001 -0.6869999999999998 0.2
  endloop
endfacet
facet normal -1.3126947543119242e-19 4.2385269873200927e-16 -1.0
  outer loop
    vertex 0.15000000000000055 1.4999999999999978 0.20000000000000037
    vertex -0.14999999999999983 0.6869999999999995 0.20000000000000054
    vertex -0.14999999999999983 1.4999999999999978 0.20000000000000037
  endloop
endfacet
facet normal -1.3126947543119242e-19 4.2385269873200927e-16 -1.0
  outer loop
    vertex -0.14999999999999983 0.6869999999999995 0.20000000000000054
    vertex 0.15000000000000055 1.4999999999999978 0.20000000000000037
    vertex -0.14999999999999983 -0.6869999999999998 0.2
  endloop
endfacet
facet normal -1.3126947543119242e-19 4.2385269873200927e-16 -1.0
  outer loop
    vertex -0.14999999999999983 -0.6869999999999998 0.2
    vertex 0.15000000000000055 1.4999999999999978 0.20000000000000037
    vertex -0.14999999999999983 -1.4999999999999964 0.1999999999999991
  endloop
endfacet
facet normal -1.3126947543119242e-19 4.2385269873200927e-16 -1.0
  outer loop
    vertex -0.14999999999999983 -1.4999999999999964 0.1999999999999991
    vertex 0.15000000000000055 1.4999999999999978 0.20000000000000037
    vertex 0.15000000000000055 -1.4999999999999964 0.1999999999999991
  endloop
endfacet
facet normal -1.3126947543119242e-19 4.2385269873200927e-16 -1.0
  outer loop
    vertex 0.15000000000000055 -1.4999999999999964 0.1999999999999991
    vertex 0.15000000000000055 1.4999999999999978 0.20000000000000037
    vertex 0.15000000000000055 0.6869999999999995 0.20000000000000054
  endloop
endfacet
facet normal -1.3126947543119242e-19 4.2385269873200927e-16 -1.0
  outer loop
    vertex 0.15000000000000055 -1.4999999999999964 0.1999999999999991
    vertex 0.15000000000000055 0.6869999999999995 0.20000000000000054
    vertex 0.15000000000000055 -0.6869999999999998 0.2
  endloop
endfacet
facet normal -1.3126947543119242e-19 4.2385269873200927e-16 -1.0
  outer loop
    vertex -0.14999999999999983 0.6869999999999995 0.20000000000000054
    vertex -0.6499999999999998 -0.6869999999999998 0.2
    vertex -0.6499999999999998 0.6869999999999995 0.20000000000000054
  endloop
endfacet
facet normal -1.3126947543119242e-19 4.2385269873200927e-16 -1.0
  outer loop
    vertex -0.6499999999999998 -0.6869999999999998 0.2
    vertex -0.14999999999999983 0.6869999999999995 0.20000000000000054
    vertex -0.14999999999999983 -0.6869999999999998 0.2
  endloop
endfacet
facet normal -1.3126947543119242e-19 4.2385269873200927e-16 -1.0
  outer loop
    vertex -0.6499999999999998 1.4999999999999978 0.20000000000000037
    vertex -0.9499999999999996 0.6869999999999995 0.20000000000000054
    vertex -0.9499999999999996 1.4999999999999978 0.20000000000000037
  endloop
endfacet
facet normal -1.3126947543119242e-19 4.2385269873200927e-16 -1.0
  outer loop
    vertex -0.9499999999999996 0.6869999999999995 0.20000000000000054
    vertex -0.6499999999999998 1.4999999999999978 0.20000000000000037
    vertex -0.9499999999999996 -0.6869999999999998 0.2
  endloop
endfacet
facet normal -1.3126947543119242e-19 4.2385269873200927e-16 -1.0
  outer loop
    vertex -0.9499999999999996 -0.6869999999999998 0.2
    vertex -0.6499999999999998 1.4999999999999978 0.20000000000000037
    vertex -0.9499999999999996 -1.4999999999999964 0.1999999999999991
  endloop
endfacet
facet normal -1.3126947543119242e-19 4.2385269873200927e-16 -1.0
  outer loop
    vertex -0.9499999999999996 -1.4999999999999964 0.1999999999999991
    vertex -0.6499999999999998 1.4999999999999978 0.20000000000000037
    vertex -0.6499999999999998 -1.4999999999999964 0.1999999999999991
  endloop
endfacet
facet normal -1.3126947543119242e-19 4.2385269873200927e-16 -1.0
  outer loop
    vertex -0.6499999999999998 -1.4999999999999964 0.1999999999999991
    vertex -0.6499999999999998 1.4999999999999978 0.20000000000000037
    vertex -0.6499999999999998 0.6869999999999995 0.20000000000000054
  endloop
endfacet
facet normal -1.3126947543119242e-19 4.2385269873200927e-16 -1.0
  outer loop
    vertex -0.6499999999999998 -1.4999999999999964 0.1999999999999991
    vertex -0.6499999999999998 0.6869999999999995 0.20000000000000054
    vertex -0.6499999999999998 -0.6869999999999998 0.2
  endloop
endfacet
facet normal -1.3126947543119242e-19 4.2385269873200927e-16 -1.0
  outer loop
    vertex -0.9499999999999996 0.6869999999999995 0.20000000000000054
    vertex -1.4499999999999995 -0.6869999999999998 0.2
    vertex -1.4499999999999995 0.6869999999999995 0.20000000000000054
  endloop
endfacet
facet normal -1.3126947543119242e-19 4.2385269873200927e-16 -1.0
  outer loop
    vertex -1.4499999999999995 -0.6869999999999998 0.2
    vertex -0.9499999999999996 0.6869999999999995 0.20000000000000054
    vertex -0.9499999999999996 -0.6869999999999998 0.2
  endloop
endfacet
facet normal -1.3126947543119242e-19 4.2385269873200927e-16 -1.0
  outer loop
    vertex -2.4899999999999998 -0.24999999999999908 0.19999999999999946
    vertex -2.25 -0.6869999999999998 0.2
    vertex -2.4899999999999998 -1.4999999999999964 0.1999999999999991
  endloop
endfacet
facet normal -1.3126947543119242e-19 4.2385269873200927e-16 -1.0
  outer loop
    vertex -2.25 -0.6869999999999998 0.2
    vertex -2.4899999999999998 -0.24999999999999908 0.19999999999999946
    vertex -1.6770000999999999 -0.24999999999999908 0.19999999999999946
  endloop
endfacet
facet normal -1.3126947543119242e-19 4.2385269873200927e-16 -1.0
  outer loop
    vertex -2.25 -0.6869999999999998 0.2
    vertex -1.6770000999999999 -0.24999999999999908 0.19999999999999946
    vertex -1.7500000999999998 -0.6869999999999998 0.2
  endloop
endfacet
facet normal -1.3126947543119242e-19 4.2385269873200927e-16 -1.0
  outer loop
    vertex -1.7500000999999998 -0.6869999999999998 0.2
    vertex -1.6770000999999999 -0.24999999999999908 0.19999999999999946
    vertex -1.7500000999999998 -1.4999999999999964 0.1999999999999991
  endloop
endfacet
facet normal -1.3126947543119242e-19 4.2385269873200927e-16 -1.0
  outer loop
    vertex -1.7500000999999998 -1.4999999999999964 0.1999999999999991
    vertex -1.6770000999999999 -0.24999999999999908 0.19999999999999946
    vertex -1.4499999999999995 -1.4999999999999964 0.1999999999999991
  endloop
endfacet
facet normal -1.3126947543119242e-19 4.2385269873200927e-16 -1.0
  outer loop
    vertex -1.4499999999999995 -1.4999999999999964 0.1999999999999991
    vertex -1.6770000999999999 -0.24999999999999908 0.19999999999999946
    vertex -1.4499999999999995 1.4999999999999978 0.20000000000000037
  endloop
endfacet
facet normal -1.3126947543119242e-19 4.2385269873200927e-16 -1.0
  outer loop
    vertex -1.4499999999999995 -1.4999999999999964 0.1999999999999991
    vertex -1.4499999999999995 1.4999999999999978 0.20000000000000037
    vertex -1.4499999999999995 0.6869999999999995 0.20000000000000054
  endloop
endfacet
facet normal -1.3126947543119242e-19 4.2385269873200927e-16 -1.0
  outer loop
    vertex -1.4499999999999995 -1.4999999999999964 0.1999999999999991
    vertex -1.4499999999999995 0.6869999999999995 0.20000000000000054
    vertex -1.4499999999999995 -0.6869999999999998 0.2
  endloop
endfacet
facet normal -1.3126947543119242e-19 4.2385269873200927e-16 -1.0
  outer loop
    vertex -2.25 1.4999999999999978 0.20000000000000037
    vertex -2.4899999999999998 0.24999999999999944 0.20000000000000018
    vertex -2.4899999999999998 1.4999999999999978 0.20000000000000037
  endloop
endfacet
facet normal -1.3126947543119242e-19 4.2385269873200927e-16 -1.0
  outer loop
    vertex -2.4899999999999998 0.24999999999999944 0.20000000000000018
    vertex -2.25 1.4999999999999978 0.20000000000000037
    vertex -2.25 0.6869999999999995 0.20000000000000054
  endloop
endfacet
facet normal -1.3126947543119242e-19 4.2385269873200927e-16 -1.0
  outer loop
    vertex -2.4899999999999998 0.24999999999999944 0.20000000000000018
    vertex -2.25 0.6869999999999995 0.20000000000000054
    vertex -1.6770000999999999 0.24999999999999944 0.20000000000000018
  endloop
endfacet
facet normal -1.3126947543119242e-19 4.2385269873200927e-16 -1.0
  outer loop
    vertex -1.6770000999999999 0.24999999999999944 0.20000000000000018
    vertex -2.25 0.6869999999999995 0.20000000000000054
    vertex -1.7500000999999998 0.6869999999999995 0.20000000000000054
  endloop
endfacet
facet normal -1.3126947543119242e-19 4.2385269873200927e-16 -1.0
  outer loop
    vertex 2.5099999999999985 1.4999999999999978 0.20000000000000037
    vertex 2.249999999999998 0.6869999999999995 0.20000000000000054
    vertex 2.249999999999998 1.4999999999999978 0.20000000000000037
  endloop
endfacet
facet normal -1.3126947543119242e-19 4.2385269873200927e-16 -1.0
  outer loop
    vertex 1.7499999999999984 1.4999999999999978 0.20000000000000037
    vertex 1.4500000000000002 0.6869999999999995 0.20000000000000054
    vertex 1.4500000000000002 1.4999999999999978 0.20000000000000037
  endloop
endfacet
facet normal -1.3126947543119242e-19 4.2385269873200927e-16 -1.0
  outer loop
    vertex 1.4500000000000002 0.6869999999999995 0.20000000000000054
    vertex 1.7499999999999984 1.4999999999999978 0.20000000000000037
    vertex 1.4500000000000002 -0.6869999999999998 0.2
  endloop
endfacet
facet normal -1.3126947543119242e-19 4.2385269873200927e-16 -1.0
  outer loop
    vertex 1.4500000000000002 -0.6869999999999998 0.2
    vertex 1.7499999999999984 1.4999999999999978 0.20000000000000037
    vertex 1.4500000000000002 -1.4999999999999964 0.1999999999999991
  endloop
endfacet
facet normal -1.3126947543119242e-19 4.2385269873200927e-16 -1.0
  outer loop
    vertex 1.4500000000000002 -1.4999999999999964 0.1999999999999991
    vertex 1.7499999999999984 1.4999999999999978 0.20000000000000037
    vertex 1.6969999999999996 0.24999999999999944 0.20000000000000018
  endloop
endfacet
facet normal -1.3126947543119242e-19 4.2385269873200927e-16 -1.0
  outer loop
    vertex 1.6969999999999996 0.24999999999999944 0.20000000000000018
    vertex 1.7499999999999984 1.4999999999999978 0.20000000000000037
    vertex 1.7499999999999984 0.6869999999999995 0.20000000000000054
  endloop
endfacet
facet normal -1.3126947543119242e-19 4.2385269873200927e-16 -1.0
  outer loop
    vertex 1.6969999999999996 0.24999999999999944 0.20000000000000018
    vertex 1.7499999999999984 0.6869999999999995 0.20000000000000054
    vertex 2.5099999999999985 0.24999999999999944 0.20000000000000018
  endloop
endfacet
facet normal -1.3126947543119242e-19 4.2385269873200927e-16 -1.0
  outer loop
    vertex 2.5099999999999985 0.24999999999999944 0.20000000000000018
    vertex 1.7499999999999984 0.6869999999999995 0.20000000000000054
    vertex 2.249999999999998 0.6869999999999995 0.20000000000000054
  endloop
endfacet
facet normal -1.3126947543119242e-19 4.2385269873200927e-16 -1.0
  outer loop
    vertex 2.5099999999999985 0.24999999999999944 0.20000000000000018
    vertex 2.249999999999998 0.6869999999999995 0.20000000000000054
    vertex 2.5099999999999985 1.4999999999999978 0.20000000000000037
  endloop
endfacet
facet normal -1.3126947543119242e-19 4.2385269873200927e-16 -1.0
  outer loop
    vertex 2.5099999999999985 -0.24999999999999908 0.19999999999999946
    vertex 1.7499999999999984 -0.6869999999999998 0.2
    vertex 1.6969999999999996 -0.24999999999999908 0.19999999999999946
  endloop
endfacet
facet normal -1.3126947543119242e-19 4.2385269873200927e-16 -1.0
  outer loop
    vertex 1.7499999999999984 -0.6869999999999998 0.2
    vertex 2.5099999999999985 -0.24999999999999908 0.19999999999999946
    vertex 2.249999999999998 -0.6869999999999998 0.2
  endloop
endfacet
facet normal -1.3126947543119242e-19 4.2385269873200927e-16 -1.0
  outer loop
    vertex 2.249999999999998 -0.6869999999999998 0.2
    vertex 2.5099999999999985 -0.24999999999999908 0.19999999999999946
    vertex 2.249999999999998 -1.4999999999999964 0.1999999999999991
  endloop
endfacet
facet normal -1.3126947543119242e-19 4.2385269873200927e-16 -1.0
  outer loop
    vertex 2.249999999999998 -1.4999999999999964 0.1999999999999991
    vertex 2.5099999999999985 -0.24999999999999908 0.19999999999999946
    vertex 2.5099999999999985 -1.4999999999999964 0.1999999999999991
  endloop
endfacet
facet normal -1.3126947543119242e-19 4.2385269873200927e-16 -1.0
  outer loop
    vertex 1.4500000000000002 -1.4999999999999964 0.1999999999999991
    vertex 1.6969999999999996 -0.24999999999999908 0.19999999999999946
    vertex 1.7499999999999984 -1.4999999999999964 0.1999999999999991
  endloop
endfacet
facet normal -1.3126947543119242e-19 4.2385269873200927e-16 -1.0
  outer loop
    vertex 1.6969999999999996 -0.24999999999999908 0.19999999999999946
    vertex 1.4500000000000002 -1.4999999999999964 0.1999999999999991
    vertex 1.6969999999999996 0.24999999999999944 0.20000000000000018
  endloop
endfacet
facet normal -1.3126947543119242e-19 4.2385269873200927e-16 -1.0
  outer loop
    vertex 1.7499999999999984 -1.4999999999999964 0.1999999999999991
    vertex 1.6969999999999996 -0.24999999999999908 0.19999999999999946
    vertex 1.7499999999999984 -0.6869999999999998 0.2
  endloop
endfacet
facet normal -1.3126947543119242e-19 4.2385269873200927e-16 -1.0
  outer loop
    vertex -2.25 -1.4999999999999964 0.1999999999999991
    vertex -2.4899999999999998 -1.4999999999999964 0.1999999999999991
    vertex -2.25 -0.6869999999999998 0.2
  endloop
endfacet
endsolid LGA14_1_1_PATRICK
