solid Exported from Blender-2.72 (sub 0)
facet normal 0.000000 -0.000001 1.000000
outer loop
vertex 4.350000 5.626000 1.250001
vertex 4.350000 5.426000 1.250001
vertex 5.150000 5.426000 1.250001
endloop
endfacet
facet normal 0.000000 -0.000001 1.000000
outer loop
vertex 5.150000 5.426000 1.250001
vertex 5.150000 5.626000 1.250001
vertex 4.350000 5.626000 1.250001
endloop
endfacet
facet normal 0.000000 -0.000000 1.000000
outer loop
vertex 4.350000 5.426000 1.250001
vertex 4.350000 4.226000 1.250001
vertex 5.150000 4.226000 1.250001
endloop
endfacet
facet normal 0.000000 -0.000000 1.000000
outer loop
vertex 5.150000 4.226000 1.250001
vertex 5.150000 5.426000 1.250001
vertex 4.350000 5.426000 1.250001
endloop
endfacet
facet normal 0.000000 0.000000 -1.000000
outer loop
vertex 4.350000 4.226000 0.800001
vertex 4.350000 5.426000 0.800001
vertex 5.150000 5.426000 0.800001
endloop
endfacet
facet normal 0.000000 0.000000 -1.000000
outer loop
vertex 5.150000 5.426000 0.800001
vertex 5.150000 4.226000 0.800001
vertex 4.350000 4.226000 0.800001
endloop
endfacet
facet normal 0.000000 -1.000000 0.000000
outer loop
vertex 4.350000 5.426000 0.850001
vertex 4.350000 5.426000 0.800001
vertex 5.150000 5.426000 0.800001
endloop
endfacet
facet normal 0.000000 -1.000000 0.000000
outer loop
vertex 5.150000 5.426000 0.800001
vertex 5.150000 5.426000 0.850001
vertex 4.350000 5.426000 0.850001
endloop
endfacet
facet normal -0.000000 -0.000000 -1.000000
outer loop
vertex 4.350000 5.426000 0.800001
vertex 4.350000 5.626000 0.800001
vertex 5.150000 5.626000 0.800001
endloop
endfacet
facet normal 0.000000 0.000000 -1.000000
outer loop
vertex 5.150000 5.626000 0.800001
vertex 5.150000 5.426000 0.800001
vertex 4.350000 5.426000 0.800001
endloop
endfacet
facet normal 0.000000 1.000000 0.000000
outer loop
vertex 4.350000 5.626000 0.800001
vertex 4.350000 5.626000 1.250001
vertex 5.150000 5.626000 1.250001
endloop
endfacet
facet normal 0.000000 1.000000 0.000000
outer loop
vertex 5.150000 5.626000 1.250001
vertex 5.150000 5.626000 0.800001
vertex 4.350000 5.626000 0.800001
endloop
endfacet
facet normal 0.000000 -1.000000 0.000000
outer loop
vertex 4.350000 4.226000 1.250001
vertex 4.350000 4.226000 1.200001
vertex 5.150000 4.226000 1.200001
endloop
endfacet
facet normal 0.000000 -1.000000 0.000000
outer loop
vertex 5.150000 4.226000 1.200001
vertex 5.150000 4.226000 1.250001
vertex 4.350000 4.226000 1.250001
endloop
endfacet
facet normal 0.000000 0.000000 -1.000000
outer loop
vertex 4.350000 4.026000 0.800001
vertex 4.350000 4.226000 0.800001
vertex 5.150000 4.226000 0.800001
endloop
endfacet
facet normal 0.000000 0.000000 -1.000000
outer loop
vertex 5.150000 4.226000 0.800001
vertex 5.150000 4.026000 0.800001
vertex 4.350000 4.026000 0.800001
endloop
endfacet
facet normal 0.000000 1.000000 0.000000
outer loop
vertex 4.350000 4.226000 0.800001
vertex 4.350000 4.226000 0.850001
vertex 5.150000 4.226000 0.850001
endloop
endfacet
facet normal 0.000000 1.000000 0.000000
outer loop
vertex 5.150000 4.226000 0.850001
vertex 5.150000 4.226000 0.800001
vertex 4.350000 4.226000 0.800001
endloop
endfacet
facet normal 0.000000 1.000000 0.000000
outer loop
vertex 4.350000 4.226000 0.850001
vertex 4.350000 4.226000 1.200001
vertex 5.150000 4.226000 1.200001
endloop
endfacet
facet normal 0.000000 1.000000 0.000000
outer loop
vertex 5.150000 4.226000 1.200001
vertex 5.150000 4.226000 0.850001
vertex 4.350000 4.226000 0.850001
endloop
endfacet
facet normal 0.000000 -0.000000 1.000000
outer loop
vertex 4.350000 4.226000 1.250001
vertex 4.350000 4.026000 1.250001
vertex 5.150000 4.026000 1.250001
endloop
endfacet
facet normal -0.000000 0.000000 1.000000
outer loop
vertex 5.150000 4.026000 1.250001
vertex 5.150000 4.226000 1.250001
vertex 4.350000 4.226000 1.250001
endloop
endfacet
facet normal 0.000000 -1.000000 0.000000
outer loop
vertex 4.350000 4.026000 1.250001
vertex 4.350000 4.026000 0.800001
vertex 5.150000 4.026000 0.800001
endloop
endfacet
facet normal 0.000000 -1.000000 0.000000
outer loop
vertex 5.150000 4.026000 0.800001
vertex 5.150000 4.026000 1.250001
vertex 4.350000 4.026000 1.250001
endloop
endfacet
facet normal 0.000000 -1.000000 0.000000
outer loop
vertex 4.350000 5.426000 1.200001
vertex 4.350000 5.426000 0.850001
vertex 5.150000 5.426000 0.850001
endloop
endfacet
facet normal 0.000000 -1.000000 0.000000
outer loop
vertex 5.150000 5.426000 0.850001
vertex 5.150000 5.426000 1.200001
vertex 4.350000 5.426000 1.200001
endloop
endfacet
facet normal 0.000000 -1.000000 0.000000
outer loop
vertex 4.350000 5.426000 1.250001
vertex 4.350000 5.426000 1.200001
vertex 5.150000 5.426000 1.200001
endloop
endfacet
facet normal 0.000000 -1.000000 0.000000
outer loop
vertex 5.150000 5.426000 1.200001
vertex 5.150000 5.426000 1.250001
vertex 4.350000 5.426000 1.250001
endloop
endfacet
facet normal -1.000000 0.000000 0.000000
outer loop
vertex 4.350000 4.226000 1.250001
vertex 4.350000 4.026000 0.800001
vertex 4.350000 4.026000 1.250001
endloop
endfacet
facet normal -1.000000 0.000000 0.000000
outer loop
vertex 4.350000 4.226000 0.850001
vertex 4.350000 4.226000 0.800001
vertex 4.350000 4.026000 0.800001
endloop
endfacet
facet normal 0.000000 0.000000 0.000000
outer loop
vertex 4.350000 4.226000 1.250001
vertex 4.350000 4.226000 1.200001
vertex 4.350000 4.226000 0.850001
endloop
endfacet
facet normal -1.000000 0.000000 0.000000
outer loop
vertex 4.350000 4.226000 1.250001
vertex 4.350000 4.226000 0.850001
vertex 4.350000 4.026000 0.800001
endloop
endfacet
facet normal 0.000000 0.000000 0.000000
outer loop
vertex 4.350000 4.226000 1.250001
vertex 4.350000 4.226000 0.850001
vertex 4.350000 4.226000 1.200001
endloop
endfacet
facet normal -1.000000 0.000000 0.000000
outer loop
vertex 4.350000 5.426000 0.800001
vertex 4.350000 4.226000 0.800001
vertex 4.350000 4.226000 0.850001
endloop
endfacet
facet normal 0.000000 0.000000 0.000000
outer loop
vertex 4.350000 5.426000 1.200001
vertex 4.350000 5.426000 0.850001
vertex 4.350000 5.426000 0.800001
endloop
endfacet
facet normal -1.000000 -0.000000 0.000000
outer loop
vertex 4.350000 4.226000 1.250001
vertex 4.350000 5.426000 1.250001
vertex 4.350000 5.426000 1.200001
endloop
endfacet
facet normal -1.000000 0.000000 0.000000
outer loop
vertex 4.350000 4.226000 1.250001
vertex 4.350000 5.426000 0.800001
vertex 4.350000 4.226000 0.850001
endloop
endfacet
facet normal -1.000000 0.000000 0.000000
outer loop
vertex 4.350000 4.226000 1.250001
vertex 4.350000 5.426000 1.200001
vertex 4.350000 5.426000 0.800001
endloop
endfacet
facet normal 0.000000 0.000000 0.000000
outer loop
vertex 4.350000 5.426000 1.250001
vertex 4.350000 5.426000 0.850001
vertex 4.350000 5.426000 1.200001
endloop
endfacet
facet normal -1.000000 0.000000 0.000000
outer loop
vertex 4.350000 5.626000 0.800001
vertex 4.350000 5.426000 0.800001
vertex 4.350000 5.426000 0.850001
endloop
endfacet
facet normal -1.000000 -0.000000 0.000000
outer loop
vertex 4.350000 5.426000 1.250001
vertex 4.350000 5.626000 1.250001
vertex 4.350000 5.626000 0.800001
endloop
endfacet
facet normal -1.000000 0.000000 0.000000
outer loop
vertex 4.350000 5.426000 1.250001
vertex 4.350000 5.626000 0.800001
vertex 4.350000 5.426000 0.850001
endloop
endfacet
facet normal 1.000000 -0.000000 0.000000
outer loop
vertex 5.150000 4.026000 0.800001
vertex 5.150000 4.226000 1.250001
vertex 5.150000 4.026000 1.250001
endloop
endfacet
facet normal 0.000000 0.000000 0.000000
outer loop
vertex 5.150000 4.226000 0.850001
vertex 5.150000 4.226000 1.200001
vertex 5.150000 4.226000 1.250001
endloop
endfacet
facet normal 1.000000 0.000000 0.000000
outer loop
vertex 5.150000 4.026000 0.800001
vertex 5.150000 4.226000 0.800001
vertex 5.150000 4.226000 0.850001
endloop
endfacet
facet normal 1.000000 0.000000 0.000000
outer loop
vertex 5.150000 4.026000 0.800001
vertex 5.150000 4.226000 0.850001
vertex 5.150000 4.226000 1.250001
endloop
endfacet
facet normal 1.000000 -0.000000 0.000000
outer loop
vertex 5.150000 4.226000 1.200001
vertex 5.150000 5.426000 1.250001
vertex 5.150000 4.226000 1.250001
endloop
endfacet
facet normal 0.000000 0.000000 0.000000
outer loop
vertex 5.150000 5.426000 0.850001
vertex 5.150000 5.426000 1.200001
vertex 5.150000 5.426000 1.250001
endloop
endfacet
facet normal 1.000000 0.000000 0.000000
outer loop
vertex 5.150000 4.226000 0.800001
vertex 5.150000 5.426000 0.800001
vertex 5.150000 5.426000 0.850001
endloop
endfacet
facet normal 0.000000 0.000000 0.000000
outer loop
vertex 5.150000 4.226000 1.200001
vertex 5.150000 4.226000 0.850001
vertex 5.150000 4.226000 0.800001
endloop
endfacet
facet normal 1.000000 0.000000 0.000000
outer loop
vertex 5.150000 4.226000 1.200001
vertex 5.150000 5.426000 0.850001
vertex 5.150000 5.426000 1.250001
endloop
endfacet
facet normal 1.000000 0.000000 -0.000000
outer loop
vertex 5.150000 4.226000 1.200001
vertex 5.150000 4.226000 0.800001
vertex 5.150000 5.426000 0.850001
endloop
endfacet
facet normal 1.000000 -0.000000 0.000000
outer loop
vertex 5.150000 5.426000 1.200001
vertex 5.150000 5.626000 1.250001
vertex 5.150000 5.426000 1.250001
endloop
endfacet
facet normal 1.000000 0.000000 0.000000
outer loop
vertex 5.150000 5.426000 0.800001
vertex 5.150000 5.626000 0.800001
vertex 5.150000 5.626000 1.250001
endloop
endfacet
facet normal 0.000000 0.000000 0.000000
outer loop
vertex 5.150000 5.426000 1.200001
vertex 5.150000 5.426000 0.850001
vertex 5.150000 5.426000 0.800001
endloop
endfacet
facet normal 1.000000 0.000000 -0.000000
outer loop
vertex 5.150000 5.426000 1.200001
vertex 5.150000 5.426000 0.800001
vertex 5.150000 5.626000 1.250001
endloop
endfacet
facet normal -0.000000 0.000000 1.000000
outer loop
vertex 7.893000 7.938000 1.250001
vertex 7.893000 8.138000 1.250001
vertex 7.093000 8.138000 1.250001
endloop
endfacet
facet normal 0.000000 -0.000000 1.000000
outer loop
vertex 7.093000 8.138000 1.250001
vertex 7.093000 7.938000 1.250001
vertex 7.893000 7.938000 1.250001
endloop
endfacet
facet normal 0.000000 -0.000000 1.000000
outer loop
vertex 7.893000 8.138000 1.250001
vertex 7.893000 9.338000 1.250002
vertex 7.093000 9.338000 1.250002
endloop
endfacet
facet normal 0.000000 -0.000000 1.000000
outer loop
vertex 7.093000 9.338000 1.250002
vertex 7.093000 8.138000 1.250001
vertex 7.893000 8.138000 1.250001
endloop
endfacet
facet normal 0.000000 0.000000 -1.000000
outer loop
vertex 7.893000 9.338000 0.800002
vertex 7.893000 8.138000 0.800001
vertex 7.093000 8.138000 0.800001
endloop
endfacet
facet normal 0.000000 0.000000 -1.000000
outer loop
vertex 7.093000 8.138000 0.800001
vertex 7.093000 9.338000 0.800002
vertex 7.893000 9.338000 0.800002
endloop
endfacet
facet normal 0.000000 1.000000 0.000000
outer loop
vertex 7.893000 8.138000 0.850001
vertex 7.893000 8.138000 0.800001
vertex 7.093000 8.138000 0.800001
endloop
endfacet
facet normal 0.000000 1.000000 0.000000
outer loop
vertex 7.093000 8.138000 0.800001
vertex 7.093000 8.138000 0.850001
vertex 7.893000 8.138000 0.850001
endloop
endfacet
facet normal 0.000000 0.000000 -1.000000
outer loop
vertex 7.893000 8.138000 0.800001
vertex 7.893000 7.938000 0.800001
vertex 7.093000 7.938000 0.800001
endloop
endfacet
facet normal -0.000000 -0.000000 -1.000000
outer loop
vertex 7.093000 7.938000 0.800001
vertex 7.093000 8.138000 0.800001
vertex 7.893000 8.138000 0.800001
endloop
endfacet
facet normal 0.000000 -1.000000 0.000000
outer loop
vertex 7.893000 7.938000 0.800001
vertex 7.893000 7.938000 1.250001
vertex 7.093000 7.938000 1.250001
endloop
endfacet
facet normal 0.000000 -1.000000 0.000000
outer loop
vertex 7.093000 7.938000 1.250001
vertex 7.093000 7.938000 0.800001
vertex 7.893000 7.938000 0.800001
endloop
endfacet
facet normal 0.000000 1.000000 0.000000
outer loop
vertex 7.893000 9.338000 1.250002
vertex 7.893000 9.338000 1.200002
vertex 7.093000 9.338000 1.200002
endloop
endfacet
facet normal 0.000000 1.000000 0.000000
outer loop
vertex 7.093000 9.338000 1.200002
vertex 7.093000 9.338000 1.250002
vertex 7.893000 9.338000 1.250002
endloop
endfacet
facet normal 0.000000 0.000000 -1.000000
outer loop
vertex 7.893000 9.538000 0.800002
vertex 7.893000 9.338000 0.800002
vertex 7.093000 9.338000 0.800002
endloop
endfacet
facet normal -0.000000 -0.000000 -1.000000
outer loop
vertex 7.093000 9.338000 0.800002
vertex 7.093000 9.538000 0.800002
vertex 7.893000 9.538000 0.800002
endloop
endfacet
facet normal 0.000000 -1.000000 0.000000
outer loop
vertex 7.893000 9.338000 0.800002
vertex 7.893000 9.338000 0.850002
vertex 7.093000 9.338000 0.850002
endloop
endfacet
facet normal 0.000000 -1.000000 0.000000
outer loop
vertex 7.093000 9.338000 0.850002
vertex 7.093000 9.338000 0.800002
vertex 7.893000 9.338000 0.800002
endloop
endfacet
facet normal 0.000000 -1.000000 0.000000
outer loop
vertex 7.893000 9.338000 0.850002
vertex 7.893000 9.338000 1.200002
vertex 7.093000 9.338000 1.200002
endloop
endfacet
facet normal 0.000000 -1.000000 0.000000
outer loop
vertex 7.093000 9.338000 1.200002
vertex 7.093000 9.338000 0.850002
vertex 7.893000 9.338000 0.850002
endloop
endfacet
facet normal -0.000000 0.000000 1.000000
outer loop
vertex 7.893000 9.338000 1.250002
vertex 7.893000 9.538000 1.250002
vertex 7.093000 9.538000 1.250002
endloop
endfacet
facet normal 0.000000 -0.000000 1.000000
outer loop
vertex 7.093000 9.538000 1.250002
vertex 7.093000 9.338000 1.250002
vertex 7.893000 9.338000 1.250002
endloop
endfacet
facet normal 0.000000 1.000000 0.000000
outer loop
vertex 7.893000 9.538000 1.250002
vertex 7.893000 9.538000 0.800002
vertex 7.093000 9.538000 0.800002
endloop
endfacet
facet normal 0.000000 1.000000 0.000000
outer loop
vertex 7.093000 9.538000 0.800002
vertex 7.093000 9.538000 1.250002
vertex 7.893000 9.538000 1.250002
endloop
endfacet
facet normal 0.000000 1.000000 0.000000
outer loop
vertex 7.893000 8.138000 1.200001
vertex 7.893000 8.138000 0.850001
vertex 7.093000 8.138000 0.850001
endloop
endfacet
facet normal 0.000000 1.000000 0.000000
outer loop
vertex 7.093000 8.138000 0.850001
vertex 7.093000 8.138000 1.200001
vertex 7.893000 8.138000 1.200001
endloop
endfacet
facet normal 0.000000 1.000000 0.000000
outer loop
vertex 7.893000 8.138000 1.250001
vertex 7.893000 8.138000 1.200001
vertex 7.093000 8.138000 1.200001
endloop
endfacet
facet normal 0.000000 1.000000 0.000000
outer loop
vertex 7.093000 8.138000 1.200001
vertex 7.093000 8.138000 1.250001
vertex 7.893000 8.138000 1.250001
endloop
endfacet
facet normal 0.000000 0.000000 0.000000
outer loop
vertex 7.093000 9.338000 1.250002
vertex 7.093000 9.338000 0.850002
vertex 7.093000 9.338000 1.200002
endloop
endfacet
facet normal -1.000000 0.000000 0.000000
outer loop
vertex 7.093000 9.538000 0.800002
vertex 7.093000 9.338000 0.800002
vertex 7.093000 9.338000 0.850002
endloop
endfacet
facet normal -1.000000 0.000000 0.000000
outer loop
vertex 7.093000 9.338000 1.250002
vertex 7.093000 9.538000 1.250002
vertex 7.093000 9.538000 0.800002
endloop
endfacet
facet normal -1.000000 0.000000 0.000000
outer loop
vertex 7.093000 9.338000 1.250002
vertex 7.093000 9.538000 0.800002
vertex 7.093000 9.338000 0.850002
endloop
endfacet
facet normal 1.000000 0.000000 -0.000000
outer loop
vertex 7.893000 8.138000 0.850001
vertex 7.893000 7.938000 0.800001
vertex 7.893000 8.138000 0.800001
endloop
endfacet
facet normal 1.000000 0.000000 0.000000
outer loop
vertex 7.893000 8.138000 1.250001
vertex 7.893000 7.938000 1.250001
vertex 7.893000 7.938000 0.800001
endloop
endfacet
facet normal 0.000000 0.000000 0.000000
outer loop
vertex 7.893000 8.138000 0.850001
vertex 7.893000 8.138000 1.200001
vertex 7.893000 8.138000 1.250001
endloop
endfacet
facet normal 1.000000 -0.000000 0.000000
outer loop
vertex 7.893000 8.138000 0.850001
vertex 7.893000 8.138000 1.250001
vertex 7.893000 7.938000 0.800001
endloop
endfacet
facet normal 1.000000 -0.000000 0.000000
outer loop
vertex 7.893000 9.338000 1.200002
vertex 7.893000 9.538000 1.250002
vertex 7.893000 9.338000 1.250002
endloop
endfacet
facet normal 1.000000 0.000000 0.000000
outer loop
vertex 7.893000 9.338000 0.800002
vertex 7.893000 9.538000 0.800002
vertex 7.893000 9.538000 1.250002
endloop
endfacet
facet normal 0.000000 0.000000 0.000000
outer loop
vertex 7.893000 9.338000 1.200002
vertex 7.893000 9.338000 0.850002
vertex 7.893000 9.338000 0.800002
endloop
endfacet
facet normal 1.000000 0.000000 -0.000000
outer loop
vertex 7.893000 9.338000 1.200002
vertex 7.893000 9.338000 0.800002
vertex 7.893000 9.538000 1.250002
endloop
endfacet
facet normal 0.000000 0.000000 0.000000
outer loop
vertex 7.893000 8.138000 0.800001
vertex 7.893000 8.138000 1.200001
vertex 7.893000 8.138000 0.850001
endloop
endfacet
facet normal 1.000000 0.000000 0.000000
outer loop
vertex 7.893000 9.338000 1.250002
vertex 7.893000 8.138000 1.250001
vertex 7.893000 8.138000 1.200001
endloop
endfacet
facet normal 0.000000 0.000000 0.000000
outer loop
vertex 7.893000 9.338000 0.850002
vertex 7.893000 9.338000 1.200002
vertex 7.893000 9.338000 1.250002
endloop
endfacet
facet normal 1.000000 0.000000 0.000000
outer loop
vertex 7.893000 8.138000 0.800001
vertex 7.893000 9.338000 0.800002
vertex 7.893000 9.338000 0.850002
endloop
endfacet
facet normal 1.000000 -0.000000 0.000000
outer loop
vertex 7.893000 8.138000 0.800001
vertex 7.893000 9.338000 1.250002
vertex 7.893000 8.138000 1.200001
endloop
endfacet
facet normal 1.000000 0.000000 0.000000
outer loop
vertex 7.893000 8.138000 0.800001
vertex 7.893000 9.338000 0.850002
vertex 7.893000 9.338000 1.250002
endloop
endfacet
facet normal -1.000000 0.000000 0.000000
outer loop
vertex 7.093000 8.138000 1.250001
vertex 7.093000 7.938000 0.800001
vertex 7.093000 7.938000 1.250001
endloop
endfacet
facet normal -1.000000 0.000000 0.000000
outer loop
vertex 7.093000 8.138000 0.850001
vertex 7.093000 8.138000 0.800001
vertex 7.093000 7.938000 0.800001
endloop
endfacet
facet normal 0.000000 0.000000 0.000000
outer loop
vertex 7.093000 8.138000 1.250001
vertex 7.093000 8.138000 1.200001
vertex 7.093000 8.138000 0.850001
endloop
endfacet
facet normal -1.000000 0.000000 0.000000
outer loop
vertex 7.093000 8.138000 1.250001
vertex 7.093000 8.138000 0.850001
vertex 7.093000 7.938000 0.800001
endloop
endfacet
facet normal 0.000000 0.000000 0.000000
outer loop
vertex 7.093000 8.138000 1.250001
vertex 7.093000 8.138000 0.850001
vertex 7.093000 8.138000 1.200001
endloop
endfacet
facet normal -1.000000 0.000000 0.000000
outer loop
vertex 7.093000 9.338000 0.800002
vertex 7.093000 8.138000 0.800001
vertex 7.093000 8.138000 0.850001
endloop
endfacet
facet normal 0.000000 0.000000 0.000000
outer loop
vertex 7.093000 9.338000 1.200002
vertex 7.093000 9.338000 0.850002
vertex 7.093000 9.338000 0.800002
endloop
endfacet
facet normal -1.000000 -0.000000 0.000000
outer loop
vertex 7.093000 8.138000 1.250001
vertex 7.093000 9.338000 1.250002
vertex 7.093000 9.338000 1.200002
endloop
endfacet
facet normal -1.000000 0.000000 0.000000
outer loop
vertex 7.093000 8.138000 1.250001
vertex 7.093000 9.338000 0.800002
vertex 7.093000 8.138000 0.850001
endloop
endfacet
facet normal -1.000000 0.000000 0.000000
outer loop
vertex 7.093000 8.138000 1.250001
vertex 7.093000 9.338000 1.200002
vertex 7.093000 9.338000 0.800002
endloop
endfacet
facet normal -0.000000 0.000000 -1.000000
outer loop
vertex 11.430000 17.780001 -0.799997
vertex 12.573000 14.986000 -0.799998
vertex 11.430000 0.000000 -0.800000
endloop
endfacet
facet normal -0.000000 0.000000 -1.000000
outer loop
vertex 12.573000 14.986000 -0.799998
vertex 11.430000 17.780001 -0.799997
vertex 12.794200 15.811500 -0.799997
endloop
endfacet
facet normal 0.000000 0.000000 -1.000000
outer loop
vertex 12.794200 15.811500 -0.799997
vertex 11.430000 17.780001 -0.799997
vertex 13.398500 16.415800 -0.799997
endloop
endfacet
facet normal 0.000000 0.000000 -1.000000
outer loop
vertex 13.398500 16.415800 -0.799997
vertex 11.430000 17.780001 -0.799997
vertex 17.018000 17.780001 -0.799997
endloop
endfacet
facet normal -0.000000 1.000000 0.000000
outer loop
vertex 17.018000 17.780001 -0.799997
vertex 11.430000 17.780001 -0.799997
vertex 11.430000 17.780001 0.800003
endloop
endfacet
facet normal 0.000000 1.000000 -0.000000
outer loop
vertex 11.430000 17.780001 0.800003
vertex 17.018000 17.780001 0.800003
vertex 17.018000 17.780001 -0.799997
endloop
endfacet
facet normal 0.000000 -0.000000 1.000000
outer loop
vertex 11.430000 17.780001 0.800003
vertex 13.398500 16.415800 0.800003
vertex 17.018000 17.780001 0.800003
endloop
endfacet
facet normal -0.000000 -0.000000 1.000000
outer loop
vertex 13.398500 16.415800 0.800003
vertex 11.430000 17.780001 0.800003
vertex 12.794200 15.811500 0.800003
endloop
endfacet
facet normal 0.000000 -0.000000 1.000000
outer loop
vertex 12.794200 15.811500 0.800003
vertex 11.430000 17.780001 0.800003
vertex 12.573000 14.986000 0.800002
endloop
endfacet
facet normal 0.000000 -0.000000 1.000000
outer loop
vertex 12.573000 14.986000 0.800002
vertex 11.430000 17.780001 0.800003
vertex 12.573000 2.794000 0.800000
endloop
endfacet
facet normal -0.000000 -0.000000 1.000000
outer loop
vertex 11.430000 -0.000000 0.800000
vertex 12.573000 2.794000 0.800000
vertex 11.430000 17.780001 0.800003
endloop
endfacet
facet normal 0.000000 -0.000000 1.000000
outer loop
vertex 12.573000 2.794000 0.800000
vertex 11.430000 -0.000000 0.800000
vertex 12.794200 1.968500 0.800000
endloop
endfacet
facet normal -0.000000 -0.000000 1.000000
outer loop
vertex 12.794200 1.968500 0.800000
vertex 11.430000 -0.000000 0.800000
vertex 13.398500 1.364190 0.800000
endloop
endfacet
facet normal 0.000000 -0.000000 1.000000
outer loop
vertex 13.398500 1.364190 0.800000
vertex 11.430000 -0.000000 0.800000
vertex 17.018000 -0.000000 0.800000
endloop
endfacet
facet normal 0.000000 -1.000000 -0.000000
outer loop
vertex 17.018000 -0.000000 0.800000
vertex 11.430000 -0.000000 0.800000
vertex 11.430000 0.000000 -0.800000
endloop
endfacet
facet normal -0.000000 -1.000000 -0.000000
outer loop
vertex 11.430000 0.000000 -0.800000
vertex 17.018000 0.000000 -0.800000
vertex 17.018000 -0.000000 0.800000
endloop
endfacet
facet normal -1.000000 0.000000 0.000000
outer loop
vertex 11.430000 17.780001 -0.799997
vertex 11.430000 0.000000 -0.800000
vertex 11.430000 -0.000000 0.800000
endloop
endfacet
facet normal -1.000000 -0.000000 0.000000
outer loop
vertex 11.430000 -0.000000 0.800000
vertex 11.430000 17.780001 0.800003
vertex 11.430000 17.780001 -0.799997
endloop
endfacet
facet normal 0.000000 0.000000 -1.000000
outer loop
vertex 11.430000 0.000000 -0.800000
vertex 13.398500 1.364190 -0.800000
vertex 17.018000 0.000000 -0.800000
endloop
endfacet
facet normal 0.000000 0.000000 -1.000000
outer loop
vertex 13.398500 1.364190 -0.800000
vertex 11.430000 0.000000 -0.800000
vertex 12.794200 1.968500 -0.800000
endloop
endfacet
facet normal -0.000000 0.000000 -1.000000
outer loop
vertex 12.794200 1.968500 -0.800000
vertex 11.430000 0.000000 -0.800000
vertex 12.573000 2.794000 -0.800000
endloop
endfacet
facet normal 0.000000 0.000000 -1.000000
outer loop
vertex 12.573000 2.794000 -0.800000
vertex 11.430000 0.000000 -0.800000
vertex 12.573000 14.986000 -0.799998
endloop
endfacet
facet normal 0.000000 0.000000 -1.000000
outer loop
vertex 12.794200 14.160500 -0.799998
vertex 12.573000 2.794000 -0.800000
vertex 12.573000 14.986000 -0.799998
endloop
endfacet
facet normal -0.000000 0.000000 -1.000000
outer loop
vertex 12.573000 2.794000 -0.800000
vertex 12.794200 14.160500 -0.799998
vertex 12.794200 3.619500 -0.799999
endloop
endfacet
facet normal -0.000000 0.000000 -1.000000
outer loop
vertex 12.794200 3.619500 -0.799999
vertex 12.794200 14.160500 -0.799998
vertex 13.398500 13.556200 -0.799998
endloop
endfacet
facet normal 0.707106 0.707107 -0.000000
outer loop
vertex 12.794200 14.160500 0.800002
vertex 13.398500 13.556200 0.800002
vertex 13.398500 13.556200 -0.799998
endloop
endfacet
facet normal 0.707106 0.707107 0.000000
outer loop
vertex 13.398500 13.556200 -0.799998
vertex 12.794200 14.160500 -0.799998
vertex 12.794200 14.160500 0.800002
endloop
endfacet
facet normal 0.000000 -0.000000 1.000000
outer loop
vertex 12.794200 14.160500 0.800002
vertex 13.398500 4.223810 0.800001
vertex 13.398500 13.556200 0.800002
endloop
endfacet
facet normal -0.000000 -0.000000 1.000000
outer loop
vertex 12.794200 14.160500 0.800002
vertex 12.794200 3.619500 0.800001
vertex 13.398500 4.223810 0.800001
endloop
endfacet
facet normal -0.000000 -0.000000 1.000000
outer loop
vertex 12.573000 14.986000 0.800002
vertex 12.794200 3.619500 0.800001
vertex 12.794200 14.160500 0.800002
endloop
endfacet
facet normal 0.000000 -0.000000 1.000000
outer loop
vertex 12.794200 3.619500 0.800001
vertex 12.573000 14.986000 0.800002
vertex 12.573000 2.794000 0.800000
endloop
endfacet
facet normal 0.965924 -0.258828 -0.000000
outer loop
vertex 12.794200 3.619500 0.800001
vertex 12.573000 2.794000 0.800000
vertex 12.573000 2.794000 -0.800000
endloop
endfacet
facet normal 0.965924 -0.258828 -0.000000
outer loop
vertex 12.573000 2.794000 -0.800000
vertex 12.794200 3.619500 -0.799999
vertex 12.794200 3.619500 0.800001
endloop
endfacet
facet normal 0.965923 0.258828 0.000000
outer loop
vertex 12.573000 2.794000 0.800000
vertex 12.794200 1.968500 0.800000
vertex 12.794200 1.968500 -0.800000
endloop
endfacet
facet normal 0.965924 0.258828 0.000000
outer loop
vertex 12.794200 1.968500 -0.800000
vertex 12.573000 2.794000 -0.800000
vertex 12.573000 2.794000 0.800000
endloop
endfacet
facet normal 0.707112 0.707101 0.000000
outer loop
vertex 12.794200 1.968500 0.800000
vertex 13.398500 1.364190 0.800000
vertex 13.398500 1.364190 -0.800000
endloop
endfacet
facet normal 0.707112 0.707101 0.000000
outer loop
vertex 13.398500 1.364190 -0.800000
vertex 12.794200 1.968500 -0.800000
vertex 12.794200 1.968500 0.800000
endloop
endfacet
facet normal 0.258817 0.965926 0.000000
outer loop
vertex 13.398500 1.364190 0.800000
vertex 14.224000 1.143000 0.800000
vertex 14.224000 1.143000 -0.800000
endloop
endfacet
facet normal 0.258817 0.965926 0.000000
outer loop
vertex 14.224000 1.143000 -0.800000
vertex 13.398500 1.364190 -0.800000
vertex 13.398500 1.364190 0.800000
endloop
endfacet
facet normal 0.000000 0.000000 1.000000
outer loop
vertex 13.398500 1.364190 0.800000
vertex 17.018000 -0.000000 0.800000
vertex 14.224000 1.143000 0.800000
endloop
endfacet
facet normal -0.000000 -0.000000 1.000000
outer loop
vertex 14.224000 1.143000 0.800000
vertex 17.018000 -0.000000 0.800000
vertex 15.049500 1.364190 0.800000
endloop
endfacet
facet normal 0.000000 -0.000000 1.000000
outer loop
vertex 15.049500 1.364190 0.800000
vertex 17.018000 -0.000000 0.800000
vertex 15.653800 1.968500 0.800000
endloop
endfacet
facet normal -0.000000 -0.000000 1.000000
outer loop
vertex 15.653800 1.968500 0.800000
vertex 17.018000 -0.000000 0.800000
vertex 15.875000 2.794000 0.800000
endloop
endfacet
facet normal 0.000000 -0.000000 1.000000
outer loop
vertex 15.875000 2.794000 0.800000
vertex 17.018000 -0.000000 0.800000
vertex 15.875000 14.986000 0.800002
endloop
endfacet
facet normal -0.000000 -0.000000 1.000000
outer loop
vertex 17.018000 17.780001 0.800003
vertex 15.875000 14.986000 0.800002
vertex 17.018000 -0.000000 0.800000
endloop
endfacet
facet normal -0.000000 -0.000000 1.000000
outer loop
vertex 17.018000 17.780001 0.800003
vertex 15.653800 15.811500 0.800003
vertex 15.875000 14.986000 0.800002
endloop
endfacet
facet normal 0.000000 -0.000000 1.000000
outer loop
vertex 17.018000 17.780001 0.800003
vertex 15.049500 16.415800 0.800003
vertex 15.653800 15.811500 0.800003
endloop
endfacet
facet normal -0.000000 -0.000000 1.000000
outer loop
vertex 17.018000 17.780001 0.800003
vertex 14.224000 16.636999 0.800003
vertex 15.049500 16.415800 0.800003
endloop
endfacet
facet normal 0.000000 -0.000001 1.000000
outer loop
vertex 17.018000 17.780001 0.800003
vertex 13.398500 16.415800 0.800003
vertex 14.224000 16.636999 0.800003
endloop
endfacet
facet normal 0.258827 -0.965924 0.000000
outer loop
vertex 14.224000 16.636999 0.800003
vertex 13.398500 16.415800 0.800003
vertex 13.398500 16.415800 -0.799997
endloop
endfacet
facet normal 0.258827 -0.965924 0.000000
outer loop
vertex 13.398500 16.415800 -0.799997
vertex 14.224000 16.636999 -0.799997
vertex 14.224000 16.636999 0.800003
endloop
endfacet
facet normal 0.707107 -0.707107 0.000000
outer loop
vertex 13.398500 16.415800 0.800003
vertex 12.794200 15.811500 0.800003
vertex 12.794200 15.811500 -0.799997
endloop
endfacet
facet normal 0.707107 -0.707107 0.000000
outer loop
vertex 12.794200 15.811500 -0.799997
vertex 13.398500 16.415800 -0.799997
vertex 13.398500 16.415800 0.800003
endloop
endfacet
facet normal 0.965923 -0.258828 0.000000
outer loop
vertex 12.794200 15.811500 0.800003
vertex 12.573000 14.986000 0.800002
vertex 12.573000 14.986000 -0.799998
endloop
endfacet
facet normal 0.965923 -0.258828 0.000000
outer loop
vertex 12.573000 14.986000 -0.799998
vertex 12.794200 15.811500 -0.799997
vertex 12.794200 15.811500 0.800003
endloop
endfacet
facet normal 0.965924 0.258828 -0.000000
outer loop
vertex 12.573000 14.986000 0.800002
vertex 12.794200 14.160500 0.800002
vertex 12.794200 14.160500 -0.799998
endloop
endfacet
facet normal 0.965924 0.258828 0.000000
outer loop
vertex 12.794200 14.160500 -0.799998
vertex 12.573000 14.986000 -0.799998
vertex 12.573000 14.986000 0.800002
endloop
endfacet
facet normal -0.000000 0.000001 -1.000000
outer loop
vertex 13.398500 16.415800 -0.799997
vertex 17.018000 17.780001 -0.799997
vertex 14.224000 16.636999 -0.799997
endloop
endfacet
facet normal 0.000000 0.000000 -1.000000
outer loop
vertex 14.224000 16.636999 -0.799997
vertex 17.018000 17.780001 -0.799997
vertex 15.049500 16.415800 -0.799997
endloop
endfacet
facet normal -0.000000 0.000000 -1.000000
outer loop
vertex 15.049500 16.415800 -0.799997
vertex 17.018000 17.780001 -0.799997
vertex 15.653800 15.811500 -0.799997
endloop
endfacet
facet normal 0.000000 0.000000 -1.000000
outer loop
vertex 15.653800 15.811500 -0.799997
vertex 17.018000 17.780001 -0.799997
vertex 15.875000 14.986000 -0.799998
endloop
endfacet
facet normal 0.000000 0.000000 -1.000000
outer loop
vertex 15.875000 14.986000 -0.799998
vertex 17.018000 17.780001 -0.799997
vertex 15.875000 2.794000 -0.800000
endloop
endfacet
facet normal -0.000000 0.000000 -1.000000
outer loop
vertex 17.018000 0.000000 -0.800000
vertex 15.875000 2.794000 -0.800000
vertex 17.018000 17.780001 -0.799997
endloop
endfacet
facet normal 0.000000 0.000000 -1.000000
outer loop
vertex 17.018000 0.000000 -0.800000
vertex 15.653800 1.968500 -0.800000
vertex 15.875000 2.794000 -0.800000
endloop
endfacet
facet normal -0.000000 0.000000 -1.000000
outer loop
vertex 17.018000 0.000000 -0.800000
vertex 15.049500 1.364190 -0.800000
vertex 15.653800 1.968500 -0.800000
endloop
endfacet
facet normal 0.000000 0.000000 -1.000000
outer loop
vertex 17.018000 0.000000 -0.800000
vertex 14.224000 1.143000 -0.800000
vertex 15.049500 1.364190 -0.800000
endloop
endfacet
facet normal -0.000000 -0.000000 -1.000000
outer loop
vertex 17.018000 0.000000 -0.800000
vertex 13.398500 1.364190 -0.800000
vertex 14.224000 1.143000 -0.800000
endloop
endfacet
facet normal -0.258817 0.965926 0.000000
outer loop
vertex 14.224000 1.143000 0.800000
vertex 15.049500 1.364190 0.800000
vertex 15.049500 1.364190 -0.800000
endloop
endfacet
facet normal -0.258817 0.965926 0.000000
outer loop
vertex 15.049500 1.364190 -0.800000
vertex 14.224000 1.143000 -0.800000
vertex 14.224000 1.143000 0.800000
endloop
endfacet
facet normal -0.707113 0.707101 0.000000
outer loop
vertex 15.049500 1.364190 0.800000
vertex 15.653800 1.968500 0.800000
vertex 15.653800 1.968500 -0.800000
endloop
endfacet
facet normal -0.707113 0.707101 0.000000
outer loop
vertex 15.653800 1.968500 -0.800000
vertex 15.049500 1.364190 -0.800000
vertex 15.049500 1.364190 0.800000
endloop
endfacet
facet normal -0.965923 0.258828 0.000000
outer loop
vertex 15.653800 1.968500 0.800000
vertex 15.875000 2.794000 0.800000
vertex 15.875000 2.794000 -0.800000
endloop
endfacet
facet normal -0.965924 0.258828 0.000000
outer loop
vertex 15.875000 2.794000 -0.800000
vertex 15.653800 1.968500 -0.800000
vertex 15.653800 1.968500 0.800000
endloop
endfacet
facet normal -0.965924 -0.258828 -0.000000
outer loop
vertex 15.875000 2.794000 0.800000
vertex 15.653800 3.619500 0.800001
vertex 15.653800 3.619500 -0.799999
endloop
endfacet
facet normal -0.965924 -0.258828 -0.000000
outer loop
vertex 15.653800 3.619500 -0.799999
vertex 15.875000 2.794000 -0.800000
vertex 15.875000 2.794000 0.800000
endloop
endfacet
facet normal -0.000000 -0.000000 1.000000
outer loop
vertex 15.653800 14.160500 0.800002
vertex 15.653800 3.619500 0.800001
vertex 15.875000 2.794000 0.800000
endloop
endfacet
facet normal -0.000000 -0.000000 1.000000
outer loop
vertex 15.049500 13.556200 0.800002
vertex 15.653800 3.619500 0.800001
vertex 15.653800 14.160500 0.800002
endloop
endfacet
facet normal 0.000000 -0.000000 1.000000
outer loop
vertex 15.049500 13.556200 0.800002
vertex 15.049500 4.223810 0.800001
vertex 15.653800 3.619500 0.800001
endloop
endfacet
facet normal -0.000000 -0.000000 1.000000
outer loop
vertex 14.224000 13.335000 0.800002
vertex 15.049500 4.223810 0.800001
vertex 15.049500 13.556200 0.800002
endloop
endfacet
facet normal -0.000000 -0.000000 1.000000
outer loop
vertex 14.224000 13.335000 0.800002
vertex 14.224000 4.445000 0.800001
vertex 15.049500 4.223810 0.800001
endloop
endfacet
facet normal 0.000000 -0.000000 1.000000
outer loop
vertex 13.398500 13.556200 0.800002
vertex 14.224000 4.445000 0.800001
vertex 14.224000 13.335000 0.800002
endloop
endfacet
facet normal 0.000000 -0.000000 1.000000
outer loop
vertex 13.398500 13.556200 0.800002
vertex 13.398500 4.223810 0.800001
vertex 14.224000 4.445000 0.800001
endloop
endfacet
facet normal 0.258817 -0.965926 0.000000
outer loop
vertex 14.224000 4.445000 0.800001
vertex 13.398500 4.223810 0.800001
vertex 13.398500 4.223810 -0.799999
endloop
endfacet
facet normal 0.258817 -0.965926 0.000000
outer loop
vertex 13.398500 4.223810 -0.799999
vertex 14.224000 4.445000 -0.799999
vertex 14.224000 4.445000 0.800001
endloop
endfacet
facet normal 0.707113 -0.707101 -0.000000
outer loop
vertex 13.398500 4.223810 0.800001
vertex 12.794200 3.619500 0.800001
vertex 12.794200 3.619500 -0.799999
endloop
endfacet
facet normal 0.707112 -0.707101 0.000000
outer loop
vertex 12.794200 3.619500 -0.799999
vertex 13.398500 4.223810 -0.799999
vertex 13.398500 4.223810 0.800001
endloop
endfacet
facet normal 0.000000 0.000000 -1.000000
outer loop
vertex 12.794200 3.619500 -0.799999
vertex 13.398500 13.556200 -0.799998
vertex 13.398500 4.223810 -0.799999
endloop
endfacet
facet normal -0.000000 0.000000 -1.000000
outer loop
vertex 13.398500 4.223810 -0.799999
vertex 13.398500 13.556200 -0.799998
vertex 14.224000 13.335000 -0.799998
endloop
endfacet
facet normal 0.258828 0.965923 -0.000000
outer loop
vertex 13.398500 13.556200 0.800002
vertex 14.224000 13.335000 0.800002
vertex 14.224000 13.335000 -0.799998
endloop
endfacet
facet normal 0.258828 0.965923 0.000000
outer loop
vertex 14.224000 13.335000 -0.799998
vertex 13.398500 13.556200 -0.799998
vertex 13.398500 13.556200 0.800002
endloop
endfacet
facet normal -0.258828 0.965924 0.000000
outer loop
vertex 14.224000 13.335000 0.800002
vertex 15.049500 13.556200 0.800002
vertex 15.049500 13.556200 -0.799998
endloop
endfacet
facet normal -0.258828 0.965924 0.000000
outer loop
vertex 15.049500 13.556200 -0.799998
vertex 14.224000 13.335000 -0.799998
vertex 14.224000 13.335000 0.800002
endloop
endfacet
facet normal -0.707107 0.707107 0.000000
outer loop
vertex 15.049500 13.556200 0.800002
vertex 15.653800 14.160500 0.800002
vertex 15.653800 14.160500 -0.799998
endloop
endfacet
facet normal -0.707107 0.707107 0.000000
outer loop
vertex 15.653800 14.160500 -0.799998
vertex 15.049500 13.556200 -0.799998
vertex 15.049500 13.556200 0.800002
endloop
endfacet
facet normal -0.965924 0.258828 0.000000
outer loop
vertex 15.653800 14.160500 0.800002
vertex 15.875000 14.986000 0.800002
vertex 15.875000 14.986000 -0.799998
endloop
endfacet
facet normal -0.965924 0.258828 0.000000
outer loop
vertex 15.875000 14.986000 -0.799998
vertex 15.653800 14.160500 -0.799998
vertex 15.653800 14.160500 0.800002
endloop
endfacet
facet normal 0.000000 -0.000000 1.000000
outer loop
vertex 15.653800 14.160500 0.800002
vertex 15.875000 2.794000 0.800000
vertex 15.875000 14.986000 0.800002
endloop
endfacet
facet normal -0.965923 -0.258828 0.000000
outer loop
vertex 15.875000 14.986000 0.800002
vertex 15.653800 15.811500 0.800003
vertex 15.653800 15.811500 -0.799997
endloop
endfacet
facet normal -0.965923 -0.258828 -0.000000
outer loop
vertex 15.653800 15.811500 -0.799997
vertex 15.875000 14.986000 -0.799998
vertex 15.875000 14.986000 0.800002
endloop
endfacet
facet normal -0.707107 -0.707106 0.000000
outer loop
vertex 15.653800 15.811500 0.800003
vertex 15.049500 16.415800 0.800003
vertex 15.049500 16.415800 -0.799997
endloop
endfacet
facet normal -0.707107 -0.707106 -0.000000
outer loop
vertex 15.049500 16.415800 -0.799997
vertex 15.653800 15.811500 -0.799997
vertex 15.653800 15.811500 0.800003
endloop
endfacet
facet normal -0.258827 -0.965924 0.000000
outer loop
vertex 15.049500 16.415800 0.800003
vertex 14.224000 16.636999 0.800003
vertex 14.224000 16.636999 -0.799997
endloop
endfacet
facet normal -0.258827 -0.965924 -0.000000
outer loop
vertex 14.224000 16.636999 -0.799997
vertex 15.049500 16.415800 -0.799997
vertex 15.049500 16.415800 0.800003
endloop
endfacet
facet normal -0.000000 0.000000 -1.000000
outer loop
vertex 15.653800 3.619500 -0.799999
vertex 15.653800 14.160500 -0.799998
vertex 15.875000 14.986000 -0.799998
endloop
endfacet
facet normal -0.000000 0.000000 -1.000000
outer loop
vertex 15.049500 4.223810 -0.799999
vertex 15.653800 14.160500 -0.799998
vertex 15.653800 3.619500 -0.799999
endloop
endfacet
facet normal 0.000000 0.000000 -1.000000
outer loop
vertex 15.049500 4.223810 -0.799999
vertex 15.049500 13.556200 -0.799998
vertex 15.653800 14.160500 -0.799998
endloop
endfacet
facet normal 0.000000 0.000000 -1.000000
outer loop
vertex 14.224000 4.445000 -0.799999
vertex 15.049500 13.556200 -0.799998
vertex 15.049500 4.223810 -0.799999
endloop
endfacet
facet normal 0.000000 0.000000 -1.000000
outer loop
vertex 14.224000 4.445000 -0.799999
vertex 14.224000 13.335000 -0.799998
vertex 15.049500 13.556200 -0.799998
endloop
endfacet
facet normal -0.000000 0.000000 -1.000000
outer loop
vertex 13.398500 4.223810 -0.799999
vertex 14.224000 13.335000 -0.799998
vertex 14.224000 4.445000 -0.799999
endloop
endfacet
facet normal -0.258817 -0.965926 0.000000
outer loop
vertex 15.049500 4.223810 0.800001
vertex 14.224000 4.445000 0.800001
vertex 14.224000 4.445000 -0.799999
endloop
endfacet
facet normal -0.258817 -0.965926 -0.000000
outer loop
vertex 14.224000 4.445000 -0.799999
vertex 15.049500 4.223810 -0.799999
vertex 15.049500 4.223810 0.800001
endloop
endfacet
facet normal -0.707113 -0.707100 0.000000
outer loop
vertex 15.653800 3.619500 0.800001
vertex 15.049500 4.223810 0.800001
vertex 15.049500 4.223810 -0.799999
endloop
endfacet
facet normal -0.707113 -0.707101 -0.000000
outer loop
vertex 15.049500 4.223810 -0.799999
vertex 15.653800 3.619500 -0.799999
vertex 15.653800 3.619500 0.800001
endloop
endfacet
facet normal 0.000000 0.000000 -1.000000
outer loop
vertex 15.653800 3.619500 -0.799999
vertex 15.875000 14.986000 -0.799998
vertex 15.875000 2.794000 -0.800000
endloop
endfacet
facet normal 1.000000 0.000000 -0.000000
outer loop
vertex 17.018000 17.780001 0.800003
vertex 17.018000 -0.000000 0.800000
vertex 17.018000 0.000000 -0.800000
endloop
endfacet
facet normal 1.000000 0.000000 0.000000
outer loop
vertex 17.018000 0.000000 -0.800000
vertex 17.018000 17.780001 -0.799997
vertex 17.018000 17.780001 0.800003
endloop
endfacet
facet normal 0.000000 -0.000000 1.000000
outer loop
vertex 2.730000 14.624000 1.250002
vertex 2.530000 14.624000 1.250002
vertex 2.530000 13.824000 1.250002
endloop
endfacet
facet normal 0.000000 -0.000000 1.000000
outer loop
vertex 2.530000 13.824000 1.250002
vertex 2.730000 13.824000 1.250002
vertex 2.730000 14.624000 1.250002
endloop
endfacet
facet normal 0.000000 -0.000000 1.000000
outer loop
vertex 2.530000 14.624000 1.250002
vertex 1.330000 14.624000 1.250002
vertex 1.330000 13.824000 1.250002
endloop
endfacet
facet normal 0.000000 -0.000000 1.000000
outer loop
vertex 1.330000 13.824000 1.250002
vertex 2.530000 13.824000 1.250002
vertex 2.530000 14.624000 1.250002
endloop
endfacet
facet normal 0.000000 0.000000 -1.000000
outer loop
vertex 1.330000 14.624000 0.800002
vertex 2.530000 14.624000 0.800002
vertex 2.530000 13.824000 0.800002
endloop
endfacet
facet normal 0.000000 0.000000 -1.000000
outer loop
vertex 2.530000 13.824000 0.800002
vertex 1.330000 13.824000 0.800002
vertex 1.330000 14.624000 0.800002
endloop
endfacet
facet normal -1.000000 0.000000 0.000000
outer loop
vertex 2.530000 14.624000 0.850002
vertex 2.530000 14.624000 0.800002
vertex 2.530000 13.824000 0.800002
endloop
endfacet
facet normal -1.000000 0.000000 -0.000000
outer loop
vertex 2.530000 13.824000 0.800002
vertex 2.530000 13.824000 0.850002
vertex 2.530000 14.624000 0.850002
endloop
endfacet
facet normal 0.000000 0.000000 -1.000000
outer loop
vertex 2.530000 14.624000 0.800002
vertex 2.730000 14.624000 0.800002
vertex 2.730000 13.824000 0.800002
endloop
endfacet
facet normal 0.000000 0.000000 -1.000000
outer loop
vertex 2.730000 13.824000 0.800002
vertex 2.530000 13.824000 0.800002
vertex 2.530000 14.624000 0.800002
endloop
endfacet
facet normal 1.000000 -0.000000 0.000000
outer loop
vertex 2.730000 14.624000 0.800002
vertex 2.730000 14.624000 1.250002
vertex 2.730000 13.824000 1.250002
endloop
endfacet
facet normal 1.000000 0.000000 -0.000000
outer loop
vertex 2.730000 13.824000 1.250002
vertex 2.730000 13.824000 0.800002
vertex 2.730000 14.624000 0.800002
endloop
endfacet
facet normal -1.000000 0.000000 0.000000
outer loop
vertex 1.330000 14.624000 1.250002
vertex 1.330000 14.624000 1.200002
vertex 1.330000 13.824000 1.200002
endloop
endfacet
facet normal -1.000000 0.000000 -0.000000
outer loop
vertex 1.330000 13.824000 1.200002
vertex 1.330000 13.824000 1.250002
vertex 1.330000 14.624000 1.250002
endloop
endfacet
facet normal 0.000000 0.000000 -1.000000
outer loop
vertex 1.130000 14.624000 0.800002
vertex 1.330000 14.624000 0.800002
vertex 1.330000 13.824000 0.800002
endloop
endfacet
facet normal 0.000000 0.000000 -1.000000
outer loop
vertex 1.330000 13.824000 0.800002
vertex 1.130000 13.824000 0.800002
vertex 1.130000 14.624000 0.800002
endloop
endfacet
facet normal 1.000000 -0.000000 0.000000
outer loop
vertex 1.330000 14.624000 0.800002
vertex 1.330000 14.624000 0.850002
vertex 1.330000 13.824000 0.850002
endloop
endfacet
facet normal 1.000000 0.000000 -0.000000
outer loop
vertex 1.330000 13.824000 0.850002
vertex 1.330000 13.824000 0.800002
vertex 1.330000 14.624000 0.800002
endloop
endfacet
facet normal 0.000000 -0.000000 1.000000
outer loop
vertex 1.330000 14.624000 0.850002
vertex 1.180000 14.624000 0.850002
vertex 1.180000 13.824000 0.850002
endloop
endfacet
facet normal 0.000000 -0.000000 1.000000
outer loop
vertex 1.180000 13.824000 0.850002
vertex 1.330000 13.824000 0.850002
vertex 1.330000 14.624000 0.850002
endloop
endfacet
facet normal 1.000000 -0.000000 0.000000
outer loop
vertex 1.180000 14.624000 0.850002
vertex 1.180000 14.624000 1.200002
vertex 1.180000 13.824000 1.200002
endloop
endfacet
facet normal 1.000000 0.000000 -0.000000
outer loop
vertex 1.180000 13.824000 1.200002
vertex 1.180000 13.824000 0.850002
vertex 1.180000 14.624000 0.850002
endloop
endfacet
facet normal 0.000000 0.000000 -1.000000
outer loop
vertex 1.180000 14.624000 1.200002
vertex 1.330000 14.624000 1.200002
vertex 1.330000 13.824000 1.200002
endloop
endfacet
facet normal 0.000000 0.000000 -1.000000
outer loop
vertex 1.330000 13.824000 1.200002
vertex 1.180000 13.824000 1.200002
vertex 1.180000 14.624000 1.200002
endloop
endfacet
facet normal 0.000000 -0.000000 1.000000
outer loop
vertex 1.330000 14.624000 1.250002
vertex 1.130000 14.624000 1.250002
vertex 1.130000 13.824000 1.250002
endloop
endfacet
facet normal 0.000000 -0.000000 1.000000
outer loop
vertex 1.130000 13.824000 1.250002
vertex 1.330000 13.824000 1.250002
vertex 1.330000 14.624000 1.250002
endloop
endfacet
facet normal -1.000000 0.000000 0.000000
outer loop
vertex 1.130000 14.624000 1.250002
vertex 1.130000 14.624000 0.800002
vertex 1.130000 13.824000 0.800002
endloop
endfacet
facet normal -1.000000 0.000000 -0.000000
outer loop
vertex 1.130000 13.824000 0.800002
vertex 1.130000 13.824000 1.250002
vertex 1.130000 14.624000 1.250002
endloop
endfacet
facet normal 0.000000 -0.000000 1.000000
outer loop
vertex 2.680000 14.624000 0.850002
vertex 2.530000 14.624000 0.850002
vertex 2.530000 13.824000 0.850002
endloop
endfacet
facet normal 0.000000 -0.000000 1.000000
outer loop
vertex 2.530000 13.824000 0.850002
vertex 2.680000 13.824000 0.850002
vertex 2.680000 14.624000 0.850002
endloop
endfacet
facet normal -1.000000 0.000000 0.000000
outer loop
vertex 2.680000 14.624000 1.200002
vertex 2.680000 14.624000 0.850002
vertex 2.680000 13.824000 0.850002
endloop
endfacet
facet normal -1.000000 0.000000 -0.000000
outer loop
vertex 2.680000 13.824000 0.850002
vertex 2.680000 13.824000 1.200002
vertex 2.680000 14.624000 1.200002
endloop
endfacet
facet normal 0.000000 0.000000 -1.000000
outer loop
vertex 2.530000 14.624000 1.200002
vertex 2.680000 14.624000 1.200002
vertex 2.680000 13.824000 1.200002
endloop
endfacet
facet normal 0.000000 0.000000 -1.000000
outer loop
vertex 2.680000 13.824000 1.200002
vertex 2.530000 13.824000 1.200002
vertex 2.530000 14.624000 1.200002
endloop
endfacet
facet normal -1.000000 0.000000 0.000000
outer loop
vertex 2.530000 14.624000 1.250002
vertex 2.530000 14.624000 1.200002
vertex 2.530000 13.824000 1.200002
endloop
endfacet
facet normal -1.000000 0.000000 -0.000000
outer loop
vertex 2.530000 13.824000 1.200002
vertex 2.530000 13.824000 1.250002
vertex 2.530000 14.624000 1.250002
endloop
endfacet
facet normal 0.000000 1.000000 -0.000000
outer loop
vertex 2.530000 14.624000 0.850002
vertex 2.730000 14.624000 0.800002
vertex 2.530000 14.624000 0.800002
endloop
endfacet
facet normal 0.000000 1.000000 0.000000
outer loop
vertex 2.530000 14.624000 1.200002
vertex 2.530000 14.624000 1.250002
vertex 2.730000 14.624000 1.250002
endloop
endfacet
facet normal 0.000000 1.000000 0.000000
outer loop
vertex 2.530000 14.624000 0.850002
vertex 2.680000 14.624000 0.850002
vertex 2.730000 14.624000 0.800002
endloop
endfacet
facet normal -0.000000 1.000000 0.000000
outer loop
vertex 2.680000 14.624000 1.200002
vertex 2.530000 14.624000 1.200002
vertex 2.730000 14.624000 1.250002
endloop
endfacet
facet normal 0.000000 1.000000 -0.000000
outer loop
vertex 2.680000 14.624000 0.850002
vertex 2.730000 14.624000 1.250002
vertex 2.730000 14.624000 0.800002
endloop
endfacet
facet normal 0.000000 1.000000 0.000000
outer loop
vertex 2.680000 14.624000 0.850002
vertex 2.680000 14.624000 1.200002
vertex 2.730000 14.624000 1.250002
endloop
endfacet
facet normal 0.000000 -1.000000 0.000000
outer loop
vertex 1.330000 13.824000 1.250002
vertex 1.180000 13.824000 1.200002
vertex 1.330000 13.824000 1.200002
endloop
endfacet
facet normal 0.000000 -1.000000 0.000000
outer loop
vertex 1.330000 13.824000 0.800002
vertex 1.330000 13.824000 0.850002
vertex 1.180000 13.824000 0.850002
endloop
endfacet
facet normal 0.000000 -1.000000 0.000000
outer loop
vertex 1.330000 13.824000 1.250002
vertex 1.130000 13.824000 1.250002
vertex 1.180000 13.824000 1.200002
endloop
endfacet
facet normal -0.000000 -1.000000 -0.000000
outer loop
vertex 1.130000 13.824000 0.800002
vertex 1.330000 13.824000 0.800002
vertex 1.180000 13.824000 0.850002
endloop
endfacet
facet normal -0.000000 -1.000000 -0.000000
outer loop
vertex 1.130000 13.824000 1.250002
vertex 1.180000 13.824000 0.850002
vertex 1.180000 13.824000 1.200002
endloop
endfacet
facet normal -0.000000 -1.000000 0.000000
outer loop
vertex 1.130000 13.824000 1.250002
vertex 1.130000 13.824000 0.800002
vertex 1.180000 13.824000 0.850002
endloop
endfacet
facet normal 0.000000 1.000000 0.000000
outer loop
vertex 1.330000 14.624000 0.850002
vertex 1.330000 14.624000 0.800002
vertex 1.130000 14.624000 0.800002
endloop
endfacet
facet normal 0.000000 1.000000 -0.000000
outer loop
vertex 1.130000 14.624000 1.250002
vertex 1.330000 14.624000 1.250002
vertex 1.330000 14.624000 1.200002
endloop
endfacet
facet normal 0.000000 1.000000 -0.000000
outer loop
vertex 1.180000 14.624000 0.850002
vertex 1.330000 14.624000 0.850002
vertex 1.130000 14.624000 0.800002
endloop
endfacet
facet normal 0.000000 1.000000 -0.000000
outer loop
vertex 1.130000 14.624000 1.250002
vertex 1.330000 14.624000 1.200002
vertex 1.180000 14.624000 1.200002
endloop
endfacet
facet normal 0.000000 1.000000 -0.000000
outer loop
vertex 1.130000 14.624000 1.250002
vertex 1.180000 14.624000 0.850002
vertex 1.130000 14.624000 0.800002
endloop
endfacet
facet normal 0.000000 1.000000 -0.000000
outer loop
vertex 1.130000 14.624000 1.250002
vertex 1.180000 14.624000 1.200002
vertex 1.180000 14.624000 0.850002
endloop
endfacet
facet normal -0.000000 1.000000 0.000000
outer loop
vertex 2.530000 14.624000 0.800002
vertex 1.330000 14.624000 0.800002
vertex 1.330000 14.624000 0.850002
endloop
endfacet
facet normal 0.000000 1.000000 0.000000
outer loop
vertex 1.180000 14.624000 0.850002
vertex 1.180000 14.624000 1.200002
vertex 1.330000 14.624000 0.850002
endloop
endfacet
facet normal 0.000000 1.000000 0.000000
outer loop
vertex 1.330000 14.624000 1.200002
vertex 1.330000 14.624000 1.250002
vertex 2.530000 14.624000 1.250002
endloop
endfacet
facet normal 0.000000 1.000000 -0.000000
outer loop
vertex 1.180000 14.624000 1.200002
vertex 1.330000 14.624000 1.200002
vertex 1.330000 14.624000 0.850002
endloop
endfacet
facet normal -0.000000 1.000000 0.000000
outer loop
vertex 2.530000 14.624000 0.850002
vertex 2.530000 14.624000 0.800002
vertex 1.330000 14.624000 0.850002
endloop
endfacet
facet normal 0.000000 1.000000 0.000000
outer loop
vertex 2.680000 14.624000 1.200002
vertex 2.680000 14.624000 0.850002
vertex 2.530000 14.624000 0.850002
endloop
endfacet
facet normal 0.000000 1.000000 -0.000000
outer loop
vertex 1.330000 14.624000 1.200002
vertex 2.530000 14.624000 1.250002
vertex 2.530000 14.624000 1.200002
endloop
endfacet
facet normal 0.000000 1.000000 -0.000000
outer loop
vertex 2.530000 14.624000 1.200002
vertex 2.680000 14.624000 1.200002
vertex 2.530000 14.624000 0.850002
endloop
endfacet
facet normal 0.000000 1.000000 -0.000000
outer loop
vertex 1.330000 14.624000 1.200002
vertex 2.530000 14.624000 0.850002
vertex 1.330000 14.624000 0.850002
endloop
endfacet
facet normal 0.000000 1.000000 -0.000000
outer loop
vertex 1.330000 14.624000 1.200002
vertex 2.530000 14.624000 1.200002
vertex 2.530000 14.624000 0.850002
endloop
endfacet
facet normal 0.000000 -1.000000 0.000000
outer loop
vertex 2.730000 13.824000 0.800002
vertex 2.530000 13.824000 0.850002
vertex 2.530000 13.824000 0.800002
endloop
endfacet
facet normal 0.000000 -1.000000 0.000000
outer loop
vertex 2.530000 13.824000 1.250002
vertex 2.530000 13.824000 1.200002
vertex 2.680000 13.824000 1.200002
endloop
endfacet
facet normal 0.000000 -1.000000 0.000000
outer loop
vertex 2.730000 13.824000 0.800002
vertex 2.680000 13.824000 0.850002
vertex 2.530000 13.824000 0.850002
endloop
endfacet
facet normal 0.000000 -1.000000 0.000000
outer loop
vertex 2.730000 13.824000 1.250002
vertex 2.530000 13.824000 1.250002
vertex 2.680000 13.824000 1.200002
endloop
endfacet
facet normal 0.000000 -1.000000 0.000000
outer loop
vertex 2.730000 13.824000 0.800002
vertex 2.680000 13.824000 1.200002
vertex 2.680000 13.824000 0.850002
endloop
endfacet
facet normal 0.000000 -1.000000 0.000000
outer loop
vertex 2.730000 13.824000 0.800002
vertex 2.730000 13.824000 1.250002
vertex 2.680000 13.824000 1.200002
endloop
endfacet
facet normal 0.000000 -1.000000 0.000000
outer loop
vertex 2.530000 13.824000 0.800002
vertex 1.330000 13.824000 0.850002
vertex 1.330000 13.824000 0.800002
endloop
endfacet
facet normal 0.000000 -1.000000 0.000000
outer loop
vertex 1.180000 13.824000 1.200002
vertex 1.180000 13.824000 0.850002
vertex 1.330000 13.824000 0.850002
endloop
endfacet
facet normal 0.000000 -1.000000 0.000000
outer loop
vertex 2.530000 13.824000 1.250002
vertex 1.330000 13.824000 1.250002
vertex 1.330000 13.824000 1.200002
endloop
endfacet
facet normal 0.000000 -1.000000 0.000000
outer loop
vertex 1.330000 13.824000 1.200002
vertex 1.180000 13.824000 1.200002
vertex 1.330000 13.824000 0.850002
endloop
endfacet
facet normal 0.000000 -1.000000 0.000000
outer loop
vertex 2.530000 13.824000 0.800002
vertex 2.530000 13.824000 0.850002
vertex 1.330000 13.824000 0.850002
endloop
endfacet
facet normal -0.000000 -1.000000 -0.000000
outer loop
vertex 2.530000 13.824000 0.850002
vertex 2.680000 13.824000 0.850002
vertex 2.680000 13.824000 1.200002
endloop
endfacet
facet normal 0.000000 -1.000000 0.000000
outer loop
vertex 2.530000 13.824000 1.200002
vertex 2.530000 13.824000 1.250002
vertex 1.330000 13.824000 1.200002
endloop
endfacet
facet normal 0.000000 -1.000000 -0.000000
outer loop
vertex 2.530000 13.824000 0.850002
vertex 2.680000 13.824000 1.200002
vertex 2.530000 13.824000 1.200002
endloop
endfacet
facet normal 0.000000 -1.000000 0.000000
outer loop
vertex 2.530000 13.824000 0.850002
vertex 1.330000 13.824000 1.200002
vertex 1.330000 13.824000 0.850002
endloop
endfacet
facet normal 0.000000 -1.000000 0.000000
outer loop
vertex 2.530000 13.824000 0.850002
vertex 2.530000 13.824000 1.200002
vertex 1.330000 13.824000 1.200002
endloop
endfacet
facet normal 0.000000 -0.000000 1.000000
outer loop
vertex 2.730000 13.354000 1.250002
vertex 2.530000 13.354000 1.250002
vertex 2.530000 12.554000 1.250002
endloop
endfacet
facet normal 0.000000 -0.000000 1.000000
outer loop
vertex 2.530000 12.554000 1.250002
vertex 2.730000 12.554000 1.250002
vertex 2.730000 13.354000 1.250002
endloop
endfacet
facet normal 0.000000 -0.000000 1.000000
outer loop
vertex 2.530000 13.354000 1.250002
vertex 1.330000 13.354000 1.250002
vertex 1.330000 12.554000 1.250002
endloop
endfacet
facet normal 0.000000 -0.000000 1.000000
outer loop
vertex 1.330000 12.554000 1.250002
vertex 2.530000 12.554000 1.250002
vertex 2.530000 13.354000 1.250002
endloop
endfacet
facet normal 0.000000 0.000000 -1.000000
outer loop
vertex 1.330000 13.354000 0.800002
vertex 2.530000 13.354000 0.800002
vertex 2.530000 12.554000 0.800002
endloop
endfacet
facet normal 0.000000 0.000000 -1.000000
outer loop
vertex 2.530000 12.554000 0.800002
vertex 1.330000 12.554000 0.800002
vertex 1.330000 13.354000 0.800002
endloop
endfacet
facet normal -1.000000 0.000000 0.000000
outer loop
vertex 2.530000 13.354000 0.850002
vertex 2.530000 13.354000 0.800002
vertex 2.530000 12.554000 0.800002
endloop
endfacet
facet normal -1.000000 0.000000 -0.000000
outer loop
vertex 2.530000 12.554000 0.800002
vertex 2.530000 12.554000 0.850002
vertex 2.530000 13.354000 0.850002
endloop
endfacet
facet normal 0.000000 0.000000 -1.000000
outer loop
vertex 2.530000 13.354000 0.800002
vertex 2.730000 13.354000 0.800002
vertex 2.730000 12.554000 0.800002
endloop
endfacet
facet normal 0.000000 0.000000 -1.000000
outer loop
vertex 2.730000 12.554000 0.800002
vertex 2.530000 12.554000 0.800002
vertex 2.530000 13.354000 0.800002
endloop
endfacet
facet normal 1.000000 -0.000000 0.000000
outer loop
vertex 2.730000 13.354000 0.800002
vertex 2.730000 13.354000 1.250002
vertex 2.730000 12.554000 1.250002
endloop
endfacet
facet normal 1.000000 0.000000 -0.000000
outer loop
vertex 2.730000 12.554000 1.250002
vertex 2.730000 12.554000 0.800002
vertex 2.730000 13.354000 0.800002
endloop
endfacet
facet normal -1.000000 0.000000 0.000000
outer loop
vertex 1.330000 13.354000 1.250002
vertex 1.330000 13.354000 1.200002
vertex 1.330000 12.554000 1.200002
endloop
endfacet
facet normal -1.000000 0.000000 -0.000000
outer loop
vertex 1.330000 12.554000 1.200002
vertex 1.330000 12.554000 1.250002
vertex 1.330000 13.354000 1.250002
endloop
endfacet
facet normal 0.000000 0.000000 -1.000000
outer loop
vertex 1.130000 13.354000 0.800002
vertex 1.330000 13.354000 0.800002
vertex 1.330000 12.554000 0.800002
endloop
endfacet
facet normal 0.000000 0.000000 -1.000000
outer loop
vertex 1.330000 12.554000 0.800002
vertex 1.130000 12.554000 0.800002
vertex 1.130000 13.354000 0.800002
endloop
endfacet
facet normal 1.000000 -0.000000 0.000000
outer loop
vertex 1.330000 13.354000 0.800002
vertex 1.330000 13.354000 0.850002
vertex 1.330000 12.554000 0.850002
endloop
endfacet
facet normal 1.000000 0.000000 -0.000000
outer loop
vertex 1.330000 12.554000 0.850002
vertex 1.330000 12.554000 0.800002
vertex 1.330000 13.354000 0.800002
endloop
endfacet
facet normal 0.000000 -0.000000 1.000000
outer loop
vertex 1.330000 13.354000 0.850002
vertex 1.180000 13.354000 0.850002
vertex 1.180000 12.554000 0.850002
endloop
endfacet
facet normal 0.000000 -0.000000 1.000000
outer loop
vertex 1.180000 12.554000 0.850002
vertex 1.330000 12.554000 0.850002
vertex 1.330000 13.354000 0.850002
endloop
endfacet
facet normal 1.000000 -0.000000 0.000000
outer loop
vertex 1.180000 13.354000 0.850002
vertex 1.180000 13.354000 1.200002
vertex 1.180000 12.554000 1.200002
endloop
endfacet
facet normal 1.000000 0.000000 -0.000000
outer loop
vertex 1.180000 12.554000 1.200002
vertex 1.180000 12.554000 0.850002
vertex 1.180000 13.354000 0.850002
endloop
endfacet
facet normal 0.000000 0.000000 -1.000000
outer loop
vertex 1.180000 13.354000 1.200002
vertex 1.330000 13.354000 1.200002
vertex 1.330000 12.554000 1.200002
endloop
endfacet
facet normal 0.000000 0.000000 -1.000000
outer loop
vertex 1.330000 12.554000 1.200002
vertex 1.180000 12.554000 1.200002
vertex 1.180000 13.354000 1.200002
endloop
endfacet
facet normal 0.000000 -0.000000 1.000000
outer loop
vertex 1.330000 13.354000 1.250002
vertex 1.130000 13.354000 1.250002
vertex 1.130000 12.554000 1.250002
endloop
endfacet
facet normal 0.000000 -0.000000 1.000000
outer loop
vertex 1.130000 12.554000 1.250002
vertex 1.330000 12.554000 1.250002
vertex 1.330000 13.354000 1.250002
endloop
endfacet
facet normal -1.000000 0.000000 0.000000
outer loop
vertex 1.130000 13.354000 1.250002
vertex 1.130000 13.354000 0.800002
vertex 1.130000 12.554000 0.800002
endloop
endfacet
facet normal -1.000000 0.000000 -0.000000
outer loop
vertex 1.130000 12.554000 0.800002
vertex 1.130000 12.554000 1.250002
vertex 1.130000 13.354000 1.250002
endloop
endfacet
facet normal 0.000000 -0.000000 1.000000
outer loop
vertex 2.680000 13.354000 0.850002
vertex 2.530000 13.354000 0.850002
vertex 2.530000 12.554000 0.850002
endloop
endfacet
facet normal 0.000000 -0.000000 1.000000
outer loop
vertex 2.530000 12.554000 0.850002
vertex 2.680000 12.554000 0.850002
vertex 2.680000 13.354000 0.850002
endloop
endfacet
facet normal -1.000000 0.000000 0.000000
outer loop
vertex 2.680000 13.354000 1.200002
vertex 2.680000 13.354000 0.850002
vertex 2.680000 12.554000 0.850002
endloop
endfacet
facet normal -1.000000 0.000000 -0.000000
outer loop
vertex 2.680000 12.554000 0.850002
vertex 2.680000 12.554000 1.200002
vertex 2.680000 13.354000 1.200002
endloop
endfacet
facet normal 0.000000 0.000000 -1.000000
outer loop
vertex 2.530000 13.354000 1.200002
vertex 2.680000 13.354000 1.200002
vertex 2.680000 12.554000 1.200002
endloop
endfacet
facet normal 0.000000 0.000000 -1.000000
outer loop
vertex 2.680000 12.554000 1.200002
vertex 2.530000 12.554000 1.200002
vertex 2.530000 13.354000 1.200002
endloop
endfacet
facet normal -1.000000 0.000000 0.000000
outer loop
vertex 2.530000 13.354000 1.250002
vertex 2.530000 13.354000 1.200002
vertex 2.530000 12.554000 1.200002
endloop
endfacet
facet normal -1.000000 0.000000 -0.000000
outer loop
vertex 2.530000 12.554000 1.200002
vertex 2.530000 12.554000 1.250002
vertex 2.530000 13.354000 1.250002
endloop
endfacet
facet normal 0.000000 1.000000 -0.000000
outer loop
vertex 2.530000 13.354000 0.850002
vertex 2.730000 13.354000 0.800002
vertex 2.530000 13.354000 0.800002
endloop
endfacet
facet normal 0.000000 1.000000 0.000000
outer loop
vertex 2.530000 13.354000 1.200002
vertex 2.530000 13.354000 1.250002
vertex 2.730000 13.354000 1.250002
endloop
endfacet
facet normal 0.000000 1.000000 0.000000
outer loop
vertex 2.530000 13.354000 0.850002
vertex 2.680000 13.354000 0.850002
vertex 2.730000 13.354000 0.800002
endloop
endfacet
facet normal -0.000000 1.000000 0.000000
outer loop
vertex 2.680000 13.354000 1.200002
vertex 2.530000 13.354000 1.200002
vertex 2.730000 13.354000 1.250002
endloop
endfacet
facet normal 0.000000 1.000000 -0.000000
outer loop
vertex 2.680000 13.354000 0.850002
vertex 2.730000 13.354000 1.250002
vertex 2.730000 13.354000 0.800002
endloop
endfacet
facet normal 0.000000 1.000000 0.000000
outer loop
vertex 2.680000 13.354000 0.850002
vertex 2.680000 13.354000 1.200002
vertex 2.730000 13.354000 1.250002
endloop
endfacet
facet normal 0.000000 -1.000000 0.000000
outer loop
vertex 1.330000 12.554000 1.250002
vertex 1.180000 12.554000 1.200002
vertex 1.330000 12.554000 1.200002
endloop
endfacet
facet normal 0.000000 -1.000000 0.000000
outer loop
vertex 1.330000 12.554000 0.800002
vertex 1.330000 12.554000 0.850002
vertex 1.180000 12.554000 0.850002
endloop
endfacet
facet normal 0.000000 -1.000000 0.000000
outer loop
vertex 1.330000 12.554000 1.250002
vertex 1.130000 12.554000 1.250002
vertex 1.180000 12.554000 1.200002
endloop
endfacet
facet normal -0.000000 -1.000000 -0.000000
outer loop
vertex 1.130000 12.554000 0.800002
vertex 1.330000 12.554000 0.800002
vertex 1.180000 12.554000 0.850002
endloop
endfacet
facet normal -0.000000 -1.000000 -0.000000
outer loop
vertex 1.130000 12.554000 1.250002
vertex 1.180000 12.554000 0.850002
vertex 1.180000 12.554000 1.200002
endloop
endfacet
facet normal -0.000000 -1.000000 0.000000
outer loop
vertex 1.130000 12.554000 1.250002
vertex 1.130000 12.554000 0.800002
vertex 1.180000 12.554000 0.850002
endloop
endfacet
facet normal 0.000000 1.000000 0.000000
outer loop
vertex 1.330000 13.354000 0.850002
vertex 1.330000 13.354000 0.800002
vertex 1.130000 13.354000 0.800002
endloop
endfacet
facet normal 0.000000 1.000000 -0.000000
outer loop
vertex 1.130000 13.354000 1.250002
vertex 1.330000 13.354000 1.250002
vertex 1.330000 13.354000 1.200002
endloop
endfacet
facet normal 0.000000 1.000000 -0.000000
outer loop
vertex 1.180000 13.354000 0.850002
vertex 1.330000 13.354000 0.850002
vertex 1.130000 13.354000 0.800002
endloop
endfacet
facet normal 0.000000 1.000000 -0.000000
outer loop
vertex 1.130000 13.354000 1.250002
vertex 1.330000 13.354000 1.200002
vertex 1.180000 13.354000 1.200002
endloop
endfacet
facet normal 0.000000 1.000000 -0.000000
outer loop
vertex 1.130000 13.354000 1.250002
vertex 1.180000 13.354000 0.850002
vertex 1.130000 13.354000 0.800002
endloop
endfacet
facet normal 0.000000 1.000000 -0.000000
outer loop
vertex 1.130000 13.354000 1.250002
vertex 1.180000 13.354000 1.200002
vertex 1.180000 13.354000 0.850002
endloop
endfacet
facet normal -0.000000 1.000000 0.000000
outer loop
vertex 2.530000 13.354000 0.800002
vertex 1.330000 13.354000 0.800002
vertex 1.330000 13.354000 0.850002
endloop
endfacet
facet normal 0.000000 1.000000 0.000000
outer loop
vertex 1.180000 13.354000 0.850002
vertex 1.180000 13.354000 1.200002
vertex 1.330000 13.354000 0.850002
endloop
endfacet
facet normal 0.000000 1.000000 0.000000
outer loop
vertex 1.330000 13.354000 1.200002
vertex 1.330000 13.354000 1.250002
vertex 2.530000 13.354000 1.250002
endloop
endfacet
facet normal 0.000000 1.000000 -0.000000
outer loop
vertex 1.180000 13.354000 1.200002
vertex 1.330000 13.354000 1.200002
vertex 1.330000 13.354000 0.850002
endloop
endfacet
facet normal -0.000000 1.000000 0.000000
outer loop
vertex 2.530000 13.354000 0.850002
vertex 2.530000 13.354000 0.800002
vertex 1.330000 13.354000 0.850002
endloop
endfacet
facet normal 0.000000 1.000000 0.000000
outer loop
vertex 2.680000 13.354000 1.200002
vertex 2.680000 13.354000 0.850002
vertex 2.530000 13.354000 0.850002
endloop
endfacet
facet normal 0.000000 1.000000 -0.000000
outer loop
vertex 1.330000 13.354000 1.200002
vertex 2.530000 13.354000 1.250002
vertex 2.530000 13.354000 1.200002
endloop
endfacet
facet normal 0.000000 1.000000 -0.000000
outer loop
vertex 2.530000 13.354000 1.200002
vertex 2.680000 13.354000 1.200002
vertex 2.530000 13.354000 0.850002
endloop
endfacet
facet normal 0.000000 1.000000 -0.000000
outer loop
vertex 1.330000 13.354000 1.200002
vertex 2.530000 13.354000 0.850002
vertex 1.330000 13.354000 0.850002
endloop
endfacet
facet normal 0.000000 1.000000 -0.000000
outer loop
vertex 1.330000 13.354000 1.200002
vertex 2.530000 13.354000 1.200002
vertex 2.530000 13.354000 0.850002
endloop
endfacet
facet normal 0.000000 -1.000000 0.000000
outer loop
vertex 2.730000 12.554000 0.800002
vertex 2.530000 12.554000 0.850002
vertex 2.530000 12.554000 0.800002
endloop
endfacet
facet normal 0.000000 -1.000000 0.000000
outer loop
vertex 2.530000 12.554000 1.250002
vertex 2.530000 12.554000 1.200002
vertex 2.680000 12.554000 1.200002
endloop
endfacet
facet normal 0.000000 -1.000000 0.000000
outer loop
vertex 2.730000 12.554000 0.800002
vertex 2.680000 12.554000 0.850002
vertex 2.530000 12.554000 0.850002
endloop
endfacet
facet normal 0.000000 -1.000000 0.000000
outer loop
vertex 2.730000 12.554000 1.250002
vertex 2.530000 12.554000 1.250002
vertex 2.680000 12.554000 1.200002
endloop
endfacet
facet normal 0.000000 -1.000000 0.000000
outer loop
vertex 2.730000 12.554000 0.800002
vertex 2.680000 12.554000 1.200002
vertex 2.680000 12.554000 0.850002
endloop
endfacet
facet normal 0.000000 -1.000000 0.000000
outer loop
vertex 2.730000 12.554000 0.800002
vertex 2.730000 12.554000 1.250002
vertex 2.680000 12.554000 1.200002
endloop
endfacet
facet normal 0.000000 -1.000000 0.000000
outer loop
vertex 2.530000 12.554000 0.800002
vertex 1.330000 12.554000 0.850002
vertex 1.330000 12.554000 0.800002
endloop
endfacet
facet normal 0.000000 -1.000000 0.000000
outer loop
vertex 1.180000 12.554000 1.200002
vertex 1.180000 12.554000 0.850002
vertex 1.330000 12.554000 0.850002
endloop
endfacet
facet normal 0.000000 -1.000000 0.000000
outer loop
vertex 2.530000 12.554000 1.250002
vertex 1.330000 12.554000 1.250002
vertex 1.330000 12.554000 1.200002
endloop
endfacet
facet normal 0.000000 -1.000000 0.000000
outer loop
vertex 1.330000 12.554000 1.200002
vertex 1.180000 12.554000 1.200002
vertex 1.330000 12.554000 0.850002
endloop
endfacet
facet normal 0.000000 -1.000000 0.000000
outer loop
vertex 2.530000 12.554000 0.800002
vertex 2.530000 12.554000 0.850002
vertex 1.330000 12.554000 0.850002
endloop
endfacet
facet normal -0.000000 -1.000000 -0.000000
outer loop
vertex 2.530000 12.554000 0.850002
vertex 2.680000 12.554000 0.850002
vertex 2.680000 12.554000 1.200002
endloop
endfacet
facet normal 0.000000 -1.000000 0.000000
outer loop
vertex 2.530000 12.554000 1.200002
vertex 2.530000 12.554000 1.250002
vertex 1.330000 12.554000 1.200002
endloop
endfacet
facet normal 0.000000 -1.000000 -0.000000
outer loop
vertex 2.530000 12.554000 0.850002
vertex 2.680000 12.554000 1.200002
vertex 2.530000 12.554000 1.200002
endloop
endfacet
facet normal 0.000000 -1.000000 0.000000
outer loop
vertex 2.530000 12.554000 0.850002
vertex 1.330000 12.554000 1.200002
vertex 1.330000 12.554000 0.850002
endloop
endfacet
facet normal 0.000000 -1.000000 0.000000
outer loop
vertex 2.530000 12.554000 0.850002
vertex 2.530000 12.554000 1.200002
vertex 1.330000 12.554000 1.200002
endloop
endfacet
facet normal 0.000000 -0.000000 1.000000
outer loop
vertex 2.730000 12.084000 1.250002
vertex 2.530000 12.084000 1.250002
vertex 2.530000 11.284000 1.250002
endloop
endfacet
facet normal 0.000000 -0.000000 1.000000
outer loop
vertex 2.530000 11.284000 1.250002
vertex 2.730000 11.284000 1.250002
vertex 2.730000 12.084000 1.250002
endloop
endfacet
facet normal 0.000000 -0.000000 1.000000
outer loop
vertex 2.530000 12.084000 1.250002
vertex 1.330000 12.084000 1.250002
vertex 1.330000 11.284000 1.250002
endloop
endfacet
facet normal 0.000000 -0.000000 1.000000
outer loop
vertex 1.330000 11.284000 1.250002
vertex 2.530000 11.284000 1.250002
vertex 2.530000 12.084000 1.250002
endloop
endfacet
facet normal 0.000000 0.000000 -1.000000
outer loop
vertex 1.330000 12.084000 0.800002
vertex 2.530000 12.084000 0.800002
vertex 2.530000 11.284000 0.800002
endloop
endfacet
facet normal 0.000000 0.000000 -1.000000
outer loop
vertex 2.530000 11.284000 0.800002
vertex 1.330000 11.284000 0.800002
vertex 1.330000 12.084000 0.800002
endloop
endfacet
facet normal -1.000000 0.000000 0.000000
outer loop
vertex 2.530000 12.084000 0.850002
vertex 2.530000 12.084000 0.800002
vertex 2.530000 11.284000 0.800002
endloop
endfacet
facet normal -1.000000 0.000000 -0.000000
outer loop
vertex 2.530000 11.284000 0.800002
vertex 2.530000 11.284000 0.850002
vertex 2.530000 12.084000 0.850002
endloop
endfacet
facet normal 0.000000 0.000000 -1.000000
outer loop
vertex 2.530000 12.084000 0.800002
vertex 2.730000 12.084000 0.800002
vertex 2.730000 11.284000 0.800002
endloop
endfacet
facet normal 0.000000 0.000000 -1.000000
outer loop
vertex 2.730000 11.284000 0.800002
vertex 2.530000 11.284000 0.800002
vertex 2.530000 12.084000 0.800002
endloop
endfacet
facet normal 1.000000 -0.000000 0.000000
outer loop
vertex 2.730000 12.084000 0.800002
vertex 2.730000 12.084000 1.250002
vertex 2.730000 11.284000 1.250002
endloop
endfacet
facet normal 1.000000 0.000000 -0.000000
outer loop
vertex 2.730000 11.284000 1.250002
vertex 2.730000 11.284000 0.800002
vertex 2.730000 12.084000 0.800002
endloop
endfacet
facet normal -1.000000 0.000000 0.000000
outer loop
vertex 1.330000 12.084000 1.250002
vertex 1.330000 12.084000 1.200002
vertex 1.330000 11.284000 1.200002
endloop
endfacet
facet normal -1.000000 0.000000 -0.000000
outer loop
vertex 1.330000 11.284000 1.200002
vertex 1.330000 11.284000 1.250002
vertex 1.330000 12.084000 1.250002
endloop
endfacet
facet normal 0.000000 0.000000 -1.000000
outer loop
vertex 1.130000 12.084000 0.800002
vertex 1.330000 12.084000 0.800002
vertex 1.330000 11.284000 0.800002
endloop
endfacet
facet normal 0.000000 0.000000 -1.000000
outer loop
vertex 1.330000 11.284000 0.800002
vertex 1.130000 11.284000 0.800002
vertex 1.130000 12.084000 0.800002
endloop
endfacet
facet normal 1.000000 -0.000000 0.000000
outer loop
vertex 1.330000 12.084000 0.800002
vertex 1.330000 12.084000 0.850002
vertex 1.330000 11.284000 0.850002
endloop
endfacet
facet normal 1.000000 0.000000 -0.000000
outer loop
vertex 1.330000 11.284000 0.850002
vertex 1.330000 11.284000 0.800002
vertex 1.330000 12.084000 0.800002
endloop
endfacet
facet normal 0.000000 -0.000000 1.000000
outer loop
vertex 1.330000 12.084000 0.850002
vertex 1.180000 12.084000 0.850002
vertex 1.180000 11.284000 0.850002
endloop
endfacet
facet normal 0.000000 -0.000000 1.000000
outer loop
vertex 1.180000 11.284000 0.850002
vertex 1.330000 11.284000 0.850002
vertex 1.330000 12.084000 0.850002
endloop
endfacet
facet normal 1.000000 -0.000000 0.000000
outer loop
vertex 1.180000 12.084000 0.850002
vertex 1.180000 12.084000 1.200002
vertex 1.180000 11.284000 1.200002
endloop
endfacet
facet normal 1.000000 0.000000 -0.000000
outer loop
vertex 1.180000 11.284000 1.200002
vertex 1.180000 11.284000 0.850002
vertex 1.180000 12.084000 0.850002
endloop
endfacet
facet normal 0.000000 0.000000 -1.000000
outer loop
vertex 1.180000 12.084000 1.200002
vertex 1.330000 12.084000 1.200002
vertex 1.330000 11.284000 1.200002
endloop
endfacet
facet normal 0.000000 0.000000 -1.000000
outer loop
vertex 1.330000 11.284000 1.200002
vertex 1.180000 11.284000 1.200002
vertex 1.180000 12.084000 1.200002
endloop
endfacet
facet normal 0.000000 -0.000000 1.000000
outer loop
vertex 1.330000 12.084000 1.250002
vertex 1.130000 12.084000 1.250002
vertex 1.130000 11.284000 1.250002
endloop
endfacet
facet normal 0.000000 -0.000000 1.000000
outer loop
vertex 1.130000 11.284000 1.250002
vertex 1.330000 11.284000 1.250002
vertex 1.330000 12.084000 1.250002
endloop
endfacet
facet normal -1.000000 0.000000 0.000000
outer loop
vertex 1.130000 12.084000 1.250002
vertex 1.130000 12.084000 0.800002
vertex 1.130000 11.284000 0.800002
endloop
endfacet
facet normal -1.000000 0.000000 -0.000000
outer loop
vertex 1.130000 11.284000 0.800002
vertex 1.130000 11.284000 1.250002
vertex 1.130000 12.084000 1.250002
endloop
endfacet
facet normal 0.000000 -0.000000 1.000000
outer loop
vertex 2.680000 12.084000 0.850002
vertex 2.530000 12.084000 0.850002
vertex 2.530000 11.284000 0.850002
endloop
endfacet
facet normal 0.000000 -0.000000 1.000000
outer loop
vertex 2.530000 11.284000 0.850002
vertex 2.680000 11.284000 0.850002
vertex 2.680000 12.084000 0.850002
endloop
endfacet
facet normal -1.000000 0.000000 0.000000
outer loop
vertex 2.680000 12.084000 1.200002
vertex 2.680000 12.084000 0.850002
vertex 2.680000 11.284000 0.850002
endloop
endfacet
facet normal -1.000000 0.000000 -0.000000
outer loop
vertex 2.680000 11.284000 0.850002
vertex 2.680000 11.284000 1.200002
vertex 2.680000 12.084000 1.200002
endloop
endfacet
facet normal 0.000000 0.000000 -1.000000
outer loop
vertex 2.530000 12.084000 1.200002
vertex 2.680000 12.084000 1.200002
vertex 2.680000 11.284000 1.200002
endloop
endfacet
facet normal 0.000000 0.000000 -1.000000
outer loop
vertex 2.680000 11.284000 1.200002
vertex 2.530000 11.284000 1.200002
vertex 2.530000 12.084000 1.200002
endloop
endfacet
facet normal -1.000000 0.000000 0.000000
outer loop
vertex 2.530000 12.084000 1.250002
vertex 2.530000 12.084000 1.200002
vertex 2.530000 11.284000 1.200002
endloop
endfacet
facet normal -1.000000 0.000000 -0.000000
outer loop
vertex 2.530000 11.284000 1.200002
vertex 2.530000 11.284000 1.250002
vertex 2.530000 12.084000 1.250002
endloop
endfacet
facet normal 0.000000 1.000000 -0.000000
outer loop
vertex 2.530000 12.084000 0.850002
vertex 2.730000 12.084000 0.800002
vertex 2.530000 12.084000 0.800002
endloop
endfacet
facet normal 0.000000 1.000000 0.000000
outer loop
vertex 2.530000 12.084000 1.200002
vertex 2.530000 12.084000 1.250002
vertex 2.730000 12.084000 1.250002
endloop
endfacet
facet normal 0.000000 1.000000 0.000000
outer loop
vertex 2.530000 12.084000 0.850002
vertex 2.680000 12.084000 0.850002
vertex 2.730000 12.084000 0.800002
endloop
endfacet
facet normal -0.000000 1.000000 0.000000
outer loop
vertex 2.680000 12.084000 1.200002
vertex 2.530000 12.084000 1.200002
vertex 2.730000 12.084000 1.250002
endloop
endfacet
facet normal 0.000000 1.000000 -0.000000
outer loop
vertex 2.680000 12.084000 0.850002
vertex 2.730000 12.084000 1.250002
vertex 2.730000 12.084000 0.800002
endloop
endfacet
facet normal 0.000000 1.000000 0.000000
outer loop
vertex 2.680000 12.084000 0.850002
vertex 2.680000 12.084000 1.200002
vertex 2.730000 12.084000 1.250002
endloop
endfacet
facet normal 0.000000 -1.000000 0.000000
outer loop
vertex 1.330000 11.284000 1.250002
vertex 1.180000 11.284000 1.200002
vertex 1.330000 11.284000 1.200002
endloop
endfacet
facet normal 0.000000 -1.000000 0.000000
outer loop
vertex 1.330000 11.284000 0.800002
vertex 1.330000 11.284000 0.850002
vertex 1.180000 11.284000 0.850002
endloop
endfacet
facet normal 0.000000 -1.000000 0.000000
outer loop
vertex 1.330000 11.284000 1.250002
vertex 1.130000 11.284000 1.250002
vertex 1.180000 11.284000 1.200002
endloop
endfacet
facet normal -0.000000 -1.000000 -0.000000
outer loop
vertex 1.130000 11.284000 0.800002
vertex 1.330000 11.284000 0.800002
vertex 1.180000 11.284000 0.850002
endloop
endfacet
facet normal -0.000000 -1.000000 -0.000000
outer loop
vertex 1.130000 11.284000 1.250002
vertex 1.180000 11.284000 0.850002
vertex 1.180000 11.284000 1.200002
endloop
endfacet
facet normal -0.000000 -1.000000 0.000000
outer loop
vertex 1.130000 11.284000 1.250002
vertex 1.130000 11.284000 0.800002
vertex 1.180000 11.284000 0.850002
endloop
endfacet
facet normal 0.000000 1.000000 0.000000
outer loop
vertex 1.330000 12.084000 0.850002
vertex 1.330000 12.084000 0.800002
vertex 1.130000 12.084000 0.800002
endloop
endfacet
facet normal 0.000000 1.000000 -0.000000
outer loop
vertex 1.130000 12.084000 1.250002
vertex 1.330000 12.084000 1.250002
vertex 1.330000 12.084000 1.200002
endloop
endfacet
facet normal 0.000000 1.000000 -0.000000
outer loop
vertex 1.180000 12.084000 0.850002
vertex 1.330000 12.084000 0.850002
vertex 1.130000 12.084000 0.800002
endloop
endfacet
facet normal 0.000000 1.000000 -0.000000
outer loop
vertex 1.130000 12.084000 1.250002
vertex 1.330000 12.084000 1.200002
vertex 1.180000 12.084000 1.200002
endloop
endfacet
facet normal 0.000000 1.000000 -0.000000
outer loop
vertex 1.130000 12.084000 1.250002
vertex 1.180000 12.084000 0.850002
vertex 1.130000 12.084000 0.800002
endloop
endfacet
facet normal 0.000000 1.000000 -0.000000
outer loop
vertex 1.130000 12.084000 1.250002
vertex 1.180000 12.084000 1.200002
vertex 1.180000 12.084000 0.850002
endloop
endfacet
facet normal -0.000000 1.000000 0.000000
outer loop
vertex 2.530000 12.084000 0.800002
vertex 1.330000 12.084000 0.800002
vertex 1.330000 12.084000 0.850002
endloop
endfacet
facet normal 0.000000 1.000000 0.000000
outer loop
vertex 1.180000 12.084000 0.850002
vertex 1.180000 12.084000 1.200002
vertex 1.330000 12.084000 0.850002
endloop
endfacet
facet normal 0.000000 1.000000 0.000000
outer loop
vertex 1.330000 12.084000 1.200002
vertex 1.330000 12.084000 1.250002
vertex 2.530000 12.084000 1.250002
endloop
endfacet
facet normal 0.000000 1.000000 -0.000000
outer loop
vertex 1.180000 12.084000 1.200002
vertex 1.330000 12.084000 1.200002
vertex 1.330000 12.084000 0.850002
endloop
endfacet
facet normal -0.000000 1.000000 0.000000
outer loop
vertex 2.530000 12.084000 0.850002
vertex 2.530000 12.084000 0.800002
vertex 1.330000 12.084000 0.850002
endloop
endfacet
facet normal 0.000000 1.000000 0.000000
outer loop
vertex 2.680000 12.084000 1.200002
vertex 2.680000 12.084000 0.850002
vertex 2.530000 12.084000 0.850002
endloop
endfacet
facet normal 0.000000 1.000000 -0.000000
outer loop
vertex 1.330000 12.084000 1.200002
vertex 2.530000 12.084000 1.250002
vertex 2.530000 12.084000 1.200002
endloop
endfacet
facet normal 0.000000 1.000000 -0.000000
outer loop
vertex 2.530000 12.084000 1.200002
vertex 2.680000 12.084000 1.200002
vertex 2.530000 12.084000 0.850002
endloop
endfacet
facet normal 0.000000 1.000000 -0.000000
outer loop
vertex 1.330000 12.084000 1.200002
vertex 2.530000 12.084000 0.850002
vertex 1.330000 12.084000 0.850002
endloop
endfacet
facet normal 0.000000 1.000000 -0.000000
outer loop
vertex 1.330000 12.084000 1.200002
vertex 2.530000 12.084000 1.200002
vertex 2.530000 12.084000 0.850002
endloop
endfacet
facet normal 0.000000 -1.000000 0.000000
outer loop
vertex 2.730000 11.284000 0.800002
vertex 2.530000 11.284000 0.850002
vertex 2.530000 11.284000 0.800002
endloop
endfacet
facet normal 0.000000 -1.000000 0.000000
outer loop
vertex 2.530000 11.284000 1.250002
vertex 2.530000 11.284000 1.200002
vertex 2.680000 11.284000 1.200002
endloop
endfacet
facet normal 0.000000 -1.000000 0.000000
outer loop
vertex 2.730000 11.284000 0.800002
vertex 2.680000 11.284000 0.850002
vertex 2.530000 11.284000 0.850002
endloop
endfacet
facet normal 0.000000 -1.000000 0.000000
outer loop
vertex 2.730000 11.284000 1.250002
vertex 2.530000 11.284000 1.250002
vertex 2.680000 11.284000 1.200002
endloop
endfacet
facet normal 0.000000 -1.000000 0.000000
outer loop
vertex 2.730000 11.284000 0.800002
vertex 2.680000 11.284000 1.200002
vertex 2.680000 11.284000 0.850002
endloop
endfacet
facet normal 0.000000 -1.000000 0.000000
outer loop
vertex 2.730000 11.284000 0.800002
vertex 2.730000 11.284000 1.250002
vertex 2.680000 11.284000 1.200002
endloop
endfacet
facet normal 0.000000 -1.000000 0.000000
outer loop
vertex 2.530000 11.284000 0.800002
vertex 1.330000 11.284000 0.850002
vertex 1.330000 11.284000 0.800002
endloop
endfacet
facet normal 0.000000 -1.000000 0.000000
outer loop
vertex 1.180000 11.284000 1.200002
vertex 1.180000 11.284000 0.850002
vertex 1.330000 11.284000 0.850002
endloop
endfacet
facet normal 0.000000 -1.000000 0.000000
outer loop
vertex 2.530000 11.284000 1.250002
vertex 1.330000 11.284000 1.250002
vertex 1.330000 11.284000 1.200002
endloop
endfacet
facet normal 0.000000 -1.000000 0.000000
outer loop
vertex 1.330000 11.284000 1.200002
vertex 1.180000 11.284000 1.200002
vertex 1.330000 11.284000 0.850002
endloop
endfacet
facet normal 0.000000 -1.000000 0.000000
outer loop
vertex 2.530000 11.284000 0.800002
vertex 2.530000 11.284000 0.850002
vertex 1.330000 11.284000 0.850002
endloop
endfacet
facet normal -0.000000 -1.000000 -0.000000
outer loop
vertex 2.530000 11.284000 0.850002
vertex 2.680000 11.284000 0.850002
vertex 2.680000 11.284000 1.200002
endloop
endfacet
facet normal 0.000000 -1.000000 0.000000
outer loop
vertex 2.530000 11.284000 1.200002
vertex 2.530000 11.284000 1.250002
vertex 1.330000 11.284000 1.200002
endloop
endfacet
facet normal 0.000000 -1.000000 -0.000000
outer loop
vertex 2.530000 11.284000 0.850002
vertex 2.680000 11.284000 1.200002
vertex 2.530000 11.284000 1.200002
endloop
endfacet
facet normal 0.000000 -1.000000 0.000000
outer loop
vertex 2.530000 11.284000 0.850002
vertex 1.330000 11.284000 1.200002
vertex 1.330000 11.284000 0.850002
endloop
endfacet
facet normal 0.000000 -1.000000 0.000000
outer loop
vertex 2.530000 11.284000 0.850002
vertex 2.530000 11.284000 1.200002
vertex 1.330000 11.284000 1.200002
endloop
endfacet
endsolid Exported from Blender-2.72 (sub 0)
