solid MIC_ELECTRET_SMD
facet normal 0.0 0.0 -1.0
  outer loop
    vertex -2.8977774788672055 0.7764571353075608 0.0
    vertex -2.8977774788672046 -0.7764571353075632 0.0
    vertex -3.0 -1.2107865444133278e-15 0.0
  endloop
endfacet
facet normal 0.0 0.0 -1.0
  outer loop
    vertex -2.8977774788672046 -0.7764571353075632 0.0
    vertex -2.8977774788672055 0.7764571353075608 0.0
    vertex -2.598076211353316 1.499999999999999 0.0
  endloop
endfacet
facet normal 0.0 0.0 -1.0
  outer loop
    vertex -2.8977774788672046 -0.7764571353075632 0.0
    vertex -2.598076211353316 1.499999999999999 0.0
    vertex -2.5980762113533156 -1.5000000000000007 0.0
  endloop
endfacet
facet normal 0.0 0.0 -1.0
  outer loop
    vertex -2.5980762113533156 -1.5000000000000007 0.0
    vertex -2.598076211353316 1.499999999999999 0.0
    vertex -2.121320343559643 2.121320343559642 0.0
  endloop
endfacet
facet normal 0.0 0.0 -1.0
  outer loop
    vertex -2.5980762113533156 -1.5000000000000007 0.0
    vertex -2.121320343559643 2.121320343559642 0.0
    vertex -2.1213203435596424 -2.1213203435596433 0.0
  endloop
endfacet
facet normal 0.0 0.0 -1.0
  outer loop
    vertex -2.1213203435596424 -2.1213203435596433 0.0
    vertex -2.121320343559643 2.121320343559642 0.0
    vertex -1.4999999999999998 2.5980762113533156 0.0
  endloop
endfacet
facet normal 0.0 0.0 -1.0
  outer loop
    vertex -2.1213203435596424 -2.1213203435596433 0.0
    vertex -1.4999999999999998 2.5980762113533156 0.0
    vertex -1.4999999999999998 -2.5980762113533165 0.0
  endloop
endfacet
facet normal 0.0 0.0 -1.0
  outer loop
    vertex -1.4999999999999998 -2.5980762113533165 0.0
    vertex -1.4999999999999998 2.5980762113533156 0.0
    vertex -0.7764571353075618 2.8977774788672046 0.0
  endloop
endfacet
facet normal 0.0 0.0 -1.0
  outer loop
    vertex -1.4999999999999998 -2.5980762113533165 0.0
    vertex -0.7764571353075618 2.8977774788672046 0.0
    vertex -0.7764571353075622 -2.8977774788672055 0.0
  endloop
endfacet
facet normal 0.0 0.0 -1.0
  outer loop
    vertex -0.7764571353075622 -2.8977774788672055 0.0
    vertex -0.7764571353075618 2.8977774788672046 0.0
    vertex 0.0 -3.0 0.0
  endloop
endfacet
facet normal 0.0 0.0 -1.0
  outer loop
    vertex 0.0 -3.0 0.0
    vertex -0.7764571353075618 2.8977774788672046 0.0
    vertex 9.64873589805982e-16 2.9999999999999996 0.0
  endloop
endfacet
facet normal 0.0 0.0 -1.0
  outer loop
    vertex 0.0 -3.0 0.0
    vertex 9.64873589805982e-16 2.9999999999999996 0.0
    vertex 0.776457131709208 -2.8977774798313805 0.0
  endloop
endfacet
facet normal 0.0 0.0 -1.0
  outer loop
    vertex 0.776457131709208 -2.8977774798313805 0.0
    vertex 9.64873589805982e-16 2.9999999999999996 0.0
    vertex 0.7764571748894588 2.897777468261267 0.0
  endloop
endfacet
facet normal 0.0 0.0 -1.0
  outer loop
    vertex 0.776457131709208 -2.8977774798313805 0.0
    vertex 0.7764571748894588 2.897777468261267 0.0
    vertex 1.499999993547608 -2.5980762150786063 0.0
  endloop
endfacet
facet normal 0.0 0.0 -1.0
  outer loop
    vertex 1.499999993547608 -2.5980762150786063 0.0
    vertex 0.7764571748894588 2.897777468261267 0.0
    vertex 1.5000000322619613 2.598076192726863 0.0
  endloop
endfacet
facet normal 0.0 0.0 -1.0
  outer loop
    vertex 1.499999993547608 -2.5980762150786063 0.0
    vertex 1.5000000322619613 2.598076192726863 0.0
    vertex 2.1213203356571086 -2.1213203514621766 0.0
  endloop
endfacet
facet normal 0.0 0.0 -1.0
  outer loop
    vertex 2.1213203356571086 -2.1213203514621766 0.0
    vertex 1.5000000322619613 2.598076192726863 0.0
    vertex 2.121320367267246 2.121320319852039 0.0
  endloop
endfacet
facet normal 0.0 0.0 -1.0
  outer loop
    vertex 2.1213203356571086 -2.1213203514621766 0.0
    vertex 2.121320367267246 2.121320319852039 0.0
    vertex 2.598076203902735 -1.5000000129047846 0.0
  endloop
endfacet
facet normal 0.0 0.0 -1.0
  outer loop
    vertex 2.598076203902735 -1.5000000129047846 0.0
    vertex 2.121320367267246 2.121320319852039 0.0
    vertex 2.5980762262544776 1.4999999741904306 0.0
  endloop
endfacet
facet normal 0.0 0.0 -1.0
  outer loop
    vertex 2.598076203902735 -1.5000000129047846 0.0
    vertex 2.5980762262544776 1.4999999741904306 0.0
    vertex 2.8977774740463245 -0.7764571532993335 0.0
  endloop
endfacet
facet normal 0.0 0.0 -1.0
  outer loop
    vertex 2.8977774740463245 -0.7764571532993335 0.0
    vertex 2.5980762262544776 1.4999999741904306 0.0
    vertex 2.8977774856164378 0.7764571101190826 0.0
  endloop
endfacet
facet normal 0.0 0.0 -1.0
  outer loop
    vertex 2.8977774740463245 -0.7764571532993335 0.0
    vertex 2.8977774856164378 0.7764571101190826 0.0
    vertex 3.0000000000000004 -2.235174263738315e-08 0.0
  endloop
endfacet
facet normal -0.0 -0.0 1.0
  outer loop
    vertex -2.8977774788672046 -0.7764571353075632 1.8
    vertex -2.8977774788672055 0.7764571353075608 1.8
    vertex -3.0 -1.2107865444133278e-15 1.8
  endloop
endfacet
facet normal -0.0 -0.0 1.0
  outer loop
    vertex -2.8977774788672055 0.7764571353075608 1.8
    vertex -2.8977774788672046 -0.7764571353075632 1.8
    vertex -2.598076211353316 1.499999999999999 1.8
  endloop
endfacet
facet normal -0.0 -0.0 1.0
  outer loop
    vertex -2.598076211353316 1.499999999999999 1.8
    vertex -2.8977774788672046 -0.7764571353075632 1.8
    vertex -2.5980762113533156 -1.5000000000000007 1.8
  endloop
endfacet
facet normal -0.0 -0.0 1.0
  outer loop
    vertex -2.598076211353316 1.499999999999999 1.8
    vertex -2.5980762113533156 -1.5000000000000007 1.8
    vertex -2.121320343559643 2.121320343559642 1.8
  endloop
endfacet
facet normal -0.0 -0.0 1.0
  outer loop
    vertex -2.121320343559643 2.121320343559642 1.8
    vertex -2.5980762113533156 -1.5000000000000007 1.8
    vertex -2.1213203435596424 -2.1213203435596433 1.8
  endloop
endfacet
facet normal -0.0 -0.0 1.0
  outer loop
    vertex -2.121320343559643 2.121320343559642 1.8
    vertex -2.1213203435596424 -2.1213203435596433 1.8
    vertex -1.4999999999999998 2.5980762113533156 1.8
  endloop
endfacet
facet normal -0.0 -0.0 1.0
  outer loop
    vertex -1.4999999999999998 2.5980762113533156 1.8
    vertex -2.1213203435596424 -2.1213203435596433 1.8
    vertex -1.4999999999999998 -2.5980762113533165 1.8
  endloop
endfacet
facet normal -0.0 -0.0 1.0
  outer loop
    vertex -1.4999999999999998 2.5980762113533156 1.8
    vertex -1.4999999999999998 -2.5980762113533165 1.8
    vertex -0.7764571353075622 -2.8977774788672055 1.8
  endloop
endfacet
facet normal -0.0 -0.0 1.0
  outer loop
    vertex -1.4999999999999998 2.5980762113533156 1.8
    vertex -0.7764571353075622 -2.8977774788672055 1.8
    vertex -0.7764571353075618 2.8977774788672046 1.8
  endloop
endfacet
facet normal -0.0 -0.0 1.0
  outer loop
    vertex -0.7764571353075618 2.8977774788672046 1.8
    vertex -0.7764571353075622 -2.8977774788672055 1.8
    vertex 0.0 -3.0 1.8
  endloop
endfacet
facet normal -0.0 -0.0 1.0
  outer loop
    vertex -0.7764571353075618 2.8977774788672046 1.8
    vertex 0.0 -3.0 1.8
    vertex 9.64873589805982e-16 2.9999999999999996 1.8
  endloop
endfacet
facet normal -0.0 -0.0 1.0
  outer loop
    vertex 9.64873589805982e-16 2.9999999999999996 1.8
    vertex 0.0 -3.0 1.8
    vertex 0.776457131709208 -2.8977774798313805 1.8
  endloop
endfacet
facet normal -0.0 -0.0 1.0
  outer loop
    vertex 9.64873589805982e-16 2.9999999999999996 1.8
    vertex 0.776457131709208 -2.8977774798313805 1.8
    vertex 0.7764571748894588 2.897777468261267 1.8
  endloop
endfacet
facet normal -0.0 -0.0 1.0
  outer loop
    vertex 0.7764571748894588 2.897777468261267 1.8
    vertex 0.776457131709208 -2.8977774798313805 1.8
    vertex 1.499999993547608 -2.5980762150786063 1.8
  endloop
endfacet
facet normal -0.0 -0.0 1.0
  outer loop
    vertex 0.7764571748894588 2.897777468261267 1.8
    vertex 1.499999993547608 -2.5980762150786063 1.8
    vertex 1.5000000322619613 2.598076192726863 1.8
  endloop
endfacet
facet normal -0.0 -0.0 1.0
  outer loop
    vertex 1.5000000322619613 2.598076192726863 1.8
    vertex 1.499999993547608 -2.5980762150786063 1.8
    vertex 2.1213203356571086 -2.1213203514621766 1.8
  endloop
endfacet
facet normal -0.0 -0.0 1.0
  outer loop
    vertex 1.5000000322619613 2.598076192726863 1.8
    vertex 2.1213203356571086 -2.1213203514621766 1.8
    vertex 2.121320367267246 2.121320319852039 1.8
  endloop
endfacet
facet normal -0.0 -0.0 1.0
  outer loop
    vertex 2.121320367267246 2.121320319852039 1.8
    vertex 2.1213203356571086 -2.1213203514621766 1.8
    vertex 2.598076203902735 -1.5000000129047846 1.8
  endloop
endfacet
facet normal -0.0 -0.0 1.0
  outer loop
    vertex 2.121320367267246 2.121320319852039 1.8
    vertex 2.598076203902735 -1.5000000129047846 1.8
    vertex 2.5980762262544776 1.4999999741904306 1.8
  endloop
endfacet
facet normal -0.0 -0.0 1.0
  outer loop
    vertex 2.5980762262544776 1.4999999741904306 1.8
    vertex 2.598076203902735 -1.5000000129047846 1.8
    vertex 2.8977774740463245 -0.7764571532993335 1.8
  endloop
endfacet
facet normal -0.0 -0.0 1.0
  outer loop
    vertex 2.5980762262544776 1.4999999741904306 1.8
    vertex 2.8977774740463245 -0.7764571532993335 1.8
    vertex 2.8977774856164378 0.7764571101190826 1.8
  endloop
endfacet
facet normal -0.0 -0.0 1.0
  outer loop
    vertex 2.8977774856164378 0.7764571101190826 1.8
    vertex 2.8977774740463245 -0.7764571532993335 1.8
    vertex 3.0000000000000004 -2.235174263738315e-08 1.8
  endloop
endfacet
facet normal 0.1305261916044822 -0.9914448614548517 0.0
  outer loop
    vertex 0.776457131709208 -2.8977774798313805 1.8
    vertex 0.0 -3.0 0.0
    vertex 0.776457131709208 -2.8977774798313805 0.0
  endloop
endfacet
facet normal 0.1305261916044822 -0.9914448614548517 0.0
  outer loop
    vertex 0.0 -3.0 0.0
    vertex 0.776457131709208 -2.8977774798313805 1.8
    vertex 0.0 -3.0 1.8
  endloop
endfacet
facet normal -0.13052619222005102 -0.9914448613738105 -0.0
  outer loop
    vertex 0.0 -3.0 1.8
    vertex -0.7764571353075622 -2.8977774788672055 0.0
    vertex 0.0 -3.0 0.0
  endloop
endfacet
facet normal -0.13052619222005102 -0.9914448613738105 -0.0
  outer loop
    vertex -0.7764571353075622 -2.8977774788672055 0.0
    vertex 0.0 -3.0 1.8
    vertex -0.7764571353075622 -2.8977774788672055 1.8
  endloop
endfacet
facet normal -0.3826834323650896 -0.9238795325112867 -0.0
  outer loop
    vertex -0.7764571353075622 -2.8977774788672055 1.8
    vertex -1.4999999999999998 -2.5980762113533165 0.0
    vertex -0.7764571353075622 -2.8977774788672055 0.0
  endloop
endfacet
facet normal -0.3826834323650896 -0.9238795325112867 -0.0
  outer loop
    vertex -1.4999999999999998 -2.5980762113533165 0.0
    vertex -0.7764571353075622 -2.8977774788672055 1.8
    vertex -1.4999999999999998 -2.5980762113533165 1.8
  endloop
endfacet
facet normal -0.6087614290087205 -0.7933533402912354 -0.0
  outer loop
    vertex -1.4999999999999998 -2.5980762113533165 1.8
    vertex -2.1213203435596424 -2.1213203435596433 0.0
    vertex -1.4999999999999998 -2.5980762113533165 0.0
  endloop
endfacet
facet normal -0.6087614290087205 -0.7933533402912354 -0.0
  outer loop
    vertex -2.1213203435596424 -2.1213203435596433 0.0
    vertex -1.4999999999999998 -2.5980762113533165 1.8
    vertex -2.1213203435596424 -2.1213203435596433 1.8
  endloop
endfacet
facet normal -0.7933533402912353 -0.6087614290087207 -0.0
  outer loop
    vertex -2.5980762113533156 -1.5000000000000007 1.8
    vertex -2.1213203435596424 -2.1213203435596433 0.0
    vertex -2.1213203435596424 -2.1213203435596433 1.8
  endloop
endfacet
facet normal -0.7933533402912353 -0.6087614290087207 -0.0
  outer loop
    vertex -2.1213203435596424 -2.1213203435596433 0.0
    vertex -2.5980762113533156 -1.5000000000000007 1.8
    vertex -2.5980762113533156 -1.5000000000000007 0.0
  endloop
endfacet
facet normal -0.9238795325112868 -0.3826834323650898 -0.0
  outer loop
    vertex -2.8977774788672046 -0.7764571353075632 1.8
    vertex -2.5980762113533156 -1.5000000000000007 0.0
    vertex -2.5980762113533156 -1.5000000000000007 1.8
  endloop
endfacet
facet normal -0.9238795325112868 -0.3826834323650898 -0.0
  outer loop
    vertex -2.5980762113533156 -1.5000000000000007 0.0
    vertex -2.8977774788672046 -0.7764571353075632 1.8
    vertex -2.8977774788672046 -0.7764571353075632 0.0
  endloop
endfacet
facet normal -0.9914448613738104 -0.13052619222005196 -0.0
  outer loop
    vertex -3.0 -1.2107865444133278e-15 1.8
    vertex -2.8977774788672046 -0.7764571353075632 0.0
    vertex -2.8977774788672046 -0.7764571353075632 1.8
  endloop
endfacet
facet normal -0.9914448613738104 -0.13052619222005196 -0.0
  outer loop
    vertex -2.8977774788672046 -0.7764571353075632 0.0
    vertex -3.0 -1.2107865444133278e-15 1.8
    vertex -3.0 -1.2107865444133278e-15 0.0
  endloop
endfacet
facet normal -0.9914448613738105 0.13052619222005105 0.0
  outer loop
    vertex -2.8977774788672055 0.7764571353075608 1.8
    vertex -3.0 -1.2107865444133278e-15 0.0
    vertex -3.0 -1.2107865444133278e-15 1.8
  endloop
endfacet
facet normal -0.9914448613738105 0.13052619222005105 0.0
  outer loop
    vertex -3.0 -1.2107865444133278e-15 0.0
    vertex -2.8977774788672055 0.7764571353075608 1.8
    vertex -2.8977774788672055 0.7764571353075608 0.0
  endloop
endfacet
facet normal -0.9238795325112866 0.38268343236508984 0.0
  outer loop
    vertex -2.598076211353316 1.499999999999999 1.8
    vertex -2.8977774788672055 0.7764571353075608 0.0
    vertex -2.8977774788672055 0.7764571353075608 1.8
  endloop
endfacet
facet normal -0.9238795325112866 0.38268343236508984 0.0
  outer loop
    vertex -2.8977774788672055 0.7764571353075608 0.0
    vertex -2.598076211353316 1.499999999999999 1.8
    vertex -2.598076211353316 1.499999999999999 0.0
  endloop
endfacet
facet normal -0.7933533402912355 0.6087614290087202 0.0
  outer loop
    vertex -2.121320343559643 2.121320343559642 1.8
    vertex -2.598076211353316 1.499999999999999 0.0
    vertex -2.598076211353316 1.499999999999999 1.8
  endloop
endfacet
facet normal -0.7933533402912355 0.6087614290087202 0.0
  outer loop
    vertex -2.598076211353316 1.499999999999999 0.0
    vertex -2.121320343559643 2.121320343559642 1.8
    vertex -2.121320343559643 2.121320343559642 0.0
  endloop
endfacet
facet normal -0.6087614290087207 0.7933533402912353 0.0
  outer loop
    vertex -2.121320343559643 2.121320343559642 1.8
    vertex -1.4999999999999998 2.5980762113533156 0.0
    vertex -2.121320343559643 2.121320343559642 0.0
  endloop
endfacet
facet normal -0.6087614290087207 0.7933533402912353 0.0
  outer loop
    vertex -1.4999999999999998 2.5980762113533156 0.0
    vertex -2.121320343559643 2.121320343559642 1.8
    vertex -1.4999999999999998 2.5980762113533156 1.8
  endloop
endfacet
facet normal -0.38268343236508945 0.9238795325112868 0.0
  outer loop
    vertex -1.4999999999999998 2.5980762113533156 1.8
    vertex -0.7764571353075618 2.8977774788672046 0.0
    vertex -1.4999999999999998 2.5980762113533156 0.0
  endloop
endfacet
facet normal -0.38268343236508945 0.9238795325112868 0.0
  outer loop
    vertex -0.7764571353075618 2.8977774788672046 0.0
    vertex -1.4999999999999998 2.5980762113533156 1.8
    vertex -0.7764571353075618 2.8977774788672046 1.8
  endloop
endfacet
facet normal -0.13052619222005138 0.9914448613738104 0.0
  outer loop
    vertex -0.7764571353075618 2.8977774788672046 1.8
    vertex 9.64873589805982e-16 2.9999999999999996 0.0
    vertex -0.7764571353075618 2.8977774788672046 0.0
  endloop
endfacet
facet normal -0.13052619222005138 0.9914448613738104 0.0
  outer loop
    vertex 9.64873589805982e-16 2.9999999999999996 0.0
    vertex -0.7764571353075618 2.8977774788672046 1.8
    vertex 9.64873589805982e-16 2.9999999999999996 1.8
  endloop
endfacet
facet normal 0.13052619899132167 0.9914448604823559 0.0
  outer loop
    vertex 9.64873589805982e-16 2.9999999999999996 1.8
    vertex 0.7764571748894588 2.897777468261267 0.0
    vertex 9.64873589805982e-16 2.9999999999999996 0.0
  endloop
endfacet
facet normal 0.13052619899132167 0.9914448604823559 0.0
  outer loop
    vertex 0.7764571748894588 2.897777468261267 0.0
    vertex 9.64873589805982e-16 2.9999999999999996 1.8
    vertex 0.7764571748894588 2.897777468261267 1.8
  endloop
endfacet
facet normal 0.38268344441110863 0.9238795275216624 0.0
  outer loop
    vertex 0.7764571748894588 2.897777468261267 1.8
    vertex 1.5000000322619613 2.598076192726863 0.0
    vertex 0.7764571748894588 2.897777468261267 0.0
  endloop
endfacet
facet normal 0.38268344441110863 0.9238795275216624 0.0
  outer loop
    vertex 1.5000000322619613 2.598076192726863 0.0
    vertex 0.7764571748894588 2.897777468261267 1.8
    vertex 1.5000000322619613 2.598076192726863 1.8
  endloop
endfacet
facet normal 0.6087614383677138 0.793353333109827 0.0
  outer loop
    vertex 1.5000000322619613 2.598076192726863 1.8
    vertex 2.121320367267246 2.121320319852039 0.0
    vertex 1.5000000322619613 2.598076192726863 0.0
  endloop
endfacet
facet normal 0.6087614383677138 0.793353333109827 0.0
  outer loop
    vertex 2.121320367267246 2.121320319852039 0.0
    vertex 1.5000000322619613 2.598076192726863 1.8
    vertex 2.121320367267246 2.121320319852039 1.8
  endloop
endfacet
facet normal 0.7933533467167054 0.6087614206348848 0.0
  outer loop
    vertex 2.121320367267246 2.121320319852039 0.0
    vertex 2.5980762262544776 1.4999999741904306 1.8
    vertex 2.5980762262544776 1.4999999741904306 0.0
  endloop
endfacet
facet normal 0.7933533467167054 0.6087614206348848 0.0
  outer loop
    vertex 2.5980762262544776 1.4999999741904306 1.8
    vertex 2.121320367267246 2.121320319852039 0.0
    vertex 2.121320367267246 2.121320319852039 1.8
  endloop
endfacet
facet normal 0.9238795360753042 0.38268342376079084 0.0
  outer loop
    vertex 2.5980762262544776 1.4999999741904306 0.0
    vertex 2.8977774856164378 0.7764571101190826 1.8
    vertex 2.8977774856164378 0.7764571101190826 0.0
  endloop
endfacet
facet normal 0.9238795360753042 0.38268342376079084 0.0
  outer loop
    vertex 2.8977774856164378 0.7764571101190826 1.8
    vertex 2.5980762262544776 1.4999999741904306 0.0
    vertex 2.5980762262544776 1.4999999741904306 1.8
  endloop
endfacet
facet normal 0.9914448624273478 0.13052618421764164 0.0
  outer loop
    vertex 2.8977774856164378 0.7764571101190826 0.0
    vertex 3.0000000000000004 -2.235174263738315e-08 1.8
    vertex 3.0000000000000004 -2.235174263738315e-08 0.0
  endloop
endfacet
facet normal 0.9914448624273478 0.13052618421764164 0.0
  outer loop
    vertex 3.0000000000000004 -2.235174263738315e-08 1.8
    vertex 2.8977774856164378 0.7764571101190826 0.0
    vertex 2.8977774856164378 0.7764571101190826 1.8
  endloop
endfacet
facet normal 0.9914448604823557 -0.13052619899132187 0.0
  outer loop
    vertex 3.0000000000000004 -2.235174263738315e-08 0.0
    vertex 2.8977774740463245 -0.7764571532993335 1.8
    vertex 2.8977774740463245 -0.7764571532993335 0.0
  endloop
endfacet
facet normal 0.9914448604823557 -0.13052619899132187 0.0
  outer loop
    vertex 2.8977774740463245 -0.7764571532993335 1.8
    vertex 3.0000000000000004 -2.235174263738315e-08 0.0
    vertex 3.0000000000000004 -2.235174263738315e-08 1.8
  endloop
endfacet
facet normal 0.9238795303728763 -0.3826834375276693 0.0
  outer loop
    vertex 2.8977774740463245 -0.7764571532993335 0.0
    vertex 2.598076203902735 -1.5000000129047846 1.8
    vertex 2.598076203902735 -1.5000000129047846 0.0
  endloop
endfacet
facet normal 0.9238795303728763 -0.3826834375276693 0.0
  outer loop
    vertex 2.598076203902735 -1.5000000129047846 1.8
    vertex 2.8977774740463245 -0.7764571532993335 0.0
    vertex 2.8977774740463245 -0.7764571532993335 1.8
  endloop
endfacet
facet normal 0.7933533376454531 -0.608761432456771 0.0
  outer loop
    vertex 2.598076203902735 -1.5000000129047846 0.0
    vertex 2.1213203356571086 -2.1213203514621766 1.8
    vertex 2.1213203356571086 -2.1213203514621766 0.0
  endloop
endfacet
facet normal 0.7933533376454531 -0.608761432456771 0.0
  outer loop
    vertex 2.1213203356571086 -2.1213203514621766 1.8
    vertex 2.598076203902735 -1.5000000129047846 0.0
    vertex 2.598076203902735 -1.5000000129047846 1.8
  endloop
endfacet
facet normal 0.6087614265458282 -0.7933533421810791 0.0
  outer loop
    vertex 2.1213203356571086 -2.1213203514621766 1.8
    vertex 1.499999993547608 -2.5980762150786063 0.0
    vertex 2.1213203356571086 -2.1213203514621766 0.0
  endloop
endfacet
facet normal 0.6087614265458282 -0.7933533421810791 0.0
  outer loop
    vertex 1.499999993547608 -2.5980762150786063 0.0
    vertex 2.1213203356571086 -2.1213203514621766 1.8
    vertex 1.499999993547608 -2.5980762150786063 1.8
  endloop
endfacet
facet normal 0.3826834306442291 -0.9238795332240906 0.0
  outer loop
    vertex 1.499999993547608 -2.5980762150786063 1.8
    vertex 0.776457131709208 -2.8977774798313805 0.0
    vertex 1.499999993547608 -2.5980762150786063 0.0
  endloop
endfacet
facet normal 0.3826834306442291 -0.9238795332240906 0.0
  outer loop
    vertex 0.776457131709208 -2.8977774798313805 0.0
    vertex 1.499999993547608 -2.5980762150786063 1.8
    vertex 0.776457131709208 -2.8977774798313805 1.8
  endloop
endfacet
endsolid MIC_ELECTRET_SMD
