solid LED-TRICOLOR-SMD
facet normal -6.152650528659876e-17 -1.2783848407583217e-15 1.0
  outer loop
    vertex -1.5999999707050014 -1.299999985355001 0.5999999999999998
    vertex -1.0500000000000003 -1.0000000146449994 0.6000000000000003
    vertex -1.5999999707050032 -1.0000000146450012 0.6000000000000002
  endloop
endfacet
facet normal -6.152650528659876e-17 -1.2783848407583217e-15 1.0
  outer loop
    vertex -1.0500000000000003 -1.0000000146449994 0.6000000000000003
    vertex -1.5999999707050014 -1.299999985355001 0.5999999999999998
    vertex -1.0500000000000007 -1.2999999853550002 0.5999999999999998
  endloop
endfacet
facet normal -1.6653345369377294e-16 -1.0 -1.1279866136718904e-15
  outer loop
    vertex -0.350000000000001 -1.2999999853549984 -2.0416557509223213e-15
    vertex -1.0500000000000007 -1.2999999853550002 0.5999999999999998
    vertex -1.0500000000000003 -1.299999985355 -2.8312463804926443e-15
  endloop
endfacet
facet normal -1.6653345369377294e-16 -1.0 -1.1279866136718904e-15
  outer loop
    vertex -1.0500000000000007 -1.2999999853550002 0.5999999999999998
    vertex -0.350000000000001 -1.2999999853549984 -2.0416557509223213e-15
    vertex -0.35000000000000125 -1.2999999853549988 0.6000000000000001
  endloop
endfacet
facet normal -1.6653345369377294e-16 -1.0 -1.1279866136718904e-15
  outer loop
    vertex 0.3499999999999983 -1.0000000146449988 0.6000000000000005
    vertex -1.0500000000000003 -1.0000000146449994 0.6000000000000003
    vertex -0.3500000000000017 -1.0000000146450003 0.6000000000000003
  endloop
endfacet
facet normal -1.6653345369377294e-16 -1.0 -1.1279866136718904e-15
  outer loop
    vertex 1.5999999707049959 -1.0000000146449979 1.1
    vertex 1.0499999999999978 -1.0000000146449974 0.6000000000000005
    vertex 1.599999970704997 -1.0000000146449974 0.6000000000000003
  endloop
endfacet
facet normal -1.6653345369377294e-16 -1.0 -1.1279866136718904e-15
  outer loop
    vertex 1.0499999999999978 -1.0000000146449974 0.6000000000000005
    vertex 1.5999999707049959 -1.0000000146449979 1.1
    vertex 0.3499999999999983 -1.0000000146449988 0.6000000000000005
  endloop
endfacet
facet normal -1.6653345369377294e-16 -1.0 -1.1279866136718904e-15
  outer loop
    vertex -1.0500000000000003 -1.0000000146449994 0.6000000000000003
    vertex -1.5999999707049999 -1.0000000146450003 1.1000000000000019
    vertex -1.5999999707050032 -1.0000000146450012 0.6000000000000002
  endloop
endfacet
facet normal -1.6653345369377294e-16 -1.0 -1.1279866136718904e-15
  outer loop
    vertex -1.5999999707049999 -1.0000000146450003 1.1000000000000019
    vertex -1.0500000000000003 -1.0000000146449994 0.6000000000000003
    vertex 0.3499999999999983 -1.0000000146449988 0.6000000000000005
  endloop
endfacet
facet normal -1.6653345369377294e-16 -1.0 -1.1279866136718904e-15
  outer loop
    vertex -1.5999999707049999 -1.0000000146450003 1.1000000000000019
    vertex 0.3499999999999983 -1.0000000146449988 0.6000000000000005
    vertex 1.5999999707049959 -1.0000000146449979 1.1
  endloop
endfacet
facet normal 1.6653345369377294e-16 1.0 1.1279866136718904e-15
  outer loop
    vertex -1.0500000000000025 0.9999999853550027 0.6000000000000011
    vertex 0.3511466075035406 0.9999999853550013 0.6000000000000009
    vertex -0.3500000000000014 0.9999999853550017 0.6000000000000009
  endloop
endfacet
facet normal 1.6653345369377294e-16 1.0 1.1279866136718904e-15
  outer loop
    vertex 0.3511466075035406 0.9999999853550013 0.6000000000000009
    vertex -1.0500000000000025 0.9999999853550027 0.6000000000000011
    vertex 1.0499999999999974 0.9999999853550028 0.600000000000001
  endloop
endfacet
facet normal 1.6653345369377294e-16 1.0 1.1279866136718904e-15
  outer loop
    vertex 1.0499999999999974 0.9999999853550028 0.600000000000001
    vertex -1.0500000000000025 0.9999999853550027 0.6000000000000011
    vertex 1.5999999707049946 0.9999999853550019 0.6000000000000013
  endloop
endfacet
facet normal 1.6653345369377294e-16 1.0 1.1279866136718904e-15
  outer loop
    vertex 1.5999999707049946 0.9999999853550019 0.6000000000000013
    vertex -1.0500000000000025 0.9999999853550027 0.6000000000000011
    vertex -1.599999970705 0.9999999853549996 0.6000000000000012
  endloop
endfacet
facet normal 1.6653345369377294e-16 1.0 1.1279866136718904e-15
  outer loop
    vertex 1.5999999707049946 0.9999999853550019 0.6000000000000013
    vertex -1.599999970705 0.9999999853549996 0.6000000000000012
    vertex -1.5999999707049986 0.9999999853549999 1.100000000000002
  endloop
endfacet
facet normal 1.6653345369377294e-16 1.0 1.1279866136718904e-15
  outer loop
    vertex 1.5999999707049946 0.9999999853550019 0.6000000000000013
    vertex -1.5999999707049986 0.9999999853549999 1.100000000000002
    vertex 1.5999999707049937 0.9999999853550013 1.1000000000000003
  endloop
endfacet
facet normal 0.0 -1.1279866136718898e-15 1.0
  outer loop
    vertex 1.5999999707049959 -1.0000000146449979 1.1
    vertex -1.5999999707049986 0.9999999853549999 1.100000000000002
    vertex -1.5999999707049999 -1.0000000146450003 1.1000000000000019
  endloop
endfacet
facet normal 0.0 -1.1279866136718898e-15 1.0
  outer loop
    vertex -1.5999999707049986 0.9999999853549999 1.100000000000002
    vertex 1.5999999707049959 -1.0000000146449979 1.1
    vertex 1.5999999707049937 0.9999999853550013 1.1000000000000003
  endloop
endfacet
facet normal -4.844769220053253e-16 -1.428783038476998e-15 1.0
  outer loop
    vertex -0.3500000000000014 0.9999999853550017 0.6000000000000009
    vertex 0.3511466075035399 1.2999999853550004 0.6000000000000012
    vertex -0.3500000000000027 1.2999999853550008 0.6000000000000012
  endloop
endfacet
facet normal -4.844769220053253e-16 -1.428783038476998e-15 1.0
  outer loop
    vertex 0.3511466075035399 1.2999999853550004 0.6000000000000012
    vertex -0.3500000000000014 0.9999999853550017 0.6000000000000009
    vertex 0.3511466075035406 0.9999999853550013 0.6000000000000009
  endloop
endfacet
facet normal -1.0 1.6653345369377348e-16 -6.229457028880038e-16
  outer loop
    vertex -1.5999999707049986 0.9999999853549999 1.100000000000002
    vertex -1.599999970705 0.9999999853549996 0.6000000000000012
    vertex -1.5999999707049999 -1.0000000146450003 1.1000000000000019
  endloop
endfacet
facet normal -1.0 1.6653345369377348e-16 -6.229457028880038e-16
  outer loop
    vertex -1.5999999707050032 -1.0000000146450012 0.6000000000000002
    vertex -1.5999999707049994 -1.2999999853550002 -2.1882940007863574e-15
    vertex -1.5999999707050014 -1.299999985355001 0.5999999999999998
  endloop
endfacet
facet normal -1.0 1.6653345369377348e-16 -6.229457028880038e-16
  outer loop
    vertex -1.5999999707049994 -1.2999999853550002 -2.1882940007863574e-15
    vertex -1.5999999707050032 -1.0000000146450012 0.6000000000000002
    vertex -1.599999970704999 1.2999999853550006 7.444711617218295e-16
  endloop
endfacet
facet normal -1.0 1.6653345369377348e-16 -6.229457028880038e-16
  outer loop
    vertex -1.599999970704999 1.2999999853550006 7.444711617218295e-16
    vertex -1.5999999707050032 -1.0000000146450012 0.6000000000000002
    vertex -1.5999999707049999 -1.0000000146450003 1.1000000000000019
  endloop
endfacet
facet normal -1.0 1.6653345369377348e-16 -6.229457028880038e-16
  outer loop
    vertex -1.599999970704999 1.2999999853550006 7.444711617218295e-16
    vertex -1.5999999707049999 -1.0000000146450003 1.1000000000000019
    vertex -1.599999970705 0.9999999853549996 0.6000000000000012
  endloop
endfacet
facet normal -1.0 1.6653345369377348e-16 -6.229457028880038e-16
  outer loop
    vertex -1.599999970704999 1.2999999853550006 7.444711617218295e-16
    vertex -1.599999970705 0.9999999853549996 0.6000000000000012
    vertex -1.5999999707050008 1.2999999853550006 0.6000000000000013
  endloop
endfacet
facet normal 1.0 -1.6653345369377365e-16 1.7518606799343397e-15
  outer loop
    vertex 1.5999999707049974 -1.299999985354998 -1.1054268714879613e-15
    vertex 1.599999970704997 -1.0000000146449974 0.6000000000000003
    vertex 1.5999999707049972 -1.2999999853549982 0.6000000000000002
  endloop
endfacet
facet normal 1.0 -1.6653345369377365e-16 1.7518606799343397e-15
  outer loop
    vertex 1.599999970704997 -1.0000000146449974 0.6000000000000003
    vertex 1.5999999707049974 -1.299999985354998 -1.1054268714879613e-15
    vertex 1.5999999707049966 1.2999999853550004 1.8273382910202233e-15
  endloop
endfacet
facet normal 1.0 -1.6653345369377365e-16 1.7518606799343397e-15
  outer loop
    vertex 1.599999970704997 -1.0000000146449974 0.6000000000000003
    vertex 1.5999999707049966 1.2999999853550004 1.8273382910202233e-15
    vertex 1.5999999707049946 0.9999999853550019 0.6000000000000013
  endloop
endfacet
facet normal 1.0 -1.6653345369377365e-16 1.7518606799343397e-15
  outer loop
    vertex 1.599999970704997 -1.0000000146449974 0.6000000000000003
    vertex 1.5999999707049946 0.9999999853550019 0.6000000000000013
    vertex 1.5999999707049937 0.9999999853550013 1.1000000000000003
  endloop
endfacet
facet normal 1.0 -1.6653345369377365e-16 1.7518606799343397e-15
  outer loop
    vertex 1.5999999707049946 0.9999999853550019 0.6000000000000013
    vertex 1.5999999707049966 1.2999999853550004 1.8273382910202233e-15
    vertex 1.599999970704996 1.2999999853550004 0.6000000000000018
  endloop
endfacet
facet normal 1.0 -1.6653345369377365e-16 1.7518606799343397e-15
  outer loop
    vertex 1.5999999707049937 0.9999999853550013 1.1000000000000003
    vertex 1.5999999707049959 -1.0000000146449979 1.1
    vertex 1.599999970704997 -1.0000000146449974 0.6000000000000003
  endloop
endfacet
facet normal 4.608459033627457e-16 1.0498564132961074e-16 -1.0
  outer loop
    vertex 1.0499999999999974 1.2999999853550013 1.6504010594714645e-15
    vertex 0.3511466075035414 1.0000000000000004 1.2968416456269475e-15
    vertex 0.35114660750354026 1.2999999853550004 1.4080039724639182e-15
  endloop
endfacet
facet normal 4.608459033627457e-16 1.0498564132961074e-16 -1.0
  outer loop
    vertex 0.3511466075035414 1.0000000000000004 1.2968416456269475e-15
    vertex 1.0499999999999974 1.2999999853550013 1.6504010594714645e-15
    vertex 1.0499999999999972 0.9999999999999991 1.6985720045856977e-15
  endloop
endfacet
facet normal 1.6653345369377294e-16 1.0 1.1279866136718904e-15
  outer loop
    vertex -0.3500000000000027 1.2999999853550008 0.6000000000000012
    vertex 0.35114660750354026 1.2999999853550004 1.4080039724639182e-15
    vertex -0.35000000000000264 1.299999985355001 1.1632361784167164e-15
  endloop
endfacet
facet normal 1.6653345369377294e-16 1.0 1.1279866136718904e-15
  outer loop
    vertex 0.35114660750354026 1.2999999853550004 1.4080039724639182e-15
    vertex -0.3500000000000027 1.2999999853550008 0.6000000000000012
    vertex 0.3511466075035401 1.2999999853550004 0.3000000000000017
  endloop
endfacet
facet normal 1.6653345369377294e-16 1.0 1.1279866136718904e-15
  outer loop
    vertex 0.3511466075035401 1.2999999853550004 0.3000000000000017
    vertex -0.3500000000000027 1.2999999853550008 0.6000000000000012
    vertex 0.3511466075035399 1.2999999853550004 0.6000000000000012
  endloop
endfacet
facet normal -4.717034700501692e-16 -1.12798661367189e-15 1.0
  outer loop
    vertex 1.0499999999999974 0.9999999853550028 0.600000000000001
    vertex 1.599999970704996 1.2999999853550004 0.6000000000000018
    vertex 1.0499999999999972 1.299999985355001 0.6000000000000014
  endloop
endfacet
facet normal -4.717034700501692e-16 -1.12798661367189e-15 1.0
  outer loop
    vertex 1.599999970704996 1.2999999853550004 0.6000000000000018
    vertex 1.0499999999999974 0.9999999853550028 0.600000000000001
    vertex 1.5999999707049946 0.9999999853550019 0.6000000000000013
  endloop
endfacet
facet normal -4.178031814136772e-16 -1.278384826074444e-15 1.0
  outer loop
    vertex 0.3511466075035406 0.9999999853550013 0.6000000000000009
    vertex 1.0499999999999972 1.299999985355001 0.6000000000000014
    vertex 0.3511466075035399 1.2999999853550004 0.6000000000000012
  endloop
endfacet
facet normal -4.178031814136772e-16 -1.278384826074444e-15 1.0
  outer loop
    vertex 1.0499999999999972 1.299999985355001 0.6000000000000014
    vertex 0.3511466075035406 0.9999999853550013 0.6000000000000009
    vertex 1.0499999999999974 0.9999999853550028 0.600000000000001
  endloop
endfacet
facet normal 1.6653345369377294e-16 1.0 1.1279866136718904e-15
  outer loop
    vertex 1.0499999999999972 1.299999985355001 0.6000000000000014
    vertex 1.5999999707049966 1.2999999853550004 1.8273382910202233e-15
    vertex 1.0499999999999974 1.2999999853550013 1.6504010594714645e-15
  endloop
endfacet
facet normal 1.6653345369377294e-16 1.0 1.1279866136718904e-15
  outer loop
    vertex 1.5999999707049966 1.2999999853550004 1.8273382910202233e-15
    vertex 1.0499999999999972 1.299999985355001 0.6000000000000014
    vertex 1.599999970704996 1.2999999853550004 0.6000000000000018
  endloop
endfacet
facet normal 7.362126942572741e-16 2.0421257589726655e-15 -1.0
  outer loop
    vertex -1.0500000000000016 1.2999999853550006 9.221290360268575e-16
    vertex -0.3500000000000013 0.9999999853550021 8.248401943151519e-16
    vertex -1.050000000000002 0.999999985355003 3.5249564744827734e-17
  endloop
endfacet
facet normal 7.362126942572741e-16 2.0421257589726655e-15 -1.0
  outer loop
    vertex -0.3500000000000013 0.9999999853550021 8.248401943151519e-16
    vertex -1.0500000000000016 1.2999999853550006 9.221290360268575e-16
    vertex -0.35000000000000264 1.299999985355001 1.1632361784167164e-15
  endloop
endfacet
facet normal 1.6653345369377294e-16 1.0 1.1279866136718904e-15
  outer loop
    vertex 0.3511466075035401 1.2999999853550004 0.3000000000000017
    vertex 1.0499999999999974 1.2999999853550013 1.6504010594714645e-15
    vertex 0.35114660750354026 1.2999999853550004 1.4080039724639182e-15
  endloop
endfacet
facet normal 1.6653345369377294e-16 1.0 1.1279866136718904e-15
  outer loop
    vertex 1.0499999999999974 1.2999999853550013 1.6504010594714645e-15
    vertex 0.3511466075035401 1.2999999853550004 0.3000000000000017
    vertex 1.0499999999999972 1.299999985355001 0.6000000000000014
  endloop
endfacet
facet normal 1.6653345369377294e-16 1.0 1.1279866136718904e-15
  outer loop
    vertex 1.0499999999999972 1.299999985355001 0.6000000000000014
    vertex 0.3511466075035401 1.2999999853550004 0.3000000000000017
    vertex 0.3511466075035399 1.2999999853550004 0.6000000000000012
  endloop
endfacet
facet normal 1.6653345369377294e-16 1.0 1.1279866136718904e-15
  outer loop
    vertex -1.0500000000000016 1.2999999853550004 0.6000000000000013
    vertex -0.35000000000000264 1.299999985355001 1.1632361784167164e-15
    vertex -1.0500000000000016 1.2999999853550006 9.221290360268575e-16
  endloop
endfacet
facet normal 1.6653345369377294e-16 1.0 1.1279866136718904e-15
  outer loop
    vertex -0.35000000000000264 1.299999985355001 1.1632361784167164e-15
    vertex -1.0500000000000016 1.2999999853550004 0.6000000000000013
    vertex -0.3500000000000027 1.2999999853550008 0.6000000000000012
  endloop
endfacet
facet normal 1.6653345369377294e-16 1.0 1.1279866136718904e-15
  outer loop
    vertex -1.5999999707050008 1.2999999853550006 0.6000000000000013
    vertex -1.0500000000000016 1.2999999853550006 9.221290360268575e-16
    vertex -1.599999970704999 1.2999999853550006 7.444711617218295e-16
  endloop
endfacet
facet normal 1.6653345369377294e-16 1.0 1.1279866136718904e-15
  outer loop
    vertex -1.0500000000000016 1.2999999853550006 9.221290360268575e-16
    vertex -1.5999999707050008 1.2999999853550006 0.6000000000000013
    vertex -1.0500000000000016 1.2999999853550004 0.6000000000000013
  endloop
endfacet
facet normal -4.1896646948841875e-16 -1.2783848260744441e-15 1.0
  outer loop
    vertex -0.3500000000000014 0.9999999853550017 0.6000000000000009
    vertex -1.0500000000000016 1.2999999853550004 0.6000000000000013
    vertex -1.0500000000000025 0.9999999853550027 0.6000000000000011
  endloop
endfacet
facet normal -4.1896646948841875e-16 -1.2783848260744441e-15 1.0
  outer loop
    vertex -1.0500000000000016 1.2999999853550004 0.6000000000000013
    vertex -0.3500000000000014 0.9999999853550017 0.6000000000000009
    vertex -0.3500000000000027 1.2999999853550008 0.6000000000000012
  endloop
endfacet
facet normal -4.717034700501701e-16 -1.1279866136718902e-15 1.0
  outer loop
    vertex -1.599999970705 0.9999999853549996 0.6000000000000012
    vertex -1.0500000000000016 1.2999999853550004 0.6000000000000013
    vertex -1.5999999707050008 1.2999999853550006 0.6000000000000013
  endloop
endfacet
facet normal -4.717034700501701e-16 -1.1279866136718902e-15 1.0
  outer loop
    vertex -1.0500000000000016 1.2999999853550004 0.6000000000000013
    vertex -1.599999970705 0.9999999853549996 0.6000000000000012
    vertex -1.0500000000000025 0.9999999853550027 0.6000000000000011
  endloop
endfacet
facet normal 5.227503661904445e-16 1.1962971710890142e-15 -1.0
  outer loop
    vertex -1.0500000000000016 1.2999999853550006 9.221290360268575e-16
    vertex -1.050000000000002 0.999999985355003 3.5249564744827734e-17
    vertex -1.599999970704999 1.2999999853550006 7.444711617218295e-16
  endloop
endfacet
facet normal 5.227503661904445e-16 1.1962971710890142e-15 -1.0
  outer loop
    vertex -1.599999970704999 1.2999999853550006 7.444711617218295e-16
    vertex -1.0500000000000003 -1.299999985355 -2.8312463804926443e-15
    vertex -1.5999999707049994 -1.2999999853550002 -2.1882940007863574e-15
  endloop
endfacet
facet normal 5.227503661904445e-16 1.1962971710890142e-15 -1.0
  outer loop
    vertex -1.0500000000000003 -1.299999985355 -2.8312463804926443e-15
    vertex -1.599999970704999 1.2999999853550006 7.444711617218295e-16
    vertex -1.050000000000002 0.999999985355003 3.5249564744827734e-17
  endloop
endfacet
facet normal 5.227503661904445e-16 1.1962971710890142e-15 -1.0
  outer loop
    vertex -1.0500000000000003 -1.299999985355 -2.8312463804926443e-15
    vertex -1.050000000000002 0.999999985355003 3.5249564744827734e-17
    vertex -1.0499999999999998 -1.0000000146449992 -2.492850429429805e-15
  endloop
endfacet
facet normal 5.227503661904445e-16 1.1962971710890142e-15 -1.0
  outer loop
    vertex -1.0499999999999998 -1.0000000146449992 -2.492850429429805e-15
    vertex -1.050000000000002 0.999999985355003 3.5249564744827734e-17
    vertex -0.3500000000000013 0.9999999853550021 8.248401943151519e-16
  endloop
endfacet
facet normal 5.227503661904445e-16 1.1962971710890142e-15 -1.0
  outer loop
    vertex -1.0499999999999998 -1.0000000146449992 -2.492850429429805e-15
    vertex -0.3500000000000013 0.9999999853550021 8.248401943151519e-16
    vertex -0.35000000000000137 -1.000000014645 -1.7032597998594824e-15
  endloop
endfacet
facet normal 5.227503661904445e-16 1.1962971710890142e-15 -1.0
  outer loop
    vertex -0.35000000000000137 -1.000000014645 -1.7032597998594824e-15
    vertex -0.3500000000000013 0.9999999853550021 8.248401943151519e-16
    vertex -0.350000000000001 -1.2999999853549984 -2.0416557509223213e-15
  endloop
endfacet
facet normal 5.227503661904445e-16 1.1962971710890142e-15 -1.0
  outer loop
    vertex 0.35114660750354026 1.2999999853550004 1.4080039724639182e-15
    vertex -0.3500000000000013 0.9999999853550021 8.248401943151519e-16
    vertex -0.35000000000000264 1.299999985355001 1.1632361784167164e-15
  endloop
endfacet
facet normal 5.227503661904445e-16 1.1962971710890142e-15 -1.0
  outer loop
    vertex -0.3500000000000013 0.9999999853550021 8.248401943151519e-16
    vertex 0.35114660750354026 1.2999999853550004 1.4080039724639182e-15
    vertex -0.350000000000001 -1.2999999853549984 -2.0416557509223213e-15
  endloop
endfacet
facet normal 5.227503661904445e-16 1.1962971710890142e-15 -1.0
  outer loop
    vertex -0.350000000000001 -1.2999999853549984 -2.0416557509223213e-15
    vertex 0.35114660750354026 1.2999999853550004 1.4080039724639182e-15
    vertex 0.34999999999999876 -1.0000000146449985 -1.1872059216262647e-15
  endloop
endfacet
facet normal 5.227503661904445e-16 1.1962971710890142e-15 -1.0
  outer loop
    vertex 0.34999999999999876 -1.0000000146449985 -1.1872059216262647e-15
    vertex 0.35114660750354026 1.2999999853550004 1.4080039724639182e-15
    vertex 0.3511466075035414 1.0000000000000004 1.2968416456269475e-15
  endloop
endfacet
facet normal 5.227503661904445e-16 1.1962971710890142e-15 -1.0
  outer loop
    vertex 0.34999999999999876 -1.0000000146449985 -1.1872059216262647e-15
    vertex 0.3511466075035414 1.0000000000000004 1.2968416456269475e-15
    vertex 1.0499999999999983 -1.0000000146449974 -6.708418468109221e-16
  endloop
endfacet
facet normal 5.227503661904445e-16 1.1962971710890142e-15 -1.0
  outer loop
    vertex 1.0499999999999983 -1.0000000146449974 -6.708418468109221e-16
    vertex 0.3511466075035414 1.0000000000000004 1.2968416456269475e-15
    vertex 1.0499999999999972 0.9999999999999991 1.6985720045856977e-15
  endloop
endfacet
facet normal 5.227503661904445e-16 1.1962971710890142e-15 -1.0
  outer loop
    vertex 1.0499999999999983 -1.0000000146449974 -6.708418468109221e-16
    vertex 1.0499999999999972 0.9999999999999991 1.6985720045856977e-15
    vertex 1.0499999999999974 1.2999999853550013 1.6504010594714645e-15
  endloop
endfacet
facet normal 5.227503661904445e-16 1.1962971710890142e-15 -1.0
  outer loop
    vertex 1.0499999999999983 -1.0000000146449974 -6.708418468109221e-16
    vertex 1.0499999999999974 1.2999999853550013 1.6504010594714645e-15
    vertex 1.5999999707049966 1.2999999853550004 1.8273382910202233e-15
  endloop
endfacet
facet normal 5.227503661904445e-16 1.1962971710890142e-15 -1.0
  outer loop
    vertex 1.0499999999999983 -1.0000000146449974 -6.708418468109221e-16
    vertex 1.5999999707049966 1.2999999853550004 1.8273382910202233e-15
    vertex 1.0499999999999985 -1.2999999853549982 -1.2824643526287432e-15
  endloop
endfacet
facet normal 5.227503661904445e-16 1.1962971710890142e-15 -1.0
  outer loop
    vertex 1.0499999999999985 -1.2999999853549982 -1.2824643526287432e-15
    vertex 1.5999999707049966 1.2999999853550004 1.8273382910202233e-15
    vertex 1.5999999707049974 -1.299999985354998 -1.1054268714879613e-15
  endloop
endfacet
facet normal 5.227503661904445e-16 1.1962971710890142e-15 -1.0
  outer loop
    vertex 0.3499999999999994 -1.299999985354999 -1.5256018726891032e-15
    vertex -0.350000000000001 -1.2999999853549984 -2.0416557509223213e-15
    vertex 0.34999999999999876 -1.0000000146449985 -1.1872059216262647e-15
  endloop
endfacet
facet normal -1.6653345369377294e-16 -1.0 -1.1279866136718904e-15
  outer loop
    vertex 1.0499999999999985 -1.2999999853549982 -1.2824643526287432e-15
    vertex 0.34999999999999903 -1.2999999853549993 0.6000000000000005
    vertex 0.3499999999999994 -1.299999985354999 -1.5256018726891032e-15
  endloop
endfacet
facet normal -1.6653345369377294e-16 -1.0 -1.1279866136718904e-15
  outer loop
    vertex 0.34999999999999903 -1.2999999853549993 0.6000000000000005
    vertex 1.0499999999999985 -1.2999999853549982 -1.2824643526287432e-15
    vertex 1.0499999999999983 -1.2999999853549984 0.6000000000000004
  endloop
endfacet
facet normal -1.6653345369377294e-16 -1.0 -1.1279866136718904e-15
  outer loop
    vertex -1.0500000000000007 -1.2999999853550002 0.5999999999999998
    vertex -1.5999999707049994 -1.2999999853550002 -2.1882940007863574e-15
    vertex -1.0500000000000003 -1.299999985355 -2.8312463804926443e-15
  endloop
endfacet
facet normal -1.6653345369377294e-16 -1.0 -1.1279866136718904e-15
  outer loop
    vertex -1.5999999707049994 -1.2999999853550002 -2.1882940007863574e-15
    vertex -1.0500000000000007 -1.2999999853550002 0.5999999999999998
    vertex -1.5999999707050014 -1.299999985355001 0.5999999999999998
  endloop
endfacet
facet normal -1.6653345369377294e-16 -1.0 -1.1279866136718904e-15
  outer loop
    vertex 0.3499999999999994 -1.299999985354999 -1.5256018726891032e-15
    vertex -0.35000000000000125 -1.2999999853549988 0.6000000000000001
    vertex -0.350000000000001 -1.2999999853549984 -2.0416557509223213e-15
  endloop
endfacet
facet normal -1.6653345369377294e-16 -1.0 -1.1279866136718904e-15
  outer loop
    vertex -0.35000000000000125 -1.2999999853549988 0.6000000000000001
    vertex 0.3499999999999994 -1.299999985354999 -1.5256018726891032e-15
    vertex 0.34999999999999903 -1.2999999853549993 0.6000000000000005
  endloop
endfacet
facet normal -1.6653345369377294e-16 -1.0 -1.1279866136718904e-15
  outer loop
    vertex 1.5999999707049974 -1.299999985354998 -1.1054268714879613e-15
    vertex 1.0499999999999983 -1.2999999853549984 0.6000000000000004
    vertex 1.0499999999999985 -1.2999999853549982 -1.2824643526287432e-15
  endloop
endfacet
facet normal -1.6653345369377294e-16 -1.0 -1.1279866136718904e-15
  outer loop
    vertex 1.0499999999999983 -1.2999999853549984 0.6000000000000004
    vertex 1.5999999707049974 -1.299999985354998 -1.1054268714879613e-15
    vertex 1.5999999707049972 -1.2999999853549982 0.6000000000000002
  endloop
endfacet
facet normal -4.1896646948841964e-16 -1.2783848407583235e-15 1.0
  outer loop
    vertex -0.35000000000000125 -1.2999999853549988 0.6000000000000001
    vertex -1.0500000000000003 -1.0000000146449994 0.6000000000000003
    vertex -1.0500000000000007 -1.2999999853550002 0.5999999999999998
  endloop
endfacet
facet normal -4.1896646948841964e-16 -1.2783848407583235e-15 1.0
  outer loop
    vertex -1.0500000000000003 -1.0000000146449994 0.6000000000000003
    vertex -0.35000000000000125 -1.2999999853549988 0.6000000000000001
    vertex -0.3500000000000017 -1.0000000146450003 0.6000000000000003
  endloop
endfacet
facet normal -9.990738601839856e-16 -8.271901594990216e-16 1.0
  outer loop
    vertex -0.35000000000000125 -1.2999999853549988 0.6000000000000001
    vertex 0.3499999999999983 -1.0000000146449988 0.6000000000000005
    vertex -0.3500000000000017 -1.0000000146450003 0.6000000000000003
  endloop
endfacet
facet normal -9.990738601839856e-16 -8.271901594990216e-16 1.0
  outer loop
    vertex 0.3499999999999983 -1.0000000146449988 0.6000000000000005
    vertex -0.35000000000000125 -1.2999999853549988 0.6000000000000001
    vertex 0.34999999999999903 -1.2999999853549993 0.6000000000000005
  endloop
endfacet
facet normal -5.478792229763228e-16 -6.767919324125867e-16 1.0
  outer loop
    vertex 0.34999999999999903 -1.2999999853549993 0.6000000000000005
    vertex 1.0499999999999978 -1.0000000146449974 0.6000000000000005
    vertex 0.3499999999999983 -1.0000000146449988 0.6000000000000005
  endloop
endfacet
facet normal -5.478792229763228e-16 -6.767919324125867e-16 1.0
  outer loop
    vertex 1.0499999999999978 -1.0000000146449974 0.6000000000000005
    vertex 0.34999999999999903 -1.2999999853549993 0.6000000000000005
    vertex 1.0499999999999983 -1.2999999853549984 0.6000000000000004
  endloop
endfacet
facet normal -6.15265052865963e-17 -9.775883865854547e-16 1.0
  outer loop
    vertex 1.0499999999999983 -1.2999999853549984 0.6000000000000004
    vertex 1.599999970704997 -1.0000000146449974 0.6000000000000003
    vertex 1.0499999999999978 -1.0000000146449974 0.6000000000000005
  endloop
endfacet
facet normal -6.15265052865963e-17 -9.775883865854547e-16 1.0
  outer loop
    vertex 1.599999970704997 -1.0000000146449974 0.6000000000000003
    vertex 1.0499999999999983 -1.2999999853549984 0.6000000000000004
    vertex 1.5999999707049972 -1.2999999853549982 0.6000000000000002
  endloop
endfacet
facet normal 1.127986613671889e-15 1.1279866136718902e-15 -1.0
  outer loop
    vertex -1.0499999999999998 -1.0000000146449992 -2.492850429429805e-15
    vertex -0.350000000000001 -1.2999999853549984 -2.0416557509223213e-15
    vertex -1.0500000000000003 -1.299999985355 -2.8312463804926443e-15
  endloop
endfacet
facet normal 1.127986613671889e-15 1.1279866136718902e-15 -1.0
  outer loop
    vertex -0.350000000000001 -1.2999999853549984 -2.0416557509223213e-15
    vertex -1.0499999999999998 -1.0000000146449992 -2.492850429429805e-15
    vertex -0.35000000000000137 -1.000000014645 -1.7032597998594824e-15
  endloop
endfacet
facet normal 5.425011391969294e-16 1.5833642493902284e-15 -1.0
  outer loop
    vertex 1.0499999999999983 -1.0000000146449974 -6.708418468109221e-16
    vertex 0.3499999999999994 -1.299999985354999 -1.5256018726891032e-15
    vertex 0.34999999999999876 -1.0000000146449985 -1.1872059216262647e-15
  endloop
endfacet
facet normal 5.425011391969294e-16 1.5833642493902284e-15 -1.0
  outer loop
    vertex 0.3499999999999994 -1.299999985354999 -1.5256018726891032e-15
    vertex 1.0499999999999983 -1.0000000146449974 -6.708418468109221e-16
    vertex 1.0499999999999985 -1.2999999853549982 -1.2824643526287432e-15
  endloop
endfacet
endsolid LED-TRICOLOR-SMD
