solid EIA3216
facet normal 0.0 0.0 -1.0
  outer loop
    vertex -1.5000000000000024 0.6999999999999983 0.0
    vertex -1.5999999999999983 -0.6999999999999964 0.0
    vertex -1.600000000000001 0.7000000000000014 0.0
  endloop
endfacet
facet normal 0.0 0.0 -1.0
  outer loop
    vertex -1.5999999999999983 -0.6999999999999964 0.0
    vertex -1.5000000000000024 0.6999999999999983 0.0
    vertex -1.499999999999999 -0.699999999999999 0.0
  endloop
endfacet
facet normal 1.0 6.522560269672794e-16 0.0
  outer loop
    vertex 1.4999999999999991 0.7999999999999999 0.0
    vertex 1.4999999999999964 0.6999999999999988 0.49
    vertex 1.4999999999999964 0.6999999999999988 0.0
  endloop
endfacet
facet normal 1.0 6.522560269672794e-16 0.0
  outer loop
    vertex 1.5000000000000007 -0.6999999999999981 0.0
    vertex 1.4999999999999964 -0.7999999999999988 1.6000000000000003
    vertex 1.4999999999999964 -0.7999999999999988 0.0
  endloop
endfacet
facet normal 1.0 6.522560269672794e-16 0.0
  outer loop
    vertex 1.4999999999999964 -0.7999999999999988 1.6000000000000003
    vertex 1.5000000000000007 -0.6999999999999981 0.0
    vertex 1.5000000000000007 -0.6999999999999981 0.49
  endloop
endfacet
facet normal 1.0 6.522560269672794e-16 0.0
  outer loop
    vertex 1.4999999999999964 -0.7999999999999988 1.6000000000000003
    vertex 1.5000000000000007 -0.6999999999999981 0.49
    vertex 1.4999999999999991 0.7999999999999999 1.6000000000000003
  endloop
endfacet
facet normal 1.0 6.522560269672794e-16 0.0
  outer loop
    vertex 1.4999999999999991 0.7999999999999999 1.6000000000000003
    vertex 1.5000000000000007 -0.6999999999999981 0.49
    vertex 1.4999999999999964 0.6999999999999988 0.49
  endloop
endfacet
facet normal 1.0 6.522560269672794e-16 0.0
  outer loop
    vertex 1.4999999999999991 0.7999999999999999 1.6000000000000003
    vertex 1.4999999999999964 0.6999999999999988 0.49
    vertex 1.4999999999999991 0.7999999999999999 0.0
  endloop
endfacet
facet normal -1.0 -6.522560269672794e-16 0.0
  outer loop
    vertex -1.5000000000000016 -0.7999999999999996 1.6000000000000003
    vertex -1.499999999999999 -0.699999999999999 0.49
    vertex -1.5000000000000016 -0.7999999999999996 0.0
  endloop
endfacet
facet normal -1.0 -6.522560269672794e-16 0.0
  outer loop
    vertex -1.499999999999999 -0.699999999999999 0.49
    vertex -1.5000000000000016 -0.7999999999999996 1.6000000000000003
    vertex -1.4999999999999976 0.7999999999999984 1.6000000000000003
  endloop
endfacet
facet normal -1.0 -6.522560269672794e-16 0.0
  outer loop
    vertex -1.499999999999999 -0.699999999999999 0.49
    vertex -1.4999999999999976 0.7999999999999984 1.6000000000000003
    vertex -1.5000000000000024 0.6999999999999985 0.49
  endloop
endfacet
facet normal -1.0 -6.522560269672794e-16 0.0
  outer loop
    vertex -1.5000000000000024 0.6999999999999985 0.49
    vertex -1.4999999999999976 0.7999999999999984 0.0
    vertex -1.5000000000000024 0.6999999999999983 0.0
  endloop
endfacet
facet normal -1.0 -6.522560269672794e-16 0.0
  outer loop
    vertex -1.4999999999999976 0.7999999999999984 0.0
    vertex -1.5000000000000024 0.6999999999999985 0.49
    vertex -1.4999999999999976 0.7999999999999984 1.6000000000000003
  endloop
endfacet
facet normal -1.0 -6.522560269672794e-16 0.0
  outer loop
    vertex -1.499999999999999 -0.699999999999999 0.0
    vertex -1.5000000000000016 -0.7999999999999996 0.0
    vertex -1.499999999999999 -0.699999999999999 0.49
  endloop
endfacet
facet normal 1.0 6.522560269672794e-16 0.0
  outer loop
    vertex 1.5999999999999965 0.6999999999999965 0.0
    vertex 1.599999999999999 -0.7000000000000007 0.49
    vertex 1.599999999999999 -0.7000000000000007 0.0
  endloop
endfacet
facet normal 1.0 6.522560269672794e-16 0.0
  outer loop
    vertex 1.599999999999999 -0.7000000000000007 0.49
    vertex 1.5999999999999965 0.6999999999999965 0.0
    vertex 1.5999999999999965 0.6999999999999965 0.49
  endloop
endfacet
facet normal -1.0 -6.522560269672794e-16 0.0
  outer loop
    vertex -1.6000000000000008 0.7000000000000014 0.49
    vertex -1.5999999999999983 -0.6999999999999964 0.0
    vertex -1.5999999999999983 -0.6999999999999964 0.49
  endloop
endfacet
facet normal -1.0 -6.522560269672794e-16 0.0
  outer loop
    vertex -1.5999999999999983 -0.6999999999999964 0.0
    vertex -1.6000000000000008 0.7000000000000014 0.49
    vertex -1.600000000000001 0.7000000000000014 0.0
  endloop
endfacet
facet normal 6.522560269672794e-16 -1.0 0.0
  outer loop
    vertex -1.499999999999999 -0.699999999999999 0.49
    vertex -1.5999999999999983 -0.6999999999999964 0.0
    vertex -1.499999999999999 -0.699999999999999 0.0
  endloop
endfacet
facet normal 6.522560269672794e-16 -1.0 0.0
  outer loop
    vertex -1.5999999999999983 -0.6999999999999964 0.0
    vertex -1.499999999999999 -0.699999999999999 0.49
    vertex -1.5999999999999983 -0.6999999999999964 0.49
  endloop
endfacet
facet normal 0.0 0.0 1.0
  outer loop
    vertex -1.5999999999999983 -0.6999999999999964 0.49
    vertex -1.5000000000000024 0.6999999999999985 0.49
    vertex -1.6000000000000008 0.7000000000000014 0.49
  endloop
endfacet
facet normal 0.0 0.0 1.0
  outer loop
    vertex -1.5000000000000024 0.6999999999999985 0.49
    vertex -1.5999999999999983 -0.6999999999999964 0.49
    vertex -1.499999999999999 -0.699999999999999 0.49
  endloop
endfacet
facet normal -6.522560269672794e-16 1.0 -3.6832215282258297e-16
  outer loop
    vertex -1.6000000000000008 0.7000000000000014 0.49
    vertex -1.5000000000000024 0.6999999999999983 0.0
    vertex -1.600000000000001 0.7000000000000014 0.0
  endloop
endfacet
facet normal -6.522560269672794e-16 1.0 -3.6832215282258297e-16
  outer loop
    vertex -1.5000000000000024 0.6999999999999983 0.0
    vertex -1.6000000000000008 0.7000000000000014 0.49
    vertex -1.5000000000000024 0.6999999999999985 0.49
  endloop
endfacet
facet normal 0.0 0.0 1.0
  outer loop
    vertex 0.9999999999999997 -0.7999999999999998 1.6000000000000003
    vertex -1.4999999999999976 0.7999999999999984 1.6000000000000003
    vertex -1.5000000000000016 -0.7999999999999996 1.6000000000000003
  endloop
endfacet
facet normal 0.0 0.0 1.0
  outer loop
    vertex -1.4999999999999976 0.7999999999999984 1.6000000000000003
    vertex 0.9999999999999997 -0.7999999999999998 1.6000000000000003
    vertex 0.9999999999999978 0.799999999999999 1.6000000000000003
  endloop
endfacet
facet normal -1.0 -6.522560269672794e-16 0.0
  outer loop
    vertex -1.5000000000000024 0.6999999999999985 0.49
    vertex -1.499999999999999 -0.699999999999999 0.0
    vertex -1.499999999999999 -0.699999999999999 0.49
  endloop
endfacet
facet normal -1.0 -6.522560269672794e-16 0.0
  outer loop
    vertex -1.499999999999999 -0.699999999999999 0.0
    vertex -1.5000000000000024 0.6999999999999985 0.49
    vertex -1.5000000000000024 0.6999999999999983 0.0
  endloop
endfacet
facet normal -6.522560269672794e-16 1.0 0.0
  outer loop
    vertex 1.4999999999999964 0.6999999999999988 0.49
    vertex 1.5999999999999965 0.6999999999999965 0.0
    vertex 1.4999999999999964 0.6999999999999988 0.0
  endloop
endfacet
facet normal -6.522560269672794e-16 1.0 0.0
  outer loop
    vertex 1.5999999999999965 0.6999999999999965 0.0
    vertex 1.4999999999999964 0.6999999999999988 0.49
    vertex 1.5999999999999965 0.6999999999999965 0.49
  endloop
endfacet
facet normal 6.522560269672794e-16 -1.0 0.0
  outer loop
    vertex 1.599999999999999 -0.7000000000000007 0.49
    vertex 1.5000000000000007 -0.6999999999999981 0.0
    vertex 1.599999999999999 -0.7000000000000007 0.0
  endloop
endfacet
facet normal 6.522560269672794e-16 -1.0 0.0
  outer loop
    vertex 1.5000000000000007 -0.6999999999999981 0.0
    vertex 1.599999999999999 -0.7000000000000007 0.49
    vertex 1.5000000000000007 -0.6999999999999981 0.49
  endloop
endfacet
facet normal 0.0 0.0 1.0
  outer loop
    vertex 1.5000000000000007 -0.6999999999999981 0.49
    vertex 1.5999999999999965 0.6999999999999965 0.49
    vertex 1.4999999999999964 0.6999999999999988 0.49
  endloop
endfacet
facet normal 0.0 0.0 1.0
  outer loop
    vertex 1.5999999999999965 0.6999999999999965 0.49
    vertex 1.5000000000000007 -0.6999999999999981 0.49
    vertex 1.599999999999999 -0.7000000000000007 0.49
  endloop
endfacet
facet normal -6.522560269672794e-16 1.0 0.0
  outer loop
    vertex -1.4999999999999976 0.7999999999999984 1.6000000000000003
    vertex 1.4999999999999991 0.7999999999999999 0.0
    vertex -1.4999999999999976 0.7999999999999984 0.0
  endloop
endfacet
facet normal -6.522560269672794e-16 1.0 0.0
  outer loop
    vertex 1.4999999999999991 0.7999999999999999 0.0
    vertex -1.4999999999999976 0.7999999999999984 1.6000000000000003
    vertex 1.4999999999999991 0.7999999999999999 1.6000000000000003
  endloop
endfacet
facet normal -6.522560269672794e-16 1.0 0.0
  outer loop
    vertex 1.4999999999999991 0.7999999999999999 1.6000000000000003
    vertex -1.4999999999999976 0.7999999999999984 1.6000000000000003
    vertex 0.9999999999999978 0.799999999999999 1.6000000000000003
  endloop
endfacet
facet normal 6.522560269672794e-16 -1.0 0.0
  outer loop
    vertex 1.4999999999999964 -0.7999999999999988 1.6000000000000003
    vertex -1.5000000000000016 -0.7999999999999996 0.0
    vertex 1.4999999999999964 -0.7999999999999988 0.0
  endloop
endfacet
facet normal 6.522560269672794e-16 -1.0 0.0
  outer loop
    vertex -1.5000000000000016 -0.7999999999999996 0.0
    vertex 1.4999999999999964 -0.7999999999999988 1.6000000000000003
    vertex -1.5000000000000016 -0.7999999999999996 1.6000000000000003
  endloop
endfacet
facet normal 6.522560269672794e-16 -1.0 0.0
  outer loop
    vertex -1.5000000000000016 -0.7999999999999996 1.6000000000000003
    vertex 1.4999999999999964 -0.7999999999999988 1.6000000000000003
    vertex 0.9999999999999997 -0.7999999999999998 1.6000000000000003
  endloop
endfacet
facet normal 0.0 0.0 1.0
  outer loop
    vertex 0.9999999999999997 -0.7999999999999998 1.6000000000000003
    vertex 1.4999999999999991 0.7999999999999999 1.6000000000000003
    vertex 0.9999999999999978 0.799999999999999 1.6000000000000003
  endloop
endfacet
facet normal 0.0 0.0 1.0
  outer loop
    vertex 1.4999999999999991 0.7999999999999999 1.6000000000000003
    vertex 0.9999999999999997 -0.7999999999999998 1.6000000000000003
    vertex 1.4999999999999964 -0.7999999999999988 1.6000000000000003
  endloop
endfacet
facet normal 0.0 0.0 -1.0
  outer loop
    vertex -1.4999999999999976 0.7999999999999984 0.0
    vertex -1.499999999999999 -0.699999999999999 0.0
    vertex -1.5000000000000024 0.6999999999999983 0.0
  endloop
endfacet
facet normal 0.0 0.0 -1.0
  outer loop
    vertex 1.4999999999999991 0.7999999999999999 0.0
    vertex 1.4999999999999964 0.6999999999999988 0.0
    vertex -1.4999999999999976 0.7999999999999984 0.0
  endloop
endfacet
facet normal 0.0 0.0 -1.0
  outer loop
    vertex -1.499999999999999 -0.699999999999999 0.0
    vertex 1.4999999999999964 -0.7999999999999988 0.0
    vertex -1.5000000000000016 -0.7999999999999996 0.0
  endloop
endfacet
facet normal 0.0 0.0 -1.0
  outer loop
    vertex 1.4999999999999964 -0.7999999999999988 0.0
    vertex -1.499999999999999 -0.699999999999999 0.0
    vertex -1.4999999999999976 0.7999999999999984 0.0
  endloop
endfacet
facet normal 0.0 0.0 -1.0
  outer loop
    vertex 1.4999999999999964 -0.7999999999999988 0.0
    vertex -1.4999999999999976 0.7999999999999984 0.0
    vertex 1.4999999999999964 0.6999999999999988 0.0
  endloop
endfacet
facet normal 0.0 0.0 -1.0
  outer loop
    vertex 1.4999999999999964 -0.7999999999999988 0.0
    vertex 1.4999999999999964 0.6999999999999988 0.0
    vertex 1.5000000000000007 -0.6999999999999981 0.0
  endloop
endfacet
facet normal 1.0 6.522560269672794e-16 0.0
  outer loop
    vertex 1.4999999999999964 0.6999999999999988 0.0
    vertex 1.5000000000000007 -0.6999999999999981 0.49
    vertex 1.5000000000000007 -0.6999999999999981 0.0
  endloop
endfacet
facet normal 1.0 6.522560269672794e-16 0.0
  outer loop
    vertex 1.5000000000000007 -0.6999999999999981 0.49
    vertex 1.4999999999999964 0.6999999999999988 0.0
    vertex 1.4999999999999964 0.6999999999999988 0.49
  endloop
endfacet
facet normal 0.0 0.0 -1.0
  outer loop
    vertex 1.5999999999999965 0.6999999999999965 0.0
    vertex 1.5000000000000007 -0.6999999999999981 0.0
    vertex 1.4999999999999964 0.6999999999999988 0.0
  endloop
endfacet
facet normal 0.0 0.0 -1.0
  outer loop
    vertex 1.5000000000000007 -0.6999999999999981 0.0
    vertex 1.5999999999999965 0.6999999999999965 0.0
    vertex 1.599999999999999 -0.7000000000000007 0.0
  endloop
endfacet
endsolid EIA3216
