solid EIA3528
facet normal 1.0 -2.4421006280623483e-16 1.0847026080701222e-15
  outer loop
    vertex 1.6500000000000017 -1.1000000000000008 7.086069622812657e-18
    vertex 1.6500000000000012 -1.100000000000001 0.4899999999999998
    vertex 1.6500000000000017 -1.2999999999999992 0.0
  endloop
endfacet
facet normal 1.0 -2.4421006280623483e-16 1.0847026080701222e-15
  outer loop
    vertex 1.6500000000000017 -1.2999999999999992 0.0
    vertex 1.6499999999999972 -1.4000000000000004 1.900000000000001
    vertex 1.6499999999999972 -1.4000000000000004 0.0
  endloop
endfacet
facet normal 1.0 -2.4421006280623483e-16 1.0847026080701222e-15
  outer loop
    vertex 1.6499999999999972 -1.4000000000000004 1.900000000000001
    vertex 1.6500000000000017 -1.2999999999999992 0.0
    vertex 1.6500000000000012 -1.100000000000001 0.4899999999999998
  endloop
endfacet
facet normal 1.0 -2.4421006280623483e-16 1.0847026080701222e-15
  outer loop
    vertex 1.6499999999999972 -1.4000000000000004 1.900000000000001
    vertex 1.6500000000000012 -1.100000000000001 0.4899999999999998
    vertex 1.6499999999999995 1.4 1.900000000000001
  endloop
endfacet
facet normal 1.0 -2.4421006280623483e-16 1.0847026080701222e-15
  outer loop
    vertex 1.6499999999999995 1.4 1.900000000000001
    vertex 1.6500000000000012 -1.100000000000001 0.4899999999999998
    vertex 1.649999999999999 1.099999999999999 0.4899999999999998
  endloop
endfacet
facet normal 1.0 -2.4421006280623483e-16 1.0847026080701222e-15
  outer loop
    vertex 1.6499999999999995 1.4 1.900000000000001
    vertex 1.649999999999999 1.099999999999999 0.4899999999999998
    vertex 1.6500000000000001 1.0999999999999992 8.676819946301221e-17
  endloop
endfacet
facet normal 1.0 -2.4421006280623483e-16 1.0847026080701222e-15
  outer loop
    vertex 1.6499999999999995 1.4 1.900000000000001
    vertex 1.6500000000000001 1.0999999999999992 8.676819946301221e-17
    vertex 1.6500000000000001 1.4 0.0
  endloop
endfacet
facet normal 1.7600242770279795e-16 -1.0 -1.0673337679189876e-16
  outer loop
    vertex 1.6499999999999972 -1.4000000000000004 1.900000000000001
    vertex -1.6500000000000001 -1.4000000000000008 0.0
    vertex 1.6499999999999972 -1.4000000000000004 0.0
  endloop
endfacet
facet normal 1.7600242770279795e-16 -1.0 -1.0673337679189876e-16
  outer loop
    vertex -1.6500000000000001 -1.4000000000000008 0.0
    vertex 1.6499999999999972 -1.4000000000000004 1.900000000000001
    vertex -1.6500000000000001 -1.400000000000001 1.900000000000001
  endloop
endfacet
facet normal 1.7600242770279795e-16 -1.0 -1.0673337679189876e-16
  outer loop
    vertex -1.6500000000000001 -1.400000000000001 1.900000000000001
    vertex 1.6499999999999972 -1.4000000000000004 1.900000000000001
    vertex 1.1499999999999988 -1.4000000000000006 1.900000000000001
  endloop
endfacet
facet normal 2.226472771058921e-16 1.0 1.5356311065881652e-17
  outer loop
    vertex -1.6500000000000001 1.4000000000000008 1.900000000000001
    vertex 1.6500000000000001 1.4 0.0
    vertex -1.6500000000000001 1.4000000000000008 0.0
  endloop
endfacet
facet normal 2.226472771058921e-16 1.0 1.5356311065881652e-17
  outer loop
    vertex 1.6500000000000001 1.4 0.0
    vertex -1.6500000000000001 1.4000000000000008 1.900000000000001
    vertex 1.6499999999999995 1.4 1.900000000000001
  endloop
endfacet
facet normal 2.226472771058921e-16 1.0 1.5356311065881652e-17
  outer loop
    vertex 1.6499999999999995 1.4 1.900000000000001
    vertex -1.6500000000000001 1.4000000000000008 1.900000000000001
    vertex 1.1499999999999988 1.4 1.900000000000001
  endloop
endfacet
facet normal 1.0 -7.734765209274232e-17 2.420402718548401e-16
  outer loop
    vertex 1.7500000000000009 1.0999999999999992 1.7353639892602441e-16
    vertex 1.7500000000000004 -1.100000000000001 0.48999999999999966
    vertex 1.7500000000000004 -1.100000000000001 6.941455957041009e-18
  endloop
endfacet
facet normal 1.0 -7.734765209274232e-17 2.420402718548401e-16
  outer loop
    vertex 1.7500000000000004 -1.100000000000001 0.48999999999999966
    vertex 1.7500000000000009 1.0999999999999992 1.7353639892602441e-16
    vertex 1.7500000000000004 1.0999999999999992 0.48999999999999966
  endloop
endfacet
facet normal -1.0 0.0 0.0
  outer loop
    vertex -1.6500000000000001 -1.400000000000001 1.900000000000001
    vertex -1.6500000000000001 -1.1000000000000008 0.5
    vertex -1.6500000000000001 -1.4000000000000008 0.0
  endloop
endfacet
facet normal -1.0 0.0 0.0
  outer loop
    vertex -1.6500000000000001 -1.1000000000000008 0.5
    vertex -1.6500000000000001 -1.400000000000001 1.900000000000001
    vertex -1.6500000000000001 1.4000000000000008 1.900000000000001
  endloop
endfacet
facet normal -1.0 0.0 0.0
  outer loop
    vertex -1.6500000000000001 -1.1000000000000008 0.5
    vertex -1.6500000000000001 1.4000000000000008 1.900000000000001
    vertex -1.6500000000000001 1.100000000000001 0.5000000000000002
  endloop
endfacet
facet normal -1.0 0.0 0.0
  outer loop
    vertex -1.6500000000000001 1.100000000000001 0.5000000000000002
    vertex -1.6500000000000001 1.4000000000000008 0.0
    vertex -1.6500000000000001 1.1000000000000008 0.0
  endloop
endfacet
facet normal -1.0 0.0 0.0
  outer loop
    vertex -1.6500000000000001 1.4000000000000008 0.0
    vertex -1.6500000000000001 1.100000000000001 0.5000000000000002
    vertex -1.6500000000000001 1.4000000000000008 1.900000000000001
  endloop
endfacet
facet normal -1.0 0.0 0.0
  outer loop
    vertex -1.6500000000000001 -1.1000000000000008 0.0
    vertex -1.6500000000000001 -1.4000000000000008 0.0
    vertex -1.6500000000000001 -1.1000000000000008 0.5
  endloop
endfacet
facet normal 0.0 0.0 -1.0
  outer loop
    vertex -1.6500000000000001 1.1000000000000008 0.0
    vertex -1.7500000000000002 -1.1000000000000008 0.0
    vertex -1.7500000000000002 1.1000000000000008 0.0
  endloop
endfacet
facet normal 0.0 0.0 -1.0
  outer loop
    vertex -1.7500000000000002 -1.1000000000000008 0.0
    vertex -1.6500000000000001 1.1000000000000008 0.0
    vertex -1.6500000000000001 -1.1000000000000008 0.0
  endloop
endfacet
facet normal 4.3311792898620724e-16 5.597206200208713e-17 -1.0
  outer loop
    vertex 1.7500000000000009 1.0999999999999992 1.7353639892602441e-16
    vertex 1.6500000000000017 -1.1000000000000008 7.086069622812657e-18
    vertex 1.6500000000000001 1.0999999999999992 8.676819946301221e-17
  endloop
endfacet
facet normal 4.3311792898620724e-16 5.597206200208713e-17 -1.0
  outer loop
    vertex 1.6500000000000017 -1.1000000000000008 7.086069622812657e-18
    vertex 1.7500000000000009 1.0999999999999992 1.7353639892602441e-16
    vertex 1.7500000000000004 -1.100000000000001 6.941455957041009e-18
  endloop
endfacet
facet normal 1.804778548830648e-15 8.866921849446816e-31 1.0
  outer loop
    vertex 1.6500000000000012 -1.100000000000001 0.4899999999999998
    vertex 1.7500000000000004 1.0999999999999992 0.48999999999999966
    vertex 1.649999999999999 1.099999999999999 0.4899999999999998
  endloop
endfacet
facet normal 1.804778548830648e-15 8.866921849446816e-31 1.0
  outer loop
    vertex 1.7500000000000004 1.0999999999999992 0.48999999999999966
    vertex 1.6500000000000012 -1.100000000000001 0.4899999999999998
    vertex 1.7500000000000004 -1.100000000000001 0.48999999999999966
  endloop
endfacet
facet normal -1.8047785488306687e-15 -1.0 -3.6832215282258346e-16
  outer loop
    vertex 1.7500000000000004 -1.100000000000001 0.48999999999999966
    vertex 1.6500000000000017 -1.1000000000000008 7.086069622812657e-18
    vertex 1.7500000000000004 -1.100000000000001 6.941455957041009e-18
  endloop
endfacet
facet normal -1.8047785488306687e-15 -1.0 -3.6832215282258346e-16
  outer loop
    vertex 1.6500000000000017 -1.1000000000000008 7.086069622812657e-18
    vertex 1.7500000000000004 -1.100000000000001 0.48999999999999966
    vertex 1.6500000000000012 -1.100000000000001 0.4899999999999998
  endloop
endfacet
facet normal 1.0 8.203538858321158e-16 1.4732886112903317e-15
  outer loop
    vertex 1.6500000000000017 -1.1000000000000008 7.086069622812657e-18
    vertex 1.649999999999999 1.099999999999999 0.4899999999999998
    vertex 1.6500000000000012 -1.100000000000001 0.4899999999999998
  endloop
endfacet
facet normal 1.0 8.203538858321158e-16 1.4732886112903317e-15
  outer loop
    vertex 1.649999999999999 1.099999999999999 0.4899999999999998
    vertex 1.6500000000000017 -1.1000000000000008 7.086069622812657e-18
    vertex 1.6500000000000001 1.0999999999999992 8.676819946301221e-17
  endloop
endfacet
facet normal -1.0 0.0 0.0
  outer loop
    vertex -1.7500000000000002 1.100000000000001 0.5000000000000002
    vertex -1.7500000000000002 -1.1000000000000008 0.0
    vertex -1.7500000000000002 -1.1000000000000008 0.5
  endloop
endfacet
facet normal -1.0 0.0 0.0
  outer loop
    vertex -1.7500000000000002 -1.1000000000000008 0.0
    vertex -1.7500000000000002 1.100000000000001 0.5000000000000002
    vertex -1.7500000000000002 1.1000000000000008 0.0
  endloop
endfacet
facet normal 0.0 -1.0 0.0
  outer loop
    vertex -1.6500000000000001 -1.1000000000000008 0.5
    vertex -1.7500000000000002 -1.1000000000000008 0.0
    vertex -1.6500000000000001 -1.1000000000000008 0.0
  endloop
endfacet
facet normal 0.0 -1.0 0.0
  outer loop
    vertex -1.7500000000000002 -1.1000000000000008 0.0
    vertex -1.6500000000000001 -1.1000000000000008 0.5
    vertex -1.7500000000000002 -1.1000000000000008 0.5
  endloop
endfacet
facet normal 0.0 -8.203538858321151e-17 1.0
  outer loop
    vertex -1.6500000000000001 -1.1000000000000008 0.5
    vertex -1.7500000000000002 1.100000000000001 0.5000000000000002
    vertex -1.7500000000000002 -1.1000000000000008 0.5
  endloop
endfacet
facet normal 0.0 -8.203538858321151e-17 1.0
  outer loop
    vertex -1.7500000000000002 1.100000000000001 0.5000000000000002
    vertex -1.6500000000000001 -1.1000000000000008 0.5
    vertex -1.6500000000000001 1.100000000000001 0.5000000000000002
  endloop
endfacet
facet normal -0.0 -0.0 1.0
  outer loop
    vertex 1.1499999999999988 -1.4000000000000006 1.900000000000001
    vertex -1.6500000000000001 1.4000000000000008 1.900000000000001
    vertex -1.6500000000000001 -1.400000000000001 1.900000000000001
  endloop
endfacet
facet normal -0.0 -0.0 1.0
  outer loop
    vertex -1.6500000000000001 1.4000000000000008 1.900000000000001
    vertex 1.1499999999999988 -1.4000000000000006 1.900000000000001
    vertex 1.1499999999999988 1.4 1.900000000000001
  endloop
endfacet
facet normal -0.0 -0.0 1.0
  outer loop
    vertex 1.6499999999999972 -1.4000000000000004 1.900000000000001
    vertex 1.1499999999999988 1.4 1.900000000000001
    vertex 1.1499999999999988 -1.4000000000000006 1.900000000000001
  endloop
endfacet
facet normal -0.0 -0.0 1.0
  outer loop
    vertex 1.1499999999999988 1.4 1.900000000000001
    vertex 1.6499999999999972 -1.4000000000000004 1.900000000000001
    vertex 1.6499999999999995 1.4 1.900000000000001
  endloop
endfacet
endsolid EIA3528
