solid EIA7343
facet normal 9.09056728157809e-17 -1.0 1.6040285213624717e-16
  outer loop
    vertex 3.6500000000000004 -1.9999999999999984 4.0
    vertex -3.6499999999999972 -2.0 0.0
    vertex 3.6500000000000004 -1.9999999999999984 0.0
  endloop
endfacet
facet normal 9.09056728157809e-17 -1.0 1.6040285213624717e-16
  outer loop
    vertex -3.6499999999999972 -2.0 0.0
    vertex 3.6500000000000004 -1.9999999999999984 4.0
    vertex -3.6499999999999972 -1.9999999999999984 4.0
  endloop
endfacet
facet normal 9.09056728157809e-17 -1.0 1.6040285213624717e-16
  outer loop
    vertex -3.6499999999999972 -1.9999999999999984 4.0
    vertex 3.6500000000000004 -1.9999999999999984 4.0
    vertex 2.65 -1.9999999999999984 4.0
  endloop
endfacet
facet normal -0.0 1.0 -0.0
  outer loop
    vertex -3.6499999999999972 1.9999999999999993 4.0
    vertex 3.650000000000003 1.9999999999999993 0.0
    vertex -3.6499999999999972 1.9999999999999993 0.0
  endloop
endfacet
facet normal -0.0 1.0 -0.0
  outer loop
    vertex 3.650000000000003 1.9999999999999993 0.0
    vertex -3.6499999999999972 1.9999999999999993 4.0
    vertex 3.6500000000000017 1.9999999999999993 4.0
  endloop
endfacet
facet normal -0.0 1.0 -0.0
  outer loop
    vertex 3.6500000000000017 1.9999999999999993 4.0
    vertex -3.6499999999999972 1.9999999999999993 4.0
    vertex 2.65 1.9999999999999993 4.0
  endloop
endfacet
facet normal -1.0 0.0 0.0
  outer loop
    vertex -3.6499999999999972 1.9999999999999993 4.0
    vertex -3.6499999999999972 -1.3999999999999995 2.0
    vertex -3.6499999999999972 -1.9999999999999984 4.0
  endloop
endfacet
facet normal -1.0 0.0 0.0
  outer loop
    vertex -3.6499999999999972 -1.3999999999999995 2.0
    vertex -3.6499999999999972 1.9999999999999993 4.0
    vertex -3.6499999999999972 1.3999999999999992 2.0
  endloop
endfacet
facet normal -1.0 0.0 0.0
  outer loop
    vertex -3.6499999999999972 1.3999999999999992 2.0
    vertex -3.6499999999999972 1.9999999999999993 4.0
    vertex -3.6499999999999972 1.3999999999999992 0.0
  endloop
endfacet
facet normal -1.0 0.0 0.0
  outer loop
    vertex -3.6499999999999972 1.3999999999999992 0.0
    vertex -3.6499999999999972 1.9999999999999993 4.0
    vertex -3.6499999999999972 1.9999999999999993 0.0
  endloop
endfacet
facet normal -1.0 0.0 0.0
  outer loop
    vertex -3.6499999999999972 -1.9999999999999984 4.0
    vertex -3.6499999999999972 -1.3999999999999992 0.0
    vertex -3.6499999999999972 -2.0 0.0
  endloop
endfacet
facet normal -1.0 0.0 0.0
  outer loop
    vertex -3.6499999999999972 -1.3999999999999992 0.0
    vertex -3.6499999999999972 -1.9999999999999984 4.0
    vertex -3.6499999999999972 -1.3999999999999995 2.0
  endloop
endfacet
facet normal -0.0 -0.0 1.0
  outer loop
    vertex 3.6500000000000004 -1.9999999999999984 4.0
    vertex 2.65 1.9999999999999993 4.0
    vertex 2.65 -1.9999999999999984 4.0
  endloop
endfacet
facet normal -0.0 -0.0 1.0
  outer loop
    vertex 2.65 1.9999999999999993 4.0
    vertex 3.6500000000000004 -1.9999999999999984 4.0
    vertex 3.6500000000000017 1.9999999999999993 4.0
  endloop
endfacet
facet normal -0.0 -0.0 1.0
  outer loop
    vertex 2.65 -1.9999999999999984 4.0
    vertex -3.6499999999999972 1.9999999999999993 4.0
    vertex -3.6499999999999972 -1.9999999999999984 4.0
  endloop
endfacet
facet normal -0.0 -0.0 1.0
  outer loop
    vertex -3.6499999999999972 1.9999999999999993 4.0
    vertex 2.65 -1.9999999999999984 4.0
    vertex 2.65 1.9999999999999993 4.0
  endloop
endfacet
facet normal 1.0 -6.86418847361023e-16 1.4332937925665414e-16
  outer loop
    vertex 3.650000000000003 1.9999999999999993 0.0
    vertex 3.650000000000003 1.3999999999999995 2.0
    vertex 3.650000000000002 1.3999999999999992 0.0
  endloop
endfacet
facet normal 1.0 -6.86418847361023e-16 1.4332937925665414e-16
  outer loop
    vertex 3.6500000000000004 -1.3999999999999986 0.0
    vertex 3.6500000000000004 -1.9999999999999984 4.0
    vertex 3.6500000000000004 -1.9999999999999984 0.0
  endloop
endfacet
facet normal 1.0 -6.86418847361023e-16 1.4332937925665414e-16
  outer loop
    vertex 3.6500000000000004 -1.9999999999999984 4.0
    vertex 3.6500000000000004 -1.3999999999999986 0.0
    vertex 3.6500000000000004 -1.3999999999999986 2.0
  endloop
endfacet
facet normal 1.0 -6.86418847361023e-16 1.4332937925665414e-16
  outer loop
    vertex 3.6500000000000004 -1.9999999999999984 4.0
    vertex 3.6500000000000004 -1.3999999999999986 2.0
    vertex 3.6500000000000017 1.9999999999999993 4.0
  endloop
endfacet
facet normal 1.0 -6.86418847361023e-16 1.4332937925665414e-16
  outer loop
    vertex 3.6500000000000017 1.9999999999999993 4.0
    vertex 3.6500000000000004 -1.3999999999999986 2.0
    vertex 3.650000000000003 1.3999999999999995 2.0
  endloop
endfacet
facet normal 1.0 -6.86418847361023e-16 1.4332937925665414e-16
  outer loop
    vertex 3.6500000000000017 1.9999999999999993 4.0
    vertex 3.650000000000003 1.3999999999999995 2.0
    vertex 3.650000000000003 1.9999999999999993 0.0
  endloop
endfacet
facet normal 1.0 -9.023892744153278e-16 -1.8047785488306537e-16
  outer loop
    vertex 3.800000000000002 1.399999999999999 -2.7071678232459805e-17
    vertex 3.8 -1.3999999999999988 2.0
    vertex 3.8 -1.3999999999999988 -2.7071678232459805e-17
  endloop
endfacet
facet normal 1.0 -9.023892744153278e-16 -1.8047785488306537e-16
  outer loop
    vertex 3.8 -1.3999999999999988 2.0
    vertex 3.800000000000002 1.399999999999999 -2.7071678232459805e-17
    vertex 3.800000000000003 1.3999999999999992 2.0
  endloop
endfacet
facet normal 9.023892744153278e-16 1.0 -9.023892744153304e-17
  outer loop
    vertex 3.650000000000002 1.3999999999999992 0.0
    vertex 3.800000000000003 1.3999999999999992 2.0
    vertex 3.800000000000002 1.399999999999999 -2.7071678232459805e-17
  endloop
endfacet
facet normal 9.023892744153278e-16 1.0 -9.023892744153304e-17
  outer loop
    vertex 3.800000000000003 1.3999999999999992 2.0
    vertex 3.650000000000002 1.3999999999999992 0.0
    vertex 3.650000000000003 1.3999999999999995 2.0
  endloop
endfacet
facet normal 1.8047785488306542e-16 -1.8612717773253055e-31 1.0
  outer loop
    vertex 3.8 -1.3999999999999988 2.0
    vertex 3.650000000000003 1.3999999999999995 2.0
    vertex 3.6500000000000004 -1.3999999999999986 2.0
  endloop
endfacet
facet normal 1.8047785488306542e-16 -1.8612717773253055e-31 1.0
  outer loop
    vertex 3.650000000000003 1.3999999999999995 2.0
    vertex 3.8 -1.3999999999999988 2.0
    vertex 3.800000000000003 1.3999999999999992 2.0
  endloop
endfacet
facet normal -9.023892744153278e-16 -1.0 -0.0
  outer loop
    vertex 3.8 -1.3999999999999988 2.0
    vertex 3.6500000000000004 -1.3999999999999986 0.0
    vertex 3.8 -1.3999999999999988 -2.7071678232459805e-17
  endloop
endfacet
facet normal -9.023892744153278e-16 -1.0 -0.0
  outer loop
    vertex 3.6500000000000004 -1.3999999999999986 0.0
    vertex 3.8 -1.3999999999999988 2.0
    vertex 3.6500000000000004 -1.3999999999999986 2.0
  endloop
endfacet
facet normal -1.250018342349795e-18 8.2332706262725e-34 -1.0
  outer loop
    vertex -3.6499999999999972 1.3999999999999992 0.0
    vertex -3.799999999999997 -1.3999999999999992 0.0
    vertex -3.799999999999997 1.3999999999999992 0.0
  endloop
endfacet
facet normal -1.250018342349795e-18 8.2332706262725e-34 -1.0
  outer loop
    vertex -3.799999999999997 -1.3999999999999992 0.0
    vertex -3.6499999999999972 1.3999999999999992 0.0
    vertex -3.6499999999999972 -1.3999999999999992 0.0
  endloop
endfacet
facet normal -1.250018342349795e-18 8.2332706262725e-34 -1.0
  outer loop
    vertex 3.650000000000003 1.9999999999999993 0.0
    vertex -3.6499999999999972 1.3999999999999992 0.0
    vertex -3.6499999999999972 1.9999999999999993 0.0
  endloop
endfacet
facet normal -1.250018342349795e-18 8.2332706262725e-34 -1.0
  outer loop
    vertex -3.6499999999999972 1.3999999999999992 0.0
    vertex 3.650000000000003 1.9999999999999993 0.0
    vertex -3.6499999999999972 -1.3999999999999992 0.0
  endloop
endfacet
facet normal -1.250018342349795e-18 8.2332706262725e-34 -1.0
  outer loop
    vertex -3.6499999999999972 -1.3999999999999992 0.0
    vertex 3.650000000000003 1.9999999999999993 0.0
    vertex -3.6499999999999972 -2.0 0.0
  endloop
endfacet
facet normal -1.250018342349795e-18 8.2332706262725e-34 -1.0
  outer loop
    vertex -3.6499999999999972 -2.0 0.0
    vertex 3.650000000000003 1.9999999999999993 0.0
    vertex 3.650000000000002 1.3999999999999992 0.0
  endloop
endfacet
facet normal -1.250018342349795e-18 8.2332706262725e-34 -1.0
  outer loop
    vertex -3.6499999999999972 -2.0 0.0
    vertex 3.650000000000002 1.3999999999999992 0.0
    vertex 3.6500000000000004 -1.3999999999999986 0.0
  endloop
endfacet
facet normal -1.250018342349795e-18 8.2332706262725e-34 -1.0
  outer loop
    vertex 3.650000000000002 1.3999999999999992 0.0
    vertex 3.8 -1.3999999999999988 -2.7071678232459805e-17
    vertex 3.6500000000000004 -1.3999999999999986 0.0
  endloop
endfacet
facet normal -1.250018342349795e-18 8.2332706262725e-34 -1.0
  outer loop
    vertex 3.8 -1.3999999999999988 -2.7071678232459805e-17
    vertex 3.650000000000002 1.3999999999999992 0.0
    vertex 3.800000000000002 1.399999999999999 -2.7071678232459805e-17
  endloop
endfacet
facet normal -1.250018342349795e-18 8.2332706262725e-34 -1.0
  outer loop
    vertex 3.6500000000000004 -1.9999999999999984 0.0
    vertex -3.6499999999999972 -2.0 0.0
    vertex 3.6500000000000004 -1.3999999999999986 0.0
  endloop
endfacet
facet normal -1.0 0.0 0.0
  outer loop
    vertex -3.799999999999997 1.3999999999999992 2.0
    vertex -3.799999999999997 -1.3999999999999992 0.0
    vertex -3.799999999999997 -1.3999999999999995 2.0
  endloop
endfacet
facet normal -1.0 0.0 0.0
  outer loop
    vertex -3.799999999999997 -1.3999999999999992 0.0
    vertex -3.799999999999997 1.3999999999999992 2.0
    vertex -3.799999999999997 1.3999999999999992 0.0
  endloop
endfacet
facet normal 0.0 -1.0 -9.023892744153271e-17
  outer loop
    vertex -3.6499999999999972 -1.3999999999999995 2.0
    vertex -3.799999999999997 -1.3999999999999992 0.0
    vertex -3.6499999999999972 -1.3999999999999992 0.0
  endloop
endfacet
facet normal 0.0 -1.0 -9.023892744153271e-17
  outer loop
    vertex -3.799999999999997 -1.3999999999999992 0.0
    vertex -3.6499999999999972 -1.3999999999999995 2.0
    vertex -3.799999999999997 -1.3999999999999995 2.0
  endloop
endfacet
facet normal 0.0 -0.0 1.0
  outer loop
    vertex -3.6499999999999972 -1.3999999999999995 2.0
    vertex -3.799999999999997 1.3999999999999992 2.0
    vertex -3.799999999999997 -1.3999999999999995 2.0
  endloop
endfacet
facet normal 0.0 -0.0 1.0
  outer loop
    vertex -3.799999999999997 1.3999999999999992 2.0
    vertex -3.6499999999999972 -1.3999999999999995 2.0
    vertex -3.6499999999999972 1.3999999999999992 2.0
  endloop
endfacet
facet normal -0.0 1.0 -0.0
  outer loop
    vertex -3.799999999999997 1.3999999999999992 2.0
    vertex -3.6499999999999972 1.3999999999999992 0.0
    vertex -3.799999999999997 1.3999999999999992 0.0
  endloop
endfacet
facet normal -0.0 1.0 -0.0
  outer loop
    vertex -3.6499999999999972 1.3999999999999992 0.0
    vertex -3.799999999999997 1.3999999999999992 2.0
    vertex -3.6499999999999972 1.3999999999999992 2.0
  endloop
endfacet
endsolid EIA7343
