solid Exported from Blender-2.72 (sub 0)
facet normal 0.000000 0.000000 -1.000000
outer loop
vertex 0.000000 10.160000 -0.799998
vertex 0.000000 10.668000 -0.799998
vertex 20.827999 10.668000 -0.799998
endloop
endfacet
facet normal 0.000000 0.000000 -1.000000
outer loop
vertex 20.827999 10.668000 -0.799998
vertex 20.827999 10.160000 -0.799998
vertex 0.000000 10.160000 -0.799998
endloop
endfacet
facet normal -1.000000 0.000000 0.000000
outer loop
vertex 0.000000 10.668000 -0.799998
vertex 0.000000 10.160000 -0.799998
vertex 0.000000 10.160000 0.800002
endloop
endfacet
facet normal -1.000000 -0.000000 0.000000
outer loop
vertex 0.000000 10.160000 0.800002
vertex 0.000000 10.668000 0.800002
vertex 0.000000 10.668000 -0.799998
endloop
endfacet
facet normal 0.000000 -0.000000 1.000000
outer loop
vertex 0.000000 10.668000 0.800002
vertex 0.000000 10.160000 0.800002
vertex 20.827999 10.160000 0.800002
endloop
endfacet
facet normal 0.000000 -0.000000 1.000000
outer loop
vertex 20.827999 10.160000 0.800002
vertex 20.827999 10.668000 0.800002
vertex 0.000000 10.668000 0.800002
endloop
endfacet
facet normal -0.000000 -1.000000 -0.000000
outer loop
vertex 0.000000 10.160000 -0.799998
vertex 20.827999 10.160000 -0.799998
vertex 20.827999 10.160000 0.800002
endloop
endfacet
facet normal 0.000000 -1.000000 0.000000
outer loop
vertex 20.827999 10.160000 0.800002
vertex 0.000000 10.160000 0.800002
vertex 0.000000 10.160000 -0.799998
endloop
endfacet
facet normal 1.000000 0.000000 0.000000
outer loop
vertex 20.827999 10.668000 0.800002
vertex 20.827999 10.160000 0.800002
vertex 20.827999 10.160000 -0.799998
endloop
endfacet
facet normal 1.000000 0.000000 0.000000
outer loop
vertex 20.827999 10.160000 -0.799998
vertex 20.827999 10.668000 -0.799998
vertex 20.827999 10.668000 0.800002
endloop
endfacet
facet normal 0.000000 1.000000 -0.000000
outer loop
vertex 0.000000 10.668000 0.800002
vertex 20.827999 10.668000 0.800002
vertex 20.827999 10.668000 -0.799998
endloop
endfacet
facet normal -0.000000 1.000000 0.000000
outer loop
vertex 20.827999 10.668000 -0.799998
vertex 0.000000 10.668000 -0.799998
vertex 0.000000 10.668000 0.800002
endloop
endfacet
endsolid Exported from Blender-2.72 (sub 0)
