solid 0603-LED-ALT1
facet normal 0.0 0.0 -1.0
  outer loop
    vertex -0.39999999999999974 -0.6000000000000002 0.0
    vertex 0.40000000000000013 -0.7999999999999993 0.0
    vertex -0.3999999999999999 -0.8 0.0
  endloop
endfacet
facet normal 0.0 0.0 -1.0
  outer loop
    vertex 0.40000000000000013 -0.7999999999999993 0.0
    vertex -0.39999999999999974 -0.6000000000000002 0.0
    vertex 0.40000000000000024 -0.6000000000000008 0.0
  endloop
endfacet
facet normal 0.0 0.0 -1.0
  outer loop
    vertex -0.39999999999999997 0.799999999999999 0.0
    vertex 0.39999999999999997 0.6000000000000004 0.0
    vertex -0.4000000000000001 0.6000000000000006 0.0
  endloop
endfacet
facet normal 0.0 0.0 -1.0
  outer loop
    vertex 0.39999999999999997 0.6000000000000004 0.0
    vertex -0.39999999999999997 0.799999999999999 0.0
    vertex 0.4 0.7999999999999999 0.0
  endloop
endfacet
facet normal 0.0 0.0 1.0
  outer loop
    vertex 0.40000000000000013 -0.7999999999999993 0.15
    vertex -0.39999999999999974 -0.6000000000000002 0.15
    vertex -0.3999999999999999 -0.8 0.15
  endloop
endfacet
facet normal 0.0 0.0 1.0
  outer loop
    vertex -0.39999999999999974 -0.6000000000000002 0.15
    vertex 0.40000000000000013 -0.7999999999999993 0.15
    vertex 0.40000000000000024 -0.6000000000000008 0.15
  endloop
endfacet
facet normal 1.0 -1.5959455978986623e-16 0.0
  outer loop
    vertex 0.40000000000000024 -0.6000000000000008 0.0
    vertex 0.40000000000000013 -0.7999999999999993 0.15
    vertex 0.40000000000000013 -0.7999999999999993 0.0
  endloop
endfacet
facet normal 1.0 -1.5959455978986623e-16 0.0
  outer loop
    vertex 0.40000000000000013 -0.7999999999999993 0.15
    vertex 0.40000000000000024 -0.6000000000000008 0.0
    vertex 0.40000000000000024 -0.6000000000000008 0.15
  endloop
endfacet
facet normal -1.5959455978986623e-16 -1.0 0.0
  outer loop
    vertex 0.40000000000000013 -0.7999999999999993 0.15
    vertex -0.3999999999999999 -0.8 0.0
    vertex 0.40000000000000013 -0.7999999999999993 0.0
  endloop
endfacet
facet normal -1.5959455978986623e-16 -1.0 0.0
  outer loop
    vertex -0.3999999999999999 -0.8 0.0
    vertex 0.40000000000000013 -0.7999999999999993 0.15
    vertex -0.3999999999999999 -0.8 0.15
  endloop
endfacet
facet normal -1.0 1.5959455978986623e-16 0.0
  outer loop
    vertex -0.39999999999999974 -0.6000000000000002 0.15
    vertex -0.3999999999999999 -0.8 0.0
    vertex -0.3999999999999999 -0.8 0.15
  endloop
endfacet
facet normal -1.0 1.5959455978986623e-16 0.0
  outer loop
    vertex -0.3999999999999999 -0.8 0.0
    vertex -0.39999999999999974 -0.6000000000000002 0.15
    vertex -0.39999999999999974 -0.6000000000000002 0.0
  endloop
endfacet
facet normal 1.0 -1.5959455978986623e-16 -0.0
  outer loop
    vertex 0.39999999999999997 0.6000000000000004 0.0
    vertex 0.40000000000000024 -0.6000000000000008 0.15
    vertex 0.40000000000000024 -0.6000000000000008 0.0
  endloop
endfacet
facet normal 1.0 -1.5959455978986623e-16 -0.0
  outer loop
    vertex 0.40000000000000024 -0.6000000000000008 0.15
    vertex 0.39999999999999997 0.6000000000000004 0.0
    vertex 0.39999999999999997 0.6000000000000004 0.15
  endloop
endfacet
facet normal 9.020562075079395e-16 1.0 0.0
  outer loop
    vertex -0.39999999999999974 -0.6000000000000002 0.15
    vertex 0.40000000000000024 -0.6000000000000008 0.0
    vertex -0.39999999999999974 -0.6000000000000002 0.0
  endloop
endfacet
facet normal 9.020562075079395e-16 1.0 0.0
  outer loop
    vertex 0.40000000000000024 -0.6000000000000008 0.0
    vertex -0.39999999999999974 -0.6000000000000002 0.15
    vertex 0.40000000000000024 -0.6000000000000008 0.15
  endloop
endfacet
facet normal -1.0 1.5959455978986623e-16 -0.0
  outer loop
    vertex -0.4000000000000001 0.6000000000000006 0.15
    vertex -0.39999999999999974 -0.6000000000000002 0.0
    vertex -0.39999999999999974 -0.6000000000000002 0.15
  endloop
endfacet
facet normal -1.0 1.5959455978986623e-16 -0.0
  outer loop
    vertex -0.39999999999999974 -0.6000000000000002 0.0
    vertex -0.4000000000000001 0.6000000000000006 0.15
    vertex -0.4000000000000001 0.6000000000000006 0.0
  endloop
endfacet
facet normal 0.0 0.0 1.0
  outer loop
    vertex 0.39999999999999997 0.6000000000000004 0.15
    vertex -0.39999999999999997 0.799999999999999 0.15
    vertex -0.4000000000000001 0.6000000000000006 0.15
  endloop
endfacet
facet normal 0.0 0.0 1.0
  outer loop
    vertex -0.39999999999999997 0.799999999999999 0.15
    vertex 0.39999999999999997 0.6000000000000004 0.15
    vertex 0.4 0.7999999999999999 0.15
  endloop
endfacet
facet normal -1.0 1.5959455978986623e-16 0.0
  outer loop
    vertex -0.39999999999999997 0.799999999999999 0.15
    vertex -0.4000000000000001 0.6000000000000006 0.0
    vertex -0.4000000000000001 0.6000000000000006 0.15
  endloop
endfacet
facet normal -1.0 1.5959455978986623e-16 0.0
  outer loop
    vertex -0.4000000000000001 0.6000000000000006 0.0
    vertex -0.39999999999999997 0.799999999999999 0.15
    vertex -0.39999999999999997 0.799999999999999 0.0
  endloop
endfacet
facet normal 1.5959455978986623e-16 1.0 0.0
  outer loop
    vertex -0.39999999999999997 0.799999999999999 0.15
    vertex 0.4 0.7999999999999999 0.0
    vertex -0.39999999999999997 0.799999999999999 0.0
  endloop
endfacet
facet normal 1.5959455978986623e-16 1.0 0.0
  outer loop
    vertex 0.4 0.7999999999999999 0.0
    vertex -0.39999999999999997 0.799999999999999 0.15
    vertex 0.4 0.7999999999999999 0.15
  endloop
endfacet
facet normal 1.0 -1.5959455978986623e-16 0.0
  outer loop
    vertex 0.4 0.7999999999999999 0.0
    vertex 0.39999999999999997 0.6000000000000004 0.15
    vertex 0.39999999999999997 0.6000000000000004 0.0
  endloop
endfacet
facet normal 1.0 -1.5959455978986623e-16 0.0
  outer loop
    vertex 0.39999999999999997 0.6000000000000004 0.15
    vertex 0.4 0.7999999999999999 0.0
    vertex 0.4 0.7999999999999999 0.15
  endloop
endfacet
facet normal -0.0 -0.0 1.0
  outer loop
    vertex 0.40000000000000024 -0.6000000000000008 0.15
    vertex -0.3499999999999999 -0.49999999999999956 0.15
    vertex -0.39999999999999974 -0.6000000000000002 0.15
  endloop
endfacet
facet normal -0.0 -0.0 1.0
  outer loop
    vertex -0.3499999999999999 -0.49999999999999956 0.15
    vertex 0.40000000000000024 -0.6000000000000008 0.15
    vertex 0.34999999999999976 -0.4999999999999993 0.15
  endloop
endfacet
facet normal -0.0 -0.0 1.0
  outer loop
    vertex 0.34999999999999976 -0.4999999999999993 0.15
    vertex 0.40000000000000024 -0.6000000000000008 0.15
    vertex 0.35000000000000003 0.4999999999999996 0.15
  endloop
endfacet
facet normal -0.0 -0.0 1.0
  outer loop
    vertex 0.35000000000000003 0.4999999999999996 0.15
    vertex 0.40000000000000024 -0.6000000000000008 0.15
    vertex 0.39999999999999997 0.6000000000000004 0.15
  endloop
endfacet
facet normal -0.0 -0.0 1.0
  outer loop
    vertex -0.4000000000000001 0.6000000000000006 0.15
    vertex -0.34999999999999964 0.4999999999999997 0.15
    vertex 0.39999999999999997 0.6000000000000004 0.15
  endloop
endfacet
facet normal -0.0 -0.0 1.0
  outer loop
    vertex -0.34999999999999964 0.4999999999999997 0.15
    vertex -0.4000000000000001 0.6000000000000006 0.15
    vertex -0.39999999999999974 -0.6000000000000002 0.15
  endloop
endfacet
facet normal -0.0 -0.0 1.0
  outer loop
    vertex -0.34999999999999964 0.4999999999999997 0.15
    vertex -0.39999999999999974 -0.6000000000000002 0.15
    vertex -0.3499999999999999 -0.49999999999999956 0.15
  endloop
endfacet
facet normal -0.0 -0.0 1.0
  outer loop
    vertex 0.39999999999999997 0.6000000000000004 0.15
    vertex -0.34999999999999964 0.4999999999999997 0.15
    vertex 0.35000000000000003 0.4999999999999996 0.15
  endloop
endfacet
facet normal -0.0 -0.0 1.0
  outer loop
    vertex 0.34999999999999976 -0.4999999999999993 0.45
    vertex -0.34999999999999964 0.4999999999999997 0.45
    vertex -0.3499999999999999 -0.49999999999999956 0.45
  endloop
endfacet
facet normal -0.0 -0.0 1.0
  outer loop
    vertex -0.34999999999999964 0.4999999999999997 0.45
    vertex 0.34999999999999976 -0.4999999999999993 0.45
    vertex 0.35000000000000003 0.4999999999999996 0.45
  endloop
endfacet
facet normal -1.5959455978986623e-16 -1.0 -0.0
  outer loop
    vertex 0.34999999999999976 -0.4999999999999993 0.45
    vertex -0.3499999999999999 -0.49999999999999956 0.15
    vertex 0.34999999999999976 -0.4999999999999993 0.15
  endloop
endfacet
facet normal -1.5959455978986623e-16 -1.0 -0.0
  outer loop
    vertex -0.3499999999999999 -0.49999999999999956 0.15
    vertex 0.34999999999999976 -0.4999999999999993 0.45
    vertex -0.3499999999999999 -0.49999999999999956 0.45
  endloop
endfacet
facet normal -1.0 4.0245584642661915e-16 -0.0
  outer loop
    vertex -0.34999999999999964 0.4999999999999997 0.45
    vertex -0.3499999999999999 -0.49999999999999956 0.15
    vertex -0.3499999999999999 -0.49999999999999956 0.45
  endloop
endfacet
facet normal -1.0 4.0245584642661915e-16 -0.0
  outer loop
    vertex -0.3499999999999999 -0.49999999999999956 0.15
    vertex -0.34999999999999964 0.4999999999999997 0.45
    vertex -0.34999999999999964 0.4999999999999997 0.15
  endloop
endfacet
facet normal 1.5959455978986623e-16 1.0 -0.0
  outer loop
    vertex -0.34999999999999964 0.4999999999999997 0.45
    vertex 0.35000000000000003 0.4999999999999996 0.15
    vertex -0.34999999999999964 0.4999999999999997 0.15
  endloop
endfacet
facet normal 1.5959455978986623e-16 1.0 -0.0
  outer loop
    vertex 0.35000000000000003 0.4999999999999996 0.15
    vertex -0.34999999999999964 0.4999999999999997 0.45
    vertex 0.35000000000000003 0.4999999999999996 0.45
  endloop
endfacet
facet normal 1.0 -1.5959455978986623e-16 -0.0
  outer loop
    vertex 0.35000000000000003 0.4999999999999996 0.15
    vertex 0.34999999999999976 -0.4999999999999993 0.45
    vertex 0.34999999999999976 -0.4999999999999993 0.15
  endloop
endfacet
facet normal 1.0 -1.5959455978986623e-16 -0.0
  outer loop
    vertex 0.34999999999999976 -0.4999999999999993 0.45
    vertex 0.35000000000000003 0.4999999999999996 0.15
    vertex 0.35000000000000003 0.4999999999999996 0.45
  endloop
endfacet
facet normal 0.0 0.0 -1.0
  outer loop
    vertex 0.39999999999999997 0.6000000000000004 0.0
    vertex -0.39999999999999974 -0.6000000000000002 0.0
    vertex -0.4000000000000001 0.6000000000000006 0.0
  endloop
endfacet
facet normal 0.0 0.0 -1.0
  outer loop
    vertex -0.39999999999999974 -0.6000000000000002 0.0
    vertex 0.39999999999999997 0.6000000000000004 0.0
    vertex 0.40000000000000024 -0.6000000000000008 0.0
  endloop
endfacet
endsolid 0603-LED-ALT1
