solid LED-0603
facet normal 0.0 0.0 -1.0
  outer loop
    vertex 0.5999999999999976 0.3999999999999985 0.0
    vertex 0.7999999999999955 -0.3999999999999988 0.0
    vertex 0.5999999999999969 -0.3999999999999975 0.0
  endloop
endfacet
facet normal 0.0 0.0 -1.0
  outer loop
    vertex 0.7999999999999955 -0.3999999999999988 0.0
    vertex 0.5999999999999976 0.3999999999999985 0.0
    vertex 0.7999999999999955 0.3999999999999973 0.0
  endloop
endfacet
facet normal 0.0 0.0 -1.0
  outer loop
    vertex -0.7999999999999952 0.3999999999999981 0.0
    vertex -0.5999999999999976 -0.39999999999999836 0.0
    vertex -0.7999999999999955 -0.39999999999999686 0.0
  endloop
endfacet
facet normal 0.0 0.0 -1.0
  outer loop
    vertex -0.5999999999999976 -0.39999999999999836 0.0
    vertex -0.7999999999999952 0.3999999999999981 0.0
    vertex -0.5999999999999972 0.3999999999999978 0.0
  endloop
endfacet
facet normal 0.0 0.0 1.0
  outer loop
    vertex 0.7999999999999955 -0.3999999999999988 0.15
    vertex 0.5999999999999976 0.3999999999999985 0.15
    vertex 0.5999999999999969 -0.3999999999999975 0.15
  endloop
endfacet
facet normal 0.0 0.0 1.0
  outer loop
    vertex 0.5999999999999976 0.3999999999999985 0.15
    vertex 0.7999999999999955 -0.3999999999999988 0.15
    vertex 0.7999999999999955 0.3999999999999973 0.15
  endloop
endfacet
facet normal 6.314393452555578e-16 1.0 0.0
  outer loop
    vertex 0.5999999999999976 0.3999999999999985 0.15
    vertex 0.7999999999999955 0.3999999999999973 0.0
    vertex 0.5999999999999976 0.3999999999999985 0.0
  endloop
endfacet
facet normal 6.314393452555578e-16 1.0 0.0
  outer loop
    vertex 0.7999999999999955 0.3999999999999973 0.0
    vertex 0.5999999999999976 0.3999999999999985 0.15
    vertex 0.7999999999999955 0.3999999999999973 0.15
  endloop
endfacet
facet normal 1.0 -6.314393452555578e-16 0.0
  outer loop
    vertex 0.7999999999999955 0.3999999999999973 0.0
    vertex 0.7999999999999955 -0.3999999999999988 0.15
    vertex 0.7999999999999955 -0.3999999999999988 0.0
  endloop
endfacet
facet normal 1.0 -6.314393452555578e-16 0.0
  outer loop
    vertex 0.7999999999999955 -0.3999999999999988 0.15
    vertex 0.7999999999999955 0.3999999999999973 0.0
    vertex 0.7999999999999955 0.3999999999999973 0.15
  endloop
endfacet
facet normal -6.314393452555578e-16 -1.0 0.0
  outer loop
    vertex 0.7999999999999955 -0.3999999999999988 0.15
    vertex 0.5999999999999969 -0.3999999999999975 0.0
    vertex 0.7999999999999955 -0.3999999999999988 0.0
  endloop
endfacet
facet normal -6.314393452555578e-16 -1.0 0.0
  outer loop
    vertex 0.5999999999999969 -0.3999999999999975 0.0
    vertex 0.7999999999999955 -0.3999999999999988 0.15
    vertex 0.5999999999999969 -0.3999999999999975 0.15
  endloop
endfacet
facet normal 6.314393452555578e-16 1.0 0.0
  outer loop
    vertex -0.5999999999999972 0.3999999999999978 0.15
    vertex 0.5999999999999976 0.3999999999999985 0.0
    vertex -0.5999999999999972 0.3999999999999978 0.0
  endloop
endfacet
facet normal 6.314393452555578e-16 1.0 0.0
  outer loop
    vertex 0.5999999999999976 0.3999999999999985 0.0
    vertex -0.5999999999999972 0.3999999999999978 0.15
    vertex 0.5999999999999976 0.3999999999999985 0.15
  endloop
endfacet
facet normal -1.0 8.257283745649602e-16 0.0
  outer loop
    vertex 0.5999999999999976 0.3999999999999985 0.15
    vertex 0.5999999999999969 -0.3999999999999975 0.0
    vertex 0.5999999999999969 -0.3999999999999975 0.15
  endloop
endfacet
facet normal -1.0 8.257283745649602e-16 0.0
  outer loop
    vertex 0.5999999999999969 -0.3999999999999975 0.0
    vertex 0.5999999999999976 0.3999999999999985 0.15
    vertex 0.5999999999999976 0.3999999999999985 0.0
  endloop
endfacet
facet normal -6.314393452555578e-16 -1.0 0.0
  outer loop
    vertex 0.5999999999999969 -0.3999999999999975 0.15
    vertex -0.5999999999999976 -0.39999999999999836 0.0
    vertex 0.5999999999999969 -0.3999999999999975 0.0
  endloop
endfacet
facet normal -6.314393452555578e-16 -1.0 0.0
  outer loop
    vertex -0.5999999999999976 -0.39999999999999836 0.0
    vertex 0.5999999999999969 -0.3999999999999975 0.15
    vertex -0.5999999999999976 -0.39999999999999836 0.15
  endloop
endfacet
facet normal 0.0 0.0 1.0
  outer loop
    vertex -0.5999999999999976 -0.39999999999999836 0.15
    vertex -0.7999999999999952 0.3999999999999981 0.15
    vertex -0.7999999999999955 -0.39999999999999686 0.15
  endloop
endfacet
facet normal 0.0 0.0 1.0
  outer loop
    vertex -0.7999999999999952 0.3999999999999981 0.15
    vertex -0.5999999999999976 -0.39999999999999836 0.15
    vertex -0.5999999999999972 0.3999999999999978 0.15
  endloop
endfacet
facet normal -6.314393452555578e-16 -1.0 0.0
  outer loop
    vertex -0.5999999999999976 -0.39999999999999836 0.15
    vertex -0.7999999999999955 -0.39999999999999686 0.0
    vertex -0.5999999999999976 -0.39999999999999836 0.0
  endloop
endfacet
facet normal -6.314393452555578e-16 -1.0 0.0
  outer loop
    vertex -0.7999999999999955 -0.39999999999999686 0.0
    vertex -0.5999999999999976 -0.39999999999999836 0.15
    vertex -0.7999999999999955 -0.39999999999999686 0.15
  endloop
endfacet
facet normal -1.0 6.314393452555578e-16 0.0
  outer loop
    vertex -0.7999999999999952 0.3999999999999981 0.15
    vertex -0.7999999999999955 -0.39999999999999686 0.0
    vertex -0.7999999999999955 -0.39999999999999686 0.15
  endloop
endfacet
facet normal -1.0 6.314393452555578e-16 0.0
  outer loop
    vertex -0.7999999999999955 -0.39999999999999686 0.0
    vertex -0.7999999999999952 0.3999999999999981 0.15
    vertex -0.7999999999999952 0.3999999999999981 0.0
  endloop
endfacet
facet normal 6.314393452555578e-16 1.0 0.0
  outer loop
    vertex -0.7999999999999952 0.3999999999999981 0.15
    vertex -0.5999999999999972 0.3999999999999978 0.0
    vertex -0.7999999999999952 0.3999999999999981 0.0
  endloop
endfacet
facet normal 6.314393452555578e-16 1.0 0.0
  outer loop
    vertex -0.5999999999999972 0.3999999999999978 0.0
    vertex -0.7999999999999952 0.3999999999999981 0.15
    vertex -0.5999999999999972 0.3999999999999978 0.15
  endloop
endfacet
facet normal 0.0 0.0 1.0
  outer loop
    vertex -0.5999999999999976 -0.39999999999999836 0.15
    vertex -0.4999999999999981 -0.3499999999999987 0.15
    vertex -0.5999999999999972 0.3999999999999978 0.15
  endloop
endfacet
facet normal 0.0 0.0 1.0
  outer loop
    vertex -0.4999999999999981 -0.3499999999999987 0.15
    vertex -0.5999999999999976 -0.39999999999999836 0.15
    vertex 0.5999999999999969 -0.3999999999999975 0.15
  endloop
endfacet
facet normal 0.0 0.0 1.0
  outer loop
    vertex -0.4999999999999981 -0.3499999999999987 0.15
    vertex 0.5999999999999969 -0.3999999999999975 0.15
    vertex 0.49999999999999767 -0.34999999999999876 0.15
  endloop
endfacet
facet normal 0.0 0.0 1.0
  outer loop
    vertex -0.5999999999999972 0.3999999999999978 0.15
    vertex -0.499999999999998 0.34999999999999937 0.15
    vertex 0.5999999999999976 0.3999999999999985 0.15
  endloop
endfacet
facet normal 0.0 0.0 1.0
  outer loop
    vertex -0.499999999999998 0.34999999999999937 0.15
    vertex -0.5999999999999972 0.3999999999999978 0.15
    vertex -0.4999999999999981 -0.3499999999999987 0.15
  endloop
endfacet
facet normal 0.0 0.0 1.0
  outer loop
    vertex 0.5999999999999976 0.3999999999999985 0.15
    vertex -0.499999999999998 0.34999999999999937 0.15
    vertex 0.49999999999999667 0.3499999999999982 0.15
  endloop
endfacet
facet normal 0.0 0.0 1.0
  outer loop
    vertex 0.5999999999999976 0.3999999999999985 0.15
    vertex 0.49999999999999667 0.3499999999999982 0.15
    vertex 0.49999999999999767 -0.34999999999999876 0.15
  endloop
endfacet
facet normal 0.0 0.0 1.0
  outer loop
    vertex 0.5999999999999976 0.3999999999999985 0.15
    vertex 0.49999999999999767 -0.34999999999999876 0.15
    vertex 0.5999999999999969 -0.3999999999999975 0.15
  endloop
endfacet
facet normal 0.0 0.0 1.0
  outer loop
    vertex 0.49999999999999767 -0.34999999999999876 0.45
    vertex -0.499999999999998 0.34999999999999937 0.45
    vertex -0.4999999999999981 -0.3499999999999987 0.45
  endloop
endfacet
facet normal 0.0 0.0 1.0
  outer loop
    vertex -0.499999999999998 0.34999999999999937 0.45
    vertex 0.49999999999999767 -0.34999999999999876 0.45
    vertex 0.49999999999999667 0.3499999999999982 0.45
  endloop
endfacet
facet normal 1.0 -6.314393452555578e-16 0.0
  outer loop
    vertex 0.49999999999999667 0.3499999999999982 0.15
    vertex 0.49999999999999767 -0.34999999999999876 0.45
    vertex 0.49999999999999767 -0.34999999999999876 0.15
  endloop
endfacet
facet normal 1.0 -6.314393452555578e-16 0.0
  outer loop
    vertex 0.49999999999999767 -0.34999999999999876 0.45
    vertex 0.49999999999999667 0.3499999999999982 0.15
    vertex 0.49999999999999667 0.3499999999999982 0.45
  endloop
endfacet
facet normal -6.314393452555578e-16 -1.0 0.0
  outer loop
    vertex 0.49999999999999767 -0.34999999999999876 0.45
    vertex -0.4999999999999981 -0.3499999999999987 0.15
    vertex 0.49999999999999767 -0.34999999999999876 0.15
  endloop
endfacet
facet normal -6.314393452555578e-16 -1.0 0.0
  outer loop
    vertex -0.4999999999999981 -0.3499999999999987 0.15
    vertex 0.49999999999999767 -0.34999999999999876 0.45
    vertex -0.4999999999999981 -0.3499999999999987 0.45
  endloop
endfacet
facet normal -1.0 6.314393452555578e-16 0.0
  outer loop
    vertex -0.499999999999998 0.34999999999999937 0.45
    vertex -0.4999999999999981 -0.3499999999999987 0.15
    vertex -0.4999999999999981 -0.3499999999999987 0.45
  endloop
endfacet
facet normal -1.0 6.314393452555578e-16 0.0
  outer loop
    vertex -0.4999999999999981 -0.3499999999999987 0.15
    vertex -0.499999999999998 0.34999999999999937 0.45
    vertex -0.499999999999998 0.34999999999999937 0.15
  endloop
endfacet
facet normal 6.314393452555578e-16 1.0 0.0
  outer loop
    vertex -0.499999999999998 0.34999999999999937 0.45
    vertex 0.49999999999999667 0.3499999999999982 0.15
    vertex -0.499999999999998 0.34999999999999937 0.15
  endloop
endfacet
facet normal 6.314393452555578e-16 1.0 0.0
  outer loop
    vertex 0.49999999999999667 0.3499999999999982 0.15
    vertex -0.499999999999998 0.34999999999999937 0.45
    vertex 0.49999999999999667 0.3499999999999982 0.45
  endloop
endfacet
facet normal 0.0 0.0 -1.0
  outer loop
    vertex -0.5999999999999972 0.3999999999999978 0.0
    vertex 0.5999999999999969 -0.3999999999999975 0.0
    vertex -0.5999999999999976 -0.39999999999999836 0.0
  endloop
endfacet
facet normal 0.0 0.0 -1.0
  outer loop
    vertex 0.5999999999999969 -0.3999999999999975 0.0
    vertex -0.5999999999999972 0.3999999999999978 0.0
    vertex 0.5999999999999976 0.3999999999999985 0.0
  endloop
endfacet
endsolid LED-0603
