solid LED-1206
facet normal 0.0 0.0 -1.0
  outer loop
    vertex 0.9999999999999997 0.8 0.0
    vertex 1.1653333781699196 0.11646857029613414 0.0
    vertex 1.0 -0.8 0.0
  endloop
endfacet
facet normal 0.0 0.0 -1.0
  outer loop
    vertex 1.1653333781699196 0.11646857029613414 0.0
    vertex 0.9999999999999997 0.8 0.0
    vertex 1.210288568297003 0.22499999999999987 0.0
  endloop
endfacet
facet normal 0.0 0.0 -1.0
  outer loop
    vertex 1.210288568297003 0.22499999999999987 0.0
    vertex 0.9999999999999997 0.8 0.0
    vertex 1.6000000000000003 0.8 0.0
  endloop
endfacet
facet normal 0.0 0.0 -1.0
  outer loop
    vertex 1.0 -0.8 0.0
    vertex 1.1653333781699196 0.11646857029613414 0.0
    vertex 1.1500000000000004 -1.725940889178459e-16 0.0
  endloop
endfacet
facet normal 0.0 0.0 -1.0
  outer loop
    vertex 1.210288568297003 0.22499999999999987 0.0
    vertex 1.6000000000000003 0.8 0.0
    vertex 1.2818019484660539 0.3181980515339463 0.0
  endloop
endfacet
facet normal 0.0 0.0 -1.0
  outer loop
    vertex 1.2818019484660539 0.3181980515339463 0.0
    vertex 1.6000000000000003 0.8 0.0
    vertex 1.3750000000000004 0.3897114317029973 0.0
  endloop
endfacet
facet normal 0.0 0.0 -1.0
  outer loop
    vertex 1.3750000000000004 0.3897114317029973 0.0
    vertex 1.6000000000000003 0.8 0.0
    vertex 1.4835314297038662 0.43466662183008076 0.0
  endloop
endfacet
facet normal 0.0 0.0 -1.0
  outer loop
    vertex 1.4835314297038662 0.43466662183008076 0.0
    vertex 1.6000000000000003 0.8 0.0
    vertex 1.6000000000000003 0.4499999999999999 0.0
  endloop
endfacet
facet normal 0.0 0.0 -1.0
  outer loop
    vertex 1.0 -0.8 0.0
    vertex 1.210288568297003 -0.2250000000000001 0.0
    vertex 1.6000000000000003 -0.8 0.0
  endloop
endfacet
facet normal 0.0 0.0 -1.0
  outer loop
    vertex 1.210288568297003 -0.2250000000000001 0.0
    vertex 1.0 -0.8 0.0
    vertex 1.1653333781699196 -0.11646857029613449 0.0
  endloop
endfacet
facet normal 0.0 0.0 -1.0
  outer loop
    vertex 1.1653333781699196 -0.11646857029613449 0.0
    vertex 1.0 -0.8 0.0
    vertex 1.1500000000000004 -1.725940889178459e-16 0.0
  endloop
endfacet
facet normal 0.0 0.0 -1.0
  outer loop
    vertex 1.6000000000000003 -0.8 0.0
    vertex 1.210288568297003 -0.2250000000000001 0.0
    vertex 1.2818019484660539 -0.3181980515339465 0.0
  endloop
endfacet
facet normal 0.0 0.0 -1.0
  outer loop
    vertex 1.6000000000000003 -0.8 0.0
    vertex 1.2818019484660539 -0.3181980515339465 0.0
    vertex 1.3750000000000004 -0.38971143170299744 0.0
  endloop
endfacet
facet normal 0.0 0.0 -1.0
  outer loop
    vertex 1.6000000000000003 -0.8 0.0
    vertex 1.3750000000000004 -0.38971143170299744 0.0
    vertex 1.483531429703866 -0.43466662183008076 0.0
  endloop
endfacet
facet normal 0.0 0.0 -1.0
  outer loop
    vertex 1.6000000000000003 -0.8 0.0
    vertex 1.483531429703866 -0.43466662183008076 0.0
    vertex 1.6000000000000003 -0.45 0.0
  endloop
endfacet
facet normal 1.0 0.0 0.0
  outer loop
    vertex 1.6000000000000003 0.8 0.0
    vertex 1.6000000000000003 0.4499999999999999 0.4799999999999999
    vertex 1.6000000000000003 0.4499999999999999 0.0
  endloop
endfacet
facet normal 1.0 0.0 0.0
  outer loop
    vertex 1.6000000000000003 0.4499999999999999 0.4799999999999999
    vertex 1.6000000000000003 0.8 0.0
    vertex 1.6000000000000003 0.8 0.4799999999999999
  endloop
endfacet
facet normal 0.13052619222005088 -0.9914448613738106 0.0
  outer loop
    vertex 1.6000000000000003 0.4499999999999999 0.4799999999999999
    vertex 1.4835314297038662 0.43466662183008076 0.0
    vertex 1.6000000000000003 0.4499999999999999 0.0
  endloop
endfacet
facet normal 0.13052619222005088 -0.9914448613738106 0.0
  outer loop
    vertex 1.4835314297038662 0.43466662183008076 0.0
    vertex 1.6000000000000003 0.4499999999999999 0.4799999999999999
    vertex 1.4835314297038662 0.43466662183008076 0.4799999999999999
  endloop
endfacet
facet normal 0.3826834323650899 -0.9238795325112866 0.0
  outer loop
    vertex 1.4835314297038662 0.43466662183008076 0.4799999999999999
    vertex 1.3750000000000004 0.3897114317029973 0.0
    vertex 1.4835314297038662 0.43466662183008076 0.0
  endloop
endfacet
facet normal 0.3826834323650899 -0.9238795325112866 0.0
  outer loop
    vertex 1.3750000000000004 0.3897114317029973 0.0
    vertex 1.4835314297038662 0.43466662183008076 0.4799999999999999
    vertex 1.3750000000000004 0.3897114317029973 0.4799999999999999
  endloop
endfacet
facet normal 0.6087614290087204 -0.7933533402912354 0.0
  outer loop
    vertex 1.3750000000000004 0.3897114317029973 0.4799999999999999
    vertex 1.2818019484660539 0.3181980515339463 0.0
    vertex 1.3750000000000004 0.3897114317029973 0.0
  endloop
endfacet
facet normal 0.6087614290087204 -0.7933533402912354 0.0
  outer loop
    vertex 1.2818019484660539 0.3181980515339463 0.0
    vertex 1.3750000000000004 0.3897114317029973 0.4799999999999999
    vertex 1.2818019484660539 0.3181980515339463 0.4799999999999999
  endloop
endfacet
facet normal 0.7933533402912355 -0.6087614290087202 0.0
  outer loop
    vertex 1.2818019484660539 0.3181980515339463 0.0
    vertex 1.210288568297003 0.22499999999999987 0.4799999999999999
    vertex 1.210288568297003 0.22499999999999987 0.0
  endloop
endfacet
facet normal 0.7933533402912355 -0.6087614290087202 0.0
  outer loop
    vertex 1.210288568297003 0.22499999999999987 0.4799999999999999
    vertex 1.2818019484660539 0.3181980515339463 0.0
    vertex 1.2818019484660539 0.3181980515339463 0.4799999999999999
  endloop
endfacet
facet normal 0.9238795325112866 -0.3826834323650899 0.0
  outer loop
    vertex 1.210288568297003 0.22499999999999987 0.0
    vertex 1.1653333781699196 0.11646857029613414 0.4799999999999999
    vertex 1.1653333781699196 0.11646857029613414 0.0
  endloop
endfacet
facet normal 0.9238795325112866 -0.3826834323650899 0.0
  outer loop
    vertex 1.1653333781699196 0.11646857029613414 0.4799999999999999
    vertex 1.210288568297003 0.22499999999999987 0.0
    vertex 1.210288568297003 0.22499999999999987 0.4799999999999999
  endloop
endfacet
facet normal 0.9914448613738104 -0.13052619222005146 0.0
  outer loop
    vertex 1.1653333781699196 0.11646857029613414 0.0
    vertex 1.1500000000000004 -1.725940889178459e-16 0.4799999999999999
    vertex 1.1500000000000004 -1.725940889178459e-16 0.0
  endloop
endfacet
facet normal 0.9914448613738104 -0.13052619222005146 0.0
  outer loop
    vertex 1.1500000000000004 -1.725940889178459e-16 0.4799999999999999
    vertex 1.1653333781699196 0.11646857029613414 0.0
    vertex 1.1653333781699196 0.11646857029613414 0.4799999999999999
  endloop
endfacet
facet normal 0.9914448613738104 0.13052619222005152 0.0
  outer loop
    vertex 1.1500000000000004 -1.725940889178459e-16 0.0
    vertex 1.1653333781699196 -0.11646857029613449 0.4799999999999999
    vertex 1.1653333781699196 -0.11646857029613449 0.0
  endloop
endfacet
facet normal 0.9914448613738104 0.13052619222005152 0.0
  outer loop
    vertex 1.1653333781699196 -0.11646857029613449 0.4799999999999999
    vertex 1.1500000000000004 -1.725940889178459e-16 0.0
    vertex 1.1500000000000004 -1.725940889178459e-16 0.4799999999999999
  endloop
endfacet
facet normal 0.9238795325112866 0.3826834323650904 0.0
  outer loop
    vertex 1.1653333781699196 -0.11646857029613449 0.0
    vertex 1.210288568297003 -0.2250000000000001 0.4799999999999999
    vertex 1.210288568297003 -0.2250000000000001 0.0
  endloop
endfacet
facet normal 0.9238795325112866 0.3826834323650904 0.0
  outer loop
    vertex 1.210288568297003 -0.2250000000000001 0.4799999999999999
    vertex 1.1653333781699196 -0.11646857029613449 0.0
    vertex 1.1653333781699196 -0.11646857029613449 0.4799999999999999
  endloop
endfacet
facet normal 0.7933533402912352 0.6087614290087205 0.0
  outer loop
    vertex 1.210288568297003 -0.2250000000000001 0.0
    vertex 1.2818019484660539 -0.3181980515339465 0.4799999999999999
    vertex 1.2818019484660539 -0.3181980515339465 0.0
  endloop
endfacet
facet normal 0.7933533402912352 0.6087614290087205 0.0
  outer loop
    vertex 1.2818019484660539 -0.3181980515339465 0.4799999999999999
    vertex 1.210288568297003 -0.2250000000000001 0.0
    vertex 1.210288568297003 -0.2250000000000001 0.4799999999999999
  endloop
endfacet
facet normal 0.6087614290087202 0.7933533402912355 0.0
  outer loop
    vertex 1.2818019484660539 -0.3181980515339465 0.4799999999999999
    vertex 1.3750000000000004 -0.38971143170299744 0.0
    vertex 1.2818019484660539 -0.3181980515339465 0.0
  endloop
endfacet
facet normal 0.6087614290087202 0.7933533402912355 0.0
  outer loop
    vertex 1.3750000000000004 -0.38971143170299744 0.0
    vertex 1.2818019484660539 -0.3181980515339465 0.4799999999999999
    vertex 1.3750000000000004 -0.38971143170299744 0.4799999999999999
  endloop
endfacet
facet normal 0.3826834323650899 0.9238795325112868 0.0
  outer loop
    vertex 1.3750000000000004 -0.38971143170299744 0.4799999999999999
    vertex 1.483531429703866 -0.43466662183008076 0.0
    vertex 1.3750000000000004 -0.38971143170299744 0.0
  endloop
endfacet
facet normal 0.3826834323650899 0.9238795325112868 0.0
  outer loop
    vertex 1.483531429703866 -0.43466662183008076 0.0
    vertex 1.3750000000000004 -0.38971143170299744 0.4799999999999999
    vertex 1.483531429703866 -0.43466662183008076 0.4799999999999999
  endloop
endfacet
facet normal 0.13052619222005143 0.9914448613738104 0.0
  outer loop
    vertex 1.483531429703866 -0.43466662183008076 0.4799999999999999
    vertex 1.6000000000000003 -0.45 0.0
    vertex 1.483531429703866 -0.43466662183008076 0.0
  endloop
endfacet
facet normal 0.13052619222005143 0.9914448613738104 0.0
  outer loop
    vertex 1.6000000000000003 -0.45 0.0
    vertex 1.483531429703866 -0.43466662183008076 0.4799999999999999
    vertex 1.6000000000000003 -0.45 0.4799999999999999
  endloop
endfacet
facet normal 1.0 0.0 0.0
  outer loop
    vertex 1.6000000000000003 -0.45 0.0
    vertex 1.6000000000000003 -0.8 0.4799999999999999
    vertex 1.6000000000000003 -0.8 0.0
  endloop
endfacet
facet normal 1.0 0.0 0.0
  outer loop
    vertex 1.6000000000000003 -0.8 0.4799999999999999
    vertex 1.6000000000000003 -0.45 0.0
    vertex 1.6000000000000003 -0.45 0.4799999999999999
  endloop
endfacet
facet normal 0.0 -1.0 0.0
  outer loop
    vertex 1.6000000000000003 -0.8 0.4799999999999999
    vertex 1.0 -0.8 0.0
    vertex 1.6000000000000003 -0.8 0.0
  endloop
endfacet
facet normal 0.0 -1.0 0.0
  outer loop
    vertex 1.0 -0.8 0.0
    vertex 1.6000000000000003 -0.8 0.4799999999999999
    vertex 1.0000000000000004 -0.8 0.4799999999999999
  endloop
endfacet
facet normal -1.0 0.0 0.0
  outer loop
    vertex -1.6 -0.45 0.4799999999999999
    vertex -1.6 -0.8 0.0
    vertex -1.6 -0.8 0.4799999999999999
  endloop
endfacet
facet normal -1.0 0.0 0.0
  outer loop
    vertex -1.6 -0.8 0.0
    vertex -1.6 -0.45 0.4799999999999999
    vertex -1.6 -0.45 0.0
  endloop
endfacet
facet normal -0.13052619222005163 0.9914448613738104 0.0
  outer loop
    vertex -1.6 -0.45 0.4799999999999999
    vertex -1.4835314297038658 -0.43466662183008076 0.0
    vertex -1.6 -0.45 0.0
  endloop
endfacet
facet normal -0.13052619222005163 0.9914448613738104 0.0
  outer loop
    vertex -1.4835314297038658 -0.43466662183008076 0.0
    vertex -1.6 -0.45 0.4799999999999999
    vertex -1.4835314297038658 -0.43466662183008076 0.4799999999999999
  endloop
endfacet
facet normal -0.38268343236508956 0.9238795325112867 0.0
  outer loop
    vertex -1.4835314297038658 -0.43466662183008076 0.4799999999999999
    vertex -1.375 -0.3897114317029974 0.0
    vertex -1.4835314297038658 -0.43466662183008076 0.0
  endloop
endfacet
facet normal -0.38268343236508956 0.9238795325112867 0.0
  outer loop
    vertex -1.375 -0.3897114317029974 0.0
    vertex -1.4835314297038658 -0.43466662183008076 0.4799999999999999
    vertex -1.375 -0.3897114317029974 0.4799999999999999
  endloop
endfacet
facet normal -0.6087614290087204 0.7933533402912354 0.0
  outer loop
    vertex -1.375 -0.3897114317029974 0.4799999999999999
    vertex -1.2818019484660537 -0.31819805153394637 0.0
    vertex -1.375 -0.3897114317029974 0.0
  endloop
endfacet
facet normal -0.6087614290087204 0.7933533402912354 0.0
  outer loop
    vertex -1.2818019484660537 -0.31819805153394637 0.0
    vertex -1.375 -0.3897114317029974 0.4799999999999999
    vertex -1.2818019484660537 -0.31819805153394637 0.4799999999999999
  endloop
endfacet
facet normal -0.7933533402912355 0.6087614290087202 0.0
  outer loop
    vertex -1.2102885682970026 -0.2249999999999999 0.4799999999999999
    vertex -1.2818019484660537 -0.31819805153394637 0.0
    vertex -1.2818019484660537 -0.31819805153394637 0.4799999999999999
  endloop
endfacet
facet normal -0.7933533402912355 0.6087614290087202 0.0
  outer loop
    vertex -1.2818019484660537 -0.31819805153394637 0.0
    vertex -1.2102885682970026 -0.2249999999999999 0.4799999999999999
    vertex -1.2102885682970026 -0.2249999999999999 0.0
  endloop
endfacet
facet normal -0.9238795325112866 0.3826834323650899 0.0
  outer loop
    vertex -1.1653333781699193 -0.11646857029613418 0.4799999999999999
    vertex -1.2102885682970026 -0.2249999999999999 0.0
    vertex -1.2102885682970026 -0.2249999999999999 0.4799999999999999
  endloop
endfacet
facet normal -0.9238795325112866 0.3826834323650899 0.0
  outer loop
    vertex -1.2102885682970026 -0.2249999999999999 0.0
    vertex -1.1653333781699193 -0.11646857029613418 0.4799999999999999
    vertex -1.1653333781699193 -0.11646857029613418 0.0
  endloop
endfacet
facet normal -0.9914448613738104 0.13052619222005146 0.0
  outer loop
    vertex -1.15 1.2747462519707953e-16 0.4799999999999999
    vertex -1.1653333781699193 -0.11646857029613418 0.0
    vertex -1.1653333781699193 -0.11646857029613418 0.4799999999999999
  endloop
endfacet
facet normal -0.9914448613738104 0.13052619222005146 0.0
  outer loop
    vertex -1.1653333781699193 -0.11646857029613418 0.0
    vertex -1.15 1.2747462519707953e-16 0.4799999999999999
    vertex -1.15 1.2747462519707953e-16 0.0
  endloop
endfacet
facet normal -0.9914448613738104 -0.13052619222005152 -0.0
  outer loop
    vertex -1.1653333781699193 0.11646857029613443 0.4799999999999999
    vertex -1.15 1.2747462519707953e-16 0.0
    vertex -1.15 1.2747462519707953e-16 0.4799999999999999
  endloop
endfacet
facet normal -0.9914448613738104 -0.13052619222005152 -0.0
  outer loop
    vertex -1.15 1.2747462519707953e-16 0.0
    vertex -1.1653333781699193 0.11646857029613443 0.4799999999999999
    vertex -1.1653333781699193 0.11646857029613443 0.0
  endloop
endfacet
facet normal -0.9238795325112866 -0.3826834323650904 -0.0
  outer loop
    vertex -1.2102885682970026 0.22500000000000003 0.4799999999999999
    vertex -1.1653333781699193 0.11646857029613443 0.0
    vertex -1.1653333781699193 0.11646857029613443 0.4799999999999999
  endloop
endfacet
facet normal -0.9238795325112866 -0.3826834323650904 -0.0
  outer loop
    vertex -1.1653333781699193 0.11646857029613443 0.0
    vertex -1.2102885682970026 0.22500000000000003 0.4799999999999999
    vertex -1.2102885682970026 0.22500000000000003 0.0
  endloop
endfacet
facet normal -0.7933533402912352 -0.6087614290087205 -0.0
  outer loop
    vertex -1.2818019484660537 0.3181980515339464 0.4799999999999999
    vertex -1.2102885682970026 0.22500000000000003 0.0
    vertex -1.2102885682970026 0.22500000000000003 0.4799999999999999
  endloop
endfacet
facet normal -0.7933533402912352 -0.6087614290087205 -0.0
  outer loop
    vertex -1.2102885682970026 0.22500000000000003 0.0
    vertex -1.2818019484660537 0.3181980515339464 0.4799999999999999
    vertex -1.2818019484660537 0.3181980515339464 0.0
  endloop
endfacet
facet normal -0.6087614290087202 -0.7933533402912355 -0.0
  outer loop
    vertex -1.2818019484660537 0.3181980515339464 0.4799999999999999
    vertex -1.375 0.3897114317029974 0.0
    vertex -1.2818019484660537 0.3181980515339464 0.0
  endloop
endfacet
facet normal -0.6087614290087202 -0.7933533402912355 -0.0
  outer loop
    vertex -1.375 0.3897114317029974 0.0
    vertex -1.2818019484660537 0.3181980515339464 0.4799999999999999
    vertex -1.375 0.3897114317029974 0.4799999999999999
  endloop
endfacet
facet normal -0.38268343236509017 -0.9238795325112866 -0.0
  outer loop
    vertex -1.375 0.3897114317029974 0.4799999999999999
    vertex -1.4835314297038655 0.43466662183008076 0.0
    vertex -1.375 0.3897114317029974 0.0
  endloop
endfacet
facet normal -0.38268343236509017 -0.9238795325112866 -0.0
  outer loop
    vertex -1.4835314297038655 0.43466662183008076 0.0
    vertex -1.375 0.3897114317029974 0.4799999999999999
    vertex -1.4835314297038655 0.43466662183008076 0.4799999999999999
  endloop
endfacet
facet normal -0.13052619222005143 -0.9914448613738104 -0.0
  outer loop
    vertex -1.4835314297038655 0.43466662183008076 0.4799999999999999
    vertex -1.6 0.45 0.0
    vertex -1.4835314297038655 0.43466662183008076 0.0
  endloop
endfacet
facet normal -0.13052619222005143 -0.9914448613738104 -0.0
  outer loop
    vertex -1.6 0.45 0.0
    vertex -1.4835314297038655 0.43466662183008076 0.4799999999999999
    vertex -1.6 0.45 0.4799999999999999
  endloop
endfacet
facet normal -1.0 0.0 0.0
  outer loop
    vertex -1.6 0.8 0.4799999999999999
    vertex -1.6 0.45 0.0
    vertex -1.6 0.45 0.4799999999999999
  endloop
endfacet
facet normal -1.0 0.0 0.0
  outer loop
    vertex -1.6 0.45 0.0
    vertex -1.6 0.8 0.4799999999999999
    vertex -1.6 0.8 0.0
  endloop
endfacet
facet normal -0.0 -0.0 1.0
  outer loop
    vertex -1.0 -0.8 0.4799999999999999
    vertex -1.6 -0.45 0.4799999999999999
    vertex -1.6 -0.8 0.4799999999999999
  endloop
endfacet
facet normal -0.0 -0.0 1.0
  outer loop
    vertex -1.6 -0.45 0.4799999999999999
    vertex -1.0 -0.8 0.4799999999999999
    vertex -1.4835314297038658 -0.43466662183008076 0.4799999999999999
  endloop
endfacet
facet normal -0.0 -0.0 1.0
  outer loop
    vertex -1.4835314297038658 -0.43466662183008076 0.4799999999999999
    vertex -1.0 -0.8 0.4799999999999999
    vertex -1.375 -0.3897114317029974 0.4799999999999999
  endloop
endfacet
facet normal -0.0 -0.0 1.0
  outer loop
    vertex -1.375 -0.3897114317029974 0.4799999999999999
    vertex -1.0 -0.8 0.4799999999999999
    vertex -1.2818019484660537 -0.31819805153394637 0.4799999999999999
  endloop
endfacet
facet normal -0.0 -0.0 1.0
  outer loop
    vertex -1.2818019484660537 -0.31819805153394637 0.4799999999999999
    vertex -1.0 -0.8 0.4799999999999999
    vertex -1.2102885682970026 -0.2249999999999999 0.4799999999999999
  endloop
endfacet
facet normal -0.0 -0.0 1.0
  outer loop
    vertex -1.2102885682970026 -0.2249999999999999 0.4799999999999999
    vertex -1.0 -0.8 0.4799999999999999
    vertex -1.1653333781699193 -0.11646857029613418 0.4799999999999999
  endloop
endfacet
facet normal -0.0 -0.0 1.0
  outer loop
    vertex -1.1653333781699193 -0.11646857029613418 0.4799999999999999
    vertex -1.0 -0.8 0.4799999999999999
    vertex -1.15 1.2747462519707953e-16 0.4799999999999999
  endloop
endfacet
facet normal -0.0 -0.0 1.0
  outer loop
    vertex -1.4835314297038655 0.43466662183008076 0.4799999999999999
    vertex -1.6 0.8 0.4799999999999999
    vertex -1.6 0.45 0.4799999999999999
  endloop
endfacet
facet normal -0.0 -0.0 1.0
  outer loop
    vertex -1.6 0.8 0.4799999999999999
    vertex -1.4835314297038655 0.43466662183008076 0.4799999999999999
    vertex -1.0 0.8 0.4799999999999999
  endloop
endfacet
facet normal -0.0 -0.0 1.0
  outer loop
    vertex -1.0 0.8 0.4799999999999999
    vertex -1.4835314297038655 0.43466662183008076 0.4799999999999999
    vertex -1.375 0.3897114317029974 0.4799999999999999
  endloop
endfacet
facet normal -0.0 -0.0 1.0
  outer loop
    vertex -1.0 0.8 0.4799999999999999
    vertex -1.375 0.3897114317029974 0.4799999999999999
    vertex -1.2818019484660537 0.3181980515339464 0.4799999999999999
  endloop
endfacet
facet normal -0.0 -0.0 1.0
  outer loop
    vertex -1.0 0.8 0.4799999999999999
    vertex -1.2818019484660537 0.3181980515339464 0.4799999999999999
    vertex -1.2102885682970026 0.22500000000000003 0.4799999999999999
  endloop
endfacet
facet normal -0.0 -0.0 1.0
  outer loop
    vertex -1.0 0.8 0.4799999999999999
    vertex -1.2102885682970026 0.22500000000000003 0.4799999999999999
    vertex -1.1653333781699193 0.11646857029613443 0.4799999999999999
  endloop
endfacet
facet normal -0.0 -0.0 1.0
  outer loop
    vertex -1.0 0.8 0.4799999999999999
    vertex -1.1653333781699193 0.11646857029613443 0.4799999999999999
    vertex -1.15 1.2747462519707953e-16 0.4799999999999999
  endloop
endfacet
facet normal -0.0 -0.0 1.0
  outer loop
    vertex -1.0 0.8 0.4799999999999999
    vertex -1.15 1.2747462519707953e-16 0.4799999999999999
    vertex -1.0 -0.8 0.4799999999999999
  endloop
endfacet
facet normal -0.0 1.0 -0.0
  outer loop
    vertex -1.6 0.8 0.4799999999999999
    vertex -1.0 0.8 0.0
    vertex -1.6 0.8 0.0
  endloop
endfacet
facet normal -0.0 1.0 -0.0
  outer loop
    vertex -1.0 0.8 0.0
    vertex -1.6 0.8 0.4799999999999999
    vertex -1.0 0.8 0.4799999999999999
  endloop
endfacet
facet normal -0.0 -0.0 1.0
  outer loop
    vertex -1.0 -0.8 0.4799999999999999
    vertex -0.95 -0.7500000000000001 0.4799999999999999
    vertex -1.0 0.8 0.4799999999999999
  endloop
endfacet
facet normal -0.0 -0.0 1.0
  outer loop
    vertex -0.95 -0.7500000000000001 0.4799999999999999
    vertex -1.0 -0.8 0.4799999999999999
    vertex 1.0000000000000004 -0.8 0.4799999999999999
  endloop
endfacet
facet normal -0.0 -0.0 1.0
  outer loop
    vertex -0.95 -0.7500000000000001 0.4799999999999999
    vertex 1.0000000000000004 -0.8 0.4799999999999999
    vertex 0.9500000000000004 -0.7499999999999999 0.4799999999999999
  endloop
endfacet
facet normal -0.0 -0.0 1.0
  outer loop
    vertex 0.9500000000000004 -0.7499999999999999 0.4799999999999999
    vertex 1.0000000000000004 -0.8 0.4799999999999999
    vertex 0.9500000000000004 0.7500000000000001 0.4799999999999999
  endloop
endfacet
facet normal -0.0 -0.0 1.0
  outer loop
    vertex -1.0 0.8 0.4799999999999999
    vertex -0.95 0.7500000000000001 0.4799999999999999
    vertex 1.0000000000000004 0.8 0.4799999999999999
  endloop
endfacet
facet normal -0.0 -0.0 1.0
  outer loop
    vertex -0.95 0.7500000000000001 0.4799999999999999
    vertex -1.0 0.8 0.4799999999999999
    vertex -0.95 -0.7500000000000001 0.4799999999999999
  endloop
endfacet
facet normal -0.0 -0.0 1.0
  outer loop
    vertex 1.0000000000000004 0.8 0.4799999999999999
    vertex -0.95 0.7500000000000001 0.4799999999999999
    vertex 0.9500000000000004 0.7500000000000001 0.4799999999999999
  endloop
endfacet
facet normal -0.0 -0.0 1.0
  outer loop
    vertex 1.0000000000000004 0.8 0.4799999999999999
    vertex 0.9500000000000004 0.7500000000000001 0.4799999999999999
    vertex 1.0000000000000004 -0.8 0.4799999999999999
  endloop
endfacet
facet normal -0.0 -0.0 1.0
  outer loop
    vertex 1.0000000000000004 -0.8 0.4799999999999999
    vertex 1.1653333781699196 -0.11646857029613449 0.4799999999999999
    vertex 1.0000000000000004 0.8 0.4799999999999999
  endloop
endfacet
facet normal -0.0 -0.0 1.0
  outer loop
    vertex 1.1653333781699196 -0.11646857029613449 0.4799999999999999
    vertex 1.0000000000000004 -0.8 0.4799999999999999
    vertex 1.210288568297003 -0.2250000000000001 0.4799999999999999
  endloop
endfacet
facet normal -0.0 -0.0 1.0
  outer loop
    vertex 1.210288568297003 -0.2250000000000001 0.4799999999999999
    vertex 1.0000000000000004 -0.8 0.4799999999999999
    vertex 1.6000000000000003 -0.8 0.4799999999999999
  endloop
endfacet
facet normal -0.0 -0.0 1.0
  outer loop
    vertex 1.0000000000000004 0.8 0.4799999999999999
    vertex 1.1653333781699196 -0.11646857029613449 0.4799999999999999
    vertex 1.1500000000000004 -1.725940889178459e-16 0.4799999999999999
  endloop
endfacet
facet normal -0.0 -0.0 1.0
  outer loop
    vertex 1.210288568297003 -0.2250000000000001 0.4799999999999999
    vertex 1.6000000000000003 -0.8 0.4799999999999999
    vertex 1.2818019484660539 -0.3181980515339465 0.4799999999999999
  endloop
endfacet
facet normal -0.0 -0.0 1.0
  outer loop
    vertex 1.2818019484660539 -0.3181980515339465 0.4799999999999999
    vertex 1.6000000000000003 -0.8 0.4799999999999999
    vertex 1.3750000000000004 -0.38971143170299744 0.4799999999999999
  endloop
endfacet
facet normal -0.0 -0.0 1.0
  outer loop
    vertex 1.3750000000000004 -0.38971143170299744 0.4799999999999999
    vertex 1.6000000000000003 -0.8 0.4799999999999999
    vertex 1.483531429703866 -0.43466662183008076 0.4799999999999999
  endloop
endfacet
facet normal -0.0 -0.0 1.0
  outer loop
    vertex 1.483531429703866 -0.43466662183008076 0.4799999999999999
    vertex 1.6000000000000003 -0.8 0.4799999999999999
    vertex 1.6000000000000003 -0.45 0.4799999999999999
  endloop
endfacet
facet normal -0.0 -0.0 1.0
  outer loop
    vertex 1.0000000000000004 0.8 0.4799999999999999
    vertex 1.210288568297003 0.22499999999999987 0.4799999999999999
    vertex 1.6000000000000003 0.8 0.4799999999999999
  endloop
endfacet
facet normal -0.0 -0.0 1.0
  outer loop
    vertex 1.210288568297003 0.22499999999999987 0.4799999999999999
    vertex 1.0000000000000004 0.8 0.4799999999999999
    vertex 1.1653333781699196 0.11646857029613414 0.4799999999999999
  endloop
endfacet
facet normal -0.0 -0.0 1.0
  outer loop
    vertex 1.1653333781699196 0.11646857029613414 0.4799999999999999
    vertex 1.0000000000000004 0.8 0.4799999999999999
    vertex 1.1500000000000004 -1.725940889178459e-16 0.4799999999999999
  endloop
endfacet
facet normal -0.0 -0.0 1.0
  outer loop
    vertex 1.6000000000000003 0.8 0.4799999999999999
    vertex 1.210288568297003 0.22499999999999987 0.4799999999999999
    vertex 1.2818019484660539 0.3181980515339463 0.4799999999999999
  endloop
endfacet
facet normal -0.0 -0.0 1.0
  outer loop
    vertex 1.6000000000000003 0.8 0.4799999999999999
    vertex 1.2818019484660539 0.3181980515339463 0.4799999999999999
    vertex 1.3750000000000004 0.3897114317029973 0.4799999999999999
  endloop
endfacet
facet normal -0.0 -0.0 1.0
  outer loop
    vertex 1.6000000000000003 0.8 0.4799999999999999
    vertex 1.3750000000000004 0.3897114317029973 0.4799999999999999
    vertex 1.4835314297038662 0.43466662183008076 0.4799999999999999
  endloop
endfacet
facet normal -0.0 -0.0 1.0
  outer loop
    vertex 1.6000000000000003 0.8 0.4799999999999999
    vertex 1.4835314297038662 0.43466662183008076 0.4799999999999999
    vertex 1.6000000000000003 0.4499999999999999 0.4799999999999999
  endloop
endfacet
facet normal 0.0 -1.0 0.0
  outer loop
    vertex 1.0000000000000004 -0.8 0.4799999999999999
    vertex -1.0 -0.8 0.0
    vertex 1.0 -0.8 0.0
  endloop
endfacet
facet normal 0.0 -1.0 0.0
  outer loop
    vertex -1.0 -0.8 0.0
    vertex 1.0000000000000004 -0.8 0.4799999999999999
    vertex -1.0 -0.8 0.4799999999999999
  endloop
endfacet
facet normal 0.0 0.0 -1.0
  outer loop
    vertex 0.9999999999999997 0.8 0.0
    vertex -1.0 -0.8 0.0
    vertex -1.0 0.8 0.0
  endloop
endfacet
facet normal 0.0 0.0 -1.0
  outer loop
    vertex -1.0 -0.8 0.0
    vertex 0.9999999999999997 0.8 0.0
    vertex 1.0 -0.8 0.0
  endloop
endfacet
facet normal -0.0 1.0 -0.0
  outer loop
    vertex 1.0000000000000004 0.8 0.4799999999999999
    vertex 1.6000000000000003 0.8 0.0
    vertex 0.9999999999999997 0.8 0.0
  endloop
endfacet
facet normal -0.0 1.0 -0.0
  outer loop
    vertex 1.6000000000000003 0.8 0.0
    vertex 1.0000000000000004 0.8 0.4799999999999999
    vertex 1.6000000000000003 0.8 0.4799999999999999
  endloop
endfacet
facet normal 1.0 7.83621622287394e-17 -1.1279865930191589e-15
  outer loop
    vertex 0.9999999999999997 0.8 0.0
    vertex 1.0000000000000004 -0.8 0.4799999999999999
    vertex 1.0 -0.8 0.0
  endloop
endfacet
facet normal 1.0 7.83621622287394e-17 -1.1279865930191589e-15
  outer loop
    vertex 1.0000000000000004 -0.8 0.4799999999999999
    vertex 0.9999999999999997 0.8 0.0
    vertex 1.0000000000000004 0.8 0.4799999999999999
  endloop
endfacet
facet normal 0.0 -1.0 0.0
  outer loop
    vertex -1.0 -0.8 0.4799999999999999
    vertex -1.6 -0.8 0.0
    vertex -1.0 -0.8 0.0
  endloop
endfacet
facet normal 0.0 -1.0 0.0
  outer loop
    vertex -1.6 -0.8 0.0
    vertex -1.0 -0.8 0.4799999999999999
    vertex -1.6 -0.8 0.4799999999999999
  endloop
endfacet
facet normal 0.0 0.0 -1.0
  outer loop
    vertex -1.0 0.8 0.0
    vertex -1.6 0.45 0.0
    vertex -1.6 0.8 0.0
  endloop
endfacet
facet normal 0.0 0.0 -1.0
  outer loop
    vertex -1.6 0.45 0.0
    vertex -1.0 0.8 0.0
    vertex -1.4835314297038655 0.43466662183008076 0.0
  endloop
endfacet
facet normal 0.0 0.0 -1.0
  outer loop
    vertex -1.4835314297038655 0.43466662183008076 0.0
    vertex -1.0 0.8 0.0
    vertex -1.375 0.3897114317029974 0.0
  endloop
endfacet
facet normal 0.0 0.0 -1.0
  outer loop
    vertex -1.375 0.3897114317029974 0.0
    vertex -1.0 0.8 0.0
    vertex -1.2818019484660537 0.3181980515339464 0.0
  endloop
endfacet
facet normal 0.0 0.0 -1.0
  outer loop
    vertex -1.2818019484660537 0.3181980515339464 0.0
    vertex -1.0 0.8 0.0
    vertex -1.2102885682970026 0.22500000000000003 0.0
  endloop
endfacet
facet normal 0.0 0.0 -1.0
  outer loop
    vertex -1.2102885682970026 0.22500000000000003 0.0
    vertex -1.0 0.8 0.0
    vertex -1.1653333781699193 0.11646857029613443 0.0
  endloop
endfacet
facet normal 0.0 0.0 -1.0
  outer loop
    vertex -1.1653333781699193 0.11646857029613443 0.0
    vertex -1.0 0.8 0.0
    vertex -1.15 1.2747462519707953e-16 0.0
  endloop
endfacet
facet normal 0.0 0.0 -1.0
  outer loop
    vertex -1.4835314297038658 -0.43466662183008076 0.0
    vertex -1.6 -0.8 0.0
    vertex -1.6 -0.45 0.0
  endloop
endfacet
facet normal 0.0 0.0 -1.0
  outer loop
    vertex -1.6 -0.8 0.0
    vertex -1.4835314297038658 -0.43466662183008076 0.0
    vertex -1.0 -0.8 0.0
  endloop
endfacet
facet normal 0.0 0.0 -1.0
  outer loop
    vertex -1.0 -0.8 0.0
    vertex -1.4835314297038658 -0.43466662183008076 0.0
    vertex -1.375 -0.3897114317029974 0.0
  endloop
endfacet
facet normal 0.0 0.0 -1.0
  outer loop
    vertex -1.0 -0.8 0.0
    vertex -1.375 -0.3897114317029974 0.0
    vertex -1.2818019484660537 -0.31819805153394637 0.0
  endloop
endfacet
facet normal 0.0 0.0 -1.0
  outer loop
    vertex -1.0 -0.8 0.0
    vertex -1.2818019484660537 -0.31819805153394637 0.0
    vertex -1.2102885682970026 -0.2249999999999999 0.0
  endloop
endfacet
facet normal 0.0 0.0 -1.0
  outer loop
    vertex -1.0 -0.8 0.0
    vertex -1.2102885682970026 -0.2249999999999999 0.0
    vertex -1.1653333781699193 -0.11646857029613418 0.0
  endloop
endfacet
facet normal 0.0 0.0 -1.0
  outer loop
    vertex -1.0 -0.8 0.0
    vertex -1.1653333781699193 -0.11646857029613418 0.0
    vertex -1.15 1.2747462519707953e-16 0.0
  endloop
endfacet
facet normal 0.0 0.0 -1.0
  outer loop
    vertex -1.0 -0.8 0.0
    vertex -1.15 1.2747462519707953e-16 0.0
    vertex -1.0 0.8 0.0
  endloop
endfacet
facet normal -0.0 1.0 -0.0
  outer loop
    vertex -1.0 0.8 0.4799999999999999
    vertex 0.9999999999999997 0.8 0.0
    vertex -1.0 0.8 0.0
  endloop
endfacet
facet normal -0.0 1.0 -0.0
  outer loop
    vertex 0.9999999999999997 0.8 0.0
    vertex -1.0 0.8 0.4799999999999999
    vertex 1.0000000000000004 0.8 0.4799999999999999
  endloop
endfacet
facet normal -1.0 0.0 0.0
  outer loop
    vertex -1.0 0.8 0.4799999999999999
    vertex -1.0 -0.8 0.0
    vertex -1.0 -0.8 0.4799999999999999
  endloop
endfacet
facet normal -1.0 0.0 0.0
  outer loop
    vertex -1.0 -0.8 0.0
    vertex -1.0 0.8 0.4799999999999999
    vertex -1.0 0.8 0.0
  endloop
endfacet
facet normal 0.0 0.0 1.0
  outer loop
    vertex 0.9500000000000004 -0.7499999999999999 1.1
    vertex -0.95 0.7500000000000001 1.1
    vertex -0.95 -0.7500000000000001 1.1
  endloop
endfacet
facet normal 0.0 0.0 1.0
  outer loop
    vertex -0.95 0.7500000000000001 1.1
    vertex 0.9500000000000004 -0.7499999999999999 1.1
    vertex 0.9500000000000004 0.7500000000000001 1.1
  endloop
endfacet
facet normal 0.0 1.0 0.0
  outer loop
    vertex -0.95 0.7500000000000001 1.1
    vertex 0.9500000000000004 0.7500000000000001 0.4799999999999999
    vertex -0.95 0.7500000000000001 0.4799999999999999
  endloop
endfacet
facet normal 0.0 1.0 0.0
  outer loop
    vertex 0.9500000000000004 0.7500000000000001 0.4799999999999999
    vertex -0.95 0.7500000000000001 1.1
    vertex 0.9500000000000004 0.7500000000000001 1.1
  endloop
endfacet
facet normal -1.0 -0.0 -0.0
  outer loop
    vertex -0.95 0.7500000000000001 1.1
    vertex -0.95 -0.7500000000000001 0.4799999999999999
    vertex -0.95 -0.7500000000000001 1.1
  endloop
endfacet
facet normal -1.0 -0.0 -0.0
  outer loop
    vertex -0.95 -0.7500000000000001 0.4799999999999999
    vertex -0.95 0.7500000000000001 1.1
    vertex -0.95 0.7500000000000001 0.4799999999999999
  endloop
endfacet
facet normal 9.498834467529759e-17 -1.0 0.0
  outer loop
    vertex 0.9500000000000004 -0.7499999999999999 1.1
    vertex -0.95 -0.7500000000000001 0.4799999999999999
    vertex 0.9500000000000004 -0.7499999999999999 0.4799999999999999
  endloop
endfacet
facet normal 9.498834467529759e-17 -1.0 0.0
  outer loop
    vertex -0.95 -0.7500000000000001 0.4799999999999999
    vertex 0.9500000000000004 -0.7499999999999999 1.1
    vertex -0.95 -0.7500000000000001 1.1
  endloop
endfacet
facet normal 1.0 -0.0 0.0
  outer loop
    vertex 0.9500000000000004 0.7500000000000001 0.4799999999999999
    vertex 0.9500000000000004 -0.7499999999999999 1.1
    vertex 0.9500000000000004 -0.7499999999999999 0.4799999999999999
  endloop
endfacet
facet normal 1.0 -0.0 0.0
  outer loop
    vertex 0.9500000000000004 -0.7499999999999999 1.1
    vertex 0.9500000000000004 0.7500000000000001 0.4799999999999999
    vertex 0.9500000000000004 0.7500000000000001 1.1
  endloop
endfacet
endsolid LED-1206
