solid LED-1206-BOTTOM
facet normal -6.257588391051805e-16 7.625009353098133e-16 1.0
  outer loop
    vertex 1.0000000000000007 -0.7999999999999942 0.4800000000000029
    vertex 1.1653333781699202 -0.1164685702961337 0.4800000000000022
    vertex 1.0000000000000013 0.7999999999999995 0.4800000000000015
  endloop
endfacet
facet normal -6.257588391051805e-16 7.625009353098133e-16 1.0
  outer loop
    vertex 1.1653333781699202 -0.1164685702961337 0.4800000000000022
    vertex 1.0000000000000007 -0.7999999999999942 0.4800000000000029
    vertex 1.2102885682970035 -0.2249999999999985 0.4800000000000022
  endloop
endfacet
facet normal -6.257588391051805e-16 7.625009353098133e-16 1.0
  outer loop
    vertex 1.2102885682970035 -0.2249999999999985 0.4800000000000022
    vertex 1.0000000000000007 -0.7999999999999942 0.4800000000000029
    vertex 1.6000000000000003 -0.7999999999999942 0.4800000000000029
  endloop
endfacet
facet normal -6.257588391051805e-16 7.625009353098133e-16 1.0
  outer loop
    vertex 1.0000000000000013 0.7999999999999995 0.4800000000000015
    vertex 1.1653333781699202 -0.1164685702961337 0.4800000000000022
    vertex 1.1500000000000006 4.963141009284299e-16 0.4800000000000022
  endloop
endfacet
facet normal -6.257588391051805e-16 7.625009353098133e-16 1.0
  outer loop
    vertex 1.2102885682970035 -0.2249999999999985 0.4800000000000022
    vertex 1.6000000000000003 -0.7999999999999942 0.4800000000000029
    vertex 1.2818019484660539 -0.318198051533947 0.4800000000000022
  endloop
endfacet
facet normal -6.257588391051805e-16 7.625009353098133e-16 1.0
  outer loop
    vertex 1.2818019484660539 -0.318198051533947 0.4800000000000022
    vertex 1.6000000000000003 -0.7999999999999942 0.4800000000000029
    vertex 1.3750000000000007 -0.3897114317029965 0.4800000000000022
  endloop
endfacet
facet normal -6.257588391051805e-16 7.625009353098133e-16 1.0
  outer loop
    vertex 1.3750000000000007 -0.3897114317029965 0.4800000000000022
    vertex 1.6000000000000003 -0.7999999999999942 0.4800000000000029
    vertex 1.4835314297038646 -0.4346666218300795 0.4800000000000029
  endloop
endfacet
facet normal -6.257588391051805e-16 7.625009353098133e-16 1.0
  outer loop
    vertex 1.4835314297038646 -0.4346666218300795 0.4800000000000029
    vertex 1.6000000000000003 -0.7999999999999942 0.4800000000000029
    vertex 1.6000000000000003 -0.4499999999999993 0.4800000000000029
  endloop
endfacet
facet normal -6.257588391051805e-16 7.625009353098133e-16 1.0
  outer loop
    vertex 1.0000000000000013 0.7999999999999995 0.4800000000000015
    vertex 1.2102885682970035 0.2250000000000013 0.4800000000000022
    vertex 1.6000000000000003 0.7999999999999995 0.4800000000000015
  endloop
endfacet
facet normal -6.257588391051805e-16 7.625009353098133e-16 1.0
  outer loop
    vertex 1.2102885682970035 0.2250000000000013 0.4800000000000022
    vertex 1.0000000000000013 0.7999999999999995 0.4800000000000015
    vertex 1.1653333781699202 0.11646857029613324 0.4800000000000015
  endloop
endfacet
facet normal -6.257588391051805e-16 7.625009353098133e-16 1.0
  outer loop
    vertex 1.1653333781699202 0.11646857029613324 0.4800000000000015
    vertex 1.0000000000000013 0.7999999999999995 0.4800000000000015
    vertex 1.1500000000000006 4.963141009284299e-16 0.4800000000000022
  endloop
endfacet
facet normal -6.257588391051805e-16 7.625009353098133e-16 1.0
  outer loop
    vertex 1.6000000000000003 0.7999999999999995 0.4800000000000015
    vertex 1.2102885682970035 0.2250000000000013 0.4800000000000022
    vertex 1.2818019484660539 0.3181980515339467 0.4800000000000022
  endloop
endfacet
facet normal -6.257588391051805e-16 7.625009353098133e-16 1.0
  outer loop
    vertex 1.6000000000000003 0.7999999999999995 0.4800000000000015
    vertex 1.2818019484660539 0.3181980515339467 0.4800000000000022
    vertex 1.3750000000000007 0.38971143170299766 0.4800000000000022
  endloop
endfacet
facet normal -6.257588391051805e-16 7.625009353098133e-16 1.0
  outer loop
    vertex 1.6000000000000003 0.7999999999999995 0.4800000000000015
    vertex 1.3750000000000007 0.38971143170299766 0.4800000000000022
    vertex 1.4835314297038646 0.4346666218300809 0.4800000000000022
  endloop
endfacet
facet normal -6.257588391051805e-16 7.625009353098133e-16 1.0
  outer loop
    vertex 1.6000000000000003 0.7999999999999995 0.4800000000000015
    vertex 1.4835314297038646 0.4346666218300809 0.4800000000000022
    vertex 1.6000000000000003 0.45000000000000073 0.4800000000000022
  endloop
endfacet
facet normal 1.0 -0.0 -0.0
  outer loop
    vertex 1.6000000000000003 -0.4499999999999993 7.219114195322618e-16
    vertex 1.6000000000000003 -0.7999999999999942 0.4800000000000029
    vertex 1.6000000000000003 -0.7999999999999972 7.219114195322618e-16
  endloop
endfacet
facet normal 1.0 -0.0 -0.0
  outer loop
    vertex 1.6000000000000003 -0.7999999999999942 0.4800000000000029
    vertex 1.6000000000000003 -0.4499999999999993 7.219114195322618e-16
    vertex 1.6000000000000003 -0.4499999999999993 0.4800000000000029
  endloop
endfacet
facet normal 0.13052619222005457 0.99144486137381 -0.0
  outer loop
    vertex 1.4835314297038646 -0.4346666218300795 0.4800000000000029
    vertex 1.6000000000000003 -0.4499999999999993 7.219114195322618e-16
    vertex 1.4835314297038646 -0.4346666218300795 7.219114195322618e-16
  endloop
endfacet
facet normal 0.13052619222005457 0.99144486137381 -0.0
  outer loop
    vertex 1.6000000000000003 -0.4499999999999993 7.219114195322618e-16
    vertex 1.4835314297038646 -0.4346666218300795 0.4800000000000029
    vertex 1.6000000000000003 -0.4499999999999993 0.4800000000000029
  endloop
endfacet
facet normal 0.3826834323650919 0.923879532511286 -7.652489893118705e-19
  outer loop
    vertex 1.3750000000000007 -0.3897114317029965 0.4800000000000022
    vertex 1.4835314297038646 -0.4346666218300795 7.219114195322618e-16
    vertex 1.3750000000000007 -0.3897114317029965 0.0
  endloop
endfacet
facet normal 0.3826834323650919 0.923879532511286 -7.652489893118705e-19
  outer loop
    vertex 1.4835314297038646 -0.4346666218300795 7.219114195322618e-16
    vertex 1.3750000000000007 -0.3897114317029965 0.4800000000000022
    vertex 1.4835314297038646 -0.4346666218300795 0.4800000000000029
  endloop
endfacet
facet normal 0.608761429008711 0.7933533402912426 -2.031691507865006e-18
  outer loop
    vertex 1.2818019484660539 -0.318198051533947 7.219114195322618e-16
    vertex 1.3750000000000007 -0.3897114317029965 0.4800000000000022
    vertex 1.3750000000000007 -0.3897114317029965 0.0
  endloop
endfacet
facet normal 0.608761429008711 0.7933533402912426 -2.031691507865006e-18
  outer loop
    vertex 1.3750000000000007 -0.3897114317029965 0.4800000000000022
    vertex 1.2818019484660539 -0.318198051533947 7.219114195322618e-16
    vertex 1.2818019484660539 -0.318198051533947 0.4800000000000022
  endloop
endfacet
facet normal 0.7933533402912447 0.6087614290087081 -5.977916344139481e-18
  outer loop
    vertex 1.2102885682970035 -0.2249999999999985 0.0
    vertex 1.2818019484660539 -0.318198051533947 0.4800000000000022
    vertex 1.2818019484660539 -0.318198051533947 7.219114195322618e-16
  endloop
endfacet
facet normal 0.7933533402912447 0.6087614290087081 -5.977916344139481e-18
  outer loop
    vertex 1.2818019484660539 -0.318198051533947 0.4800000000000022
    vertex 1.2102885682970035 -0.2249999999999985 0.0
    vertex 1.2102885682970035 -0.2249999999999985 0.4800000000000022
  endloop
endfacet
facet normal 0.9238795325112862 0.38268343236509134 -0.0
  outer loop
    vertex 1.1653333781699202 -0.1164685702961337 0.0
    vertex 1.2102885682970035 -0.2249999999999985 0.4800000000000022
    vertex 1.2102885682970035 -0.2249999999999985 0.0
  endloop
endfacet
facet normal 0.9238795325112862 0.38268343236509134 -0.0
  outer loop
    vertex 1.2102885682970035 -0.2249999999999985 0.4800000000000022
    vertex 1.1653333781699202 -0.1164685702961337 0.0
    vertex 1.1653333781699202 -0.1164685702961337 0.4800000000000022
  endloop
endfacet
facet normal 0.9914448613738098 0.13052619222005618 -0.0
  outer loop
    vertex 1.1500000000000006 4.963141009284299e-16 0.0
    vertex 1.1653333781699202 -0.1164685702961337 0.4800000000000022
    vertex 1.1653333781699202 -0.1164685702961337 0.0
  endloop
endfacet
facet normal 0.9914448613738098 0.13052619222005618 -0.0
  outer loop
    vertex 1.1653333781699202 -0.1164685702961337 0.4800000000000022
    vertex 1.1500000000000006 4.963141009284299e-16 0.0
    vertex 1.1500000000000006 4.963141009284299e-16 0.4800000000000022
  endloop
endfacet
facet normal 0.9914448613738096 -0.13052619222005776 5.183105419954951e-20
  outer loop
    vertex 1.1653333781699202 0.11646857029613324 0.0
    vertex 1.1500000000000006 4.963141009284299e-16 0.4800000000000022
    vertex 1.1500000000000006 4.963141009284299e-16 0.0
  endloop
endfacet
facet normal 0.9914448613738096 -0.13052619222005776 5.183105419954951e-20
  outer loop
    vertex 1.1500000000000006 4.963141009284299e-16 0.4800000000000022
    vertex 1.1653333781699202 0.11646857029613324 0.0
    vertex 1.1653333781699202 0.11646857029613324 0.4800000000000015
  endloop
endfacet
facet normal 0.9238795325112884 -0.382683432365086 1.1501017877918574e-15
  outer loop
    vertex 1.2102885682970035 0.22499999999999842 0.0
    vertex 1.1653333781699202 0.11646857029613324 0.4800000000000015
    vertex 1.1653333781699202 0.11646857029613324 0.0
  endloop
endfacet
facet normal 0.9238795325112884 -0.382683432365086 1.1501017877918574e-15
  outer loop
    vertex 1.1653333781699202 0.11646857029613324 0.4800000000000015
    vertex 1.2102885682970035 0.22499999999999842 0.0
    vertex 1.2102885682970035 0.2250000000000013 0.4800000000000022
  endloop
endfacet
facet normal 0.7933533402912397 -0.6087614290087148 1.8349951594084527e-15
  outer loop
    vertex 1.2818019484660539 0.3181980515339467 0.0
    vertex 1.2102885682970035 0.2250000000000013 0.4800000000000022
    vertex 1.2102885682970035 0.22499999999999842 0.0
  endloop
endfacet
facet normal 0.7933533402912397 -0.6087614290087148 1.8349951594084527e-15
  outer loop
    vertex 1.2102885682970035 0.2250000000000013 0.4800000000000022
    vertex 1.2818019484660539 0.3181980515339467 0.0
    vertex 1.2818019484660539 0.3181980515339467 0.4800000000000022
  endloop
endfacet
facet normal 0.6087614290087187 -0.7933533402912366 7.817329087436461e-20
  outer loop
    vertex 1.3750000000000007 0.38971143170299766 0.4800000000000022
    vertex 1.2818019484660539 0.3181980515339467 0.0
    vertex 1.3750000000000007 0.38971143170299766 -7.219114195322618e-16
  endloop
endfacet
facet normal 0.6087614290087187 -0.7933533402912366 7.817329087436461e-20
  outer loop
    vertex 1.2818019484660539 0.3181980515339467 0.0
    vertex 1.3750000000000007 0.38971143170299766 0.4800000000000022
    vertex 1.2818019484660539 0.3181980515339467 0.4800000000000022
  endloop
endfacet
facet normal 0.38268343236509395 -0.9238795325112852 3.4243926023543375e-18
  outer loop
    vertex 1.4835314297038646 0.4346666218300809 0.0
    vertex 1.3750000000000007 0.38971143170299766 0.4800000000000022
    vertex 1.3750000000000007 0.38971143170299766 -7.219114195322618e-16
  endloop
endfacet
facet normal 0.38268343236509395 -0.9238795325112852 3.4243926023543375e-18
  outer loop
    vertex 1.3750000000000007 0.38971143170299766 0.4800000000000022
    vertex 1.4835314297038646 0.4346666218300809 0.0
    vertex 1.4835314297038646 0.4346666218300809 0.4800000000000022
  endloop
endfacet
facet normal 0.1305261922200425 -0.9914448613738116 2.982356898095183e-15
  outer loop
    vertex 1.6000000000000003 0.45000000000000073 0.4800000000000022
    vertex 1.4835314297038646 0.4346666218300809 0.0
    vertex 1.6000000000000003 0.44999999999999785 0.0
  endloop
endfacet
facet normal 0.1305261922200425 -0.9914448613738116 2.982356898095183e-15
  outer loop
    vertex 1.4835314297038646 0.4346666218300809 0.0
    vertex 1.6000000000000003 0.45000000000000073 0.4800000000000022
    vertex 1.4835314297038646 0.4346666218300809 0.4800000000000022
  endloop
endfacet
facet normal 1.0 -0.0 -0.0
  outer loop
    vertex 1.6000000000000003 0.7999999999999995 -7.219114195322618e-16
    vertex 1.6000000000000003 0.45000000000000073 0.4800000000000022
    vertex 1.6000000000000003 0.44999999999999785 0.0
  endloop
endfacet
facet normal 1.0 -0.0 -0.0
  outer loop
    vertex 1.6000000000000003 0.45000000000000073 0.4800000000000022
    vertex 1.6000000000000003 0.7999999999999995 -7.219114195322618e-16
    vertex 1.6000000000000003 0.7999999999999995 0.4800000000000015
  endloop
endfacet
facet normal -0.0 1.0 -0.0
  outer loop
    vertex 1.0000000000000013 0.7999999999999995 0.4800000000000015
    vertex 1.6000000000000003 0.7999999999999995 -7.219114195322618e-16
    vertex 1.0000000000000013 0.7999999999999995 -7.219114195322618e-16
  endloop
endfacet
facet normal -0.0 1.0 -0.0
  outer loop
    vertex 1.6000000000000003 0.7999999999999995 -7.219114195322618e-16
    vertex 1.0000000000000013 0.7999999999999995 0.4800000000000015
    vertex 1.6000000000000003 0.7999999999999995 0.4800000000000015
  endloop
endfacet
facet normal -1.0 0.0 0.0
  outer loop
    vertex -1.5999999999999992 0.45000000000000073 0.4800000000000022
    vertex -1.5999999999999992 0.7999999999999995 -7.219114195322618e-16
    vertex -1.5999999999999992 0.44999999999999785 0.0
  endloop
endfacet
facet normal -1.0 0.0 0.0
  outer loop
    vertex -1.5999999999999992 0.7999999999999995 -7.219114195322618e-16
    vertex -1.5999999999999992 0.45000000000000073 0.4800000000000022
    vertex -1.5999999999999992 0.7999999999999995 0.4800000000000015
  endloop
endfacet
facet normal -0.13052619222004408 -0.9914448613738114 2.982356898095183e-15
  outer loop
    vertex -1.483531429703865 0.4346666218300809 0.4800000000000022
    vertex -1.5999999999999992 0.44999999999999785 0.0
    vertex -1.483531429703865 0.4346666218300809 0.0
  endloop
endfacet
facet normal -0.13052619222004408 -0.9914448613738114 2.982356898095183e-15
  outer loop
    vertex -1.5999999999999992 0.44999999999999785 0.0
    vertex -1.483531429703865 0.4346666218300809 0.4800000000000022
    vertex -1.5999999999999992 0.45000000000000073 0.4800000000000022
  endloop
endfacet
facet normal -0.3826834323650907 -0.9238795325112865 -3.826244946556983e-19
  outer loop
    vertex -1.375 0.38971143170299766 0.4800000000000022
    vertex -1.483531429703865 0.4346666218300809 0.0
    vertex -1.375 0.38971143170299766 -7.219114195322618e-16
  endloop
endfacet
facet normal -0.3826834323650907 -0.9238795325112865 -3.826244946556983e-19
  outer loop
    vertex -1.483531429703865 0.4346666218300809 0.0
    vertex -1.375 0.38971143170299766 0.4800000000000022
    vertex -1.483531429703865 0.4346666218300809 0.4800000000000022
  endloop
endfacet
facet normal -0.6087614290087217 -0.7933533402912344 0.0
  outer loop
    vertex -1.2818019484660539 0.3181980515339467 0.4800000000000022
    vertex -1.375 0.38971143170299766 -7.219114195322618e-16
    vertex -1.2818019484660539 0.3181980515339467 -7.219114195322618e-16
  endloop
endfacet
facet normal -0.6087614290087217 -0.7933533402912344 0.0
  outer loop
    vertex -1.375 0.38971143170299766 -7.219114195322618e-16
    vertex -1.2818019484660539 0.3181980515339467 0.4800000000000022
    vertex -1.375 0.38971143170299766 0.4800000000000022
  endloop
endfacet
facet normal -0.7933533402912366 -0.6087614290087187 1.828860896482576e-15
  outer loop
    vertex -1.2102885682970028 0.2250000000000013 0.4800000000000022
    vertex -1.2818019484660539 0.3181980515339467 -7.219114195322618e-16
    vertex -1.2102885682970028 0.22499999999999842 0.0
  endloop
endfacet
facet normal -0.7933533402912366 -0.6087614290087187 1.828860896482576e-15
  outer loop
    vertex -1.2818019484660539 0.3181980515339467 -7.219114195322618e-16
    vertex -1.2102885682970028 0.2250000000000013 0.4800000000000022
    vertex -1.2818019484660539 0.3181980515339467 0.4800000000000022
  endloop
endfacet
facet normal -0.9238795325112862 -0.38268343236509117 1.150101787791874e-15
  outer loop
    vertex -1.2102885682970028 0.2250000000000013 0.4800000000000022
    vertex -1.1653333781699189 0.11646857029613324 0.0
    vertex -1.1653333781699189 0.11646857029613324 0.4800000000000015
  endloop
endfacet
facet normal -0.9238795325112862 -0.38268343236509117 1.150101787791874e-15
  outer loop
    vertex -1.1653333781699189 0.11646857029613324 0.0
    vertex -1.2102885682970028 0.2250000000000013 0.4800000000000022
    vertex -1.2102885682970028 0.22499999999999842 0.0
  endloop
endfacet
facet normal -0.9914448613738105 -0.13052619222005174 5.183105420065282e-20
  outer loop
    vertex -1.1653333781699189 0.11646857029613324 0.4800000000000015
    vertex -1.15 4.963141009284299e-16 0.0
    vertex -1.15 4.963141009284299e-16 0.4800000000000022
  endloop
endfacet
facet normal -0.9914448613738105 -0.13052619222005174 5.183105420065282e-20
  outer loop
    vertex -1.15 4.963141009284299e-16 0.0
    vertex -1.1653333781699189 0.11646857029613324 0.4800000000000015
    vertex -1.1653333781699189 0.11646857029613324 0.0
  endloop
endfacet
facet normal -0.9914448613738107 0.13052619222005013 0.0
  outer loop
    vertex -1.15 4.963141009284299e-16 0.4800000000000022
    vertex -1.1653333781699189 -0.1164685702961337 0.0
    vertex -1.1653333781699189 -0.1164685702961337 0.4800000000000022
  endloop
endfacet
facet normal -0.9914448613738107 0.13052619222005013 0.0
  outer loop
    vertex -1.1653333781699189 -0.1164685702961337 0.0
    vertex -1.15 4.963141009284299e-16 0.4800000000000022
    vertex -1.15 4.963141009284299e-16 0.0
  endloop
endfacet
facet normal -0.9238795325112841 0.3826834323650966 0.0
  outer loop
    vertex -1.1653333781699189 -0.1164685702961337 0.4800000000000022
    vertex -1.2102885682970028 -0.2249999999999985 0.0
    vertex -1.2102885682970028 -0.2249999999999985 0.4800000000000022
  endloop
endfacet
facet normal -0.9238795325112841 0.3826834323650966 0.0
  outer loop
    vertex -1.2102885682970028 -0.2249999999999985 0.0
    vertex -1.1653333781699189 -0.1164685702961337 0.4800000000000022
    vertex -1.1653333781699189 -0.1164685702961337 0.0
  endloop
endfacet
facet normal -0.7933533402912418 0.608761429008712 -2.031691507864766e-18
  outer loop
    vertex -1.2102885682970028 -0.2249999999999985 0.4800000000000022
    vertex -1.2818019484660539 -0.318198051533947 7.219114195322618e-16
    vertex -1.2818019484660539 -0.318198051533947 0.4800000000000022
  endloop
endfacet
facet normal -0.7933533402912418 0.608761429008712 -2.031691507864766e-18
  outer loop
    vertex -1.2818019484660539 -0.318198051533947 7.219114195322618e-16
    vertex -1.2102885682970028 -0.2249999999999985 0.4800000000000022
    vertex -1.2102885682970028 -0.2249999999999985 0.0
  endloop
endfacet
facet normal -0.6087614290087139 0.7933533402912403 -2.0316915078643647e-18
  outer loop
    vertex -1.375 -0.3897114317029965 0.4800000000000022
    vertex -1.2818019484660539 -0.318198051533947 7.219114195322618e-16
    vertex -1.375 -0.3897114317029965 0.0
  endloop
endfacet
facet normal -0.6087614290087139 0.7933533402912403 -2.0316915078643647e-18
  outer loop
    vertex -1.2818019484660539 -0.318198051533947 7.219114195322618e-16
    vertex -1.375 -0.3897114317029965 0.4800000000000022
    vertex -1.2818019484660539 -0.318198051533947 0.4800000000000022
  endloop
endfacet
facet normal -0.3826834323650886 0.9238795325112873 -7.652489893105972e-19
  outer loop
    vertex -1.483531429703865 -0.4346666218300795 7.219114195322618e-16
    vertex -1.375 -0.3897114317029965 0.4800000000000022
    vertex -1.375 -0.3897114317029965 0.0
  endloop
endfacet
facet normal -0.3826834323650886 0.9238795325112873 -7.652489893105972e-19
  outer loop
    vertex -1.375 -0.3897114317029965 0.4800000000000022
    vertex -1.483531429703865 -0.4346666218300795 7.219114195322618e-16
    vertex -1.483531429703865 -0.4346666218300795 0.4800000000000029
  endloop
endfacet
facet normal -0.13052619222005618 0.9914448613738098 -0.0
  outer loop
    vertex -1.5999999999999992 -0.4499999999999993 0.4800000000000029
    vertex -1.483531429703865 -0.4346666218300795 7.219114195322618e-16
    vertex -1.5999999999999992 -0.4499999999999993 7.219114195322618e-16
  endloop
endfacet
facet normal -0.13052619222005618 0.9914448613738098 -0.0
  outer loop
    vertex -1.483531429703865 -0.4346666218300795 7.219114195322618e-16
    vertex -1.5999999999999992 -0.4499999999999993 0.4800000000000029
    vertex -1.483531429703865 -0.4346666218300795 0.4800000000000029
  endloop
endfacet
facet normal -1.0 0.0 0.0
  outer loop
    vertex -1.5999999999999992 -0.7999999999999942 0.4800000000000029
    vertex -1.5999999999999992 -0.4499999999999993 7.219114195322618e-16
    vertex -1.5999999999999992 -0.7999999999999972 7.219114195322618e-16
  endloop
endfacet
facet normal -1.0 0.0 0.0
  outer loop
    vertex -1.5999999999999992 -0.4499999999999993 7.219114195322618e-16
    vertex -1.5999999999999992 -0.7999999999999942 0.4800000000000029
    vertex -1.5999999999999992 -0.4499999999999993 0.4800000000000029
  endloop
endfacet
facet normal -4.003551104736668e-16 -9.229285177963934e-16 -1.0
  outer loop
    vertex -1.0 0.7999999999999995 -7.219114195322618e-16
    vertex -1.5999999999999992 0.44999999999999785 0.0
    vertex -1.5999999999999992 0.7999999999999995 -7.219114195322618e-16
  endloop
endfacet
facet normal -4.003551104736668e-16 -9.229285177963934e-16 -1.0
  outer loop
    vertex -1.5999999999999992 0.44999999999999785 0.0
    vertex -1.0 0.7999999999999995 -7.219114195322618e-16
    vertex -1.483531429703865 0.4346666218300809 0.0
  endloop
endfacet
facet normal -4.003551104736668e-16 -9.229285177963934e-16 -1.0
  outer loop
    vertex -1.483531429703865 0.4346666218300809 0.0
    vertex -1.0 0.7999999999999995 -7.219114195322618e-16
    vertex -1.375 0.38971143170299766 -7.219114195322618e-16
  endloop
endfacet
facet normal -4.003551104736668e-16 -9.229285177963934e-16 -1.0
  outer loop
    vertex -1.375 0.38971143170299766 -7.219114195322618e-16
    vertex -1.0 0.7999999999999995 -7.219114195322618e-16
    vertex -1.2818019484660539 0.3181980515339467 -7.219114195322618e-16
  endloop
endfacet
facet normal -4.003551104736668e-16 -9.229285177963934e-16 -1.0
  outer loop
    vertex -1.2818019484660539 0.3181980515339467 -7.219114195322618e-16
    vertex -1.0 0.7999999999999995 -7.219114195322618e-16
    vertex -1.2102885682970028 0.22499999999999842 0.0
  endloop
endfacet
facet normal -4.003551104736668e-16 -9.229285177963934e-16 -1.0
  outer loop
    vertex -1.2102885682970028 0.22499999999999842 0.0
    vertex -1.0 0.7999999999999995 -7.219114195322618e-16
    vertex -1.1653333781699189 0.11646857029613324 0.0
  endloop
endfacet
facet normal -4.003551104736668e-16 -9.229285177963934e-16 -1.0
  outer loop
    vertex -1.1653333781699189 0.11646857029613324 0.0
    vertex -1.0 0.7999999999999995 -7.219114195322618e-16
    vertex -1.15 4.963141009284299e-16 0.0
  endloop
endfacet
facet normal -4.003551104736668e-16 -9.229285177963934e-16 -1.0
  outer loop
    vertex -1.483531429703865 -0.4346666218300795 7.219114195322618e-16
    vertex -1.5999999999999992 -0.7999999999999972 7.219114195322618e-16
    vertex -1.5999999999999992 -0.4499999999999993 7.219114195322618e-16
  endloop
endfacet
facet normal -4.003551104736668e-16 -9.229285177963934e-16 -1.0
  outer loop
    vertex -1.5999999999999992 -0.7999999999999972 7.219114195322618e-16
    vertex -1.483531429703865 -0.4346666218300795 7.219114195322618e-16
    vertex -1.0 -0.49999999999999856 4.511946372076636e-16
  endloop
endfacet
facet normal -4.003551104736668e-16 -9.229285177963934e-16 -1.0
  outer loop
    vertex -1.0 -0.49999999999999856 4.511946372076636e-16
    vertex -1.483531429703865 -0.4346666218300795 7.219114195322618e-16
    vertex -1.375 -0.3897114317029965 0.0
  endloop
endfacet
facet normal -4.003551104736668e-16 -9.229285177963934e-16 -1.0
  outer loop
    vertex -1.0 -0.49999999999999856 4.511946372076636e-16
    vertex -1.375 -0.3897114317029965 0.0
    vertex -1.2818019484660539 -0.318198051533947 7.219114195322618e-16
  endloop
endfacet
facet normal -4.003551104736668e-16 -9.229285177963934e-16 -1.0
  outer loop
    vertex -1.0 -0.49999999999999856 4.511946372076636e-16
    vertex -1.2818019484660539 -0.318198051533947 7.219114195322618e-16
    vertex -1.2102885682970028 -0.2249999999999985 0.0
  endloop
endfacet
facet normal -4.003551104736668e-16 -9.229285177963934e-16 -1.0
  outer loop
    vertex -1.0 -0.49999999999999856 4.511946372076636e-16
    vertex -1.2102885682970028 -0.2249999999999985 0.0
    vertex -1.1653333781699189 -0.1164685702961337 0.0
  endloop
endfacet
facet normal -4.003551104736668e-16 -9.229285177963934e-16 -1.0
  outer loop
    vertex -1.0 -0.49999999999999856 4.511946372076636e-16
    vertex -1.1653333781699189 -0.1164685702961337 0.0
    vertex -1.15 4.963141009284299e-16 0.0
  endloop
endfacet
facet normal -4.003551104736668e-16 -9.229285177963934e-16 -1.0
  outer loop
    vertex -1.0 -0.49999999999999856 4.511946372076636e-16
    vertex -1.15 4.963141009284299e-16 0.0
    vertex -1.0 0.7999999999999995 -7.219114195322618e-16
  endloop
endfacet
facet normal 0.0 -1.0 6.015928496102155e-15
  outer loop
    vertex -1.0 -0.7999999999999942 0.4800000000000029
    vertex -1.5999999999999992 -0.7999999999999972 7.219114195322618e-16
    vertex -1.0 -0.7999999999999972 7.219114195322618e-16
  endloop
endfacet
facet normal 0.0 -1.0 6.015928496102155e-15
  outer loop
    vertex -1.5999999999999992 -0.7999999999999972 7.219114195322618e-16
    vertex -1.0 -0.7999999999999942 0.4800000000000029
    vertex -1.5999999999999992 -0.7999999999999942 0.4800000000000029
  endloop
endfacet
facet normal 8.323065069449459e-19 -9.282485874521646e-16 -1.0
  outer loop
    vertex -1.0 0.7999999999999995 -7.219114195322618e-16
    vertex -0.9500000000000005 0.7500000000000007 -7.219114195322618e-16
    vertex -1.0 -0.49999999999999856 4.511946372076636e-16
  endloop
endfacet
facet normal 8.323065069449459e-19 -9.282485874521646e-16 -1.0
  outer loop
    vertex -0.9500000000000005 0.7500000000000007 -7.219114195322618e-16
    vertex -1.0 0.7999999999999995 -7.219114195322618e-16
    vertex 1.0000000000000013 0.7999999999999995 -7.219114195322618e-16
  endloop
endfacet
facet normal 8.323065069449459e-19 -9.282485874521646e-16 -1.0
  outer loop
    vertex -0.9500000000000005 0.7500000000000007 -7.219114195322618e-16
    vertex 1.0000000000000013 0.7999999999999995 -7.219114195322618e-16
    vertex 0.9500000000000013 0.7500000000000007 -7.219114195322618e-16
  endloop
endfacet
facet normal 8.323065069449459e-19 -9.282485874521646e-16 -1.0
  outer loop
    vertex 0.9500000000000013 0.7500000000000007 -7.219114195322618e-16
    vertex 1.0000000000000013 0.7999999999999995 -7.219114195322618e-16
    vertex 0.9500000000000013 0.4749999999999992 -4.511946372076636e-16
  endloop
endfacet
facet normal 8.323065069449459e-19 -9.282485874521646e-16 -1.0
  outer loop
    vertex 0.9500000000000013 0.4749999999999992 -4.511946372076636e-16
    vertex 1.0000000000000013 0.7999999999999995 -7.219114195322618e-16
    vertex 1.0000000000000013 0.4999999999999991 -4.511946372076636e-16
  endloop
endfacet
facet normal 8.323065069449459e-19 -9.282485874521646e-16 -1.0
  outer loop
    vertex -0.9500000000000002 -0.47499999999999865 4.511946372076636e-16
    vertex -1.0 -0.49999999999999856 4.511946372076636e-16
    vertex -0.9500000000000005 0.7500000000000007 -7.219114195322618e-16
  endloop
endfacet
facet normal 0.0 -9.023892744153265e-16 -1.0
  outer loop
    vertex 1.6000000000000003 0.7999999999999995 -7.219114195322618e-16
    vertex 1.0000000000000013 0.4999999999999991 -4.511946372076636e-16
    vertex 1.0000000000000013 0.7999999999999995 -7.219114195322618e-16
  endloop
endfacet
facet normal -0.0 1.0 -0.0
  outer loop
    vertex -1.0 0.7999999999999995 0.4800000000000015
    vertex 1.0000000000000013 0.7999999999999995 -7.219114195322618e-16
    vertex -1.0 0.7999999999999995 -7.219114195322618e-16
  endloop
endfacet
facet normal -0.0 1.0 -0.0
  outer loop
    vertex 1.0000000000000013 0.7999999999999995 -7.219114195322618e-16
    vertex -1.0 0.7999999999999995 0.4800000000000015
    vertex 1.0000000000000013 0.7999999999999995 0.4800000000000015
  endloop
endfacet
facet normal -2.084624390604852e-33 9.023892744153306e-16 1.0
  outer loop
    vertex 1.0000000000000007 -0.7999999999999942 0.4800000000000029
    vertex -1.0 0.7999999999999995 0.4800000000000015
    vertex -1.0 -0.7999999999999942 0.4800000000000029
  endloop
endfacet
facet normal -2.084624390604852e-33 9.023892744153306e-16 1.0
  outer loop
    vertex -1.0 0.7999999999999995 0.4800000000000015
    vertex 1.0000000000000007 -0.7999999999999942 0.4800000000000029
    vertex 1.0000000000000013 0.7999999999999995 0.4800000000000015
  endloop
endfacet
facet normal 1.5682938123746133e-32 -1.0 6.015928496102155e-15
  outer loop
    vertex 1.6000000000000003 -0.7999999999999942 0.4800000000000029
    vertex 1.0000000000000013 -0.7999999999999972 7.219114195322618e-16
    vertex 1.6000000000000003 -0.7999999999999972 7.219114195322618e-16
  endloop
endfacet
facet normal 1.5682938123746133e-32 -1.0 6.015928496102155e-15
  outer loop
    vertex 1.0000000000000013 -0.7999999999999972 7.219114195322618e-16
    vertex 1.6000000000000003 -0.7999999999999942 0.4800000000000029
    vertex 1.0000000000000007 -0.7999999999999942 0.4800000000000029
  endloop
endfacet
facet normal 1.0 -2.1180775145200822e-16 6.784467038697119e-16
  outer loop
    vertex 1.0000000000000013 0.4999999999999991 -4.511946372076636e-16
    vertex 1.0000000000000007 -0.7999999999999942 0.4800000000000029
    vertex 1.0000000000000013 -0.7999999999999972 7.219114195322618e-16
  endloop
endfacet
facet normal 1.0 -2.1180775145200822e-16 6.784467038697119e-16
  outer loop
    vertex 1.0000000000000007 -0.7999999999999942 0.4800000000000029
    vertex 1.0000000000000013 0.4999999999999991 -4.511946372076636e-16
    vertex 1.0000000000000013 0.7999999999999995 0.4800000000000015
  endloop
endfacet
facet normal 1.0 -2.1180775145200822e-16 6.784467038697119e-16
  outer loop
    vertex 1.0000000000000013 0.7999999999999995 0.4800000000000015
    vertex 1.0000000000000013 0.4999999999999991 -4.511946372076636e-16
    vertex 1.0000000000000013 0.7999999999999995 -7.219114195322618e-16
  endloop
endfacet
facet normal -0.0 1.0 -0.0
  outer loop
    vertex -1.5999999999999992 0.7999999999999995 0.4800000000000015
    vertex -1.0 0.7999999999999995 -7.219114195322618e-16
    vertex -1.5999999999999992 0.7999999999999995 -7.219114195322618e-16
  endloop
endfacet
facet normal -0.0 1.0 -0.0
  outer loop
    vertex -1.0 0.7999999999999995 -7.219114195322618e-16
    vertex -1.5999999999999992 0.7999999999999995 0.4800000000000015
    vertex -1.0 0.7999999999999995 0.4800000000000015
  endloop
endfacet
facet normal 6.257588391051817e-16 7.625009353098134e-16 1.0
  outer loop
    vertex -1.0 -0.7999999999999942 0.4800000000000029
    vertex -1.5999999999999992 -0.4499999999999993 0.4800000000000029
    vertex -1.5999999999999992 -0.7999999999999942 0.4800000000000029
  endloop
endfacet
facet normal 6.257588391051817e-16 7.625009353098134e-16 1.0
  outer loop
    vertex -1.5999999999999992 -0.4499999999999993 0.4800000000000029
    vertex -1.0 -0.7999999999999942 0.4800000000000029
    vertex -1.483531429703865 -0.4346666218300795 0.4800000000000029
  endloop
endfacet
facet normal 6.257588391051817e-16 7.625009353098134e-16 1.0
  outer loop
    vertex -1.483531429703865 -0.4346666218300795 0.4800000000000029
    vertex -1.0 -0.7999999999999942 0.4800000000000029
    vertex -1.375 -0.3897114317029965 0.4800000000000022
  endloop
endfacet
facet normal 6.257588391051817e-16 7.625009353098134e-16 1.0
  outer loop
    vertex -1.375 -0.3897114317029965 0.4800000000000022
    vertex -1.0 -0.7999999999999942 0.4800000000000029
    vertex -1.2818019484660539 -0.318198051533947 0.4800000000000022
  endloop
endfacet
facet normal 6.257588391051817e-16 7.625009353098134e-16 1.0
  outer loop
    vertex -1.2818019484660539 -0.318198051533947 0.4800000000000022
    vertex -1.0 -0.7999999999999942 0.4800000000000029
    vertex -1.2102885682970028 -0.2249999999999985 0.4800000000000022
  endloop
endfacet
facet normal 6.257588391051817e-16 7.625009353098134e-16 1.0
  outer loop
    vertex -1.2102885682970028 -0.2249999999999985 0.4800000000000022
    vertex -1.0 -0.7999999999999942 0.4800000000000029
    vertex -1.1653333781699189 -0.1164685702961337 0.4800000000000022
  endloop
endfacet
facet normal 6.257588391051817e-16 7.625009353098134e-16 1.0
  outer loop
    vertex -1.1653333781699189 -0.1164685702961337 0.4800000000000022
    vertex -1.0 -0.7999999999999942 0.4800000000000029
    vertex -1.15 4.963141009284299e-16 0.4800000000000022
  endloop
endfacet
facet normal 6.257588391051817e-16 7.625009353098134e-16 1.0
  outer loop
    vertex -1.483531429703865 0.4346666218300809 0.4800000000000022
    vertex -1.5999999999999992 0.7999999999999995 0.4800000000000015
    vertex -1.5999999999999992 0.45000000000000073 0.4800000000000022
  endloop
endfacet
facet normal 6.257588391051817e-16 7.625009353098134e-16 1.0
  outer loop
    vertex -1.5999999999999992 0.7999999999999995 0.4800000000000015
    vertex -1.483531429703865 0.4346666218300809 0.4800000000000022
    vertex -1.0 0.7999999999999995 0.4800000000000015
  endloop
endfacet
facet normal 6.257588391051817e-16 7.625009353098134e-16 1.0
  outer loop
    vertex -1.0 0.7999999999999995 0.4800000000000015
    vertex -1.483531429703865 0.4346666218300809 0.4800000000000022
    vertex -1.375 0.38971143170299766 0.4800000000000022
  endloop
endfacet
facet normal 6.257588391051817e-16 7.625009353098134e-16 1.0
  outer loop
    vertex -1.0 0.7999999999999995 0.4800000000000015
    vertex -1.375 0.38971143170299766 0.4800000000000022
    vertex -1.2818019484660539 0.3181980515339467 0.4800000000000022
  endloop
endfacet
facet normal 6.257588391051817e-16 7.625009353098134e-16 1.0
  outer loop
    vertex -1.0 0.7999999999999995 0.4800000000000015
    vertex -1.2818019484660539 0.3181980515339467 0.4800000000000022
    vertex -1.2102885682970028 0.2250000000000013 0.4800000000000022
  endloop
endfacet
facet normal 6.257588391051817e-16 7.625009353098134e-16 1.0
  outer loop
    vertex -1.0 0.7999999999999995 0.4800000000000015
    vertex -1.2102885682970028 0.2250000000000013 0.4800000000000022
    vertex -1.1653333781699189 0.11646857029613324 0.4800000000000015
  endloop
endfacet
facet normal 6.257588391051817e-16 7.625009353098134e-16 1.0
  outer loop
    vertex -1.0 0.7999999999999995 0.4800000000000015
    vertex -1.1653333781699189 0.11646857029613324 0.4800000000000015
    vertex -1.15 4.963141009284299e-16 0.4800000000000022
  endloop
endfacet
facet normal 6.257588391051817e-16 7.625009353098134e-16 1.0
  outer loop
    vertex -1.0 0.7999999999999995 0.4800000000000015
    vertex -1.15 4.963141009284299e-16 0.4800000000000022
    vertex -1.0 -0.7999999999999942 0.4800000000000029
  endloop
endfacet
facet normal 1.5200386181488696e-32 -1.0 6.015928496102155e-15
  outer loop
    vertex 1.0000000000000007 -0.7999999999999942 0.4800000000000029
    vertex -1.0 -0.7999999999999972 7.219114195322618e-16
    vertex 1.0000000000000013 -0.7999999999999972 7.219114195322618e-16
  endloop
endfacet
facet normal 1.5200386181488696e-32 -1.0 6.015928496102155e-15
  outer loop
    vertex -1.0 -0.7999999999999972 7.219114195322618e-16
    vertex 1.0000000000000007 -0.7999999999999942 0.4800000000000029
    vertex -1.0 -0.7999999999999942 0.4800000000000029
  endloop
endfacet
facet normal -1.0 0.0 0.0
  outer loop
    vertex -1.0 -0.7999999999999942 0.4800000000000029
    vertex -1.0 -0.49999999999999856 4.511946372076636e-16
    vertex -1.0 -0.7999999999999972 7.219114195322618e-16
  endloop
endfacet
facet normal -1.0 0.0 0.0
  outer loop
    vertex -1.0 -0.49999999999999856 4.511946372076636e-16
    vertex -1.0 -0.7999999999999942 0.4800000000000029
    vertex -1.0 0.7999999999999995 0.4800000000000015
  endloop
endfacet
facet normal -1.0 0.0 0.0
  outer loop
    vertex -1.0 -0.49999999999999856 4.511946372076636e-16
    vertex -1.0 0.7999999999999995 0.4800000000000015
    vertex -1.0 0.7999999999999995 -7.219114195322618e-16
  endloop
endfacet
facet normal 0.0 -1.0 4.657493029240405e-15
  outer loop
    vertex 0.9500000000000013 -0.749999999999994 7.219114195322618e-16
    vertex -0.9500000000000005 -0.7499999999999969 -0.6199999999999983
    vertex 0.9500000000000013 -0.7499999999999969 -0.6199999999999983
  endloop
endfacet
facet normal 0.0 -1.0 4.657493029240405e-15
  outer loop
    vertex -0.9500000000000005 -0.7499999999999969 -0.6199999999999983
    vertex 0.9500000000000013 -0.749999999999994 7.219114195322618e-16
    vertex -0.9500000000000005 -0.749999999999994 7.219114195322618e-16
  endloop
endfacet
facet normal -1.0 -4.761783360914083e-17 1.8190174129128424e-16
  outer loop
    vertex -0.9500000000000005 -0.749999999999994 7.219114195322618e-16
    vertex -0.9500000000000005 0.7499999999999992 -0.620000000000002
    vertex -0.9500000000000005 -0.7499999999999969 -0.6199999999999983
  endloop
endfacet
facet normal -1.0 -4.761783360914083e-17 1.8190174129128424e-16
  outer loop
    vertex -0.9500000000000005 0.7499999999999992 -0.620000000000002
    vertex -0.9500000000000005 -0.749999999999994 7.219114195322618e-16
    vertex -0.9500000000000002 -0.47499999999999865 4.511946372076636e-16
  endloop
endfacet
facet normal -1.0 -4.761783360914083e-17 1.8190174129128424e-16
  outer loop
    vertex -0.9500000000000005 0.7499999999999992 -0.620000000000002
    vertex -0.9500000000000002 -0.47499999999999865 4.511946372076636e-16
    vertex -0.9500000000000005 0.7500000000000007 -7.219114195322618e-16
  endloop
endfacet
facet normal 3.7995337870119004e-16 1.0 -3.493119771930292e-15
  outer loop
    vertex -0.9500000000000005 0.7500000000000007 -7.219114195322618e-16
    vertex 0.9500000000000013 0.7499999999999978 -0.620000000000002
    vertex -0.9500000000000005 0.7499999999999992 -0.620000000000002
  endloop
endfacet
facet normal 3.7995337870119004e-16 1.0 -3.493119771930292e-15
  outer loop
    vertex 0.9500000000000013 0.7499999999999978 -0.620000000000002
    vertex -0.9500000000000005 0.7500000000000007 -7.219114195322618e-16
    vertex 0.9500000000000013 0.7500000000000007 -7.219114195322618e-16
  endloop
endfacet
facet normal 1.0 -0.0 -0.0
  outer loop
    vertex 0.9500000000000013 0.7499999999999978 -0.620000000000002
    vertex 0.9500000000000013 -0.749999999999994 7.219114195322618e-16
    vertex 0.9500000000000013 -0.7499999999999969 -0.6199999999999983
  endloop
endfacet
facet normal 1.0 -0.0 -0.0
  outer loop
    vertex 0.9500000000000013 -0.749999999999994 7.219114195322618e-16
    vertex 0.9500000000000013 0.7499999999999978 -0.620000000000002
    vertex 0.9500000000000013 0.4749999999999992 -4.511946372076636e-16
  endloop
endfacet
facet normal 1.0 -0.0 -0.0
  outer loop
    vertex 0.9500000000000013 0.4749999999999992 -4.511946372076636e-16
    vertex 0.9500000000000013 0.7499999999999978 -0.620000000000002
    vertex 0.9500000000000013 0.7500000000000007 -7.219114195322618e-16
  endloop
endfacet
facet normal 3.490783327935388e-16 -8.687420102634057e-16 -1.0
  outer loop
    vertex 1.0000000000000013 0.4999999999999991 -4.511946372076636e-16
    vertex 1.1653333781699202 0.11646857029613324 0.0
    vertex 1.0000000000000013 -0.7999999999999972 7.219114195322618e-16
  endloop
endfacet
facet normal 3.490783327935388e-16 -8.687420102634057e-16 -1.0
  outer loop
    vertex 1.1653333781699202 0.11646857029613324 0.0
    vertex 1.0000000000000013 0.4999999999999991 -4.511946372076636e-16
    vertex 1.2102885682970035 0.22499999999999842 0.0
  endloop
endfacet
facet normal 3.490783327935388e-16 -8.687420102634057e-16 -1.0
  outer loop
    vertex 1.2102885682970035 0.22499999999999842 0.0
    vertex 1.0000000000000013 0.4999999999999991 -4.511946372076636e-16
    vertex 1.6000000000000003 0.7999999999999995 -7.219114195322618e-16
  endloop
endfacet
facet normal 3.490783327935388e-16 -8.687420102634057e-16 -1.0
  outer loop
    vertex 1.0000000000000013 -0.7999999999999972 7.219114195322618e-16
    vertex 1.1653333781699202 0.11646857029613324 0.0
    vertex 1.1500000000000006 4.963141009284299e-16 0.0
  endloop
endfacet
facet normal 3.490783327935388e-16 -8.687420102634057e-16 -1.0
  outer loop
    vertex 1.2102885682970035 0.22499999999999842 0.0
    vertex 1.6000000000000003 0.7999999999999995 -7.219114195322618e-16
    vertex 1.2818019484660539 0.3181980515339467 0.0
  endloop
endfacet
facet normal 3.490783327935388e-16 -8.687420102634057e-16 -1.0
  outer loop
    vertex 1.2818019484660539 0.3181980515339467 0.0
    vertex 1.6000000000000003 0.7999999999999995 -7.219114195322618e-16
    vertex 1.3750000000000007 0.38971143170299766 -7.219114195322618e-16
  endloop
endfacet
facet normal 3.490783327935388e-16 -8.687420102634057e-16 -1.0
  outer loop
    vertex 1.3750000000000007 0.38971143170299766 -7.219114195322618e-16
    vertex 1.6000000000000003 0.7999999999999995 -7.219114195322618e-16
    vertex 1.4835314297038646 0.4346666218300809 0.0
  endloop
endfacet
facet normal 3.490783327935388e-16 -8.687420102634057e-16 -1.0
  outer loop
    vertex 1.4835314297038646 0.4346666218300809 0.0
    vertex 1.6000000000000003 0.7999999999999995 -7.219114195322618e-16
    vertex 1.6000000000000003 0.44999999999999785 0.0
  endloop
endfacet
facet normal 3.490783327935388e-16 -8.687420102634057e-16 -1.0
  outer loop
    vertex 1.0000000000000013 -0.7999999999999972 7.219114195322618e-16
    vertex 1.2102885682970035 -0.2249999999999985 0.0
    vertex 1.6000000000000003 -0.7999999999999972 7.219114195322618e-16
  endloop
endfacet
facet normal 3.490783327935388e-16 -8.687420102634057e-16 -1.0
  outer loop
    vertex 1.2102885682970035 -0.2249999999999985 0.0
    vertex 1.0000000000000013 -0.7999999999999972 7.219114195322618e-16
    vertex 1.1653333781699202 -0.1164685702961337 0.0
  endloop
endfacet
facet normal 3.490783327935388e-16 -8.687420102634057e-16 -1.0
  outer loop
    vertex 1.1653333781699202 -0.1164685702961337 0.0
    vertex 1.0000000000000013 -0.7999999999999972 7.219114195322618e-16
    vertex 1.1500000000000006 4.963141009284299e-16 0.0
  endloop
endfacet
facet normal 3.490783327935388e-16 -8.687420102634057e-16 -1.0
  outer loop
    vertex 1.6000000000000003 -0.7999999999999972 7.219114195322618e-16
    vertex 1.2102885682970035 -0.2249999999999985 0.0
    vertex 1.2818019484660539 -0.318198051533947 7.219114195322618e-16
  endloop
endfacet
facet normal 3.490783327935388e-16 -8.687420102634057e-16 -1.0
  outer loop
    vertex 1.6000000000000003 -0.7999999999999972 7.219114195322618e-16
    vertex 1.2818019484660539 -0.318198051533947 7.219114195322618e-16
    vertex 1.3750000000000007 -0.3897114317029965 0.0
  endloop
endfacet
facet normal 3.490783327935388e-16 -8.687420102634057e-16 -1.0
  outer loop
    vertex 1.6000000000000003 -0.7999999999999972 7.219114195322618e-16
    vertex 1.3750000000000007 -0.3897114317029965 0.0
    vertex 1.4835314297038646 -0.4346666218300795 7.219114195322618e-16
  endloop
endfacet
facet normal 3.490783327935388e-16 -8.687420102634057e-16 -1.0
  outer loop
    vertex 1.6000000000000003 -0.7999999999999972 7.219114195322618e-16
    vertex 1.4835314297038646 -0.4346666218300795 7.219114195322618e-16
    vertex 1.6000000000000003 -0.4499999999999993 7.219114195322618e-16
  endloop
endfacet
facet normal -6.22646422149219e-32 -9.023892744153316e-16 -1.0
  outer loop
    vertex -1.0 -0.7999999999999972 7.219114195322618e-16
    vertex -1.5999999999999992 -0.7999999999999972 7.219114195322618e-16
    vertex -1.0 -0.49999999999999856 4.511946372076636e-16
  endloop
endfacet
facet normal 8.323065069456525e-19 -9.282485874521677e-16 -1.0
  outer loop
    vertex -0.9500000000000002 -0.47499999999999865 4.511946372076636e-16
    vertex -1.0 -0.7999999999999972 7.219114195322618e-16
    vertex -1.0 -0.49999999999999856 4.511946372076636e-16
  endloop
endfacet
facet normal 8.323065069456525e-19 -9.282485874521677e-16 -1.0
  outer loop
    vertex -1.0 -0.7999999999999972 7.219114195322618e-16
    vertex -0.9500000000000002 -0.47499999999999865 4.511946372076636e-16
    vertex -0.9500000000000005 -0.749999999999994 7.219114195322618e-16
  endloop
endfacet
facet normal 8.323065069456525e-19 -9.282485874521677e-16 -1.0
  outer loop
    vertex 1.0000000000000013 0.4999999999999991 -4.511946372076636e-16
    vertex 0.9500000000000013 -0.749999999999994 7.219114195322618e-16
    vertex 0.9500000000000013 0.4749999999999992 -4.511946372076636e-16
  endloop
endfacet
facet normal 8.323065069456525e-19 -9.282485874521677e-16 -1.0
  outer loop
    vertex -0.9500000000000005 -0.749999999999994 7.219114195322618e-16
    vertex 1.0000000000000013 -0.7999999999999972 7.219114195322618e-16
    vertex -1.0 -0.7999999999999972 7.219114195322618e-16
  endloop
endfacet
facet normal 8.323065069456525e-19 -9.282485874521677e-16 -1.0
  outer loop
    vertex 1.0000000000000013 -0.7999999999999972 7.219114195322618e-16
    vertex -0.9500000000000005 -0.749999999999994 7.219114195322618e-16
    vertex 0.9500000000000013 -0.749999999999994 7.219114195322618e-16
  endloop
endfacet
facet normal 8.323065069456525e-19 -9.282485874521677e-16 -1.0
  outer loop
    vertex 1.0000000000000013 -0.7999999999999972 7.219114195322618e-16
    vertex 0.9500000000000013 -0.749999999999994 7.219114195322618e-16
    vertex 1.0000000000000013 0.4999999999999991 -4.511946372076636e-16
  endloop
endfacet
facet normal 1.8619080955629675e-18 -9.610548953263563e-16 -1.0
  outer loop
    vertex 0.9500000000000013 0.7500000000000007 -7.219114195322618e-16
    vertex -0.9500000000000002 -0.47499999999999865 4.511946372076636e-16
    vertex -0.9500000000000005 0.7500000000000007 -7.219114195322618e-16
  endloop
endfacet
facet normal 1.8619080955629675e-18 -9.610548953263563e-16 -1.0
  outer loop
    vertex -0.9500000000000002 -0.47499999999999865 4.511946372076636e-16
    vertex 0.9500000000000013 -0.749999999999994 7.219114195322618e-16
    vertex -0.9500000000000005 -0.749999999999994 7.219114195322618e-16
  endloop
endfacet
facet normal 1.8619080955629675e-18 -9.610548953263563e-16 -1.0
  outer loop
    vertex 0.9500000000000013 -0.749999999999994 7.219114195322618e-16
    vertex -0.9500000000000002 -0.47499999999999865 4.511946372076636e-16
    vertex 0.9500000000000013 0.7500000000000007 -7.219114195322618e-16
  endloop
endfacet
facet normal 1.8619080955629675e-18 -9.610548953263563e-16 -1.0
  outer loop
    vertex 0.9500000000000013 -0.749999999999994 7.219114195322618e-16
    vertex 0.9500000000000013 0.7500000000000007 -7.219114195322618e-16
    vertex 0.9500000000000013 0.4749999999999992 -4.511946372076636e-16
  endloop
endfacet
facet normal -9.778293540415572e-31 -2.40637139844088e-15 -1.0
  outer loop
    vertex 0.9500000000000013 0.7499999999999978 -0.620000000000002
    vertex -0.9500000000000005 -0.7499999999999969 -0.6199999999999983
    vertex -0.9500000000000005 0.7499999999999992 -0.620000000000002
  endloop
endfacet
facet normal -9.778293540415572e-31 -2.40637139844088e-15 -1.0
  outer loop
    vertex -0.9500000000000005 -0.7499999999999969 -0.6199999999999983
    vertex 0.9500000000000013 0.7499999999999978 -0.620000000000002
    vertex 0.9500000000000013 -0.7499999999999969 -0.6199999999999983
  endloop
endfacet
endsolid LED-1206-BOTTOM
