solid QFN-10-RSE
facet normal -0.0 -0.0 1.0
  outer loop
    vertex 1.0250000000000004 -0.8593894603985609 0.7
    vertex -1.0249999999999992 0.6906105396014394 0.7
    vertex -1.0249999999999992 -0.8593894603985609 0.7
  endloop
endfacet
facet normal -0.0 -0.0 1.0
  outer loop
    vertex -1.0249999999999992 0.6906105396014394 0.7
    vertex 1.0250000000000004 -0.8593894603985609 0.7
    vertex 1.025 0.6906105396014394 0.7
  endloop
endfacet
facet normal 1.0 2.361311550258503e-16 8.160437644255791e-17
  outer loop
    vertex 1.0250000000000004 -0.175 0.025
    vertex 1.0250000000000004 -0.8593894603985609 0.7
    vertex 1.0250000000000004 -0.8593894603985609 0.025
  endloop
endfacet
facet normal 1.0 2.361311550258503e-16 8.160437644255791e-17
  outer loop
    vertex 1.0250000000000004 -0.8593894603985609 0.7
    vertex 1.0250000000000004 -0.175 0.025
    vertex 1.025 0.6906105396014394 0.7
  endloop
endfacet
facet normal 1.0 2.361311550258503e-16 8.160437644255791e-17
  outer loop
    vertex 1.025 0.6906105396014394 0.7
    vertex 1.0250000000000004 -0.175 0.025
    vertex 1.0250000000000001 0.17500000000000046 0.025
  endloop
endfacet
facet normal 1.0 2.361311550258503e-16 8.160437644255791e-17
  outer loop
    vertex 1.025 0.6906105396014394 0.7
    vertex 1.0250000000000001 0.17500000000000046 0.025
    vertex 1.025 0.6906105396014394 0.025
  endloop
endfacet
facet normal -1.0 0.0 0.0
  outer loop
    vertex -1.0249999999999992 0.6906105396014394 0.7
    vertex -1.0249999999999992 -0.8593894603985609 0.025
    vertex -1.0249999999999992 -0.8593894603985609 0.7
  endloop
endfacet
facet normal -1.0 0.0 0.0
  outer loop
    vertex -1.0249999999999992 -0.8593894603985609 0.025
    vertex -1.0249999999999992 0.6906105396014394 0.7
    vertex -1.0249999999999992 -0.175 0.025
  endloop
endfacet
facet normal -1.0 0.0 0.0
  outer loop
    vertex -1.0249999999999992 -0.175 0.025
    vertex -1.0249999999999992 0.6906105396014394 0.7
    vertex -1.0249999999999992 0.17500000000000046 0.025
  endloop
endfacet
facet normal -1.0 0.0 0.0
  outer loop
    vertex -1.0249999999999992 0.17500000000000046 0.025
    vertex -1.0249999999999992 0.6906105396014394 0.7
    vertex -1.0249999999999992 0.6906105396014394 0.025
  endloop
endfacet
facet normal 1.4894503679416094e-15 1.0 3.368919957817209e-15
  outer loop
    vertex -1.0249999999999992 0.6906105396014394 0.7
    vertex -0.9000000000000067 0.6906105396014415 0.025
    vertex -1.0249999999999992 0.6906105396014394 0.025
  endloop
endfacet
facet normal 1.4894503679416094e-15 1.0 3.368919957817209e-15
  outer loop
    vertex -0.9000000000000067 0.6906105396014415 0.025
    vertex -1.0249999999999992 0.6906105396014394 0.7
    vertex -0.6000000000000042 0.6906105396014472 0.025
  endloop
endfacet
facet normal 1.4894503679416094e-15 1.0 3.368919957817209e-15
  outer loop
    vertex -0.6000000000000042 0.6906105396014472 0.025
    vertex -1.0249999999999992 0.6906105396014394 0.7
    vertex -0.40000000000000396 0.6906105396014466 0.025
  endloop
endfacet
facet normal 1.4894503679416094e-15 1.0 3.368919957817209e-15
  outer loop
    vertex -0.40000000000000396 0.6906105396014466 0.025
    vertex -1.0249999999999992 0.6906105396014394 0.7
    vertex -0.1000000000000037 0.69061053960144 0.025
  endloop
endfacet
facet normal 1.4894503679416094e-15 1.0 3.368919957817209e-15
  outer loop
    vertex -0.1000000000000037 0.69061053960144 0.025
    vertex -1.0249999999999992 0.6906105396014394 0.7
    vertex 0.0999999999999953 0.6906105396014437 0.025
  endloop
endfacet
facet normal 1.4894503679416094e-15 1.0 3.368919957817209e-15
  outer loop
    vertex 0.0999999999999953 0.6906105396014437 0.025
    vertex -1.0249999999999992 0.6906105396014394 0.7
    vertex 0.3999999999999913 0.6906105396014411 0.025
  endloop
endfacet
facet normal 1.4894503679416094e-15 1.0 3.368919957817209e-15
  outer loop
    vertex 0.3999999999999913 0.6906105396014411 0.025
    vertex -1.0249999999999992 0.6906105396014394 0.7
    vertex 0.5999999999999928 0.6906105396014408 0.025
  endloop
endfacet
facet normal 1.4894503679416094e-15 1.0 3.368919957817209e-15
  outer loop
    vertex 0.5999999999999928 0.6906105396014408 0.025
    vertex -1.0249999999999992 0.6906105396014394 0.7
    vertex 0.899999999999988 0.6906105396014365 0.025
  endloop
endfacet
facet normal 1.4894503679416094e-15 1.0 3.368919957817209e-15
  outer loop
    vertex 0.899999999999988 0.6906105396014365 0.025
    vertex -1.0249999999999992 0.6906105396014394 0.7
    vertex 1.025 0.6906105396014394 0.025
  endloop
endfacet
facet normal 1.4894503679416094e-15 1.0 3.368919957817209e-15
  outer loop
    vertex 1.025 0.6906105396014394 0.025
    vertex -1.0249999999999992 0.6906105396014394 0.7
    vertex 1.025 0.6906105396014394 0.7
  endloop
endfacet
facet normal 0.0 0.0 -1.0
  outer loop
    vertex -0.40000000000000396 0.6906105396014466 0.025
    vertex -0.600000000000002 0.2906105396014438 0.025
    vertex -0.6000000000000042 0.6906105396014472 0.025
  endloop
endfacet
facet normal 0.0 0.0 -1.0
  outer loop
    vertex -0.600000000000002 0.2906105396014438 0.025
    vertex -0.40000000000000396 0.6906105396014466 0.025
    vertex -0.5749999999999996 0.17500000000000046 0.025
  endloop
endfacet
facet normal 0.0 0.0 -1.0
  outer loop
    vertex -0.5749999999999996 0.17500000000000046 0.025
    vertex -0.40000000000000396 0.6906105396014466 0.025
    vertex -0.5749999999999996 -0.175 0.025
  endloop
endfacet
facet normal 0.0 0.0 -1.0
  outer loop
    vertex -0.5749999999999996 -0.175 0.025
    vertex -0.40000000000000396 0.6906105396014466 0.025
    vertex -0.4000000000000047 0.2906105396014477 0.025
  endloop
endfacet
facet normal 0.0 0.0 -1.0
  outer loop
    vertex -0.10000000000000225 0.2906105396014438 0.025
    vertex -0.39999999999999963 -0.4593894603985608 0.025
    vertex -0.4000000000000047 0.2906105396014477 0.025
  endloop
endfacet
facet normal 0.0 0.0 -1.0
  outer loop
    vertex -0.39999999999999963 -0.4593894603985608 0.025
    vertex -0.10000000000000225 0.2906105396014438 0.025
    vertex -0.09999999999999973 -0.4593894603985608 0.025
  endloop
endfacet
facet normal 0.0 0.0 -1.0
  outer loop
    vertex -1.0249999999999992 -0.175 0.025
    vertex -0.8999999999999995 -0.4593894603985608 0.025
    vertex -1.0249999999999992 -0.8593894603985609 0.025
  endloop
endfacet
facet normal 0.0 0.0 -1.0
  outer loop
    vertex -0.8999999999999995 -0.4593894603985608 0.025
    vertex -1.0249999999999992 -0.175 0.025
    vertex -0.5749999999999996 -0.175 0.025
  endloop
endfacet
facet normal 0.0 0.0 -1.0
  outer loop
    vertex -0.8999999999999995 -0.4593894603985608 0.025
    vertex -0.5749999999999996 -0.175 0.025
    vertex -0.5999999999999999 -0.4593894603985608 0.025
  endloop
endfacet
facet normal 0.0 0.0 -1.0
  outer loop
    vertex -0.5999999999999999 -0.4593894603985608 0.025
    vertex -0.5749999999999996 -0.175 0.025
    vertex -0.5999999999999999 -0.8593894603985609 0.025
  endloop
endfacet
facet normal 0.0 0.0 -1.0
  outer loop
    vertex -0.5999999999999999 -0.8593894603985609 0.025
    vertex -0.5749999999999996 -0.175 0.025
    vertex -0.39999999999999963 -0.8593894603985609 0.025
  endloop
endfacet
facet normal 0.0 0.0 -1.0
  outer loop
    vertex -0.39999999999999963 -0.8593894603985609 0.025
    vertex -0.5749999999999996 -0.175 0.025
    vertex -0.4000000000000047 0.2906105396014477 0.025
  endloop
endfacet
facet normal 0.0 0.0 -1.0
  outer loop
    vertex -0.39999999999999963 -0.8593894603985609 0.025
    vertex -0.4000000000000047 0.2906105396014477 0.025
    vertex -0.39999999999999963 -0.4593894603985608 0.025
  endloop
endfacet
facet normal 0.0 0.0 -1.0
  outer loop
    vertex -0.9000000000000067 0.6906105396014415 0.025
    vertex -1.0249999999999992 0.17500000000000046 0.025
    vertex -1.0249999999999992 0.6906105396014394 0.025
  endloop
endfacet
facet normal 0.0 0.0 -1.0
  outer loop
    vertex -1.0249999999999992 0.17500000000000046 0.025
    vertex -0.9000000000000067 0.6906105396014415 0.025
    vertex -0.9000000000000038 0.29061053960144523 0.025
  endloop
endfacet
facet normal 0.0 0.0 -1.0
  outer loop
    vertex -1.0249999999999992 0.17500000000000046 0.025
    vertex -0.9000000000000038 0.29061053960144523 0.025
    vertex -0.5749999999999996 0.17500000000000046 0.025
  endloop
endfacet
facet normal 0.0 0.0 -1.0
  outer loop
    vertex -0.5749999999999996 0.17500000000000046 0.025
    vertex -0.9000000000000038 0.29061053960144523 0.025
    vertex -0.600000000000002 0.2906105396014438 0.025
  endloop
endfacet
facet normal 0.0 0.0 -1.0
  outer loop
    vertex 0.0999999999999953 0.6906105396014437 0.025
    vertex -0.10000000000000225 0.2906105396014438 0.025
    vertex -0.1000000000000037 0.69061053960144 0.025
  endloop
endfacet
facet normal 0.0 0.0 -1.0
  outer loop
    vertex -0.10000000000000225 0.2906105396014438 0.025
    vertex 0.0999999999999953 0.6906105396014437 0.025
    vertex -0.09999999999999973 -0.4593894603985608 0.025
  endloop
endfacet
facet normal 0.0 0.0 -1.0
  outer loop
    vertex -0.09999999999999973 -0.4593894603985608 0.025
    vertex 0.0999999999999953 0.6906105396014437 0.025
    vertex -0.09999999999999973 -0.8593894603985609 0.025
  endloop
endfacet
facet normal 0.0 0.0 -1.0
  outer loop
    vertex -0.09999999999999973 -0.8593894603985609 0.025
    vertex 0.0999999999999953 0.6906105396014437 0.025
    vertex 0.09999999999999241 0.2906105396014427 0.025
  endloop
endfacet
facet normal 0.0 0.0 -1.0
  outer loop
    vertex 1.025 0.6906105396014394 0.025
    vertex 0.8999999999999938 0.2906105396014409 0.025
    vertex 0.899999999999988 0.6906105396014365 0.025
  endloop
endfacet
facet normal 0.0 0.0 -1.0
  outer loop
    vertex 0.5999999999999928 0.6906105396014408 0.025
    vertex 0.3999999999999993 0.29061053960144195 0.025
    vertex 0.3999999999999913 0.6906105396014411 0.025
  endloop
endfacet
facet normal 0.0 0.0 -1.0
  outer loop
    vertex 0.3999999999999993 0.29061053960144195 0.025
    vertex 0.5999999999999928 0.6906105396014408 0.025
    vertex 0.40000000000000036 -0.4593894603985608 0.025
  endloop
endfacet
facet normal 0.0 0.0 -1.0
  outer loop
    vertex 0.40000000000000036 -0.4593894603985608 0.025
    vertex 0.5999999999999928 0.6906105396014408 0.025
    vertex 0.40000000000000036 -0.8593894603985609 0.025
  endloop
endfacet
facet normal 0.0 0.0 -1.0
  outer loop
    vertex 0.40000000000000036 -0.8593894603985609 0.025
    vertex 0.5999999999999928 0.6906105396014408 0.025
    vertex 0.5750000000000002 0.17500000000000046 0.025
  endloop
endfacet
facet normal 0.0 0.0 -1.0
  outer loop
    vertex 0.5750000000000002 0.17500000000000046 0.025
    vertex 0.5999999999999928 0.6906105396014408 0.025
    vertex 0.5999999999999942 0.29061053960144667 0.025
  endloop
endfacet
facet normal 0.0 0.0 -1.0
  outer loop
    vertex 0.5750000000000002 0.17500000000000046 0.025
    vertex 0.5999999999999942 0.29061053960144667 0.025
    vertex 1.0250000000000001 0.17500000000000046 0.025
  endloop
endfacet
facet normal 0.0 0.0 -1.0
  outer loop
    vertex 1.0250000000000001 0.17500000000000046 0.025
    vertex 0.5999999999999942 0.29061053960144667 0.025
    vertex 0.8999999999999938 0.2906105396014409 0.025
  endloop
endfacet
facet normal 0.0 0.0 -1.0
  outer loop
    vertex 1.0250000000000001 0.17500000000000046 0.025
    vertex 0.8999999999999938 0.2906105396014409 0.025
    vertex 1.025 0.6906105396014394 0.025
  endloop
endfacet
facet normal 0.0 0.0 -1.0
  outer loop
    vertex 1.0250000000000004 -0.175 0.025
    vertex 0.6000000000000003 -0.4593894603985608 0.025
    vertex 0.5750000000000002 -0.175 0.025
  endloop
endfacet
facet normal 0.0 0.0 -1.0
  outer loop
    vertex 0.6000000000000003 -0.4593894603985608 0.025
    vertex 1.0250000000000004 -0.175 0.025
    vertex 0.9000000000000004 -0.4593894603985608 0.025
  endloop
endfacet
facet normal 0.0 0.0 -1.0
  outer loop
    vertex 0.9000000000000004 -0.4593894603985608 0.025
    vertex 1.0250000000000004 -0.175 0.025
    vertex 0.9000000000000004 -0.8593894603985607 0.025
  endloop
endfacet
facet normal 0.0 0.0 -1.0
  outer loop
    vertex 0.9000000000000004 -0.8593894603985607 0.025
    vertex 1.0250000000000004 -0.175 0.025
    vertex 1.0250000000000004 -0.8593894603985609 0.025
  endloop
endfacet
facet normal 0.0 0.0 -1.0
  outer loop
    vertex 0.40000000000000036 -0.8593894603985609 0.025
    vertex 0.5750000000000002 -0.175 0.025
    vertex 0.6000000000000003 -0.8593894603985607 0.025
  endloop
endfacet
facet normal 0.0 0.0 -1.0
  outer loop
    vertex 0.5750000000000002 -0.175 0.025
    vertex 0.40000000000000036 -0.8593894603985609 0.025
    vertex 0.5750000000000002 0.17500000000000046 0.025
  endloop
endfacet
facet normal 0.0 0.0 -1.0
  outer loop
    vertex 0.6000000000000003 -0.8593894603985607 0.025
    vertex 0.5750000000000002 -0.175 0.025
    vertex 0.6000000000000003 -0.4593894603985608 0.025
  endloop
endfacet
facet normal 0.0 0.0 -1.0
  outer loop
    vertex 0.3999999999999993 0.29061053960144195 0.025
    vertex 0.10000000000000037 -0.4593894603985608 0.025
    vertex 0.09999999999999241 0.2906105396014427 0.025
  endloop
endfacet
facet normal 0.0 0.0 -1.0
  outer loop
    vertex 0.10000000000000037 -0.4593894603985608 0.025
    vertex 0.3999999999999993 0.29061053960144195 0.025
    vertex 0.40000000000000036 -0.4593894603985608 0.025
  endloop
endfacet
facet normal 0.0 0.0 -1.0
  outer loop
    vertex 0.09999999999999241 0.2906105396014427 0.025
    vertex 0.10000000000000037 -0.8593894603985609 0.025
    vertex -0.09999999999999973 -0.8593894603985609 0.025
  endloop
endfacet
facet normal 0.0 0.0 -1.0
  outer loop
    vertex 0.10000000000000037 -0.8593894603985609 0.025
    vertex 0.09999999999999241 0.2906105396014427 0.025
    vertex 0.10000000000000037 -0.4593894603985608 0.025
  endloop
endfacet
facet normal 0.0 0.0 -1.0
  outer loop
    vertex -0.8999999999999995 -0.8593894603985609 0.025
    vertex -1.0249999999999992 -0.8593894603985609 0.025
    vertex -0.8999999999999995 -0.4593894603985608 0.025
  endloop
endfacet
facet normal 0.0 0.0 -1.0
  outer loop
    vertex 0.9000000000000004 -0.4593894603985608 0.0
    vertex 0.6000000000000003 -0.8593894603985607 0.0
    vertex 0.6000000000000003 -0.4593894603985608 0.0
  endloop
endfacet
facet normal 0.0 0.0 -1.0
  outer loop
    vertex 0.6000000000000003 -0.8593894603985607 0.0
    vertex 0.9000000000000004 -0.4593894603985608 0.0
    vertex 0.9000000000000004 -0.8593894603985607 0.0
  endloop
endfacet
facet normal -0.0 1.0 -0.0
  outer loop
    vertex 0.6000000000000003 -0.4593894603985608 0.025
    vertex 0.9000000000000004 -0.4593894603985608 0.0
    vertex 0.6000000000000003 -0.4593894603985608 0.0
  endloop
endfacet
facet normal -0.0 1.0 -0.0
  outer loop
    vertex 0.9000000000000004 -0.4593894603985608 0.0
    vertex 0.6000000000000003 -0.4593894603985608 0.025
    vertex 0.9000000000000004 -0.4593894603985608 0.025
  endloop
endfacet
facet normal 1.0 -0.0 -0.0
  outer loop
    vertex 0.9000000000000004 -0.4593894603985608 0.0
    vertex 0.9000000000000004 -0.8593894603985607 0.025
    vertex 0.9000000000000004 -0.8593894603985607 0.0
  endloop
endfacet
facet normal 1.0 -0.0 -0.0
  outer loop
    vertex 0.9000000000000004 -0.8593894603985607 0.025
    vertex 0.9000000000000004 -0.4593894603985608 0.0
    vertex 0.9000000000000004 -0.4593894603985608 0.025
  endloop
endfacet
facet normal -1.0 0.0 0.0
  outer loop
    vertex 0.6000000000000003 -0.4593894603985608 0.025
    vertex 0.6000000000000003 -0.8593894603985607 0.0
    vertex 0.6000000000000003 -0.8593894603985607 0.025
  endloop
endfacet
facet normal -1.0 0.0 0.0
  outer loop
    vertex 0.6000000000000003 -0.8593894603985607 0.0
    vertex 0.6000000000000003 -0.4593894603985608 0.025
    vertex 0.6000000000000003 -0.4593894603985608 0.0
  endloop
endfacet
facet normal 0.0 0.0 -1.0
  outer loop
    vertex 0.40000000000000036 -0.4593894603985608 0.0
    vertex 0.10000000000000037 -0.8593894603985609 0.0
    vertex 0.10000000000000037 -0.4593894603985608 0.0
  endloop
endfacet
facet normal 0.0 0.0 -1.0
  outer loop
    vertex 0.10000000000000037 -0.8593894603985609 0.0
    vertex 0.40000000000000036 -0.4593894603985608 0.0
    vertex 0.40000000000000036 -0.8593894603985609 0.0
  endloop
endfacet
facet normal -0.0 1.0 -0.0
  outer loop
    vertex 0.10000000000000037 -0.4593894603985608 0.025
    vertex 0.40000000000000036 -0.4593894603985608 0.0
    vertex 0.10000000000000037 -0.4593894603985608 0.0
  endloop
endfacet
facet normal -0.0 1.0 -0.0
  outer loop
    vertex 0.40000000000000036 -0.4593894603985608 0.0
    vertex 0.10000000000000037 -0.4593894603985608 0.025
    vertex 0.40000000000000036 -0.4593894603985608 0.025
  endloop
endfacet
facet normal 1.0 -0.0 -0.0
  outer loop
    vertex 0.40000000000000036 -0.4593894603985608 0.0
    vertex 0.40000000000000036 -0.8593894603985609 0.025
    vertex 0.40000000000000036 -0.8593894603985609 0.0
  endloop
endfacet
facet normal 1.0 -0.0 -0.0
  outer loop
    vertex 0.40000000000000036 -0.8593894603985609 0.025
    vertex 0.40000000000000036 -0.4593894603985608 0.0
    vertex 0.40000000000000036 -0.4593894603985608 0.025
  endloop
endfacet
facet normal -1.0 0.0 0.0
  outer loop
    vertex 0.10000000000000037 -0.4593894603985608 0.025
    vertex 0.10000000000000037 -0.8593894603985609 0.0
    vertex 0.10000000000000037 -0.8593894603985609 0.025
  endloop
endfacet
facet normal -1.0 0.0 0.0
  outer loop
    vertex 0.10000000000000037 -0.8593894603985609 0.0
    vertex 0.10000000000000037 -0.4593894603985608 0.025
    vertex 0.10000000000000037 -0.4593894603985608 0.0
  endloop
endfacet
facet normal 0.0 0.0 -1.0
  outer loop
    vertex -0.09999999999999973 -0.4593894603985608 0.0
    vertex -0.39999999999999963 -0.8593894603985609 0.0
    vertex -0.39999999999999963 -0.4593894603985608 0.0
  endloop
endfacet
facet normal 0.0 0.0 -1.0
  outer loop
    vertex -0.39999999999999963 -0.8593894603985609 0.0
    vertex -0.09999999999999973 -0.4593894603985608 0.0
    vertex -0.09999999999999973 -0.8593894603985609 0.0
  endloop
endfacet
facet normal -0.0 1.0 -0.0
  outer loop
    vertex -0.39999999999999963 -0.4593894603985608 0.025
    vertex -0.09999999999999973 -0.4593894603985608 0.0
    vertex -0.39999999999999963 -0.4593894603985608 0.0
  endloop
endfacet
facet normal -0.0 1.0 -0.0
  outer loop
    vertex -0.09999999999999973 -0.4593894603985608 0.0
    vertex -0.39999999999999963 -0.4593894603985608 0.025
    vertex -0.09999999999999973 -0.4593894603985608 0.025
  endloop
endfacet
facet normal 1.0 -0.0 -0.0
  outer loop
    vertex -0.09999999999999973 -0.4593894603985608 0.0
    vertex -0.09999999999999973 -0.8593894603985609 0.025
    vertex -0.09999999999999973 -0.8593894603985609 0.0
  endloop
endfacet
facet normal 1.0 -0.0 -0.0
  outer loop
    vertex -0.09999999999999973 -0.8593894603985609 0.025
    vertex -0.09999999999999973 -0.4593894603985608 0.0
    vertex -0.09999999999999973 -0.4593894603985608 0.025
  endloop
endfacet
facet normal -1.0 0.0 0.0
  outer loop
    vertex -0.39999999999999963 -0.4593894603985608 0.025
    vertex -0.39999999999999963 -0.8593894603985609 0.0
    vertex -0.39999999999999963 -0.8593894603985609 0.025
  endloop
endfacet
facet normal -1.0 0.0 0.0
  outer loop
    vertex -0.39999999999999963 -0.8593894603985609 0.0
    vertex -0.39999999999999963 -0.4593894603985608 0.025
    vertex -0.39999999999999963 -0.4593894603985608 0.0
  endloop
endfacet
facet normal 0.0 0.0 -1.0
  outer loop
    vertex -0.5999999999999999 -0.4593894603985608 0.0
    vertex -0.8999999999999995 -0.8593894603985609 0.0
    vertex -0.8999999999999995 -0.4593894603985608 0.0
  endloop
endfacet
facet normal 0.0 0.0 -1.0
  outer loop
    vertex -0.8999999999999995 -0.8593894603985609 0.0
    vertex -0.5999999999999999 -0.4593894603985608 0.0
    vertex -0.5999999999999999 -0.8593894603985609 0.0
  endloop
endfacet
facet normal -1.0 0.0 0.0
  outer loop
    vertex -0.8999999999999995 -0.4593894603985608 0.025
    vertex -0.8999999999999995 -0.8593894603985609 0.0
    vertex -0.8999999999999995 -0.8593894603985609 0.025
  endloop
endfacet
facet normal -1.0 0.0 0.0
  outer loop
    vertex -0.8999999999999995 -0.8593894603985609 0.0
    vertex -0.8999999999999995 -0.4593894603985608 0.025
    vertex -0.8999999999999995 -0.4593894603985608 0.0
  endloop
endfacet
facet normal -0.0 1.0 -0.0
  outer loop
    vertex -0.8999999999999995 -0.4593894603985608 0.025
    vertex -0.5999999999999999 -0.4593894603985608 0.0
    vertex -0.8999999999999995 -0.4593894603985608 0.0
  endloop
endfacet
facet normal -0.0 1.0 -0.0
  outer loop
    vertex -0.5999999999999999 -0.4593894603985608 0.0
    vertex -0.8999999999999995 -0.4593894603985608 0.025
    vertex -0.5999999999999999 -0.4593894603985608 0.025
  endloop
endfacet
facet normal 1.0 -0.0 -0.0
  outer loop
    vertex -0.5999999999999999 -0.4593894603985608 0.0
    vertex -0.5999999999999999 -0.8593894603985609 0.025
    vertex -0.5999999999999999 -0.8593894603985609 0.0
  endloop
endfacet
facet normal 1.0 -0.0 -0.0
  outer loop
    vertex -0.5999999999999999 -0.8593894603985609 0.025
    vertex -0.5999999999999999 -0.4593894603985608 0.0
    vertex -0.5999999999999999 -0.4593894603985608 0.025
  endloop
endfacet
facet normal 0.0 0.0 -1.0
  outer loop
    vertex -0.5749999999999996 0.17500000000000046 0.0
    vertex -1.0249999999999992 -0.175 0.0
    vertex -1.0249999999999992 0.17500000000000046 0.0
  endloop
endfacet
facet normal 0.0 0.0 -1.0
  outer loop
    vertex -1.0249999999999992 -0.175 0.0
    vertex -0.5749999999999996 0.17500000000000046 0.0
    vertex -0.5749999999999996 -0.175 0.0
  endloop
endfacet
facet normal 0.0 -1.0 0.0
  outer loop
    vertex -0.5749999999999996 -0.175 0.025
    vertex -1.0249999999999992 -0.175 0.0
    vertex -0.5749999999999996 -0.175 0.0
  endloop
endfacet
facet normal 0.0 -1.0 0.0
  outer loop
    vertex -1.0249999999999992 -0.175 0.0
    vertex -0.5749999999999996 -0.175 0.025
    vertex -1.0249999999999992 -0.175 0.025
  endloop
endfacet
facet normal -0.0 1.0 -0.0
  outer loop
    vertex -1.0249999999999992 0.17500000000000046 0.025
    vertex -0.5749999999999996 0.17500000000000046 0.0
    vertex -1.0249999999999992 0.17500000000000046 0.0
  endloop
endfacet
facet normal -0.0 1.0 -0.0
  outer loop
    vertex -0.5749999999999996 0.17500000000000046 0.0
    vertex -1.0249999999999992 0.17500000000000046 0.025
    vertex -0.5749999999999996 0.17500000000000046 0.025
  endloop
endfacet
facet normal 1.0 -0.0 -0.0
  outer loop
    vertex -0.5749999999999996 0.17500000000000046 0.0
    vertex -0.5749999999999996 -0.175 0.025
    vertex -0.5749999999999996 -0.175 0.0
  endloop
endfacet
facet normal 1.0 -0.0 -0.0
  outer loop
    vertex -0.5749999999999996 -0.175 0.025
    vertex -0.5749999999999996 0.17500000000000046 0.0
    vertex -0.5749999999999996 0.17500000000000046 0.025
  endloop
endfacet
facet normal 0.0 0.0 -1.0
  outer loop
    vertex -0.6000000000000042 0.6906105396014472 0.0
    vertex -0.9000000000000038 0.29061053960144523 0.0
    vertex -0.9000000000000067 0.6906105396014415 0.0
  endloop
endfacet
facet normal 0.0 0.0 -1.0
  outer loop
    vertex -0.9000000000000038 0.29061053960144523 0.0
    vertex -0.6000000000000042 0.6906105396014472 0.0
    vertex -0.600000000000002 0.2906105396014438 0.0
  endloop
endfacet
facet normal -4.812742796881716e-15 -1.0 0.0
  outer loop
    vertex -0.600000000000002 0.2906105396014438 0.025
    vertex -0.9000000000000038 0.29061053960144523 0.0
    vertex -0.600000000000002 0.2906105396014438 0.0
  endloop
endfacet
facet normal -4.812742796881716e-15 -1.0 0.0
  outer loop
    vertex -0.9000000000000038 0.29061053960144523 0.0
    vertex -0.600000000000002 0.2906105396014438 0.025
    vertex -0.9000000000000038 0.29061053960144523 0.025
  endloop
endfacet
facet normal -1.0 -7.219114195322684e-15 0.0
  outer loop
    vertex -0.9000000000000067 0.6906105396014415 0.025
    vertex -0.9000000000000038 0.29061053960144523 0.0
    vertex -0.9000000000000038 0.29061053960144523 0.025
  endloop
endfacet
facet normal -1.0 -7.219114195322684e-15 0.0
  outer loop
    vertex -0.9000000000000038 0.29061053960144523 0.0
    vertex -0.9000000000000067 0.6906105396014415 0.025
    vertex -0.9000000000000067 0.6906105396014415 0.0
  endloop
endfacet
facet normal 1.0 5.414335646491915e-15 -0.0
  outer loop
    vertex -0.6000000000000042 0.6906105396014472 0.0
    vertex -0.600000000000002 0.2906105396014438 0.025
    vertex -0.600000000000002 0.2906105396014438 0.0
  endloop
endfacet
facet normal 1.0 5.414335646491915e-15 -0.0
  outer loop
    vertex -0.600000000000002 0.2906105396014438 0.025
    vertex -0.6000000000000042 0.6906105396014472 0.0
    vertex -0.6000000000000042 0.6906105396014472 0.025
  endloop
endfacet
facet normal 0.0 0.0 -1.0
  outer loop
    vertex -0.40000000000000396 0.6906105396014466 0.0
    vertex -0.10000000000000225 0.2906105396014438 0.0
    vertex -0.4000000000000047 0.2906105396014477 0.0
  endloop
endfacet
facet normal 0.0 0.0 -1.0
  outer loop
    vertex -0.10000000000000225 0.2906105396014438 0.0
    vertex -0.40000000000000396 0.6906105396014466 0.0
    vertex -0.1000000000000037 0.69061053960144 0.0
  endloop
endfacet
facet normal -1.3235042691424689e-14 -1.0 0.0
  outer loop
    vertex -0.10000000000000225 0.2906105396014438 0.025
    vertex -0.4000000000000047 0.2906105396014477 0.0
    vertex -0.10000000000000225 0.2906105396014438 0.0
  endloop
endfacet
facet normal -1.3235042691424689e-14 -1.0 0.0
  outer loop
    vertex -0.4000000000000047 0.2906105396014477 0.0
    vertex -0.10000000000000225 0.2906105396014438 0.025
    vertex -0.4000000000000047 0.2906105396014477 0.025
  endloop
endfacet
facet normal -1.0 1.8047785488306596e-15 0.0
  outer loop
    vertex -0.40000000000000396 0.6906105396014466 0.025
    vertex -0.4000000000000047 0.2906105396014477 0.0
    vertex -0.4000000000000047 0.2906105396014477 0.025
  endloop
endfacet
facet normal -1.0 1.8047785488306596e-15 0.0
  outer loop
    vertex -0.4000000000000047 0.2906105396014477 0.0
    vertex -0.40000000000000396 0.6906105396014466 0.025
    vertex -0.40000000000000396 0.6906105396014466 0.0
  endloop
endfacet
facet normal 1.0 3.609557097661342e-15 -0.0
  outer loop
    vertex -0.1000000000000037 0.69061053960144 0.0
    vertex -0.10000000000000225 0.2906105396014438 0.025
    vertex -0.10000000000000225 0.2906105396014438 0.0
  endloop
endfacet
facet normal 1.0 3.609557097661342e-15 -0.0
  outer loop
    vertex -0.10000000000000225 0.2906105396014438 0.025
    vertex -0.1000000000000037 0.69061053960144 0.0
    vertex -0.1000000000000037 0.69061053960144 0.025
  endloop
endfacet
facet normal 0.0 0.0 -1.0
  outer loop
    vertex 0.0999999999999953 0.6906105396014437 0.0
    vertex 0.3999999999999993 0.29061053960144195 0.0
    vertex 0.09999999999999241 0.2906105396014427 0.0
  endloop
endfacet
facet normal 0.0 0.0 -1.0
  outer loop
    vertex 0.3999999999999993 0.29061053960144195 0.0
    vertex 0.0999999999999953 0.6906105396014437 0.0
    vertex 0.3999999999999913 0.6906105396014411 0.0
  endloop
endfacet
facet normal -1.0 7.219114195322599e-15 0.0
  outer loop
    vertex 0.0999999999999953 0.6906105396014437 0.025
    vertex 0.09999999999999241 0.2906105396014427 0.0
    vertex 0.09999999999999241 0.2906105396014427 0.025
  endloop
endfacet
facet normal -1.0 7.219114195322599e-15 0.0
  outer loop
    vertex 0.09999999999999241 0.2906105396014427 0.0
    vertex 0.0999999999999953 0.6906105396014437 0.025
    vertex 0.0999999999999953 0.6906105396014437 0.0
  endloop
endfacet
facet normal 1.0 1.985256403713724e-14 -0.0
  outer loop
    vertex 0.3999999999999913 0.6906105396014411 0.0
    vertex 0.3999999999999993 0.29061053960144195 0.025
    vertex 0.3999999999999993 0.29061053960144195 0.0
  endloop
endfacet
facet normal 1.0 1.985256403713724e-14 -0.0
  outer loop
    vertex 0.3999999999999993 0.29061053960144195 0.025
    vertex 0.3999999999999913 0.6906105396014411 0.0
    vertex 0.3999999999999913 0.6906105396014411 0.025
  endloop
endfacet
facet normal -2.4063713984408174e-15 -1.0 0.0
  outer loop
    vertex 0.3999999999999993 0.29061053960144195 0.025
    vertex 0.09999999999999241 0.2906105396014427 0.0
    vertex 0.3999999999999993 0.29061053960144195 0.0
  endloop
endfacet
facet normal -2.4063713984408174e-15 -1.0 0.0
  outer loop
    vertex 0.09999999999999241 0.2906105396014427 0.0
    vertex 0.3999999999999993 0.29061053960144195 0.025
    vertex 0.09999999999999241 0.2906105396014427 0.025
  endloop
endfacet
facet normal 0.0 0.0 -1.0
  outer loop
    vertex 0.899999999999988 0.6906105396014365 0.0
    vertex 0.5999999999999942 0.29061053960144667 0.0
    vertex 0.5999999999999928 0.6906105396014408 0.0
  endloop
endfacet
facet normal 0.0 0.0 -1.0
  outer loop
    vertex 0.5999999999999942 0.29061053960144667 0.0
    vertex 0.899999999999988 0.6906105396014365 0.0
    vertex 0.8999999999999938 0.2906105396014409 0.0
  endloop
endfacet
facet normal 1.0 1.4438228390645394e-14 -0.0
  outer loop
    vertex 0.899999999999988 0.6906105396014365 0.0
    vertex 0.8999999999999938 0.2906105396014409 0.025
    vertex 0.8999999999999938 0.2906105396014409 0.0
  endloop
endfacet
facet normal 1.0 1.4438228390645394e-14 -0.0
  outer loop
    vertex 0.8999999999999938 0.2906105396014409 0.025
    vertex 0.899999999999988 0.6906105396014365 0.0
    vertex 0.899999999999988 0.6906105396014365 0.025
  endloop
endfacet
facet normal -1.9250971187527003e-14 -1.0 0.0
  outer loop
    vertex 0.8999999999999938 0.2906105396014409 0.025
    vertex 0.5999999999999942 0.29061053960144667 0.0
    vertex 0.8999999999999938 0.2906105396014409 0.0
  endloop
endfacet
facet normal -1.9250971187527003e-14 -1.0 0.0
  outer loop
    vertex 0.5999999999999942 0.29061053960144667 0.0
    vertex 0.8999999999999938 0.2906105396014409 0.025
    vertex 0.5999999999999942 0.29061053960144667 0.025
  endloop
endfacet
facet normal -1.0 -3.609557097661362e-15 0.0
  outer loop
    vertex 0.5999999999999928 0.6906105396014408 0.025
    vertex 0.5999999999999942 0.29061053960144667 0.0
    vertex 0.5999999999999942 0.29061053960144667 0.025
  endloop
endfacet
facet normal -1.0 -3.609557097661362e-15 0.0
  outer loop
    vertex 0.5999999999999942 0.29061053960144667 0.0
    vertex 0.5999999999999928 0.6906105396014408 0.025
    vertex 0.5999999999999928 0.6906105396014408 0.0
  endloop
endfacet
facet normal 0.0 0.0 -1.0
  outer loop
    vertex 1.0250000000000001 0.17500000000000046 0.0
    vertex 0.5750000000000002 -0.175 0.0
    vertex 0.5750000000000002 0.17500000000000046 0.0
  endloop
endfacet
facet normal 0.0 0.0 -1.0
  outer loop
    vertex 0.5750000000000002 -0.175 0.0
    vertex 1.0250000000000001 0.17500000000000046 0.0
    vertex 1.0250000000000004 -0.175 0.0
  endloop
endfacet
facet normal -1.0 -6.248508174715661e-17 9.023892744153274e-16
  outer loop
    vertex 0.5750000000000002 0.17500000000000046 0.025
    vertex 0.5750000000000002 -0.175 0.0
    vertex 0.5750000000000002 -0.175 0.025
  endloop
endfacet
facet normal -1.0 -6.248508174715661e-17 9.023892744153274e-16
  outer loop
    vertex 0.5750000000000002 -0.175 0.0
    vertex 0.5750000000000002 0.17500000000000046 0.025
    vertex 0.5750000000000002 0.17500000000000046 0.0
  endloop
endfacet
facet normal -0.0 1.0 -0.0
  outer loop
    vertex 0.5750000000000002 0.17500000000000046 0.025
    vertex 1.0250000000000001 0.17500000000000046 0.0
    vertex 0.5750000000000002 0.17500000000000046 0.0
  endloop
endfacet
facet normal -0.0 1.0 -0.0
  outer loop
    vertex 1.0250000000000001 0.17500000000000046 0.0
    vertex 0.5750000000000002 0.17500000000000046 0.025
    vertex 1.0250000000000001 0.17500000000000046 0.025
  endloop
endfacet
facet normal 0.0 -1.0 0.0
  outer loop
    vertex 1.0250000000000004 -0.175 0.025
    vertex 0.5750000000000002 -0.175 0.0
    vertex 1.0250000000000004 -0.175 0.0
  endloop
endfacet
facet normal 0.0 -1.0 0.0
  outer loop
    vertex 0.5750000000000002 -0.175 0.0
    vertex 1.0250000000000004 -0.175 0.025
    vertex 0.5750000000000002 -0.175 0.025
  endloop
endfacet
facet normal 0.0 -1.0 0.0
  outer loop
    vertex 0.40000000000000036 -0.8593894603985609 0.025
    vertex 0.10000000000000037 -0.8593894603985609 0.0
    vertex 0.40000000000000036 -0.8593894603985609 0.0
  endloop
endfacet
facet normal 0.0 -1.0 0.0
  outer loop
    vertex 0.10000000000000037 -0.8593894603985609 0.0
    vertex 0.40000000000000036 -0.8593894603985609 0.025
    vertex 0.10000000000000037 -0.8593894603985609 0.025
  endloop
endfacet
facet normal 0.0 -1.0 0.0
  outer loop
    vertex -0.5999999999999999 -0.8593894603985609 0.025
    vertex -0.8999999999999995 -0.8593894603985609 0.0
    vertex -0.5999999999999999 -0.8593894603985609 0.0
  endloop
endfacet
facet normal 0.0 -1.0 0.0
  outer loop
    vertex -0.8999999999999995 -0.8593894603985609 0.0
    vertex -0.5999999999999999 -0.8593894603985609 0.025
    vertex -0.8999999999999995 -0.8593894603985609 0.025
  endloop
endfacet
facet normal 0.0 -1.0 0.0
  outer loop
    vertex -0.09999999999999973 -0.8593894603985609 0.025
    vertex -0.39999999999999963 -0.8593894603985609 0.0
    vertex -0.09999999999999973 -0.8593894603985609 0.0
  endloop
endfacet
facet normal 0.0 -1.0 0.0
  outer loop
    vertex -0.39999999999999963 -0.8593894603985609 0.0
    vertex -0.09999999999999973 -0.8593894603985609 0.025
    vertex -0.39999999999999963 -0.8593894603985609 0.025
  endloop
endfacet
facet normal 3.933407661817632e-17 -1.0 -5.347491996535275e-17
  outer loop
    vertex 1.0250000000000004 -0.8593894603985609 0.7
    vertex 0.9000000000000004 -0.8593894603985607 0.025
    vertex 1.0250000000000004 -0.8593894603985609 0.025
  endloop
endfacet
facet normal 3.933407661817632e-17 -1.0 -5.347491996535275e-17
  outer loop
    vertex 0.9000000000000004 -0.8593894603985607 0.025
    vertex 1.0250000000000004 -0.8593894603985609 0.7
    vertex 0.6000000000000003 -0.8593894603985607 0.025
  endloop
endfacet
facet normal 3.933407661817632e-17 -1.0 -5.347491996535275e-17
  outer loop
    vertex 0.6000000000000003 -0.8593894603985607 0.025
    vertex 1.0250000000000004 -0.8593894603985609 0.7
    vertex 0.40000000000000036 -0.8593894603985609 0.025
  endloop
endfacet
facet normal 3.933407661817632e-17 -1.0 -5.347491996535275e-17
  outer loop
    vertex 0.40000000000000036 -0.8593894603985609 0.025
    vertex 1.0250000000000004 -0.8593894603985609 0.7
    vertex 0.10000000000000037 -0.8593894603985609 0.025
  endloop
endfacet
facet normal 3.933407661817632e-17 -1.0 -5.347491996535275e-17
  outer loop
    vertex 0.10000000000000037 -0.8593894603985609 0.025
    vertex 1.0250000000000004 -0.8593894603985609 0.7
    vertex -0.09999999999999973 -0.8593894603985609 0.025
  endloop
endfacet
facet normal 3.933407661817632e-17 -1.0 -5.347491996535275e-17
  outer loop
    vertex -0.09999999999999973 -0.8593894603985609 0.025
    vertex 1.0250000000000004 -0.8593894603985609 0.7
    vertex -0.39999999999999963 -0.8593894603985609 0.025
  endloop
endfacet
facet normal 3.933407661817632e-17 -1.0 -5.347491996535275e-17
  outer loop
    vertex -0.39999999999999963 -0.8593894603985609 0.025
    vertex 1.0250000000000004 -0.8593894603985609 0.7
    vertex -0.5999999999999999 -0.8593894603985609 0.025
  endloop
endfacet
facet normal 3.933407661817632e-17 -1.0 -5.347491996535275e-17
  outer loop
    vertex -0.5999999999999999 -0.8593894603985609 0.025
    vertex 1.0250000000000004 -0.8593894603985609 0.7
    vertex -0.8999999999999995 -0.8593894603985609 0.025
  endloop
endfacet
facet normal 3.933407661817632e-17 -1.0 -5.347491996535275e-17
  outer loop
    vertex -0.8999999999999995 -0.8593894603985609 0.025
    vertex 1.0250000000000004 -0.8593894603985609 0.7
    vertex -1.0249999999999992 -0.8593894603985609 0.025
  endloop
endfacet
facet normal 3.933407661817632e-17 -1.0 -5.347491996535275e-17
  outer loop
    vertex -1.0249999999999992 -0.8593894603985609 0.025
    vertex 1.0250000000000004 -0.8593894603985609 0.7
    vertex -1.0249999999999992 -0.8593894603985609 0.7
  endloop
endfacet
facet normal 0.0 0.0 -1.0
  outer loop
    vertex 0.40000000000000036 -0.4593894603985608 0.025
    vertex 0.10000000000000037 -0.8593894603985609 0.025
    vertex 0.10000000000000037 -0.4593894603985608 0.025
  endloop
endfacet
facet normal 0.0 0.0 -1.0
  outer loop
    vertex 0.10000000000000037 -0.8593894603985609 0.025
    vertex 0.40000000000000036 -0.4593894603985608 0.025
    vertex 0.40000000000000036 -0.8593894603985609 0.025
  endloop
endfacet
facet normal 0.0 0.0 -1.0
  outer loop
    vertex -0.5999999999999999 -0.4593894603985608 0.025
    vertex -0.8999999999999995 -0.8593894603985609 0.025
    vertex -0.8999999999999995 -0.4593894603985608 0.025
  endloop
endfacet
facet normal 0.0 0.0 -1.0
  outer loop
    vertex -0.8999999999999995 -0.8593894603985609 0.025
    vertex -0.5999999999999999 -0.4593894603985608 0.025
    vertex -0.5999999999999999 -0.8593894603985609 0.025
  endloop
endfacet
facet normal 0.0 0.0 -1.0
  outer loop
    vertex -0.09999999999999973 -0.4593894603985608 0.025
    vertex -0.39999999999999963 -0.8593894603985609 0.025
    vertex -0.39999999999999963 -0.4593894603985608 0.025
  endloop
endfacet
facet normal 0.0 0.0 -1.0
  outer loop
    vertex -0.39999999999999963 -0.8593894603985609 0.025
    vertex -0.09999999999999973 -0.4593894603985608 0.025
    vertex -0.09999999999999973 -0.8593894603985609 0.025
  endloop
endfacet
facet normal 0.0 0.0 -1.0
  outer loop
    vertex 0.9000000000000004 -0.4593894603985608 0.025
    vertex 0.6000000000000003 -0.8593894603985607 0.025
    vertex 0.6000000000000003 -0.4593894603985608 0.025
  endloop
endfacet
facet normal 0.0 0.0 -1.0
  outer loop
    vertex 0.6000000000000003 -0.8593894603985607 0.025
    vertex 0.9000000000000004 -0.4593894603985608 0.025
    vertex 0.9000000000000004 -0.8593894603985607 0.025
  endloop
endfacet
facet normal 0.0 -1.0 0.0
  outer loop
    vertex 0.9000000000000004 -0.8593894603985607 0.025
    vertex 0.6000000000000003 -0.8593894603985607 0.0
    vertex 0.9000000000000004 -0.8593894603985607 0.0
  endloop
endfacet
facet normal 0.0 -1.0 0.0
  outer loop
    vertex 0.6000000000000003 -0.8593894603985607 0.0
    vertex 0.9000000000000004 -0.8593894603985607 0.025
    vertex 0.6000000000000003 -0.8593894603985607 0.025
  endloop
endfacet
facet normal 1.443822839064546e-14 1.0 -0.0
  outer loop
    vertex 0.5999999999999928 0.6906105396014408 0.025
    vertex 0.899999999999988 0.6906105396014365 0.0
    vertex 0.5999999999999928 0.6906105396014408 0.0
  endloop
endfacet
facet normal 1.443822839064546e-14 1.0 -0.0
  outer loop
    vertex 0.899999999999988 0.6906105396014365 0.0
    vertex 0.5999999999999928 0.6906105396014408 0.025
    vertex 0.899999999999988 0.6906105396014365 0.025
  endloop
endfacet
facet normal 8.422299894543165e-15 1.0 -0.0
  outer loop
    vertex 0.0999999999999953 0.6906105396014437 0.025
    vertex 0.3999999999999913 0.6906105396014411 0.0
    vertex 0.0999999999999953 0.6906105396014437 0.0
  endloop
endfacet
facet normal 8.422299894543165e-15 1.0 -0.0
  outer loop
    vertex 0.3999999999999913 0.6906105396014411 0.0
    vertex 0.0999999999999953 0.6906105396014437 0.025
    vertex 0.3999999999999913 0.6906105396014411 0.025
  endloop
endfacet
facet normal -1.9250971187526817e-14 1.0 -0.0
  outer loop
    vertex -0.9000000000000067 0.6906105396014415 0.025
    vertex -0.6000000000000042 0.6906105396014472 0.0
    vertex -0.9000000000000067 0.6906105396014415 0.0
  endloop
endfacet
facet normal -1.9250971187526817e-14 1.0 -0.0
  outer loop
    vertex -0.6000000000000042 0.6906105396014472 0.0
    vertex -0.9000000000000067 0.6906105396014415 0.025
    vertex -0.6000000000000042 0.6906105396014472 0.025
  endloop
endfacet
facet normal 2.1657342585967832e-14 1.0 -0.0
  outer loop
    vertex -0.40000000000000396 0.6906105396014466 0.025
    vertex -0.1000000000000037 0.69061053960144 0.0
    vertex -0.40000000000000396 0.6906105396014466 0.0
  endloop
endfacet
facet normal 2.1657342585967832e-14 1.0 -0.0
  outer loop
    vertex -0.1000000000000037 0.69061053960144 0.0
    vertex -0.40000000000000396 0.6906105396014466 0.025
    vertex -0.1000000000000037 0.69061053960144 0.025
  endloop
endfacet
facet normal 0.0 0.0 -1.0
  outer loop
    vertex 0.0999999999999953 0.6906105396014437 0.025
    vertex 0.3999999999999993 0.29061053960144195 0.025
    vertex 0.09999999999999241 0.2906105396014427 0.025
  endloop
endfacet
facet normal 0.0 0.0 -1.0
  outer loop
    vertex 0.3999999999999993 0.29061053960144195 0.025
    vertex 0.0999999999999953 0.6906105396014437 0.025
    vertex 0.3999999999999913 0.6906105396014411 0.025
  endloop
endfacet
facet normal 0.0 0.0 -1.0
  outer loop
    vertex 0.899999999999988 0.6906105396014365 0.025
    vertex 0.5999999999999942 0.29061053960144667 0.025
    vertex 0.5999999999999928 0.6906105396014408 0.025
  endloop
endfacet
facet normal 0.0 0.0 -1.0
  outer loop
    vertex 0.5999999999999942 0.29061053960144667 0.025
    vertex 0.899999999999988 0.6906105396014365 0.025
    vertex 0.8999999999999938 0.2906105396014409 0.025
  endloop
endfacet
facet normal 0.0 0.0 -1.0
  outer loop
    vertex -0.40000000000000396 0.6906105396014466 0.025
    vertex -0.10000000000000225 0.2906105396014438 0.025
    vertex -0.4000000000000047 0.2906105396014477 0.025
  endloop
endfacet
facet normal 0.0 0.0 -1.0
  outer loop
    vertex -0.10000000000000225 0.2906105396014438 0.025
    vertex -0.40000000000000396 0.6906105396014466 0.025
    vertex -0.1000000000000037 0.69061053960144 0.025
  endloop
endfacet
facet normal 0.0 0.0 -1.0
  outer loop
    vertex -0.6000000000000042 0.6906105396014472 0.025
    vertex -0.9000000000000038 0.29061053960144523 0.025
    vertex -0.9000000000000067 0.6906105396014415 0.025
  endloop
endfacet
facet normal 0.0 0.0 -1.0
  outer loop
    vertex -0.9000000000000038 0.29061053960144523 0.025
    vertex -0.6000000000000042 0.6906105396014472 0.025
    vertex -0.600000000000002 0.2906105396014438 0.025
  endloop
endfacet
facet normal 1.0 5.156510139516149e-16 -0.0
  outer loop
    vertex 1.0250000000000001 0.17500000000000046 0.0
    vertex 1.0250000000000004 -0.175 0.025
    vertex 1.0250000000000004 -0.175 0.0
  endloop
endfacet
facet normal 1.0 5.156510139516149e-16 -0.0
  outer loop
    vertex 1.0250000000000004 -0.175 0.025
    vertex 1.0250000000000001 0.17500000000000046 0.0
    vertex 1.0250000000000001 0.17500000000000046 0.025
  endloop
endfacet
facet normal 0.0 0.0 -1.0
  outer loop
    vertex 1.0250000000000001 0.17500000000000046 0.025
    vertex 0.5750000000000002 -0.175 0.025
    vertex 0.5750000000000002 0.17500000000000046 0.025
  endloop
endfacet
facet normal 0.0 0.0 -1.0
  outer loop
    vertex 0.5750000000000002 -0.175 0.025
    vertex 1.0250000000000001 0.17500000000000046 0.025
    vertex 1.0250000000000004 -0.175 0.025
  endloop
endfacet
facet normal -1.0 0.0 0.0
  outer loop
    vertex -1.0249999999999992 0.17500000000000046 0.025
    vertex -1.0249999999999992 -0.175 0.0
    vertex -1.0249999999999992 -0.175 0.025
  endloop
endfacet
facet normal -1.0 0.0 0.0
  outer loop
    vertex -1.0249999999999992 -0.175 0.0
    vertex -1.0249999999999992 0.17500000000000046 0.025
    vertex -1.0249999999999992 0.17500000000000046 0.0
  endloop
endfacet
facet normal 0.0 0.0 -1.0
  outer loop
    vertex -0.5749999999999996 0.17500000000000046 0.025
    vertex -1.0249999999999992 -0.175 0.025
    vertex -1.0249999999999992 0.17500000000000046 0.025
  endloop
endfacet
facet normal 0.0 0.0 -1.0
  outer loop
    vertex -1.0249999999999992 -0.175 0.025
    vertex -0.5749999999999996 0.17500000000000046 0.025
    vertex -0.5749999999999996 -0.175 0.025
  endloop
endfacet
endsolid QFN-10-RSE
