solid RESONATOR-SMD-1_1
facet normal -0.0 -0.0 1.0
  outer loop
    vertex -1.6000000000000003 -0.6499999999999987 0.4
    vertex -1.4999999999999982 -0.5499999999999978 0.4
    vertex -1.5999999999999945 0.6499999999999999 0.4
  endloop
endfacet
facet normal -0.0 -0.0 1.0
  outer loop
    vertex -1.4999999999999982 -0.5499999999999978 0.4
    vertex -1.6000000000000003 -0.6499999999999987 0.4
    vertex -1.399999999999997 -0.6499999999999982 0.4
  endloop
endfacet
facet normal -0.0 -0.0 1.0
  outer loop
    vertex -1.5999999999999945 0.6499999999999999 0.4
    vertex -1.4999999999999982 -0.5499999999999978 0.4
    vertex -1.499999999999999 0.5499999999999997 0.4
  endloop
endfacet
facet normal -0.0 -0.0 1.0
  outer loop
    vertex -1.4999999999999982 -0.5499999999999978 0.4
    vertex -1.399999999999997 -0.6499999999999982 0.4
    vertex -1.399999999999997 -0.5499999999999979 0.4
  endloop
endfacet
facet normal -0.0 -0.0 1.0
  outer loop
    vertex -1.499999999999999 0.5499999999999997 0.4
    vertex -1.399999999999997 0.6499999999999991 0.4
    vertex -1.5999999999999945 0.6499999999999999 0.4
  endloop
endfacet
facet normal -0.0 -0.0 1.0
  outer loop
    vertex -1.399999999999997 0.6499999999999991 0.4
    vertex -1.499999999999999 0.5499999999999997 0.4
    vertex -1.399999999999997 0.5499999999999996 0.4
  endloop
endfacet
facet normal 3.1583624604536738e-15 1.0 6.015928496102194e-16
  outer loop
    vertex -1.5999999999999945 0.6499999999999999 0.4
    vertex -1.399999999999997 0.6499999999999995 0.0
    vertex -1.5999999999999945 0.6499999999999999 0.0
  endloop
endfacet
facet normal 3.1583624604536738e-15 1.0 6.015928496102194e-16
  outer loop
    vertex -1.399999999999997 0.6499999999999995 0.0
    vertex -1.5999999999999945 0.6499999999999999 0.4
    vertex -1.399999999999997 0.6499999999999991 0.4
  endloop
endfacet
facet normal 1.0 -7.494005416219807e-16 0.0
  outer loop
    vertex 1.6000000000000003 0.6499999999999987 0.0
    vertex 1.5999999999999945 -0.6499999999999999 0.4
    vertex 1.5999999999999945 -0.6499999999999999 0.0
  endloop
endfacet
facet normal 1.0 -7.494005416219807e-16 0.0
  outer loop
    vertex 1.5999999999999945 -0.6499999999999999 0.4
    vertex 1.6000000000000003 0.6499999999999987 0.0
    vertex 1.6000000000000003 0.6499999999999987 0.4
  endloop
endfacet
facet normal -2.2559731860383848e-15 -1.0 1.13098111469419e-32
  outer loop
    vertex 1.5999999999999945 -0.6499999999999999 0.4
    vertex 1.4 -0.6499999999999995 0.0
    vertex 1.5999999999999945 -0.6499999999999999 0.0
  endloop
endfacet
facet normal -2.2559731860383848e-15 -1.0 1.13098111469419e-32
  outer loop
    vertex 1.4 -0.6499999999999995 0.0
    vertex 1.5999999999999945 -0.6499999999999999 0.4
    vertex 1.4 -0.6499999999999995 0.4
  endloop
endfacet
facet normal 0.0 0.0 1.0
  outer loop
    vertex -1.4999999999999982 -0.5499999999999978 0.7
    vertex 1.4999999999999982 0.5499999999999978 0.7
    vertex -1.499999999999999 0.5499999999999997 0.7
  endloop
endfacet
facet normal 0.0 0.0 1.0
  outer loop
    vertex 1.4999999999999982 0.5499999999999978 0.7
    vertex -1.4999999999999982 -0.5499999999999978 0.7
    vertex 1.499999999999999 -0.5499999999999997 0.7
  endloop
endfacet
facet normal 1.0 -7.494005416219807e-16 0.0
  outer loop
    vertex 1.4999999999999982 0.5499999999999978 0.4
    vertex 1.499999999999999 -0.5499999999999997 0.7
    vertex 1.499999999999999 -0.5499999999999997 0.4
  endloop
endfacet
facet normal 1.0 -7.494005416219807e-16 0.0
  outer loop
    vertex 1.499999999999999 -0.5499999999999997 0.7
    vertex 1.4999999999999982 0.5499999999999978 0.4
    vertex 1.4999999999999982 0.5499999999999978 0.7
  endloop
endfacet
facet normal 7.494005416219807e-16 1.0 0.0
  outer loop
    vertex -1.499999999999999 0.5499999999999997 0.7
    vertex -1.399999999999997 0.5499999999999996 0.4
    vertex -1.499999999999999 0.5499999999999997 0.4
  endloop
endfacet
facet normal 7.494005416219807e-16 1.0 0.0
  outer loop
    vertex -1.399999999999997 0.5499999999999996 0.4
    vertex -1.499999999999999 0.5499999999999997 0.7
    vertex -0.19999999999999707 0.549999999999999 0.4
  endloop
endfacet
facet normal 7.494005416219807e-16 1.0 0.0
  outer loop
    vertex -0.19999999999999707 0.549999999999999 0.4
    vertex -1.499999999999999 0.5499999999999997 0.7
    vertex 0.2000000000000029 0.5499999999999987 0.4
  endloop
endfacet
facet normal 7.494005416219807e-16 1.0 0.0
  outer loop
    vertex 0.2000000000000029 0.5499999999999987 0.4
    vertex -1.499999999999999 0.5499999999999997 0.7
    vertex 1.0 0.5499999999999982 0.4
  endloop
endfacet
facet normal 7.494005416219807e-16 1.0 0.0
  outer loop
    vertex 1.0 0.5499999999999982 0.4
    vertex -1.499999999999999 0.5499999999999997 0.7
    vertex 1.4 0.5499999999999979 0.4
  endloop
endfacet
facet normal 7.494005416219807e-16 1.0 0.0
  outer loop
    vertex 1.4 0.5499999999999979 0.4
    vertex -1.499999999999999 0.5499999999999997 0.7
    vertex 1.4999999999999982 0.5499999999999978 0.4
  endloop
endfacet
facet normal 7.494005416219807e-16 1.0 0.0
  outer loop
    vertex 1.4999999999999982 0.5499999999999978 0.4
    vertex -1.499999999999999 0.5499999999999997 0.7
    vertex 1.4999999999999982 0.5499999999999978 0.7
  endloop
endfacet
facet normal 7.494005416219807e-16 1.0 0.0
  outer loop
    vertex -0.19999999999999707 0.549999999999999 0.4
    vertex -0.9999999999999971 0.5499999999999995 0.4
    vertex -1.399999999999997 0.5499999999999996 0.4
  endloop
endfacet
facet normal -1.0 7.494005416219807e-16 0.0
  outer loop
    vertex -1.499999999999999 0.5499999999999997 0.7
    vertex -1.4999999999999982 -0.5499999999999978 0.4
    vertex -1.4999999999999982 -0.5499999999999978 0.7
  endloop
endfacet
facet normal -1.0 7.494005416219807e-16 0.0
  outer loop
    vertex -1.4999999999999982 -0.5499999999999978 0.4
    vertex -1.499999999999999 0.5499999999999997 0.7
    vertex -1.499999999999999 0.5499999999999997 0.4
  endloop
endfacet
facet normal -7.494005416219807e-16 -1.0 0.0
  outer loop
    vertex 1.499999999999999 -0.5499999999999997 0.7
    vertex 1.4 -0.5499999999999996 0.4
    vertex 1.499999999999999 -0.5499999999999997 0.4
  endloop
endfacet
facet normal -7.494005416219807e-16 -1.0 0.0
  outer loop
    vertex 1.4 -0.5499999999999996 0.4
    vertex 1.499999999999999 -0.5499999999999997 0.7
    vertex 1.0 -0.5499999999999995 0.4
  endloop
endfacet
facet normal -7.494005416219807e-16 -1.0 0.0
  outer loop
    vertex 1.0 -0.5499999999999995 0.4
    vertex 1.499999999999999 -0.5499999999999997 0.7
    vertex 0.20000000000000218 -0.5499999999999989 0.4
  endloop
endfacet
facet normal -7.494005416219807e-16 -1.0 0.0
  outer loop
    vertex 0.20000000000000218 -0.5499999999999989 0.4
    vertex 1.499999999999999 -0.5499999999999997 0.7
    vertex -0.1999999999999971 -0.5499999999999986 0.4
  endloop
endfacet
facet normal -7.494005416219807e-16 -1.0 0.0
  outer loop
    vertex -0.1999999999999971 -0.5499999999999986 0.4
    vertex 1.499999999999999 -0.5499999999999997 0.7
    vertex -0.9999999999999971 -0.5499999999999982 0.4
  endloop
endfacet
facet normal -7.494005416219807e-16 -1.0 0.0
  outer loop
    vertex -0.9999999999999971 -0.5499999999999982 0.4
    vertex 1.499999999999999 -0.5499999999999997 0.7
    vertex -1.399999999999997 -0.5499999999999979 0.4
  endloop
endfacet
facet normal -7.494005416219807e-16 -1.0 0.0
  outer loop
    vertex -1.399999999999997 -0.5499999999999979 0.4
    vertex 1.499999999999999 -0.5499999999999997 0.7
    vertex -1.4999999999999982 -0.5499999999999978 0.4
  endloop
endfacet
facet normal -7.494005416219807e-16 -1.0 0.0
  outer loop
    vertex -1.4999999999999982 -0.5499999999999978 0.4
    vertex 1.499999999999999 -0.5499999999999997 0.7
    vertex -1.4999999999999982 -0.5499999999999978 0.7
  endloop
endfacet
facet normal -0.0 -0.0 1.0
  outer loop
    vertex 1.5999999999999945 -0.6499999999999999 0.4
    vertex 1.4 -0.5499999999999996 0.4
    vertex 1.4 -0.6499999999999995 0.4
  endloop
endfacet
facet normal -0.0 -0.0 1.0
  outer loop
    vertex 1.4 -0.5499999999999996 0.4
    vertex 1.5999999999999945 -0.6499999999999999 0.4
    vertex 1.499999999999999 -0.5499999999999997 0.4
  endloop
endfacet
facet normal -0.0 -0.0 1.0
  outer loop
    vertex 1.4999999999999982 0.5499999999999978 0.4
    vertex 1.4 0.6499999999999984 0.4
    vertex 1.4 0.5499999999999979 0.4
  endloop
endfacet
facet normal -0.0 -0.0 1.0
  outer loop
    vertex 1.4 0.6499999999999984 0.4
    vertex 1.4999999999999982 0.5499999999999978 0.4
    vertex 1.6000000000000003 0.6499999999999987 0.4
  endloop
endfacet
facet normal -0.0 -0.0 1.0
  outer loop
    vertex 1.6000000000000003 0.6499999999999987 0.4
    vertex 1.4999999999999982 0.5499999999999978 0.4
    vertex 1.499999999999999 -0.5499999999999997 0.4
  endloop
endfacet
facet normal -0.0 -0.0 1.0
  outer loop
    vertex 1.6000000000000003 0.6499999999999987 0.4
    vertex 1.499999999999999 -0.5499999999999997 0.4
    vertex 1.5999999999999945 -0.6499999999999999 0.4
  endloop
endfacet
facet normal -1.8047785488306494e-15 1.0 8.482358360206383e-33
  outer loop
    vertex 1.4 0.6499999999999984 0.4
    vertex 1.6000000000000003 0.6499999999999987 0.0
    vertex 1.4 0.6499999999999984 0.0
  endloop
endfacet
facet normal -1.8047785488306494e-15 1.0 8.482358360206383e-33
  outer loop
    vertex 1.6000000000000003 0.6499999999999987 0.0
    vertex 1.4 0.6499999999999984 0.4
    vertex 1.6000000000000003 0.6499999999999987 0.4
  endloop
endfacet
facet normal 2.2559731860382692e-15 -1.0 -5.654905573471053e-33
  outer loop
    vertex -1.399999999999997 -0.6499999999999982 0.4
    vertex -1.6000000000000003 -0.6499999999999987 0.0
    vertex -1.399999999999997 -0.6499999999999982 0.0
  endloop
endfacet
facet normal 2.2559731860382692e-15 -1.0 -5.654905573471053e-33
  outer loop
    vertex -1.6000000000000003 -0.6499999999999987 0.0
    vertex -1.399999999999997 -0.6499999999999982 0.4
    vertex -1.6000000000000003 -0.6499999999999987 0.4
  endloop
endfacet
facet normal 0.0 0.0 -1.0
  outer loop
    vertex 1.6000000000000003 0.6499999999999987 0.0
    vertex 1.4 -0.6499999999999995 0.0
    vertex 1.4 0.6499999999999984 0.0
  endloop
endfacet
facet normal 0.0 0.0 -1.0
  outer loop
    vertex 1.4 -0.6499999999999995 0.0
    vertex 1.6000000000000003 0.6499999999999987 0.0
    vertex 1.5999999999999945 -0.6499999999999999 0.0
  endloop
endfacet
facet normal 0.0 0.0 -1.0
  outer loop
    vertex 0.20000000000000293 0.6499999999999989 0.0
    vertex -0.1999999999999971 -0.6499999999999988 0.0
    vertex -0.1999999999999971 0.649999999999999 0.0
  endloop
endfacet
facet normal 0.0 0.0 -1.0
  outer loop
    vertex -0.1999999999999971 -0.6499999999999988 0.0
    vertex 0.20000000000000293 0.6499999999999989 0.0
    vertex 0.20000000000000218 -0.649999999999999 0.0
  endloop
endfacet
facet normal 0.0 0.0 -1.0
  outer loop
    vertex -0.9999999999999971 0.6499999999999994 0.0
    vertex -1.399999999999997 -0.6499999999999982 0.0
    vertex -1.399999999999997 0.6499999999999995 0.0
  endloop
endfacet
facet normal 0.0 0.0 -1.0
  outer loop
    vertex -1.399999999999997 -0.6499999999999982 0.0
    vertex -0.9999999999999971 0.6499999999999994 0.0
    vertex -0.9999999999999971 -0.6499999999999985 0.0
  endloop
endfacet
facet normal 0.0 0.0 -1.0
  outer loop
    vertex 1.4 0.6499999999999984 0.0
    vertex 1.0 -0.6499999999999992 0.0
    vertex 1.0 0.6499999999999986 0.0
  endloop
endfacet
facet normal 0.0 0.0 -1.0
  outer loop
    vertex 1.0 -0.6499999999999992 0.0
    vertex 1.4 0.6499999999999984 0.0
    vertex 1.4 -0.6499999999999995 0.0
  endloop
endfacet
facet normal 0.0 0.0 -1.0
  outer loop
    vertex -0.1999999999999971 0.649999999999999 0.0
    vertex -0.9999999999999971 -0.6499999999999985 0.0
    vertex -0.9999999999999971 0.6499999999999994 0.0
  endloop
endfacet
facet normal 0.0 0.0 -1.0
  outer loop
    vertex -0.9999999999999971 -0.6499999999999985 0.0
    vertex -0.1999999999999971 0.649999999999999 0.0
    vertex -0.1999999999999971 -0.6499999999999988 0.0
  endloop
endfacet
facet normal 0.0 0.0 -1.0
  outer loop
    vertex 0.20000000000000293 0.6499999999999989 0.0
    vertex 1.0 -0.6499999999999992 0.0
    vertex 0.20000000000000218 -0.649999999999999 0.0
  endloop
endfacet
facet normal 0.0 0.0 -1.0
  outer loop
    vertex 1.0 -0.6499999999999992 0.0
    vertex 0.20000000000000293 0.6499999999999989 0.0
    vertex 1.0 0.6499999999999986 0.0
  endloop
endfacet
facet normal 4.511946372076636e-16 1.0 -0.0
  outer loop
    vertex 1.0 0.6499999999999986 0.4
    vertex 1.4 0.6499999999999984 0.0
    vertex 1.0 0.6499999999999986 0.0
  endloop
endfacet
facet normal 4.511946372076636e-16 1.0 -0.0
  outer loop
    vertex 1.4 0.6499999999999984 0.0
    vertex 1.0 0.6499999999999986 0.4
    vertex 1.4 0.6499999999999984 0.4
  endloop
endfacet
facet normal 3.947953075567071e-16 1.0 1.1279865930191593e-16
  outer loop
    vertex 0.2000000000000029 0.6499999999999988 0.4
    vertex 1.0 0.6499999999999986 0.0
    vertex 0.20000000000000293 0.6499999999999989 0.0
  endloop
endfacet
facet normal 3.947953075567071e-16 1.0 1.1279865930191593e-16
  outer loop
    vertex 1.0 0.6499999999999986 0.0
    vertex 0.2000000000000029 0.6499999999999988 0.4
    vertex 1.0 0.6499999999999986 0.4
  endloop
endfacet
facet normal 2.2559731860383176e-16 1.0 2.255973186038318e-16
  outer loop
    vertex -0.1999999999999971 0.6499999999999989 0.4
    vertex 0.20000000000000293 0.6499999999999989 0.0
    vertex -0.1999999999999971 0.649999999999999 0.0
  endloop
endfacet
facet normal 2.2559731860383176e-16 1.0 2.255973186038318e-16
  outer loop
    vertex 0.20000000000000293 0.6499999999999989 0.0
    vertex -0.1999999999999971 0.6499999999999989 0.4
    vertex 0.2000000000000029 0.6499999999999988 0.4
  endloop
endfacet
facet normal 3.3839597790574767e-16 1.0 4.511946372076636e-16
  outer loop
    vertex -0.9999999999999971 0.6499999999999991 0.4
    vertex -0.1999999999999971 0.649999999999999 0.0
    vertex -0.9999999999999971 0.6499999999999994 0.0
  endloop
endfacet
facet normal 3.3839597790574767e-16 1.0 4.511946372076636e-16
  outer loop
    vertex -0.1999999999999971 0.649999999999999 0.0
    vertex -0.9999999999999971 0.6499999999999991 0.4
    vertex -0.1999999999999971 0.6499999999999989 0.4
  endloop
endfacet
facet normal 1.1279865930191593e-16 1.0 7.895906151134111e-16
  outer loop
    vertex -1.399999999999997 0.6499999999999991 0.4
    vertex -0.9999999999999971 0.6499999999999994 0.0
    vertex -1.399999999999997 0.6499999999999995 0.0
  endloop
endfacet
facet normal 1.1279865930191593e-16 1.0 7.895906151134111e-16
  outer loop
    vertex -0.9999999999999971 0.6499999999999994 0.0
    vertex -1.399999999999997 0.6499999999999991 0.4
    vertex -0.9999999999999971 0.6499999999999991 0.4
  endloop
endfacet
facet normal -4.511946372076636e-16 -1.0 0.0
  outer loop
    vertex 1.4 -0.6499999999999995 0.4
    vertex 1.0 -0.6499999999999992 0.0
    vertex 1.4 -0.6499999999999995 0.0
  endloop
endfacet
facet normal -4.511946372076636e-16 -1.0 0.0
  outer loop
    vertex 1.0 -0.6499999999999992 0.0
    vertex 1.4 -0.6499999999999995 0.4
    vertex 1.0 -0.6499999999999992 0.4
  endloop
endfacet
facet normal -3.383959779057486e-16 -1.0 0.0
  outer loop
    vertex 1.0 -0.6499999999999992 0.4
    vertex 0.20000000000000218 -0.649999999999999 0.0
    vertex 1.0 -0.6499999999999992 0.0
  endloop
endfacet
facet normal -3.383959779057486e-16 -1.0 0.0
  outer loop
    vertex 0.20000000000000218 -0.649999999999999 0.0
    vertex 1.0 -0.6499999999999992 0.4
    vertex 0.20000000000000218 -0.649999999999999 0.4
  endloop
endfacet
facet normal -4.511946372076644e-16 -1.0 0.0
  outer loop
    vertex 0.20000000000000218 -0.649999999999999 0.4
    vertex -0.1999999999999971 -0.6499999999999988 0.0
    vertex 0.20000000000000218 -0.649999999999999 0.0
  endloop
endfacet
facet normal -4.511946372076644e-16 -1.0 0.0
  outer loop
    vertex -0.1999999999999971 -0.6499999999999988 0.0
    vertex 0.20000000000000218 -0.649999999999999 0.4
    vertex -0.1999999999999971 -0.6499999999999988 0.4
  endloop
endfacet
facet normal -4.511946372076636e-16 -1.0 0.0
  outer loop
    vertex -0.1999999999999971 -0.6499999999999988 0.4
    vertex -0.9999999999999971 -0.6499999999999985 0.0
    vertex -0.1999999999999971 -0.6499999999999988 0.0
  endloop
endfacet
facet normal -4.511946372076636e-16 -1.0 0.0
  outer loop
    vertex -0.9999999999999971 -0.6499999999999985 0.0
    vertex -0.1999999999999971 -0.6499999999999988 0.4
    vertex -0.9999999999999971 -0.6499999999999985 0.4
  endloop
endfacet
facet normal -4.511946372076636e-16 -1.0 0.0
  outer loop
    vertex -0.9999999999999971 -0.6499999999999985 0.4
    vertex -1.399999999999997 -0.6499999999999982 0.0
    vertex -0.9999999999999971 -0.6499999999999985 0.0
  endloop
endfacet
facet normal -4.511946372076636e-16 -1.0 0.0
  outer loop
    vertex -1.399999999999997 -0.6499999999999982 0.0
    vertex -0.9999999999999971 -0.6499999999999985 0.4
    vertex -1.399999999999997 -0.6499999999999982 0.4
  endloop
endfacet
facet normal -0.0 -0.0 1.0
  outer loop
    vertex -0.9999999999999971 -0.6499999999999985 0.4
    vertex -1.399999999999997 -0.5499999999999979 0.4
    vertex -1.399999999999997 -0.6499999999999982 0.4
  endloop
endfacet
facet normal -0.0 -0.0 1.0
  outer loop
    vertex -1.399999999999997 -0.5499999999999979 0.4
    vertex -0.9999999999999971 -0.6499999999999985 0.4
    vertex -0.9999999999999971 -0.5499999999999982 0.4
  endloop
endfacet
facet normal -0.0 -0.0 1.0
  outer loop
    vertex -0.1999999999999971 -0.6499999999999988 0.4
    vertex -0.9999999999999971 -0.5499999999999982 0.4
    vertex -0.9999999999999971 -0.6499999999999985 0.4
  endloop
endfacet
facet normal -0.0 -0.0 1.0
  outer loop
    vertex -0.9999999999999971 -0.5499999999999982 0.4
    vertex -0.1999999999999971 -0.6499999999999988 0.4
    vertex -0.1999999999999971 -0.5499999999999986 0.4
  endloop
endfacet
facet normal -0.0 -0.0 1.0
  outer loop
    vertex 0.20000000000000218 -0.649999999999999 0.4
    vertex -0.1999999999999971 -0.5499999999999986 0.4
    vertex -0.1999999999999971 -0.6499999999999988 0.4
  endloop
endfacet
facet normal -0.0 -0.0 1.0
  outer loop
    vertex -0.1999999999999971 -0.5499999999999986 0.4
    vertex 0.20000000000000218 -0.649999999999999 0.4
    vertex 0.20000000000000218 -0.5499999999999989 0.4
  endloop
endfacet
facet normal -0.0 -0.0 1.0
  outer loop
    vertex 1.0 -0.6499999999999992 0.4
    vertex 0.20000000000000218 -0.5499999999999989 0.4
    vertex 0.20000000000000218 -0.649999999999999 0.4
  endloop
endfacet
facet normal -0.0 -0.0 1.0
  outer loop
    vertex 0.20000000000000218 -0.5499999999999989 0.4
    vertex 1.0 -0.6499999999999992 0.4
    vertex 1.0 -0.5499999999999995 0.4
  endloop
endfacet
facet normal -0.0 -0.0 1.0
  outer loop
    vertex 1.4 -0.6499999999999995 0.4
    vertex 1.0 -0.5499999999999995 0.4
    vertex 1.0 -0.6499999999999992 0.4
  endloop
endfacet
facet normal -0.0 -0.0 1.0
  outer loop
    vertex 1.0 -0.5499999999999995 0.4
    vertex 1.4 -0.6499999999999995 0.4
    vertex 1.4 -0.5499999999999996 0.4
  endloop
endfacet
facet normal -0.0 -0.0 1.0
  outer loop
    vertex 1.4 0.5499999999999979 0.4
    vertex 1.0 0.6499999999999986 0.4
    vertex 1.0 0.5499999999999982 0.4
  endloop
endfacet
facet normal -0.0 -0.0 1.0
  outer loop
    vertex 1.0 0.6499999999999986 0.4
    vertex 1.4 0.5499999999999979 0.4
    vertex 1.4 0.6499999999999984 0.4
  endloop
endfacet
facet normal -0.0 -0.0 1.0
  outer loop
    vertex 1.0 0.5499999999999982 0.4
    vertex 0.2000000000000029 0.6499999999999988 0.4
    vertex 0.2000000000000029 0.5499999999999987 0.4
  endloop
endfacet
facet normal -0.0 -0.0 1.0
  outer loop
    vertex 0.2000000000000029 0.6499999999999988 0.4
    vertex 1.0 0.5499999999999982 0.4
    vertex 1.0 0.6499999999999986 0.4
  endloop
endfacet
facet normal -0.0 -0.0 1.0
  outer loop
    vertex -0.19999999999999707 0.549999999999999 0.4
    vertex 0.2000000000000029 0.6499999999999988 0.4
    vertex -0.1999999999999971 0.6499999999999989 0.4
  endloop
endfacet
facet normal -0.0 -0.0 1.0
  outer loop
    vertex 0.2000000000000029 0.6499999999999988 0.4
    vertex -0.19999999999999707 0.549999999999999 0.4
    vertex 0.2000000000000029 0.5499999999999987 0.4
  endloop
endfacet
facet normal -5.639932965095794e-17 -9.87346513128011e-33 1.0
  outer loop
    vertex -0.19999999999999707 0.549999999999999 0.4
    vertex -0.9999999999999971 0.6499999999999991 0.4
    vertex -0.9999999999999971 0.5499999999999995 0.4
  endloop
endfacet
facet normal -5.639932965095794e-17 -9.87346513128011e-33 1.0
  outer loop
    vertex -0.9999999999999971 0.6499999999999991 0.4
    vertex -0.19999999999999707 0.549999999999999 0.4
    vertex -0.1999999999999971 0.6499999999999989 0.4
  endloop
endfacet
facet normal 1.1279865930191588e-16 6.51445122063859e-33 1.0
  outer loop
    vertex -0.9999999999999971 0.5499999999999995 0.4
    vertex -1.399999999999997 0.6499999999999991 0.4
    vertex -1.399999999999997 0.5499999999999996 0.4
  endloop
endfacet
facet normal 1.1279865930191588e-16 6.51445122063859e-33 1.0
  outer loop
    vertex -1.399999999999997 0.6499999999999991 0.4
    vertex -0.9999999999999971 0.5499999999999995 0.4
    vertex -0.9999999999999971 0.6499999999999991 0.4
  endloop
endfacet
facet normal 0.0 0.0 -1.0
  outer loop
    vertex -1.5999999999999945 0.6499999999999999 0.0
    vertex -1.399999999999997 -0.6499999999999982 0.0
    vertex -1.6000000000000003 -0.6499999999999987 0.0
  endloop
endfacet
facet normal 0.0 0.0 -1.0
  outer loop
    vertex -1.399999999999997 -0.6499999999999982 0.0
    vertex -1.5999999999999945 0.6499999999999999 0.0
    vertex -1.399999999999997 0.6499999999999995 0.0
  endloop
endfacet
facet normal -1.0 7.494005416219807e-16 0.0
  outer loop
    vertex -1.5999999999999945 0.6499999999999999 0.4
    vertex -1.6000000000000003 -0.6499999999999987 0.0
    vertex -1.6000000000000003 -0.6499999999999987 0.4
  endloop
endfacet
facet normal -1.0 7.494005416219807e-16 0.0
  outer loop
    vertex -1.6000000000000003 -0.6499999999999987 0.0
    vertex -1.5999999999999945 0.6499999999999999 0.4
    vertex -1.5999999999999945 0.6499999999999999 0.0
  endloop
endfacet
endsolid RESONATOR-SMD-1_1
