solid SMA-DIODE
facet normal -0.0 -0.0 1.0
  outer loop
    vertex -1.7774550914764404 -1.3970000371336937 2.2699999809265137
    vertex -2.044699966907501 1.4029999673366544 2.2699999809265137
    vertex -2.044699966907501 -1.3970000371336937 2.2699999809265137
  endloop
endfacet
facet normal -0.0 -0.0 1.0
  outer loop
    vertex -2.044699966907501 1.4029999673366544 2.2699999809265137
    vertex -1.7774550914764404 -1.3970000371336937 2.2699999809265137
    vertex -1.7774550914764404 1.4029999673366544 2.2699999809265137
  endloop
endfacet
facet normal -0.0 -0.0 1.0
  outer loop
    vertex 2.0552998781204215 -1.3970000371336937 2.2699999809265137
    vertex -1.5670164823532107 1.4029999673366544 2.2699999809265137
    vertex -1.5670164823532107 -1.3970000371336937 2.2699999809265137
  endloop
endfacet
facet normal -0.0 -0.0 1.0
  outer loop
    vertex -1.5670164823532107 1.4029999673366544 2.2699999809265137
    vertex 2.0552998781204215 -1.3970000371336937 2.2699999809265137
    vertex 2.0552998781204215 1.4029999673366544 2.2699999809265137
  endloop
endfacet
facet normal 0.9925461491738016 -4.732217522557524e-11 -0.12186936350148836
  outer loop
    vertex 2.0552998781204215 1.4029999673366544 0.2699999511241913
    vertex 2.153527379035949 -0.8000000417232513 1.0700000524520874
    vertex 2.0552998781204215 -1.3970000371336937 0.2699999511241913
  endloop
endfacet
facet normal 0.9925461491738016 -4.732217522557524e-11 -0.12186936350148836
  outer loop
    vertex 2.153527379035949 -0.8000000417232513 1.0700000524520874
    vertex 2.0552998781204215 1.4029999673366544 0.2699999511241913
    vertex 2.153527379035949 0.8000000417232509 1.0700000524520874
  endloop
endfacet
facet normal 0.9925461491738016 -4.732217522557524e-11 -0.12186936350148836
  outer loop
    vertex 2.153527379035949 0.8000000417232509 1.0700000524520874
    vertex 2.0552998781204215 1.4029999673366544 0.2699999511241913
    vertex 2.1780844926834093 0.8000000417232509 1.2699999809265137
  endloop
endfacet
facet normal 0.9925461491738016 -4.732217522557524e-11 -0.12186936350148836
  outer loop
    vertex 2.1780844926834093 0.8000000417232509 1.2699999809265137
    vertex 2.0552998781204215 1.4029999673366544 0.2699999511241913
    vertex 2.1780844926834093 1.5257845818996432 1.2699999809265137
  endloop
endfacet
facet normal 0.9925461491738016 -4.732217522557524e-11 -0.12186936350148836
  outer loop
    vertex 2.0552998781204215 -1.3970000371336937 0.2699999511241913
    vertex 2.1780844926834093 -0.8000000417232513 1.2699999809265137
    vertex 2.1780844926834093 -1.5197845995426178 1.2699999809265137
  endloop
endfacet
facet normal 0.9925461491738016 -4.732217522557524e-11 -0.12186936350148836
  outer loop
    vertex 2.1780844926834093 -0.8000000417232513 1.2699999809265137
    vertex 2.0552998781204215 -1.3970000371336937 0.2699999511241913
    vertex 2.153527379035949 -0.8000000417232513 1.0700000524520874
  endloop
endfacet
facet normal -0.9925461496999919 -6.4740107212841785e-12 -0.12186935921601243
  outer loop
    vertex -2.167484551668167 1.5257845818996432 1.2699999809265137
    vertex -2.1429276168346405 0.8000000417232509 1.0700000524520874
    vertex -2.167484551668167 0.8000000417232509 1.2699999809265137
  endloop
endfacet
facet normal -0.9925461496999919 -6.4740107212841785e-12 -0.12186935921601243
  outer loop
    vertex -2.1429276168346405 0.8000000417232509 1.0700000524520874
    vertex -2.167484551668167 1.5257845818996432 1.2699999809265137
    vertex -2.044699966907501 1.4029999673366544 0.2699999511241913
  endloop
endfacet
facet normal -0.9925461496999919 -6.4740107212841785e-12 -0.12186935921601243
  outer loop
    vertex -2.167484551668167 -0.8000000417232513 1.2699999809265137
    vertex -2.044699966907501 -1.3970000371336937 0.2699999511241913
    vertex -2.167484551668167 -1.5197845995426178 1.2699999809265137
  endloop
endfacet
facet normal -0.9925461496999919 -6.4740107212841785e-12 -0.12186935921601243
  outer loop
    vertex -2.044699966907501 -1.3970000371336937 0.2699999511241913
    vertex -2.167484551668167 -0.8000000417232513 1.2699999809265137
    vertex -2.1429276168346405 -0.8000000417232513 1.0700000524520874
  endloop
endfacet
facet normal -0.9925461496999919 -6.4740107212841785e-12 -0.12186935921601243
  outer loop
    vertex -2.044699966907501 -1.3970000371336937 0.2699999511241913
    vertex -2.1429276168346405 -0.8000000417232513 1.0700000524520874
    vertex -2.044699966907501 1.4029999673366544 0.2699999511241913
  endloop
endfacet
facet normal -0.9925461496999919 -6.4740107212841785e-12 -0.12186935921601243
  outer loop
    vertex -2.044699966907501 1.4029999673366544 0.2699999511241913
    vertex -2.1429276168346405 -0.8000000417232513 1.0700000524520874
    vertex -2.1429276168346405 0.8000000417232509 1.0700000524520874
  endloop
endfacet
facet normal -0.9925461487769751 1.3427411279302007e-18 0.12186936673337893
  outer loop
    vertex -2.044699966907501 -1.3970000371336937 2.2699999809265137
    vertex -2.167484551668167 -0.8000000417232513 1.2699999809265137
    vertex -2.167484551668167 -1.5197845995426178 1.2699999809265137
  endloop
endfacet
facet normal -0.9925461487769751 1.3427411279302007e-18 0.12186936673337893
  outer loop
    vertex -2.167484551668167 -0.8000000417232513 1.2699999809265137
    vertex -2.044699966907501 -1.3970000371336937 2.2699999809265137
    vertex -2.044699966907501 1.4029999673366544 2.2699999809265137
  endloop
endfacet
facet normal -0.9925461487769751 1.3427411279302007e-18 0.12186936673337893
  outer loop
    vertex -2.167484551668167 -0.8000000417232513 1.2699999809265137
    vertex -2.044699966907501 1.4029999673366544 2.2699999809265137
    vertex -2.167484551668167 0.8000000417232509 1.2699999809265137
  endloop
endfacet
facet normal -0.9925461487769751 1.3427411279302007e-18 0.12186936673337893
  outer loop
    vertex -2.167484551668167 0.8000000417232509 1.2699999809265137
    vertex -2.044699966907501 1.4029999673366544 2.2699999809265137
    vertex -2.167484551668167 1.5257845818996432 1.2699999809265137
  endloop
endfacet
facet normal -1.7439665092163975e-18 -0.9925461514605105 0.12186934487774059
  outer loop
    vertex 2.0552998781204215 -1.3970000371336937 2.2699999809265137
    vertex -2.167484551668167 -1.5197845995426178 1.2699999809265137
    vertex 2.1780844926834093 -1.5197845995426178 1.2699999809265137
  endloop
endfacet
facet normal -1.7439665092163975e-18 -0.9925461514605105 0.12186934487774059
  outer loop
    vertex -2.167484551668167 -1.5197845995426178 1.2699999809265137
    vertex 2.0552998781204215 -1.3970000371336937 2.2699999809265137
    vertex -2.044699966907501 -1.3970000371336937 2.2699999809265137
  endloop
endfacet
facet normal -1.7439665092163975e-18 -0.9925461514605105 0.12186934487774059
  outer loop
    vertex -2.044699966907501 -1.3970000371336937 2.2699999809265137
    vertex 2.0552998781204215 -1.3970000371336937 2.2699999809265137
    vertex -1.5670164823532107 -1.3970000371336937 2.2699999809265137
  endloop
endfacet
facet normal -1.7439665092163975e-18 -0.9925461514605105 0.12186934487774059
  outer loop
    vertex -2.044699966907501 -1.3970000371336937 2.2699999809265137
    vertex -1.5670164823532107 -1.3970000371336937 2.2699999809265137
    vertex -1.7774550914764404 -1.3970000371336937 2.2699999809265137
  endloop
endfacet
facet normal 0.9925461451989275 3.867094434498419e-19 0.1218693958742299
  outer loop
    vertex 2.1780844926834093 -0.8000000417232513 1.2699999809265137
    vertex 2.0552998781204215 -1.3970000371336937 2.2699999809265137
    vertex 2.1780844926834093 -1.5197845995426178 1.2699999809265137
  endloop
endfacet
facet normal 0.9925461451989275 3.867094434498419e-19 0.1218693958742299
  outer loop
    vertex 2.0552998781204215 -1.3970000371336937 2.2699999809265137
    vertex 2.1780844926834093 -0.8000000417232513 1.2699999809265137
    vertex 2.0552998781204215 1.4029999673366544 2.2699999809265137
  endloop
endfacet
facet normal 0.9925461451989275 3.867094434498419e-19 0.1218693958742299
  outer loop
    vertex 2.0552998781204215 1.4029999673366544 2.2699999809265137
    vertex 2.1780844926834093 -0.8000000417232513 1.2699999809265137
    vertex 2.1780844926834093 0.8000000417232509 1.2699999809265137
  endloop
endfacet
facet normal 0.9925461451989275 3.867094434498419e-19 0.1218693958742299
  outer loop
    vertex 2.0552998781204215 1.4029999673366544 2.2699999809265137
    vertex 2.1780844926834093 0.8000000417232509 1.2699999809265137
    vertex 2.1780844926834093 1.5257845818996432 1.2699999809265137
  endloop
endfacet
facet normal -2.615949747321599e-18 0.9925461451989273 0.12186939587423058
  outer loop
    vertex -2.044699966907501 1.4029999673366544 2.2699999809265137
    vertex 2.1780844926834093 1.5257845818996432 1.2699999809265137
    vertex -2.167484551668167 1.5257845818996432 1.2699999809265137
  endloop
endfacet
facet normal -2.615949747321599e-18 0.9925461451989273 0.12186939587423058
  outer loop
    vertex 2.1780844926834093 1.5257845818996432 1.2699999809265137
    vertex -2.044699966907501 1.4029999673366544 2.2699999809265137
    vertex 2.0552998781204215 1.4029999673366544 2.2699999809265137
  endloop
endfacet
facet normal -2.615949747321599e-18 0.9925461451989273 0.12186939587423058
  outer loop
    vertex 2.0552998781204215 1.4029999673366544 2.2699999809265137
    vertex -2.044699966907501 1.4029999673366544 2.2699999809265137
    vertex -1.7774550914764404 1.4029999673366544 2.2699999809265137
  endloop
endfacet
facet normal -2.615949747321599e-18 0.9925461451989273 0.12186939587423058
  outer loop
    vertex 2.0552998781204215 1.4029999673366544 2.2699999809265137
    vertex -1.7774550914764404 1.4029999673366544 2.2699999809265137
    vertex -1.5670164823532107 1.4029999673366544 2.2699999809265137
  endloop
endfacet
facet normal -6.189282482700621e-19 0.9925461456382565 -0.12186939229618254
  outer loop
    vertex -2.167484551668167 1.5257845818996432 1.2699999809265137
    vertex 2.0552998781204215 1.4029999673366544 0.2699999511241913
    vertex -2.044699966907501 1.4029999673366544 0.2699999511241913
  endloop
endfacet
facet normal -6.189282482700621e-19 0.9925461456382565 -0.12186939229618254
  outer loop
    vertex 2.0552998781204215 1.4029999673366544 0.2699999511241913
    vertex -2.167484551668167 1.5257845818996432 1.2699999809265137
    vertex 2.1780844926834093 1.5257845818996432 1.2699999809265137
  endloop
endfacet
facet normal 1.0376603767027915e-20 -0.9925461518998392 -0.12186934129969398
  outer loop
    vertex 2.1780844926834093 -1.5197845995426178 1.2699999809265137
    vertex -2.044699966907501 -1.3970000371336937 0.2699999511241913
    vertex 2.0552998781204215 -1.3970000371336937 0.2699999511241913
  endloop
endfacet
facet normal 1.0376603767027915e-20 -0.9925461518998392 -0.12186934129969398
  outer loop
    vertex -2.044699966907501 -1.3970000371336937 0.2699999511241913
    vertex 2.1780844926834093 -1.5197845995426178 1.2699999809265137
    vertex -2.167484551668167 -1.5197845995426178 1.2699999809265137
  endloop
endfacet
facet normal 0.0 0.0 -1.0
  outer loop
    vertex 2.0552998781204215 1.4029999673366544 0.2699999511241913
    vertex -2.044699966907501 -1.3970000371336937 0.2699999511241913
    vertex -2.044699966907501 1.4029999673366544 0.2699999511241913
  endloop
endfacet
facet normal 0.0 0.0 -1.0
  outer loop
    vertex -2.044699966907501 -1.3970000371336937 0.2699999511241913
    vertex 2.0552998781204215 1.4029999673366544 0.2699999511241913
    vertex 2.0552998781204215 -1.3970000371336937 0.2699999511241913
  endloop
endfacet
facet normal -0.0 -0.0 1.0
  outer loop
    vertex -1.0230845212936404 -0.8000000417232513 0.20000000298023224
    vertex -2.3230845481157303 0.8000000417232509 0.20000000298023224
    vertex -2.3230845481157303 -0.8000000417232513 0.20000000298023224
  endloop
endfacet
facet normal -0.0 -0.0 1.0
  outer loop
    vertex -2.3230845481157303 0.8000000417232509 0.20000000298023224
    vertex -1.0230845212936404 -0.8000000417232513 0.20000000298023224
    vertex -1.0230845212936404 0.8000000417232509 0.20000000298023224
  endloop
endfacet
facet normal 1.0 -0.0 -0.0
  outer loop
    vertex -1.0230845212936404 0.8000000417232509 0.0
    vertex -1.0230845212936404 -0.8000000417232513 0.20000000298023224
    vertex -1.0230845212936404 -0.8000000417232513 0.0
  endloop
endfacet
facet normal 1.0 -0.0 -0.0
  outer loop
    vertex -1.0230845212936404 -0.8000000417232513 0.20000000298023224
    vertex -1.0230845212936404 0.8000000417232509 0.0
    vertex -1.0230845212936404 0.8000000417232509 0.20000000298023224
  endloop
endfacet
facet normal 0.0 0.0 -1.0
  outer loop
    vertex -1.0230845212936404 0.8000000417232509 0.0
    vertex -2.52308452129364 -0.8000000417232513 0.0
    vertex -2.52308452129364 0.8000000417232509 0.0
  endloop
endfacet
facet normal 0.0 0.0 -1.0
  outer loop
    vertex -2.52308452129364 -0.8000000417232513 0.0
    vertex -1.0230845212936404 0.8000000417232509 0.0
    vertex -1.0230845212936404 -0.8000000417232513 0.0
  endloop
endfacet
facet normal -1.0 0.0 0.0
  outer loop
    vertex -2.52308452129364 0.8000000417232509 1.2699999809265137
    vertex -2.52308452129364 -0.8000000417232513 0.0
    vertex -2.52308452129364 -0.8000000417232513 1.2699999809265137
  endloop
endfacet
facet normal -1.0 0.0 0.0
  outer loop
    vertex -2.52308452129364 -0.8000000417232513 0.0
    vertex -2.52308452129364 0.8000000417232509 1.2699999809265137
    vertex -2.52308452129364 0.8000000417232509 0.0
  endloop
endfacet
facet normal -0.0 -0.0 1.0
  outer loop
    vertex -2.167484551668167 -0.8000000417232513 1.2699999809265137
    vertex -2.52308452129364 0.8000000417232509 1.2699999809265137
    vertex -2.52308452129364 -0.8000000417232513 1.2699999809265137
  endloop
endfacet
facet normal -0.0 -0.0 1.0
  outer loop
    vertex -2.52308452129364 0.8000000417232509 1.2699999809265137
    vertex -2.167484551668167 -0.8000000417232513 1.2699999809265137
    vertex -2.167484551668167 0.8000000417232509 1.2699999809265137
  endloop
endfacet
facet normal 0.0 0.0 -1.0
  outer loop
    vertex -2.1429276168346405 0.8000000417232509 1.0700000524520874
    vertex -2.3230845481157303 -0.8000000417232513 1.0700000524520874
    vertex -2.3230845481157303 0.8000000417232509 1.0700000524520874
  endloop
endfacet
facet normal 0.0 0.0 -1.0
  outer loop
    vertex -2.3230845481157303 -0.8000000417232513 1.0700000524520874
    vertex -2.1429276168346405 0.8000000417232509 1.0700000524520874
    vertex -2.1429276168346405 -0.8000000417232513 1.0700000524520874
  endloop
endfacet
facet normal 1.0 -0.0 -0.0
  outer loop
    vertex -2.3230845481157303 0.8000000417232509 0.20000000298023224
    vertex -2.3230845481157303 -0.8000000417232513 1.0700000524520874
    vertex -2.3230845481157303 -0.8000000417232513 0.20000000298023224
  endloop
endfacet
facet normal 1.0 -0.0 -0.0
  outer loop
    vertex -2.3230845481157303 -0.8000000417232513 1.0700000524520874
    vertex -2.3230845481157303 0.8000000417232509 0.20000000298023224
    vertex -2.3230845481157303 0.8000000417232509 1.0700000524520874
  endloop
endfacet
facet normal -0.0 1.0 -0.0
  outer loop
    vertex -2.52308452129364 0.8000000417232509 0.0
    vertex -2.3230845481157303 0.8000000417232509 0.20000000298023224
    vertex -1.0230845212936404 0.8000000417232509 0.0
  endloop
endfacet
facet normal -0.0 1.0 -0.0
  outer loop
    vertex -2.3230845481157303 0.8000000417232509 0.20000000298023224
    vertex -2.52308452129364 0.8000000417232509 0.0
    vertex -2.52308452129364 0.8000000417232509 1.2699999809265137
  endloop
endfacet
facet normal -0.0 1.0 -0.0
  outer loop
    vertex -2.3230845481157303 0.8000000417232509 0.20000000298023224
    vertex -2.52308452129364 0.8000000417232509 1.2699999809265137
    vertex -2.3230845481157303 0.8000000417232509 1.0700000524520874
  endloop
endfacet
facet normal -0.0 1.0 -0.0
  outer loop
    vertex -2.3230845481157303 0.8000000417232509 1.0700000524520874
    vertex -2.52308452129364 0.8000000417232509 1.2699999809265137
    vertex -2.1429276168346405 0.8000000417232509 1.0700000524520874
  endloop
endfacet
facet normal -0.0 1.0 -0.0
  outer loop
    vertex -2.1429276168346405 0.8000000417232509 1.0700000524520874
    vertex -2.52308452129364 0.8000000417232509 1.2699999809265137
    vertex -2.167484551668167 0.8000000417232509 1.2699999809265137
  endloop
endfacet
facet normal -0.0 1.0 -0.0
  outer loop
    vertex -1.0230845212936404 0.8000000417232509 0.20000000298023224
    vertex -1.0230845212936404 0.8000000417232509 0.0
    vertex -2.3230845481157303 0.8000000417232509 0.20000000298023224
  endloop
endfacet
facet normal 0.0 -1.0 0.0
  outer loop
    vertex -2.167484551668167 -0.8000000417232513 1.2699999809265137
    vertex -2.3230845481157303 -0.8000000417232513 1.0700000524520874
    vertex -2.1429276168346405 -0.8000000417232513 1.0700000524520874
  endloop
endfacet
facet normal 0.0 -1.0 0.0
  outer loop
    vertex -1.0230845212936404 -0.8000000417232513 0.20000000298023224
    vertex -2.52308452129364 -0.8000000417232513 0.0
    vertex -1.0230845212936404 -0.8000000417232513 0.0
  endloop
endfacet
facet normal 0.0 -1.0 0.0
  outer loop
    vertex -2.52308452129364 -0.8000000417232513 0.0
    vertex -1.0230845212936404 -0.8000000417232513 0.20000000298023224
    vertex -2.3230845481157303 -0.8000000417232513 0.20000000298023224
  endloop
endfacet
facet normal 0.0 -1.0 0.0
  outer loop
    vertex -2.52308452129364 -0.8000000417232513 0.0
    vertex -2.3230845481157303 -0.8000000417232513 0.20000000298023224
    vertex -2.52308452129364 -0.8000000417232513 1.2699999809265137
  endloop
endfacet
facet normal 0.0 -1.0 0.0
  outer loop
    vertex -2.52308452129364 -0.8000000417232513 1.2699999809265137
    vertex -2.3230845481157303 -0.8000000417232513 0.20000000298023224
    vertex -2.3230845481157303 -0.8000000417232513 1.0700000524520874
  endloop
endfacet
facet normal 0.0 -1.0 0.0
  outer loop
    vertex -2.52308452129364 -0.8000000417232513 1.2699999809265137
    vertex -2.3230845481157303 -0.8000000417232513 1.0700000524520874
    vertex -2.167484551668167 -0.8000000417232513 1.2699999809265137
  endloop
endfacet
facet normal -0.0 -0.0 1.0
  outer loop
    vertex 2.323084473609924 -0.8000000417232513 0.20000000298023224
    vertex 1.0230845212936395 0.8000000417232509 0.20000000298023224
    vertex 1.0230845212936395 -0.8000000417232513 0.20000000298023224
  endloop
endfacet
facet normal -0.0 -0.0 1.0
  outer loop
    vertex 1.0230845212936395 0.8000000417232509 0.20000000298023224
    vertex 2.323084473609924 -0.8000000417232513 0.20000000298023224
    vertex 2.323084473609924 0.8000000417232509 0.20000000298023224
  endloop
endfacet
facet normal -1.0 0.0 0.0
  outer loop
    vertex 2.323084473609924 0.8000000417232509 1.0700000524520874
    vertex 2.323084473609924 -0.8000000417232513 0.20000000298023224
    vertex 2.323084473609924 -0.8000000417232513 1.0700000524520874
  endloop
endfacet
facet normal -1.0 0.0 0.0
  outer loop
    vertex 2.323084473609924 -0.8000000417232513 0.20000000298023224
    vertex 2.323084473609924 0.8000000417232509 1.0700000524520874
    vertex 2.323084473609924 0.8000000417232509 0.20000000298023224
  endloop
endfacet
facet normal 0.0 0.0 -1.0
  outer loop
    vertex 2.323084473609924 0.8000000417232509 1.0700000524520874
    vertex 2.153527379035949 -0.8000000417232513 1.0700000524520874
    vertex 2.153527379035949 0.8000000417232509 1.0700000524520874
  endloop
endfacet
facet normal 0.0 0.0 -1.0
  outer loop
    vertex 2.153527379035949 -0.8000000417232513 1.0700000524520874
    vertex 2.323084473609924 0.8000000417232509 1.0700000524520874
    vertex 2.323084473609924 -0.8000000417232513 1.0700000524520874
  endloop
endfacet
facet normal -0.0 -0.0 1.0
  outer loop
    vertex 2.5230847597122184 -0.8000000417232513 1.2699999809265137
    vertex 2.1780844926834093 0.8000000417232509 1.2699999809265137
    vertex 2.1780844926834093 -0.8000000417232513 1.2699999809265137
  endloop
endfacet
facet normal -0.0 -0.0 1.0
  outer loop
    vertex 2.1780844926834093 0.8000000417232509 1.2699999809265137
    vertex 2.5230847597122184 -0.8000000417232513 1.2699999809265137
    vertex 2.5230847597122184 0.8000000417232509 1.2699999809265137
  endloop
endfacet
facet normal 1.0 -0.0 -0.0
  outer loop
    vertex 2.5230847597122184 0.8000000417232509 0.0
    vertex 2.5230847597122184 -0.8000000417232513 1.2699999809265137
    vertex 2.5230847597122184 -0.8000000417232513 0.0
  endloop
endfacet
facet normal 1.0 -0.0 -0.0
  outer loop
    vertex 2.5230847597122184 -0.8000000417232513 1.2699999809265137
    vertex 2.5230847597122184 0.8000000417232509 0.0
    vertex 2.5230847597122184 0.8000000417232509 1.2699999809265137
  endloop
endfacet
facet normal 0.0 0.0 -1.0
  outer loop
    vertex 2.5230847597122184 0.8000000417232509 0.0
    vertex 1.0230845212936395 -0.8000000417232513 0.0
    vertex 1.0230845212936395 0.8000000417232509 0.0
  endloop
endfacet
facet normal 0.0 0.0 -1.0
  outer loop
    vertex 1.0230845212936395 -0.8000000417232513 0.0
    vertex 2.5230847597122184 0.8000000417232509 0.0
    vertex 2.5230847597122184 -0.8000000417232513 0.0
  endloop
endfacet
facet normal -1.0 0.0 0.0
  outer loop
    vertex 1.0230845212936395 0.8000000417232509 0.20000000298023224
    vertex 1.0230845212936395 -0.8000000417232513 0.0
    vertex 1.0230845212936395 -0.8000000417232513 0.20000000298023224
  endloop
endfacet
facet normal -1.0 0.0 0.0
  outer loop
    vertex 1.0230845212936395 -0.8000000417232513 0.0
    vertex 1.0230845212936395 0.8000000417232509 0.20000000298023224
    vertex 1.0230845212936395 0.8000000417232509 0.0
  endloop
endfacet
facet normal -0.0 1.0 -0.0
  outer loop
    vertex 2.1780844926834093 0.8000000417232509 1.2699999809265137
    vertex 2.323084473609924 0.8000000417232509 1.0700000524520874
    vertex 2.153527379035949 0.8000000417232509 1.0700000524520874
  endloop
endfacet
facet normal -0.0 1.0 -0.0
  outer loop
    vertex 1.0230845212936395 0.8000000417232509 0.20000000298023224
    vertex 2.5230847597122184 0.8000000417232509 0.0
    vertex 1.0230845212936395 0.8000000417232509 0.0
  endloop
endfacet
facet normal -0.0 1.0 -0.0
  outer loop
    vertex 2.5230847597122184 0.8000000417232509 0.0
    vertex 1.0230845212936395 0.8000000417232509 0.20000000298023224
    vertex 2.323084473609924 0.8000000417232509 0.20000000298023224
  endloop
endfacet
facet normal -0.0 1.0 -0.0
  outer loop
    vertex 2.5230847597122184 0.8000000417232509 0.0
    vertex 2.323084473609924 0.8000000417232509 0.20000000298023224
    vertex 2.5230847597122184 0.8000000417232509 1.2699999809265137
  endloop
endfacet
facet normal -0.0 1.0 -0.0
  outer loop
    vertex 2.5230847597122184 0.8000000417232509 1.2699999809265137
    vertex 2.323084473609924 0.8000000417232509 0.20000000298023224
    vertex 2.323084473609924 0.8000000417232509 1.0700000524520874
  endloop
endfacet
facet normal -0.0 1.0 -0.0
  outer loop
    vertex 2.5230847597122184 0.8000000417232509 1.2699999809265137
    vertex 2.323084473609924 0.8000000417232509 1.0700000524520874
    vertex 2.1780844926834093 0.8000000417232509 1.2699999809265137
  endloop
endfacet
facet normal 0.0 -1.0 0.0
  outer loop
    vertex 2.5230847597122184 -0.8000000417232513 0.0
    vertex 2.323084473609924 -0.8000000417232513 0.20000000298023224
    vertex 1.0230845212936395 -0.8000000417232513 0.0
  endloop
endfacet
facet normal 0.0 -1.0 0.0
  outer loop
    vertex 2.323084473609924 -0.8000000417232513 0.20000000298023224
    vertex 2.5230847597122184 -0.8000000417232513 0.0
    vertex 2.5230847597122184 -0.8000000417232513 1.2699999809265137
  endloop
endfacet
facet normal 0.0 -1.0 0.0
  outer loop
    vertex 2.323084473609924 -0.8000000417232513 0.20000000298023224
    vertex 2.5230847597122184 -0.8000000417232513 1.2699999809265137
    vertex 2.323084473609924 -0.8000000417232513 1.0700000524520874
  endloop
endfacet
facet normal 0.0 -1.0 0.0
  outer loop
    vertex 2.323084473609924 -0.8000000417232513 1.0700000524520874
    vertex 2.5230847597122184 -0.8000000417232513 1.2699999809265137
    vertex 2.153527379035949 -0.8000000417232513 1.0700000524520874
  endloop
endfacet
facet normal 0.0 -1.0 0.0
  outer loop
    vertex 2.153527379035949 -0.8000000417232513 1.0700000524520874
    vertex 2.5230847597122184 -0.8000000417232513 1.2699999809265137
    vertex 2.1780844926834093 -0.8000000417232513 1.2699999809265137
  endloop
endfacet
facet normal 0.0 -1.0 0.0
  outer loop
    vertex 1.0230845212936395 -0.8000000417232513 0.20000000298023224
    vertex 1.0230845212936395 -0.8000000417232513 0.0
    vertex 2.323084473609924 -0.8000000417232513 0.20000000298023224
  endloop
endfacet
facet normal -1.0 0.0 0.0
  outer loop
    vertex -1.7774550914764404 1.4029999673366544 2.2800002098083496
    vertex -1.7774550914764404 -1.3970000371336937 2.2699999809265137
    vertex -1.7774550914764404 -1.3970000371336937 2.2800002098083496
  endloop
endfacet
facet normal -1.0 0.0 0.0
  outer loop
    vertex -1.7774550914764404 -1.3970000371336937 2.2699999809265137
    vertex -1.7774550914764404 1.4029999673366544 2.2800002098083496
    vertex -1.7774550914764404 1.4029999673366544 2.2699999809265137
  endloop
endfacet
facet normal 0.0 -1.0 0.0
  outer loop
    vertex -1.5670164823532107 -1.3970000371336937 2.2800002098083496
    vertex -1.7774550914764404 -1.3970000371336937 2.2699999809265137
    vertex -1.5670164823532107 -1.3970000371336937 2.2699999809265137
  endloop
endfacet
facet normal 0.0 -1.0 0.0
  outer loop
    vertex -1.7774550914764404 -1.3970000371336937 2.2699999809265137
    vertex -1.5670164823532107 -1.3970000371336937 2.2800002098083496
    vertex -1.7774550914764404 -1.3970000371336937 2.2800002098083496
  endloop
endfacet
facet normal 1.0 -0.0 -0.0
  outer loop
    vertex -1.5670164823532107 1.4029999673366544 2.2699999809265137
    vertex -1.5670164823532107 -1.3970000371336937 2.2800002098083496
    vertex -1.5670164823532107 -1.3970000371336937 2.2699999809265137
  endloop
endfacet
facet normal 1.0 -0.0 -0.0
  outer loop
    vertex -1.5670164823532107 -1.3970000371336937 2.2800002098083496
    vertex -1.5670164823532107 1.4029999673366544 2.2699999809265137
    vertex -1.5670164823532107 1.4029999673366544 2.2800002098083496
  endloop
endfacet
facet normal -0.0 1.0 -0.0
  outer loop
    vertex -1.7774550914764404 1.4029999673366544 2.2800002098083496
    vertex -1.5670164823532107 1.4029999673366544 2.2699999809265137
    vertex -1.7774550914764404 1.4029999673366544 2.2699999809265137
  endloop
endfacet
facet normal -0.0 1.0 -0.0
  outer loop
    vertex -1.5670164823532107 1.4029999673366544 2.2699999809265137
    vertex -1.7774550914764404 1.4029999673366544 2.2800002098083496
    vertex -1.5670164823532107 1.4029999673366544 2.2800002098083496
  endloop
endfacet
facet normal -0.0 -0.0 1.0
  outer loop
    vertex -1.5670164823532107 -1.3970000371336937 2.2800002098083496
    vertex -1.7774550914764404 1.4029999673366544 2.2800002098083496
    vertex -1.7774550914764404 -1.3970000371336937 2.2800002098083496
  endloop
endfacet
facet normal -0.0 -0.0 1.0
  outer loop
    vertex -1.7774550914764404 1.4029999673366544 2.2800002098083496
    vertex -1.5670164823532107 -1.3970000371336937 2.2800002098083496
    vertex -1.5670164823532107 1.4029999673366544 2.2800002098083496
  endloop
endfacet
endsolid SMA-DIODE
