solid TO220V
facet normal 0.0 7.219112474152248e-15 -1.0
  outer loop
    vertex 2.285000324249269 0.10000002384185556 7.219114195322618e-16
    vertex 1.969999790191652 -0.10000002384185556 -7.219114195322618e-16
    vertex 1.969999790191652 0.10000002384185556 7.219114195322618e-16
  endloop
endfacet
facet normal 0.0 7.219112474152248e-15 -1.0
  outer loop
    vertex 1.969999790191652 -0.10000002384185556 -7.219114195322618e-16
    vertex 2.285000324249269 0.10000002384185556 7.219114195322618e-16
    vertex 2.285000324249269 -0.10000002384185556 -7.219114195322618e-16
  endloop
endfacet
facet normal 0.0 7.219112474152248e-15 -1.0
  outer loop
    vertex -0.2550001144409174 0.10000002384185556 7.219114195322618e-16
    vertex -0.5699996948242182 -0.10000002384185556 -7.219114195322618e-16
    vertex -0.5699996948242182 0.10000002384185556 7.219114195322618e-16
  endloop
endfacet
facet normal 0.0 7.219112474152248e-15 -1.0
  outer loop
    vertex -0.5699996948242182 -0.10000002384185556 -7.219114195322618e-16
    vertex -0.2550001144409174 0.10000002384185556 7.219114195322618e-16
    vertex -0.2550001144409174 -0.10000002384185556 -7.219114195322618e-16
  endloop
endfacet
facet normal 0.0 6.10065996531549e-16 -1.0
  outer loop
    vertex -5.099999904632568 2.6000000238418517 4.5
    vertex -3.1099998950958265 0.10000002384185556 4.5
    vertex -5.099999904632568 -0.9499999284744317 4.499999999999998
  endloop
endfacet
facet normal 0.0 6.10065996531549e-16 -1.0
  outer loop
    vertex -3.1099998950958265 0.10000002384185556 4.5
    vertex -5.099999904632568 2.6000000238418517 4.5
    vertex 5.1000008583068865 2.6000000238418517 4.5
  endloop
endfacet
facet normal 0.0 6.10065996531549e-16 -1.0
  outer loop
    vertex -3.1099998950958265 0.10000002384185556 4.5
    vertex 5.1000008583068865 2.6000000238418517 4.5
    vertex -1.969999790191652 0.10000002384185556 4.5
  endloop
endfacet
facet normal 0.0 6.10065996531549e-16 -1.0
  outer loop
    vertex -1.969999790191652 0.10000002384185556 4.5
    vertex 5.1000008583068865 2.6000000238418517 4.5
    vertex -1.969999790191652 -0.10000002384186134 4.500000000000001
  endloop
endfacet
facet normal 0.0 6.10065996531549e-16 -1.0
  outer loop
    vertex -1.969999790191652 -0.10000002384186134 4.500000000000001
    vertex 5.1000008583068865 2.6000000238418517 4.5
    vertex -0.5699996948242182 0.10000002384185556 4.5
  endloop
endfacet
facet normal 0.0 6.10065996531549e-16 -1.0
  outer loop
    vertex -0.5699996948242182 0.10000002384185556 4.5
    vertex 5.1000008583068865 2.6000000238418517 4.5
    vertex 0.5700001716613768 0.10000002384185556 4.5
  endloop
endfacet
facet normal 0.0 6.10065996531549e-16 -1.0
  outer loop
    vertex 0.5700001716613768 0.10000002384185556 4.5
    vertex 5.1000008583068865 2.6000000238418517 4.5
    vertex 0.5700001716613768 -0.10000002384186134 4.500000000000001
  endloop
endfacet
facet normal 0.0 6.10065996531549e-16 -1.0
  outer loop
    vertex 0.5700001716613768 -0.10000002384186134 4.500000000000001
    vertex 5.1000008583068865 2.6000000238418517 4.5
    vertex 1.969999790191652 0.10000002384185556 4.5
  endloop
endfacet
facet normal 0.0 6.10065996531549e-16 -1.0
  outer loop
    vertex 1.969999790191652 0.10000002384185556 4.5
    vertex 5.1000008583068865 2.6000000238418517 4.5
    vertex 3.1100001335144074 0.10000002384185556 4.5
  endloop
endfacet
facet normal 0.0 6.10065996531549e-16 -1.0
  outer loop
    vertex 3.1100001335144074 0.10000002384185556 4.5
    vertex 5.1000008583068865 2.6000000238418517 4.5
    vertex 3.1100001335144074 -0.10000002384186134 4.500000000000001
  endloop
endfacet
facet normal 0.0 6.10065996531549e-16 -1.0
  outer loop
    vertex -5.099999904632568 -0.9499999284744317 4.499999999999998
    vertex -3.1099998950958265 -0.10000002384186134 4.500000000000001
    vertex 5.1000008583068865 -0.9499999284744317 4.499999999999998
  endloop
endfacet
facet normal 0.0 6.10065996531549e-16 -1.0
  outer loop
    vertex -3.1099998950958265 -0.10000002384186134 4.500000000000001
    vertex -5.099999904632568 -0.9499999284744317 4.499999999999998
    vertex -3.1099998950958265 0.10000002384185556 4.5
  endloop
endfacet
facet normal 0.0 6.10065996531549e-16 -1.0
  outer loop
    vertex 5.1000008583068865 -0.9499999284744317 4.499999999999998
    vertex -3.1099998950958265 -0.10000002384186134 4.500000000000001
    vertex -1.969999790191652 -0.10000002384186134 4.500000000000001
  endloop
endfacet
facet normal 0.0 6.10065996531549e-16 -1.0
  outer loop
    vertex 5.1000008583068865 -0.9499999284744317 4.499999999999998
    vertex -1.969999790191652 -0.10000002384186134 4.500000000000001
    vertex -0.5699996948242182 -0.10000002384186134 4.500000000000001
  endloop
endfacet
facet normal 0.0 6.10065996531549e-16 -1.0
  outer loop
    vertex -0.5699996948242182 -0.10000002384186134 4.500000000000001
    vertex -1.969999790191652 -0.10000002384186134 4.500000000000001
    vertex -0.5699996948242182 0.10000002384185556 4.5
  endloop
endfacet
facet normal 0.0 6.10065996531549e-16 -1.0
  outer loop
    vertex 5.1000008583068865 -0.9499999284744317 4.499999999999998
    vertex -0.5699996948242182 -0.10000002384186134 4.500000000000001
    vertex 0.5700001716613768 -0.10000002384186134 4.500000000000001
  endloop
endfacet
facet normal 0.0 6.10065996531549e-16 -1.0
  outer loop
    vertex 5.1000008583068865 -0.9499999284744317 4.499999999999998
    vertex 0.5700001716613768 -0.10000002384186134 4.500000000000001
    vertex 1.969999790191652 -0.10000002384186134 4.500000000000001
  endloop
endfacet
facet normal 0.0 6.10065996531549e-16 -1.0
  outer loop
    vertex 1.969999790191652 -0.10000002384186134 4.500000000000001
    vertex 0.5700001716613768 -0.10000002384186134 4.500000000000001
    vertex 1.969999790191652 0.10000002384185556 4.5
  endloop
endfacet
facet normal 0.0 6.10065996531549e-16 -1.0
  outer loop
    vertex 5.1000008583068865 -0.9499999284744317 4.499999999999998
    vertex 1.969999790191652 -0.10000002384186134 4.500000000000001
    vertex 3.1100001335144074 -0.10000002384186134 4.500000000000001
  endloop
endfacet
facet normal 0.0 6.10065996531549e-16 -1.0
  outer loop
    vertex 5.1000008583068865 -0.9499999284744317 4.499999999999998
    vertex 3.1100001335144074 -0.10000002384186134 4.500000000000001
    vertex 5.1000008583068865 2.6000000238418517 4.5
  endloop
endfacet
facet normal 0.0 7.219112474152247e-15 -1.0
  outer loop
    vertex -2.7949998378753667 0.10000002384185556 7.219114195322618e-16
    vertex -3.1099998950958265 -0.10000002384185556 -7.219114195322618e-16
    vertex -3.1099998950958265 0.10000002384185556 7.219114195322618e-16
  endloop
endfacet
facet normal 0.0 7.219112474152247e-15 -1.0
  outer loop
    vertex -3.1099998950958265 -0.10000002384185556 -7.219114195322618e-16
    vertex -2.7949998378753667 0.10000002384185556 7.219114195322618e-16
    vertex -2.7949998378753667 -0.10000002384185556 -7.219114195322618e-16
  endloop
endfacet
facet normal 0.0 -1.0 9.492536347547598e-16
  outer loop
    vertex 5.1000008583068865 2.090000033378592 13.415965080261236
    vertex 0.473527908325195 2.090000033378595 15.781580924987802
    vertex -5.099999904632568 2.090000033378592 13.415965080261236
  endloop
endfacet
facet normal 0.0 -1.0 9.492536347547598e-16
  outer loop
    vertex 0.473527908325195 2.090000033378595 15.781580924987802
    vertex 5.1000008583068865 2.090000033378592 13.415965080261236
    vertex 0.6658701896667476 2.090000033378592 15.87856006622315
  endloop
endfacet
facet normal 0.0 -1.0 9.492536347547598e-16
  outer loop
    vertex 0.6658701896667476 2.090000033378592 15.87856006622315
    vertex 5.1000008583068865 2.090000033378592 13.415965080261236
    vertex 0.8390569686889652 2.090000033378595 16.00664615631104
  endloop
endfacet
facet normal 0.0 -1.0 9.492536347547598e-16
  outer loop
    vertex 0.8390569686889652 2.090000033378595 16.00664615631104
    vertex 5.1000008583068865 2.090000033378592 13.415965080261236
    vertex 5.1000008583068865 2.090000033378598 19.499999046325684
  endloop
endfacet
facet normal 0.0 -1.0 9.492536347547598e-16
  outer loop
    vertex -5.099999904632568 2.090000033378592 13.415965080261236
    vertex 0.473527908325195 2.090000033378595 15.781580924987802
    vertex 0.2675628662109376 2.090000033378595 15.718506813049322
  endloop
endfacet
facet normal 0.0 -1.0 9.492536347547598e-16
  outer loop
    vertex -5.099999904632568 2.090000033378592 13.415965080261236
    vertex 0.2675628662109376 2.090000033378595 15.718506813049322
    vertex 0.05390071868896436 2.090000033378592 15.691143989562992
  endloop
endfacet
facet normal 0.0 -1.0 9.492536347547598e-16
  outer loop
    vertex 0.8390569686889652 2.090000033378595 16.00664615631104
    vertex 5.1000008583068865 2.090000033378598 19.499999046325684
    vertex 0.9881057739257817 2.090000033378592 16.162161827087417
  endloop
endfacet
facet normal 0.0 -1.0 9.492536347547598e-16
  outer loop
    vertex 0.9881057739257817 2.090000033378592 16.162161827087417
    vertex 5.1000008583068865 2.090000033378598 19.499999046325684
    vertex 1.108727931976319 2.090000033378595 16.340628623962417
  endloop
endfacet
facet normal 0.0 -1.0 9.492536347547598e-16
  outer loop
    vertex 1.108727931976319 2.090000033378595 16.340628623962417
    vertex 5.1000008583068865 2.090000033378598 19.499999046325684
    vertex 1.1974544525146495 2.090000033378595 16.536911964416518
  endloop
endfacet
facet normal 0.0 -1.0 9.492536347547598e-16
  outer loop
    vertex 1.1974544525146495 2.090000033378595 16.536911964416518
    vertex 5.1000008583068865 2.090000033378598 19.499999046325684
    vertex 1.2517323493957535 2.090000033378595 16.74536991119385
  endloop
endfacet
facet normal 0.0 -1.0 9.492536347547598e-16
  outer loop
    vertex 1.2517323493957535 2.090000033378595 16.74536991119385
    vertex 5.1000008583068865 2.090000033378598 19.499999046325684
    vertex 1.269999980926514 2.090000033378598 16.960000038146983
  endloop
endfacet
facet normal 0.0 -1.0 9.492536347547598e-16
  outer loop
    vertex 1.269999980926514 2.090000033378598 16.960000038146983
    vertex 5.1000008583068865 2.090000033378598 19.499999046325684
    vertex 1.2517323493957535 2.090000033378595 17.17463016510011
  endloop
endfacet
facet normal 0.0 -1.0 9.492536347547598e-16
  outer loop
    vertex 1.2517323493957535 2.090000033378595 17.17463016510011
    vertex 5.1000008583068865 2.090000033378598 19.499999046325684
    vertex 1.1974544525146495 2.090000033378598 17.383088111877456
  endloop
endfacet
facet normal 0.0 -1.0 9.492536347547598e-16
  outer loop
    vertex 1.1974544525146495 2.090000033378598 17.383088111877456
    vertex 5.1000008583068865 2.090000033378598 19.499999046325684
    vertex 1.108727931976319 2.090000033378592 17.57937335968019
  endloop
endfacet
facet normal 0.0 -1.0 9.492536347547598e-16
  outer loop
    vertex 1.108727931976319 2.090000033378592 17.57937335968019
    vertex 5.1000008583068865 2.090000033378598 19.499999046325684
    vertex 0.9881057739257817 2.090000033378595 17.75784015655519
  endloop
endfacet
facet normal 0.0 -1.0 9.492536347547598e-16
  outer loop
    vertex 0.9881057739257817 2.090000033378595 17.75784015655519
    vertex 5.1000008583068865 2.090000033378598 19.499999046325684
    vertex 0.8390569686889652 2.090000033378598 17.913353919982924
  endloop
endfacet
facet normal 0.0 -1.0 9.492536347547598e-16
  outer loop
    vertex 0.8390569686889652 2.090000033378598 17.913353919982924
    vertex 5.1000008583068865 2.090000033378598 19.499999046325684
    vertex 0.6658701896667476 2.090000033378598 18.041441917419448
  endloop
endfacet
facet normal 0.0 -1.0 9.492536347547598e-16
  outer loop
    vertex 0.6658701896667476 2.090000033378598 18.041441917419448
    vertex 5.1000008583068865 2.090000033378598 19.499999046325684
    vertex 0.473527908325195 2.090000033378598 18.138419151306167
  endloop
endfacet
facet normal 0.0 -1.0 9.492536347547598e-16
  outer loop
    vertex 0.473527908325195 2.090000033378598 18.138419151306167
    vertex 5.1000008583068865 2.090000033378598 19.499999046325684
    vertex 0.2675628662109376 2.090000033378598 18.20149326324464
  endloop
endfacet
facet normal 0.0 -1.0 9.492536347547598e-16
  outer loop
    vertex 0.2675628662109376 2.090000033378598 18.20149326324464
    vertex 5.1000008583068865 2.090000033378598 19.499999046325684
    vertex 0.05390071868896436 2.090000033378595 18.22885608673097
  endloop
endfacet
facet normal 0.0 -1.0 9.492536347547598e-16
  outer loop
    vertex -5.099999904632568 2.090000033378592 13.415965080261236
    vertex -0.7551841735839852 2.090000033378592 15.9389238357544
    vertex -5.099999904632568 2.090000033378598 19.499999046325684
  endloop
endfacet
facet normal 0.0 -1.0 9.492536347547598e-16
  outer loop
    vertex -0.7551841735839852 2.090000033378592 15.9389238357544
    vertex -5.099999904632568 2.090000033378592 13.415965080261236
    vertex -0.5717587471008297 2.090000033378592 15.825984001159672
  endloop
endfacet
facet normal 0.0 -1.0 9.492536347547598e-16
  outer loop
    vertex -0.5717587471008297 2.090000033378592 15.825984001159672
    vertex -5.099999904632568 2.090000033378592 13.415965080261236
    vertex -0.3718848228454596 2.090000033378592 15.745667457580574
  endloop
endfacet
facet normal 0.0 -1.0 9.492536347547598e-16
  outer loop
    vertex -0.3718848228454596 2.090000033378592 15.745667457580574
    vertex -5.099999904632568 2.090000033378592 13.415965080261236
    vertex -0.1613125801086431 2.090000033378592 15.700285911560067
  endloop
endfacet
facet normal 0.0 -1.0 9.492536347547598e-16
  outer loop
    vertex -0.1613125801086431 2.090000033378592 15.700285911560067
    vertex -5.099999904632568 2.090000033378592 13.415965080261236
    vertex 0.05390071868896436 2.090000033378592 15.691143989562992
  endloop
endfacet
facet normal 0.0 -1.0 9.492536347547598e-16
  outer loop
    vertex -5.099999904632568 2.090000033378598 19.499999046325684
    vertex -0.7551841735839852 2.090000033378592 15.9389238357544
    vertex -0.9168839454650877 2.090000033378595 16.081236839294444
  endloop
endfacet
facet normal 0.0 -1.0 9.492536347547598e-16
  outer loop
    vertex -5.099999904632568 2.090000033378598 19.499999046325684
    vertex -0.9168839454650877 2.090000033378595 16.081236839294444
    vertex -1.0522069931030271 2.090000033378592 16.248831748962413
  endloop
endfacet
facet normal 0.0 -1.0 9.492536347547598e-16
  outer loop
    vertex -5.099999904632568 2.090000033378598 19.499999046325684
    vertex -1.0522069931030271 2.090000033378592 16.248831748962413
    vertex -1.1572601795196533 2.090000033378592 16.436884880065932
  endloop
endfacet
facet normal 0.0 -1.0 9.492536347547598e-16
  outer loop
    vertex -5.099999904632568 2.090000033378598 19.499999046325684
    vertex -1.1572601795196533 2.090000033378592 16.436884880065932
    vertex -1.229020833969116 2.090000033378598 16.63998889923097
  endloop
endfacet
facet normal 0.0 -1.0 9.492536347547598e-16
  outer loop
    vertex -5.099999904632568 2.090000033378598 19.499999046325684
    vertex -1.229020833969116 2.090000033378598 16.63998889923097
    vertex -1.2654247283935547 2.090000033378598 16.85229587554933
  endloop
endfacet
facet normal 0.0 -1.0 9.492536347547598e-16
  outer loop
    vertex -5.099999904632568 2.090000033378598 19.499999046325684
    vertex -1.2654247283935547 2.090000033378598 16.85229587554933
    vertex -1.2654247283935547 2.090000033378598 17.067704200744643
  endloop
endfacet
facet normal 0.0 -1.0 9.492536347547598e-16
  outer loop
    vertex -5.099999904632568 2.090000033378598 19.499999046325684
    vertex -1.2654247283935547 2.090000033378598 17.067704200744643
    vertex -1.229020833969116 2.090000033378592 17.280013084411635
  endloop
endfacet
facet normal 0.0 -1.0 9.492536347547598e-16
  outer loop
    vertex -5.099999904632568 2.090000033378598 19.499999046325684
    vertex -1.229020833969116 2.090000033378592 17.280013084411635
    vertex -1.1572601795196533 2.090000033378595 17.48311519622804
  endloop
endfacet
facet normal 0.0 -1.0 9.492536347547598e-16
  outer loop
    vertex -5.099999904632568 2.090000033378598 19.499999046325684
    vertex -1.1572601795196533 2.090000033378595 17.48311519622804
    vertex -1.0522069931030271 2.090000033378598 17.67116832733156
  endloop
endfacet
facet normal 0.0 -1.0 9.492536347547598e-16
  outer loop
    vertex -5.099999904632568 2.090000033378598 19.499999046325684
    vertex -1.0522069931030271 2.090000033378598 17.67116832733156
    vertex -0.9168839454650877 2.090000033378598 17.838763236999522
  endloop
endfacet
facet normal 0.0 -1.0 9.492536347547598e-16
  outer loop
    vertex -5.099999904632568 2.090000033378598 19.499999046325684
    vertex -0.9168839454650877 2.090000033378598 17.838763236999522
    vertex -0.7551841735839852 2.090000033378592 17.981076240539565
  endloop
endfacet
facet normal 0.0 -1.0 9.492536347547598e-16
  outer loop
    vertex -5.099999904632568 2.090000033378598 19.499999046325684
    vertex -0.7551841735839852 2.090000033378592 17.981076240539565
    vertex -0.5717587471008297 2.090000033378595 18.09401607513429
  endloop
endfacet
facet normal 0.0 -1.0 9.492536347547598e-16
  outer loop
    vertex -5.099999904632568 2.090000033378598 19.499999046325684
    vertex -0.5717587471008297 2.090000033378595 18.09401607513429
    vertex -0.3718848228454596 2.090000033378595 18.174332618713393
  endloop
endfacet
facet normal 0.0 -1.0 9.492536347547598e-16
  outer loop
    vertex -5.099999904632568 2.090000033378598 19.499999046325684
    vertex -0.3718848228454596 2.090000033378595 18.174332618713393
    vertex -0.1613125801086431 2.090000033378592 18.219714164733908
  endloop
endfacet
facet normal 0.0 -1.0 9.492536347547598e-16
  outer loop
    vertex -5.099999904632568 2.090000033378598 19.499999046325684
    vertex -0.1613125801086431 2.090000033378592 18.219714164733908
    vertex 0.05390071868896436 2.090000033378595 18.22885608673097
  endloop
endfacet
facet normal 0.0 -1.0 9.492536347547598e-16
  outer loop
    vertex -5.099999904632568 2.090000033378598 19.499999046325684
    vertex 0.05390071868896436 2.090000033378595 18.22885608673097
    vertex 5.1000008583068865 2.090000033378598 19.499999046325684
  endloop
endfacet
facet normal -1.0 1.403846892374962e-16 4.856302056661899e-17
  outer loop
    vertex -5.099999904632568 2.090000033378592 13.415965080261236
    vertex -5.099999904632568 -0.9499999284744317 4.499999999999998
    vertex -5.099999904632568 -0.9499999284744317 13.150000572204595
  endloop
endfacet
facet normal -1.0 1.403846892374962e-16 4.856302056661899e-17
  outer loop
    vertex -5.099999904632568 -0.9499999284744317 4.499999999999998
    vertex -5.099999904632568 2.090000033378592 13.415965080261236
    vertex -5.099999904632568 2.6000000238418517 4.5
  endloop
endfacet
facet normal -1.0 1.403846892374962e-16 4.856302056661899e-17
  outer loop
    vertex -5.099999904632568 2.6000000238418517 4.5
    vertex -5.099999904632568 2.090000033378592 13.415965080261236
    vertex -5.0999999046325675 2.6000000238418517 13.460584125746275
  endloop
endfacet
facet normal 1.0 -0.0 -0.0
  outer loop
    vertex 5.1000008583068865 2.6000000238418517 13.460584125746275
    vertex 5.1000008583068865 2.090000033378598 19.499999046325684
    vertex 5.1000008583068865 2.090000033378592 13.415965080261236
  endloop
endfacet
facet normal 1.0 -0.0 -0.0
  outer loop
    vertex 5.1000008583068865 2.090000033378598 19.499999046325684
    vertex 5.1000008583068865 2.6000000238418517 13.460584125746275
    vertex 5.1000008583068865 2.6000000238418486 19.499999046325687
  endloop
endfacet
facet normal -0.0 -1.13241009103004e-14 1.0
  outer loop
    vertex 5.1000008583068865 2.090000033378598 19.499999046325684
    vertex -5.099999904632568 2.6000000238418486 19.499999046325687
    vertex -5.099999904632568 2.090000033378598 19.499999046325684
  endloop
endfacet
facet normal -0.0 -1.13241009103004e-14 1.0
  outer loop
    vertex -5.099999904632568 2.6000000238418486 19.499999046325687
    vertex 5.1000008583068865 2.090000033378598 19.499999046325684
    vertex 5.1000008583068865 2.6000000238418486 19.499999046325687
  endloop
endfacet
facet normal 1.5360294202443253e-33 1.0 4.781333483628262e-16
  outer loop
    vertex -5.0999999046325675 2.6000000238418517 13.460584125746275
    vertex -0.5717587471008297 2.6000000238418517 15.825984001159672
    vertex 5.1000008583068865 2.6000000238418517 13.460584125746275
  endloop
endfacet
facet normal 1.5360294202443253e-33 1.0 4.781333483628262e-16
  outer loop
    vertex -0.5717587471008297 2.6000000238418517 15.825984001159672
    vertex -5.0999999046325675 2.6000000238418517 13.460584125746275
    vertex -0.7551841735839852 2.6000000238418486 15.9389238357544
  endloop
endfacet
facet normal 1.5360294202443253e-33 1.0 4.781333483628262e-16
  outer loop
    vertex -0.7551841735839852 2.6000000238418486 15.9389238357544
    vertex -5.0999999046325675 2.6000000238418517 13.460584125746275
    vertex -5.099999904632568 2.6000000238418486 19.499999046325687
  endloop
endfacet
facet normal 1.5360294202443253e-33 1.0 4.781333483628262e-16
  outer loop
    vertex 5.1000008583068865 2.6000000238418517 13.460584125746275
    vertex -0.5717587471008297 2.6000000238418517 15.825984001159672
    vertex -0.3718848228454596 2.6000000238418517 15.745667457580574
  endloop
endfacet
facet normal 1.5360294202443253e-33 1.0 4.781333483628262e-16
  outer loop
    vertex 5.1000008583068865 2.6000000238418517 13.460584125746275
    vertex -0.3718848228454596 2.6000000238418517 15.745667457580574
    vertex -0.1613125801086431 2.6000000238418517 15.700285911560067
  endloop
endfacet
facet normal 1.5360294202443253e-33 1.0 4.781333483628262e-16
  outer loop
    vertex 5.1000008583068865 2.6000000238418517 13.460584125746275
    vertex -0.1613125801086431 2.6000000238418517 15.700285911560067
    vertex 0.05390071868896436 2.6000000238418517 15.691143989562992
  endloop
endfacet
facet normal 1.5360294202443253e-33 1.0 4.781333483628262e-16
  outer loop
    vertex -0.7551841735839852 2.6000000238418486 15.9389238357544
    vertex -5.099999904632568 2.6000000238418486 19.499999046325687
    vertex -0.9168839454650877 2.6000000238418517 16.08123683929444
  endloop
endfacet
facet normal 1.5360294202443253e-33 1.0 4.781333483628262e-16
  outer loop
    vertex -0.9168839454650877 2.6000000238418517 16.08123683929444
    vertex -5.099999904632568 2.6000000238418486 19.499999046325687
    vertex -1.0522069931030271 2.6000000238418486 16.248831748962413
  endloop
endfacet
facet normal 1.5360294202443253e-33 1.0 4.781333483628262e-16
  outer loop
    vertex -1.0522069931030271 2.6000000238418486 16.248831748962413
    vertex -5.099999904632568 2.6000000238418486 19.499999046325687
    vertex -1.1572601795196533 2.6000000238418486 16.43688488006593
  endloop
endfacet
facet normal 1.5360294202443253e-33 1.0 4.781333483628262e-16
  outer loop
    vertex -1.1572601795196533 2.6000000238418486 16.43688488006593
    vertex -5.099999904632568 2.6000000238418486 19.499999046325687
    vertex -1.229020833969116 2.6000000238418486 16.63998889923097
  endloop
endfacet
facet normal 1.5360294202443253e-33 1.0 4.781333483628262e-16
  outer loop
    vertex -1.229020833969116 2.6000000238418486 16.63998889923097
    vertex -5.099999904632568 2.6000000238418486 19.499999046325687
    vertex -1.2654247283935547 2.6000000238418486 16.85229587554933
  endloop
endfacet
facet normal 1.5360294202443253e-33 1.0 4.781333483628262e-16
  outer loop
    vertex -1.2654247283935547 2.6000000238418486 16.85229587554933
    vertex -5.099999904632568 2.6000000238418486 19.499999046325687
    vertex -1.2699997425079332 2.6000000238418517 16.960000038146983
  endloop
endfacet
facet normal 1.5360294202443253e-33 1.0 4.781333483628262e-16
  outer loop
    vertex -1.2699997425079332 2.6000000238418517 16.960000038146983
    vertex -5.099999904632568 2.6000000238418486 19.499999046325687
    vertex -1.2654247283935547 2.6000000238418517 17.067704200744643
  endloop
endfacet
facet normal 1.5360294202443253e-33 1.0 4.781333483628262e-16
  outer loop
    vertex -1.2654247283935547 2.6000000238418517 17.067704200744643
    vertex -5.099999904632568 2.6000000238418486 19.499999046325687
    vertex -1.229020833969116 2.6000000238418517 17.280013084411635
  endloop
endfacet
facet normal 1.5360294202443253e-33 1.0 4.781333483628262e-16
  outer loop
    vertex -1.229020833969116 2.6000000238418517 17.280013084411635
    vertex -5.099999904632568 2.6000000238418486 19.499999046325687
    vertex -1.1572601795196533 2.6000000238418486 17.48311519622804
  endloop
endfacet
facet normal 1.5360294202443253e-33 1.0 4.781333483628262e-16
  outer loop
    vertex -1.1572601795196533 2.6000000238418486 17.48311519622804
    vertex -5.099999904632568 2.6000000238418486 19.499999046325687
    vertex -1.0522069931030271 2.6000000238418517 17.671168327331557
  endloop
endfacet
facet normal 1.5360294202443253e-33 1.0 4.781333483628262e-16
  outer loop
    vertex -1.0522069931030271 2.6000000238418517 17.671168327331557
    vertex -5.099999904632568 2.6000000238418486 19.499999046325687
    vertex -0.9168839454650877 2.6000000238418517 17.838763236999522
  endloop
endfacet
facet normal 1.5360294202443253e-33 1.0 4.781333483628262e-16
  outer loop
    vertex -0.9168839454650877 2.6000000238418517 17.838763236999522
    vertex -5.099999904632568 2.6000000238418486 19.499999046325687
    vertex -0.7551841735839852 2.6000000238418486 17.981076240539565
  endloop
endfacet
facet normal 1.5360294202443253e-33 1.0 4.781333483628262e-16
  outer loop
    vertex -0.7551841735839852 2.6000000238418486 17.981076240539565
    vertex -5.099999904632568 2.6000000238418486 19.499999046325687
    vertex -0.5717587471008297 2.6000000238418517 18.094016075134284
  endloop
endfacet
facet normal 1.5360294202443253e-33 1.0 4.781333483628262e-16
  outer loop
    vertex -0.5717587471008297 2.6000000238418517 18.094016075134284
    vertex -5.099999904632568 2.6000000238418486 19.499999046325687
    vertex -0.3718848228454596 2.6000000238418517 18.174332618713393
  endloop
endfacet
facet normal 1.5360294202443253e-33 1.0 4.781333483628262e-16
  outer loop
    vertex -0.3718848228454596 2.6000000238418517 18.174332618713393
    vertex -5.099999904632568 2.6000000238418486 19.499999046325687
    vertex -0.1613125801086431 2.6000000238418517 18.2197141647339
  endloop
endfacet
facet normal 1.5360294202443253e-33 1.0 4.781333483628262e-16
  outer loop
    vertex -0.1613125801086431 2.6000000238418517 18.2197141647339
    vertex -5.099999904632568 2.6000000238418486 19.499999046325687
    vertex 0.05390071868896436 2.6000000238418517 18.22885608673097
  endloop
endfacet
facet normal 1.5360294202443253e-33 1.0 4.781333483628262e-16
  outer loop
    vertex 5.1000008583068865 2.6000000238418517 13.460584125746275
    vertex 0.8390569686889652 2.6000000238418517 16.00664615631104
    vertex 5.1000008583068865 2.6000000238418486 19.499999046325687
  endloop
endfacet
facet normal 1.5360294202443253e-33 1.0 4.781333483628262e-16
  outer loop
    vertex 0.8390569686889652 2.6000000238418517 16.00664615631104
    vertex 5.1000008583068865 2.6000000238418517 13.460584125746275
    vertex 0.6658701896667476 2.6000000238418517 15.87856006622315
  endloop
endfacet
facet normal 1.5360294202443253e-33 1.0 4.781333483628262e-16
  outer loop
    vertex 0.6658701896667476 2.6000000238418517 15.87856006622315
    vertex 5.1000008583068865 2.6000000238418517 13.460584125746275
    vertex 0.473527908325195 2.6000000238418517 15.781580924987802
  endloop
endfacet
facet normal 1.5360294202443253e-33 1.0 4.781333483628262e-16
  outer loop
    vertex 0.473527908325195 2.6000000238418517 15.781580924987802
    vertex 5.1000008583068865 2.6000000238418517 13.460584125746275
    vertex 0.2675628662109376 2.6000000238418486 15.718506813049322
  endloop
endfacet
facet normal 1.5360294202443253e-33 1.0 4.781333483628262e-16
  outer loop
    vertex 0.2675628662109376 2.6000000238418486 15.718506813049322
    vertex 5.1000008583068865 2.6000000238418517 13.460584125746275
    vertex 0.05390071868896436 2.6000000238418517 15.691143989562992
  endloop
endfacet
facet normal 1.5360294202443253e-33 1.0 4.781333483628262e-16
  outer loop
    vertex 5.1000008583068865 2.6000000238418486 19.499999046325687
    vertex 0.8390569686889652 2.6000000238418517 16.00664615631104
    vertex 0.9881057739257817 2.6000000238418517 16.162161827087417
  endloop
endfacet
facet normal 1.5360294202443253e-33 1.0 4.781333483628262e-16
  outer loop
    vertex 5.1000008583068865 2.6000000238418486 19.499999046325687
    vertex 0.9881057739257817 2.6000000238418517 16.162161827087417
    vertex 1.108727931976319 2.6000000238418517 16.340628623962417
  endloop
endfacet
facet normal 1.5360294202443253e-33 1.0 4.781333483628262e-16
  outer loop
    vertex 5.1000008583068865 2.6000000238418486 19.499999046325687
    vertex 1.108727931976319 2.6000000238418517 16.340628623962417
    vertex 1.1974544525146495 2.6000000238418486 16.536911964416518
  endloop
endfacet
facet normal 1.5360294202443253e-33 1.0 4.781333483628262e-16
  outer loop
    vertex 5.1000008583068865 2.6000000238418486 19.499999046325687
    vertex 1.1974544525146495 2.6000000238418486 16.536911964416518
    vertex 1.2517323493957535 2.6000000238418486 16.74536991119386
  endloop
endfacet
facet normal 1.5360294202443253e-33 1.0 4.781333483628262e-16
  outer loop
    vertex 5.1000008583068865 2.6000000238418486 19.499999046325687
    vertex 1.2517323493957535 2.6000000238418486 16.74536991119386
    vertex 1.269999980926514 2.6000000238418517 16.960000038146983
  endloop
endfacet
facet normal 1.5360294202443253e-33 1.0 4.781333483628262e-16
  outer loop
    vertex 5.1000008583068865 2.6000000238418486 19.499999046325687
    vertex 1.269999980926514 2.6000000238418517 16.960000038146983
    vertex 1.2517323493957535 2.6000000238418517 17.174630165100105
  endloop
endfacet
facet normal 1.5360294202443253e-33 1.0 4.781333483628262e-16
  outer loop
    vertex 5.1000008583068865 2.6000000238418486 19.499999046325687
    vertex 1.2517323493957535 2.6000000238418517 17.174630165100105
    vertex 1.1974544525146495 2.6000000238418517 17.383088111877456
  endloop
endfacet
facet normal 1.5360294202443253e-33 1.0 4.781333483628262e-16
  outer loop
    vertex 5.1000008583068865 2.6000000238418486 19.499999046325687
    vertex 1.1974544525146495 2.6000000238418517 17.383088111877456
    vertex 1.108727931976319 2.6000000238418517 17.57937335968019
  endloop
endfacet
facet normal 1.5360294202443253e-33 1.0 4.781333483628262e-16
  outer loop
    vertex 5.1000008583068865 2.6000000238418486 19.499999046325687
    vertex 1.108727931976319 2.6000000238418517 17.57937335968019
    vertex 0.9881057739257817 2.6000000238418517 17.75784015655519
  endloop
endfacet
facet normal 1.5360294202443253e-33 1.0 4.781333483628262e-16
  outer loop
    vertex 5.1000008583068865 2.6000000238418486 19.499999046325687
    vertex 0.9881057739257817 2.6000000238418517 17.75784015655519
    vertex 0.8390569686889652 2.6000000238418517 17.913353919982924
  endloop
endfacet
facet normal 1.5360294202443253e-33 1.0 4.781333483628262e-16
  outer loop
    vertex 5.1000008583068865 2.6000000238418486 19.499999046325687
    vertex 0.8390569686889652 2.6000000238418517 17.913353919982924
    vertex 0.6658701896667476 2.6000000238418517 18.041441917419448
  endloop
endfacet
facet normal 1.5360294202443253e-33 1.0 4.781333483628262e-16
  outer loop
    vertex 5.1000008583068865 2.6000000238418486 19.499999046325687
    vertex 0.6658701896667476 2.6000000238418517 18.041441917419448
    vertex 0.473527908325195 2.6000000238418517 18.138419151306167
  endloop
endfacet
facet normal 1.5360294202443253e-33 1.0 4.781333483628262e-16
  outer loop
    vertex 5.1000008583068865 2.6000000238418486 19.499999046325687
    vertex 0.473527908325195 2.6000000238418517 18.138419151306167
    vertex 0.2675628662109376 2.6000000238418517 18.201493263244636
  endloop
endfacet
facet normal 1.5360294202443253e-33 1.0 4.781333483628262e-16
  outer loop
    vertex 5.1000008583068865 2.6000000238418486 19.499999046325687
    vertex 0.2675628662109376 2.6000000238418517 18.201493263244636
    vertex 0.05390071868896436 2.6000000238418517 18.22885608673097
  endloop
endfacet
facet normal 1.5360294202443253e-33 1.0 4.781333483628262e-16
  outer loop
    vertex 5.1000008583068865 2.6000000238418486 19.499999046325687
    vertex 0.05390071868896436 2.6000000238418517 18.22885608673097
    vertex -5.099999904632568 2.6000000238418486 19.499999046325687
  endloop
endfacet
facet normal -0.0 -0.08715540917538081 0.996194727275482
  outer loop
    vertex 5.1000008583068865 -0.9499999284744317 13.150000572204595
    vertex -5.099999904632568 2.090000033378592 13.415965080261236
    vertex -5.099999904632568 -0.9499999284744317 13.150000572204595
  endloop
endfacet
facet normal -0.0 -0.08715540917538081 0.996194727275482
  outer loop
    vertex -5.099999904632568 2.090000033378592 13.415965080261236
    vertex 5.1000008583068865 -0.9499999284744317 13.150000572204595
    vertex 5.1000008583068865 2.090000033378592 13.415965080261236
  endloop
endfacet
facet normal 0.0 -1.0 0.0
  outer loop
    vertex 5.1000008583068865 -0.9499999284744317 13.150000572204595
    vertex -5.099999904632568 -0.9499999284744317 4.499999999999998
    vertex 5.1000008583068865 -0.9499999284744317 4.499999999999998
  endloop
endfacet
facet normal 0.0 -1.0 0.0
  outer loop
    vertex -5.099999904632568 -0.9499999284744317 4.499999999999998
    vertex 5.1000008583068865 -0.9499999284744317 13.150000572204595
    vertex -5.099999904632568 -0.9499999284744317 13.150000572204595
  endloop
endfacet
facet normal -0.0 1.0 -0.0
  outer loop
    vertex -3.1099998950958265 0.10000002384185556 4.5
    vertex -2.7949998378753667 0.10000002384185556 7.219114195322618e-16
    vertex -3.1099998950958265 0.10000002384185556 7.219114195322618e-16
  endloop
endfacet
facet normal -0.0 1.0 -0.0
  outer loop
    vertex -2.7949998378753667 0.10000002384185556 7.219114195322618e-16
    vertex -3.1099998950958265 0.10000002384185556 4.5
    vertex -2.2849998474121103 0.10000002384185556 7.219114195322618e-16
  endloop
endfacet
facet normal -0.0 1.0 -0.0
  outer loop
    vertex -2.2849998474121103 0.10000002384185556 7.219114195322618e-16
    vertex -3.1099998950958265 0.10000002384185556 4.5
    vertex -1.969999790191652 0.10000002384185556 7.219114195322618e-16
  endloop
endfacet
facet normal -0.0 1.0 -0.0
  outer loop
    vertex -1.969999790191652 0.10000002384185556 7.219114195322618e-16
    vertex -3.1099998950958265 0.10000002384185556 4.5
    vertex -1.969999790191652 0.10000002384185556 4.5
  endloop
endfacet
facet normal 0.0 7.219112474152248e-15 -1.0
  outer loop
    vertex -1.969999790191652 0.10000002384185556 7.219114195322618e-16
    vertex -2.2849998474121103 -0.10000002384185556 -7.219114195322618e-16
    vertex -2.2849998474121103 0.10000002384185556 7.219114195322618e-16
  endloop
endfacet
facet normal 0.0 7.219112474152248e-15 -1.0
  outer loop
    vertex -2.2849998474121103 -0.10000002384185556 -7.219114195322618e-16
    vertex -1.969999790191652 0.10000002384185556 7.219114195322618e-16
    vertex -1.969999790191652 -0.10000002384185556 -7.219114195322618e-16
  endloop
endfacet
facet normal -1.1722602895102245e-31 -1.0 -1.283398079168465e-15
  outer loop
    vertex -1.969999790191652 -0.10000002384186134 4.500000000000001
    vertex -2.2849998474121103 -0.10000002384185556 -7.219114195322618e-16
    vertex -1.969999790191652 -0.10000002384185556 -7.219114195322618e-16
  endloop
endfacet
facet normal -1.1722602895102245e-31 -1.0 -1.283398079168465e-15
  outer loop
    vertex -2.2849998474121103 -0.10000002384185556 -7.219114195322618e-16
    vertex -1.969999790191652 -0.10000002384186134 4.500000000000001
    vertex -2.7949998378753667 -0.10000002384185556 -7.219114195322618e-16
  endloop
endfacet
facet normal -1.1722602895102245e-31 -1.0 -1.283398079168465e-15
  outer loop
    vertex -2.7949998378753667 -0.10000002384185556 -7.219114195322618e-16
    vertex -1.969999790191652 -0.10000002384186134 4.500000000000001
    vertex -3.1099998950958265 -0.10000002384185556 -7.219114195322618e-16
  endloop
endfacet
facet normal -1.1722602895102245e-31 -1.0 -1.283398079168465e-15
  outer loop
    vertex -3.1099998950958265 -0.10000002384185556 -7.219114195322618e-16
    vertex -1.969999790191652 -0.10000002384186134 4.500000000000001
    vertex -3.1099998950958265 -0.10000002384186134 4.500000000000001
  endloop
endfacet
facet normal -1.0 0.0 0.0
  outer loop
    vertex -3.1099998950958265 0.10000002384185556 4.5
    vertex -3.1099998950958265 -0.10000002384185556 -7.219114195322618e-16
    vertex -3.1099998950958265 -0.10000002384186134 4.500000000000001
  endloop
endfacet
facet normal -1.0 0.0 0.0
  outer loop
    vertex -3.1099998950958265 -0.10000002384185556 -7.219114195322618e-16
    vertex -3.1099998950958265 0.10000002384185556 4.5
    vertex -3.1099998950958265 0.10000002384185556 7.219114195322618e-16
  endloop
endfacet
facet normal 1.0 -0.0 -0.0
  outer loop
    vertex -1.969999790191652 -0.10000002384185556 -7.219114195322618e-16
    vertex -1.969999790191652 0.10000002384185556 4.5
    vertex -1.969999790191652 -0.10000002384186134 4.500000000000001
  endloop
endfacet
facet normal 1.0 -0.0 -0.0
  outer loop
    vertex -1.969999790191652 0.10000002384185556 4.5
    vertex -1.969999790191652 -0.10000002384185556 -7.219114195322618e-16
    vertex -1.969999790191652 0.10000002384185556 7.219114195322618e-16
  endloop
endfacet
facet normal -0.0 1.0 -0.0
  outer loop
    vertex -0.5699996948242182 0.10000002384185556 4.5
    vertex -0.2550001144409174 0.10000002384185556 7.219114195322618e-16
    vertex -0.5699996948242182 0.10000002384185556 7.219114195322618e-16
  endloop
endfacet
facet normal -0.0 1.0 -0.0
  outer loop
    vertex -0.2550001144409174 0.10000002384185556 7.219114195322618e-16
    vertex -0.5699996948242182 0.10000002384185556 4.5
    vertex 0.2550001144409172 0.10000002384185556 7.219114195322618e-16
  endloop
endfacet
facet normal -0.0 1.0 -0.0
  outer loop
    vertex 0.2550001144409172 0.10000002384185556 7.219114195322618e-16
    vertex -0.5699996948242182 0.10000002384185556 4.5
    vertex 0.5700001716613768 0.10000002384185556 7.219114195322618e-16
  endloop
endfacet
facet normal -0.0 1.0 -0.0
  outer loop
    vertex 0.5700001716613768 0.10000002384185556 7.219114195322618e-16
    vertex -0.5699996948242182 0.10000002384185556 4.5
    vertex 0.5700001716613768 0.10000002384185556 4.5
  endloop
endfacet
facet normal 0.0 7.219112474152248e-15 -1.0
  outer loop
    vertex 0.5700001716613768 0.10000002384185556 7.219114195322618e-16
    vertex 0.2550001144409172 -0.10000002384185556 -7.219114195322618e-16
    vertex 0.2550001144409172 0.10000002384185556 7.219114195322618e-16
  endloop
endfacet
facet normal 0.0 7.219112474152248e-15 -1.0
  outer loop
    vertex 0.2550001144409172 -0.10000002384185556 -7.219114195322618e-16
    vertex 0.5700001716613768 0.10000002384185556 7.219114195322618e-16
    vertex 0.5700001716613768 -0.10000002384185556 -7.219114195322618e-16
  endloop
endfacet
facet normal 1.2776224788328823e-32 -1.0 -1.283398079168465e-15
  outer loop
    vertex 0.5700001716613768 -0.10000002384186134 4.500000000000001
    vertex 0.2550001144409172 -0.10000002384185556 -7.219114195322618e-16
    vertex 0.5700001716613768 -0.10000002384185556 -7.219114195322618e-16
  endloop
endfacet
facet normal 1.2776224788328823e-32 -1.0 -1.283398079168465e-15
  outer loop
    vertex 0.2550001144409172 -0.10000002384185556 -7.219114195322618e-16
    vertex 0.5700001716613768 -0.10000002384186134 4.500000000000001
    vertex -0.2550001144409174 -0.10000002384185556 -7.219114195322618e-16
  endloop
endfacet
facet normal 1.2776224788328823e-32 -1.0 -1.283398079168465e-15
  outer loop
    vertex -0.2550001144409174 -0.10000002384185556 -7.219114195322618e-16
    vertex 0.5700001716613768 -0.10000002384186134 4.500000000000001
    vertex -0.5699996948242182 -0.10000002384185556 -7.219114195322618e-16
  endloop
endfacet
facet normal 1.2776224788328823e-32 -1.0 -1.283398079168465e-15
  outer loop
    vertex -0.5699996948242182 -0.10000002384185556 -7.219114195322618e-16
    vertex 0.5700001716613768 -0.10000002384186134 4.500000000000001
    vertex -0.5699996948242182 -0.10000002384186134 4.500000000000001
  endloop
endfacet
facet normal -1.0 0.0 0.0
  outer loop
    vertex -0.5699996948242182 0.10000002384185556 4.5
    vertex -0.5699996948242182 -0.10000002384185556 -7.219114195322618e-16
    vertex -0.5699996948242182 -0.10000002384186134 4.500000000000001
  endloop
endfacet
facet normal -1.0 0.0 0.0
  outer loop
    vertex -0.5699996948242182 -0.10000002384185556 -7.219114195322618e-16
    vertex -0.5699996948242182 0.10000002384185556 4.5
    vertex -0.5699996948242182 0.10000002384185556 7.219114195322618e-16
  endloop
endfacet
facet normal 1.0 -0.0 -0.0
  outer loop
    vertex 0.5700001716613768 -0.10000002384185556 -7.219114195322618e-16
    vertex 0.5700001716613768 0.10000002384185556 4.5
    vertex 0.5700001716613768 -0.10000002384186134 4.500000000000001
  endloop
endfacet
facet normal 1.0 -0.0 -0.0
  outer loop
    vertex 0.5700001716613768 0.10000002384185556 4.5
    vertex 0.5700001716613768 -0.10000002384185556 -7.219114195322618e-16
    vertex 0.5700001716613768 0.10000002384185556 7.219114195322618e-16
  endloop
endfacet
facet normal -0.0 1.0 -0.0
  outer loop
    vertex 1.969999790191652 0.10000002384185556 4.5
    vertex 2.285000324249269 0.10000002384185556 7.219114195322618e-16
    vertex 1.969999790191652 0.10000002384185556 7.219114195322618e-16
  endloop
endfacet
facet normal -0.0 1.0 -0.0
  outer loop
    vertex 2.285000324249269 0.10000002384185556 7.219114195322618e-16
    vertex 1.969999790191652 0.10000002384185556 4.5
    vertex 2.7950005531311053 0.10000002384185556 7.219114195322618e-16
  endloop
endfacet
facet normal -0.0 1.0 -0.0
  outer loop
    vertex 2.7950005531311053 0.10000002384185556 7.219114195322618e-16
    vertex 1.969999790191652 0.10000002384185556 4.5
    vertex 3.1100001335144074 0.10000002384185556 7.219114195322618e-16
  endloop
endfacet
facet normal -0.0 1.0 -0.0
  outer loop
    vertex 3.1100001335144074 0.10000002384185556 7.219114195322618e-16
    vertex 1.969999790191652 0.10000002384185556 4.5
    vertex 3.1100001335144074 0.10000002384185556 4.5
  endloop
endfacet
facet normal 0.0 7.219112474152248e-15 -1.0
  outer loop
    vertex 3.1100001335144074 0.10000002384185556 7.219114195322618e-16
    vertex 2.7950005531311053 -0.10000002384185556 -7.219114195322618e-16
    vertex 2.7950005531311053 0.10000002384185556 7.219114195322618e-16
  endloop
endfacet
facet normal 0.0 7.219112474152248e-15 -1.0
  outer loop
    vertex 2.7950005531311053 -0.10000002384185556 -7.219114195322618e-16
    vertex 3.1100001335144074 0.10000002384185556 7.219114195322618e-16
    vertex 3.1100001335144074 -0.10000002384185556 -7.219114195322618e-16
  endloop
endfacet
facet normal -8.295142018768398e-32 -1.0 -1.2833980791684647e-15
  outer loop
    vertex 3.1100001335144074 -0.10000002384186134 4.500000000000001
    vertex 2.7950005531311053 -0.10000002384185556 -7.219114195322618e-16
    vertex 3.1100001335144074 -0.10000002384185556 -7.219114195322618e-16
  endloop
endfacet
facet normal -8.295142018768398e-32 -1.0 -1.2833980791684647e-15
  outer loop
    vertex 2.7950005531311053 -0.10000002384185556 -7.219114195322618e-16
    vertex 3.1100001335144074 -0.10000002384186134 4.500000000000001
    vertex 2.285000324249269 -0.10000002384185556 -7.219114195322618e-16
  endloop
endfacet
facet normal -8.295142018768398e-32 -1.0 -1.2833980791684647e-15
  outer loop
    vertex 2.285000324249269 -0.10000002384185556 -7.219114195322618e-16
    vertex 3.1100001335144074 -0.10000002384186134 4.500000000000001
    vertex 1.969999790191652 -0.10000002384185556 -7.219114195322618e-16
  endloop
endfacet
facet normal -8.295142018768398e-32 -1.0 -1.2833980791684647e-15
  outer loop
    vertex 1.969999790191652 -0.10000002384185556 -7.219114195322618e-16
    vertex 3.1100001335144074 -0.10000002384186134 4.500000000000001
    vertex 1.969999790191652 -0.10000002384186134 4.500000000000001
  endloop
endfacet
facet normal -1.0 0.0 0.0
  outer loop
    vertex 1.969999790191652 0.10000002384185556 4.5
    vertex 1.969999790191652 -0.10000002384185556 -7.219114195322618e-16
    vertex 1.969999790191652 -0.10000002384186134 4.500000000000001
  endloop
endfacet
facet normal -1.0 0.0 0.0
  outer loop
    vertex 1.969999790191652 -0.10000002384185556 -7.219114195322618e-16
    vertex 1.969999790191652 0.10000002384185556 4.5
    vertex 1.969999790191652 0.10000002384185556 7.219114195322618e-16
  endloop
endfacet
facet normal 1.0 -0.0 -0.0
  outer loop
    vertex 3.1100001335144074 -0.10000002384185556 -7.219114195322618e-16
    vertex 3.1100001335144074 0.10000002384185556 4.5
    vertex 3.1100001335144074 -0.10000002384186134 4.500000000000001
  endloop
endfacet
facet normal 1.0 -0.0 -0.0
  outer loop
    vertex 3.1100001335144074 0.10000002384185556 4.5
    vertex 3.1100001335144074 -0.10000002384185556 -7.219114195322618e-16
    vertex 3.1100001335144074 0.10000002384185556 7.219114195322618e-16
  endloop
endfacet
facet normal 0.9990990458787663 -7.344962200032476e-19 -0.04243932756464219
  outer loop
    vertex -1.2654247283935547 2.6000000238418517 17.067704200744643
    vertex -1.2654247283935547 2.090000033378598 17.067704200744643
    vertex -1.2699997425079332 2.6000000238418517 16.960000038146983
  endloop
endfacet
facet normal 0.9856160028931585 4.076633798480324e-19 -0.16900028059418595
  outer loop
    vertex -1.2654247283935547 2.090000033378598 17.067704200744643
    vertex -1.229020833969116 2.6000000238418517 17.280013084411635
    vertex -1.229020833969116 2.090000033378592 17.280013084411635
  endloop
endfacet
facet normal 0.9856160028931585 4.076633798480324e-19 -0.16900028059418595
  outer loop
    vertex -1.229020833969116 2.6000000238418517 17.280013084411635
    vertex -1.2654247283935547 2.090000033378598 17.067704200744643
    vertex -1.2654247283935547 2.6000000238418517 17.067704200744643
  endloop
endfacet
facet normal 0.9428772804277908 -0.0 -0.3331402618313992
  outer loop
    vertex -1.229020833969116 2.6000000238418517 17.280013084411635
    vertex -1.1572601795196533 2.090000033378595 17.48311519622804
    vertex -1.229020833969116 2.090000033378592 17.280013084411635
  endloop
endfacet
facet normal 0.9428772804277908 -0.0 -0.3331402618313992
  outer loop
    vertex -1.1572601795196533 2.090000033378595 17.48311519622804
    vertex -1.229020833969116 2.6000000238418517 17.280013084411635
    vertex -1.1572601795196533 2.6000000238418486 17.48311519622804
  endloop
endfacet
facet normal 0.8730133135681408 -2.760374247200691e-15 -0.48769637514828335
  outer loop
    vertex -1.1572601795196533 2.6000000238418486 17.48311519622804
    vertex -1.0522069931030271 2.090000033378598 17.67116832733156
    vertex -1.1572601795196533 2.090000033378595 17.48311519622804
  endloop
endfacet
facet normal 0.8730133135681408 -2.760374247200691e-15 -0.48769637514828335
  outer loop
    vertex -1.0522069931030271 2.090000033378598 17.67116832733156
    vertex -1.1572601795196533 2.6000000238418486 17.48311519622804
    vertex -1.0522069931030271 2.6000000238418517 17.671168327331557
  endloop
endfacet
facet normal 0.7780366416482444 -3.5652022314189825e-15 -0.6282188983568716
  outer loop
    vertex -1.0522069931030271 2.6000000238418517 17.671168327331557
    vertex -0.9168839454650877 2.090000033378598 17.838763236999522
    vertex -1.0522069931030271 2.090000033378598 17.67116832733156
  endloop
endfacet
facet normal 0.7780366416482444 -3.5652022314189825e-15 -0.6282188983568716
  outer loop
    vertex -0.9168839454650877 2.090000033378598 17.838763236999522
    vertex -1.0522069931030271 2.6000000238418517 17.671168327331557
    vertex -0.9168839454650877 2.6000000238418517 17.838763236999522
  endloop
endfacet
facet normal 0.6606729055690629 2.0676084486533836e-18 -0.7506739051325363
  outer loop
    vertex -0.7551841735839852 2.6000000238418486 17.981076240539565
    vertex -0.9168839454650877 2.090000033378598 17.838763236999522
    vertex -0.9168839454650877 2.6000000238418517 17.838763236999522
  endloop
endfacet
facet normal 0.6606729055690629 2.0676084486533836e-18 -0.7506739051325363
  outer loop
    vertex -0.9168839454650877 2.090000033378598 17.838763236999522
    vertex -0.7551841735839852 2.6000000238418486 17.981076240539565
    vertex -0.7551841735839852 2.090000033378592 17.981076240539565
  endloop
endfacet
facet normal 0.5243083622563112 -4.831368331894244e-15 -0.8515284735510052
  outer loop
    vertex -0.5717587471008297 2.6000000238418517 18.094016075134284
    vertex -0.7551841735839852 2.090000033378592 17.981076240539565
    vertex -0.7551841735839852 2.6000000238418486 17.981076240539565
  endloop
endfacet
facet normal 0.5243083622563112 -4.831368331894244e-15 -0.8515284735510052
  outer loop
    vertex -0.7551841735839852 2.090000033378592 17.981076240539565
    vertex -0.5717587471008297 2.6000000238418517 18.094016075134284
    vertex -0.5717587471008297 2.090000033378595 18.09401607513429
  endloop
endfacet
facet normal 0.3728588560033476 -5.2535882161720396e-15 -0.9278880716443525
  outer loop
    vertex -0.3718848228454596 2.6000000238418517 18.174332618713393
    vertex -0.5717587471008297 2.090000033378595 18.09401607513429
    vertex -0.5717587471008297 2.6000000238418517 18.094016075134284
  endloop
endfacet
facet normal 0.3728588560033476 -5.2535882161720396e-15 -0.9278880716443525
  outer loop
    vertex -0.5717587471008297 2.090000033378595 18.09401607513429
    vertex -0.3718848228454596 2.6000000238418517 18.174332618713393
    vertex -0.3718848228454596 2.090000033378595 18.174332618713393
  endloop
endfacet
facet normal 0.21067818846927536 -5.539553920742135e-15 -0.9775554720338404
  outer loop
    vertex -0.1613125801086431 2.6000000238418517 18.2197141647339
    vertex -0.3718848228454596 2.090000033378595 18.174332618713393
    vertex -0.3718848228454596 2.6000000238418517 18.174332618713393
  endloop
endfacet
facet normal 0.21067818846927536 -5.539553920742135e-15 -0.9775554720338404
  outer loop
    vertex -0.3718848228454596 2.090000033378595 18.174332618713393
    vertex -0.1613125801086431 2.6000000238418517 18.2197141647339
    vertex -0.1613125801086431 2.090000033378592 18.219714164733908
  endloop
endfacet
facet normal 0.042440152515867594 -5.657564367568736e-15 -0.9990990108364786
  outer loop
    vertex 0.05390071868896436 2.6000000238418517 18.22885608673097
    vertex -0.1613125801086431 2.090000033378592 18.219714164733908
    vertex -0.1613125801086431 2.6000000238418517 18.2197141647339
  endloop
endfacet
facet normal 0.042440152515867594 -5.657564367568736e-15 -0.9990990108364786
  outer loop
    vertex -0.1613125801086431 2.090000033378592 18.219714164733908
    vertex 0.05390071868896436 2.6000000238418517 18.22885608673097
    vertex 0.05390071868896436 2.090000033378595 18.22885608673097
  endloop
endfacet
facet normal -0.12702839406682628 -5.614551352438199e-15 -0.9918990811069458
  outer loop
    vertex 0.2675628662109376 2.6000000238418517 18.201493263244636
    vertex 0.05390071868896436 2.090000033378595 18.22885608673097
    vertex 0.05390071868896436 2.6000000238418517 18.22885608673097
  endloop
endfacet
facet normal -0.12702839406682628 -5.614551352438199e-15 -0.9918990811069458
  outer loop
    vertex 0.05390071868896436 2.090000033378595 18.22885608673097
    vertex 0.2675628662109376 2.6000000238418517 18.201493263244636
    vertex 0.2675628662109376 2.090000033378598 18.20149326324464
  endloop
endfacet
facet normal -0.2928143961385802 -5.413713052601799e-15 -0.9561692995563071
  outer loop
    vertex 0.473527908325195 2.6000000238418517 18.138419151306167
    vertex 0.2675628662109376 2.090000033378598 18.20149326324464
    vertex 0.2675628662109376 2.6000000238418517 18.201493263244636
  endloop
endfacet
facet normal -0.2928143961385802 -5.413713052601799e-15 -0.9561692995563071
  outer loop
    vertex 0.2675628662109376 2.090000033378598 18.20149326324464
    vertex 0.473527908325195 2.6000000238418517 18.138419151306167
    vertex 0.473527908325195 2.090000033378598 18.138419151306167
  endloop
endfacet
facet normal -0.4502048410104431 0.0 -0.8929253054599593
  outer loop
    vertex 0.6658701896667476 2.6000000238418517 18.041441917419448
    vertex 0.473527908325195 2.090000033378598 18.138419151306167
    vertex 0.473527908325195 2.6000000238418517 18.138419151306167
  endloop
endfacet
facet normal -0.4502048410104431 0.0 -0.8929253054599593
  outer loop
    vertex 0.473527908325195 2.090000033378598 18.138419151306167
    vertex 0.6658701896667476 2.6000000238418517 18.041441917419448
    vertex 0.6658701896667476 2.090000033378598 18.041441917419448
  endloop
endfacet
facet normal -0.594632347211944 0.0 -0.8039977435597779
  outer loop
    vertex 0.8390569686889652 2.6000000238418517 17.913353919982924
    vertex 0.6658701896667476 2.090000033378598 18.041441917419448
    vertex 0.6658701896667476 2.6000000238418517 18.041441917419448
  endloop
endfacet
facet normal -0.594632347211944 0.0 -0.8039977435597779
  outer loop
    vertex 0.6658701896667476 2.090000033378598 18.041441917419448
    vertex 0.8390569686889652 2.6000000238418517 17.913353919982924
    vertex 0.8390569686889652 2.090000033378598 17.913353919982924
  endloop
endfacet
facet normal -0.7219539235645868 -4.709071795080775e-19 -0.6919411335147657
  outer loop
    vertex 0.8390569686889652 2.090000033378598 17.913353919982924
    vertex 0.9881057739257817 2.6000000238418517 17.75784015655519
    vertex 0.9881057739257817 2.090000033378595 17.75784015655519
  endloop
endfacet
facet normal -0.7219539235645868 -4.709071795080775e-19 -0.6919411335147657
  outer loop
    vertex 0.9881057739257817 2.6000000238418517 17.75784015655519
    vertex 0.8390569686889652 2.090000033378598 17.913353919982924
    vertex 0.8390569686889652 2.6000000238418517 17.913353919982924
  endloop
endfacet
facet normal -0.8285103889771702 -2.2007394235373258e-18 -0.5599736916649732
  outer loop
    vertex 0.9881057739257817 2.090000033378595 17.75784015655519
    vertex 1.108727931976319 2.6000000238418517 17.57937335968019
    vertex 1.108727931976319 2.090000033378592 17.57937335968019
  endloop
endfacet
facet normal -0.8285103889771702 -2.2007394235373258e-18 -0.5599736916649732
  outer loop
    vertex 1.108727931976319 2.6000000238418517 17.57937335968019
    vertex 0.9881057739257817 2.090000033378595 17.75784015655519
    vertex 0.9881057739257817 2.6000000238418517 17.75784015655519
  endloop
endfacet
facet normal -0.9112285003588921 6.431984009114352e-18 -0.4119012261861874
  outer loop
    vertex 1.108727931976319 2.6000000238418517 17.57937335968019
    vertex 1.1974544525146495 2.090000033378598 17.383088111877456
    vertex 1.108727931976319 2.090000033378592 17.57937335968019
  endloop
endfacet
facet normal -0.9112285003588921 6.431984009114352e-18 -0.4119012261861874
  outer loop
    vertex 1.1974544525146495 2.090000033378598 17.383088111877456
    vertex 1.108727931976319 2.6000000238418517 17.57937335968019
    vertex 1.1974544525146495 2.6000000238418517 17.383088111877456
  endloop
endfacet
facet normal -0.9677333215007394 -1.426836769529451e-15 -0.2519766228386011
  outer loop
    vertex 1.1974544525146495 2.090000033378598 17.383088111877456
    vertex 1.2517323493957535 2.6000000238418517 17.174630165100105
    vertex 1.2517323493957535 2.090000033378595 17.17463016510011
  endloop
endfacet
facet normal -0.9677333215007394 -1.426836769529451e-15 -0.2519766228386011
  outer loop
    vertex 1.2517323493957535 2.6000000238418517 17.174630165100105
    vertex 1.1974544525146495 2.090000033378598 17.383088111877456
    vertex 1.1974544525146495 2.6000000238418517 17.383088111877456
  endloop
endfacet
facet normal -0.9963975216755399 -4.804456072921188e-16 -0.084805535189881
  outer loop
    vertex 1.2517323493957535 2.6000000238418517 17.174630165100105
    vertex 1.269999980926514 2.090000033378598 16.960000038146983
    vertex 1.2517323493957535 2.090000033378595 17.17463016510011
  endloop
endfacet
facet normal -0.9963975216755399 -4.804456072921188e-16 -0.084805535189881
  outer loop
    vertex 1.269999980926514 2.090000033378598 16.960000038146983
    vertex 1.2517323493957535 2.6000000238418517 17.174630165100105
    vertex 1.269999980926514 2.6000000238418517 16.960000038146983
  endloop
endfacet
facet normal -0.9963975216755401 -4.796117050272076e-16 0.08480553518987871
  outer loop
    vertex 1.269999980926514 2.090000033378598 16.960000038146983
    vertex 1.2517323493957535 2.6000000238418486 16.74536991119386
    vertex 1.2517323493957535 2.090000033378595 16.74536991119385
  endloop
endfacet
facet normal -0.9963975216755401 -4.796117050272076e-16 0.08480553518987871
  outer loop
    vertex 1.2517323493957535 2.6000000238418486 16.74536991119386
    vertex 1.269999980926514 2.090000033378598 16.960000038146983
    vertex 1.269999980926514 2.6000000238418517 16.960000038146983
  endloop
endfacet
facet normal -0.967733321500736 -1.4255504266382245e-15 0.25197662283861405
  outer loop
    vertex 1.2517323493957535 2.6000000238418486 16.74536991119386
    vertex 1.1974544525146495 2.090000033378595 16.536911964416518
    vertex 1.2517323493957535 2.090000033378595 16.74536991119385
  endloop
endfacet
facet normal -0.967733321500736 -1.4255504266382245e-15 0.25197662283861405
  outer loop
    vertex 1.1974544525146495 2.090000033378595 16.536911964416518
    vertex 1.2517323493957535 2.6000000238418486 16.74536991119386
    vertex 1.1974544525146495 2.6000000238418486 16.536911964416518
  endloop
endfacet
facet normal -0.9112269980434142 4.1816172924671174e-19 0.41190454966750195
  outer loop
    vertex 1.1974544525146495 2.6000000238418486 16.536911964416518
    vertex 1.108727931976319 2.090000033378595 16.340628623962417
    vertex 1.1974544525146495 2.090000033378595 16.536911964416518
  endloop
endfacet
facet normal -0.9112269980434142 4.1816172924671174e-19 0.41190454966750195
  outer loop
    vertex 1.108727931976319 2.090000033378595 16.340628623962417
    vertex 1.1974544525146495 2.6000000238418486 16.536911964416518
    vertex 1.108727931976319 2.6000000238418517 16.340628623962417
  endloop
endfacet
facet normal -0.8285103889771702 2.2007394235373258e-18 0.5599736916649732
  outer loop
    vertex 1.108727931976319 2.090000033378595 16.340628623962417
    vertex 0.9881057739257817 2.6000000238418517 16.162161827087417
    vertex 0.9881057739257817 2.090000033378592 16.162161827087417
  endloop
endfacet
facet normal -0.8285103889771702 2.2007394235373258e-18 0.5599736916649732
  outer loop
    vertex 0.9881057739257817 2.6000000238418517 16.162161827087417
    vertex 1.108727931976319 2.090000033378595 16.340628623962417
    vertex 1.108727931976319 2.6000000238418517 16.340628623962417
  endloop
endfacet
facet normal -0.7219581629691885 -4.782388820381129e-19 0.6919367101998236
  outer loop
    vertex 0.9881057739257817 2.6000000238418517 16.162161827087417
    vertex 0.8390569686889652 2.090000033378595 16.00664615631104
    vertex 0.9881057739257817 2.090000033378592 16.162161827087417
  endloop
endfacet
facet normal -0.7219581629691885 -4.782388820381129e-19 0.6919367101998236
  outer loop
    vertex 0.8390569686889652 2.090000033378595 16.00664615631104
    vertex 0.9881057739257817 2.6000000238418517 16.162161827087417
    vertex 0.8390569686889652 2.6000000238418517 16.00664615631104
  endloop
endfacet
facet normal -0.5946266234275317 2.5094536886967646e-18 0.8040019768080006
  outer loop
    vertex 0.8390569686889652 2.090000033378595 16.00664615631104
    vertex 0.6658701896667476 2.6000000238418517 15.87856006622315
    vertex 0.6658701896667476 2.090000033378592 15.87856006622315
  endloop
endfacet
facet normal -0.5946266234275317 2.5094536886967646e-18 0.8040019768080006
  outer loop
    vertex 0.6658701896667476 2.6000000238418517 15.87856006622315
    vertex 0.8390569686889652 2.090000033378595 16.00664615631104
    vertex 0.8390569686889652 2.6000000238418517 16.00664615631104
  endloop
endfacet
facet normal -0.45021190090338054 3.9020545770634776e-18 0.8929217458909626
  outer loop
    vertex 0.6658701896667476 2.090000033378592 15.87856006622315
    vertex 0.473527908325195 2.6000000238418517 15.781580924987802
    vertex 0.473527908325195 2.090000033378595 15.781580924987802
  endloop
endfacet
facet normal -0.45021190090338054 3.9020545770634776e-18 0.8929217458909626
  outer loop
    vertex 0.473527908325195 2.6000000238418517 15.781580924987802
    vertex 0.6658701896667476 2.090000033378592 15.87856006622315
    vertex 0.6658701896667476 2.6000000238418517 15.87856006622315
  endloop
endfacet
facet normal -0.29281439613861693 -6.75485533152994e-18 0.9561692995562957
  outer loop
    vertex 0.473527908325195 2.090000033378595 15.781580924987802
    vertex 0.2675628662109376 2.6000000238418486 15.718506813049322
    vertex 0.2675628662109376 2.090000033378595 15.718506813049322
  endloop
endfacet
facet normal -0.29281439613861693 -6.75485533152994e-18 0.9561692995562957
  outer loop
    vertex 0.2675628662109376 2.6000000238418486 15.718506813049322
    vertex 0.473527908325195 2.090000033378595 15.781580924987802
    vertex 0.473527908325195 2.6000000238418517 15.781580924987802
  endloop
endfacet
facet normal -0.1270283940668131 -0.0 0.9918990811069474
  outer loop
    vertex 0.2675628662109376 2.090000033378595 15.718506813049322
    vertex 0.05390071868896436 2.6000000238418517 15.691143989562992
    vertex 0.05390071868896436 2.090000033378592 15.691143989562992
  endloop
endfacet
facet normal -0.1270283940668131 -0.0 0.9918990811069474
  outer loop
    vertex 0.05390071868896436 2.6000000238418517 15.691143989562992
    vertex 0.2675628662109376 2.090000033378595 15.718506813049322
    vertex 0.2675628662109376 2.6000000238418486 15.718506813049322
  endloop
endfacet
facet normal 0.042440152515907735 -0.0 0.999099010836477
  outer loop
    vertex 0.05390071868896436 2.090000033378592 15.691143989562992
    vertex -0.1613125801086431 2.6000000238418517 15.700285911560067
    vertex -0.1613125801086431 2.090000033378592 15.700285911560067
  endloop
endfacet
facet normal 0.042440152515907735 -0.0 0.999099010836477
  outer loop
    vertex -0.1613125801086431 2.6000000238418517 15.700285911560067
    vertex 0.05390071868896436 2.090000033378592 15.691143989562992
    vertex 0.05390071868896436 2.6000000238418517 15.691143989562992
  endloop
endfacet
facet normal 0.21067818846926262 -0.0 0.9775554720338432
  outer loop
    vertex -0.1613125801086431 2.090000033378592 15.700285911560067
    vertex -0.3718848228454596 2.6000000238418517 15.745667457580574
    vertex -0.3718848228454596 2.090000033378592 15.745667457580574
  endloop
endfacet
facet normal 0.21067818846926262 -0.0 0.9775554720338432
  outer loop
    vertex -0.3718848228454596 2.6000000238418517 15.745667457580574
    vertex -0.1613125801086431 2.090000033378592 15.700285911560067
    vertex -0.1613125801086431 2.6000000238418517 15.700285911560067
  endloop
endfacet
facet normal 0.37285885600331303 -0.0 0.9278880716443665
  outer loop
    vertex -0.3718848228454596 2.090000033378592 15.745667457580574
    vertex -0.5717587471008297 2.6000000238418517 15.825984001159672
    vertex -0.5717587471008297 2.090000033378592 15.825984001159672
  endloop
endfacet
facet normal 0.37285885600331303 -0.0 0.9278880716443665
  outer loop
    vertex -0.5717587471008297 2.6000000238418517 15.825984001159672
    vertex -0.3718848228454596 2.090000033378592 15.745667457580574
    vertex -0.3718848228454596 2.6000000238418517 15.745667457580574
  endloop
endfacet
facet normal 0.5243083622563208 6.057268439014782e-18 0.8515284735509991
  outer loop
    vertex -0.5717587471008297 2.090000033378592 15.825984001159672
    vertex -0.7551841735839852 2.6000000238418486 15.9389238357544
    vertex -0.7551841735839852 2.090000033378592 15.9389238357544
  endloop
endfacet
facet normal 0.5243083622563208 6.057268439014782e-18 0.8515284735509991
  outer loop
    vertex -0.7551841735839852 2.6000000238418486 15.9389238357544
    vertex -0.5717587471008297 2.090000033378592 15.825984001159672
    vertex -0.5717587471008297 2.6000000238418517 15.825984001159672
  endloop
endfacet
facet normal 0.6606729055690705 4.250499269890804e-15 0.7506739051325296
  outer loop
    vertex -0.7551841735839852 2.090000033378592 15.9389238357544
    vertex -0.9168839454650877 2.6000000238418517 16.08123683929444
    vertex -0.9168839454650877 2.090000033378595 16.081236839294444
  endloop
endfacet
facet normal 0.6606729055690705 4.250499269890804e-15 0.7506739051325296
  outer loop
    vertex -0.9168839454650877 2.6000000238418517 16.08123683929444
    vertex -0.7551841735839852 2.090000033378592 15.9389238357544
    vertex -0.7551841735839852 2.6000000238418486 15.9389238357544
  endloop
endfacet
facet normal 0.778036641648255 3.5511317114425326e-15 0.6282188983568585
  outer loop
    vertex -0.9168839454650877 2.090000033378595 16.081236839294444
    vertex -1.0522069931030271 2.6000000238418486 16.248831748962413
    vertex -1.0522069931030271 2.090000033378592 16.248831748962413
  endloop
endfacet
facet normal 0.778036641648255 3.5511317114425326e-15 0.6282188983568585
  outer loop
    vertex -1.0522069931030271 2.6000000238418486 16.248831748962413
    vertex -0.9168839454650877 2.090000033378595 16.081236839294444
    vertex -0.9168839454650877 2.6000000238418517 16.08123683929444
  endloop
endfacet
facet normal 0.8730133135681408 2.7591280803371488e-15 0.48769637514828335
  outer loop
    vertex -1.0522069931030271 2.6000000238418486 16.248831748962413
    vertex -1.1572601795196533 2.090000033378592 16.436884880065932
    vertex -1.0522069931030271 2.090000033378592 16.248831748962413
  endloop
endfacet
facet normal 0.8730133135681408 2.7591280803371488e-15 0.48769637514828335
  outer loop
    vertex -1.1572601795196533 2.090000033378592 16.436884880065932
    vertex -1.0522069931030271 2.6000000238418486 16.248831748962413
    vertex -1.1572601795196533 2.6000000238418486 16.43688488006593
  endloop
endfacet
facet normal 0.9428782631247701 1.8851323345521683e-15 0.3331374805194048
  outer loop
    vertex -1.1572601795196533 2.6000000238418486 16.43688488006593
    vertex -1.229020833969116 2.090000033378598 16.63998889923097
    vertex -1.1572601795196533 2.090000033378592 16.436884880065932
  endloop
endfacet
facet normal 0.9428782631247701 1.8851323345521683e-15 0.3331374805194048
  outer loop
    vertex -1.229020833969116 2.090000033378598 16.63998889923097
    vertex -1.1572601795196533 2.6000000238418486 16.43688488006593
    vertex -1.229020833969116 2.6000000238418486 16.63998889923097
  endloop
endfacet
facet normal 0.9856157499923616 -0.0 0.1690017555145356
  outer loop
    vertex -1.229020833969116 2.6000000238418486 16.63998889923097
    vertex -1.2654247283935547 2.090000033378598 16.85229587554933
    vertex -1.229020833969116 2.090000033378598 16.63998889923097
  endloop
endfacet
facet normal 0.9856157499923616 -0.0 0.1690017555145356
  outer loop
    vertex -1.2654247283935547 2.090000033378598 16.85229587554933
    vertex -1.229020833969116 2.6000000238418486 16.63998889923097
    vertex -1.2654247283935547 2.6000000238418486 16.85229587554933
  endloop
endfacet
facet normal 0.9990990458787663 7.344962200033346e-19 0.04243932756464446
  outer loop
    vertex -1.2699997425079332 2.6000000238418517 16.960000038146983
    vertex -1.2654247283935547 2.090000033378598 16.85229587554933
    vertex -1.2654247283935547 2.6000000238418486 16.85229587554933
  endloop
endfacet
facet normal 0.9999597664518258 0.008970255158578215 -4.273991784685899e-19
  outer loop
    vertex -1.2699997425079332 2.6000000238418517 16.960000038146983
    vertex -1.2654247283935547 2.090000033378598 17.067704200744643
    vertex -1.2654247283935547 2.090000033378598 16.85229587554933
  endloop
endfacet
facet normal 1.0 -0.0 -0.0
  outer loop
    vertex 5.1000008583068865 2.6000000238418517 4.5
    vertex 5.1000008583068865 -0.9499999284744317 13.150000572204595
    vertex 5.1000008583068865 -0.9499999284744317 4.499999999999998
  endloop
endfacet
facet normal 1.0 -0.0 -0.0
  outer loop
    vertex 5.1000008583068865 -0.9499999284744317 13.150000572204595
    vertex 5.1000008583068865 2.6000000238418517 4.5
    vertex 5.1000008583068865 2.090000033378592 13.415965080261236
  endloop
endfacet
facet normal 1.0 -0.0 -0.0
  outer loop
    vertex 5.1000008583068865 2.090000033378592 13.415965080261236
    vertex 5.1000008583068865 2.6000000238418517 4.5
    vertex 5.1000008583068865 2.6000000238418517 13.460584125746275
  endloop
endfacet
facet normal -0.0 1.0 -0.0
  outer loop
    vertex -5.0999999046325675 2.6000000238418517 13.460584125746275
    vertex 5.1000008583068865 2.6000000238418517 4.5
    vertex -5.099999904632568 2.6000000238418517 4.5
  endloop
endfacet
facet normal -0.0 1.0 -0.0
  outer loop
    vertex 5.1000008583068865 2.6000000238418517 4.5
    vertex -5.0999999046325675 2.6000000238418517 13.460584125746275
    vertex 5.1000008583068865 2.6000000238418517 13.460584125746275
  endloop
endfacet
facet normal -1.0 1.420703011397597e-15 -1.1865348990989434e-16
  outer loop
    vertex -5.099999904632568 2.090000033378598 19.499999046325684
    vertex -5.0999999046325675 2.6000000238418517 13.460584125746275
    vertex -5.099999904632568 2.090000033378592 13.415965080261236
  endloop
endfacet
facet normal -1.0 1.420703011397597e-15 -1.1865348990989434e-16
  outer loop
    vertex -5.0999999046325675 2.6000000238418517 13.460584125746275
    vertex -5.099999904632568 2.090000033378598 19.499999046325684
    vertex -5.099999904632568 2.6000000238418486 19.499999046325687
  endloop
endfacet
facet normal 1.9308276686539075e-19 -0.08715540917537012 0.9961947272754831
  outer loop
    vertex 5.1000008583068865 2.090000033378592 13.415965080261236
    vertex -5.0999999046325675 2.6000000238418517 13.460584125746275
    vertex -5.099999904632568 2.090000033378592 13.415965080261236
  endloop
endfacet
facet normal 1.9308276686539075e-19 -0.08715540917537012 0.9961947272754831
  outer loop
    vertex -5.0999999046325675 2.6000000238418517 13.460584125746275
    vertex 5.1000008583068865 2.090000033378592 13.415965080261236
    vertex 5.1000008583068865 2.6000000238418517 13.460584125746275
  endloop
endfacet
facet normal 0.0 7.219112474152248e-15 -1.0
  outer loop
    vertex 2.7950005531311053 0.10000002384185556 7.219114195322618e-16
    vertex 2.285000324249269 -0.10000002384185556 -7.219114195322618e-16
    vertex 2.285000324249269 0.10000002384185556 7.219114195322618e-16
  endloop
endfacet
facet normal 0.0 7.219112474152248e-15 -1.0
  outer loop
    vertex 2.285000324249269 -0.10000002384185556 -7.219114195322618e-16
    vertex 2.7950005531311053 0.10000002384185556 7.219114195322618e-16
    vertex 2.7950005531311053 -0.10000002384185556 -7.219114195322618e-16
  endloop
endfacet
facet normal 0.0 7.219112474152248e-15 -1.0
  outer loop
    vertex 0.2550001144409172 0.10000002384185556 7.219114195322618e-16
    vertex -0.2550001144409174 -0.10000002384185556 -7.219114195322618e-16
    vertex -0.2550001144409174 0.10000002384185556 7.219114195322618e-16
  endloop
endfacet
facet normal 0.0 7.219112474152248e-15 -1.0
  outer loop
    vertex -0.2550001144409174 -0.10000002384185556 -7.219114195322618e-16
    vertex 0.2550001144409172 0.10000002384185556 7.219114195322618e-16
    vertex 0.2550001144409172 -0.10000002384185556 -7.219114195322618e-16
  endloop
endfacet
facet normal 0.0 7.219112474152248e-15 -1.0
  outer loop
    vertex -2.2849998474121103 0.10000002384185556 7.219114195322618e-16
    vertex -2.7949998378753667 -0.10000002384185556 -7.219114195322618e-16
    vertex -2.7949998378753667 0.10000002384185556 7.219114195322618e-16
  endloop
endfacet
facet normal 0.0 7.219112474152248e-15 -1.0
  outer loop
    vertex -2.7949998378753667 -0.10000002384185556 -7.219114195322618e-16
    vertex -2.2849998474121103 0.10000002384185556 7.219114195322618e-16
    vertex -2.2849998474121103 -0.10000002384185556 -7.219114195322618e-16
  endloop
endfacet
endsolid TO220V
