solid Exported from Blender-2.72 (sub 0)
facet normal 0.000000 -0.000000 1.000000
outer loop
vertex 129.539993 2.286000 0.800000
vertex 129.539993 2.794000 0.800000
vertex 0.000000 2.794000 0.800000
endloop
endfacet
facet normal 0.000000 -0.000000 1.000000
outer loop
vertex 0.000000 2.794000 0.800000
vertex 0.000000 2.286000 0.800000
vertex 129.539993 2.286000 0.800000
endloop
endfacet
facet normal 1.000000 0.000000 -0.000000
outer loop
vertex 129.539993 2.794000 0.800000
vertex 129.539993 2.286000 0.800000
vertex 129.539993 2.286000 -0.800000
endloop
endfacet
facet normal 1.000000 0.000000 0.000000
outer loop
vertex 129.539993 2.286000 -0.800000
vertex 129.539993 2.794000 -0.800000
vertex 129.539993 2.794000 0.800000
endloop
endfacet
facet normal 0.000000 -1.000000 -0.000000
outer loop
vertex 129.539993 2.286000 0.800000
vertex 0.000000 2.286000 0.800000
vertex 0.000000 2.286000 -0.800000
endloop
endfacet
facet normal -0.000000 -1.000000 -0.000000
outer loop
vertex 0.000000 2.286000 -0.800000
vertex 129.539993 2.286000 -0.800000
vertex 129.539993 2.286000 0.800000
endloop
endfacet
facet normal -1.000000 -0.000000 0.000000
outer loop
vertex 0.000000 2.286000 0.800000
vertex 0.000000 2.794000 0.800000
vertex 0.000000 2.794000 -0.800000
endloop
endfacet
facet normal -1.000000 0.000000 0.000000
outer loop
vertex 0.000000 2.794000 -0.800000
vertex 0.000000 2.286000 -0.800000
vertex 0.000000 2.286000 0.800000
endloop
endfacet
facet normal 0.000000 1.000000 0.000000
outer loop
vertex 0.000000 2.794000 0.800000
vertex 129.539993 2.794000 0.800000
vertex 129.539993 2.794000 -0.800000
endloop
endfacet
facet normal -0.000000 1.000000 0.000000
outer loop
vertex 129.539993 2.794000 -0.800000
vertex 0.000000 2.794000 -0.800000
vertex 0.000000 2.794000 0.800000
endloop
endfacet
facet normal 0.000000 0.000000 -1.000000
outer loop
vertex 129.539993 2.794000 -0.800000
vertex 129.539993 2.286000 -0.800000
vertex 0.000000 2.286000 -0.800000
endloop
endfacet
facet normal 0.000000 0.000000 -1.000000
outer loop
vertex 0.000000 2.286000 -0.800000
vertex 0.000000 2.794000 -0.800000
vertex 129.539993 2.794000 -0.800000
endloop
endfacet
endsolid Exported from Blender-2.72 (sub 0)
