solid SC70-6
facet normal -0.0 -0.09540462469266606 0.995438575496877
  outer loop
    vertex -0.48000002279877607 -1.0349034070968628 0.07832025736570353
    vertex -0.680000010877847 -0.8123420923948294 0.09965093433856961
    vertex -0.680000010877847 -1.0349034070968628 0.07832025736570353
  endloop
endfacet
facet normal -0.0 -0.09540462469266606 0.995438575496877
  outer loop
    vertex -0.680000010877847 -0.8123420923948294 0.09965093433856961
    vertex -0.48000002279877607 -1.0349034070968628 0.07832025736570353
    vertex -0.48000002279877607 -0.8123420923948294 0.09965093433856961
  endloop
endfacet
facet normal 0.0 -0.9954385715783244 -0.09540466557829039
  outer loop
    vertex -0.48000002279877607 -1.0349034070968628 0.07832025736570353
    vertex -0.680000010877847 -1.025362938642502 -0.02122361958026876
    vertex -0.48000002279877607 -1.025362938642502 -0.02122361958026876
  endloop
endfacet
facet normal 0.0 -0.9954385715783244 -0.09540466557829039
  outer loop
    vertex -0.680000010877847 -1.025362938642502 -0.02122361958026876
    vertex -0.48000002279877607 -1.0349034070968628 0.07832025736570353
    vertex -0.680000010877847 -1.0349034070968628 0.07832025736570353
  endloop
endfacet
facet normal 0.0 0.09540464332498594 -0.9954385737111217
  outer loop
    vertex -0.48000002279877607 -0.7253629267215727 0.007528927177190719
    vertex -0.680000010877847 -1.025362938642502 -0.02122361958026876
    vertex -0.680000010877847 -0.7253629267215727 0.007528927177190719
  endloop
endfacet
facet normal 0.0 0.09540464332498594 -0.9954385737111217
  outer loop
    vertex -0.680000010877847 -1.025362938642502 -0.02122361958026876
    vertex -0.48000002279877607 -0.7253629267215727 0.007528927177190719
    vertex -0.48000002279877607 -1.025362938642502 -0.02122361958026876
  endloop
endfacet
facet normal -0.0 0.9883238853752783 -0.1523676395981575
  outer loop
    vertex -0.680000010877847 -0.6802733242511743 0.30000002682209015
    vertex -0.48000002279877607 -0.7253629267215727 0.007528927177190719
    vertex -0.680000010877847 -0.7253629267215727 0.007528927177190719
  endloop
endfacet
facet normal -0.0 0.9883238853752783 -0.1523676395981575
  outer loop
    vertex -0.48000002279877607 -0.7253629267215727 0.007528927177190719
    vertex -0.680000010877847 -0.6802733242511743 0.30000002682209015
    vertex -0.48000002279877607 -0.6802733242511743 0.30000002682209015
  endloop
endfacet
facet normal 0.0 0.0 -1.0
  outer loop
    vertex -0.48000002279877607 -0.6053629517555229 0.30000002682209015
    vertex -0.680000010877847 -0.6802733242511743 0.30000002682209015
    vertex -0.680000010877847 -0.6053629517555229 0.30000002682209015
  endloop
endfacet
facet normal 0.0 0.0 -1.0
  outer loop
    vertex -0.680000010877847 -0.6802733242511743 0.30000002682209015
    vertex -0.48000002279877607 -0.6053629517555229 0.30000002682209015
    vertex -0.48000002279877607 -0.6802733242511743 0.30000002682209015
  endloop
endfacet
facet normal -0.0 1.0 -0.0
  outer loop
    vertex -0.680000010877847 -0.6053629517555229 0.4000000208616253
    vertex -0.48000002279877607 -0.6053629517555229 0.30000002682209015
    vertex -0.680000010877847 -0.6053629517555229 0.30000002682209015
  endloop
endfacet
facet normal -0.0 1.0 -0.0
  outer loop
    vertex -0.48000002279877607 -0.6053629517555229 0.30000002682209015
    vertex -0.680000010877847 -0.6053629517555229 0.4000000208616253
    vertex -0.48000002279877607 -0.6053629517555229 0.4000000208616253
  endloop
endfacet
facet normal -0.0 -0.0 1.0
  outer loop
    vertex -0.48000002279877607 -0.7660379409790035 0.4000000208616253
    vertex -0.680000010877847 -0.6053629517555229 0.4000000208616253
    vertex -0.680000010877847 -0.7660379409790035 0.4000000208616253
  endloop
endfacet
facet normal -0.0 -0.0 1.0
  outer loop
    vertex -0.680000010877847 -0.6053629517555229 0.4000000208616253
    vertex -0.48000002279877607 -0.7660379409790035 0.4000000208616253
    vertex -0.48000002279877607 -0.6053629517555229 0.4000000208616253
  endloop
endfacet
facet normal 0.0 -0.9883238766175412 0.15236769640470227
  outer loop
    vertex -0.48000002279877607 -0.7660379409790035 0.4000000208616253
    vertex -0.680000010877847 -0.8123420923948294 0.09965093433856961
    vertex -0.48000002279877607 -0.8123420923948294 0.09965093433856961
  endloop
endfacet
facet normal 0.0 -0.9883238766175412 0.15236769640470227
  outer loop
    vertex -0.680000010877847 -0.8123420923948294 0.09965093433856961
    vertex -0.48000002279877607 -0.7660379409790035 0.4000000208616253
    vertex -0.680000010877847 -0.7660379409790035 0.4000000208616253
  endloop
endfacet
facet normal 1.0 -0.0 -0.0
  outer loop
    vertex -0.48000002279877607 -1.025362938642502 -0.02122361958026876
    vertex -0.48000002279877607 -0.8123420923948294 0.09965093433856961
    vertex -0.48000002279877607 -1.0349034070968628 0.07832025736570353
  endloop
endfacet
facet normal 1.0 -0.0 -0.0
  outer loop
    vertex -0.48000002279877607 -0.8123420923948294 0.09965093433856961
    vertex -0.48000002279877607 -1.025362938642502 -0.02122361958026876
    vertex -0.48000002279877607 -0.7253629267215727 0.007528927177190719
  endloop
endfacet
facet normal 1.0 -0.0 -0.0
  outer loop
    vertex -0.48000002279877607 -0.8123420923948294 0.09965093433856961
    vertex -0.48000002279877607 -0.7253629267215727 0.007528927177190719
    vertex -0.48000002279877607 -0.7660379409790035 0.4000000208616253
  endloop
endfacet
facet normal 1.0 -0.0 -0.0
  outer loop
    vertex -0.48000002279877607 -0.7660379409790035 0.4000000208616253
    vertex -0.48000002279877607 -0.7253629267215727 0.007528927177190719
    vertex -0.48000002279877607 -0.6802733242511743 0.30000002682209015
  endloop
endfacet
facet normal 1.0 -0.0 -0.0
  outer loop
    vertex -0.48000002279877607 -0.7660379409790035 0.4000000208616253
    vertex -0.48000002279877607 -0.6802733242511743 0.30000002682209015
    vertex -0.48000002279877607 -0.6053629517555229 0.4000000208616253
  endloop
endfacet
facet normal -1.0 0.0 0.0
  outer loop
    vertex -0.680000010877847 -0.6053629517555229 0.30000002682209015
    vertex -0.680000010877847 -0.7660379409790035 0.4000000208616253
    vertex -0.680000010877847 -0.6053629517555229 0.4000000208616253
  endloop
endfacet
facet normal -1.0 0.0 0.0
  outer loop
    vertex -0.680000010877847 -0.8123420923948294 0.09965093433856961
    vertex -0.680000010877847 -1.025362938642502 -0.02122361958026876
    vertex -0.680000010877847 -1.0349034070968628 0.07832025736570353
  endloop
endfacet
facet normal -1.0 0.0 0.0
  outer loop
    vertex -0.680000010877847 -1.025362938642502 -0.02122361958026876
    vertex -0.680000010877847 -0.8123420923948294 0.09965093433856961
    vertex -0.680000010877847 -0.7253629267215727 0.007528927177190719
  endloop
endfacet
facet normal -1.0 0.0 0.0
  outer loop
    vertex -0.680000010877847 -0.7253629267215727 0.007528927177190719
    vertex -0.680000010877847 -0.8123420923948294 0.09965093433856961
    vertex -0.680000010877847 -0.7660379409790035 0.4000000208616253
  endloop
endfacet
facet normal -1.0 0.0 0.0
  outer loop
    vertex -0.680000010877847 -0.7253629267215727 0.007528927177190719
    vertex -0.680000010877847 -0.7660379409790035 0.4000000208616253
    vertex -0.680000010877847 -0.6802733242511743 0.30000002682209015
  endloop
endfacet
facet normal -0.0 -0.09540462469266604 0.995438575496877
  outer loop
    vertex 0.16999995335936582 -1.0349034070968628 0.07832025736570353
    vertex -0.030000034719704763 -0.8123420923948294 0.09965093433856961
    vertex -0.030000034719704763 -1.0349034070968628 0.07832025736570353
  endloop
endfacet
facet normal -0.0 -0.09540462469266604 0.995438575496877
  outer loop
    vertex -0.030000034719704763 -0.8123420923948294 0.09965093433856961
    vertex 0.16999995335936582 -1.0349034070968628 0.07832025736570353
    vertex 0.16999995335936582 -0.8123420923948294 0.09965093433856961
  endloop
endfacet
facet normal 0.0 -0.9954385715783244 -0.09540466557829039
  outer loop
    vertex 0.16999995335936582 -1.0349034070968628 0.07832025736570353
    vertex -0.030000034719704763 -1.025362938642502 -0.02122361958026876
    vertex 0.16999995335936582 -1.025362938642502 -0.02122361958026876
  endloop
endfacet
facet normal 0.0 -0.9954385715783244 -0.09540466557829039
  outer loop
    vertex -0.030000034719704763 -1.025362938642502 -0.02122361958026876
    vertex 0.16999995335936582 -1.0349034070968628 0.07832025736570353
    vertex -0.030000034719704763 -1.0349034070968628 0.07832025736570353
  endloop
endfacet
facet normal 0.0 0.09540464332498594 -0.9954385737111217
  outer loop
    vertex 0.16999995335936582 -0.7253629267215727 0.007528927177190719
    vertex -0.030000034719704763 -1.025362938642502 -0.02122361958026876
    vertex -0.030000034719704763 -0.7253629267215727 0.007528927177190719
  endloop
endfacet
facet normal 0.0 0.09540464332498594 -0.9954385737111217
  outer loop
    vertex -0.030000034719704763 -1.025362938642502 -0.02122361958026876
    vertex 0.16999995335936582 -0.7253629267215727 0.007528927177190719
    vertex 0.16999995335936582 -1.025362938642502 -0.02122361958026876
  endloop
endfacet
facet normal -0.0 0.9883238853752783 -0.1523676395981575
  outer loop
    vertex -0.030000034719704763 -0.6802733242511743 0.30000002682209015
    vertex 0.16999995335936582 -0.7253629267215727 0.007528927177190719
    vertex -0.030000034719704763 -0.7253629267215727 0.007528927177190719
  endloop
endfacet
facet normal -0.0 0.9883238853752783 -0.1523676395981575
  outer loop
    vertex 0.16999995335936582 -0.7253629267215727 0.007528927177190719
    vertex -0.030000034719704763 -0.6802733242511743 0.30000002682209015
    vertex 0.16999995335936582 -0.6802733242511743 0.30000002682209015
  endloop
endfacet
facet normal 0.0 0.0 -1.0
  outer loop
    vertex 0.16999995335936582 -0.6053629517555229 0.30000002682209015
    vertex -0.030000034719704763 -0.6802733242511743 0.30000002682209015
    vertex -0.030000034719704763 -0.6053629517555229 0.30000002682209015
  endloop
endfacet
facet normal 0.0 0.0 -1.0
  outer loop
    vertex -0.030000034719704763 -0.6802733242511743 0.30000002682209015
    vertex 0.16999995335936582 -0.6053629517555229 0.30000002682209015
    vertex 0.16999995335936582 -0.6802733242511743 0.30000002682209015
  endloop
endfacet
facet normal -0.0 1.0 -0.0
  outer loop
    vertex -0.030000034719704763 -0.6053629517555229 0.4000000208616253
    vertex 0.16999995335936582 -0.6053629517555229 0.30000002682209015
    vertex -0.030000034719704763 -0.6053629517555229 0.30000002682209015
  endloop
endfacet
facet normal -0.0 1.0 -0.0
  outer loop
    vertex 0.16999995335936582 -0.6053629517555229 0.30000002682209015
    vertex -0.030000034719704763 -0.6053629517555229 0.4000000208616253
    vertex 0.16999995335936582 -0.6053629517555229 0.4000000208616253
  endloop
endfacet
facet normal -0.0 -0.0 1.0
  outer loop
    vertex 0.16999995335936582 -0.7660379409790035 0.4000000208616253
    vertex -0.030000034719704763 -0.6053629517555229 0.4000000208616253
    vertex -0.030000034719704763 -0.7660379409790035 0.4000000208616253
  endloop
endfacet
facet normal -0.0 -0.0 1.0
  outer loop
    vertex -0.030000034719704763 -0.6053629517555229 0.4000000208616253
    vertex 0.16999995335936582 -0.7660379409790035 0.4000000208616253
    vertex 0.16999995335936582 -0.6053629517555229 0.4000000208616253
  endloop
endfacet
facet normal 0.0 -0.9883238766175412 0.1523676964047023
  outer loop
    vertex 0.16999995335936582 -0.7660379409790035 0.4000000208616253
    vertex -0.030000034719704763 -0.8123420923948294 0.09965093433856961
    vertex 0.16999995335936582 -0.8123420923948294 0.09965093433856961
  endloop
endfacet
facet normal 0.0 -0.9883238766175412 0.1523676964047023
  outer loop
    vertex -0.030000034719704763 -0.8123420923948294 0.09965093433856961
    vertex 0.16999995335936582 -0.7660379409790035 0.4000000208616253
    vertex -0.030000034719704763 -0.7660379409790035 0.4000000208616253
  endloop
endfacet
facet normal 1.0 -0.0 -0.0
  outer loop
    vertex 0.16999995335936582 -1.025362938642502 -0.02122361958026876
    vertex 0.16999995335936582 -0.8123420923948294 0.09965093433856961
    vertex 0.16999995335936582 -1.0349034070968628 0.07832025736570353
  endloop
endfacet
facet normal 1.0 -0.0 -0.0
  outer loop
    vertex 0.16999995335936582 -0.8123420923948294 0.09965093433856961
    vertex 0.16999995335936582 -1.025362938642502 -0.02122361958026876
    vertex 0.16999995335936582 -0.7253629267215727 0.007528927177190719
  endloop
endfacet
facet normal 1.0 -0.0 -0.0
  outer loop
    vertex 0.16999995335936582 -0.8123420923948294 0.09965093433856961
    vertex 0.16999995335936582 -0.7253629267215727 0.007528927177190719
    vertex 0.16999995335936582 -0.7660379409790035 0.4000000208616253
  endloop
endfacet
facet normal 1.0 -0.0 -0.0
  outer loop
    vertex 0.16999995335936582 -0.7660379409790035 0.4000000208616253
    vertex 0.16999995335936582 -0.7253629267215727 0.007528927177190719
    vertex 0.16999995335936582 -0.6802733242511743 0.30000002682209015
  endloop
endfacet
facet normal 1.0 -0.0 -0.0
  outer loop
    vertex 0.16999995335936582 -0.7660379409790035 0.4000000208616253
    vertex 0.16999995335936582 -0.6802733242511743 0.30000002682209015
    vertex 0.16999995335936582 -0.6053629517555229 0.4000000208616253
  endloop
endfacet
facet normal -1.0 0.0 0.0
  outer loop
    vertex -0.030000034719704763 -0.6053629517555229 0.30000002682209015
    vertex -0.030000034719704763 -0.7660379409790035 0.4000000208616253
    vertex -0.030000034719704763 -0.6053629517555229 0.4000000208616253
  endloop
endfacet
facet normal -1.0 0.0 0.0
  outer loop
    vertex -0.030000034719704763 -0.8123420923948294 0.09965093433856961
    vertex -0.030000034719704763 -1.025362938642502 -0.02122361958026876
    vertex -0.030000034719704763 -1.0349034070968628 0.07832025736570353
  endloop
endfacet
facet normal -1.0 0.0 0.0
  outer loop
    vertex -0.030000034719704763 -1.025362938642502 -0.02122361958026876
    vertex -0.030000034719704763 -0.8123420923948294 0.09965093433856961
    vertex -0.030000034719704763 -0.7253629267215727 0.007528927177190719
  endloop
endfacet
facet normal -1.0 0.0 0.0
  outer loop
    vertex -0.030000034719704763 -0.7253629267215727 0.007528927177190719
    vertex -0.030000034719704763 -0.8123420923948294 0.09965093433856961
    vertex -0.030000034719704763 -0.7660379409790035 0.4000000208616253
  endloop
endfacet
facet normal -1.0 0.0 0.0
  outer loop
    vertex -0.030000034719704763 -0.7253629267215727 0.007528927177190719
    vertex -0.030000034719704763 -0.7660379409790035 0.4000000208616253
    vertex -0.030000034719704763 -0.6802733242511743 0.30000002682209015
  endloop
endfacet
facet normal -0.0 1.0 -0.0
  outer loop
    vertex 0.6200000010430815 -0.6053629517555229 0.4000000208616253
    vertex 0.8200000487267973 -0.6053629517555229 0.30000002682209015
    vertex 0.6200000010430815 -0.6053629517555229 0.30000002682209015
  endloop
endfacet
facet normal -0.0 1.0 -0.0
  outer loop
    vertex 0.8200000487267973 -0.6053629517555229 0.30000002682209015
    vertex 0.6200000010430815 -0.6053629517555229 0.4000000208616253
    vertex 0.8200000487267973 -0.6053629517555229 0.4000000208616253
  endloop
endfacet
facet normal 1.0 -0.0 -0.0
  outer loop
    vertex 0.8200000487267973 -1.025362938642502 -0.02122361958026876
    vertex 0.8200000487267973 -0.8123420923948294 0.09965093433856961
    vertex 0.8200000487267973 -1.0349034070968628 0.07832025736570353
  endloop
endfacet
facet normal 1.0 -0.0 -0.0
  outer loop
    vertex 0.8200000487267973 -0.8123420923948294 0.09965093433856961
    vertex 0.8200000487267973 -1.025362938642502 -0.02122361958026876
    vertex 0.8200000487267973 -0.7253629267215727 0.007528927177190719
  endloop
endfacet
facet normal 1.0 -0.0 -0.0
  outer loop
    vertex 0.8200000487267973 -0.8123420923948294 0.09965093433856961
    vertex 0.8200000487267973 -0.7253629267215727 0.007528927177190719
    vertex 0.8200000487267973 -0.7660379409790035 0.4000000208616253
  endloop
endfacet
facet normal 1.0 -0.0 -0.0
  outer loop
    vertex 0.8200000487267973 -0.7660379409790035 0.4000000208616253
    vertex 0.8200000487267973 -0.7253629267215727 0.007528927177190719
    vertex 0.8200000487267973 -0.6802733242511743 0.30000002682209015
  endloop
endfacet
facet normal 1.0 -0.0 -0.0
  outer loop
    vertex 0.8200000487267973 -0.7660379409790035 0.4000000208616253
    vertex 0.8200000487267973 -0.6802733242511743 0.30000002682209015
    vertex 0.8200000487267973 -0.6564536613209819 0.3317975746340609
  endloop
endfacet
facet normal -1.0 0.0 0.0
  outer loop
    vertex 0.6200000010430815 -0.6053629517555229 0.30000002682209015
    vertex 0.6200000010430815 -0.6564536613209819 0.3317975746340609
    vertex 0.6200000010430815 -0.6053629517555229 0.4000000208616253
  endloop
endfacet
facet normal -0.10845127788373055 -0.9941017655780449 -2.7222779458045206e-17
  outer loop
    vertex 0.8200000487267973 -0.6053629517555229 0.4000000208616253
    vertex 0.8200000487267973 -0.6053629517555229 0.30000002682209015
    vertex 0.9999999962747106 -0.6249999999999997 0.30000002682209015
  endloop
endfacet
facet normal 0.009968572069734784 -0.9776659895941694 0.20992817905594277
  outer loop
    vertex 0.9362330399453634 -0.5612330436706543 0.6000000089406966
    vertex 0.8200000487267973 -0.6053629517555229 0.4000000208616253
    vertex 0.9999999962747106 -0.6249999999999997 0.30000002682209015
  endloop
endfacet
facet normal 2.6061401024560253e-18 -0.9765111763011797 0.21546675511290916
  outer loop
    vertex 0.9362330399453634 -0.5612330436706543 0.6000000089406966
    vertex 0.6200000010430815 -0.6053629517555229 0.4000000208616253
    vertex 0.8200000487267973 -0.6053629517555229 0.4000000208616253
  endloop
endfacet
facet normal 2.6061401024560253e-18 -0.9765111763011797 0.21546675511290916
  outer loop
    vertex 0.6200000010430815 -0.6053629517555229 0.4000000208616253
    vertex 0.9362330399453634 -0.5612330436706543 0.6000000089406966
    vertex -0.9362330399453637 -0.5612330436706543 0.6000000089406966
  endloop
endfacet
facet normal 2.3809676442764737e-17 0.9781476062843576 0.2079116647044642
  outer loop
    vertex 0.9362330399453634 0.5612330436706543 0.6000000089406966
    vertex 0.9999999962747106 0.6250000000000002 0.30000002682209015
    vertex 0.8200000487267973 0.6250000000000002 0.30000002682209015
  endloop
endfacet
facet normal 9.197498400507285e-09 0.9781476104373052 0.2079116451663776
  outer loop
    vertex -0.9362330399453637 0.5612330436706543 0.6000000089406966
    vertex -0.680000010877847 0.6250000000000002 0.30000002682209015
    vertex -1.0000000037252892 0.6250000000000002 0.30000002682209015
  endloop
endfacet
facet normal 9.197498400507285e-09 0.9781476104373052 0.2079116451663776
  outer loop
    vertex -0.680000010877847 0.6250000000000002 0.30000002682209015
    vertex -0.9362330399453637 0.5612330436706543 0.6000000089406966
    vertex -0.680000010877847 0.6053628921508792 0.39238508045673354
  endloop
endfacet
facet normal 9.197498400507285e-09 0.9781476104373052 0.2079116451663776
  outer loop
    vertex -0.680000010877847 0.6053628921508792 0.39238508045673354
    vertex -0.9362330399453637 0.5612330436706543 0.6000000089406966
    vertex -0.48000002279877607 0.6053628921508792 0.39238508045673354
  endloop
endfacet
facet normal 9.197498400507285e-09 0.9781476104373052 0.2079116451663776
  outer loop
    vertex -0.48000002279877607 0.6053628921508792 0.39238508045673354
    vertex -0.9362330399453637 0.5612330436706543 0.6000000089406966
    vertex 0.6200000010430815 0.6053628921508792 0.39238508045673354
  endloop
endfacet
facet normal 9.197498400507285e-09 0.9781476104373052 0.2079116451663776
  outer loop
    vertex 0.6200000010430815 0.6053628921508792 0.39238508045673354
    vertex -0.9362330399453637 0.5612330436706543 0.6000000089406966
    vertex 0.8200000487267973 0.6053628921508792 0.39238508045673354
  endloop
endfacet
facet normal 9.197498400507285e-09 0.9781476104373052 0.2079116451663776
  outer loop
    vertex 0.8200000487267973 0.6053628921508792 0.39238508045673354
    vertex -0.9362330399453637 0.5612330436706543 0.6000000089406966
    vertex 0.9362330399453634 0.5612330436706543 0.6000000089406966
  endloop
endfacet
facet normal 9.197498400507285e-09 0.9781476104373052 0.2079116451663776
  outer loop
    vertex -0.48000002279877607 0.6053628921508792 0.39238508045673354
    vertex 0.6200000010430815 0.6250000000000002 0.30000002682209015
    vertex -0.48000002279877607 0.6250000000000002 0.30000002682209015
  endloop
endfacet
facet normal 9.197498400507285e-09 0.9781476104373052 0.2079116451663776
  outer loop
    vertex 0.6200000010430815 0.6250000000000002 0.30000002682209015
    vertex -0.48000002279877607 0.6053628921508792 0.39238508045673354
    vertex 0.6200000010430815 0.6053628921508792 0.39238508045673354
  endloop
endfacet
facet normal -0.9781476013440213 -1.903551230376646e-18 0.20791168794692
  outer loop
    vertex -0.9362330399453637 -0.5612330436706543 0.6000000089406966
    vertex -1.0000000037252892 0.6250000000000002 0.30000002682209015
    vertex -1.0000000037252892 -0.6249999999999997 0.30000002682209015
  endloop
endfacet
facet normal -0.9781476013440213 -1.903551230376646e-18 0.20791168794692
  outer loop
    vertex -1.0000000037252892 0.6250000000000002 0.30000002682209015
    vertex -0.9362330399453637 -0.5612330436706543 0.6000000089406966
    vertex -0.9362330399453637 0.5612330436706543 0.6000000089406966
  endloop
endfacet
facet normal 0.9781476062843569 -1.903552502567067e-18 0.2079116647044676
  outer loop
    vertex 0.9999999962747106 0.6250000000000002 0.30000002682209015
    vertex 0.9362330399453634 -0.5612330436706543 0.6000000089406966
    vertex 0.9999999962747106 -0.6249999999999997 0.30000002682209015
  endloop
endfacet
facet normal 0.9781476062843569 -1.903552502567067e-18 0.2079116647044676
  outer loop
    vertex 0.9362330399453634 -0.5612330436706543 0.6000000089406966
    vertex 0.9999999962747106 0.6250000000000002 0.30000002682209015
    vertex 0.9362330399453634 0.5612330436706543 0.6000000089406966
  endloop
endfacet
facet normal -0.0 -0.0 1.0
  outer loop
    vertex 0.9362330399453634 -0.5612330436706543 0.6000000089406966
    vertex -0.9362330399453637 0.5612330436706543 0.6000000089406966
    vertex -0.9362330399453637 -0.5612330436706543 0.6000000089406966
  endloop
endfacet
facet normal -0.0 -0.0 1.0
  outer loop
    vertex -0.9362330399453637 0.5612330436706543 0.6000000089406966
    vertex 0.9362330399453634 -0.5612330436706543 0.6000000089406966
    vertex 0.9362330399453634 0.5612330436706543 0.6000000089406966
  endloop
endfacet
facet normal 0.9781476125849603 7.979349784775058e-19 -0.20791163506245217
  outer loop
    vertex 0.9362330399453634 -0.5612330436706543 0.0
    vertex 0.9999999962747106 0.6250000000000002 0.30000002682209015
    vertex 0.9999999962747106 -0.6249999999999997 0.30000002682209015
  endloop
endfacet
facet normal 0.9781476125849603 7.979349784775058e-19 -0.20791163506245217
  outer loop
    vertex 0.9999999962747106 0.6250000000000002 0.30000002682209015
    vertex 0.9362330399453634 -0.5612330436706543 0.0
    vertex 0.9362330399453634 0.5612330436706543 0.0
  endloop
endfacet
facet normal 2.3470335769399943e-18 -0.9893533160042446 -0.14553355665071047
  outer loop
    vertex 0.8200000487267973 -0.6053629517555229 0.30000002682209015
    vertex -0.9362330399453637 -0.5612330436706543 0.0
    vertex 0.9362330399453634 -0.5612330436706543 0.0
  endloop
endfacet
facet normal 2.3470335769399943e-18 -0.9893533160042446 -0.14553355665071047
  outer loop
    vertex -0.9362330399453637 -0.5612330436706543 0.0
    vertex 0.8200000487267973 -0.6053629517555229 0.30000002682209015
    vertex 0.6200000010430815 -0.6053629517555229 0.30000002682209015
  endloop
endfacet
facet normal -0.10657922309513858 -0.9769418666177645 -0.18500123906026955
  outer loop
    vertex 0.8200000487267973 -0.6053629517555229 0.30000002682209015
    vertex 0.9362330399453634 -0.5612330436706543 0.0
    vertex 0.9999999962747106 -0.6249999999999997 0.30000002682209015
  endloop
endfacet
facet normal -0.9781476076446263 7.9793655266732045e-19 -0.20791165830490166
  outer loop
    vertex -1.0000000037252892 0.6250000000000002 0.30000002682209015
    vertex -0.9362330399453637 -0.5612330436706543 0.0
    vertex -1.0000000037252892 -0.6249999999999997 0.30000002682209015
  endloop
endfacet
facet normal -0.9781476076446263 7.9793655266732045e-19 -0.20791165830490166
  outer loop
    vertex -0.9362330399453637 -0.5612330436706543 0.0
    vertex -1.0000000037252892 0.6250000000000002 0.30000002682209015
    vertex -0.9362330399453637 0.5612330436706543 0.0
  endloop
endfacet
facet normal 0.0 0.0 -1.0
  outer loop
    vertex 0.9362330399453634 0.5612330436706543 0.0
    vertex -0.9362330399453637 -0.5612330436706543 0.0
    vertex -0.9362330399453637 0.5612330436706543 0.0
  endloop
endfacet
facet normal 0.0 0.0 -1.0
  outer loop
    vertex -0.9362330399453637 -0.5612330436706543 0.0
    vertex 0.9362330399453634 0.5612330436706543 0.0
    vertex 0.9362330399453634 -0.5612330436706543 0.0
  endloop
endfacet
facet normal 1.0 -0.0 -0.0
  outer loop
    vertex -0.48000002279877607 0.6802732944488533 0.30000002682209015
    vertex -0.48000002279877607 0.7660379409790038 0.4000000208616253
    vertex -0.48000002279877607 0.6053628921508792 0.39238508045673354
  endloop
endfacet
facet normal 1.0 -0.0 -0.0
  outer loop
    vertex -0.48000002279877607 0.7660379409790038 0.4000000208616253
    vertex -0.48000002279877607 0.6802732944488533 0.30000002682209015
    vertex -0.48000002279877607 0.7253628969192509 0.007528927177190719
  endloop
endfacet
facet normal 1.0 -0.0 -0.0
  outer loop
    vertex -0.48000002279877607 0.7660379409790038 0.4000000208616253
    vertex -0.48000002279877607 0.7253628969192509 0.007528927177190719
    vertex -0.48000002279877607 0.812342047691346 0.09965093433856961
  endloop
endfacet
facet normal 1.0 -0.0 -0.0
  outer loop
    vertex -0.48000002279877607 0.812342047691346 0.09965093433856961
    vertex -0.48000002279877607 0.7253628969192509 0.007528927177190719
    vertex -0.48000002279877607 1.0253630876541147 -0.02122361958026876
  endloop
endfacet
facet normal 1.0 -0.0 -0.0
  outer loop
    vertex -0.48000002279877607 0.812342047691346 0.09965093433856961
    vertex -0.48000002279877607 1.0253630876541147 -0.02122361958026876
    vertex -0.48000002279877607 1.0349034070968628 0.07832025736570353
  endloop
endfacet
facet normal -1.0 0.0 0.0
  outer loop
    vertex -0.680000010877847 0.7660379409790038 0.4000000208616253
    vertex -0.680000010877847 0.7253628969192509 0.007528927177190719
    vertex -0.680000010877847 0.6802732944488533 0.30000002682209015
  endloop
endfacet
facet normal -1.0 0.0 0.0
  outer loop
    vertex -0.680000010877847 0.7253628969192509 0.007528927177190719
    vertex -0.680000010877847 0.7660379409790038 0.4000000208616253
    vertex -0.680000010877847 0.812342047691346 0.09965093433856961
  endloop
endfacet
facet normal -1.0 0.0 0.0
  outer loop
    vertex -0.680000010877847 0.7253628969192509 0.007528927177190719
    vertex -0.680000010877847 0.812342047691346 0.09965093433856961
    vertex -0.680000010877847 1.0253630876541147 -0.02122361958026876
  endloop
endfacet
facet normal -1.0 0.0 0.0
  outer loop
    vertex -0.680000010877847 1.0253630876541147 -0.02122361958026876
    vertex -0.680000010877847 0.812342047691346 0.09965093433856961
    vertex -0.680000010877847 1.0349034070968628 0.07832025736570353
  endloop
endfacet
facet normal -1.0 0.0 0.0
  outer loop
    vertex -0.680000010877847 0.7660379409790038 0.4000000208616253
    vertex -0.680000010877847 0.6250000000000002 0.30000002682209015
    vertex -0.680000010877847 0.6053628921508792 0.39238508045673354
  endloop
endfacet
facet normal -0.0 0.09540460570419654 0.9954385773167659
  outer loop
    vertex -0.48000002279877607 0.812342047691346 0.09965093433856961
    vertex -0.680000010877847 1.0349034070968628 0.07832025736570353
    vertex -0.680000010877847 0.812342047691346 0.09965093433856961
  endloop
endfacet
facet normal -0.0 0.09540460570419654 0.9954385773167659
  outer loop
    vertex -0.680000010877847 1.0349034070968628 0.07832025736570353
    vertex -0.48000002279877607 0.812342047691346 0.09965093433856961
    vertex -0.48000002279877607 1.0349034070968628 0.07832025736570353
  endloop
endfacet
facet normal -0.0 0.9954387130927806 -0.09540318902525549
  outer loop
    vertex -0.680000010877847 1.0349034070968628 0.07832025736570353
    vertex -0.48000002279877607 1.0253630876541147 -0.02122361958026876
    vertex -0.680000010877847 1.0253630876541147 -0.02122361958026876
  endloop
endfacet
facet normal -0.0 0.9954387130927806 -0.09540318902525549
  outer loop
    vertex -0.48000002279877607 1.0253630876541147 -0.02122361958026876
    vertex -0.680000010877847 1.0349034070968628 0.07832025736570353
    vertex -0.48000002279877607 1.0349034070968628 0.07832025736570353
  endloop
endfacet
facet normal 0.0 -0.09540458697701587 -0.9954385791116119
  outer loop
    vertex -0.48000002279877607 1.0253630876541147 -0.02122361958026876
    vertex -0.680000010877847 0.7253628969192509 0.007528927177190719
    vertex -0.680000010877847 1.0253630876541147 -0.02122361958026876
  endloop
endfacet
facet normal 0.0 -0.09540458697701587 -0.9954385791116119
  outer loop
    vertex -0.680000010877847 0.7253628969192509 0.007528927177190719
    vertex -0.48000002279877607 1.0253630876541147 -0.02122361958026876
    vertex -0.48000002279877607 0.7253628969192509 0.007528927177190719
  endloop
endfacet
facet normal 0.0 -0.9883238853752785 -0.1523676395981551
  outer loop
    vertex -0.48000002279877607 0.6802732944488533 0.30000002682209015
    vertex -0.680000010877847 0.7253628969192509 0.007528927177190719
    vertex -0.48000002279877607 0.7253628969192509 0.007528927177190719
  endloop
endfacet
facet normal 0.0 -0.9883238853752785 -0.1523676395981551
  outer loop
    vertex -0.680000010877847 0.7253628969192509 0.007528927177190719
    vertex -0.48000002279877607 0.6802732944488533 0.30000002682209015
    vertex -0.680000010877847 0.6802732944488533 0.30000002682209015
  endloop
endfacet
facet normal -0.0 -0.04734028551859478 0.9988788201613937
  outer loop
    vertex -0.48000002279877607 0.6053628921508792 0.39238508045673354
    vertex -0.680000010877847 0.7660379409790038 0.4000000208616253
    vertex -0.680000010877847 0.6053628921508792 0.39238508045673354
  endloop
endfacet
facet normal -0.0 -0.04734028551859478 0.9988788201613937
  outer loop
    vertex -0.680000010877847 0.7660379409790038 0.4000000208616253
    vertex -0.48000002279877607 0.6053628921508792 0.39238508045673354
    vertex -0.48000002279877607 0.7660379409790038 0.4000000208616253
  endloop
endfacet
facet normal -0.0 0.988323898769204 0.15236755271920657
  outer loop
    vertex -0.680000010877847 0.7660379409790038 0.4000000208616253
    vertex -0.48000002279877607 0.812342047691346 0.09965093433856961
    vertex -0.680000010877847 0.812342047691346 0.09965093433856961
  endloop
endfacet
facet normal -0.0 0.988323898769204 0.15236755271920657
  outer loop
    vertex -0.48000002279877607 0.812342047691346 0.09965093433856961
    vertex -0.680000010877847 0.7660379409790038 0.4000000208616253
    vertex -0.48000002279877607 0.7660379409790038 0.4000000208616253
  endloop
endfacet
facet normal -0.0 0.09540460570419652 0.9954385773167659
  outer loop
    vertex 0.8200000487267973 0.812342047691346 0.09965093433856961
    vertex 0.6200000010430815 1.0349034070968628 0.07832025736570353
    vertex 0.6200000010430815 0.812342047691346 0.09965093433856961
  endloop
endfacet
facet normal -0.0 0.09540460570419652 0.9954385773167659
  outer loop
    vertex 0.6200000010430815 1.0349034070968628 0.07832025736570353
    vertex 0.8200000487267973 0.812342047691346 0.09965093433856961
    vertex 0.8200000487267973 1.0349034070968628 0.07832025736570353
  endloop
endfacet
facet normal -0.0 0.9954387130927806 -0.09540318902525548
  outer loop
    vertex 0.6200000010430815 1.0349034070968628 0.07832025736570353
    vertex 0.8200000487267973 1.0253630876541147 -0.02122361958026876
    vertex 0.6200000010430815 1.0253630876541147 -0.02122361958026876
  endloop
endfacet
facet normal -0.0 0.9954387130927806 -0.09540318902525548
  outer loop
    vertex 0.8200000487267973 1.0253630876541147 -0.02122361958026876
    vertex 0.6200000010430815 1.0349034070968628 0.07832025736570353
    vertex 0.8200000487267973 1.0349034070968628 0.07832025736570353
  endloop
endfacet
facet normal 0.0 -0.09540458697701588 -0.9954385791116119
  outer loop
    vertex 0.8200000487267973 1.0253630876541147 -0.02122361958026876
    vertex 0.6200000010430815 0.7253628969192509 0.007528927177190719
    vertex 0.6200000010430815 1.0253630876541147 -0.02122361958026876
  endloop
endfacet
facet normal 0.0 -0.09540458697701588 -0.9954385791116119
  outer loop
    vertex 0.6200000010430815 0.7253628969192509 0.007528927177190719
    vertex 0.8200000487267973 1.0253630876541147 -0.02122361958026876
    vertex 0.8200000487267973 0.7253628969192509 0.007528927177190719
  endloop
endfacet
facet normal -1.0 0.0 0.0
  outer loop
    vertex 0.6200000010430815 0.7660379409790038 0.4000000208616253
    vertex 0.6200000010430815 0.7253628969192509 0.007528927177190719
    vertex 0.6200000010430815 0.6802732944488533 0.30000002682209015
  endloop
endfacet
facet normal -1.0 0.0 0.0
  outer loop
    vertex 0.6200000010430815 0.7253628969192509 0.007528927177190719
    vertex 0.6200000010430815 0.7660379409790038 0.4000000208616253
    vertex 0.6200000010430815 0.812342047691346 0.09965093433856961
  endloop
endfacet
facet normal -1.0 0.0 0.0
  outer loop
    vertex 0.6200000010430815 0.7253628969192509 0.007528927177190719
    vertex 0.6200000010430815 0.812342047691346 0.09965093433856961
    vertex 0.6200000010430815 1.0253630876541147 -0.02122361958026876
  endloop
endfacet
facet normal -1.0 0.0 0.0
  outer loop
    vertex 0.6200000010430815 1.0253630876541147 -0.02122361958026876
    vertex 0.6200000010430815 0.812342047691346 0.09965093433856961
    vertex 0.6200000010430815 1.0349034070968628 0.07832025736570353
  endloop
endfacet
facet normal -1.0 0.0 0.0
  outer loop
    vertex 0.6200000010430815 0.7660379409790038 0.4000000208616253
    vertex 0.6200000010430815 0.6250000000000002 0.30000002682209015
    vertex 0.6200000010430815 0.6053628921508792 0.39238508045673354
  endloop
endfacet
facet normal -0.0 -0.04734028551859478 0.9988788201613937
  outer loop
    vertex 0.8200000487267973 0.6053628921508792 0.39238508045673354
    vertex 0.6200000010430815 0.7660379409790038 0.4000000208616253
    vertex 0.6200000010430815 0.6053628921508792 0.39238508045673354
  endloop
endfacet
facet normal -0.0 -0.04734028551859478 0.9988788201613937
  outer loop
    vertex 0.6200000010430815 0.7660379409790038 0.4000000208616253
    vertex 0.8200000487267973 0.6053628921508792 0.39238508045673354
    vertex 0.8200000487267973 0.7660379409790038 0.4000000208616253
  endloop
endfacet
facet normal -0.0 0.988323898769204 0.15236755271920657
  outer loop
    vertex 0.6200000010430815 0.7660379409790038 0.4000000208616253
    vertex 0.8200000487267973 0.812342047691346 0.09965093433856961
    vertex 0.6200000010430815 0.812342047691346 0.09965093433856961
  endloop
endfacet
facet normal -0.0 0.988323898769204 0.15236755271920657
  outer loop
    vertex 0.8200000487267973 0.812342047691346 0.09965093433856961
    vertex 0.6200000010430815 0.7660379409790038 0.4000000208616253
    vertex 0.8200000487267973 0.7660379409790038 0.4000000208616253
  endloop
endfacet
facet normal 1.0 -0.0 -0.0
  outer loop
    vertex 0.8200000487267973 -0.6053629517555229 0.4000000208616253
    vertex 0.8200000487267973 -0.7660379409790035 0.4000000208616253
    vertex 0.8200000487267973 -0.6564536613209819 0.3317975746340609
  endloop
endfacet
facet normal -1.0 0.0 0.0
  outer loop
    vertex 0.6200000010430815 -0.6053629517555229 0.4000000208616253
    vertex 0.6200000010430815 -0.6564536613209819 0.3317975746340609
    vertex 0.6200000010430815 -0.7660379409790035 0.4000000208616253
  endloop
endfacet
facet normal -0.0 -0.09540462469266607 0.995438575496877
  outer loop
    vertex 0.8200000487267973 -1.0349034070968628 0.07832025736570353
    vertex 0.6200000010430815 -0.8123420923948294 0.09965093433856961
    vertex 0.6200000010430815 -1.0349034070968628 0.07832025736570353
  endloop
endfacet
facet normal -0.0 -0.09540462469266607 0.995438575496877
  outer loop
    vertex 0.6200000010430815 -0.8123420923948294 0.09965093433856961
    vertex 0.8200000487267973 -1.0349034070968628 0.07832025736570353
    vertex 0.8200000487267973 -0.8123420923948294 0.09965093433856961
  endloop
endfacet
facet normal 0.0 -0.9954385715783244 -0.09540466557829039
  outer loop
    vertex 0.8200000487267973 -1.0349034070968628 0.07832025736570353
    vertex 0.6200000010430815 -1.025362938642502 -0.02122361958026876
    vertex 0.8200000487267973 -1.025362938642502 -0.02122361958026876
  endloop
endfacet
facet normal 0.0 -0.9954385715783244 -0.09540466557829039
  outer loop
    vertex 0.6200000010430815 -1.025362938642502 -0.02122361958026876
    vertex 0.8200000487267973 -1.0349034070968628 0.07832025736570353
    vertex 0.6200000010430815 -1.0349034070968628 0.07832025736570353
  endloop
endfacet
facet normal 0.0 0.09540464332498594 -0.9954385737111217
  outer loop
    vertex 0.8200000487267973 -0.7253629267215727 0.007528927177190719
    vertex 0.6200000010430815 -1.025362938642502 -0.02122361958026876
    vertex 0.6200000010430815 -0.7253629267215727 0.007528927177190719
  endloop
endfacet
facet normal 0.0 0.09540464332498594 -0.9954385737111217
  outer loop
    vertex 0.6200000010430815 -1.025362938642502 -0.02122361958026876
    vertex 0.8200000487267973 -0.7253629267215727 0.007528927177190719
    vertex 0.8200000487267973 -1.025362938642502 -0.02122361958026876
  endloop
endfacet
facet normal -0.0 0.9883238853752783 -0.1523676395981575
  outer loop
    vertex 0.6200000010430815 -0.6802733242511743 0.30000002682209015
    vertex 0.8200000487267973 -0.7253629267215727 0.007528927177190719
    vertex 0.6200000010430815 -0.7253629267215727 0.007528927177190719
  endloop
endfacet
facet normal -0.0 0.9883238853752783 -0.1523676395981575
  outer loop
    vertex 0.8200000487267973 -0.7253629267215727 0.007528927177190719
    vertex 0.6200000010430815 -0.6802733242511743 0.30000002682209015
    vertex 0.8200000487267973 -0.6802733242511743 0.30000002682209015
  endloop
endfacet
facet normal -0.0 -0.0 1.0
  outer loop
    vertex 0.8200000487267973 -0.7660379409790035 0.4000000208616253
    vertex 0.6200000010430815 -0.6053629517555229 0.4000000208616253
    vertex 0.6200000010430815 -0.7660379409790035 0.4000000208616253
  endloop
endfacet
facet normal -0.0 -0.0 1.0
  outer loop
    vertex 0.6200000010430815 -0.6053629517555229 0.4000000208616253
    vertex 0.8200000487267973 -0.7660379409790035 0.4000000208616253
    vertex 0.8200000487267973 -0.6053629517555229 0.4000000208616253
  endloop
endfacet
facet normal 0.0 -0.9883238766175412 0.1523676964047023
  outer loop
    vertex 0.8200000487267973 -0.7660379409790035 0.4000000208616253
    vertex 0.6200000010430815 -0.8123420923948294 0.09965093433856961
    vertex 0.8200000487267973 -0.8123420923948294 0.09965093433856961
  endloop
endfacet
facet normal 0.0 -0.9883238766175412 0.1523676964047023
  outer loop
    vertex 0.6200000010430815 -0.8123420923948294 0.09965093433856961
    vertex 0.8200000487267973 -0.7660379409790035 0.4000000208616253
    vertex 0.6200000010430815 -0.7660379409790035 0.4000000208616253
  endloop
endfacet
facet normal 1.1242103100504305e-18 0.9781476125849611 -0.20791163506244886
  outer loop
    vertex -1.0000000037252892 0.6250000000000002 0.30000002682209015
    vertex 0.9362330399453634 0.5612330436706543 0.0
    vertex -0.9362330399453637 0.5612330436706543 0.0
  endloop
endfacet
facet normal 1.1242103100504305e-18 0.9781476125849611 -0.20791163506244886
  outer loop
    vertex 0.9362330399453634 0.5612330436706543 0.0
    vertex -1.0000000037252892 0.6250000000000002 0.30000002682209015
    vertex 0.9999999962747106 0.6250000000000002 0.30000002682209015
  endloop
endfacet
facet normal 1.1242103100504305e-18 0.9781476125849611 -0.20791163506244886
  outer loop
    vertex 0.9999999962747106 0.6250000000000002 0.30000002682209015
    vertex -1.0000000037252892 0.6250000000000002 0.30000002682209015
    vertex -0.680000010877847 0.6250000000000002 0.30000002682209015
  endloop
endfacet
facet normal 1.1242103100504305e-18 0.9781476125849611 -0.20791163506244886
  outer loop
    vertex 0.9999999962747106 0.6250000000000002 0.30000002682209015
    vertex -0.680000010877847 0.6250000000000002 0.30000002682209015
    vertex -0.48000002279877607 0.6250000000000002 0.30000002682209015
  endloop
endfacet
facet normal 1.1242103100504305e-18 0.9781476125849611 -0.20791163506244886
  outer loop
    vertex 0.9999999962747106 0.6250000000000002 0.30000002682209015
    vertex -0.48000002279877607 0.6250000000000002 0.30000002682209015
    vertex 0.6200000010430815 0.6250000000000002 0.30000002682209015
  endloop
endfacet
facet normal 1.1242103100504305e-18 0.9781476125849611 -0.20791163506244886
  outer loop
    vertex 0.9999999962747106 0.6250000000000002 0.30000002682209015
    vertex 0.6200000010430815 0.6250000000000002 0.30000002682209015
    vertex 0.8200000487267973 0.6250000000000002 0.30000002682209015
  endloop
endfacet
facet normal 1.0 -0.0 -0.0
  outer loop
    vertex 0.8200000487267973 0.6802732944488533 0.30000002682209015
    vertex 0.8200000487267973 0.7660379409790038 0.4000000208616253
    vertex 0.8200000487267973 0.6053628921508792 0.39238508045673354
  endloop
endfacet
facet normal 1.0 -0.0 -0.0
  outer loop
    vertex 0.8200000487267973 0.7660379409790038 0.4000000208616253
    vertex 0.8200000487267973 0.6802732944488533 0.30000002682209015
    vertex 0.8200000487267973 0.7253628969192509 0.007528927177190719
  endloop
endfacet
facet normal 1.0 -0.0 -0.0
  outer loop
    vertex 0.8200000487267973 0.7660379409790038 0.4000000208616253
    vertex 0.8200000487267973 0.7253628969192509 0.007528927177190719
    vertex 0.8200000487267973 0.812342047691346 0.09965093433856961
  endloop
endfacet
facet normal 1.0 -0.0 -0.0
  outer loop
    vertex 0.8200000487267973 0.812342047691346 0.09965093433856961
    vertex 0.8200000487267973 0.7253628969192509 0.007528927177190719
    vertex 0.8200000487267973 1.0253630876541147 -0.02122361958026876
  endloop
endfacet
facet normal 1.0 -0.0 -0.0
  outer loop
    vertex 0.8200000487267973 0.812342047691346 0.09965093433856961
    vertex 0.8200000487267973 1.0253630876541147 -0.02122361958026876
    vertex 0.8200000487267973 1.0349034070968628 0.07832025736570353
  endloop
endfacet
facet normal 0.0 -0.9883238853752785 -0.1523676395981551
  outer loop
    vertex 0.8200000487267973 0.6802732944488533 0.30000002682209015
    vertex 0.6200000010430815 0.7253628969192509 0.007528927177190719
    vertex 0.8200000487267973 0.7253628969192509 0.007528927177190719
  endloop
endfacet
facet normal 0.0 -0.9883238853752785 -0.1523676395981551
  outer loop
    vertex 0.6200000010430815 0.7253628969192509 0.007528927177190719
    vertex 0.8200000487267973 0.6802732944488533 0.30000002682209015
    vertex 0.6200000010430815 0.6802732944488533 0.30000002682209015
  endloop
endfacet
facet normal 1.0 -0.0 -0.0
  outer loop
    vertex 0.8200000487267973 -0.6053629517555229 0.4000000208616253
    vertex 0.8200000487267973 -0.6564536613209819 0.3317975746340609
    vertex 0.8200000487267973 -0.6053629517555229 0.30000002682209015
  endloop
endfacet
facet normal -1.0 0.0 0.0
  outer loop
    vertex 0.6200000010430815 -0.8123420923948294 0.09965093433856961
    vertex 0.6200000010430815 -1.025362938642502 -0.02122361958026876
    vertex 0.6200000010430815 -1.0349034070968628 0.07832025736570353
  endloop
endfacet
facet normal -1.0 0.0 0.0
  outer loop
    vertex 0.6200000010430815 -1.025362938642502 -0.02122361958026876
    vertex 0.6200000010430815 -0.8123420923948294 0.09965093433856961
    vertex 0.6200000010430815 -0.7253629267215727 0.007528927177190719
  endloop
endfacet
facet normal -1.0 0.0 0.0
  outer loop
    vertex 0.6200000010430815 -0.7253629267215727 0.007528927177190719
    vertex 0.6200000010430815 -0.8123420923948294 0.09965093433856961
    vertex 0.6200000010430815 -0.7660379409790035 0.4000000208616253
  endloop
endfacet
facet normal -1.0 0.0 0.0
  outer loop
    vertex 0.6200000010430815 -0.7253629267215727 0.007528927177190719
    vertex 0.6200000010430815 -0.7660379409790035 0.4000000208616253
    vertex 0.6200000010430815 -0.6802733242511743 0.30000002682209015
  endloop
endfacet
facet normal -1.0 0.0 0.0
  outer loop
    vertex 0.6200000010430815 -0.6802733242511743 0.30000002682209015
    vertex 0.6200000010430815 -0.7660379409790035 0.4000000208616253
    vertex 0.6200000010430815 -0.6564536613209819 0.3317975746340609
  endloop
endfacet
facet normal 0.0 -1.0 0.0
  outer loop
    vertex 0.16999995335936582 -0.6053629517555229 0.4000000208616253
    vertex 0.6200000010430815 -0.6053629517555229 0.30000002682209015
    vertex 0.6200000010430815 -0.6053629517555229 0.4000000208616253
  endloop
endfacet
facet normal 6.845709378339009e-17 -0.9765111763011797 0.21546675511290947
  outer loop
    vertex -0.9362330399453637 -0.5612330436706543 0.6000000089406966
    vertex 0.16999995335936582 -0.6053629517555229 0.4000000208616253
    vertex 0.6200000010430815 -0.6053629517555229 0.4000000208616253
  endloop
endfacet
facet normal 0.0 -1.0 0.0
  outer loop
    vertex 0.16999995335936582 -0.6053629517555229 0.4000000208616253
    vertex 0.16999995335936582 -0.6053629517555229 0.30000002682209015
    vertex 0.6200000010430815 -0.6053629517555229 0.30000002682209015
  endloop
endfacet
facet normal 0.0 -1.0 0.0
  outer loop
    vertex 0.16999995335936582 -0.6053629517555229 0.4000000208616253
    vertex -0.030000034719704763 -0.6053629517555229 0.30000002682209015
    vertex 0.16999995335936582 -0.6053629517555229 0.30000002682209015
  endloop
endfacet
facet normal 0.0 -1.0 0.0
  outer loop
    vertex 0.16999995335936582 -0.6053629517555229 0.4000000208616253
    vertex -0.48000002279877607 -0.6053629517555229 0.30000002682209015
    vertex -0.030000034719704763 -0.6053629517555229 0.30000002682209015
  endloop
endfacet
facet normal 0.0 -1.0 0.0
  outer loop
    vertex 0.16999995335936582 -0.6053629517555229 0.4000000208616253
    vertex -0.680000010877847 -0.6053629517555229 0.30000002682209015
    vertex -0.48000002279877607 -0.6053629517555229 0.30000002682209015
  endloop
endfacet
facet normal 0.05432851327216972 -0.8853226636745828 -0.46179237090902375
  outer loop
    vertex 0.16999995335936582 -0.6053629517555229 0.4000000208616253
    vertex -1.0000000037252892 -0.6249999999999997 0.30000002682209015
    vertex -0.680000010877847 -0.6053629517555229 0.30000002682209015
  endloop
endfacet
facet normal -0.0013781443778955282 -0.9780870638287628 0.20819172963617824
  outer loop
    vertex -0.9362330399453637 -0.5612330436706543 0.6000000089406966
    vertex -1.0000000037252892 -0.6249999999999997 0.30000002682209015
    vertex 0.16999995335936582 -0.6053629517555229 0.4000000208616253
  endloop
endfacet
facet normal 0.01186209331630695 -0.9785885836678655 -0.20548400097593117
  outer loop
    vertex -1.0000000037252892 -0.6249999999999997 0.30000002682209015
    vertex -0.9362330399453637 -0.5612330436706543 0.0
    vertex 0.6200000010430815 -0.6053629517555229 0.30000002682209015
  endloop
endfacet
facet normal 0.0 0.0 -1.0
  outer loop
    vertex 0.6200000010430815 -0.6053629517555229 0.30000002682209015
    vertex -1.0000000037252892 -0.6249999999999997 0.30000002682209015
    vertex 0.16999995335936582 -0.6053629517555229 0.30000002682209015
  endloop
endfacet
facet normal 0.0 0.0 -1.0
  outer loop
    vertex 0.16999995335936582 -0.6053629517555229 0.30000002682209015
    vertex -1.0000000037252892 -0.6249999999999997 0.30000002682209015
    vertex -0.030000034719704763 -0.6053629517555229 0.30000002682209015
  endloop
endfacet
facet normal 0.0 0.0 -1.0
  outer loop
    vertex -0.030000034719704763 -0.6053629517555229 0.30000002682209015
    vertex -1.0000000037252892 -0.6249999999999997 0.30000002682209015
    vertex -0.48000002279877607 -0.6053629517555229 0.30000002682209015
  endloop
endfacet
facet normal 0.0 0.0 -1.0
  outer loop
    vertex -0.48000002279877607 -0.6053629517555229 0.30000002682209015
    vertex -1.0000000037252892 -0.6249999999999997 0.30000002682209015
    vertex -0.680000010877847 -0.6053629517555229 0.30000002682209015
  endloop
endfacet
endsolid SC70-6
