solid PTC-1206B
   facet normal 0.000000e+000 0.000000e+000 -1.000000e+000
      outer loop
         vertex 2.850000e+000 7.250000e-001 0.000000e+000
         vertex 2.850000e+000 7.500000e-001 0.000000e+000
         vertex 3.500000e+000 7.500000e-001 0.000000e+000
      endloop
   endfacet
   facet normal 0.000000e+000 0.000000e+000 -1.000000e+000
      outer loop
         vertex 0.000000e+000 7.500000e-001 0.000000e+000
         vertex 6.500000e-001 7.500000e-001 0.000000e+000
         vertex 0.000000e+000 0.000000e+000 0.000000e+000
      endloop
   endfacet
   facet normal 0.000000e+000 0.000000e+000 -1.000000e+000
      outer loop
         vertex 0.000000e+000 0.000000e+000 0.000000e+000
         vertex 6.500000e-001 7.500000e-001 0.000000e+000
         vertex 6.500000e-001 7.250000e-001 0.000000e+000
      endloop
   endfacet
   facet normal 0.000000e+000 0.000000e+000 -1.000000e+000
      outer loop
         vertex 3.500000e+000 0.000000e+000 0.000000e+000
         vertex 2.850000e+000 0.000000e+000 0.000000e+000
         vertex 2.850000e+000 2.500000e-002 0.000000e+000
      endloop
   endfacet
   facet normal 0.000000e+000 0.000000e+000 -1.000000e+000
      outer loop
         vertex 6.500000e-001 0.000000e+000 0.000000e+000
         vertex 0.000000e+000 0.000000e+000 0.000000e+000
         vertex 6.500000e-001 2.500000e-002 0.000000e+000
      endloop
   endfacet
   facet normal 0.000000e+000 0.000000e+000 -1.000000e+000
      outer loop
         vertex 6.500000e-001 2.500000e-002 0.000000e+000
         vertex 0.000000e+000 0.000000e+000 0.000000e+000
         vertex 6.500000e-001 7.250000e-001 0.000000e+000
      endloop
   endfacet
   facet normal 0.000000e+000 0.000000e+000 -1.000000e+000
      outer loop
         vertex 6.500000e-001 2.500000e-002 0.000000e+000
         vertex 6.500000e-001 7.250000e-001 0.000000e+000
         vertex 2.850000e+000 2.500000e-002 0.000000e+000
      endloop
   endfacet
   facet normal 0.000000e+000 0.000000e+000 -1.000000e+000
      outer loop
         vertex 2.850000e+000 2.500000e-002 0.000000e+000
         vertex 6.500000e-001 7.250000e-001 0.000000e+000
         vertex 2.850000e+000 7.250000e-001 0.000000e+000
      endloop
   endfacet
   facet normal 0.000000e+000 0.000000e+000 -1.000000e+000
      outer loop
         vertex 2.850000e+000 2.500000e-002 0.000000e+000
         vertex 2.850000e+000 7.250000e-001 0.000000e+000
         vertex 3.500000e+000 0.000000e+000 0.000000e+000
      endloop
   endfacet
   facet normal 0.000000e+000 0.000000e+000 -1.000000e+000
      outer loop
         vertex 3.500000e+000 0.000000e+000 0.000000e+000
         vertex 2.850000e+000 7.250000e-001 0.000000e+000
         vertex 3.500000e+000 7.500000e-001 0.000000e+000
      endloop
   endfacet
   facet normal 0.000000e+000 0.000000e+000 1.000000e+000
      outer loop
         vertex 2.850000e+000 2.500000e-002 1.800000e+000
         vertex 2.850000e+000 0.000000e+000 1.800000e+000
         vertex 3.500000e+000 0.000000e+000 1.800000e+000
      endloop
   endfacet
   facet normal 0.000000e+000 0.000000e+000 1.000000e+000
      outer loop
         vertex 0.000000e+000 0.000000e+000 1.800000e+000
         vertex 6.500000e-001 0.000000e+000 1.800000e+000
         vertex 0.000000e+000 7.500000e-001 1.800000e+000
      endloop
   endfacet
   facet normal 0.000000e+000 0.000000e+000 1.000000e+000
      outer loop
         vertex 0.000000e+000 7.500000e-001 1.800000e+000
         vertex 6.500000e-001 0.000000e+000 1.800000e+000
         vertex 6.500000e-001 2.500000e-002 1.800000e+000
      endloop
   endfacet
   facet normal 0.000000e+000 0.000000e+000 1.000000e+000
      outer loop
         vertex 3.500000e+000 7.500000e-001 1.800000e+000
         vertex 2.850000e+000 7.500000e-001 1.800000e+000
         vertex 2.850000e+000 7.250000e-001 1.800000e+000
      endloop
   endfacet
   facet normal 0.000000e+000 0.000000e+000 1.000000e+000
      outer loop
         vertex 6.500000e-001 7.500000e-001 1.800000e+000
         vertex 0.000000e+000 7.500000e-001 1.800000e+000
         vertex 6.500000e-001 7.250000e-001 1.800000e+000
      endloop
   endfacet
   facet normal 0.000000e+000 0.000000e+000 1.000000e+000
      outer loop
         vertex 6.500000e-001 7.250000e-001 1.800000e+000
         vertex 0.000000e+000 7.500000e-001 1.800000e+000
         vertex 6.500000e-001 2.500000e-002 1.800000e+000
      endloop
   endfacet
   facet normal 0.000000e+000 0.000000e+000 1.000000e+000
      outer loop
         vertex 6.500000e-001 7.250000e-001 1.800000e+000
         vertex 6.500000e-001 2.500000e-002 1.800000e+000
         vertex 2.850000e+000 7.250000e-001 1.800000e+000
      endloop
   endfacet
   facet normal 0.000000e+000 0.000000e+000 1.000000e+000
      outer loop
         vertex 2.850000e+000 7.250000e-001 1.800000e+000
         vertex 6.500000e-001 2.500000e-002 1.800000e+000
         vertex 2.850000e+000 2.500000e-002 1.800000e+000
      endloop
   endfacet
   facet normal 0.000000e+000 0.000000e+000 1.000000e+000
      outer loop
         vertex 2.850000e+000 7.250000e-001 1.800000e+000
         vertex 2.850000e+000 2.500000e-002 1.800000e+000
         vertex 3.500000e+000 7.500000e-001 1.800000e+000
      endloop
   endfacet
   facet normal 0.000000e+000 0.000000e+000 1.000000e+000
      outer loop
         vertex 3.500000e+000 7.500000e-001 1.800000e+000
         vertex 2.850000e+000 2.500000e-002 1.800000e+000
         vertex 3.500000e+000 0.000000e+000 1.800000e+000
      endloop
   endfacet
   facet normal 0.000000e+000 -1.000000e+000 0.000000e+000
      outer loop
         vertex 3.500000e+000 0.000000e+000 0.000000e+000
         vertex 3.500000e+000 0.000000e+000 4.500000e-001
         vertex 3.421858e+000 0.000000e+000 4.568365e-001
      endloop
   endfacet
   facet normal 0.000000e+000 -1.000000e+000 0.000000e+000
      outer loop
         vertex 2.850000e+000 0.000000e+000 0.000000e+000
         vertex 3.275000e+000 0.000000e+000 5.102885e-001
         vertex 3.210746e+000 0.000000e+000 5.552800e-001
      endloop
   endfacet
   facet normal 0.000000e+000 -1.000000e+000 0.000000e+000
      outer loop
         vertex 3.210746e+000 0.000000e+000 5.552800e-001
         vertex 3.155280e+000 0.000000e+000 6.107455e-001
         vertex 2.850000e+000 0.000000e+000 0.000000e+000
      endloop
   endfacet
   facet normal 0.000000e+000 -1.000000e+000 0.000000e+000
      outer loop
         vertex 2.850000e+000 0.000000e+000 0.000000e+000
         vertex 3.155280e+000 0.000000e+000 6.107455e-001
         vertex 3.110289e+000 0.000000e+000 6.750000e-001
      endloop
   endfacet
   facet normal 0.000000e+000 -1.000000e+000 0.000000e+000
      outer loop
         vertex 2.850000e+000 0.000000e+000 0.000000e+000
         vertex 3.110289e+000 0.000000e+000 6.750000e-001
         vertex 3.077138e+000 0.000000e+000 7.460909e-001
      endloop
   endfacet
   facet normal 0.000000e+000 -1.000000e+000 0.000000e+000
      outer loop
         vertex 3.077138e+000 0.000000e+000 1.053909e+000
         vertex 3.110289e+000 0.000000e+000 1.125000e+000
         vertex 2.850000e+000 0.000000e+000 1.800000e+000
      endloop
   endfacet
   facet normal 0.000000e+000 -1.000000e+000 0.000000e+000
      outer loop
         vertex 2.850000e+000 0.000000e+000 1.800000e+000
         vertex 3.110289e+000 0.000000e+000 1.125000e+000
         vertex 3.155280e+000 0.000000e+000 1.189254e+000
      endloop
   endfacet
   facet normal 0.000000e+000 -1.000000e+000 0.000000e+000
      outer loop
         vertex 2.850000e+000 0.000000e+000 1.800000e+000
         vertex 3.155280e+000 0.000000e+000 1.189254e+000
         vertex 3.210746e+000 0.000000e+000 1.244720e+000
      endloop
   endfacet
   facet normal 0.000000e+000 -1.000000e+000 0.000000e+000
      outer loop
         vertex 3.210746e+000 0.000000e+000 1.244720e+000
         vertex 3.275000e+000 0.000000e+000 1.289711e+000
         vertex 2.850000e+000 0.000000e+000 1.800000e+000
      endloop
   endfacet
   facet normal 0.000000e+000 -1.000000e+000 0.000000e+000
      outer loop
         vertex 2.850000e+000 0.000000e+000 1.800000e+000
         vertex 3.275000e+000 0.000000e+000 1.289711e+000
         vertex 3.346091e+000 0.000000e+000 1.322862e+000
      endloop
   endfacet
   facet normal 0.000000e+000 -1.000000e+000 0.000000e+000
      outer loop
         vertex 2.850000e+000 0.000000e+000 1.800000e+000
         vertex 3.346091e+000 0.000000e+000 1.322862e+000
         vertex 3.500000e+000 0.000000e+000 1.800000e+000
      endloop
   endfacet
   facet normal 0.000000e+000 -1.000000e+000 0.000000e+000
      outer loop
         vertex 3.500000e+000 0.000000e+000 1.800000e+000
         vertex 3.346091e+000 0.000000e+000 1.322862e+000
         vertex 3.421858e+000 0.000000e+000 1.343163e+000
      endloop
   endfacet
   facet normal 0.000000e+000 -1.000000e+000 0.000000e+000
      outer loop
         vertex 3.500000e+000 0.000000e+000 1.800000e+000
         vertex 3.421858e+000 0.000000e+000 1.343163e+000
         vertex 3.500000e+000 0.000000e+000 1.350000e+000
      endloop
   endfacet
   facet normal 0.000000e+000 -1.000000e+000 0.000000e+000
      outer loop
         vertex 3.500000e+000 0.000000e+000 0.000000e+000
         vertex 3.421858e+000 0.000000e+000 4.568365e-001
         vertex 2.850000e+000 0.000000e+000 0.000000e+000
      endloop
   endfacet
   facet normal 0.000000e+000 -1.000000e+000 0.000000e+000
      outer loop
         vertex 2.850000e+000 0.000000e+000 0.000000e+000
         vertex 3.421858e+000 0.000000e+000 4.568365e-001
         vertex 3.346091e+000 0.000000e+000 4.771383e-001
      endloop
   endfacet
   facet normal 0.000000e+000 -1.000000e+000 0.000000e+000
      outer loop
         vertex 2.850000e+000 0.000000e+000 0.000000e+000
         vertex 3.346091e+000 0.000000e+000 4.771383e-001
         vertex 3.275000e+000 0.000000e+000 5.102885e-001
      endloop
   endfacet
   facet normal 0.000000e+000 -1.000000e+000 0.000000e+000
      outer loop
         vertex 3.077138e+000 0.000000e+000 7.460909e-001
         vertex 3.056837e+000 0.000000e+000 8.218583e-001
         vertex 2.850000e+000 0.000000e+000 0.000000e+000
      endloop
   endfacet
   facet normal 0.000000e+000 -1.000000e+000 0.000000e+000
      outer loop
         vertex 2.850000e+000 0.000000e+000 0.000000e+000
         vertex 3.056837e+000 0.000000e+000 8.218583e-001
         vertex 3.050000e+000 0.000000e+000 9.000000e-001
      endloop
   endfacet
   facet normal 0.000000e+000 -1.000000e+000 0.000000e+000
      outer loop
         vertex 2.850000e+000 0.000000e+000 0.000000e+000
         vertex 3.050000e+000 0.000000e+000 9.000000e-001
         vertex 2.850000e+000 0.000000e+000 1.800000e+000
      endloop
   endfacet
   facet normal 0.000000e+000 -1.000000e+000 0.000000e+000
      outer loop
         vertex 2.850000e+000 0.000000e+000 1.800000e+000
         vertex 3.050000e+000 0.000000e+000 9.000000e-001
         vertex 3.056837e+000 0.000000e+000 9.781417e-001
      endloop
   endfacet
   facet normal 0.000000e+000 -1.000000e+000 0.000000e+000
      outer loop
         vertex 2.850000e+000 0.000000e+000 1.800000e+000
         vertex 3.056837e+000 0.000000e+000 9.781417e-001
         vertex 3.077138e+000 0.000000e+000 1.053909e+000
      endloop
   endfacet
   facet normal 0.000000e+000 -1.000000e+000 0.000000e+000
      outer loop
         vertex 0.000000e+000 0.000000e+000 1.800000e+000
         vertex 0.000000e+000 0.000000e+000 1.350000e+000
         vertex 7.814169e-002 0.000000e+000 1.343163e+000
      endloop
   endfacet
   facet normal 0.000000e+000 -1.000000e+000 0.000000e+000
      outer loop
         vertex 6.500000e-001 0.000000e+000 1.800000e+000
         vertex 2.250001e-001 0.000000e+000 1.289711e+000
         vertex 2.892545e-001 0.000000e+000 1.244720e+000
      endloop
   endfacet
   facet normal 0.000000e+000 -1.000000e+000 0.000000e+000
      outer loop
         vertex 4.228618e-001 0.000000e+000 7.460909e-001
         vertex 3.897115e-001 0.000000e+000 6.750000e-001
         vertex 6.500000e-001 0.000000e+000 0.000000e+000
      endloop
   endfacet
   facet normal 0.000000e+000 -1.000000e+000 0.000000e+000
      outer loop
         vertex 6.500000e-001 0.000000e+000 0.000000e+000
         vertex 3.897115e-001 0.000000e+000 6.750000e-001
         vertex 3.447201e-001 0.000000e+000 6.107455e-001
      endloop
   endfacet
   facet normal 0.000000e+000 -1.000000e+000 0.000000e+000
      outer loop
         vertex 6.500000e-001 0.000000e+000 0.000000e+000
         vertex 3.447201e-001 0.000000e+000 6.107455e-001
         vertex 2.892545e-001 0.000000e+000 5.552800e-001
      endloop
   endfacet
   facet normal 0.000000e+000 -1.000000e+000 0.000000e+000
      outer loop
         vertex 0.000000e+000 0.000000e+000 1.800000e+000
         vertex 7.814169e-002 0.000000e+000 1.343163e+000
         vertex 6.500000e-001 0.000000e+000 1.800000e+000
      endloop
   endfacet
   facet normal 0.000000e+000 -1.000000e+000 0.000000e+000
      outer loop
         vertex 6.500000e-001 0.000000e+000 1.800000e+000
         vertex 7.814169e-002 0.000000e+000 1.343163e+000
         vertex 1.539091e-001 0.000000e+000 1.322862e+000
      endloop
   endfacet
   facet normal 0.000000e+000 -1.000000e+000 0.000000e+000
      outer loop
         vertex 6.500000e-001 0.000000e+000 1.800000e+000
         vertex 1.539091e-001 0.000000e+000 1.322862e+000
         vertex 2.250001e-001 0.000000e+000 1.289711e+000
      endloop
   endfacet
   facet normal 0.000000e+000 -1.000000e+000 0.000000e+000
      outer loop
         vertex 2.892545e-001 0.000000e+000 1.244720e+000
         vertex 3.447201e-001 0.000000e+000 1.189254e+000
         vertex 6.500000e-001 0.000000e+000 1.800000e+000
      endloop
   endfacet
   facet normal 0.000000e+000 -1.000000e+000 0.000000e+000
      outer loop
         vertex 6.500000e-001 0.000000e+000 1.800000e+000
         vertex 3.447201e-001 0.000000e+000 1.189254e+000
         vertex 3.897115e-001 0.000000e+000 1.125000e+000
      endloop
   endfacet
   facet normal 0.000000e+000 -1.000000e+000 0.000000e+000
      outer loop
         vertex 6.500000e-001 0.000000e+000 1.800000e+000
         vertex 3.897115e-001 0.000000e+000 1.125000e+000
         vertex 4.228618e-001 0.000000e+000 1.053909e+000
      endloop
   endfacet
   facet normal 0.000000e+000 -1.000000e+000 0.000000e+000
      outer loop
         vertex 4.228618e-001 0.000000e+000 1.053909e+000
         vertex 4.431636e-001 0.000000e+000 9.781417e-001
         vertex 6.500000e-001 0.000000e+000 1.800000e+000
      endloop
   endfacet
   facet normal 0.000000e+000 -1.000000e+000 0.000000e+000
      outer loop
         vertex 6.500000e-001 0.000000e+000 1.800000e+000
         vertex 4.431636e-001 0.000000e+000 9.781417e-001
         vertex 4.500000e-001 0.000000e+000 9.000000e-001
      endloop
   endfacet
   facet normal 0.000000e+000 -1.000000e+000 0.000000e+000
      outer loop
         vertex 6.500000e-001 0.000000e+000 1.800000e+000
         vertex 4.500000e-001 0.000000e+000 9.000000e-001
         vertex 6.500000e-001 0.000000e+000 0.000000e+000
      endloop
   endfacet
   facet normal 0.000000e+000 -1.000000e+000 0.000000e+000
      outer loop
         vertex 6.500000e-001 0.000000e+000 0.000000e+000
         vertex 4.500000e-001 0.000000e+000 9.000000e-001
         vertex 4.431636e-001 0.000000e+000 8.218583e-001
      endloop
   endfacet
   facet normal 0.000000e+000 -1.000000e+000 0.000000e+000
      outer loop
         vertex 6.500000e-001 0.000000e+000 0.000000e+000
         vertex 4.431636e-001 0.000000e+000 8.218583e-001
         vertex 4.228618e-001 0.000000e+000 7.460909e-001
      endloop
   endfacet
   facet normal 0.000000e+000 -1.000000e+000 0.000000e+000
      outer loop
         vertex 2.892545e-001 0.000000e+000 5.552800e-001
         vertex 2.250001e-001 0.000000e+000 5.102885e-001
         vertex 6.500000e-001 0.000000e+000 0.000000e+000
      endloop
   endfacet
   facet normal 0.000000e+000 -1.000000e+000 0.000000e+000
      outer loop
         vertex 6.500000e-001 0.000000e+000 0.000000e+000
         vertex 2.250001e-001 0.000000e+000 5.102885e-001
         vertex 1.539091e-001 0.000000e+000 4.771383e-001
      endloop
   endfacet
   facet normal 0.000000e+000 -1.000000e+000 0.000000e+000
      outer loop
         vertex 6.500000e-001 0.000000e+000 0.000000e+000
         vertex 1.539091e-001 0.000000e+000 4.771383e-001
         vertex 0.000000e+000 0.000000e+000 0.000000e+000
      endloop
   endfacet
   facet normal 0.000000e+000 -1.000000e+000 0.000000e+000
      outer loop
         vertex 0.000000e+000 0.000000e+000 0.000000e+000
         vertex 1.539091e-001 0.000000e+000 4.771383e-001
         vertex 7.814169e-002 0.000000e+000 4.568365e-001
      endloop
   endfacet
   facet normal 0.000000e+000 -1.000000e+000 0.000000e+000
      outer loop
         vertex 0.000000e+000 0.000000e+000 0.000000e+000
         vertex 7.814169e-002 0.000000e+000 4.568365e-001
         vertex 0.000000e+000 0.000000e+000 4.500000e-001
      endloop
   endfacet
   facet normal 0.000000e+000 1.000000e+000 0.000000e+000
      outer loop
         vertex 3.346091e+000 7.500000e-001 1.322862e+000
         vertex 3.275000e+000 7.500000e-001 1.289711e+000
         vertex 2.850000e+000 7.500000e-001 1.800000e+000
      endloop
   endfacet
   facet normal 0.000000e+000 1.000000e+000 0.000000e+000
      outer loop
         vertex 2.850000e+000 7.500000e-001 1.800000e+000
         vertex 3.275000e+000 7.500000e-001 1.289711e+000
         vertex 3.210746e+000 7.500000e-001 1.244720e+000
      endloop
   endfacet
   facet normal 0.000000e+000 1.000000e+000 0.000000e+000
      outer loop
         vertex 3.346091e+000 7.500000e-001 1.322862e+000
         vertex 2.850000e+000 7.500000e-001 1.800000e+000
         vertex 3.421858e+000 7.500000e-001 1.343163e+000
      endloop
   endfacet
   facet normal 0.000000e+000 1.000000e+000 0.000000e+000
      outer loop
         vertex 3.421858e+000 7.500000e-001 1.343163e+000
         vertex 2.850000e+000 7.500000e-001 1.800000e+000
         vertex 3.500000e+000 7.500000e-001 1.800000e+000
      endloop
   endfacet
   facet normal 0.000000e+000 1.000000e+000 0.000000e+000
      outer loop
         vertex 3.421858e+000 7.500000e-001 1.343163e+000
         vertex 3.500000e+000 7.500000e-001 1.800000e+000
         vertex 3.500000e+000 7.500000e-001 1.350000e+000
      endloop
   endfacet
   facet normal 0.000000e+000 1.000000e+000 0.000000e+000
      outer loop
         vertex 3.210746e+000 7.500000e-001 1.244720e+000
         vertex 3.155280e+000 7.500000e-001 1.189254e+000
         vertex 2.850000e+000 7.500000e-001 1.800000e+000
      endloop
   endfacet
   facet normal 0.000000e+000 1.000000e+000 0.000000e+000
      outer loop
         vertex 2.850000e+000 7.500000e-001 1.800000e+000
         vertex 3.155280e+000 7.500000e-001 1.189254e+000
         vertex 3.110289e+000 7.500000e-001 1.125000e+000
      endloop
   endfacet
   facet normal 0.000000e+000 1.000000e+000 0.000000e+000
      outer loop
         vertex 2.850000e+000 7.500000e-001 1.800000e+000
         vertex 3.110289e+000 7.500000e-001 1.125000e+000
         vertex 3.077138e+000 7.500000e-001 1.053909e+000
      endloop
   endfacet
   facet normal 0.000000e+000 1.000000e+000 0.000000e+000
      outer loop
         vertex 3.077138e+000 7.500000e-001 7.460909e-001
         vertex 3.110289e+000 7.500000e-001 6.750000e-001
         vertex 2.850000e+000 7.500000e-001 0.000000e+000
      endloop
   endfacet
   facet normal 0.000000e+000 1.000000e+000 0.000000e+000
      outer loop
         vertex 2.850000e+000 7.500000e-001 0.000000e+000
         vertex 3.110289e+000 7.500000e-001 6.750000e-001
         vertex 3.155280e+000 7.500000e-001 6.107455e-001
      endloop
   endfacet
   facet normal 0.000000e+000 1.000000e+000 0.000000e+000
      outer loop
         vertex 2.850000e+000 7.500000e-001 0.000000e+000
         vertex 3.155280e+000 7.500000e-001 6.107455e-001
         vertex 3.210746e+000 7.500000e-001 5.552800e-001
      endloop
   endfacet
   facet normal 0.000000e+000 1.000000e+000 0.000000e+000
      outer loop
         vertex 3.077138e+000 7.500000e-001 1.053909e+000
         vertex 3.056837e+000 7.500000e-001 9.781417e-001
         vertex 2.850000e+000 7.500000e-001 1.800000e+000
      endloop
   endfacet
   facet normal 0.000000e+000 1.000000e+000 0.000000e+000
      outer loop
         vertex 2.850000e+000 7.500000e-001 1.800000e+000
         vertex 3.056837e+000 7.500000e-001 9.781417e-001
         vertex 3.050000e+000 7.500000e-001 9.000000e-001
      endloop
   endfacet
   facet normal 0.000000e+000 1.000000e+000 0.000000e+000
      outer loop
         vertex 2.850000e+000 7.500000e-001 1.800000e+000
         vertex 3.050000e+000 7.500000e-001 9.000000e-001
         vertex 2.850000e+000 7.500000e-001 0.000000e+000
      endloop
   endfacet
   facet normal 0.000000e+000 1.000000e+000 0.000000e+000
      outer loop
         vertex 2.850000e+000 7.500000e-001 0.000000e+000
         vertex 3.050000e+000 7.500000e-001 9.000000e-001
         vertex 3.056837e+000 7.500000e-001 8.218583e-001
      endloop
   endfacet
   facet normal 0.000000e+000 1.000000e+000 0.000000e+000
      outer loop
         vertex 2.850000e+000 7.500000e-001 0.000000e+000
         vertex 3.056837e+000 7.500000e-001 8.218583e-001
         vertex 3.077138e+000 7.500000e-001 7.460909e-001
      endloop
   endfacet
   facet normal 0.000000e+000 1.000000e+000 0.000000e+000
      outer loop
         vertex 3.210746e+000 7.500000e-001 5.552800e-001
         vertex 3.275000e+000 7.500000e-001 5.102885e-001
         vertex 2.850000e+000 7.500000e-001 0.000000e+000
      endloop
   endfacet
   facet normal 0.000000e+000 1.000000e+000 0.000000e+000
      outer loop
         vertex 2.850000e+000 7.500000e-001 0.000000e+000
         vertex 3.275000e+000 7.500000e-001 5.102885e-001
         vertex 3.346091e+000 7.500000e-001 4.771383e-001
      endloop
   endfacet
   facet normal 0.000000e+000 1.000000e+000 0.000000e+000
      outer loop
         vertex 2.850000e+000 7.500000e-001 0.000000e+000
         vertex 3.346091e+000 7.500000e-001 4.771383e-001
         vertex 3.500000e+000 7.500000e-001 0.000000e+000
      endloop
   endfacet
   facet normal 0.000000e+000 1.000000e+000 0.000000e+000
      outer loop
         vertex 3.500000e+000 7.500000e-001 0.000000e+000
         vertex 3.346091e+000 7.500000e-001 4.771383e-001
         vertex 3.421858e+000 7.500000e-001 4.568365e-001
      endloop
   endfacet
   facet normal 0.000000e+000 1.000000e+000 0.000000e+000
      outer loop
         vertex 3.500000e+000 7.500000e-001 0.000000e+000
         vertex 3.421858e+000 7.500000e-001 4.568365e-001
         vertex 3.500000e+000 7.500000e-001 4.500000e-001
      endloop
   endfacet
   facet normal -1.000000e+000 0.000000e+000 4.818676e-016
      outer loop
         vertex 0.000000e+000 7.500000e-001 4.500000e-001
         vertex 0.000000e+000 7.500000e-001 0.000000e+000
         vertex 0.000000e+000 0.000000e+000 4.500000e-001
      endloop
   endfacet
   facet normal -1.000000e+000 0.000000e+000 4.818676e-016
      outer loop
         vertex 0.000000e+000 0.000000e+000 4.500000e-001
         vertex 0.000000e+000 7.500000e-001 0.000000e+000
         vertex 0.000000e+000 0.000000e+000 0.000000e+000
      endloop
   endfacet
   facet normal -5.807913e-002 0.000000e+000 9.983119e-001
      outer loop
         vertex 0.000000e+000 7.500000e-001 4.500000e-001
         vertex 0.000000e+000 0.000000e+000 4.500000e-001
         vertex 7.814169e-002 0.000000e+000 4.568365e-001
      endloop
   endfacet
   facet normal -1.161583e-001 0.000000e+000 9.932307e-001
      outer loop
         vertex 0.000000e+000 7.500000e-001 4.500000e-001
         vertex 7.814169e-002 0.000000e+000 4.568365e-001
         vertex 7.814169e-002 7.500000e-001 4.568365e-001
      endloop
   endfacet
   facet normal -2.305519e-001 0.000000e+000 9.730600e-001
      outer loop
         vertex 7.814169e-002 7.500000e-001 4.568365e-001
         vertex 7.814169e-002 0.000000e+000 4.568365e-001
         vertex 1.539091e-001 0.000000e+000 4.771383e-001
      endloop
   endfacet
   facet normal -2.868663e-001 0.000000e+000 9.579706e-001
      outer loop
         vertex 7.814169e-002 7.500000e-001 4.568365e-001
         vertex 1.539091e-001 0.000000e+000 4.771383e-001
         vertex 1.539091e-001 7.500000e-001 4.771383e-001
      endloop
   endfacet
   facet normal -3.960194e-001 0.000000e+000 9.182422e-001
      outer loop
         vertex 1.539091e-001 7.500000e-001 4.771383e-001
         vertex 1.539091e-001 0.000000e+000 4.771383e-001
         vertex 2.250001e-001 0.000000e+000 5.102885e-001
      endloop
   endfacet
   facet normal -4.488580e-001 0.000000e+000 8.936031e-001
      outer loop
         vertex 1.539091e-001 7.500000e-001 4.771383e-001
         vertex 2.250001e-001 0.000000e+000 5.102885e-001
         vertex 2.250001e-001 7.500000e-001 5.102885e-001
      endloop
   endfacet
   facet normal -5.494540e-001 0.000000e+000 8.355240e-001
      outer loop
         vertex 2.250001e-001 7.500000e-001 5.102885e-001
         vertex 2.250001e-001 0.000000e+000 5.102885e-001
         vertex 2.892545e-001 0.000000e+000 5.552800e-001
      endloop
   endfacet
   facet normal -5.972114e-001 0.000000e+000 8.020838e-001
      outer loop
         vertex 2.250001e-001 7.500000e-001 5.102885e-001
         vertex 2.892545e-001 0.000000e+000 5.552800e-001
         vertex 2.892545e-001 7.500000e-001 5.552800e-001
      endloop
   endfacet
   facet normal -6.861938e-001 0.000000e+000 7.274188e-001
      outer loop
         vertex 2.892545e-001 7.500000e-001 5.552800e-001
         vertex 2.892545e-001 0.000000e+000 5.552800e-001
         vertex 3.447201e-001 0.000000e+000 6.107455e-001
      endloop
   endfacet
   facet normal -7.274188e-001 0.000000e+000 6.861938e-001
      outer loop
         vertex 2.892545e-001 7.500000e-001 5.552800e-001
         vertex 3.447201e-001 0.000000e+000 6.107455e-001
         vertex 3.447201e-001 7.500000e-001 6.107455e-001
      endloop
   endfacet
   facet normal -8.020838e-001 0.000000e+000 5.972114e-001
      outer loop
         vertex 3.447201e-001 7.500000e-001 6.107455e-001
         vertex 3.447201e-001 0.000000e+000 6.107455e-001
         vertex 3.897115e-001 0.000000e+000 6.750000e-001
      endloop
   endfacet
   facet normal -8.355240e-001 0.000000e+000 5.494540e-001
      outer loop
         vertex 3.447201e-001 7.500000e-001 6.107455e-001
         vertex 3.897115e-001 0.000000e+000 6.750000e-001
         vertex 3.897115e-001 7.500000e-001 6.750000e-001
      endloop
   endfacet
   facet normal -8.936031e-001 0.000000e+000 4.488580e-001
      outer loop
         vertex 3.897115e-001 7.500000e-001 6.750000e-001
         vertex 3.897115e-001 0.000000e+000 6.750000e-001
         vertex 4.228618e-001 0.000000e+000 7.460909e-001
      endloop
   endfacet
   facet normal -9.182422e-001 0.000000e+000 3.960194e-001
      outer loop
         vertex 3.897115e-001 7.500000e-001 6.750000e-001
         vertex 4.228618e-001 0.000000e+000 7.460909e-001
         vertex 4.228618e-001 7.500000e-001 7.460909e-001
      endloop
   endfacet
   facet normal -9.579706e-001 0.000000e+000 2.868663e-001
      outer loop
         vertex 4.228618e-001 7.500000e-001 7.460909e-001
         vertex 4.228618e-001 0.000000e+000 7.460909e-001
         vertex 4.431636e-001 0.000000e+000 8.218583e-001
      endloop
   endfacet
   facet normal -9.730600e-001 0.000000e+000 2.305519e-001
      outer loop
         vertex 4.228618e-001 7.500000e-001 7.460909e-001
         vertex 4.431636e-001 0.000000e+000 8.218583e-001
         vertex 4.431636e-001 7.500000e-001 8.218583e-001
      endloop
   endfacet
   facet normal -9.932307e-001 0.000000e+000 1.161583e-001
      outer loop
         vertex 4.431636e-001 7.500000e-001 8.218583e-001
         vertex 4.431636e-001 0.000000e+000 8.218583e-001
         vertex 4.500000e-001 0.000000e+000 9.000000e-001
      endloop
   endfacet
   facet normal -9.983119e-001 0.000000e+000 5.807913e-002
      outer loop
         vertex 4.431636e-001 7.500000e-001 8.218583e-001
         vertex 4.500000e-001 0.000000e+000 9.000000e-001
         vertex 4.500000e-001 7.500000e-001 9.000000e-001
      endloop
   endfacet
   facet normal -9.983119e-001 0.000000e+000 -5.807913e-002
      outer loop
         vertex 4.500000e-001 7.500000e-001 9.000000e-001
         vertex 4.500000e-001 0.000000e+000 9.000000e-001
         vertex 4.431636e-001 0.000000e+000 9.781417e-001
      endloop
   endfacet
   facet normal -9.932307e-001 0.000000e+000 -1.161583e-001
      outer loop
         vertex 4.500000e-001 7.500000e-001 9.000000e-001
         vertex 4.431636e-001 0.000000e+000 9.781417e-001
         vertex 4.431636e-001 7.500000e-001 9.781417e-001
      endloop
   endfacet
   facet normal -9.730600e-001 0.000000e+000 -2.305519e-001
      outer loop
         vertex 4.431636e-001 7.500000e-001 9.781417e-001
         vertex 4.431636e-001 0.000000e+000 9.781417e-001
         vertex 4.228618e-001 0.000000e+000 1.053909e+000
      endloop
   endfacet
   facet normal -9.579706e-001 0.000000e+000 -2.868663e-001
      outer loop
         vertex 4.431636e-001 7.500000e-001 9.781417e-001
         vertex 4.228618e-001 0.000000e+000 1.053909e+000
         vertex 4.228618e-001 7.500000e-001 1.053909e+000
      endloop
   endfacet
   facet normal -9.182422e-001 0.000000e+000 -3.960194e-001
      outer loop
         vertex 4.228618e-001 7.500000e-001 1.053909e+000
         vertex 4.228618e-001 0.000000e+000 1.053909e+000
         vertex 3.897115e-001 0.000000e+000 1.125000e+000
      endloop
   endfacet
   facet normal -8.936031e-001 0.000000e+000 -4.488580e-001
      outer loop
         vertex 4.228618e-001 7.500000e-001 1.053909e+000
         vertex 3.897115e-001 0.000000e+000 1.125000e+000
         vertex 3.897115e-001 7.500000e-001 1.125000e+000
      endloop
   endfacet
   facet normal -8.355240e-001 0.000000e+000 -5.494540e-001
      outer loop
         vertex 3.897115e-001 7.500000e-001 1.125000e+000
         vertex 3.897115e-001 0.000000e+000 1.125000e+000
         vertex 3.447201e-001 0.000000e+000 1.189254e+000
      endloop
   endfacet
   facet normal -8.020838e-001 0.000000e+000 -5.972114e-001
      outer loop
         vertex 3.897115e-001 7.500000e-001 1.125000e+000
         vertex 3.447201e-001 0.000000e+000 1.189254e+000
         vertex 3.447201e-001 7.500000e-001 1.189254e+000
      endloop
   endfacet
   facet normal -7.274188e-001 0.000000e+000 -6.861938e-001
      outer loop
         vertex 3.447201e-001 7.500000e-001 1.189254e+000
         vertex 3.447201e-001 0.000000e+000 1.189254e+000
         vertex 2.892545e-001 0.000000e+000 1.244720e+000
      endloop
   endfacet
   facet normal -6.861938e-001 0.000000e+000 -7.274188e-001
      outer loop
         vertex 3.447201e-001 7.500000e-001 1.189254e+000
         vertex 2.892545e-001 0.000000e+000 1.244720e+000
         vertex 2.892545e-001 7.500000e-001 1.244720e+000
      endloop
   endfacet
   facet normal -5.972114e-001 0.000000e+000 -8.020838e-001
      outer loop
         vertex 2.892545e-001 7.500000e-001 1.244720e+000
         vertex 2.892545e-001 0.000000e+000 1.244720e+000
         vertex 2.250001e-001 0.000000e+000 1.289711e+000
      endloop
   endfacet
   facet normal -5.494540e-001 0.000000e+000 -8.355240e-001
      outer loop
         vertex 2.892545e-001 7.500000e-001 1.244720e+000
         vertex 2.250001e-001 0.000000e+000 1.289711e+000
         vertex 2.250001e-001 7.500000e-001 1.289711e+000
      endloop
   endfacet
   facet normal -4.488580e-001 0.000000e+000 -8.936031e-001
      outer loop
         vertex 2.250001e-001 7.500000e-001 1.289711e+000
         vertex 2.250001e-001 0.000000e+000 1.289711e+000
         vertex 1.539091e-001 0.000000e+000 1.322862e+000
      endloop
   endfacet
   facet normal -3.960194e-001 0.000000e+000 -9.182422e-001
      outer loop
         vertex 2.250001e-001 7.500000e-001 1.289711e+000
         vertex 1.539091e-001 0.000000e+000 1.322862e+000
         vertex 1.539091e-001 7.500000e-001 1.322862e+000
      endloop
   endfacet
   facet normal -2.868663e-001 0.000000e+000 -9.579706e-001
      outer loop
         vertex 1.539091e-001 7.500000e-001 1.322862e+000
         vertex 1.539091e-001 0.000000e+000 1.322862e+000
         vertex 7.814169e-002 0.000000e+000 1.343163e+000
      endloop
   endfacet
   facet normal -2.305519e-001 0.000000e+000 -9.730600e-001
      outer loop
         vertex 1.539091e-001 7.500000e-001 1.322862e+000
         vertex 7.814169e-002 0.000000e+000 1.343163e+000
         vertex 7.814169e-002 7.500000e-001 1.343163e+000
      endloop
   endfacet
   facet normal -1.161583e-001 0.000000e+000 -9.932307e-001
      outer loop
         vertex 7.814169e-002 7.500000e-001 1.343163e+000
         vertex 7.814169e-002 0.000000e+000 1.343163e+000
         vertex 0.000000e+000 0.000000e+000 1.350000e+000
      endloop
   endfacet
   facet normal -5.807913e-002 0.000000e+000 -9.983119e-001
      outer loop
         vertex 7.814169e-002 7.500000e-001 1.343163e+000
         vertex 0.000000e+000 0.000000e+000 1.350000e+000
         vertex 0.000000e+000 7.500000e-001 1.350000e+000
      endloop
   endfacet
   facet normal -1.000000e+000 0.000000e+000 -4.818676e-016
      outer loop
         vertex 0.000000e+000 7.500000e-001 1.800000e+000
         vertex 0.000000e+000 7.500000e-001 1.350000e+000
         vertex 0.000000e+000 0.000000e+000 1.800000e+000
      endloop
   endfacet
   facet normal -1.000000e+000 0.000000e+000 -4.818676e-016
      outer loop
         vertex 0.000000e+000 0.000000e+000 1.800000e+000
         vertex 0.000000e+000 7.500000e-001 1.350000e+000
         vertex 0.000000e+000 0.000000e+000 1.350000e+000
      endloop
   endfacet
   facet normal 1.000000e+000 0.000000e+000 -4.818676e-016
      outer loop
         vertex 3.500000e+000 7.500000e-001 1.350000e+000
         vertex 3.500000e+000 7.500000e-001 1.800000e+000
         vertex 3.500000e+000 0.000000e+000 1.350000e+000
      endloop
   endfacet
   facet normal 1.000000e+000 0.000000e+000 -4.818676e-016
      outer loop
         vertex 3.500000e+000 0.000000e+000 1.350000e+000
         vertex 3.500000e+000 7.500000e-001 1.800000e+000
         vertex 3.500000e+000 0.000000e+000 1.800000e+000
      endloop
   endfacet
   facet normal 5.807913e-002 0.000000e+000 -9.983119e-001
      outer loop
         vertex 3.500000e+000 7.500000e-001 1.350000e+000
         vertex 3.500000e+000 0.000000e+000 1.350000e+000
         vertex 3.421858e+000 0.000000e+000 1.343163e+000
      endloop
   endfacet
   facet normal 1.161583e-001 0.000000e+000 -9.932307e-001
      outer loop
         vertex 3.500000e+000 7.500000e-001 1.350000e+000
         vertex 3.421858e+000 0.000000e+000 1.343163e+000
         vertex 3.421858e+000 7.500000e-001 1.343163e+000
      endloop
   endfacet
   facet normal 2.305519e-001 0.000000e+000 -9.730600e-001
      outer loop
         vertex 3.421858e+000 7.500000e-001 1.343163e+000
         vertex 3.421858e+000 0.000000e+000 1.343163e+000
         vertex 3.346091e+000 0.000000e+000 1.322862e+000
      endloop
   endfacet
   facet normal 2.868663e-001 0.000000e+000 -9.579706e-001
      outer loop
         vertex 3.421858e+000 7.500000e-001 1.343163e+000
         vertex 3.346091e+000 0.000000e+000 1.322862e+000
         vertex 3.346091e+000 7.500000e-001 1.322862e+000
      endloop
   endfacet
   facet normal 3.960194e-001 0.000000e+000 -9.182422e-001
      outer loop
         vertex 3.346091e+000 7.500000e-001 1.322862e+000
         vertex 3.346091e+000 0.000000e+000 1.322862e+000
         vertex 3.275000e+000 0.000000e+000 1.289711e+000
      endloop
   endfacet
   facet normal 4.488580e-001 0.000000e+000 -8.936031e-001
      outer loop
         vertex 3.346091e+000 7.500000e-001 1.322862e+000
         vertex 3.275000e+000 0.000000e+000 1.289711e+000
         vertex 3.275000e+000 7.500000e-001 1.289711e+000
      endloop
   endfacet
   facet normal 5.494540e-001 0.000000e+000 -8.355240e-001
      outer loop
         vertex 3.275000e+000 7.500000e-001 1.289711e+000
         vertex 3.275000e+000 0.000000e+000 1.289711e+000
         vertex 3.210746e+000 0.000000e+000 1.244720e+000
      endloop
   endfacet
   facet normal 5.972114e-001 0.000000e+000 -8.020838e-001
      outer loop
         vertex 3.275000e+000 7.500000e-001 1.289711e+000
         vertex 3.210746e+000 0.000000e+000 1.244720e+000
         vertex 3.210746e+000 7.500000e-001 1.244720e+000
      endloop
   endfacet
   facet normal 6.861938e-001 0.000000e+000 -7.274188e-001
      outer loop
         vertex 3.210746e+000 7.500000e-001 1.244720e+000
         vertex 3.210746e+000 0.000000e+000 1.244720e+000
         vertex 3.155280e+000 0.000000e+000 1.189254e+000
      endloop
   endfacet
   facet normal 7.274188e-001 0.000000e+000 -6.861938e-001
      outer loop
         vertex 3.210746e+000 7.500000e-001 1.244720e+000
         vertex 3.155280e+000 0.000000e+000 1.189254e+000
         vertex 3.155280e+000 7.500000e-001 1.189254e+000
      endloop
   endfacet
   facet normal 8.020838e-001 0.000000e+000 -5.972114e-001
      outer loop
         vertex 3.155280e+000 7.500000e-001 1.189254e+000
         vertex 3.155280e+000 0.000000e+000 1.189254e+000
         vertex 3.110289e+000 0.000000e+000 1.125000e+000
      endloop
   endfacet
   facet normal 8.355240e-001 0.000000e+000 -5.494540e-001
      outer loop
         vertex 3.155280e+000 7.500000e-001 1.189254e+000
         vertex 3.110289e+000 0.000000e+000 1.125000e+000
         vertex 3.110289e+000 7.500000e-001 1.125000e+000
      endloop
   endfacet
   facet normal 8.936031e-001 0.000000e+000 -4.488580e-001
      outer loop
         vertex 3.110289e+000 7.500000e-001 1.125000e+000
         vertex 3.110289e+000 0.000000e+000 1.125000e+000
         vertex 3.077138e+000 0.000000e+000 1.053909e+000
      endloop
   endfacet
   facet normal 9.182422e-001 0.000000e+000 -3.960194e-001
      outer loop
         vertex 3.110289e+000 7.500000e-001 1.125000e+000
         vertex 3.077138e+000 0.000000e+000 1.053909e+000
         vertex 3.077138e+000 7.500000e-001 1.053909e+000
      endloop
   endfacet
   facet normal 9.579706e-001 0.000000e+000 -2.868663e-001
      outer loop
         vertex 3.077138e+000 7.500000e-001 1.053909e+000
         vertex 3.077138e+000 0.000000e+000 1.053909e+000
         vertex 3.056837e+000 0.000000e+000 9.781417e-001
      endloop
   endfacet
   facet normal 9.730600e-001 0.000000e+000 -2.305519e-001
      outer loop
         vertex 3.077138e+000 7.500000e-001 1.053909e+000
         vertex 3.056837e+000 0.000000e+000 9.781417e-001
         vertex 3.056837e+000 7.500000e-001 9.781417e-001
      endloop
   endfacet
   facet normal 9.932307e-001 0.000000e+000 -1.161583e-001
      outer loop
         vertex 3.056837e+000 7.500000e-001 9.781417e-001
         vertex 3.056837e+000 0.000000e+000 9.781417e-001
         vertex 3.050000e+000 0.000000e+000 9.000000e-001
      endloop
   endfacet
   facet normal 9.983119e-001 0.000000e+000 -5.807913e-002
      outer loop
         vertex 3.056837e+000 7.500000e-001 9.781417e-001
         vertex 3.050000e+000 0.000000e+000 9.000000e-001
         vertex 3.050000e+000 7.500000e-001 9.000000e-001
      endloop
   endfacet
   facet normal 9.983119e-001 0.000000e+000 5.807913e-002
      outer loop
         vertex 3.050000e+000 7.500000e-001 9.000000e-001
         vertex 3.050000e+000 0.000000e+000 9.000000e-001
         vertex 3.056837e+000 0.000000e+000 8.218583e-001
      endloop
   endfacet
   facet normal 9.932307e-001 0.000000e+000 1.161583e-001
      outer loop
         vertex 3.050000e+000 7.500000e-001 9.000000e-001
         vertex 3.056837e+000 0.000000e+000 8.218583e-001
         vertex 3.056837e+000 7.500000e-001 8.218583e-001
      endloop
   endfacet
   facet normal 9.730600e-001 0.000000e+000 2.305519e-001
      outer loop
         vertex 3.056837e+000 7.500000e-001 8.218583e-001
         vertex 3.056837e+000 0.000000e+000 8.218583e-001
         vertex 3.077138e+000 0.000000e+000 7.460909e-001
      endloop
   endfacet
   facet normal 9.579706e-001 0.000000e+000 2.868663e-001
      outer loop
         vertex 3.056837e+000 7.500000e-001 8.218583e-001
         vertex 3.077138e+000 0.000000e+000 7.460909e-001
         vertex 3.077138e+000 7.500000e-001 7.460909e-001
      endloop
   endfacet
   facet normal 9.182422e-001 0.000000e+000 3.960194e-001
      outer loop
         vertex 3.077138e+000 7.500000e-001 7.460909e-001
         vertex 3.077138e+000 0.000000e+000 7.460909e-001
         vertex 3.110289e+000 0.000000e+000 6.750000e-001
      endloop
   endfacet
   facet normal 8.936031e-001 0.000000e+000 4.488580e-001
      outer loop
         vertex 3.077138e+000 7.500000e-001 7.460909e-001
         vertex 3.110289e+000 0.000000e+000 6.750000e-001
         vertex 3.110289e+000 7.500000e-001 6.750000e-001
      endloop
   endfacet
   facet normal 8.355240e-001 0.000000e+000 5.494540e-001
      outer loop
         vertex 3.110289e+000 7.500000e-001 6.750000e-001
         vertex 3.110289e+000 0.000000e+000 6.750000e-001
         vertex 3.155280e+000 0.000000e+000 6.107455e-001
      endloop
   endfacet
   facet normal 8.020838e-001 0.000000e+000 5.972114e-001
      outer loop
         vertex 3.110289e+000 7.500000e-001 6.750000e-001
         vertex 3.155280e+000 0.000000e+000 6.107455e-001
         vertex 3.155280e+000 7.500000e-001 6.107455e-001
      endloop
   endfacet
   facet normal 7.274188e-001 0.000000e+000 6.861938e-001
      outer loop
         vertex 3.155280e+000 7.500000e-001 6.107455e-001
         vertex 3.155280e+000 0.000000e+000 6.107455e-001
         vertex 3.210746e+000 0.000000e+000 5.552800e-001
      endloop
   endfacet
   facet normal 6.861938e-001 0.000000e+000 7.274188e-001
      outer loop
         vertex 3.155280e+000 7.500000e-001 6.107455e-001
         vertex 3.210746e+000 0.000000e+000 5.552800e-001
         vertex 3.210746e+000 7.500000e-001 5.552800e-001
      endloop
   endfacet
   facet normal 5.972114e-001 0.000000e+000 8.020838e-001
      outer loop
         vertex 3.210746e+000 7.500000e-001 5.552800e-001
         vertex 3.210746e+000 0.000000e+000 5.552800e-001
         vertex 3.275000e+000 0.000000e+000 5.102885e-001
      endloop
   endfacet
   facet normal 5.494540e-001 0.000000e+000 8.355240e-001
      outer loop
         vertex 3.210746e+000 7.500000e-001 5.552800e-001
         vertex 3.275000e+000 0.000000e+000 5.102885e-001
         vertex 3.275000e+000 7.500000e-001 5.102885e-001
      endloop
   endfacet
   facet normal 4.488580e-001 0.000000e+000 8.936031e-001
      outer loop
         vertex 3.275000e+000 7.500000e-001 5.102885e-001
         vertex 3.275000e+000 0.000000e+000 5.102885e-001
         vertex 3.346091e+000 0.000000e+000 4.771383e-001
      endloop
   endfacet
   facet normal 3.960194e-001 0.000000e+000 9.182422e-001
      outer loop
         vertex 3.275000e+000 7.500000e-001 5.102885e-001
         vertex 3.346091e+000 0.000000e+000 4.771383e-001
         vertex 3.346091e+000 7.500000e-001 4.771383e-001
      endloop
   endfacet
   facet normal 2.868663e-001 0.000000e+000 9.579706e-001
      outer loop
         vertex 3.346091e+000 7.500000e-001 4.771383e-001
         vertex 3.346091e+000 0.000000e+000 4.771383e-001
         vertex 3.421858e+000 0.000000e+000 4.568365e-001
      endloop
   endfacet
   facet normal 2.305519e-001 0.000000e+000 9.730600e-001
      outer loop
         vertex 3.346091e+000 7.500000e-001 4.771383e-001
         vertex 3.421858e+000 0.000000e+000 4.568365e-001
         vertex 3.421858e+000 7.500000e-001 4.568365e-001
      endloop
   endfacet
   facet normal 1.161583e-001 0.000000e+000 9.932307e-001
      outer loop
         vertex 3.421858e+000 7.500000e-001 4.568365e-001
         vertex 3.421858e+000 0.000000e+000 4.568365e-001
         vertex 3.500000e+000 0.000000e+000 4.500000e-001
      endloop
   endfacet
   facet normal 5.807913e-002 0.000000e+000 9.983119e-001
      outer loop
         vertex 3.421858e+000 7.500000e-001 4.568365e-001
         vertex 3.500000e+000 0.000000e+000 4.500000e-001
         vertex 3.500000e+000 7.500000e-001 4.500000e-001
      endloop
   endfacet
   facet normal 1.000000e+000 0.000000e+000 4.818676e-016
      outer loop
         vertex 3.500000e+000 7.500000e-001 0.000000e+000
         vertex 3.500000e+000 7.500000e-001 4.500000e-001
         vertex 3.500000e+000 0.000000e+000 0.000000e+000
      endloop
   endfacet
   facet normal 1.000000e+000 0.000000e+000 4.818676e-016
      outer loop
         vertex 3.500000e+000 0.000000e+000 0.000000e+000
         vertex 3.500000e+000 7.500000e-001 4.500000e-001
         vertex 3.500000e+000 0.000000e+000 4.500000e-001
      endloop
   endfacet
   facet normal 0.000000e+000 1.000000e+000 0.000000e+000
      outer loop
         vertex 0.000000e+000 7.500000e-001 0.000000e+000
         vertex 0.000000e+000 7.500000e-001 4.500000e-001
         vertex 7.814169e-002 7.500000e-001 4.568365e-001
      endloop
   endfacet
   facet normal 0.000000e+000 1.000000e+000 0.000000e+000
      outer loop
         vertex 6.500000e-001 7.500000e-001 0.000000e+000
         vertex 3.897115e-001 7.500000e-001 6.750000e-001
         vertex 4.228618e-001 7.500000e-001 7.460909e-001
      endloop
   endfacet
   facet normal 0.000000e+000 1.000000e+000 0.000000e+000
      outer loop
         vertex 2.250001e-001 7.500000e-001 5.102885e-001
         vertex 2.892545e-001 7.500000e-001 5.552800e-001
         vertex 6.500000e-001 7.500000e-001 0.000000e+000
      endloop
   endfacet
   facet normal 0.000000e+000 1.000000e+000 0.000000e+000
      outer loop
         vertex 6.500000e-001 7.500000e-001 0.000000e+000
         vertex 2.892545e-001 7.500000e-001 5.552800e-001
         vertex 3.447201e-001 7.500000e-001 6.107455e-001
      endloop
   endfacet
   facet normal 0.000000e+000 1.000000e+000 0.000000e+000
      outer loop
         vertex 6.500000e-001 7.500000e-001 0.000000e+000
         vertex 3.447201e-001 7.500000e-001 6.107455e-001
         vertex 3.897115e-001 7.500000e-001 6.750000e-001
      endloop
   endfacet
   facet normal 0.000000e+000 1.000000e+000 0.000000e+000
      outer loop
         vertex 4.228618e-001 7.500000e-001 7.460909e-001
         vertex 4.431636e-001 7.500000e-001 8.218583e-001
         vertex 6.500000e-001 7.500000e-001 0.000000e+000
      endloop
   endfacet
   facet normal 0.000000e+000 1.000000e+000 0.000000e+000
      outer loop
         vertex 6.500000e-001 7.500000e-001 0.000000e+000
         vertex 4.431636e-001 7.500000e-001 8.218583e-001
         vertex 4.500000e-001 7.500000e-001 9.000000e-001
      endloop
   endfacet
   facet normal 0.000000e+000 1.000000e+000 0.000000e+000
      outer loop
         vertex 6.500000e-001 7.500000e-001 0.000000e+000
         vertex 4.500000e-001 7.500000e-001 9.000000e-001
         vertex 6.500000e-001 7.500000e-001 1.800000e+000
      endloop
   endfacet
   facet normal 0.000000e+000 1.000000e+000 0.000000e+000
      outer loop
         vertex 6.500000e-001 7.500000e-001 1.800000e+000
         vertex 4.500000e-001 7.500000e-001 9.000000e-001
         vertex 4.431636e-001 7.500000e-001 9.781417e-001
      endloop
   endfacet
   facet normal 0.000000e+000 1.000000e+000 0.000000e+000
      outer loop
         vertex 6.500000e-001 7.500000e-001 1.800000e+000
         vertex 4.431636e-001 7.500000e-001 9.781417e-001
         vertex 4.228618e-001 7.500000e-001 1.053909e+000
      endloop
   endfacet
   facet normal 0.000000e+000 1.000000e+000 0.000000e+000
      outer loop
         vertex 0.000000e+000 7.500000e-001 0.000000e+000
         vertex 7.814169e-002 7.500000e-001 4.568365e-001
         vertex 6.500000e-001 7.500000e-001 0.000000e+000
      endloop
   endfacet
   facet normal 0.000000e+000 1.000000e+000 0.000000e+000
      outer loop
         vertex 6.500000e-001 7.500000e-001 0.000000e+000
         vertex 7.814169e-002 7.500000e-001 4.568365e-001
         vertex 1.539091e-001 7.500000e-001 4.771383e-001
      endloop
   endfacet
   facet normal 0.000000e+000 1.000000e+000 0.000000e+000
      outer loop
         vertex 6.500000e-001 7.500000e-001 0.000000e+000
         vertex 1.539091e-001 7.500000e-001 4.771383e-001
         vertex 2.250001e-001 7.500000e-001 5.102885e-001
      endloop
   endfacet
   facet normal 0.000000e+000 1.000000e+000 0.000000e+000
      outer loop
         vertex 4.228618e-001 7.500000e-001 1.053909e+000
         vertex 3.897115e-001 7.500000e-001 1.125000e+000
         vertex 6.500000e-001 7.500000e-001 1.800000e+000
      endloop
   endfacet
   facet normal 0.000000e+000 1.000000e+000 0.000000e+000
      outer loop
         vertex 6.500000e-001 7.500000e-001 1.800000e+000
         vertex 3.897115e-001 7.500000e-001 1.125000e+000
         vertex 3.447201e-001 7.500000e-001 1.189254e+000
      endloop
   endfacet
   facet normal 0.000000e+000 1.000000e+000 0.000000e+000
      outer loop
         vertex 6.500000e-001 7.500000e-001 1.800000e+000
         vertex 3.447201e-001 7.500000e-001 1.189254e+000
         vertex 2.892545e-001 7.500000e-001 1.244720e+000
      endloop
   endfacet
   facet normal 0.000000e+000 1.000000e+000 0.000000e+000
      outer loop
         vertex 2.892545e-001 7.500000e-001 1.244720e+000
         vertex 2.250001e-001 7.500000e-001 1.289711e+000
         vertex 6.500000e-001 7.500000e-001 1.800000e+000
      endloop
   endfacet
   facet normal 0.000000e+000 1.000000e+000 0.000000e+000
      outer loop
         vertex 6.500000e-001 7.500000e-001 1.800000e+000
         vertex 2.250001e-001 7.500000e-001 1.289711e+000
         vertex 1.539091e-001 7.500000e-001 1.322862e+000
      endloop
   endfacet
   facet normal 0.000000e+000 1.000000e+000 0.000000e+000
      outer loop
         vertex 6.500000e-001 7.500000e-001 1.800000e+000
         vertex 1.539091e-001 7.500000e-001 1.322862e+000
         vertex 0.000000e+000 7.500000e-001 1.800000e+000
      endloop
   endfacet
   facet normal 0.000000e+000 1.000000e+000 0.000000e+000
      outer loop
         vertex 0.000000e+000 7.500000e-001 1.800000e+000
         vertex 1.539091e-001 7.500000e-001 1.322862e+000
         vertex 7.814169e-002 7.500000e-001 1.343163e+000
      endloop
   endfacet
   facet normal 0.000000e+000 1.000000e+000 0.000000e+000
      outer loop
         vertex 0.000000e+000 7.500000e-001 1.800000e+000
         vertex 7.814169e-002 7.500000e-001 1.343163e+000
         vertex 0.000000e+000 7.500000e-001 1.350000e+000
      endloop
   endfacet
   facet normal -1.000000e+000 0.000000e+000 0.000000e+000
      outer loop
         vertex 2.850000e+000 7.250000e-001 0.000000e+000
         vertex 2.850000e+000 7.250000e-001 1.800000e+000
         vertex 2.850000e+000 7.500000e-001 0.000000e+000
      endloop
   endfacet
   facet normal -1.000000e+000 0.000000e+000 0.000000e+000
      outer loop
         vertex 2.850000e+000 7.500000e-001 0.000000e+000
         vertex 2.850000e+000 7.250000e-001 1.800000e+000
         vertex 2.850000e+000 7.500000e-001 1.800000e+000
      endloop
   endfacet
   facet normal 1.000000e+000 0.000000e+000 0.000000e+000
      outer loop
         vertex 6.500000e-001 7.250000e-001 1.800000e+000
         vertex 6.500000e-001 7.250000e-001 0.000000e+000
         vertex 6.500000e-001 7.500000e-001 1.800000e+000
      endloop
   endfacet
   facet normal 1.000000e+000 0.000000e+000 0.000000e+000
      outer loop
         vertex 6.500000e-001 7.500000e-001 1.800000e+000
         vertex 6.500000e-001 7.250000e-001 0.000000e+000
         vertex 6.500000e-001 7.500000e-001 0.000000e+000
      endloop
   endfacet
   facet normal 0.000000e+000 1.000000e+000 0.000000e+000
      outer loop
         vertex 6.500000e-001 7.250000e-001 0.000000e+000
         vertex 6.500000e-001 7.250000e-001 1.800000e+000
         vertex 2.850000e+000 7.250000e-001 0.000000e+000
      endloop
   endfacet
   facet normal 0.000000e+000 1.000000e+000 0.000000e+000
      outer loop
         vertex 2.850000e+000 7.250000e-001 0.000000e+000
         vertex 6.500000e-001 7.250000e-001 1.800000e+000
         vertex 2.850000e+000 7.250000e-001 1.800000e+000
      endloop
   endfacet
   facet normal -1.000000e+000 0.000000e+000 0.000000e+000
      outer loop
         vertex 2.850000e+000 2.500000e-002 1.800000e+000
         vertex 2.850000e+000 2.500000e-002 0.000000e+000
         vertex 2.850000e+000 0.000000e+000 1.800000e+000
      endloop
   endfacet
   facet normal -1.000000e+000 0.000000e+000 0.000000e+000
      outer loop
         vertex 2.850000e+000 0.000000e+000 1.800000e+000
         vertex 2.850000e+000 2.500000e-002 0.000000e+000
         vertex 2.850000e+000 0.000000e+000 0.000000e+000
      endloop
   endfacet
   facet normal 1.000000e+000 0.000000e+000 0.000000e+000
      outer loop
         vertex 6.500000e-001 2.500000e-002 0.000000e+000
         vertex 6.500000e-001 2.500000e-002 1.800000e+000
         vertex 6.500000e-001 0.000000e+000 0.000000e+000
      endloop
   endfacet
   facet normal 1.000000e+000 0.000000e+000 0.000000e+000
      outer loop
         vertex 6.500000e-001 0.000000e+000 0.000000e+000
         vertex 6.500000e-001 2.500000e-002 1.800000e+000
         vertex 6.500000e-001 0.000000e+000 1.800000e+000
      endloop
   endfacet
   facet normal 0.000000e+000 -1.000000e+000 0.000000e+000
      outer loop
         vertex 6.500000e-001 2.500000e-002 1.800000e+000
         vertex 6.500000e-001 2.500000e-002 0.000000e+000
         vertex 2.850000e+000 2.500000e-002 1.800000e+000
      endloop
   endfacet
   facet normal 0.000000e+000 -1.000000e+000 0.000000e+000
      outer loop
         vertex 2.850000e+000 2.500000e-002 1.800000e+000
         vertex 6.500000e-001 2.500000e-002 0.000000e+000
         vertex 2.850000e+000 2.500000e-002 0.000000e+000
      endloop
   endfacet
endsolid