solid R1206
facet normal -5.941131984166492e-33 1.0 9.834087448736688e-16
  outer loop
    vertex -1.7499999999999998 0.8999999999999981 0.750000000000002
    vertex -1.0999999999999996 0.8999999999999989 1.4438228390645235e-15
    vertex -1.7499999999999998 0.8999999999999989 1.4438228390645235e-15
  endloop
endfacet
facet normal -5.941131984166492e-33 1.0 9.834087448736688e-16
  outer loop
    vertex -1.0999999999999996 0.8999999999999989 1.4438228390645235e-15
    vertex -1.7499999999999998 0.8999999999999981 0.750000000000002
    vertex -1.0999999999999996 0.8999999999999989 0.025000000000001715
  endloop
endfacet
facet normal -5.941131984166492e-33 1.0 9.834087448736688e-16
  outer loop
    vertex -1.0999999999999996 0.8999999999999989 0.025000000000001715
    vertex -1.7499999999999998 0.8999999999999981 0.750000000000002
    vertex 1.1000000000000023 0.8999999999999989 0.025000000000001715
  endloop
endfacet
facet normal -5.941131984166492e-33 1.0 9.834087448736688e-16
  outer loop
    vertex 1.1000000000000023 0.8999999999999989 0.025000000000001715
    vertex -1.7499999999999998 0.8999999999999981 0.750000000000002
    vertex -1.0999999999999996 0.8999999999999981 0.7250000000000015
  endloop
endfacet
facet normal -5.941131984166492e-33 1.0 9.834087448736688e-16
  outer loop
    vertex -1.0999999999999996 0.8999999999999981 0.7250000000000015
    vertex -1.7499999999999998 0.8999999999999981 0.750000000000002
    vertex -1.0999999999999996 0.8999999999999981 0.750000000000002
  endloop
endfacet
facet normal -5.941131984166492e-33 1.0 9.834087448736688e-16
  outer loop
    vertex 1.1000000000000023 0.8999999999999989 0.025000000000001715
    vertex 1.7500000000000016 0.8999999999999989 1.4438228390645235e-15
    vertex 1.1000000000000023 0.8999999999999989 1.4438228390645235e-15
  endloop
endfacet
facet normal -5.941131984166492e-33 1.0 9.834087448736688e-16
  outer loop
    vertex 1.7500000000000016 0.8999999999999989 1.4438228390645235e-15
    vertex 1.1000000000000023 0.8999999999999989 0.025000000000001715
    vertex 1.7500000000000016 0.8999999999999981 0.750000000000002
  endloop
endfacet
facet normal -5.941131984166492e-33 1.0 9.834087448736688e-16
  outer loop
    vertex 1.7500000000000016 0.8999999999999981 0.750000000000002
    vertex 1.1000000000000023 0.8999999999999989 0.025000000000001715
    vertex 1.1000000000000023 0.8999999999999981 0.7250000000000015
  endloop
endfacet
facet normal -5.941131984166492e-33 1.0 9.834087448736688e-16
  outer loop
    vertex 1.1000000000000023 0.8999999999999981 0.7250000000000015
    vertex 1.1000000000000023 0.8999999999999989 0.025000000000001715
    vertex -1.0999999999999996 0.8999999999999981 0.7250000000000015
  endloop
endfacet
facet normal -5.941131984166492e-33 1.0 9.834087448736688e-16
  outer loop
    vertex 1.7500000000000016 0.8999999999999981 0.750000000000002
    vertex 1.1000000000000023 0.8999999999999981 0.7250000000000015
    vertex 1.1000000000000023 0.8999999999999981 0.750000000000002
  endloop
endfacet
facet normal -6.810838101250854e-18 1.6294541175792939e-15 -1.0
  outer loop
    vertex -1.0999999999999996 0.8999999999999989 1.4438228390645235e-15
    vertex -1.7499999999999998 0.44999999999999946 1.0828671292983925e-15
    vertex -1.7499999999999998 0.8999999999999989 1.4438228390645235e-15
  endloop
endfacet
facet normal -6.810838101250854e-18 1.6294541175792939e-15 -1.0
  outer loop
    vertex -1.7499999999999998 0.44999999999999946 1.0828671292983925e-15
    vertex -1.0999999999999996 0.8999999999999989 1.4438228390645235e-15
    vertex -1.6718583099999997 0.44316349999999954 7.219114195322618e-16
  endloop
endfacet
facet normal -6.810838101250854e-18 1.6294541175792939e-15 -1.0
  outer loop
    vertex -1.6718583099999997 0.44316349999999954 7.219114195322618e-16
    vertex -1.0999999999999996 0.8999999999999989 1.4438228390645235e-15
    vertex -1.5960908999999999 0.42286169999999923 7.219114195322618e-16
  endloop
endfacet
facet normal -6.810838101250854e-18 1.6294541175792939e-15 -1.0
  outer loop
    vertex -1.5960908999999999 0.42286169999999923 7.219114195322618e-16
    vertex -1.0999999999999996 0.8999999999999989 1.4438228390645235e-15
    vertex -1.5249998999999996 0.3897114999999995 1.263344984181458e-15
  endloop
endfacet
facet normal -6.810838101250854e-18 1.6294541175792939e-15 -1.0
  outer loop
    vertex -1.5249998999999996 0.3897114999999995 1.263344984181458e-15
    vertex -1.0999999999999996 0.8999999999999989 1.4438228390645235e-15
    vertex -1.4607454999999998 0.3447199999999994 9.023892744153272e-16
  endloop
endfacet
facet normal -6.810838101250854e-18 1.6294541175792939e-15 -1.0
  outer loop
    vertex -1.4607454999999998 0.3447199999999994 9.023892744153272e-16
    vertex -1.0999999999999996 0.8999999999999989 1.4438228390645235e-15
    vertex -1.4052798999999996 0.2892544999999992 7.219114195322618e-16
  endloop
endfacet
facet normal -6.810838101250854e-18 1.6294541175792939e-15 -1.0
  outer loop
    vertex -1.4052798999999996 0.2892544999999992 7.219114195322618e-16
    vertex -1.0999999999999996 0.8999999999999989 1.4438228390645235e-15
    vertex -1.3602885 0.22499999999999937 3.609557097661309e-16
  endloop
endfacet
facet normal -6.810838101250854e-18 1.6294541175792939e-15 -1.0
  outer loop
    vertex -1.3602885 0.22499999999999937 3.609557097661309e-16
    vertex -1.0999999999999996 0.8999999999999989 1.4438228390645235e-15
    vertex -1.3271381999999998 0.15390909999999894 3.609557097661309e-16
  endloop
endfacet
facet normal -6.810838101250854e-18 1.6294541175792939e-15 -1.0
  outer loop
    vertex -1.3271381999999998 0.15390909999999894 3.609557097661309e-16
    vertex -1.0999999999999996 0.8999999999999989 1.4438228390645235e-15
    vertex -1.3068364 0.07814170000000124 7.219114195322618e-16
  endloop
endfacet
facet normal -6.810838101250854e-18 1.6294541175792939e-15 -1.0
  outer loop
    vertex -1.3068364 0.07814170000000124 7.219114195322618e-16
    vertex -1.0999999999999996 0.8999999999999989 1.4438228390645235e-15
    vertex -1.2999999999999996 0.0 1.8047785488306544e-16
  endloop
endfacet
facet normal -6.810838101250854e-18 1.6294541175792939e-15 -1.0
  outer loop
    vertex -1.6718583099999997 -0.4431630000000001 -3.609557097661309e-16
    vertex -1.7499999999999998 -0.8999999999999998 -1.263344984181458e-15
    vertex -1.7499999999999998 -0.4499999999999998 -7.219114195322618e-16
  endloop
endfacet
facet normal -6.810838101250854e-18 1.6294541175792939e-15 -1.0
  outer loop
    vertex -1.7499999999999998 -0.8999999999999998 -1.263344984181458e-15
    vertex -1.6718583099999997 -0.4431630000000001 -3.609557097661309e-16
    vertex -1.0999999999999996 -0.8999999999999998 -1.263344984181458e-15
  endloop
endfacet
facet normal -6.810838101250854e-18 1.6294541175792939e-15 -1.0
  outer loop
    vertex -1.0999999999999996 -0.8999999999999998 -1.263344984181458e-15
    vertex -1.6718583099999997 -0.4431630000000001 -3.609557097661309e-16
    vertex -1.5960908999999999 -0.4228619999999997 -5.414335646491963e-16
  endloop
endfacet
facet normal -6.810838101250854e-18 1.6294541175792939e-15 -1.0
  outer loop
    vertex -1.0999999999999996 -0.8999999999999998 -1.263344984181458e-15
    vertex -1.5960908999999999 -0.4228619999999997 -5.414335646491963e-16
    vertex -1.5249998999999996 -0.3897109999999997 -7.219114195322618e-16
  endloop
endfacet
facet normal -6.810838101250854e-18 1.6294541175792939e-15 -1.0
  outer loop
    vertex -1.0999999999999996 -0.8999999999999998 -1.263344984181458e-15
    vertex -1.5249998999999996 -0.3897109999999997 -7.219114195322618e-16
    vertex -1.4607454999999998 -0.3447199999999998 -7.219114195322618e-16
  endloop
endfacet
facet normal -6.810838101250854e-18 1.6294541175792939e-15 -1.0
  outer loop
    vertex -1.0999999999999996 -0.8999999999999998 -1.263344984181458e-15
    vertex -1.4607454999999998 -0.3447199999999998 -7.219114195322618e-16
    vertex -1.4052798999999996 -0.2892540000000001 -3.609557097661309e-16
  endloop
endfacet
facet normal -6.810838101250854e-18 1.6294541175792939e-15 -1.0
  outer loop
    vertex -1.0999999999999996 -0.8999999999999998 -1.263344984181458e-15
    vertex -1.4052798999999996 -0.2892540000000001 -3.609557097661309e-16
    vertex -1.3602885 -0.22499999999999937 -1.8047785488306544e-16
  endloop
endfacet
facet normal -6.810838101250854e-18 1.6294541175792939e-15 -1.0
  outer loop
    vertex -1.0999999999999996 -0.8999999999999998 -1.263344984181458e-15
    vertex -1.3602885 -0.22499999999999937 -1.8047785488306544e-16
    vertex -1.3271381999999998 -0.15390899999999963 0.0
  endloop
endfacet
facet normal -6.810838101250854e-18 1.6294541175792939e-15 -1.0
  outer loop
    vertex -1.0999999999999996 -0.8999999999999998 -1.263344984181458e-15
    vertex -1.3271381999999998 -0.15390899999999963 0.0
    vertex -1.3068364 -0.07814169999999908 -3.609557097661309e-16
  endloop
endfacet
facet normal -6.810838101250854e-18 1.6294541175792939e-15 -1.0
  outer loop
    vertex -1.0999999999999996 -0.8999999999999998 -1.263344984181458e-15
    vertex -1.3068364 -0.07814169999999908 -3.609557097661309e-16
    vertex -1.2999999999999996 0.0 1.8047785488306544e-16
  endloop
endfacet
facet normal -6.810838101250854e-18 1.6294541175792939e-15 -1.0
  outer loop
    vertex -1.0999999999999996 -0.8999999999999998 -1.263344984181458e-15
    vertex -1.2999999999999996 0.0 1.8047785488306544e-16
    vertex -1.0999999999999996 0.8999999999999989 1.4438228390645235e-15
  endloop
endfacet
facet normal -1.0 0.0 0.0
  outer loop
    vertex -1.7499999999999998 0.8999999999999981 0.750000000000002
    vertex -1.7499999999999998 0.44999999999999946 1.0828671292983925e-15
    vertex -1.7499999999999998 0.449999999999998 0.7500000000000009
  endloop
endfacet
facet normal -1.0 0.0 0.0
  outer loop
    vertex -1.7499999999999998 0.44999999999999946 1.0828671292983925e-15
    vertex -1.7499999999999998 0.8999999999999981 0.750000000000002
    vertex -1.7499999999999998 0.8999999999999989 1.4438228390645235e-15
  endloop
endfacet
facet normal -0.0871555906263436 -0.9961947114006243 -2.3970566036791705e-15
  outer loop
    vertex -1.6718583099999997 0.4431634999999974 0.7500000000000002
    vertex -1.7499999999999998 0.44999999999999946 1.0828671292983925e-15
    vertex -1.6718583099999997 0.44316349999999954 7.219114195322618e-16
  endloop
endfacet
facet normal -0.0871555906263436 -0.9961947114006243 -2.3970566036791705e-15
  outer loop
    vertex -1.7499999999999998 0.44999999999999946 1.0828671292983925e-15
    vertex -1.6718583099999997 0.4431634999999974 0.7500000000000002
    vertex -1.7499999999999998 0.449999999999998 0.7500000000000009
  endloop
endfacet
facet normal -0.2588188509581049 -0.9659258783098869 -2.3248713016016787e-15
  outer loop
    vertex -1.5960908999999999 0.4228616999999978 0.7500000000000012
    vertex -1.6718583099999997 0.44316349999999954 7.219114195322618e-16
    vertex -1.5960908999999999 0.42286169999999923 7.219114195322618e-16
  endloop
endfacet
facet normal -0.2588188509581049 -0.9659258783098869 -2.3248713016016787e-15
  outer loop
    vertex -1.6718583099999997 0.44316349999999954 7.219114195322618e-16
    vertex -1.5960908999999999 0.4228616999999978 0.7500000000000012
    vertex -1.6718583099999997 0.4431634999999974 0.7500000000000002
  endloop
endfacet
facet normal -0.42261744782668514 -0.9063081665705431 -2.1815761021408886e-15
  outer loop
    vertex -1.5249998999999996 0.3897114999999995 1.263344984181458e-15
    vertex -1.5960908999999999 0.4228616999999978 0.7500000000000012
    vertex -1.5960908999999999 0.42286169999999923 7.219114195322618e-16
  endloop
endfacet
facet normal -0.42261744782668514 -0.9063081665705431 -2.1815761021408886e-15
  outer loop
    vertex -1.5960908999999999 0.4228616999999978 0.7500000000000012
    vertex -1.5249998999999996 0.3897114999999995 1.263344984181458e-15
    vertex -1.5249998999999996 0.3897114999999973 0.7500000000000002
  endloop
endfacet
facet normal -0.5735771613963268 -0.8191515366063425 -1.9710085071412216e-15
  outer loop
    vertex -1.4607454999999998 0.344719999999998 0.7500000000000009
    vertex -1.5249998999999996 0.3897114999999995 1.263344984181458e-15
    vertex -1.4607454999999998 0.3447199999999994 9.023892744153272e-16
  endloop
endfacet
facet normal -0.5735771613963268 -0.8191515366063425 -1.9710085071412216e-15
  outer loop
    vertex -1.5249998999999996 0.3897114999999995 1.263344984181458e-15
    vertex -1.4607454999999998 0.344719999999998 0.7500000000000009
    vertex -1.5249998999999996 0.3897114999999973 0.7500000000000002
  endloop
endfacet
facet normal -0.7071061437574585 -0.7071074186150619 -1.3599799226319173e-15
  outer loop
    vertex -1.4052798999999996 0.28925449999999775 0.7500000000000006
    vertex -1.4607454999999998 0.3447199999999994 9.023892744153272e-16
    vertex -1.4052798999999996 0.2892544999999992 7.219114195322618e-16
  endloop
endfacet
facet normal -0.7071061437574585 -0.7071074186150619 -1.3599799226319173e-15
  outer loop
    vertex -1.4607454999999998 0.3447199999999994 9.023892744153272e-16
    vertex -1.4052798999999996 0.28925449999999775 0.7500000000000006
    vertex -1.4607454999999998 0.344719999999998 0.7500000000000009
  endloop
endfacet
facet normal -0.8191525550079266 -0.5735757069681261 -1.1078327643757548e-15
  outer loop
    vertex -1.4052798999999996 0.28925449999999775 0.7500000000000006
    vertex -1.3602885 0.22499999999999937 3.609557097661309e-16
    vertex -1.3602885 0.22499999999999792 0.7500000000000009
  endloop
endfacet
facet normal -0.8191525550079266 -0.5735757069681261 -1.1078327643757548e-15
  outer loop
    vertex -1.3602885 0.22499999999999937 3.609557097661309e-16
    vertex -1.4052798999999996 0.28925449999999775 0.7500000000000006
    vertex -1.4052798999999996 0.2892544999999992 7.219114195322618e-16
  endloop
endfacet
facet normal -0.9063074505748303 -0.4226189832846502 -8.151674395852452e-16
  outer loop
    vertex -1.3602885 0.22499999999999792 0.7500000000000009
    vertex -1.3271381999999998 0.15390909999999894 3.609557097661309e-16
    vertex -1.3271381999999998 0.1539090999999975 0.7500000000000006
  endloop
endfacet
facet normal -0.9063074505748303 -0.4226189832846502 -8.151674395852452e-16
  outer loop
    vertex -1.3271381999999998 0.15390909999999894 3.609557097661309e-16
    vertex -1.3602885 0.22499999999999792 0.7500000000000009
    vertex -1.3602885 0.22499999999999937 3.609557097661309e-16
  endloop
endfacet
facet normal -0.965925869769976 -0.25881888282951016 -4.977864508939761e-16
  outer loop
    vertex -1.3271381999999998 0.1539090999999975 0.7500000000000006
    vertex -1.3068364 0.07814170000000124 7.219114195322618e-16
    vertex -1.3068364 0.0781416999999998 0.7500000000000002
  endloop
endfacet
facet normal -0.965925869769976 -0.25881888282951016 -4.977864508939761e-16
  outer loop
    vertex -1.3068364 0.07814170000000124 7.219114195322618e-16
    vertex -1.3271381999999998 0.1539090999999975 0.7500000000000006
    vertex -1.3271381999999998 0.15390909999999894 3.609557097661309e-16
  endloop
endfacet
facet normal -0.9961948230562941 -0.08715431438453754 -1.4712801828066888e-16
  outer loop
    vertex -1.3068364 0.0781416999999998 0.7500000000000002
    vertex -1.2999999999999996 0.0 1.8047785488306544e-16
    vertex -1.2999999999999996 -1.0828671292983925e-15 0.7500000000000002
  endloop
endfacet
facet normal -0.9961948230562941 -0.08715431438453754 -1.4712801828066888e-16
  outer loop
    vertex -1.2999999999999996 0.0 1.8047785488306544e-16
    vertex -1.3068364 0.0781416999999998 0.7500000000000002
    vertex -1.3068364 0.07814170000000124 7.219114195322618e-16
  endloop
endfacet
facet normal -0.9961948230562941 0.08715431438453936 1.6792977146300757e-16
  outer loop
    vertex -1.2999999999999996 -1.0828671292983925e-15 0.7500000000000002
    vertex -1.3068364 -0.07814169999999908 -3.609557097661309e-16
    vertex -1.3068364 -0.07814170000000088 0.7499999999999991
  endloop
endfacet
facet normal -0.9961948230562941 0.08715431438453936 1.6792977146300757e-16
  outer loop
    vertex -1.3068364 -0.07814169999999908 -3.609557097661309e-16
    vertex -1.2999999999999996 -1.0828671292983925e-15 0.7500000000000002
    vertex -1.2999999999999996 0.0 1.8047785488306544e-16
  endloop
endfacet
facet normal -0.9659257843707134 0.2588192015439 6.236467837165894e-16
  outer loop
    vertex -1.3068364 -0.07814170000000088 0.7499999999999991
    vertex -1.3271381999999998 -0.15390899999999963 0.0
    vertex -1.3271381999999998 -0.15390900000000143 0.7499999999999998
  endloop
endfacet
facet normal -0.9659257843707134 0.2588192015439 6.236467837165894e-16
  outer loop
    vertex -1.3271381999999998 -0.15390899999999963 0.0
    vertex -1.3068364 -0.07814170000000088 0.7499999999999991
    vertex -1.3068364 -0.07814169999999908 -3.609557097661309e-16
  endloop
endfacet
facet normal -0.906307678272604 0.4226184949858707 1.0181232365951342e-15
  outer loop
    vertex -1.3271381999999998 -0.15390900000000143 0.7499999999999998
    vertex -1.3602885 -0.22499999999999937 -1.8047785488306544e-16
    vertex -1.3602885 -0.22500000000000117 0.7499999999999998
  endloop
endfacet
facet normal -0.906307678272604 0.4226184949858707 1.0181232365951342e-15
  outer loop
    vertex -1.3602885 -0.22499999999999937 -1.8047785488306544e-16
    vertex -1.3271381999999998 -0.15390900000000143 0.7499999999999998
    vertex -1.3271381999999998 -0.15390899999999963 0.0
  endloop
endfacet
facet normal -0.8191504579223884 0.5735787019106806 1.1058372428256015e-15
  outer loop
    vertex -1.3602885 -0.22500000000000117 0.7499999999999998
    vertex -1.4052798999999996 -0.2892540000000001 -3.609557097661309e-16
    vertex -1.4052798999999996 -0.2892540000000012 0.7500000000000002
  endloop
endfacet
facet normal -0.8191504579223884 0.5735787019106806 1.1058372428256015e-15
  outer loop
    vertex -1.4052798999999996 -0.2892540000000001 -3.609557097661309e-16
    vertex -1.3602885 -0.22500000000000117 0.7499999999999998
    vertex -1.3602885 -0.22499999999999937 -1.8047785488306544e-16
  endloop
endfacet
facet normal -0.7071093308856605 0.7071042314782409 1.0199807212275267e-15
  outer loop
    vertex -1.4052798999999996 -0.2892540000000012 0.7500000000000002
    vertex -1.4607454999999998 -0.3447199999999998 -7.219114195322618e-16
    vertex -1.4607454999999998 -0.34472000000000086 0.7499999999999991
  endloop
endfacet
facet normal -0.7071093308856605 0.7071042314782409 1.0199807212275267e-15
  outer loop
    vertex -1.4607454999999998 -0.3447199999999998 -7.219114195322618e-16
    vertex -1.4052798999999996 -0.2892540000000012 0.7500000000000002
    vertex -1.4052798999999996 -0.2892540000000001 -3.609557097661309e-16
  endloop
endfacet
facet normal -0.5735728841696778 0.8191545315416852 1.3802174774988096e-15
  outer loop
    vertex -1.5249998999999996 -0.38971100000000114 0.7499999999999988
    vertex -1.4607454999999998 -0.3447199999999998 -7.219114195322618e-16
    vertex -1.5249998999999996 -0.3897109999999997 -7.219114195322618e-16
  endloop
endfacet
facet normal -0.5735728841696778 0.8191545315416852 1.3802174774988096e-15
  outer loop
    vertex -1.4607454999999998 -0.3447199999999998 -7.219114195322618e-16
    vertex -1.5249998999999996 -0.38971100000000114 0.7499999999999988
    vertex -1.4607454999999998 -0.34472000000000086 0.7499999999999991
  endloop
endfacet
facet normal -0.4226258250527606 0.9063042601678939 1.7423683061273837e-15
  outer loop
    vertex -1.5960908999999999 -0.4228619999999997 -5.414335646491963e-16
    vertex -1.5249998999999996 -0.38971100000000114 0.7499999999999988
    vertex -1.5249998999999996 -0.3897109999999997 -7.219114195322618e-16
  endloop
endfacet
facet normal -0.4226258250527606 0.9063042601678939 1.7423683061273837e-15
  outer loop
    vertex -1.5249998999999996 -0.38971100000000114 0.7499999999999988
    vertex -1.5960908999999999 -0.4228619999999997 -5.414335646491963e-16
    vertex -1.5960908999999999 -0.4228620000000011 0.7499999999999991
  endloop
endfacet
facet normal -0.2588093352596944 0.9659284279813051 1.6268817168726043e-15
  outer loop
    vertex -1.6718583099999997 -0.4431630000000001 -3.609557097661309e-16
    vertex -1.5960908999999999 -0.4228620000000011 0.7499999999999991
    vertex -1.5960908999999999 -0.4228619999999997 -5.414335646491963e-16
  endloop
endfacet
facet normal -0.2588093352596944 0.9659284279813051 1.6268817168726043e-15
  outer loop
    vertex -1.5960908999999999 -0.4228620000000011 0.7499999999999991
    vertex -1.6718583099999997 -0.4431630000000001 -3.609557097661309e-16
    vertex -1.6718583099999997 -0.44316300000000114 0.7499999999999994
  endloop
endfacet
facet normal -0.08716191648578872 0.9961941579403709 1.9178068884008327e-15
  outer loop
    vertex -1.7499999999999998 -0.4500000000000016 0.7499999999999988
    vertex -1.6718583099999997 -0.4431630000000001 -3.609557097661309e-16
    vertex -1.7499999999999998 -0.4499999999999998 -7.219114195322618e-16
  endloop
endfacet
facet normal -0.08716191648578872 0.9961941579403709 1.9178068884008327e-15
  outer loop
    vertex -1.6718583099999997 -0.4431630000000001 -3.609557097661309e-16
    vertex -1.7499999999999998 -0.4500000000000016 0.7499999999999988
    vertex -1.6718583099999997 -0.44316300000000114 0.7499999999999994
  endloop
endfacet
facet normal -1.0 0.0 0.0
  outer loop
    vertex -1.7499999999999998 -0.4500000000000016 0.7499999999999988
    vertex -1.7499999999999998 -0.8999999999999998 -1.263344984181458e-15
    vertex -1.7499999999999998 -0.9000000000000015 0.7499999999999983
  endloop
endfacet
facet normal -1.0 0.0 0.0
  outer loop
    vertex -1.7499999999999998 -0.8999999999999998 -1.263344984181458e-15
    vertex -1.7499999999999998 -0.4500000000000016 0.7499999999999988
    vertex -1.7499999999999998 -0.4499999999999998 -7.219114195322618e-16
  endloop
endfacet
facet normal 1.0 -0.0 -0.0
  outer loop
    vertex 1.7500000000000016 -0.8999999999999998 -1.263344984181458e-15
    vertex 1.7500000000000016 -0.4500000000000016 0.7499999999999988
    vertex 1.7500000000000016 -0.9000000000000015 0.7499999999999983
  endloop
endfacet
facet normal 1.0 -0.0 -0.0
  outer loop
    vertex 1.7500000000000016 -0.4500000000000016 0.7499999999999988
    vertex 1.7500000000000016 -0.8999999999999998 -1.263344984181458e-15
    vertex 1.7500000000000016 -0.4499999999999998 -7.219114195322618e-16
  endloop
endfacet
facet normal 0.2588106419520851 0.9659280778672652 1.6268810758262296e-15
  outer loop
    vertex 1.596091000000002 -0.4228620000000011 0.7499999999999991
    vertex 1.6718580000000016 -0.4431630000000001 -3.609557097661309e-16
    vertex 1.596091000000002 -0.4228619999999997 -5.414335646491963e-16
  endloop
endfacet
facet normal 0.2588106419520851 0.9659280778672652 1.6268810758262296e-15
  outer loop
    vertex 1.6718580000000016 -0.4431630000000001 -3.609557097661309e-16
    vertex 1.596091000000002 -0.4228620000000011 0.7499999999999991
    vertex 1.6718580000000016 -0.44316300000000114 0.7499999999999994
  endloop
endfacet
facet normal 0.4226258250527624 0.906304260167893 1.7423683061273819e-15
  outer loop
    vertex 1.5250000000000021 -0.38971100000000114 0.7499999999999988
    vertex 1.596091000000002 -0.4228619999999997 -5.414335646491963e-16
    vertex 1.5250000000000021 -0.3897109999999997 -7.219114195322618e-16
  endloop
endfacet
facet normal 0.4226258250527624 0.906304260167893 1.7423683061273819e-15
  outer loop
    vertex 1.596091000000002 -0.4228619999999997 -5.414335646491963e-16
    vertex 1.5250000000000021 -0.38971100000000114 0.7499999999999988
    vertex 1.596091000000002 -0.4228620000000011 0.7499999999999991
  endloop
endfacet
facet normal 0.5735752801253314 0.8191528538857369 1.3802147235154034e-15
  outer loop
    vertex 1.4607460000000019 -0.34472000000000086 0.7499999999999991
    vertex 1.5250000000000021 -0.3897109999999997 -7.219114195322618e-16
    vertex 1.4607460000000019 -0.3447199999999998 -7.219114195322618e-16
  endloop
endfacet
facet normal 0.5735752801253314 0.8191528538857369 1.3802147235154034e-15
  outer loop
    vertex 1.5250000000000021 -0.3897109999999997 -7.219114195322618e-16
    vertex 1.4607460000000019 -0.34472000000000086 0.7499999999999991
    vertex 1.5250000000000021 -0.38971100000000114 0.7499999999999988
  endloop
endfacet
facet normal 0.7071067811865418 0.7071067811865532 1.0228653567396212e-15
  outer loop
    vertex 1.4052800000000012 -0.2892540000000001 -3.609557097661309e-16
    vertex 1.4607460000000019 -0.34472000000000086 0.7499999999999991
    vertex 1.4607460000000019 -0.3447199999999998 -7.219114195322618e-16
  endloop
endfacet
facet normal 0.7071067811865418 0.7071067811865532 1.0228653567396212e-15
  outer loop
    vertex 1.4607460000000019 -0.34472000000000086 0.7499999999999991
    vertex 1.4052800000000012 -0.2892540000000001 -3.609557097661309e-16
    vertex 1.4052800000000012 -0.2892540000000012 0.7500000000000002
  endloop
endfacet
facet normal 0.8191528538857369 0.5735752801253314 1.105830586406301e-15
  outer loop
    vertex 1.4052800000000012 -0.2892540000000001 -3.609557097661309e-16
    vertex 1.3602890000000012 -0.22500000000000117 0.7499999999999998
    vertex 1.4052800000000012 -0.2892540000000012 0.7500000000000002
  endloop
endfacet
facet normal 0.8191528538857369 0.5735752801253314 1.105830586406301e-15
  outer loop
    vertex 1.3602890000000012 -0.22500000000000117 0.7499999999999998
    vertex 1.4052800000000012 -0.2892540000000001 -3.609557097661309e-16
    vertex 1.3602890000000012 -0.22499999999999937 -1.8047785488306544e-16
  endloop
endfacet
facet normal 0.9063042601678958 0.42262582505275675 1.0162942790961717e-15
  outer loop
    vertex 1.3602890000000012 -0.22499999999999937 -1.8047785488306544e-16
    vertex 1.3271380000000017 -0.15390900000000143 0.7499999999999998
    vertex 1.3602890000000012 -0.22500000000000117 0.7499999999999998
  endloop
endfacet
facet normal 0.9063042601678958 0.42262582505275675 1.0162942790961717e-15
  outer loop
    vertex 1.3271380000000017 -0.15390900000000143 0.7499999999999998
    vertex 1.3602890000000012 -0.22499999999999937 -1.8047785488306544e-16
    vertex 1.3271380000000017 -0.15390899999999963 0.0
  endloop
endfacet
facet normal 0.9659283340487889 0.2588096858344593 6.236230793201872e-16
  outer loop
    vertex 1.3271380000000017 -0.15390899999999963 0.0
    vertex 1.3068370000000007 -0.07814170000000088 0.7499999999999991
    vertex 1.3271380000000017 -0.15390900000000143 0.7499999999999998
  endloop
endfacet
facet normal 0.9659283340487889 0.2588096858344593 6.236230793201872e-16
  outer loop
    vertex 1.3068370000000007 -0.07814170000000088 0.7499999999999991
    vertex 1.3271380000000017 -0.15390899999999963 0.0
    vertex 1.3068370000000007 -0.07814169999999908 -3.609557097661309e-16
  endloop
endfacet
facet normal 0.9961941589089043 0.0871619054161903 1.6794352954042478e-16
  outer loop
    vertex 1.3068370000000007 -0.07814169999999908 -3.609557097661309e-16
    vertex 1.3000000000000007 -1.0828671292983925e-15 0.7500000000000002
    vertex 1.3068370000000007 -0.07814170000000088 0.7499999999999991
  endloop
endfacet
facet normal 0.9961941589089043 0.0871619054161903 1.6794352954042478e-16
  outer loop
    vertex 1.3000000000000007 -1.0828671292983925e-15 0.7500000000000002
    vertex 1.3068370000000007 -0.07814169999999908 -3.609557097661309e-16
    vertex 1.3000000000000007 0.0 1.8047785488306544e-16
  endloop
endfacet
facet normal 0.9961941589089045 -0.08716190541618851 -1.4714054348169836e-16
  outer loop
    vertex 1.3000000000000007 0.0 1.8047785488306544e-16
    vertex 1.3068370000000007 0.0781416999999998 0.7500000000000002
    vertex 1.3000000000000007 -1.0828671292983925e-15 0.7500000000000002
  endloop
endfacet
facet normal 0.9961941589089045 -0.08716190541618851 -1.4714054348169836e-16
  outer loop
    vertex 1.3068370000000007 0.0781416999999998 0.7500000000000002
    vertex 1.3000000000000007 0.0 1.8047785488306544e-16
    vertex 1.3068370000000007 0.07814170000000124 7.219114195322618e-16
  endloop
endfacet
facet normal 0.9659284194419973 -0.25880936713010466 -4.977681493458702e-16
  outer loop
    vertex 1.3068370000000007 0.07814170000000124 7.219114195322618e-16
    vertex 1.3271380000000017 0.1539090999999975 0.7500000000000006
    vertex 1.3068370000000007 0.0781416999999998 0.7500000000000002
  endloop
endfacet
facet normal 0.9659284194419973 -0.25880936713010466 -4.977681493458702e-16
  outer loop
    vertex 1.3271380000000017 0.1539090999999975 0.7500000000000006
    vertex 1.3068370000000007 0.07814170000000124 7.219114195322618e-16
    vertex 1.3271380000000017 0.15390909999999894 3.609557097661309e-16
  endloop
endfacet
facet normal 0.9063040324630823 -0.4226263133563222 -8.151813832205531e-16
  outer loop
    vertex 1.3271380000000017 0.15390909999999894 3.609557097661309e-16
    vertex 1.3602890000000012 0.22499999999999792 0.7500000000000009
    vertex 1.3271380000000017 0.1539090999999975 0.7500000000000006
  endloop
endfacet
facet normal 0.9063040324630823 -0.4226263133563222 -8.151813832205531e-16
  outer loop
    vertex 1.3602890000000012 0.22499999999999792 0.7500000000000009
    vertex 1.3271380000000017 0.15390909999999894 3.609557097661309e-16
    vertex 1.3602890000000012 0.22499999999999937 3.609557097661309e-16
  endloop
endfacet
facet normal 0.8191549509523878 -0.5735722851831242 -1.1078261553693206e-15
  outer loop
    vertex 1.3602890000000012 0.22499999999999937 3.609557097661309e-16
    vertex 1.4052800000000012 0.28925449999999775 0.7500000000000006
    vertex 1.3602890000000012 0.22499999999999792 0.7500000000000009
  endloop
endfacet
facet normal 0.8191549509523878 -0.5735722851831242 -1.1078261553693206e-15
  outer loop
    vertex 1.4052800000000012 0.28925449999999775 0.7500000000000006
    vertex 1.3602890000000012 0.22499999999999937 3.609557097661309e-16
    vertex 1.4052800000000012 0.2892544999999992 7.219114195322618e-16
  endloop
endfacet
facet normal 0.7071035940468477 -0.7071099683118821 -1.3599847017906805e-15
  outer loop
    vertex 1.4607460000000019 0.3447199999999994 9.023892744153272e-16
    vertex 1.4052800000000012 0.28925449999999775 0.7500000000000006
    vertex 1.4052800000000012 0.2892544999999992 7.219114195322618e-16
  endloop
endfacet
facet normal 0.7071035940468477 -0.7071099683118821 -1.3599847017906805e-15
  outer loop
    vertex 1.4052800000000012 0.28925449999999775 0.7500000000000006
    vertex 1.4607460000000019 0.3447199999999994 9.023892744153272e-16
    vertex 1.4607460000000019 0.344719999999998 0.7500000000000009
  endloop
endfacet
facet normal 0.5735795573523275 -0.8191498589315072 -1.971004397640693e-15
  outer loop
    vertex 1.5250000000000021 0.3897114999999995 1.263344984181458e-15
    vertex 1.4607460000000019 0.344719999999998 0.7500000000000009
    vertex 1.4607460000000019 0.3447199999999994 9.023892744153272e-16
  endloop
endfacet
facet normal 0.5735795573523275 -0.8191498589315072 -1.971004397640693e-15
  outer loop
    vertex 1.4607460000000019 0.344719999999998 0.7500000000000009
    vertex 1.5250000000000021 0.3897114999999995 1.263344984181458e-15
    vertex 1.5250000000000021 0.3897114999999973 0.7500000000000002
  endloop
endfacet
facet normal 0.42261744782668687 -0.9063081665705423 -2.181576102140887e-15
  outer loop
    vertex 1.596091000000002 0.4228616999999978 0.7500000000000012
    vertex 1.5250000000000021 0.3897114999999995 1.263344984181458e-15
    vertex 1.596091000000002 0.42286169999999923 7.219114195322618e-16
  endloop
endfacet
facet normal 0.42261744782668687 -0.9063081665705423 -2.181576102140887e-15
  outer loop
    vertex 1.5250000000000021 0.3897114999999995 1.263344984181458e-15
    vertex 1.596091000000002 0.4228616999999978 0.7500000000000012
    vertex 1.5250000000000021 0.3897114999999973 0.7500000000000002
  endloop
endfacet
facet normal 0.2588201576916405 -0.9659255281710255 -2.3248703561329098e-15
  outer loop
    vertex 1.6718580000000016 0.4431634999999974 0.7500000000000002
    vertex 1.596091000000002 0.42286169999999923 7.219114195322618e-16
    vertex 1.6718580000000016 0.44316349999999954 7.219114195322618e-16
  endloop
endfacet
facet normal 0.2588201576916405 -0.9659255281710255 -2.3248703561329098e-15
  outer loop
    vertex 1.596091000000002 0.42286169999999923 7.219114195322618e-16
    vertex 1.6718580000000016 0.4431634999999974 0.7500000000000002
    vertex 1.596091000000002 0.4228616999999978 0.7500000000000012
  endloop
endfacet
facet normal 0.08715524749459415 -0.9961947414206501 -2.397056650553698e-15
  outer loop
    vertex 1.7500000000000016 0.44999999999999946 1.0828671292983925e-15
    vertex 1.6718580000000016 0.4431634999999974 0.7500000000000002
    vertex 1.6718580000000016 0.44316349999999954 7.219114195322618e-16
  endloop
endfacet
facet normal 0.08715524749459415 -0.9961947414206501 -2.397056650553698e-15
  outer loop
    vertex 1.6718580000000016 0.4431634999999974 0.7500000000000002
    vertex 1.7500000000000016 0.44999999999999946 1.0828671292983925e-15
    vertex 1.7500000000000016 0.449999999999998 0.7500000000000009
  endloop
endfacet
facet normal 1.0 -0.0 -0.0
  outer loop
    vertex 1.7500000000000016 0.44999999999999946 1.0828671292983925e-15
    vertex 1.7500000000000016 0.8999999999999981 0.750000000000002
    vertex 1.7500000000000016 0.449999999999998 0.7500000000000009
  endloop
endfacet
facet normal 1.0 -0.0 -0.0
  outer loop
    vertex 1.7500000000000016 0.8999999999999981 0.750000000000002
    vertex 1.7500000000000016 0.44999999999999946 1.0828671292983925e-15
    vertex 1.7500000000000016 0.8999999999999989 1.4438228390645235e-15
  endloop
endfacet
facet normal -3.6037339454804315e-16 -1.982167392240014e-15 1.0
  outer loop
    vertex -1.0999999999999996 -0.9000000000000015 0.7499999999999983
    vertex -1.7499999999999998 -0.4500000000000016 0.7499999999999988
    vertex -1.7499999999999998 -0.9000000000000015 0.7499999999999983
  endloop
endfacet
facet normal -3.6037339454804315e-16 -1.982167392240014e-15 1.0
  outer loop
    vertex -1.7499999999999998 -0.4500000000000016 0.7499999999999988
    vertex -1.0999999999999996 -0.9000000000000015 0.7499999999999983
    vertex -1.6718583099999997 -0.44316300000000114 0.7499999999999994
  endloop
endfacet
facet normal -3.6037339454804315e-16 -1.982167392240014e-15 1.0
  outer loop
    vertex -1.6718583099999997 -0.44316300000000114 0.7499999999999994
    vertex -1.0999999999999996 -0.9000000000000015 0.7499999999999983
    vertex -1.5960908999999999 -0.4228620000000011 0.7499999999999991
  endloop
endfacet
facet normal -3.6037339454804315e-16 -1.982167392240014e-15 1.0
  outer loop
    vertex -1.5960908999999999 -0.4228620000000011 0.7499999999999991
    vertex -1.0999999999999996 -0.9000000000000015 0.7499999999999983
    vertex -1.5249998999999996 -0.38971100000000114 0.7499999999999988
  endloop
endfacet
facet normal -3.6037339454804315e-16 -1.982167392240014e-15 1.0
  outer loop
    vertex -1.5249998999999996 -0.38971100000000114 0.7499999999999988
    vertex -1.0999999999999996 -0.9000000000000015 0.7499999999999983
    vertex -1.4607454999999998 -0.34472000000000086 0.7499999999999991
  endloop
endfacet
facet normal -3.6037339454804315e-16 -1.982167392240014e-15 1.0
  outer loop
    vertex -1.4607454999999998 -0.34472000000000086 0.7499999999999991
    vertex -1.0999999999999996 -0.9000000000000015 0.7499999999999983
    vertex -1.4052798999999996 -0.2892540000000012 0.7500000000000002
  endloop
endfacet
facet normal -3.6037339454804315e-16 -1.982167392240014e-15 1.0
  outer loop
    vertex -1.4052798999999996 -0.2892540000000012 0.7500000000000002
    vertex -1.0999999999999996 -0.9000000000000015 0.7499999999999983
    vertex -1.3602885 -0.22500000000000117 0.7499999999999998
  endloop
endfacet
facet normal -3.6037339454804315e-16 -1.982167392240014e-15 1.0
  outer loop
    vertex -1.3602885 -0.22500000000000117 0.7499999999999998
    vertex -1.0999999999999996 -0.9000000000000015 0.7499999999999983
    vertex -1.3271381999999998 -0.15390900000000143 0.7499999999999998
  endloop
endfacet
facet normal -3.6037339454804315e-16 -1.982167392240014e-15 1.0
  outer loop
    vertex -1.3271381999999998 -0.15390900000000143 0.7499999999999998
    vertex -1.0999999999999996 -0.9000000000000015 0.7499999999999983
    vertex -1.3068364 -0.07814170000000088 0.7499999999999991
  endloop
endfacet
facet normal -3.6037339454804315e-16 -1.982167392240014e-15 1.0
  outer loop
    vertex -1.3068364 -0.07814170000000088 0.7499999999999991
    vertex -1.0999999999999996 -0.9000000000000015 0.7499999999999983
    vertex -1.2999999999999996 -1.0828671292983925e-15 0.7500000000000002
  endloop
endfacet
facet normal -3.6037339454804315e-16 -1.982167392240014e-15 1.0
  outer loop
    vertex -1.6718583099999997 0.4431634999999974 0.7500000000000002
    vertex -1.7499999999999998 0.8999999999999981 0.750000000000002
    vertex -1.7499999999999998 0.449999999999998 0.7500000000000009
  endloop
endfacet
facet normal -3.6037339454804315e-16 -1.982167392240014e-15 1.0
  outer loop
    vertex -1.7499999999999998 0.8999999999999981 0.750000000000002
    vertex -1.6718583099999997 0.4431634999999974 0.7500000000000002
    vertex -1.0999999999999996 0.8999999999999981 0.750000000000002
  endloop
endfacet
facet normal -3.6037339454804315e-16 -1.982167392240014e-15 1.0
  outer loop
    vertex -1.0999999999999996 0.8999999999999981 0.750000000000002
    vertex -1.6718583099999997 0.4431634999999974 0.7500000000000002
    vertex -1.5960908999999999 0.4228616999999978 0.7500000000000012
  endloop
endfacet
facet normal -3.6037339454804315e-16 -1.982167392240014e-15 1.0
  outer loop
    vertex -1.0999999999999996 0.8999999999999981 0.750000000000002
    vertex -1.5960908999999999 0.4228616999999978 0.7500000000000012
    vertex -1.5249998999999996 0.3897114999999973 0.7500000000000002
  endloop
endfacet
facet normal -3.6037339454804315e-16 -1.982167392240014e-15 1.0
  outer loop
    vertex -1.0999999999999996 0.8999999999999981 0.750000000000002
    vertex -1.5249998999999996 0.3897114999999973 0.7500000000000002
    vertex -1.4607454999999998 0.344719999999998 0.7500000000000009
  endloop
endfacet
facet normal -3.6037339454804315e-16 -1.982167392240014e-15 1.0
  outer loop
    vertex -1.0999999999999996 0.8999999999999981 0.750000000000002
    vertex -1.4607454999999998 0.344719999999998 0.7500000000000009
    vertex -1.4052798999999996 0.28925449999999775 0.7500000000000006
  endloop
endfacet
facet normal -3.6037339454804315e-16 -1.982167392240014e-15 1.0
  outer loop
    vertex -1.0999999999999996 0.8999999999999981 0.750000000000002
    vertex -1.4052798999999996 0.28925449999999775 0.7500000000000006
    vertex -1.3602885 0.22499999999999792 0.7500000000000009
  endloop
endfacet
facet normal -3.6037339454804315e-16 -1.982167392240014e-15 1.0
  outer loop
    vertex -1.0999999999999996 0.8999999999999981 0.750000000000002
    vertex -1.3602885 0.22499999999999792 0.7500000000000009
    vertex -1.3271381999999998 0.1539090999999975 0.7500000000000006
  endloop
endfacet
facet normal -3.6037339454804315e-16 -1.982167392240014e-15 1.0
  outer loop
    vertex -1.0999999999999996 0.8999999999999981 0.750000000000002
    vertex -1.3271381999999998 0.1539090999999975 0.7500000000000006
    vertex -1.3068364 0.0781416999999998 0.7500000000000002
  endloop
endfacet
facet normal -3.6037339454804315e-16 -1.982167392240014e-15 1.0
  outer loop
    vertex -1.0999999999999996 0.8999999999999981 0.750000000000002
    vertex -1.3068364 0.0781416999999998 0.7500000000000002
    vertex -1.2999999999999996 -1.0828671292983925e-15 0.7500000000000002
  endloop
endfacet
facet normal -3.6037339454804315e-16 -1.982167392240014e-15 1.0
  outer loop
    vertex -1.0999999999999996 0.8999999999999981 0.750000000000002
    vertex -1.2999999999999996 -1.0828671292983925e-15 0.7500000000000002
    vertex -1.0999999999999996 -0.9000000000000015 0.7499999999999983
  endloop
endfacet
facet normal -1.0 0.0 0.0
  outer loop
    vertex 1.1000000000000023 0.8999999999999981 0.750000000000002
    vertex 1.1000000000000023 -0.9000000000000004 0.7249999999999979
    vertex 1.1000000000000023 -0.9000000000000015 0.7499999999999983
  endloop
endfacet
facet normal -1.0 0.0 0.0
  outer loop
    vertex 1.1000000000000023 -0.9000000000000004 0.7249999999999979
    vertex 1.1000000000000023 0.8999999999999981 0.750000000000002
    vertex 1.1000000000000023 0.8999999999999981 0.7250000000000015
  endloop
endfacet
facet normal 1.0 -0.0 -0.0
  outer loop
    vertex -1.0999999999999996 -0.9000000000000004 0.7249999999999979
    vertex -1.0999999999999996 0.8999999999999981 0.750000000000002
    vertex -1.0999999999999996 -0.9000000000000015 0.7499999999999983
  endloop
endfacet
facet normal 1.0 -0.0 -0.0
  outer loop
    vertex -1.0999999999999996 0.8999999999999981 0.750000000000002
    vertex -1.0999999999999996 -0.9000000000000004 0.7249999999999979
    vertex -1.0999999999999996 0.8999999999999981 0.7250000000000015
  endloop
endfacet
facet normal 5.212329735852992e-17 -7.139640223287641e-17 1.0
  outer loop
    vertex 0.15000000000000135 -0.3000000000000011 0.7249999999999989
    vertex -0.19945806702726085 -0.2000000000000011 0.7249999999999989
    vertex -0.19945806702726085 -0.3000000000000011 0.7249999999999989
  endloop
endfacet
facet normal 5.212329735852992e-17 -7.139640223287641e-17 1.0
  outer loop
    vertex -0.19945806702726085 -0.2000000000000011 0.7249999999999989
    vertex 0.15000000000000135 -0.3000000000000011 0.7249999999999989
    vertex 0.050000000000001314 -0.2000000000000011 0.7249999999999989
  endloop
endfacet
facet normal 5.212329735852992e-17 -7.139640223287641e-17 1.0
  outer loop
    vertex 0.050000000000001314 -0.2000000000000011 0.7249999999999989
    vertex 0.15000000000000135 -0.3000000000000011 0.7249999999999989
    vertex 0.050000000000001314 -0.050000000000001085 0.7249999999999989
  endloop
endfacet
facet normal 5.212329735852992e-17 -7.139640223287641e-17 1.0
  outer loop
    vertex 0.050000000000001314 -0.050000000000001085 0.7249999999999989
    vertex 0.15000000000000135 -0.3000000000000011 0.7249999999999989
    vertex 0.050000000000001314 0.04999999999999892 0.7249999999999989
  endloop
endfacet
facet normal 5.212329735852992e-17 -7.139640223287641e-17 1.0
  outer loop
    vertex 0.050000000000001314 0.04999999999999892 0.7249999999999989
    vertex 0.15000000000000135 -0.3000000000000011 0.7249999999999989
    vertex 0.050000000000001314 0.29999999999999893 0.7249999999999989
  endloop
endfacet
facet normal 5.212329735852992e-17 -7.139640223287641e-17 1.0
  outer loop
    vertex 0.050000000000001314 0.29999999999999893 0.7249999999999989
    vertex 0.15000000000000135 -0.3000000000000011 0.7249999999999989
    vertex 0.15000000000000133 0.29999999999999893 0.7249999999999989
  endloop
endfacet
facet normal 5.212329735852992e-17 -7.139640223287641e-17 1.0
  outer loop
    vertex 0.050000000000001314 -0.050000000000001085 0.7249999999999989
    vertex -0.1499999999999987 0.04999999999999892 0.7249999999999989
    vertex -0.1499999999999987 -0.050000000000001085 0.7249999999999989
  endloop
endfacet
facet normal 5.212329735852992e-17 -7.139640223287641e-17 1.0
  outer loop
    vertex -0.1499999999999987 0.04999999999999892 0.7249999999999989
    vertex 0.050000000000001314 -0.050000000000001085 0.7249999999999989
    vertex 0.050000000000001314 0.04999999999999892 0.7249999999999989
  endloop
endfacet
facet normal -1.0 0.0 0.0
  outer loop
    vertex 1.1000000000000023 0.8999999999999989 0.025000000000001715
    vertex 1.1000000000000023 -0.8999999999999998 -1.263344984181458e-15
    vertex 1.1000000000000023 -0.9 0.024999999999998464
  endloop
endfacet
facet normal -1.0 0.0 0.0
  outer loop
    vertex 1.1000000000000023 -0.8999999999999998 -1.263344984181458e-15
    vertex 1.1000000000000023 0.8999999999999989 0.025000000000001715
    vertex 1.1000000000000023 0.8999999999999989 1.4438228390645235e-15
  endloop
endfacet
facet normal 1.0 -5.262741356507803e-17 -3.609557097661263e-15
  outer loop
    vertex -1.0999999999999996 -0.8999999999999998 -1.263344984181458e-15
    vertex -1.0999999999999996 0.8999999999999989 0.025000000000001715
    vertex -1.0999999999999996 -0.9 0.024999999999998464
  endloop
endfacet
facet normal 1.0 -5.262741356507803e-17 -3.609557097661263e-15
  outer loop
    vertex -1.0999999999999996 0.8999999999999989 0.025000000000001715
    vertex -1.0999999999999996 -0.8999999999999998 -1.263344984181458e-15
    vertex -1.0999999999999996 0.8999999999999989 1.4438228390645235e-15
  endloop
endfacet
facet normal 0.0 1.8047785488306553e-15 -1.0
  outer loop
    vertex 1.1000000000000023 0.8999999999999989 0.025000000000001715
    vertex -1.0999999999999996 -0.9 0.024999999999998464
    vertex -1.0999999999999996 0.8999999999999989 0.025000000000001715
  endloop
endfacet
facet normal 0.0 1.8047785488306553e-15 -1.0
  outer loop
    vertex -1.0999999999999996 -0.9 0.024999999999998464
    vertex 1.1000000000000023 0.8999999999999989 0.025000000000001715
    vertex 1.1000000000000023 -0.9 0.024999999999998464
  endloop
endfacet
facet normal 3.603738082269491e-16 -1.98216739224e-15 1.0
  outer loop
    vertex 1.1000000000000023 -0.9000000000000015 0.7499999999999983
    vertex 1.3068370000000007 -0.07814170000000088 0.7499999999999991
    vertex 1.1000000000000023 0.8999999999999981 0.750000000000002
  endloop
endfacet
facet normal 3.603738082269491e-16 -1.98216739224e-15 1.0
  outer loop
    vertex 1.3068370000000007 -0.07814170000000088 0.7499999999999991
    vertex 1.1000000000000023 -0.9000000000000015 0.7499999999999983
    vertex 1.3271380000000017 -0.15390900000000143 0.7499999999999998
  endloop
endfacet
facet normal 3.603738082269491e-16 -1.98216739224e-15 1.0
  outer loop
    vertex 1.3271380000000017 -0.15390900000000143 0.7499999999999998
    vertex 1.1000000000000023 -0.9000000000000015 0.7499999999999983
    vertex 1.3602890000000012 -0.22500000000000117 0.7499999999999998
  endloop
endfacet
facet normal 3.603738082269491e-16 -1.98216739224e-15 1.0
  outer loop
    vertex 1.3602890000000012 -0.22500000000000117 0.7499999999999998
    vertex 1.1000000000000023 -0.9000000000000015 0.7499999999999983
    vertex 1.7500000000000016 -0.9000000000000015 0.7499999999999983
  endloop
endfacet
facet normal 3.603738082269491e-16 -1.98216739224e-15 1.0
  outer loop
    vertex 1.1000000000000023 0.8999999999999981 0.750000000000002
    vertex 1.3068370000000007 -0.07814170000000088 0.7499999999999991
    vertex 1.3000000000000007 -1.0828671292983925e-15 0.7500000000000002
  endloop
endfacet
facet normal 3.603738082269491e-16 -1.98216739224e-15 1.0
  outer loop
    vertex 1.3602890000000012 -0.22500000000000117 0.7499999999999998
    vertex 1.7500000000000016 -0.9000000000000015 0.7499999999999983
    vertex 1.4052800000000012 -0.2892540000000012 0.7500000000000002
  endloop
endfacet
facet normal 3.603738082269491e-16 -1.98216739224e-15 1.0
  outer loop
    vertex 1.4052800000000012 -0.2892540000000012 0.7500000000000002
    vertex 1.7500000000000016 -0.9000000000000015 0.7499999999999983
    vertex 1.4607460000000019 -0.34472000000000086 0.7499999999999991
  endloop
endfacet
facet normal 3.603738082269491e-16 -1.98216739224e-15 1.0
  outer loop
    vertex 1.4607460000000019 -0.34472000000000086 0.7499999999999991
    vertex 1.7500000000000016 -0.9000000000000015 0.7499999999999983
    vertex 1.5250000000000021 -0.38971100000000114 0.7499999999999988
  endloop
endfacet
facet normal 3.603738082269491e-16 -1.98216739224e-15 1.0
  outer loop
    vertex 1.5250000000000021 -0.38971100000000114 0.7499999999999988
    vertex 1.7500000000000016 -0.9000000000000015 0.7499999999999983
    vertex 1.596091000000002 -0.4228620000000011 0.7499999999999991
  endloop
endfacet
facet normal 3.603738082269491e-16 -1.98216739224e-15 1.0
  outer loop
    vertex 1.596091000000002 -0.4228620000000011 0.7499999999999991
    vertex 1.7500000000000016 -0.9000000000000015 0.7499999999999983
    vertex 1.6718580000000016 -0.44316300000000114 0.7499999999999994
  endloop
endfacet
facet normal 3.603738082269491e-16 -1.98216739224e-15 1.0
  outer loop
    vertex 1.6718580000000016 -0.44316300000000114 0.7499999999999994
    vertex 1.7500000000000016 -0.9000000000000015 0.7499999999999983
    vertex 1.7500000000000016 -0.4500000000000016 0.7499999999999988
  endloop
endfacet
facet normal 3.603738082269491e-16 -1.98216739224e-15 1.0
  outer loop
    vertex 1.1000000000000023 0.8999999999999981 0.750000000000002
    vertex 1.3602890000000012 0.22499999999999792 0.7500000000000009
    vertex 1.7500000000000016 0.8999999999999981 0.750000000000002
  endloop
endfacet
facet normal 3.603738082269491e-16 -1.98216739224e-15 1.0
  outer loop
    vertex 1.3602890000000012 0.22499999999999792 0.7500000000000009
    vertex 1.1000000000000023 0.8999999999999981 0.750000000000002
    vertex 1.3271380000000017 0.1539090999999975 0.7500000000000006
  endloop
endfacet
facet normal 3.603738082269491e-16 -1.98216739224e-15 1.0
  outer loop
    vertex 1.3271380000000017 0.1539090999999975 0.7500000000000006
    vertex 1.1000000000000023 0.8999999999999981 0.750000000000002
    vertex 1.3068370000000007 0.0781416999999998 0.7500000000000002
  endloop
endfacet
facet normal 3.603738082269491e-16 -1.98216739224e-15 1.0
  outer loop
    vertex 1.3068370000000007 0.0781416999999998 0.7500000000000002
    vertex 1.1000000000000023 0.8999999999999981 0.750000000000002
    vertex 1.3000000000000007 -1.0828671292983925e-15 0.7500000000000002
  endloop
endfacet
facet normal 3.603738082269491e-16 -1.98216739224e-15 1.0
  outer loop
    vertex 1.7500000000000016 0.8999999999999981 0.750000000000002
    vertex 1.3602890000000012 0.22499999999999792 0.7500000000000009
    vertex 1.4052800000000012 0.28925449999999775 0.7500000000000006
  endloop
endfacet
facet normal 3.603738082269491e-16 -1.98216739224e-15 1.0
  outer loop
    vertex 1.7500000000000016 0.8999999999999981 0.750000000000002
    vertex 1.4052800000000012 0.28925449999999775 0.7500000000000006
    vertex 1.4607460000000019 0.344719999999998 0.7500000000000009
  endloop
endfacet
facet normal 3.603738082269491e-16 -1.98216739224e-15 1.0
  outer loop
    vertex 1.7500000000000016 0.8999999999999981 0.750000000000002
    vertex 1.4607460000000019 0.344719999999998 0.7500000000000009
    vertex 1.5250000000000021 0.3897114999999973 0.7500000000000002
  endloop
endfacet
facet normal 3.603738082269491e-16 -1.98216739224e-15 1.0
  outer loop
    vertex 1.7500000000000016 0.8999999999999981 0.750000000000002
    vertex 1.5250000000000021 0.3897114999999973 0.7500000000000002
    vertex 1.596091000000002 0.4228616999999978 0.7500000000000012
  endloop
endfacet
facet normal 3.603738082269491e-16 -1.98216739224e-15 1.0
  outer loop
    vertex 1.7500000000000016 0.8999999999999981 0.750000000000002
    vertex 1.596091000000002 0.4228616999999978 0.7500000000000012
    vertex 1.6718580000000016 0.4431634999999974 0.7500000000000002
  endloop
endfacet
facet normal 3.603738082269491e-16 -1.98216739224e-15 1.0
  outer loop
    vertex 1.7500000000000016 0.8999999999999981 0.750000000000002
    vertex 1.6718580000000016 0.4431634999999974 0.7500000000000002
    vertex 1.7500000000000016 0.449999999999998 0.7500000000000009
  endloop
endfacet
facet normal -4.455848988124866e-33 -1.0 -1.6650898066611001e-15
  outer loop
    vertex 1.7500000000000016 -0.9000000000000015 0.7499999999999983
    vertex 1.1000000000000023 -0.8999999999999998 -1.263344984181458e-15
    vertex 1.7500000000000016 -0.8999999999999998 -1.263344984181458e-15
  endloop
endfacet
facet normal -4.455848988124866e-33 -1.0 -1.6650898066611001e-15
  outer loop
    vertex 1.1000000000000023 -0.8999999999999998 -1.263344984181458e-15
    vertex 1.7500000000000016 -0.9000000000000015 0.7499999999999983
    vertex 1.1000000000000023 -0.9 0.024999999999998464
  endloop
endfacet
facet normal -4.455848988124866e-33 -1.0 -1.6650898066611001e-15
  outer loop
    vertex 1.1000000000000023 -0.9 0.024999999999998464
    vertex 1.7500000000000016 -0.9000000000000015 0.7499999999999983
    vertex -1.0999999999999996 -0.9 0.024999999999998464
  endloop
endfacet
facet normal -4.455848988124866e-33 -1.0 -1.6650898066611001e-15
  outer loop
    vertex -1.0999999999999996 -0.9 0.024999999999998464
    vertex 1.7500000000000016 -0.9000000000000015 0.7499999999999983
    vertex 1.1000000000000023 -0.9000000000000004 0.7249999999999979
  endloop
endfacet
facet normal -4.455848988124866e-33 -1.0 -1.6650898066611001e-15
  outer loop
    vertex 1.1000000000000023 -0.9000000000000004 0.7249999999999979
    vertex 1.7500000000000016 -0.9000000000000015 0.7499999999999983
    vertex 1.1000000000000023 -0.9000000000000015 0.7499999999999983
  endloop
endfacet
facet normal -4.455848988124866e-33 -1.0 -1.6650898066611001e-15
  outer loop
    vertex -1.0999999999999996 -0.9 0.024999999999998464
    vertex -1.7499999999999998 -0.8999999999999998 -1.263344984181458e-15
    vertex -1.0999999999999996 -0.8999999999999998 -1.263344984181458e-15
  endloop
endfacet
facet normal -4.455848988124866e-33 -1.0 -1.6650898066611001e-15
  outer loop
    vertex -1.7499999999999998 -0.8999999999999998 -1.263344984181458e-15
    vertex -1.0999999999999996 -0.9 0.024999999999998464
    vertex -1.7499999999999998 -0.9000000000000015 0.7499999999999983
  endloop
endfacet
facet normal -4.455848988124866e-33 -1.0 -1.6650898066611001e-15
  outer loop
    vertex -1.7499999999999998 -0.9000000000000015 0.7499999999999983
    vertex -1.0999999999999996 -0.9 0.024999999999998464
    vertex -1.0999999999999996 -0.9000000000000004 0.7249999999999979
  endloop
endfacet
facet normal -4.455848988124866e-33 -1.0 -1.6650898066611001e-15
  outer loop
    vertex -1.0999999999999996 -0.9000000000000004 0.7249999999999979
    vertex -1.0999999999999996 -0.9 0.024999999999998464
    vertex 1.1000000000000023 -0.9000000000000004 0.7249999999999979
  endloop
endfacet
facet normal -4.455848988124866e-33 -1.0 -1.6650898066611001e-15
  outer loop
    vertex -1.7499999999999998 -0.9000000000000015 0.7499999999999983
    vertex -1.0999999999999996 -0.9000000000000004 0.7249999999999979
    vertex -1.0999999999999996 -0.9000000000000015 0.7499999999999983
  endloop
endfacet
facet normal 8.340137055367381e-17 1.6212477723786537e-15 -1.0
  outer loop
    vertex 1.1000000000000023 0.8999999999999989 1.4438228390645235e-15
    vertex 1.3068370000000007 0.07814170000000124 7.219114195322618e-16
    vertex 1.1000000000000023 -0.8999999999999998 -1.263344984181458e-15
  endloop
endfacet
facet normal 8.340137055367381e-17 1.6212477723786537e-15 -1.0
  outer loop
    vertex 1.3068370000000007 0.07814170000000124 7.219114195322618e-16
    vertex 1.1000000000000023 0.8999999999999989 1.4438228390645235e-15
    vertex 1.3271380000000017 0.15390909999999894 3.609557097661309e-16
  endloop
endfacet
facet normal 8.340137055367381e-17 1.6212477723786537e-15 -1.0
  outer loop
    vertex 1.3271380000000017 0.15390909999999894 3.609557097661309e-16
    vertex 1.1000000000000023 0.8999999999999989 1.4438228390645235e-15
    vertex 1.3602890000000012 0.22499999999999937 3.609557097661309e-16
  endloop
endfacet
facet normal 8.340137055367381e-17 1.6212477723786537e-15 -1.0
  outer loop
    vertex 1.3602890000000012 0.22499999999999937 3.609557097661309e-16
    vertex 1.1000000000000023 0.8999999999999989 1.4438228390645235e-15
    vertex 1.7500000000000016 0.8999999999999989 1.4438228390645235e-15
  endloop
endfacet
facet normal 8.340137055367381e-17 1.6212477723786537e-15 -1.0
  outer loop
    vertex 1.1000000000000023 -0.8999999999999998 -1.263344984181458e-15
    vertex 1.3068370000000007 0.07814170000000124 7.219114195322618e-16
    vertex 1.3000000000000007 0.0 1.8047785488306544e-16
  endloop
endfacet
facet normal 8.340137055367381e-17 1.6212477723786537e-15 -1.0
  outer loop
    vertex 1.3602890000000012 0.22499999999999937 3.609557097661309e-16
    vertex 1.7500000000000016 0.8999999999999989 1.4438228390645235e-15
    vertex 1.4052800000000012 0.2892544999999992 7.219114195322618e-16
  endloop
endfacet
facet normal 8.340137055367381e-17 1.6212477723786537e-15 -1.0
  outer loop
    vertex 1.4052800000000012 0.2892544999999992 7.219114195322618e-16
    vertex 1.7500000000000016 0.8999999999999989 1.4438228390645235e-15
    vertex 1.4607460000000019 0.3447199999999994 9.023892744153272e-16
  endloop
endfacet
facet normal 8.340137055367381e-17 1.6212477723786537e-15 -1.0
  outer loop
    vertex 1.4607460000000019 0.3447199999999994 9.023892744153272e-16
    vertex 1.7500000000000016 0.8999999999999989 1.4438228390645235e-15
    vertex 1.5250000000000021 0.3897114999999995 1.263344984181458e-15
  endloop
endfacet
facet normal 8.340137055367381e-17 1.6212477723786537e-15 -1.0
  outer loop
    vertex 1.5250000000000021 0.3897114999999995 1.263344984181458e-15
    vertex 1.7500000000000016 0.8999999999999989 1.4438228390645235e-15
    vertex 1.596091000000002 0.42286169999999923 7.219114195322618e-16
  endloop
endfacet
facet normal 8.340137055367381e-17 1.6212477723786537e-15 -1.0
  outer loop
    vertex 1.596091000000002 0.42286169999999923 7.219114195322618e-16
    vertex 1.7500000000000016 0.8999999999999989 1.4438228390645235e-15
    vertex 1.6718580000000016 0.44316349999999954 7.219114195322618e-16
  endloop
endfacet
facet normal 8.340137055367381e-17 1.6212477723786537e-15 -1.0
  outer loop
    vertex 1.6718580000000016 0.44316349999999954 7.219114195322618e-16
    vertex 1.7500000000000016 0.8999999999999989 1.4438228390645235e-15
    vertex 1.7500000000000016 0.44999999999999946 1.0828671292983925e-15
  endloop
endfacet
facet normal 8.340137055367381e-17 1.6212477723786537e-15 -1.0
  outer loop
    vertex 1.1000000000000023 -0.8999999999999998 -1.263344984181458e-15
    vertex 1.3602890000000012 -0.22499999999999937 -1.8047785488306544e-16
    vertex 1.7500000000000016 -0.8999999999999998 -1.263344984181458e-15
  endloop
endfacet
facet normal 8.340137055367381e-17 1.6212477723786537e-15 -1.0
  outer loop
    vertex 1.3602890000000012 -0.22499999999999937 -1.8047785488306544e-16
    vertex 1.1000000000000023 -0.8999999999999998 -1.263344984181458e-15
    vertex 1.3271380000000017 -0.15390899999999963 0.0
  endloop
endfacet
facet normal 8.340137055367381e-17 1.6212477723786537e-15 -1.0
  outer loop
    vertex 1.3271380000000017 -0.15390899999999963 0.0
    vertex 1.1000000000000023 -0.8999999999999998 -1.263344984181458e-15
    vertex 1.3068370000000007 -0.07814169999999908 -3.609557097661309e-16
  endloop
endfacet
facet normal 8.340137055367381e-17 1.6212477723786537e-15 -1.0
  outer loop
    vertex 1.3068370000000007 -0.07814169999999908 -3.609557097661309e-16
    vertex 1.1000000000000023 -0.8999999999999998 -1.263344984181458e-15
    vertex 1.3000000000000007 0.0 1.8047785488306544e-16
  endloop
endfacet
facet normal 8.340137055367381e-17 1.6212477723786537e-15 -1.0
  outer loop
    vertex 1.7500000000000016 -0.8999999999999998 -1.263344984181458e-15
    vertex 1.3602890000000012 -0.22499999999999937 -1.8047785488306544e-16
    vertex 1.4052800000000012 -0.2892540000000001 -3.609557097661309e-16
  endloop
endfacet
facet normal 8.340137055367381e-17 1.6212477723786537e-15 -1.0
  outer loop
    vertex 1.7500000000000016 -0.8999999999999998 -1.263344984181458e-15
    vertex 1.4052800000000012 -0.2892540000000001 -3.609557097661309e-16
    vertex 1.4607460000000019 -0.3447199999999998 -7.219114195322618e-16
  endloop
endfacet
facet normal 8.340137055367381e-17 1.6212477723786537e-15 -1.0
  outer loop
    vertex 1.7500000000000016 -0.8999999999999998 -1.263344984181458e-15
    vertex 1.4607460000000019 -0.3447199999999998 -7.219114195322618e-16
    vertex 1.5250000000000021 -0.3897109999999997 -7.219114195322618e-16
  endloop
endfacet
facet normal 8.340137055367381e-17 1.6212477723786537e-15 -1.0
  outer loop
    vertex 1.7500000000000016 -0.8999999999999998 -1.263344984181458e-15
    vertex 1.5250000000000021 -0.3897109999999997 -7.219114195322618e-16
    vertex 1.596091000000002 -0.4228619999999997 -5.414335646491963e-16
  endloop
endfacet
facet normal 8.340137055367381e-17 1.6212477723786537e-15 -1.0
  outer loop
    vertex 1.7500000000000016 -0.8999999999999998 -1.263344984181458e-15
    vertex 1.596091000000002 -0.4228619999999997 -5.414335646491963e-16
    vertex 1.6718580000000016 -0.4431630000000001 -3.609557097661309e-16
  endloop
endfacet
facet normal 8.340137055367381e-17 1.6212477723786537e-15 -1.0
  outer loop
    vertex 1.7500000000000016 -0.8999999999999998 -1.263344984181458e-15
    vertex 1.6718580000000016 -0.4431630000000001 -3.609557097661309e-16
    vertex 1.7500000000000016 -0.4499999999999998 -7.219114195322618e-16
  endloop
endfacet
facet normal -0.0 -2.0053094987007287e-15 1.0
  outer loop
    vertex 0.050000000000001314 -0.2000000000000011 0.7249999999999989
    vertex -0.1499999999999987 -0.050000000000001085 0.7249999999999989
    vertex -0.19945806702726085 -0.2000000000000011 0.7249999999999989
  endloop
endfacet
facet normal -0.0 -2.0053094987007287e-15 1.0
  outer loop
    vertex -0.1499999999999987 -0.050000000000001085 0.7249999999999989
    vertex 0.050000000000001314 -0.2000000000000011 0.7249999999999989
    vertex 0.050000000000001314 -0.050000000000001085 0.7249999999999989
  endloop
endfacet
facet normal -0.0 -2.0053094987007287e-15 1.0
  outer loop
    vertex -1.0999999999999996 -0.9000000000000004 0.7249999999999979
    vertex -0.19945806702726085 -0.3000000000000011 0.7249999999999989
    vertex -1.0999999999999996 0.8999999999999981 0.7250000000000015
  endloop
endfacet
facet normal -0.0 -2.0053094987007287e-15 1.0
  outer loop
    vertex -0.19945806702726085 -0.3000000000000011 0.7249999999999989
    vertex -1.0999999999999996 -0.9000000000000004 0.7249999999999979
    vertex 1.1000000000000023 -0.9000000000000004 0.7249999999999979
  endloop
endfacet
facet normal -0.0 -2.0053094987007287e-15 1.0
  outer loop
    vertex -0.19945806702726085 -0.3000000000000011 0.7249999999999989
    vertex 1.1000000000000023 -0.9000000000000004 0.7249999999999979
    vertex 0.15000000000000135 -0.3000000000000011 0.7249999999999989
  endloop
endfacet
facet normal -0.0 -2.0053094987007287e-15 1.0
  outer loop
    vertex -1.0999999999999996 0.8999999999999981 0.7250000000000015
    vertex 0.050000000000001314 0.29999999999999893 0.7249999999999989
    vertex 1.1000000000000023 0.8999999999999981 0.7250000000000015
  endloop
endfacet
facet normal -0.0 -2.0053094987007287e-15 1.0
  outer loop
    vertex 0.050000000000001314 0.29999999999999893 0.7249999999999989
    vertex -1.0999999999999996 0.8999999999999981 0.7250000000000015
    vertex -0.1499999999999987 0.04999999999999892 0.7249999999999989
  endloop
endfacet
facet normal -0.0 -2.0053094987007287e-15 1.0
  outer loop
    vertex -0.1499999999999987 0.04999999999999892 0.7249999999999989
    vertex -1.0999999999999996 0.8999999999999981 0.7250000000000015
    vertex -0.19945806702726085 -0.2000000000000011 0.7249999999999989
  endloop
endfacet
facet normal -0.0 -2.0053094987007287e-15 1.0
  outer loop
    vertex -0.19945806702726085 -0.2000000000000011 0.7249999999999989
    vertex -1.0999999999999996 0.8999999999999981 0.7250000000000015
    vertex -0.19945806702726085 -0.3000000000000011 0.7249999999999989
  endloop
endfacet
facet normal -0.0 -2.0053094987007287e-15 1.0
  outer loop
    vertex -0.1499999999999987 0.04999999999999892 0.7249999999999989
    vertex -0.19945806702726085 -0.2000000000000011 0.7249999999999989
    vertex -0.1499999999999987 -0.050000000000001085 0.7249999999999989
  endloop
endfacet
facet normal -0.0 -2.0053094987007287e-15 1.0
  outer loop
    vertex 0.050000000000001314 0.29999999999999893 0.7249999999999989
    vertex -0.1499999999999987 0.04999999999999892 0.7249999999999989
    vertex 0.050000000000001314 0.04999999999999892 0.7249999999999989
  endloop
endfacet
facet normal -0.0 -2.0053094987007287e-15 1.0
  outer loop
    vertex 1.1000000000000023 0.8999999999999981 0.7250000000000015
    vertex 0.050000000000001314 0.29999999999999893 0.7249999999999989
    vertex 0.15000000000000133 0.29999999999999893 0.7249999999999989
  endloop
endfacet
facet normal -0.0 -2.0053094987007287e-15 1.0
  outer loop
    vertex 1.1000000000000023 0.8999999999999981 0.7250000000000015
    vertex 0.15000000000000133 0.29999999999999893 0.7249999999999989
    vertex 0.15000000000000135 -0.3000000000000011 0.7249999999999989
  endloop
endfacet
facet normal -0.0 -2.0053094987007287e-15 1.0
  outer loop
    vertex 1.1000000000000023 0.8999999999999981 0.7250000000000015
    vertex 0.15000000000000135 -0.3000000000000011 0.7249999999999989
    vertex 1.1000000000000023 -0.9000000000000004 0.7249999999999979
  endloop
endfacet
endsolid R1206
