  0
SECTION
  2
HEADER
  9
$ACADVER
  1
AC1009
  9
$INSBASE
 10
0.0
 20
0.0
 30
0.0
  9
$EXTMIN
 10
0.0
 20
0.0
 30
0.0
  9
$EXTMAX
 10
0.0
 20
0.0
 30
0.0
  0
ENDSEC
  0
SECTION
  2
TABLES
  0
TABLE
  2
VPORT
 70
0
  0
ENDTAB
  0
TABLE
  2
LTYPE
 70
1
  0
LTYPE
  2
CONTINUOUS
 70
0
  3
Solid line
 72
65
 73
0
 40
0.0
  0
ENDTAB
  0
TABLE
  2
LAYER
 70
1
  0
LAYER
  2
0
 70
64
 62
7
  6
continuous
  0
ENDTAB
  0
TABLE
  2
STYLE
 70
1
  0
STYLE
  2
STANDARD
 70
0
 40
0
 41
1.0
 50
0.0
 71
0
 42
1
 3
ARIAL.TTF
 4

  0
ENDTAB
  0
TABLE
  2
VIEW
 70
0
  0
ENDTAB
  0
ENDSEC
  0
SECTION
  2
BLOCKS
  0
BLOCK
  8
0
  2
FUSION001
 70
0
 10
0.0
 20
0.0
 30
0.0
  3
FUSION001
  0
POLYLINE
  8
0
 62
0
 70
0
 66
1
 10
0.0
 20
0.0
 30
0.0
  0
VERTEX
  8
0
 10
8.25
 20
0.0
  0
VERTEX
  8
0
 10
8.3
 20
0.0
  0
VERTEX
  8
0
 10
8.35
 20
0.0
  0
VERTEX
  8
0
 10
8.4
 20
0.0
  0
VERTEX
  8
0
 10
8.45
 20
0.0
  0
VERTEX
  8
0
 10
8.5
 20
0.0
  0
VERTEX
  8
0
 10
8.55
 20
0.0
  0
VERTEX
  8
0
 10
8.6
 20
0.0
  0
VERTEX
  8
0
 10
8.65
 20
0.0
  0
VERTEX
  8
0
 10
8.7
 20
0.0
  0
VERTEX
  8
0
 10
8.75
 20
0.0
  0
VERTEX
  8
0
 10
8.8
 20
0.0
  0
VERTEX
  8
0
 10
8.85
 20
0.0
  0
SEQEND
  8
0
  0
POLYLINE
  8
0
 62
0
 70
0
 66
1
 10
0.0
 20
0.0
 30
0.0
  0
VERTEX
  8
0
 10
9.17
 20
0.0
  0
VERTEX
  8
0
 10
9.22
 20
0.0
  0
VERTEX
  8
0
 10
9.27
 20
0.0
  0
VERTEX
  8
0
 10
9.32
 20
0.0
  0
VERTEX
  8
0
 10
9.37
 20
0.0
  0
VERTEX
  8
0
 10
9.42
 20
0.0
  0
VERTEX
  8
0
 10
9.47
 20
0.0
  0
VERTEX
  8
0
 10
9.52
 20
0.0
  0
VERTEX
  8
0
 10
9.57
 20
0.0
  0
VERTEX
  8
0
 10
9.62
 20
0.0
  0
VERTEX
  8
0
 10
9.67
 20
0.0
  0
VERTEX
  8
0
 10
9.72
 20
0.0
  0
VERTEX
  8
0
 10
9.77
 20
0.0
  0
VERTEX
  8
0
 10
9.82
 20
0.0
  0
VERTEX
  8
0
 10
9.87
 20
0.0
  0
VERTEX
  8
0
 10
9.92
 20
0.0
  0
VERTEX
  8
0
 10
9.97
 20
0.0
  0
VERTEX
  8
0
 10
10.0
 20
0.0
  0
SEQEND
  8
0
  0
CIRCLE
  8
0
 62
0
 10
0.0
 20
0.0
 30
0.0
 40
8.85
  0
CIRCLE
  8
0
 62
0
 10
0.0
 20
0.0
 30
0.0
 40
8.85
  0
CIRCLE
  8
0
 62
0
 10
0.0
 20
0.0
 30
0.0
 40
9.16
  0
CIRCLE
  8
0
 62
0
 10
0.0
 20
0.0
 30
0.0
 40
10.0
  0
CIRCLE
  8
0
 62
0
 10
0.0
 20
0.0
 30
0.0
 40
8.25
  0
CIRCLE
  8
0
 62
0
 10
0.0
 20
0.0
 30
0.0
 40
9.17
  0
ENDBLK
  0
ENDSEC
  0
SECTION
  2
ENTITIES
  0
INSERT
  2
FUSION001
  8
0
 10
0.0
 20
0.0
 30
0.0
  0
ENDSEC
  0
EOF
