solid Exported from Blender-2.72 (sub 0)
facet normal 0.000000 1.000000 -0.000000
outer loop
vertex 0.000000 10.160000 0.800002
vertex 10.160000 10.160000 0.800002
vertex 10.160000 10.160000 -0.799998
endloop
endfacet
facet normal -0.000000 1.000000 0.000000
outer loop
vertex 10.160000 10.160000 -0.799998
vertex 0.000000 10.160000 -0.799998
vertex 0.000000 10.160000 0.800002
endloop
endfacet
facet normal 0.000000 -0.000000 1.000000
outer loop
vertex 0.000000 10.160000 0.800002
vertex 1.270000 8.128000 0.800001
vertex 10.160000 10.160000 0.800002
endloop
endfacet
facet normal 0.000000 -0.000000 1.000000
outer loop
vertex 1.270000 8.128000 0.800001
vertex 0.000000 10.160000 0.800002
vertex 1.016000 8.059940 0.800001
endloop
endfacet
facet normal 0.000000 -0.000000 1.000000
outer loop
vertex 1.016000 8.059940 0.800001
vertex 0.000000 10.160000 0.800002
vertex 0.830059 7.874000 0.800001
endloop
endfacet
facet normal -0.000000 -0.000000 1.000000
outer loop
vertex 0.830059 7.874000 0.800001
vertex 0.000000 10.160000 0.800002
vertex 0.762000 7.620000 0.800001
endloop
endfacet
facet normal 0.000000 -0.000000 1.000000
outer loop
vertex 0.762000 7.620000 0.800001
vertex 0.000000 10.160000 0.800002
vertex 0.762000 2.540000 0.800000
endloop
endfacet
facet normal 0.000000 -0.000000 1.000000
outer loop
vertex 0.762000 2.540000 0.800000
vertex 0.000000 10.160000 0.800002
vertex 0.000000 -0.000000 0.800000
endloop
endfacet
facet normal 0.000000 -0.000000 1.000000
outer loop
vertex 0.762000 2.540000 0.800000
vertex 0.000000 -0.000000 0.800000
vertex 0.830059 2.286000 0.800000
endloop
endfacet
facet normal -0.000000 -0.000000 1.000000
outer loop
vertex 0.830059 2.286000 0.800000
vertex 0.000000 -0.000000 0.800000
vertex 1.016000 2.100060 0.800000
endloop
endfacet
facet normal -0.000000 -0.000000 1.000000
outer loop
vertex 1.016000 2.100060 0.800000
vertex 0.000000 -0.000000 0.800000
vertex 1.270000 2.032000 0.800000
endloop
endfacet
facet normal 0.000000 -0.000000 1.000000
outer loop
vertex 1.270000 2.032000 0.800000
vertex 0.000000 -0.000000 0.800000
vertex 10.160000 -0.000000 0.800000
endloop
endfacet
facet normal 0.000000 -1.000000 -0.000000
outer loop
vertex 10.160000 -0.000000 0.800000
vertex 0.000000 -0.000000 0.800000
vertex 0.000000 0.000000 -0.800000
endloop
endfacet
facet normal -0.000000 -1.000000 -0.000000
outer loop
vertex 0.000000 0.000000 -0.800000
vertex 10.160000 0.000000 -0.800000
vertex 10.160000 -0.000000 0.800000
endloop
endfacet
facet normal -1.000000 -0.000000 0.000000
outer loop
vertex 0.000000 -0.000000 0.800000
vertex 0.000000 10.160000 0.800002
vertex 0.000000 10.160000 -0.799998
endloop
endfacet
facet normal -1.000000 0.000000 0.000000
outer loop
vertex 0.000000 10.160000 -0.799998
vertex 0.000000 0.000000 -0.800000
vertex 0.000000 -0.000000 0.800000
endloop
endfacet
facet normal 0.000000 0.000000 -1.000000
outer loop
vertex 0.000000 10.160000 -0.799998
vertex 0.762000 7.620000 -0.799999
vertex 0.000000 0.000000 -0.800000
endloop
endfacet
facet normal 0.000000 0.000000 -1.000000
outer loop
vertex 0.762000 7.620000 -0.799999
vertex 0.000000 10.160000 -0.799998
vertex 0.830059 7.874000 -0.799999
endloop
endfacet
facet normal -0.000000 0.000000 -1.000000
outer loop
vertex 0.830059 7.874000 -0.799999
vertex 0.000000 10.160000 -0.799998
vertex 1.016000 8.059940 -0.799999
endloop
endfacet
facet normal -0.000000 0.000000 -1.000000
outer loop
vertex 1.016000 8.059940 -0.799999
vertex 0.000000 10.160000 -0.799998
vertex 1.270000 8.128000 -0.799999
endloop
endfacet
facet normal 0.000000 0.000000 -1.000000
outer loop
vertex 1.270000 8.128000 -0.799999
vertex 0.000000 10.160000 -0.799998
vertex 10.160000 10.160000 -0.799998
endloop
endfacet
facet normal 0.000000 0.000000 -1.000000
outer loop
vertex 1.270000 8.128000 -0.799999
vertex 10.160000 10.160000 -0.799998
vertex 1.524000 8.059940 -0.799999
endloop
endfacet
facet normal 0.000000 0.000000 -1.000000
outer loop
vertex 1.524000 8.059940 -0.799999
vertex 10.160000 10.160000 -0.799998
vertex 1.709940 7.874000 -0.799999
endloop
endfacet
facet normal -0.000000 0.000000 -1.000000
outer loop
vertex 1.709940 7.874000 -0.799999
vertex 10.160000 10.160000 -0.799998
vertex 1.778000 7.620000 -0.799999
endloop
endfacet
facet normal 0.000000 0.000000 -1.000000
outer loop
vertex 1.778000 7.620000 -0.799999
vertex 10.160000 10.160000 -0.799998
vertex 1.778000 5.080000 -0.799999
endloop
endfacet
facet normal 0.000000 0.000000 -1.000000
outer loop
vertex 1.778000 5.080000 -0.799999
vertex 10.160000 10.160000 -0.799998
vertex 1.778000 2.540000 -0.800000
endloop
endfacet
facet normal 0.000000 0.000000 -1.000000
outer loop
vertex 10.160000 0.000000 -0.800000
vertex 1.778000 2.540000 -0.800000
vertex 10.160000 10.160000 -0.799998
endloop
endfacet
facet normal 0.000000 0.000000 -1.000000
outer loop
vertex 10.160000 0.000000 -0.800000
vertex 1.709940 2.286000 -0.800000
vertex 1.778000 2.540000 -0.800000
endloop
endfacet
facet normal -0.000000 0.000000 -1.000000
outer loop
vertex 10.160000 0.000000 -0.800000
vertex 1.524000 2.100060 -0.800000
vertex 1.709940 2.286000 -0.800000
endloop
endfacet
facet normal -0.000000 0.000000 -1.000000
outer loop
vertex 10.160000 0.000000 -0.800000
vertex 1.270000 2.032000 -0.800000
vertex 1.524000 2.100060 -0.800000
endloop
endfacet
facet normal 0.000000 0.000000 -1.000000
outer loop
vertex 0.000000 0.000000 -0.800000
vertex 1.270000 2.032000 -0.800000
vertex 10.160000 0.000000 -0.800000
endloop
endfacet
facet normal 0.000000 0.000000 -1.000000
outer loop
vertex 1.270000 2.032000 -0.800000
vertex 0.000000 0.000000 -0.800000
vertex 1.016000 2.100060 -0.800000
endloop
endfacet
facet normal 0.000000 0.000000 -1.000000
outer loop
vertex 1.016000 2.100060 -0.800000
vertex 0.000000 0.000000 -0.800000
vertex 0.830059 2.286000 -0.800000
endloop
endfacet
facet normal -0.000000 0.000000 -1.000000
outer loop
vertex 0.830059 2.286000 -0.800000
vertex 0.000000 0.000000 -0.800000
vertex 0.762000 2.540000 -0.800000
endloop
endfacet
facet normal 0.000000 0.000000 -1.000000
outer loop
vertex 0.762000 2.540000 -0.800000
vertex 0.000000 0.000000 -0.800000
vertex 0.762000 7.620000 -0.799999
endloop
endfacet
facet normal 0.000000 0.000000 0.000000
outer loop
vertex 0.762000 2.540000 -0.800000
vertex 0.762000 7.620000 -0.799999
vertex 0.762000 5.080000 -0.799999
endloop
endfacet
facet normal -0.000000 0.000000 -1.000000
outer loop
vertex 0.830059 7.366000 -0.799999
vertex 0.762000 5.080000 -0.799999
vertex 0.762000 7.620000 -0.799999
endloop
endfacet
facet normal 0.000000 0.000000 -1.000000
outer loop
vertex 0.762000 5.080000 -0.799999
vertex 0.830059 7.366000 -0.799999
vertex 0.830059 5.334000 -0.799999
endloop
endfacet
facet normal 0.000000 0.000000 -1.000000
outer loop
vertex 0.830059 5.334000 -0.799999
vertex 0.830059 7.366000 -0.799999
vertex 1.016000 7.180060 -0.799999
endloop
endfacet
facet normal 0.707105 0.707108 -0.000000
outer loop
vertex 0.830059 7.366000 0.800001
vertex 1.016000 7.180060 0.800001
vertex 1.016000 7.180060 -0.799999
endloop
endfacet
facet normal 0.707105 0.707108 0.000000
outer loop
vertex 1.016000 7.180060 -0.799999
vertex 0.830059 7.366000 -0.799999
vertex 0.830059 7.366000 0.800001
endloop
endfacet
facet normal -0.000000 -0.000000 1.000000
outer loop
vertex 0.830059 7.366000 0.800001
vertex 0.830059 5.334000 0.800001
vertex 1.016000 7.180060 0.800001
endloop
endfacet
facet normal 0.000000 -0.000000 1.000000
outer loop
vertex 0.762000 7.620000 0.800001
vertex 0.830059 5.334000 0.800001
vertex 0.830059 7.366000 0.800001
endloop
endfacet
facet normal -0.000000 -0.000000 1.000000
outer loop
vertex 0.830059 5.334000 0.800001
vertex 0.762000 7.620000 0.800001
vertex 0.762000 5.080000 0.800001
endloop
endfacet
facet normal 1.000000 0.000000 -0.000000
outer loop
vertex 0.762000 7.620000 0.800001
vertex 0.762000 2.540000 0.800000
vertex 0.762000 5.080000 0.800001
endloop
endfacet
facet normal -0.000000 -0.000000 1.000000
outer loop
vertex 0.830059 2.794000 0.800000
vertex 0.762000 5.080000 0.800001
vertex 0.762000 2.540000 0.800000
endloop
endfacet
facet normal 0.000000 -0.000000 1.000000
outer loop
vertex 0.762000 5.080000 0.800001
vertex 0.830059 2.794000 0.800000
vertex 0.830059 4.826000 0.800001
endloop
endfacet
facet normal -0.000000 -0.000000 1.000000
outer loop
vertex 0.830059 4.826000 0.800001
vertex 0.830059 2.794000 0.800000
vertex 1.016000 4.640060 0.800001
endloop
endfacet
facet normal 0.000000 -0.000000 1.000000
outer loop
vertex 1.016000 4.640060 0.800001
vertex 0.830059 2.794000 0.800000
vertex 1.016000 2.979940 0.800000
endloop
endfacet
facet normal 0.707105 -0.707109 -0.000000
outer loop
vertex 1.016000 2.979940 0.800000
vertex 0.830059 2.794000 0.800000
vertex 0.830059 2.794000 -0.800000
endloop
endfacet
facet normal 0.707105 -0.707109 -0.000000
outer loop
vertex 0.830059 2.794000 -0.800000
vertex 1.016000 2.979940 -0.800000
vertex 1.016000 2.979940 0.800000
endloop
endfacet
facet normal 0.965926 -0.258819 -0.000000
outer loop
vertex 0.830059 2.794000 0.800000
vertex 0.762000 2.540000 0.800000
vertex 0.762000 2.540000 -0.800000
endloop
endfacet
facet normal 0.965926 -0.258819 -0.000000
outer loop
vertex 0.762000 2.540000 -0.800000
vertex 0.830059 2.794000 -0.800000
vertex 0.830059 2.794000 0.800000
endloop
endfacet
facet normal 0.965926 0.258819 0.000000
outer loop
vertex 0.762000 2.540000 0.800000
vertex 0.830059 2.286000 0.800000
vertex 0.830059 2.286000 -0.800000
endloop
endfacet
facet normal 0.965926 0.258819 0.000000
outer loop
vertex 0.830059 2.286000 -0.800000
vertex 0.762000 2.540000 -0.800000
vertex 0.762000 2.540000 0.800000
endloop
endfacet
facet normal 0.707105 0.707109 0.000000
outer loop
vertex 0.830059 2.286000 0.800000
vertex 1.016000 2.100060 0.800000
vertex 1.016000 2.100060 -0.800000
endloop
endfacet
facet normal 0.707105 0.707109 0.000000
outer loop
vertex 1.016000 2.100060 -0.800000
vertex 0.830059 2.286000 -0.800000
vertex 0.830059 2.286000 0.800000
endloop
endfacet
facet normal 0.258822 0.965925 0.000000
outer loop
vertex 1.016000 2.100060 0.800000
vertex 1.270000 2.032000 0.800000
vertex 1.270000 2.032000 -0.800000
endloop
endfacet
facet normal 0.258822 0.965925 0.000000
outer loop
vertex 1.270000 2.032000 -0.800000
vertex 1.016000 2.100060 -0.800000
vertex 1.016000 2.100060 0.800000
endloop
endfacet
facet normal -0.258822 0.965925 0.000000
outer loop
vertex 1.270000 2.032000 0.800000
vertex 1.524000 2.100060 0.800000
vertex 1.524000 2.100060 -0.800000
endloop
endfacet
facet normal -0.258822 0.965925 0.000000
outer loop
vertex 1.524000 2.100060 -0.800000
vertex 1.270000 2.032000 -0.800000
vertex 1.270000 2.032000 0.800000
endloop
endfacet
facet normal 0.000000 -0.000000 1.000000
outer loop
vertex 1.270000 2.032000 0.800000
vertex 10.160000 -0.000000 0.800000
vertex 1.524000 2.100060 0.800000
endloop
endfacet
facet normal 0.000000 -0.000000 1.000000
outer loop
vertex 1.524000 2.100060 0.800000
vertex 10.160000 -0.000000 0.800000
vertex 1.709940 2.286000 0.800000
endloop
endfacet
facet normal -0.000000 -0.000000 1.000000
outer loop
vertex 1.709940 2.286000 0.800000
vertex 10.160000 -0.000000 0.800000
vertex 1.778000 2.540000 0.800000
endloop
endfacet
facet normal 0.000000 -0.000000 1.000000
outer loop
vertex 1.778000 2.540000 0.800000
vertex 10.160000 -0.000000 0.800000
vertex 1.778000 5.080000 0.800001
endloop
endfacet
facet normal 0.000000 -0.000000 1.000000
outer loop
vertex 1.778000 5.080000 0.800001
vertex 10.160000 -0.000000 0.800000
vertex 1.778000 7.620000 0.800001
endloop
endfacet
facet normal 0.000000 -0.000000 1.000000
outer loop
vertex 10.160000 10.160000 0.800002
vertex 1.778000 7.620000 0.800001
vertex 10.160000 -0.000000 0.800000
endloop
endfacet
facet normal 0.000000 -0.000000 1.000000
outer loop
vertex 10.160000 10.160000 0.800002
vertex 1.709940 7.874000 0.800001
vertex 1.778000 7.620000 0.800001
endloop
endfacet
facet normal -0.000000 -0.000000 1.000000
outer loop
vertex 10.160000 10.160000 0.800002
vertex 1.524000 8.059940 0.800001
vertex 1.709940 7.874000 0.800001
endloop
endfacet
facet normal -0.000000 -0.000000 1.000000
outer loop
vertex 10.160000 10.160000 0.800002
vertex 1.270000 8.128000 0.800001
vertex 1.524000 8.059940 0.800001
endloop
endfacet
facet normal -0.258822 -0.965925 0.000000
outer loop
vertex 1.524000 8.059940 0.800001
vertex 1.270000 8.128000 0.800001
vertex 1.270000 8.128000 -0.799999
endloop
endfacet
facet normal -0.258822 -0.965925 -0.000000
outer loop
vertex 1.270000 8.128000 -0.799999
vertex 1.524000 8.059940 -0.799999
vertex 1.524000 8.059940 0.800001
endloop
endfacet
facet normal 0.258822 -0.965925 0.000000
outer loop
vertex 1.270000 8.128000 0.800001
vertex 1.016000 8.059940 0.800001
vertex 1.016000 8.059940 -0.799999
endloop
endfacet
facet normal 0.258822 -0.965925 0.000000
outer loop
vertex 1.016000 8.059940 -0.799999
vertex 1.270000 8.128000 -0.799999
vertex 1.270000 8.128000 0.800001
endloop
endfacet
facet normal 0.707105 -0.707108 0.000000
outer loop
vertex 1.016000 8.059940 0.800001
vertex 0.830059 7.874000 0.800001
vertex 0.830059 7.874000 -0.799999
endloop
endfacet
facet normal 0.707105 -0.707108 0.000000
outer loop
vertex 0.830059 7.874000 -0.799999
vertex 1.016000 8.059940 -0.799999
vertex 1.016000 8.059940 0.800001
endloop
endfacet
facet normal 0.965926 -0.258818 0.000000
outer loop
vertex 0.830059 7.874000 0.800001
vertex 0.762000 7.620000 0.800001
vertex 0.762000 7.620000 -0.799999
endloop
endfacet
facet normal 0.965926 -0.258818 0.000000
outer loop
vertex 0.762000 7.620000 -0.799999
vertex 0.830059 7.874000 -0.799999
vertex 0.830059 7.874000 0.800001
endloop
endfacet
facet normal 0.965926 0.258819 -0.000000
outer loop
vertex 0.762000 7.620000 0.800001
vertex 0.830059 7.366000 0.800001
vertex 0.830059 7.366000 -0.799999
endloop
endfacet
facet normal 0.965926 0.258819 0.000000
outer loop
vertex 0.830059 7.366000 -0.799999
vertex 0.762000 7.620000 -0.799999
vertex 0.762000 7.620000 0.800001
endloop
endfacet
facet normal -0.707107 -0.707106 0.000000
outer loop
vertex 1.709940 7.874000 0.800001
vertex 1.524000 8.059940 0.800001
vertex 1.524000 8.059940 -0.799999
endloop
endfacet
facet normal -0.707107 -0.707106 -0.000000
outer loop
vertex 1.524000 8.059940 -0.799999
vertex 1.709940 7.874000 -0.799999
vertex 1.709940 7.874000 0.800001
endloop
endfacet
facet normal -0.965925 -0.258822 0.000000
outer loop
vertex 1.778000 7.620000 0.800001
vertex 1.709940 7.874000 0.800001
vertex 1.709940 7.874000 -0.799999
endloop
endfacet
facet normal -0.965925 -0.258822 -0.000000
outer loop
vertex 1.709940 7.874000 -0.799999
vertex 1.778000 7.620000 -0.799999
vertex 1.778000 7.620000 0.800001
endloop
endfacet
facet normal -0.965925 0.258823 0.000000
outer loop
vertex 1.709940 7.366000 0.800001
vertex 1.778000 7.620000 0.800001
vertex 1.778000 7.620000 -0.799999
endloop
endfacet
facet normal -0.965925 0.258823 0.000000
outer loop
vertex 1.778000 7.620000 -0.799999
vertex 1.709940 7.366000 -0.799999
vertex 1.709940 7.366000 0.800001
endloop
endfacet
facet normal -0.000000 -0.000000 1.000000
outer loop
vertex 1.709940 7.366000 0.800001
vertex 1.709940 5.334000 0.800001
vertex 1.778000 7.620000 0.800001
endloop
endfacet
facet normal -0.000000 -0.000000 1.000000
outer loop
vertex 1.709940 7.366000 0.800001
vertex 1.524000 5.519940 0.800001
vertex 1.709940 5.334000 0.800001
endloop
endfacet
facet normal 0.000000 -0.000000 1.000000
outer loop
vertex 1.524000 7.180060 0.800001
vertex 1.524000 5.519940 0.800001
vertex 1.709940 7.366000 0.800001
endloop
endfacet
facet normal -0.000000 -0.000000 1.000000
outer loop
vertex 1.524000 7.180060 0.800001
vertex 1.270000 5.588000 0.800001
vertex 1.524000 5.519940 0.800001
endloop
endfacet
facet normal -0.000000 -0.000000 1.000000
outer loop
vertex 1.270000 7.112000 0.800001
vertex 1.270000 5.588000 0.800001
vertex 1.524000 7.180060 0.800001
endloop
endfacet
facet normal 0.000000 -0.000000 1.000000
outer loop
vertex 1.270000 7.112000 0.800001
vertex 1.016000 5.519940 0.800001
vertex 1.270000 5.588000 0.800001
endloop
endfacet
facet normal 0.000000 -0.000000 1.000000
outer loop
vertex 1.016000 7.180060 0.800001
vertex 1.016000 5.519940 0.800001
vertex 1.270000 7.112000 0.800001
endloop
endfacet
facet normal 0.000000 -0.000000 1.000000
outer loop
vertex 1.016000 7.180060 0.800001
vertex 0.830059 5.334000 0.800001
vertex 1.016000 5.519940 0.800001
endloop
endfacet
facet normal 0.707104 -0.707109 0.000000
outer loop
vertex 1.016000 5.519940 0.800001
vertex 0.830059 5.334000 0.800001
vertex 0.830059 5.334000 -0.799999
endloop
endfacet
facet normal 0.707104 -0.707109 0.000000
outer loop
vertex 0.830059 5.334000 -0.799999
vertex 1.016000 5.519940 -0.799999
vertex 1.016000 5.519940 0.800001
endloop
endfacet
facet normal 0.965926 -0.258818 0.000000
outer loop
vertex 0.830059 5.334000 0.800001
vertex 0.762000 5.080000 0.800001
vertex 0.762000 5.080000 -0.799999
endloop
endfacet
facet normal 0.965926 -0.258818 0.000000
outer loop
vertex 0.762000 5.080000 -0.799999
vertex 0.830059 5.334000 -0.799999
vertex 0.830059 5.334000 0.800001
endloop
endfacet
facet normal 0.965926 0.258819 -0.000000
outer loop
vertex 0.762000 5.080000 0.800001
vertex 0.830059 4.826000 0.800001
vertex 0.830059 4.826000 -0.799999
endloop
endfacet
facet normal 0.965926 0.258819 0.000000
outer loop
vertex 0.830059 4.826000 -0.799999
vertex 0.762000 5.080000 -0.799999
vertex 0.762000 5.080000 0.800001
endloop
endfacet
facet normal 0.707105 0.707108 -0.000000
outer loop
vertex 0.830059 4.826000 0.800001
vertex 1.016000 4.640060 0.800001
vertex 1.016000 4.640060 -0.799999
endloop
endfacet
facet normal 0.707105 0.707108 0.000000
outer loop
vertex 1.016000 4.640060 -0.799999
vertex 0.830059 4.826000 -0.799999
vertex 0.830059 4.826000 0.800001
endloop
endfacet
facet normal 0.258822 0.965925 -0.000000
outer loop
vertex 1.016000 4.640060 0.800001
vertex 1.270000 4.572000 0.800001
vertex 1.270000 4.572000 -0.799999
endloop
endfacet
facet normal 0.258822 0.965925 0.000000
outer loop
vertex 1.270000 4.572000 -0.799999
vertex 1.016000 4.640060 -0.799999
vertex 1.016000 4.640060 0.800001
endloop
endfacet
facet normal 0.000000 -0.000000 1.000000
outer loop
vertex 1.016000 4.640060 0.800001
vertex 1.016000 2.979940 0.800000
vertex 1.270000 4.572000 0.800001
endloop
endfacet
facet normal 0.000000 -0.000000 1.000000
outer loop
vertex 1.270000 4.572000 0.800001
vertex 1.016000 2.979940 0.800000
vertex 1.270000 3.048000 0.800000
endloop
endfacet
facet normal 0.258823 -0.965925 -0.000000
outer loop
vertex 1.270000 3.048000 0.800000
vertex 1.016000 2.979940 0.800000
vertex 1.016000 2.979940 -0.800000
endloop
endfacet
facet normal 0.258823 -0.965925 -0.000000
outer loop
vertex 1.016000 2.979940 -0.800000
vertex 1.270000 3.048000 -0.800000
vertex 1.270000 3.048000 0.800000
endloop
endfacet
facet normal -0.000000 0.000000 -1.000000
outer loop
vertex 1.016000 2.979940 -0.800000
vertex 1.270000 4.572000 -0.799999
vertex 1.270000 3.048000 -0.800000
endloop
endfacet
facet normal -0.000000 0.000000 -1.000000
outer loop
vertex 1.016000 2.979940 -0.800000
vertex 1.016000 4.640060 -0.799999
vertex 1.270000 4.572000 -0.799999
endloop
endfacet
facet normal -0.000000 0.000000 -1.000000
outer loop
vertex 0.830059 2.794000 -0.800000
vertex 1.016000 4.640060 -0.799999
vertex 1.016000 2.979940 -0.800000
endloop
endfacet
facet normal 0.000000 0.000000 -1.000000
outer loop
vertex 0.830059 2.794000 -0.800000
vertex 0.830059 4.826000 -0.799999
vertex 1.016000 4.640060 -0.799999
endloop
endfacet
facet normal 0.000000 0.000000 -1.000000
outer loop
vertex 0.762000 2.540000 -0.800000
vertex 0.830059 4.826000 -0.799999
vertex 0.830059 2.794000 -0.800000
endloop
endfacet
facet normal -0.000000 0.000000 -1.000000
outer loop
vertex 0.830059 4.826000 -0.799999
vertex 0.762000 2.540000 -0.800000
vertex 0.762000 5.080000 -0.799999
endloop
endfacet
facet normal 0.000000 0.000000 -1.000000
outer loop
vertex 1.270000 3.048000 -0.800000
vertex 1.270000 4.572000 -0.799999
vertex 1.524000 4.640060 -0.799999
endloop
endfacet
facet normal -0.258822 0.965925 0.000000
outer loop
vertex 1.270000 4.572000 0.800001
vertex 1.524000 4.640060 0.800001
vertex 1.524000 4.640060 -0.799999
endloop
endfacet
facet normal -0.258822 0.965925 0.000000
outer loop
vertex 1.524000 4.640060 -0.799999
vertex 1.270000 4.572000 -0.799999
vertex 1.270000 4.572000 0.800001
endloop
endfacet
facet normal -0.000000 -0.000000 1.000000
outer loop
vertex 1.270000 4.572000 0.800001
vertex 1.270000 3.048000 0.800000
vertex 1.524000 4.640060 0.800001
endloop
endfacet
facet normal -0.000000 -0.000000 1.000000
outer loop
vertex 1.524000 4.640060 0.800001
vertex 1.270000 3.048000 0.800000
vertex 1.524000 2.979940 0.800000
endloop
endfacet
facet normal -0.258823 -0.965925 -0.000000
outer loop
vertex 1.524000 2.979940 0.800000
vertex 1.270000 3.048000 0.800000
vertex 1.270000 3.048000 -0.800000
endloop
endfacet
facet normal -0.258823 -0.965925 -0.000000
outer loop
vertex 1.270000 3.048000 -0.800000
vertex 1.524000 2.979940 -0.800000
vertex 1.524000 2.979940 0.800000
endloop
endfacet
facet normal 0.000000 0.000000 -1.000000
outer loop
vertex 1.270000 3.048000 -0.800000
vertex 1.524000 4.640060 -0.799999
vertex 1.524000 2.979940 -0.800000
endloop
endfacet
facet normal -0.000000 0.000000 -1.000000
outer loop
vertex 1.524000 2.979940 -0.800000
vertex 1.524000 4.640060 -0.799999
vertex 1.709940 4.826000 -0.799999
endloop
endfacet
facet normal -0.707107 0.707106 0.000000
outer loop
vertex 1.524000 4.640060 0.800001
vertex 1.709940 4.826000 0.800001
vertex 1.709940 4.826000 -0.799999
endloop
endfacet
facet normal -0.707107 0.707106 0.000000
outer loop
vertex 1.709940 4.826000 -0.799999
vertex 1.524000 4.640060 -0.799999
vertex 1.524000 4.640060 0.800001
endloop
endfacet
facet normal 0.000000 -0.000000 1.000000
outer loop
vertex 1.524000 4.640060 0.800001
vertex 1.524000 2.979940 0.800000
vertex 1.709940 4.826000 0.800001
endloop
endfacet
facet normal -0.000000 -0.000000 1.000000
outer loop
vertex 1.709940 4.826000 0.800001
vertex 1.524000 2.979940 0.800000
vertex 1.709940 2.794000 0.800000
endloop
endfacet
facet normal -0.707107 -0.707107 -0.000000
outer loop
vertex 1.709940 2.794000 0.800000
vertex 1.524000 2.979940 0.800000
vertex 1.524000 2.979940 -0.800000
endloop
endfacet
facet normal -0.707107 -0.707107 -0.000000
outer loop
vertex 1.524000 2.979940 -0.800000
vertex 1.709940 2.794000 -0.800000
vertex 1.709940 2.794000 0.800000
endloop
endfacet
facet normal 0.000000 0.000000 -1.000000
outer loop
vertex 1.524000 2.979940 -0.800000
vertex 1.709940 4.826000 -0.799999
vertex 1.709940 2.794000 -0.800000
endloop
endfacet
facet normal 0.000000 0.000000 -1.000000
outer loop
vertex 1.709940 2.794000 -0.800000
vertex 1.709940 4.826000 -0.799999
vertex 1.778000 5.080000 -0.799999
endloop
endfacet
facet normal -0.965925 0.258823 0.000000
outer loop
vertex 1.709940 4.826000 0.800001
vertex 1.778000 5.080000 0.800001
vertex 1.778000 5.080000 -0.799999
endloop
endfacet
facet normal -0.965925 0.258823 0.000000
outer loop
vertex 1.778000 5.080000 -0.799999
vertex 1.709940 4.826000 -0.799999
vertex 1.709940 4.826000 0.800001
endloop
endfacet
facet normal -0.000000 -0.000000 1.000000
outer loop
vertex 1.709940 4.826000 0.800001
vertex 1.709940 2.794000 0.800000
vertex 1.778000 5.080000 0.800001
endloop
endfacet
facet normal 0.000000 -0.000000 1.000000
outer loop
vertex 1.778000 5.080000 0.800001
vertex 1.709940 2.794000 0.800000
vertex 1.778000 2.540000 0.800000
endloop
endfacet
facet normal -0.965925 -0.258822 -0.000000
outer loop
vertex 1.778000 2.540000 0.800000
vertex 1.709940 2.794000 0.800000
vertex 1.709940 2.794000 -0.800000
endloop
endfacet
facet normal -0.965925 -0.258822 -0.000000
outer loop
vertex 1.709940 2.794000 -0.800000
vertex 1.778000 2.540000 -0.800000
vertex 1.778000 2.540000 0.800000
endloop
endfacet
facet normal -0.000000 0.000000 -1.000000
outer loop
vertex 1.709940 2.794000 -0.800000
vertex 1.778000 5.080000 -0.799999
vertex 1.778000 2.540000 -0.800000
endloop
endfacet
facet normal -0.965925 0.258822 0.000000
outer loop
vertex 1.709940 2.286000 0.800000
vertex 1.778000 2.540000 0.800000
vertex 1.778000 2.540000 -0.800000
endloop
endfacet
facet normal -0.965925 0.258822 0.000000
outer loop
vertex 1.778000 2.540000 -0.800000
vertex 1.709940 2.286000 -0.800000
vertex 1.709940 2.286000 0.800000
endloop
endfacet
facet normal -0.707107 0.707107 0.000000
outer loop
vertex 1.524000 2.100060 0.800000
vertex 1.709940 2.286000 0.800000
vertex 1.709940 2.286000 -0.800000
endloop
endfacet
facet normal -0.707107 0.707107 0.000000
outer loop
vertex 1.709940 2.286000 -0.800000
vertex 1.524000 2.100060 -0.800000
vertex 1.524000 2.100060 0.800000
endloop
endfacet
facet normal -0.965925 -0.258822 0.000000
outer loop
vertex 1.778000 5.080000 0.800001
vertex 1.709940 5.334000 0.800001
vertex 1.709940 5.334000 -0.799999
endloop
endfacet
facet normal -0.965925 -0.258822 -0.000000
outer loop
vertex 1.709940 5.334000 -0.799999
vertex 1.778000 5.080000 -0.799999
vertex 1.778000 5.080000 0.800001
endloop
endfacet
facet normal 0.000000 -0.000000 1.000000
outer loop
vertex 1.778000 7.620000 0.800001
vertex 1.709940 5.334000 0.800001
vertex 1.778000 5.080000 0.800001
endloop
endfacet
facet normal -0.707107 -0.707107 0.000000
outer loop
vertex 1.709940 5.334000 0.800001
vertex 1.524000 5.519940 0.800001
vertex 1.524000 5.519940 -0.799999
endloop
endfacet
facet normal -0.707107 -0.707107 -0.000000
outer loop
vertex 1.524000 5.519940 -0.799999
vertex 1.709940 5.334000 -0.799999
vertex 1.709940 5.334000 0.800001
endloop
endfacet
facet normal -0.258822 -0.965925 0.000000
outer loop
vertex 1.524000 5.519940 0.800001
vertex 1.270000 5.588000 0.800001
vertex 1.270000 5.588000 -0.799999
endloop
endfacet
facet normal -0.258822 -0.965925 -0.000000
outer loop
vertex 1.270000 5.588000 -0.799999
vertex 1.524000 5.519940 -0.799999
vertex 1.524000 5.519940 0.800001
endloop
endfacet
facet normal 0.258822 -0.965925 0.000000
outer loop
vertex 1.270000 5.588000 0.800001
vertex 1.016000 5.519940 0.800001
vertex 1.016000 5.519940 -0.799999
endloop
endfacet
facet normal 0.258822 -0.965925 0.000000
outer loop
vertex 1.016000 5.519940 -0.799999
vertex 1.270000 5.588000 -0.799999
vertex 1.270000 5.588000 0.800001
endloop
endfacet
facet normal -0.000000 0.000000 -1.000000
outer loop
vertex 1.016000 5.519940 -0.799999
vertex 1.270000 7.112000 -0.799999
vertex 1.270000 5.588000 -0.799999
endloop
endfacet
facet normal -0.000000 0.000000 -1.000000
outer loop
vertex 1.016000 5.519940 -0.799999
vertex 1.016000 7.180060 -0.799999
vertex 1.270000 7.112000 -0.799999
endloop
endfacet
facet normal -0.000000 0.000000 -1.000000
outer loop
vertex 0.830059 5.334000 -0.799999
vertex 1.016000 7.180060 -0.799999
vertex 1.016000 5.519940 -0.799999
endloop
endfacet
facet normal 0.258822 0.965925 -0.000000
outer loop
vertex 1.016000 7.180060 0.800001
vertex 1.270000 7.112000 0.800001
vertex 1.270000 7.112000 -0.799999
endloop
endfacet
facet normal 0.258822 0.965925 0.000000
outer loop
vertex 1.270000 7.112000 -0.799999
vertex 1.016000 7.180060 -0.799999
vertex 1.016000 7.180060 0.800001
endloop
endfacet
facet normal -0.258822 0.965925 0.000000
outer loop
vertex 1.270000 7.112000 0.800001
vertex 1.524000 7.180060 0.800001
vertex 1.524000 7.180060 -0.799999
endloop
endfacet
facet normal -0.258822 0.965925 0.000000
outer loop
vertex 1.524000 7.180060 -0.799999
vertex 1.270000 7.112000 -0.799999
vertex 1.270000 7.112000 0.800001
endloop
endfacet
facet normal -0.707107 0.707106 0.000000
outer loop
vertex 1.524000 7.180060 0.800001
vertex 1.709940 7.366000 0.800001
vertex 1.709940 7.366000 -0.799999
endloop
endfacet
facet normal -0.707107 0.707106 0.000000
outer loop
vertex 1.709940 7.366000 -0.799999
vertex 1.524000 7.180060 -0.799999
vertex 1.524000 7.180060 0.800001
endloop
endfacet
facet normal -0.000000 0.000000 -1.000000
outer loop
vertex 1.524000 5.519940 -0.799999
vertex 1.524000 7.180060 -0.799999
vertex 1.709940 7.366000 -0.799999
endloop
endfacet
facet normal 0.000000 0.000000 -1.000000
outer loop
vertex 1.270000 5.588000 -0.799999
vertex 1.524000 7.180060 -0.799999
vertex 1.524000 5.519940 -0.799999
endloop
endfacet
facet normal 0.000000 0.000000 -1.000000
outer loop
vertex 1.270000 5.588000 -0.799999
vertex 1.270000 7.112000 -0.799999
vertex 1.524000 7.180060 -0.799999
endloop
endfacet
facet normal 0.000000 0.000000 -1.000000
outer loop
vertex 1.524000 5.519940 -0.799999
vertex 1.709940 7.366000 -0.799999
vertex 1.709940 5.334000 -0.799999
endloop
endfacet
facet normal 0.000000 0.000000 -1.000000
outer loop
vertex 1.709940 5.334000 -0.799999
vertex 1.709940 7.366000 -0.799999
vertex 1.778000 7.620000 -0.799999
endloop
endfacet
facet normal -0.000000 0.000000 -1.000000
outer loop
vertex 1.709940 5.334000 -0.799999
vertex 1.778000 7.620000 -0.799999
vertex 1.778000 5.080000 -0.799999
endloop
endfacet
facet normal 1.000000 0.000000 -0.000000
outer loop
vertex 10.160000 10.160000 0.800002
vertex 10.160000 -0.000000 0.800000
vertex 10.160000 0.000000 -0.800000
endloop
endfacet
facet normal 1.000000 0.000000 0.000000
outer loop
vertex 10.160000 0.000000 -0.800000
vertex 10.160000 10.160000 -0.799998
vertex 10.160000 10.160000 0.800002
endloop
endfacet
facet normal 0.000000 -0.000000 1.000000
outer loop
vertex 6.812000 8.092000 1.250001
vertex 6.812000 8.672000 1.250001
vertex 6.612000 8.672000 1.250001
endloop
endfacet
facet normal 0.000000 -0.000000 1.000000
outer loop
vertex 6.612000 8.672000 1.250001
vertex 6.612000 8.092000 1.250001
vertex 6.812000 8.092000 1.250001
endloop
endfacet
facet normal 0.000000 -0.000000 1.000000
outer loop
vertex 6.812000 8.092000 1.250001
vertex 7.412000 8.092000 1.250001
vertex 7.412000 8.672000 1.250001
endloop
endfacet
facet normal 0.000000 -0.000000 1.000000
outer loop
vertex 7.412000 8.672000 1.250001
vertex 6.812000 8.672000 1.250001
vertex 6.812000 8.092000 1.250001
endloop
endfacet
facet normal 0.000000 0.000000 -1.000000
outer loop
vertex 6.812000 8.672000 0.800001
vertex 7.412000 8.672000 0.800001
vertex 7.412000 8.092000 0.800001
endloop
endfacet
facet normal 0.000000 0.000000 -1.000000
outer loop
vertex 7.412000 8.092000 0.800001
vertex 6.812000 8.092000 0.800001
vertex 6.812000 8.672000 0.800001
endloop
endfacet
facet normal 0.000000 -0.000000 1.000000
outer loop
vertex 7.612000 8.672000 1.250001
vertex 7.412000 8.672000 1.250001
vertex 7.412000 8.092000 1.250001
endloop
endfacet
facet normal 0.000000 -0.000000 1.000000
outer loop
vertex 7.412000 8.092000 1.250001
vertex 7.612000 8.092000 1.250001
vertex 7.612000 8.672000 1.250001
endloop
endfacet
facet normal 0.000000 0.000000 -1.000000
outer loop
vertex 7.612000 8.092000 0.800001
vertex 7.412000 8.092000 0.800001
vertex 7.412000 8.672000 0.800001
endloop
endfacet
facet normal 0.000000 0.000000 -1.000000
outer loop
vertex 7.412000 8.672000 0.800001
vertex 7.612000 8.672000 0.800001
vertex 7.612000 8.092000 0.800001
endloop
endfacet
facet normal 1.000000 -0.000000 0.000000
outer loop
vertex 7.612000 8.672000 0.800001
vertex 7.612000 8.672000 1.250001
vertex 7.612000 8.092000 1.250001
endloop
endfacet
facet normal 1.000000 0.000000 -0.000000
outer loop
vertex 7.612000 8.092000 1.250001
vertex 7.612000 8.092000 0.800001
vertex 7.612000 8.672000 0.800001
endloop
endfacet
facet normal 0.000000 0.000000 -1.000000
outer loop
vertex 6.612000 8.672000 0.800001
vertex 6.812000 8.672000 0.800001
vertex 6.812000 8.092000 0.800001
endloop
endfacet
facet normal 0.000000 0.000000 -1.000000
outer loop
vertex 6.812000 8.092000 0.800001
vertex 6.612000 8.092000 0.800001
vertex 6.612000 8.672000 0.800001
endloop
endfacet
facet normal -1.000000 0.000000 0.000000
outer loop
vertex 6.612000 8.672000 0.800001
vertex 6.612000 8.092000 0.800001
vertex 6.612000 8.092000 1.250001
endloop
endfacet
facet normal -1.000000 -0.000000 0.000000
outer loop
vertex 6.612000 8.092000 1.250001
vertex 6.612000 8.672000 1.250001
vertex 6.612000 8.672000 0.800001
endloop
endfacet
facet normal 0.000000 -1.000000 0.000000
outer loop
vertex 6.812000 8.092000 0.850001
vertex 6.612000 8.092000 0.800001
vertex 6.812000 8.092000 0.800001
endloop
endfacet
facet normal 0.000000 -1.000000 0.000000
outer loop
vertex 6.812000 8.092000 1.200001
vertex 6.812000 8.092000 1.250001
vertex 6.612000 8.092000 1.250001
endloop
endfacet
facet normal 0.000000 -1.000000 0.000000
outer loop
vertex 6.812000 8.092000 0.850001
vertex 6.662000 8.092000 0.850001
vertex 6.612000 8.092000 0.800001
endloop
endfacet
facet normal -0.000000 -1.000000 -0.000000
outer loop
vertex 6.662000 8.092000 1.200001
vertex 6.812000 8.092000 1.200001
vertex 6.612000 8.092000 1.250001
endloop
endfacet
facet normal 0.000000 -1.000000 0.000000
outer loop
vertex 6.662000 8.092000 0.850001
vertex 6.612000 8.092000 1.250001
vertex 6.612000 8.092000 0.800001
endloop
endfacet
facet normal 0.000000 -1.000000 0.000000
outer loop
vertex 6.662000 8.092000 0.850001
vertex 6.662000 8.092000 1.200001
vertex 6.612000 8.092000 1.250001
endloop
endfacet
facet normal 0.000000 1.000000 -0.000000
outer loop
vertex 7.412000 8.672000 1.250001
vertex 7.562000 8.672000 1.200001
vertex 7.412000 8.672000 1.200001
endloop
endfacet
facet normal 0.000000 1.000000 0.000000
outer loop
vertex 7.412000 8.672000 0.800001
vertex 7.412000 8.672000 0.850001
vertex 7.562000 8.672000 0.850001
endloop
endfacet
facet normal 0.000000 1.000000 -0.000000
outer loop
vertex 7.412000 8.672000 1.250001
vertex 7.612000 8.672000 1.250001
vertex 7.562000 8.672000 1.200001
endloop
endfacet
facet normal -0.000000 1.000000 0.000000
outer loop
vertex 7.612000 8.672000 0.800001
vertex 7.412000 8.672000 0.800001
vertex 7.562000 8.672000 0.850001
endloop
endfacet
facet normal -0.000000 1.000000 0.000000
outer loop
vertex 7.612000 8.672000 1.250001
vertex 7.562000 8.672000 0.850001
vertex 7.562000 8.672000 1.200001
endloop
endfacet
facet normal -0.000000 1.000000 0.000000
outer loop
vertex 7.612000 8.672000 1.250001
vertex 7.612000 8.672000 0.800001
vertex 7.562000 8.672000 0.850001
endloop
endfacet
facet normal -0.000000 -1.000000 -0.000000
outer loop
vertex 6.812000 8.092000 0.800001
vertex 7.412000 8.092000 0.800001
vertex 7.412000 8.092000 0.850001
endloop
endfacet
facet normal 0.000000 -1.000000 0.000000
outer loop
vertex 7.562000 8.092000 0.850001
vertex 7.562000 8.092000 1.200001
vertex 7.412000 8.092000 0.850001
endloop
endfacet
facet normal 0.000000 -1.000000 0.000000
outer loop
vertex 7.412000 8.092000 1.200001
vertex 7.412000 8.092000 1.250001
vertex 6.812000 8.092000 1.250001
endloop
endfacet
facet normal 0.000000 -1.000000 0.000000
outer loop
vertex 7.562000 8.092000 1.200001
vertex 7.412000 8.092000 1.200001
vertex 7.412000 8.092000 0.850001
endloop
endfacet
facet normal -0.000000 -1.000000 0.000000
outer loop
vertex 6.812000 8.092000 0.850001
vertex 6.812000 8.092000 0.800001
vertex 7.412000 8.092000 0.850001
endloop
endfacet
facet normal 0.000000 -1.000000 0.000000
outer loop
vertex 6.662000 8.092000 1.200001
vertex 6.662000 8.092000 0.850001
vertex 6.812000 8.092000 0.850001
endloop
endfacet
facet normal 0.000000 -1.000000 0.000000
outer loop
vertex 7.412000 8.092000 1.200001
vertex 6.812000 8.092000 1.250001
vertex 6.812000 8.092000 1.200001
endloop
endfacet
facet normal 0.000000 -1.000000 0.000000
outer loop
vertex 6.812000 8.092000 1.200001
vertex 6.662000 8.092000 1.200001
vertex 6.812000 8.092000 0.850001
endloop
endfacet
facet normal 0.000000 -1.000000 0.000000
outer loop
vertex 7.412000 8.092000 1.200001
vertex 6.812000 8.092000 0.850001
vertex 7.412000 8.092000 0.850001
endloop
endfacet
facet normal 0.000000 -1.000000 0.000000
outer loop
vertex 7.412000 8.092000 1.200001
vertex 6.812000 8.092000 1.200001
vertex 6.812000 8.092000 0.850001
endloop
endfacet
facet normal 0.000000 -1.000000 -0.000000
outer loop
vertex 7.412000 8.092000 0.800001
vertex 7.562000 8.092000 0.850001
vertex 7.412000 8.092000 0.850001
endloop
endfacet
facet normal 0.000000 -1.000000 0.000000
outer loop
vertex 7.412000 8.092000 1.250001
vertex 7.412000 8.092000 1.200001
vertex 7.562000 8.092000 1.200001
endloop
endfacet
facet normal -0.000000 -1.000000 -0.000000
outer loop
vertex 7.412000 8.092000 0.800001
vertex 7.612000 8.092000 0.800001
vertex 7.562000 8.092000 0.850001
endloop
endfacet
facet normal 0.000000 -1.000000 0.000000
outer loop
vertex 7.612000 8.092000 1.250001
vertex 7.412000 8.092000 1.250001
vertex 7.562000 8.092000 1.200001
endloop
endfacet
facet normal 0.000000 -1.000000 0.000000
outer loop
vertex 7.612000 8.092000 0.800001
vertex 7.562000 8.092000 1.200001
vertex 7.562000 8.092000 0.850001
endloop
endfacet
facet normal 0.000000 -1.000000 0.000000
outer loop
vertex 7.612000 8.092000 0.800001
vertex 7.612000 8.092000 1.250001
vertex 7.562000 8.092000 1.200001
endloop
endfacet
facet normal 0.000000 1.000000 -0.000000
outer loop
vertex 6.662000 8.672000 1.200001
vertex 6.812000 8.672000 1.250001
vertex 6.812000 8.672000 1.200001
endloop
endfacet
facet normal 0.000000 1.000000 0.000000
outer loop
vertex 6.812000 8.672000 0.850001
vertex 6.812000 8.672000 0.800001
vertex 6.612000 8.672000 0.800001
endloop
endfacet
facet normal 0.000000 1.000000 0.000000
outer loop
vertex 6.662000 8.672000 1.200001
vertex 6.612000 8.672000 1.250001
vertex 6.812000 8.672000 1.250001
endloop
endfacet
facet normal 0.000000 1.000000 -0.000000
outer loop
vertex 6.662000 8.672000 0.850001
vertex 6.812000 8.672000 0.850001
vertex 6.612000 8.672000 0.800001
endloop
endfacet
facet normal -0.000000 1.000000 0.000000
outer loop
vertex 6.662000 8.672000 1.200001
vertex 6.612000 8.672000 0.800001
vertex 6.612000 8.672000 1.250001
endloop
endfacet
facet normal 0.000000 1.000000 0.000000
outer loop
vertex 6.662000 8.672000 1.200001
vertex 6.662000 8.672000 0.850001
vertex 6.612000 8.672000 0.800001
endloop
endfacet
facet normal -0.000000 1.000000 0.000000
outer loop
vertex 6.812000 8.672000 1.200001
vertex 6.662000 8.672000 0.850001
vertex 6.662000 8.672000 1.200001
endloop
endfacet
facet normal -0.000000 1.000000 0.000000
outer loop
vertex 7.412000 8.672000 0.800001
vertex 6.812000 8.672000 0.800001
vertex 6.812000 8.672000 0.850001
endloop
endfacet
facet normal 0.000000 1.000000 0.000000
outer loop
vertex 6.812000 8.672000 1.200001
vertex 6.812000 8.672000 0.850001
vertex 6.662000 8.672000 0.850001
endloop
endfacet
facet normal 0.000000 1.000000 0.000000
outer loop
vertex 6.812000 8.672000 1.200001
vertex 6.812000 8.672000 1.250001
vertex 7.412000 8.672000 1.250001
endloop
endfacet
facet normal 0.000000 1.000000 -0.000000
outer loop
vertex 7.412000 8.672000 1.200001
vertex 7.562000 8.672000 1.200001
vertex 7.562000 8.672000 0.850001
endloop
endfacet
facet normal 0.000000 1.000000 -0.000000
outer loop
vertex 6.812000 8.672000 1.200001
vertex 7.412000 8.672000 1.250001
vertex 7.412000 8.672000 1.200001
endloop
endfacet
facet normal -0.000000 1.000000 -0.000000
outer loop
vertex 6.812000 8.672000 1.200001
vertex 7.412000 8.672000 0.800001
vertex 6.812000 8.672000 0.850001
endloop
endfacet
facet normal 0.000000 1.000000 -0.000000
outer loop
vertex 7.412000 8.672000 1.200001
vertex 7.562000 8.672000 0.850001
vertex 7.412000 8.672000 0.850001
endloop
endfacet
facet normal 0.000000 1.000000 -0.000000
outer loop
vertex 6.812000 8.672000 1.200001
vertex 7.412000 8.672000 0.850001
vertex 7.412000 8.672000 0.800001
endloop
endfacet
facet normal 0.000000 1.000000 -0.000000
outer loop
vertex 6.812000 8.672000 1.200001
vertex 7.412000 8.672000 1.200001
vertex 7.412000 8.672000 0.850001
endloop
endfacet
facet normal 0.000000 -0.000000 1.000000
outer loop
vertex 8.038330 5.444330 1.850001
vertex 6.185670 5.444330 1.850001
vertex 6.185670 3.191670 1.850001
endloop
endfacet
facet normal 0.000000 -0.000000 1.000000
outer loop
vertex 6.185670 3.191670 1.850001
vertex 8.038330 3.191670 1.850001
vertex 8.038330 5.444330 1.850001
endloop
endfacet
facet normal 0.992546 -0.000000 0.121869
outer loop
vertex 8.038330 5.444330 1.850001
vertex 8.038330 3.191670 1.850001
vertex 8.112000 3.118000 1.250000
endloop
endfacet
facet normal 0.992546 -0.000000 0.121869
outer loop
vertex 8.112000 3.118000 1.250000
vertex 8.112000 5.518000 1.250001
vertex 8.038330 5.444330 1.850001
endloop
endfacet
facet normal 0.000000 0.000000 -1.000000
outer loop
vertex 8.112000 6.318000 0.800001
vertex 8.112000 2.318000 0.800000
vertex 6.112000 2.318000 0.800000
endloop
endfacet
facet normal 0.000000 0.000000 -1.000000
outer loop
vertex 6.112000 2.318000 0.800000
vertex 6.112000 6.318000 0.800001
vertex 8.112000 6.318000 0.800001
endloop
endfacet
facet normal -0.992546 -0.000000 0.121868
outer loop
vertex 6.185670 3.191670 1.850001
vertex 6.185670 5.444330 1.850001
vertex 6.112000 5.518000 1.250001
endloop
endfacet
facet normal -0.992546 -0.000000 0.121868
outer loop
vertex 6.112000 5.518000 1.250001
vertex 6.112000 3.118000 1.250000
vertex 6.185670 3.191670 1.850001
endloop
endfacet
facet normal 0.000000 -1.000000 0.000000
outer loop
vertex 8.112000 2.318000 0.800000
vertex 8.112000 2.318000 1.250000
vertex 6.112000 2.318000 1.250000
endloop
endfacet
facet normal 0.000000 -1.000000 0.000000
outer loop
vertex 6.112000 2.318000 1.250000
vertex 6.112000 2.318000 0.800000
vertex 8.112000 2.318000 0.800000
endloop
endfacet
facet normal 0.000000 -0.000000 1.000000
outer loop
vertex 8.112000 5.518000 1.250001
vertex 8.112000 6.318000 1.250001
vertex 6.112000 6.318000 1.250001
endloop
endfacet
facet normal 0.000000 -0.000000 1.000000
outer loop
vertex 6.112000 6.318000 1.250001
vertex 6.112000 5.518000 1.250001
vertex 8.112000 5.518000 1.250001
endloop
endfacet
facet normal -0.000000 0.992546 0.121869
outer loop
vertex 8.112000 5.518000 1.250001
vertex 6.112000 5.518000 1.250001
vertex 6.185670 5.444330 1.850001
endloop
endfacet
facet normal 0.000000 0.992546 0.121869
outer loop
vertex 6.185670 5.444330 1.850001
vertex 8.038330 5.444330 1.850001
vertex 8.112000 5.518000 1.250001
endloop
endfacet
facet normal 1.000000 -0.000000 0.000000
outer loop
vertex 8.112000 2.318000 0.800000
vertex 8.112000 3.118000 1.250000
vertex 8.112000 2.318000 1.250000
endloop
endfacet
facet normal 1.000000 0.000000 0.000000
outer loop
vertex 8.112000 6.318000 1.250001
vertex 8.112000 5.518000 1.250001
vertex 8.112000 3.118000 1.250000
endloop
endfacet
facet normal 1.000000 0.000000 0.000000
outer loop
vertex 8.112000 2.318000 0.800000
vertex 8.112000 6.318000 0.800001
vertex 8.112000 6.318000 1.250001
endloop
endfacet
facet normal 1.000000 -0.000000 0.000000
outer loop
vertex 8.112000 2.318000 0.800000
vertex 8.112000 6.318000 1.250001
vertex 8.112000 3.118000 1.250000
endloop
endfacet
facet normal -1.000000 0.000000 -0.000000
outer loop
vertex 6.112000 2.318000 0.800000
vertex 6.112000 2.318000 1.250000
vertex 6.112000 3.118000 1.250000
endloop
endfacet
facet normal -1.000000 -0.000000 0.000000
outer loop
vertex 6.112000 5.518000 1.250001
vertex 6.112000 6.318000 1.250001
vertex 6.112000 6.318000 0.800001
endloop
endfacet
facet normal -1.000000 0.000000 -0.000000
outer loop
vertex 6.112000 5.518000 1.250001
vertex 6.112000 2.318000 0.800000
vertex 6.112000 3.118000 1.250000
endloop
endfacet
facet normal -1.000000 0.000000 0.000000
outer loop
vertex 6.112000 5.518000 1.250001
vertex 6.112000 6.318000 0.800001
vertex 6.112000 2.318000 0.800000
endloop
endfacet
facet normal 0.000000 1.000000 -0.000000
outer loop
vertex 6.112000 6.318000 1.250001
vertex 8.112000 6.318000 1.250001
vertex 8.112000 6.318000 0.800001
endloop
endfacet
facet normal -0.000000 1.000000 0.000000
outer loop
vertex 8.112000 6.318000 0.800001
vertex 6.112000 6.318000 0.800001
vertex 6.112000 6.318000 1.250001
endloop
endfacet
facet normal 0.000000 -0.000000 1.000000
outer loop
vertex 6.112000 2.318000 1.250000
vertex 8.112000 2.318000 1.250000
vertex 8.112000 3.118000 1.250000
endloop
endfacet
facet normal 0.000000 -0.000000 1.000000
outer loop
vertex 8.112000 3.118000 1.250000
vertex 6.112000 3.118000 1.250000
vertex 6.112000 2.318000 1.250000
endloop
endfacet
facet normal 0.000000 -0.992546 0.121868
outer loop
vertex 8.112000 3.118000 1.250000
vertex 8.038330 3.191670 1.850001
vertex 6.185670 3.191670 1.850001
endloop
endfacet
facet normal 0.000000 -0.992546 0.121868
outer loop
vertex 6.185670 3.191670 1.850001
vertex 6.112000 3.118000 1.250000
vertex 8.112000 3.118000 1.250000
endloop
endfacet
facet normal 0.000000 0.000000 -1.000000
outer loop
vertex 6.112000 5.518000 1.250001
vertex 8.112000 5.518000 1.250001
vertex 8.112000 3.118000 1.250000
endloop
endfacet
facet normal 0.000000 0.000000 -1.000000
outer loop
vertex 8.112000 3.118000 1.250000
vertex 6.112000 3.118000 1.250000
vertex 6.112000 5.518000 1.250001
endloop
endfacet
endsolid Exported from Blender-2.72 (sub 0)
